<svg width="14" height="15" viewBox="0 0 14 15" fill="none" xmlns="http://www.w3.org/2000/svg">
    <path
        d="M6.33594 10.8359H7.66927V8.16927H10.3359V6.83594H7.66927V4.16927H6.33594V6.83594H3.66927V8.16927H6.33594V10.8359ZM7.0026 14.1693C6.08038 14.1693 5.21372 13.9943 4.4026 13.6443C3.59149 13.2943 2.88594 12.8193 2.28594 12.2193C1.68594 11.6193 1.21094 10.9137 0.860938 10.1026C0.510937 9.29149 0.335938 8.42483 0.335938 7.5026C0.335938 6.58038 0.510937 5.71372 0.860938 4.9026C1.21094 4.09149 1.68594 3.38594 2.28594 2.78594C2.88594 2.18594 3.59149 1.71094 4.4026 1.36094C5.21372 1.01094 6.08038 0.835938 7.0026 0.835938C7.92483 0.835938 8.79149 1.01094 9.6026 1.36094C10.4137 1.71094 11.1193 2.18594 11.7193 2.78594C12.3193 3.38594 12.7943 4.09149 13.1443 4.9026C13.4943 5.71372 13.6693 6.58038 13.6693 7.5026C13.6693 8.42483 13.4943 9.29149 13.1443 10.1026C12.7943 10.9137 12.3193 11.6193 11.7193 12.2193C11.1193 12.8193 10.4137 13.2943 9.6026 13.6443C8.79149 13.9943 7.92483 14.1693 7.0026 14.1693ZM7.0026 12.8359C8.49149 12.8359 9.75261 12.3193 10.7859 11.2859C11.8193 10.2526 12.3359 8.99149 12.3359 7.5026C12.3359 6.01372 11.8193 4.7526 10.7859 3.71927C9.75261 2.68594 8.49149 2.16927 7.0026 2.16927C5.51372 2.16927 4.2526 2.68594 3.21927 3.71927C2.18594 4.7526 1.66927 6.01372 1.66927 7.5026C1.66927 8.99149 2.18594 10.2526 3.21927 11.2859C4.2526 12.3193 5.51372 12.8359 7.0026 12.8359Z"
        fill="#DF660A" />
</svg>
