<svg version="1.1" id="Layer_1" xmlns="http://www.w3.org/2000/svg" xmlns:xlink="http://www.w3.org/1999/xlink" x="0px" y="0px"
	 viewBox="0 0 150 150" style="enable-background:new 0 0 150 150;" xml:space="preserve">
<g>
	<g>
		<g>
			<path fill="#006A51" d="M90.7,124.9l0.3,0c12.8-0.9,34.3-3.8,34.3-13.1c0-3.6-1.6-6-3.3-8.6l-0.4-0.6c-3.2-4.9-7.6-11.7-7.6-30.4
				v-8.5c0-17.1-11.5-32.6-27.9-37.5l-0.4-0.1V24c0-6-4.8-10.8-10.8-10.8S64.2,18,64.2,24v2.1l-0.4,0.1
				c-16.5,4.9-27.9,20.4-27.9,37.5v8.5c0,19.3-4.7,26.1-7.8,30.6c-1.7,2.5-3.5,5.2-3.5,9c0,9.3,21.5,12.2,34.3,13.1l0.3,0l0.1,0.3
				c2.2,6.9,8.4,11.5,15.6,11.5c7.2,0,13.5-4.6,15.6-11.5L90.7,124.9z M68.8,24c0-3.4,2.8-6.2,6.2-6.2c3.5,0,6.2,2.7,6.2,6.2v1.1
				L80.6,25c-2.1-0.3-3.9-0.5-5.6-0.5s-3.5,0.2-5.6,0.5l-0.6,0.1V24z M85.3,125.9c-2.1,3.9-6,6.2-10.3,6.2c-4.3,0-8.2-2.3-10.3-6.2
				l-0.4-0.8l0.9,0c4,0.2,7.5,0.2,9.9,0.2c2.3,0,5.9,0,9.9-0.2l0.9,0L85.3,125.9z M75,120.8c-24.4,0-45.8-4.2-45.8-9
				c0-2.3,1-3.9,2.8-6.5c3.4-5.1,8.5-12.8,8.5-33.2v-8.5c0-19,15.5-34.5,34.5-34.5s34.5,15.5,34.5,34.5v8.5c0,20.2,5.1,27.9,8.4,33
				l0.1,0.2c1.7,2.6,2.8,4.2,2.8,6.5C120.8,116.6,99.4,120.8,75,120.8z"/>
			<path fill="#006A51" d="M136.2,96.9c0.2,0.1,0.5,0.1,0.7,0.1c1,0,1.9-0.6,2.2-1.6c2.2-6.8,3.4-13.7,3.4-20.4
				c0-6.7-1.1-13.6-3.4-20.4c-0.2-0.6-0.6-1.1-1.2-1.4c-0.3-0.2-0.7-0.2-1-0.2c-0.3,0-0.5,0-0.8,0.1c-0.6,0.2-1.1,0.6-1.4,1.2
				c-0.3,0.6-0.3,1.2-0.1,1.8c2.1,6.3,3.1,12.7,3.1,19c0,6.6-1.1,12.9-3.1,19c-0.2,0.6-0.2,1.2,0.1,1.8
				C135.1,96.3,135.6,96.7,136.2,96.9z"/>
			<path fill="#006A51" d="M125.4,93.3c0.2,0.1,0.5,0.1,0.7,0.1c1,0,1.9-0.6,2.2-1.6c1.8-5.6,2.8-11.3,2.8-16.8
				c0-5.8-0.9-11.5-2.8-16.8c-0.2-0.6-0.6-1.1-1.2-1.4c-0.3-0.2-0.7-0.2-1-0.2c-0.3,0-0.5,0-0.8,0.1c-0.6,0.2-1.1,0.6-1.4,1.2
				c-0.3,0.6-0.3,1.2-0.1,1.8c1.7,4.9,2.5,10.1,2.5,15.4s-0.8,10.4-2.5,15.4c-0.2,0.6-0.2,1.2,0.1,1.8
				C124.3,92.7,124.8,93.1,125.4,93.3z"/>
			<path fill="#006A51" d="M10.9,54.6C8.7,61.2,7.6,68.1,7.6,75c0,7,1.1,13.9,3.4,20.4c0.3,1,1.2,1.6,2.2,1.6c0.3,0,0.5,0,0.7-0.1
				c0.6-0.2,1.1-0.6,1.4-1.2c0.3-0.6,0.3-1.2,0.1-1.8c-2.1-6.2-3.2-12.6-3.2-19c0-6.6,1.1-12.9,3.1-19c0.2-0.6,0.2-1.2-0.1-1.8
				s-0.8-1-1.4-1.2C13.6,53,13.3,53,13.1,53c-0.4,0-0.7,0.1-1,0.2C11.5,53.5,11.1,54,10.9,54.6z"/>
			<path fill="#006A51" d="M21.6,58.2c-1.8,5.6-2.8,11.3-2.8,16.8c0,5.8,0.9,11.5,2.8,16.8c0.3,1,1.2,1.6,2.2,1.6c0.3,0,0.5,0,0.7-0.1
				c0.6-0.2,1.1-0.6,1.4-1.2s0.3-1.2,0.1-1.8l0,0C24.3,85.1,23.5,80,23.5,75c0-5.3,0.9-10.4,2.5-15.4c0.2-0.6,0.2-1.2-0.1-1.8
				s-0.8-1-1.4-1.2c-0.2-0.1-0.5-0.1-0.8-0.1c-0.4,0-0.7,0.1-1,0.2C22.2,57.1,21.8,57.6,21.6,58.2z"/>
		</g>
	</g>
</g>
</svg>
