<svg width="14" height="19" viewBox="0 0 14 19" fill="none" xmlns="http://www.w3.org/2000/svg">
    <circle cx="7" cy="11.5" r="7" fill="#DF660A" />
    <path
        d="M7.71045 6.33594L7.61523 13.9897H6.39209L6.28955 6.33594H7.71045ZM6.24561 16.3188C6.24561 16.0991 6.31152 15.9136 6.44336 15.7622C6.58008 15.6108 6.78027 15.5352 7.04395 15.5352C7.30273 15.5352 7.50049 15.6108 7.63721 15.7622C7.77881 15.9136 7.84961 16.0991 7.84961 16.3188C7.84961 16.5288 7.77881 16.7095 7.63721 16.8608C7.50049 17.0122 7.30273 17.0879 7.04395 17.0879C6.78027 17.0879 6.58008 17.0122 6.44336 16.8608C6.31152 16.7095 6.24561 16.5288 6.24561 16.3188Z"
        fill="white" />
</svg>
