<svg width="31" height="34" viewBox="0 0 31 34" fill="none" xmlns="http://www.w3.org/2000/svg">
<path d="M29.8489 17.121C29.0711 16.3431 27.7983 16.3431 27.0205 17.121L23.8385 20.3029C23.644 20.4974 23.3258 20.4974 23.1314 20.3029L22.4243 19.5958C22.2298 19.4014 22.2298 19.0832 22.4243 18.8887L29.1418 12.1712C29.9196 11.3934 29.9196 10.1206 29.1418 9.34279C28.364 8.56497 27.0912 8.56497 26.3134 9.34279L19.5959 16.0603C19.4014 16.2548 19.0832 16.2548 18.8888 16.0603L18.1816 15.3532C17.9872 15.1587 17.9872 14.8405 18.1816 14.6461L26.3134 6.51436C27.0912 5.73654 27.0912 4.46375 26.3134 3.68593C25.5356 2.90811 24.2628 2.90812 23.4849 3.68593L15.3532 11.8177C15.1588 12.0121 14.8406 12.0121 14.6461 11.8177L13.939 11.1106C13.7446 10.9161 13.7446 10.5979 13.939 10.4034L20.6565 3.68593C21.4343 2.90812 21.4343 1.63532 20.6565 0.857505C19.8787 0.0796878 18.6059 0.0796878 17.8281 0.857505L7.1773 11.5083L7.57062 9.02901C7.78718 7.66341 6.85468 6.3862 5.48908 6.16965C4.12348 5.95309 2.84627 6.88559 2.62972 8.25119L0.548172 21.4343C0.397912 22.3801 0.711691 23.3479 1.38786 24.0241L10.1206 32.7569C11.1062 33.7424 12.6353 33.9192 13.8197 33.1855L19.9715 29.376C20.7184 28.912 21.4388 28.3419 22.0663 27.732L29.8489 19.9494C30.6267 19.1716 30.6267 17.8988 29.8489 17.121ZM5.80728 19.9494C5.41837 19.5605 5.41837 18.9241 5.80728 18.5352C6.19619 18.1463 6.83258 18.1463 7.22149 18.5352C7.6104 18.9241 7.6104 19.5605 7.22149 19.9494C6.83258 20.3383 6.19619 20.3383 5.80728 19.9494ZM10.0499 15.7067C9.66101 15.3178 9.66101 14.6814 10.0499 14.2925C10.4388 13.9036 11.0752 13.9036 11.4641 14.2925C11.853 14.6814 11.853 15.3178 11.4641 15.7067C11.0752 16.0957 10.4388 16.0957 10.0499 15.7067ZM7.22149 24.192C6.83258 23.8031 6.83258 23.1667 7.22149 22.7778C7.6104 22.3889 8.2468 22.3889 8.6357 22.7778C9.02461 23.1667 9.02461 23.8031 8.6357 24.192C8.2468 24.5809 7.6104 24.5809 7.22149 24.192ZM11.4641 19.9494C11.0752 19.5605 11.0752 18.9241 11.4641 18.5352C11.853 18.1463 12.4894 18.1463 12.8783 18.5352C13.2673 18.9241 13.2673 19.5605 12.8783 19.9494C12.4894 20.3383 11.853 20.3383 11.4641 19.9494ZM12.8783 24.192C12.4894 23.8031 12.4894 23.1667 12.8783 22.7778C13.2673 22.3889 13.9037 22.3889 14.2926 22.7778C14.6815 23.1667 14.6815 23.8031 14.2926 24.192C13.9037 24.5809 13.2673 24.5809 12.8783 24.192ZM11.4641 28.4347C11.0752 28.0458 11.0752 27.4094 11.4641 27.0205C11.853 26.6315 12.4894 26.6315 12.8783 27.0205C13.2673 27.4094 13.2673 28.0458 12.8783 28.4347C12.4894 28.8236 11.853 28.8236 11.4641 28.4347ZM18.5352 24.192C18.1463 23.8031 18.1463 23.1667 18.5352 22.7778C18.9241 22.3889 19.5605 22.3889 19.9494 22.7778C20.3383 23.1667 20.3383 23.8031 19.9494 24.192C19.5605 24.5809 18.9241 24.5809 18.5352 24.192Z" fill="#00B288"/>
</svg>
