<svg width="280" height="280" viewBox="0 0 280 280" fill="none" xmlns="http://www.w3.org/2000/svg">
<defs>
<linearGradient id="paint0_linear_4622_69742" x1="231.957" y1="115.019" x2="16.4311" y2="160.645" gradientUnits="userSpaceOnUse">
<stop stop-color="#4ACFA3" stop-opacity="0.33"/>
<stop offset="1" stop-color="#4ACFA3" stop-opacity="0.08"/>
</linearGradient>
<linearGradient id="paint1_linear_4622_69742" x1="111.794" y1="49.9033" x2="185.367" y2="223.916" gradientUnits="userSpaceOnUse">
<stop stop-color="#04C598" stop-opacity="0.52"/>
<stop offset="1" stop-color="#189A7C" stop-opacity="0.54"/>
</linearGradient>
<clipPath id="clip0_4622_69742">
<rect width="280" height="280" fill="white"/>
</clipPath>
</defs>
<g>
<path fill-rule="evenodd" clip-rule="evenodd" d="M232.556 117.975C237.733 146.697 217.847 171.768 202.645 196.251C187.692 220.333 173.743 248.183 147.23 255.392C120.144 262.758 92.9754 248.423 69.4783 232.462C46.1969 216.648 20.9523 196.819 18.3449 167.845C15.8615 140.249 44.0269 123.072 57.4887 99.2314C71.8396 73.8168 72.0632 35.5392 98.6066 25.7058C125.83 15.6205 153.019 38.2651 177.163 54.8962C200.841 71.2064 227.291 88.7706 232.556 117.975Z" fill="url(#paint0_linear_4622_69742)"/>
<path fill-rule="evenodd" clip-rule="evenodd" d="M114.198 48.9118C137.623 39.8298 161.027 52.8835 183.371 62.0048C205.349 70.9768 230.361 78.4779 239.61 100.108C249.059 122.206 240.345 147.874 229.826 170.647C219.402 193.212 205.854 218.111 181.907 225.025C159.098 231.609 141.301 210.165 119.706 202.436C96.685 194.197 64.6031 200.176 53.1532 178.943C41.4099 157.165 57.0798 130.14 68.0828 106.703C78.8734 83.7175 90.3783 58.1466 114.198 48.9118Z" fill="url(#paint1_linear_4622_69742)"/>
<path d="M143.807 216.999C101.973 216.999 68.1123 183.656 68.1123 142.554C68.1123 101.408 101.967 68.1074 143.807 68.1074C185.643 68.1074 219.502 101.404 219.502 142.554C219.502 183.696 185.596 216.999 143.807 216.999Z" fill="#66A9DF"/>
<path d="M143.808 68.1074V216.999C185.596 216.999 219.502 183.696 219.502 142.554C219.502 101.405 185.643 68.1074 143.808 68.1074Z" fill="#4F84CF"/>
<path d="M143.807 160.002C121.782 160.002 100.782 169.471 85.4341 189.946C115.997 226.28 172.569 225.969 202.719 189.297C195.274 182.013 178.504 160.002 143.807 160.002Z" fill="#D6F3FE"/>
<path d="M202.719 189.297C188.485 206.608 167.127 216.999 143.808 216.999V160.002C178.505 160.002 195.274 182.016 202.719 189.297Z" fill="#BDECFC"/>
<path d="M143.807 146.916C129.133 146.916 117.196 135.175 117.196 120.743V112.019C117.196 97.588 129.133 85.8467 143.807 85.8467C158.481 85.8467 170.419 97.588 170.419 112.019V120.743C170.419 135.175 158.481 146.916 143.807 146.916Z" fill="#D6F3FE"/>
<path d="M143.808 85.8467V146.916C158.482 146.916 170.419 135.176 170.419 120.743V112.019C170.419 97.5868 158.482 85.8467 143.808 85.8467Z" fill="#BDECFC"/>
</g>
</svg>
