<svg width="16" height="16" viewBox="0 0 16 16" fill="none" xmlns="http://www.w3.org/2000/svg">
<path d="M8.00009 7.95989C5.94537 7.95989 4.27341 6.39888 4.27341 4.47994C4.27341 2.561 5.94537 1 8.00009 1C10.0548 1 11.7268 2.561 11.7268 4.47994C11.7268 6.39888 10.0548 7.95989 8.00009 7.95989Z" fill="white"/>
<path d="M6.38719 9.33517C6.31577 9.33517 6.24539 9.31925 6.18189 9.28872C6.1184 9.25819 6.06363 9.21393 6.02216 9.15964C5.98068 9.10535 5.9537 9.04259 5.94345 8.97659C5.9332 8.91059 5.93999 8.84326 5.96325 8.78021C6.06972 8.49082 6.12829 8.12791 6.12829 7.7582C6.12819 7.59712 6.11687 7.43621 6.09438 7.2765C6.08625 7.22185 6.08978 7.16624 6.10475 7.11286C6.11972 7.05948 6.14585 7.0094 6.18162 6.96548C6.21739 6.92157 6.26211 6.88469 6.3132 6.85696C6.36429 6.82924 6.42075 6.81123 6.47932 6.80395C6.53789 6.79667 6.59743 6.80028 6.6545 6.81456C6.71158 6.82885 6.76507 6.85353 6.81189 6.88718C6.85872 6.92084 6.89796 6.9628 6.92735 7.01067C6.95675 7.05853 6.97572 7.11135 6.98318 7.16609C7.01066 7.36241 7.02433 7.56021 7.02409 7.7582C7.02409 8.22472 6.9504 8.67241 6.8103 9.05258C6.77999 9.13492 6.72296 9.20639 6.64712 9.25703C6.57129 9.30768 6.48043 9.33499 6.38719 9.33517Z" fill="white"/>
<path d="M9.61201 9.3352C9.5186 9.33517 9.42753 9.3079 9.35152 9.25719C9.27552 9.20648 9.21837 9.13487 9.18807 9.05236C9.04797 8.6727 8.97456 8.22502 8.97456 7.75824C8.97419 7.56006 8.98795 7.36207 9.01575 7.1656C9.02358 7.11107 9.04285 7.05851 9.07243 7.01094C9.10202 6.96336 9.14136 6.92169 9.18819 6.8883C9.23503 6.85492 9.28844 6.83048 9.34539 6.81637C9.40234 6.80227 9.46171 6.79877 9.52011 6.80609C9.57851 6.81341 9.63478 6.8314 9.68574 6.85903C9.73669 6.88666 9.78131 6.92339 9.81706 6.96712C9.85281 7.01085 9.87899 7.06073 9.8941 7.11391C9.9092 7.16709 9.91294 7.22253 9.90511 7.27706C9.8828 7.4366 9.87175 7.59734 9.87204 7.75824C9.87204 8.12821 9.9306 8.49085 10.0371 8.78024C10.0603 8.84332 10.0671 8.91067 10.0569 8.97669C10.0466 9.04271 10.0196 9.10548 9.97809 9.15978C9.93658 9.21408 9.88178 9.25833 9.81825 9.28884C9.75472 9.31936 9.6843 9.33525 9.61286 9.3352H9.61201Z" fill="white"/>
<path fill-rule="evenodd" clip-rule="evenodd" d="M10.8865 8.49805V10.1371C10.6987 10.199 10.5261 10.2997 10.3826 10.4337C10.13 10.6696 9.98812 10.9895 9.98812 11.3231V12.1624C9.98812 12.2735 10.0354 12.3799 10.1194 12.4585C10.2035 12.537 10.3175 12.5811 10.4364 12.5811C10.5553 12.5811 10.6694 12.537 10.7535 12.4585C10.8375 12.3799 10.8848 12.2735 10.8848 12.1624V11.3231C10.8848 11.2115 10.9322 11.1046 11.0166 11.0257C11.1011 10.9469 11.2156 10.9026 11.335 10.9026C11.4545 10.9026 11.569 10.9469 11.6534 11.0257C11.7379 11.1046 11.7853 11.2115 11.7853 11.3231V12.1624C11.7853 12.2735 11.8326 12.3799 11.9166 12.4585C12.0007 12.537 12.1148 12.5811 12.2337 12.5811C12.3526 12.5811 12.4666 12.537 12.5507 12.4585C12.6347 12.3799 12.682 12.2735 12.682 12.1624V11.3231C12.682 10.9895 12.5401 10.6696 12.2875 10.4337C12.1438 10.2996 11.9711 10.1989 11.7831 10.1369V8.56226C12.6139 8.70891 13.3764 9.10152 13.9543 9.68706C14.6266 10.3682 14.9999 11.2605 15 12.1868V14.5814C15 14.6924 14.9528 14.7989 14.8687 14.8774C14.7846 14.9559 14.6706 15 14.5517 15H1.44832C1.32942 15 1.21539 14.9559 1.13131 14.8774C1.04723 14.7989 1 14.6924 1 14.5814V12.1868C1.00014 11.2605 1.37342 10.3682 2.04567 9.68706C2.62365 9.10147 3.38625 8.70885 4.21708 8.56223V10.1819C4.04038 10.2424 3.87904 10.3383 3.74482 10.4636C3.56276 10.6336 3.43877 10.8502 3.38854 11.086C3.33831 11.3218 3.36409 11.5663 3.46262 11.7884C3.56115 12.0105 3.72801 12.2004 3.94209 12.3339C4.15617 12.4675 4.40787 12.5388 4.66534 12.5388C5.01049 12.5385 5.3414 12.4103 5.58546 12.1824C5.82951 11.9545 5.96679 11.6455 5.96716 11.3232C5.96716 11.0828 5.89081 10.8477 5.74776 10.6478C5.60472 10.4479 5.4014 10.2921 5.16353 10.2001C5.14704 10.1937 5.13043 10.1877 5.11373 10.182V8.49805H6.38772C6.46479 8.49807 6.54056 8.51665 6.6077 8.55198C6.67485 8.58732 6.7311 8.63822 6.77104 8.69978L8 10.5939L9.22925 8.69978C9.26918 8.63822 9.32543 8.58732 9.39258 8.55198C9.45972 8.51665 9.53549 8.49807 9.61256 8.49805H10.8865ZM4.44021 11.0089C4.50685 10.9673 4.5852 10.9451 4.66534 10.9451C4.77273 10.9452 4.8757 10.985 4.95166 11.0559C5.02762 11.1268 5.07037 11.2229 5.07051 11.3232C5.07057 11.398 5.04685 11.4712 5.00237 11.5335C4.95788 11.5957 4.89462 11.6443 4.82059 11.6729C4.74656 11.7016 4.66508 11.7091 4.58647 11.6946C4.50786 11.68 4.43564 11.644 4.37894 11.5911C4.32225 11.5382 4.28363 11.4708 4.26798 11.3974C4.25232 11.324 4.26033 11.2479 4.29099 11.1787C4.32164 11.1096 4.37358 11.0505 4.44021 11.0089Z" fill="white"/>
</svg>
