<svg width="16" height="16" viewBox="0 0 16 16" fill="none" xmlns="http://www.w3.org/2000/svg">
<path d="M12.3945 7.06116H3.09151C2.79164 7.06116 2.55603 7.32532 2.55603 7.65375V13.2441C2.55603 13.5725 2.79878 13.8367 3.09151 13.8367H12.3945C12.6944 13.8367 12.93 13.5725 12.93 13.2441V7.65375C12.93 7.32532 12.6872 7.06116 12.3945 7.06116ZM5.51185 12.4445C5.51185 12.6444 5.34764 12.8015 5.14773 12.8015H3.87687C3.67696 12.8015 3.51275 12.6444 3.51275 12.4445V11.2022C3.51275 11.0023 3.67696 10.8452 3.87687 10.8452H5.14773C5.34764 10.8452 5.51185 11.0023 5.51185 11.2022V12.4445ZM5.51185 9.6243C5.51185 9.82421 5.34764 9.98128 5.14773 9.98128H3.87687C3.67696 9.98128 3.51275 9.82421 3.51275 9.6243V8.382C3.51275 8.18208 3.67696 8.02501 3.87687 8.02501H5.14773C5.34764 8.02501 5.51185 8.18208 5.51185 8.382V9.6243ZM6.7256 8.382C6.7256 8.18208 6.88981 8.02501 7.08972 8.02501H8.36058C8.56049 8.02501 8.7247 8.18208 8.7247 8.382V9.6243C8.7247 9.82421 8.56049 9.98128 8.36058 9.98128H7.08972C6.88981 9.98128 6.7256 9.82421 6.7256 9.6243V8.382ZM8.75326 12.4445C8.75326 12.6444 8.58905 12.8015 8.38914 12.8015H7.11828C6.91837 12.8015 6.75416 12.6444 6.75416 12.4445V11.2022C6.75416 11.0023 6.91837 10.8452 7.11828 10.8452H8.38914C8.58905 10.8452 8.75326 11.0023 8.75326 11.2022V12.4445ZM12.0304 12.4445C12.0304 12.6444 11.8662 12.8015 11.6662 12.8015H10.3954C10.1955 12.8015 10.0313 12.6444 10.0313 12.4445V11.2022C10.0313 11.0023 10.1955 10.8452 10.3954 10.8452H11.6662C11.8662 10.8452 12.0304 11.0023 12.0304 11.2022V12.4445ZM12.0304 9.6243C12.0304 9.82421 11.8662 9.98128 11.6662 9.98128H10.3954C10.1955 9.98128 10.0313 9.82421 10.0313 9.6243V8.382C10.0313 8.18208 10.1955 8.02501 10.3954 8.02501H11.6662C11.8662 8.02501 12.0304 8.18208 12.0304 8.382V9.6243Z" fill="#56595B"/>
<path d="M13.2227 1.79206H12.9299V0.542615C12.9299 0.242749 12.6943 0 12.3945 0H11.4235C11.1307 0 10.888 0.242749 10.888 0.542615V1.78492H4.59081V0.542615C4.59081 0.242749 4.3552 0 4.05533 0H3.08434C2.79161 0 2.54886 0.242749 2.54886 0.542615V1.78492H2.25614C0.999554 1.82062 0 2.84873 0 4.06961V13.701C0 14.9647 1.02811 16 2.29183 16H13.1513C14.415 16 15.4431 14.9719 15.4431 13.701V4.07675C15.4431 2.85587 14.4436 1.82776 13.2227 1.79206ZM14.3722 13.7153C14.3722 14.3864 13.8224 14.9433 13.1513 14.9433H2.29897C1.62785 14.9433 1.07809 14.3936 1.07809 13.7153V4.07675C1.07809 3.4199 1.61357 2.87729 2.26328 2.86301H2.556V3.72691C2.556 4.02677 2.79161 4.26952 3.09148 4.26952H4.06247C4.3552 4.26952 4.59795 4.02677 4.59795 3.72691V2.86301H10.9023V3.72691C10.9023 4.02677 11.1379 4.26952 11.4378 4.26952H12.4087C12.7015 4.26952 12.9442 4.02677 12.9442 3.72691V2.86301H13.2013C13.851 2.88443 14.3864 3.4199 14.3864 4.07675V13.7082L14.3722 13.7153Z" fill="#56595B"/>
</svg>
