<svg width="16" height="16" viewBox="0 0 16 16" fill="none" xmlns="http://www.w3.org/2000/svg">
<path d="M5.82987 8.82719C5.82987 8.62676 5.6673 8.46439 5.4667 8.46439H4.19939C3.99903 8.46439 3.83643 8.62676 3.83643 8.82719V10.0943C3.83643 10.295 3.99903 10.4575 4.19939 10.4575H5.4667C5.6673 10.4575 5.82987 10.295 5.82987 10.0943V8.82719Z" fill="white"/>
<path d="M8.99851 8.82719C8.99851 8.62676 8.8359 8.46439 8.6357 8.46439H7.36822C7.16786 8.46439 7.00525 8.62676 7.00525 8.82719V10.0943C7.00525 10.295 7.16786 10.4575 7.36822 10.4575H8.6357C8.8359 10.4575 8.99851 10.295 8.99851 10.0943V8.82719Z" fill="white"/>
<path d="M12.1656 8.82719C12.1656 8.62676 12.003 8.46439 11.8026 8.46439H10.5353C10.3347 8.46439 10.1721 8.62676 10.1721 8.82719V10.0943C10.1721 10.295 10.3347 10.4575 10.5353 10.4575H11.8026C12.003 10.4575 12.1656 10.295 12.1656 10.0943V8.82719Z" fill="white"/>
<path d="M5.82987 11.9946C5.82987 11.7939 5.6673 11.6316 5.4667 11.6316H4.19939C3.99903 11.6316 3.83643 11.7939 3.83643 11.9946V13.2615C3.83643 13.4621 3.99903 13.6245 4.19939 13.6245H5.4667C5.6673 13.6245 5.82987 13.4621 5.82987 13.2615V11.9946Z" fill="white"/>
<path d="M8.99851 11.9946C8.99851 11.7939 8.8359 11.6316 8.6357 11.6316H7.36822C7.16786 11.6316 7.00525 11.7939 7.00525 11.9946V13.2615C7.00525 13.4621 7.16786 13.6245 7.36822 13.6245H8.6357C8.8359 13.6245 8.99851 13.4621 8.99851 13.2615V11.9946Z" fill="white"/>
<path d="M12.1656 11.9946C12.1656 11.7939 12.003 11.6316 11.8028 11.6316H10.5353C10.3347 11.6316 10.1721 11.7939 10.1721 11.9946V13.2615C10.1721 13.4621 10.3347 13.6245 10.5353 13.6245H11.8028C12.003 13.6245 12.1656 13.4621 12.1656 13.2615V11.9946Z" fill="white"/>
<path d="M14.4311 1.78148V3.71695C14.4311 4.59176 13.7214 5.29672 12.8467 5.29672H11.8472C10.9725 5.29672 10.2534 4.59176 10.2534 3.71695V1.77454H5.74858V3.71695C5.74858 4.59176 5.02952 5.29672 4.15491 5.29672H3.15525C2.28061 5.29672 1.57096 4.59176 1.57096 3.71695V1.78148C0.80651 1.80453 0.178345 2.43708 0.178345 3.21458V14.5573C0.178345 15.3494 0.820374 16 1.61249 16H14.3895C15.1804 16 15.8236 15.3481 15.8236 14.5573V3.21458C15.8236 2.43708 15.1955 1.80453 14.4311 1.78148ZM13.9668 13.851C13.9668 14.1933 13.6893 14.471 13.3468 14.471H2.62784C2.28539 14.471 2.00784 14.1933 2.00784 13.851V7.99204C2.00784 7.64959 2.28536 7.37188 2.62784 7.37188H13.3468C13.6893 7.37188 13.9668 7.64959 13.9668 7.99204L13.9668 13.851Z" fill="white"/>
<path d="M3.15043 4.25917H4.13904C4.43911 4.25917 4.68241 4.01622 4.68241 3.71615V0.543208C4.68241 0.243105 4.43911 0 4.13904 0H3.15043C2.85032 0 2.60706 0.243105 2.60706 0.543208V3.71615C2.60706 4.01622 2.85032 4.25917 3.15043 4.25917Z" fill="white"/>
<path d="M11.8347 4.25917H12.8233C13.1232 4.25917 13.3665 4.01622 13.3665 3.71615V0.543208C13.3665 0.243105 13.1232 0 12.8233 0H11.8347C11.5347 0 11.2914 0.243105 11.2914 0.543208V3.71615C11.2914 4.01622 11.5347 4.25917 11.8347 4.25917Z" fill="white"/>
</svg>
