<svg width="68" height="68" viewBox="0 0 68 68" fill="none" xmlns="http://www.w3.org/2000/svg">
<path d="M33.8062 37.8702C39.9512 37.8702 44.9327 32.8887 44.9327 26.7437C44.9327 20.5987 39.9512 15.6172 33.8062 15.6172C27.6612 15.6172 22.6797 20.5987 22.6797 26.7437C22.6797 32.8887 27.6612 37.8702 33.8062 37.8702Z" fill="#006A51"/>
<path d="M43.6492 38.1992C43.4032 38.1992 43.1595 38.2075 42.9165 38.2215C40.682 40.3738 37.8265 41.6529 34.8192 41.8486C34.3674 41.8838 33.914 41.8893 33.4616 41.8651C30.3379 41.7394 27.3559 40.4442 25.0407 38.2075C24.8994 38.2025 24.7573 38.1992 24.6145 38.1992C17.3804 38.1992 10.8984 45.3904 10.8984 53.0942C11.389 54.8866 19.4924 66.2367 33.4616 66.1954C45.9483 66.4136 53.8955 57.2942 56.3984 53.0942C56.3984 45.3904 50.8826 38.1992 43.6492 38.1992Z" fill="#006A51"/>
<rect x="2.71094" y="2.71387" width="62.5714" height="62.5714" rx="31.2857" stroke="#006A51" stroke-width="4"/>
</svg>
