<svg width="36" height="24" viewBox="0 0 36 24" fill="none" xmlns="http://www.w3.org/2000/svg">
<path d="M1.5 10.5C0.671573 10.5 0 11.1716 0 12C0 12.8284 0.671573 13.5 1.5 13.5V10.5ZM35.5607 13.0607C36.1464 12.4749 36.1464 11.5251 35.5607 10.9393L26.0147 1.3934C25.4289 0.807611 24.4792 0.807611 23.8934 1.3934C23.3076 1.97919 23.3076 2.92893 23.8934 3.51472L32.3787 12L23.8934 20.4853C23.3076 21.0711 23.3076 22.0208 23.8934 22.6066C24.4792 23.1924 25.4289 23.1924 26.0147 22.6066L35.5607 13.0607ZM1.5 13.5H34.5V10.5H1.5V13.5Z" fill="#00B288"/>
</svg>
