<svg width="26" height="24" viewBox="0 0 26 24" fill="none" xmlns="http://www.w3.org/2000/svg">
<path d="M23.8558 2.37146C21.0675 -0.416847 16.5301 -0.416847 13.7418 2.37146L2.67962 13.4337C0.41408 15.6992 0.41408 19.3858 2.67962 21.6513C4.94516 23.9168 8.63172 23.9168 10.8973 21.6513L20.6952 11.8533C22.438 10.1106 22.438 7.27486 20.6952 5.53209C18.9524 3.78932 16.1167 3.78932 14.3739 5.53209L6.15631 13.7497C5.80675 14.0993 5.80675 14.6644 6.15631 15.014C6.50588 15.3635 7.071 15.3635 7.42056 15.014L15.6382 6.79634C16.6837 5.7508 18.3854 5.7508 19.431 6.79634C20.4765 7.84188 20.4765 9.54356 19.431 10.5891L9.633 20.387C8.0647 21.9554 5.51217 21.9553 3.94387 20.387C2.37557 18.8187 2.37557 16.2662 3.94387 14.6979L15.0061 3.63571C17.0978 1.54401 20.4999 1.54401 22.5916 3.63571C24.6833 5.72742 24.6833 9.12952 22.5916 11.2212L13.1097 20.7031C12.7601 21.0527 12.7601 21.6178 13.1097 21.9674C13.4593 22.3169 14.0244 22.3169 14.3739 21.9674L23.8558 12.4855C26.6441 9.69716 26.6441 5.15977 23.8558 2.37146Z" fill="#00B288"/>
</svg>
