<svg width="26" height="25" viewBox="0 0 26 25" fill="none" xmlns="http://www.w3.org/2000/svg">
<path d="M23.2855 3.05701C20.4972 0.268699 15.9598 0.2687 13.1715 3.05701L2.10931 14.1192C-0.156232 16.3847 -0.156233 20.0713 2.10931 22.3368C4.37484 24.6024 8.0614 24.6024 10.3269 22.3368L20.1249 12.5389C21.8677 10.7961 21.8677 7.96041 20.1249 6.21764C18.3821 4.47486 15.5464 4.47486 13.8036 6.21764L5.586 14.4353C5.23643 14.7848 5.23643 15.35 5.586 15.6995C5.93556 16.0491 6.50068 16.0491 6.85025 15.6995L15.0679 7.48189C16.1134 6.43635 17.8151 6.43635 18.8606 7.48189C19.9062 8.52742 19.9062 10.2291 18.8606 11.2746L9.06269 21.0726C7.49439 22.6409 4.94186 22.6409 3.37356 21.0726C1.80525 19.5043 1.80525 16.9518 3.37356 15.3835L14.4358 4.32126C16.5275 2.22955 19.9296 2.22955 22.0213 4.32126C24.113 6.41296 24.113 9.81506 22.0213 11.9068L12.5394 21.3887C12.1898 21.7382 12.1898 22.3033 12.5394 22.6529C12.8889 23.0025 13.4541 23.0025 13.8036 22.6529L23.2855 13.171C26.0738 10.3827 26.0738 5.84531 23.2855 3.05701Z" fill="#56595B"/>
</svg>
