<svg width="30" height="31" viewBox="0 0 30 31" fill="none" xmlns="http://www.w3.org/2000/svg">
<path d="M15 1.88965C12.4041 1.88965 9.86654 2.65942 7.70815 4.10161C5.54975 5.5438 3.86749 7.59365 2.87409 9.99193C1.88069 12.3902 1.62077 15.0292 2.1272 17.5752C2.63363 20.1212 3.88366 22.4599 5.71923 24.2954C7.55479 26.131 9.89344 27.381 12.4394 27.8875C14.9854 28.3939 17.6244 28.134 20.0227 27.1406C22.421 26.1472 24.4708 24.4649 25.913 22.3065C27.3552 20.1481 28.125 17.6105 28.125 15.0146C28.1209 11.5349 26.7368 8.19893 24.2762 5.73841C21.8157 3.27788 18.4797 1.89375 15 1.88965ZM19.4231 19.4378C19.1994 19.6615 18.8959 19.7871 18.5795 19.7871C18.2632 19.7871 17.9597 19.6615 17.736 19.4378L14.1564 15.8582C13.9326 15.6345 13.8069 15.3311 13.8068 15.0146V7.85556C13.8068 7.53911 13.9325 7.23562 14.1563 7.01185C14.3801 6.78809 14.6836 6.66238 15 6.66238C15.3165 6.66238 15.6199 6.78809 15.8437 7.01185C16.0675 7.23562 16.1932 7.53911 16.1932 7.85556V14.5207L19.4231 17.7506C19.6468 17.9744 19.7725 18.2778 19.7725 18.5942C19.7725 18.9106 19.6468 19.214 19.4231 19.4378Z" fill="#00B288"/>
</svg>
