<svg width="114" height="142" viewBox="0 0 114 142" fill="none" xmlns="http://www.w3.org/2000/svg">
<g clip-path="url(#clip0)">
<path d="M56.7403 68.96C40.9303 68.96 28.0703 53.49 28.0703 34.48C28.0703 23.25 29.6503 15.81 33.2003 10.36C37.7403 3.39 45.4503 0 56.7403 0C68.0303 0 75.7403 3.39 80.2803 10.36C83.8303 15.81 85.4203 23.25 85.4203 34.48C85.4203 53.49 72.5503 68.96 56.7403 68.96ZM56.7403 3.96C46.9103 3.96 40.3103 6.76 36.5603 12.51C33.4503 17.26 32.0703 24.03 32.0703 34.44C32.0703 51.29 43.1403 64.96 56.7403 64.96C70.3403 64.96 81.4203 51.29 81.4203 34.48C81.4203 24.07 80.0303 17.31 76.9303 12.55C73.1803 6.8 66.5703 4 56.7403 4V3.96Z" fill="#006A51"/>
<path d="M56.7391 141.64C37.7391 141.64 22.8391 139.1 12.3191 134.1C9.10536 132.638 6.13697 130.689 3.51906 128.32C2.79618 127.629 2.12754 126.884 1.51906 126.09C1.27906 125.77 1.09906 125.51 0.959063 125.3C0.819063 125.09 0.819064 125.07 0.769064 124.99L0.0390625 123.64V122.34H2.03906H0.0390625L0.109064 116.68C0.409064 101.91 1.77906 91.9001 7.88906 84.4101C13.8891 77.1101 21.0591 75.9401 34.1691 73.8201L38.0791 73.1801H38.2091C39.1682 73.0202 40.1524 73.1101 41.0667 73.4412C41.981 73.7722 42.7946 74.3332 43.4291 75.0701L43.6791 75.2901C44.2046 75.7281 44.7743 76.1102 45.3791 76.4301C46.8791 77.2401 49.6991 78.3201 56.7791 78.3201H56.8491C64.6691 78.3201 66.7791 77.1801 68.1791 76.4301C68.7851 76.1072 69.3579 75.7253 69.8891 75.2901C70.0291 75.1701 70.1291 75.0701 70.1791 75.0201C70.812 74.2999 71.6176 73.7524 72.5202 73.4288C73.4227 73.1052 74.3927 73.0162 75.3391 73.1701H75.4891L79.1391 73.7701C92.5391 75.9501 99.9191 77.1501 105.879 84.6601C111.839 92.1701 113.209 102.6 113.469 118V120C113.469 121 113.469 122.11 113.469 122.32V123.62L112.789 124.86L112.729 124.97C112.669 125.07 112.619 125.17 112.539 125.28C112.459 125.39 112.229 125.75 111.989 126.07C111.367 126.867 110.681 127.613 109.939 128.3C107.325 130.673 104.356 132.623 101.139 134.08C90.6391 139.1 75.7391 141.64 56.7391 141.64ZM4.13906 122.89L4.27906 123.13C4.36906 123.27 4.49906 123.45 4.65906 123.66C5.14925 124.285 5.68398 124.873 6.25906 125.42C8.57956 127.496 11.2031 129.205 14.0391 130.49C24.0391 135.23 38.3791 137.64 56.7391 137.64C75.0991 137.64 89.4691 135.23 99.4391 130.49C102.279 129.208 104.903 127.495 107.219 125.41C107.801 124.871 108.34 124.285 108.829 123.66C108.989 123.45 109.109 123.27 109.199 123.13L109.269 123.02L109.349 122.77L109.489 122.63V122.34C109.489 122.09 109.489 118.28 109.429 118.07H111.429H109.429C109.179 103.53 107.999 93.8101 102.709 87.1501C97.7091 80.8501 91.7091 79.8701 78.4591 77.7201L74.7891 77.1201L75.1191 75.1201L74.7891 77.1201H74.6391C74.3629 77.0773 74.0804 77.1053 73.8181 77.2015C73.5557 77.2977 73.3221 77.4589 73.1391 77.6701L70.7391 79.1001L66.9691 81.2201C63.6285 82.0674 60.1824 82.4245 56.7391 82.2801C48.8391 82.2801 45.4791 81.0101 43.4391 79.9101C42.5958 79.4551 41.7987 78.9192 41.0591 78.3101C40.8792 78.1645 40.7089 78.0075 40.5491 77.8401C40.475 77.7775 40.4079 77.7071 40.3491 77.6301C40.1618 77.4187 39.9246 77.2577 39.6591 77.1616C39.3936 77.0655 39.1082 77.0375 38.8291 77.0801H38.6991L34.7391 77.7501C21.8091 79.8401 15.9091 80.7501 10.9191 86.9101C5.53906 93.5101 4.31906 102.84 4.03906 116.73L3.96906 122.63L4.13906 122.89ZM111.249 123.99L112.519 125.26L111.249 123.99ZM2.39906 123.83L1.94906 124.07L2.39906 123.83ZM73.1291 77.6501L72.4491 78.2301C71.2871 79.2251 69.9651 80.0162 68.5391 80.5701L66.9291 81.2001" fill="#006A51"/>
</g>
<defs>
<clipPath id="clip0">
<rect width="113.49" height="141.63" fill="white"/>
</clipPath>
</defs>
</svg>
