<svg width="80" height="81" viewBox="0 0 80 81" fill="none" xmlns="http://www.w3.org/2000/svg">
<path d="M74.5789 5.4202C71.1062 1.95432 66.4005 0.00780777 61.4943 0.00780777C56.5882 0.00780777 51.8825 1.95432 48.4098 5.4202L40 13.8306L31.5889 5.4202C28.1187 1.9497 23.412 0 18.5043 0C13.5967 0 8.89003 1.9497 5.4198 5.4202C1.94956 8.89069 0 13.5977 0 18.5057C0 23.4137 1.94956 28.1207 5.4198 31.5912L13.8309 40.0016L5.42112 48.4134C1.95088 51.8839 0.00132185 56.5909 0.00132189 61.4989C0.00132193 66.4069 1.95088 71.1139 5.42112 74.5844C8.89136 78.0549 13.598 80.0046 18.5057 80.0046C23.4133 80.0046 28.12 78.0549 31.5902 74.5844L40 66.1727L48.4111 74.5844C51.8814 78.0549 56.588 80.0046 61.4957 80.0046C66.4033 80.0046 71.11 78.0549 74.5802 74.5844C78.0504 71.1139 80 66.4069 80 61.4989C80 56.5909 78.0504 51.8839 74.5802 48.4134L66.1691 40.0016L74.5802 31.5899C78.0452 28.1168 79.9911 23.4109 79.9909 18.5048C79.9906 13.5986 78.0443 8.89291 74.5789 5.4202ZM29.72 72.7141C26.7456 75.6888 22.7115 77.3599 18.505 77.3599C14.2985 77.3599 10.2644 75.6888 7.28996 72.7141C4.31555 69.7395 2.64454 65.705 2.64454 61.4982C2.64454 57.2915 4.31555 53.257 7.28996 50.2824L15.7011 41.8706L38.1312 64.3024L29.72 72.7141ZM72.71 72.7141C69.7329 75.6837 65.6998 77.3513 61.495 77.3513C57.2902 77.3513 53.2571 75.6837 50.28 72.7141L7.28996 29.7209C4.31555 26.7463 2.64454 22.7118 2.64454 18.5051C2.64454 14.2983 4.31555 10.2638 7.28996 7.28918C10.2644 4.31455 14.2985 2.64341 18.505 2.64341C22.7115 2.64341 26.7456 4.31455 29.72 7.28918L72.71 50.2824C75.68 53.2594 77.348 57.2929 77.348 61.4982C77.348 65.7035 75.68 69.7371 72.71 72.7141ZM64.2989 38.1327L41.8688 15.7009L50.28 7.28918C53.2544 4.31455 57.2885 2.64341 61.495 2.64341C65.7015 2.64341 69.7356 4.31455 72.71 7.28918C75.6845 10.2638 77.3555 14.2983 77.3555 18.5051C77.3555 22.7118 75.6845 26.7463 72.71 29.7209L64.2989 38.1327Z" fill="#00B288"/>
<path d="M68.5061 55.4226C68.691 55.2377 68.8169 55.0022 68.8679 54.7458C68.9189 54.4894 68.8928 54.2236 68.7928 53.9821C68.6928 53.7405 68.5233 53.5341 68.306 53.3888C68.0886 53.2435 67.8331 53.166 67.5717 53.166C67.3103 53.166 67.0547 53.2435 66.8373 53.3888C66.62 53.5341 66.4506 53.7405 66.3506 53.9821C66.2505 54.2236 66.2244 54.4894 66.2754 54.7458C66.3265 55.0022 66.4524 55.2377 66.6372 55.4226C66.8851 55.6704 67.2212 55.8096 67.5717 55.8096C67.9221 55.8096 68.2582 55.6704 68.5061 55.4226Z" fill="#00B288"/>
<path d="M60.0904 60.0921C59.9055 60.2769 59.7796 60.5124 59.7285 60.7688C59.6775 61.0252 59.7037 61.291 59.8037 61.5326C59.9037 61.7741 60.0731 61.9806 60.2905 62.1258C60.5078 62.2711 60.7634 62.3486 61.0248 62.3486C61.2862 62.3486 61.5418 62.2711 61.7591 62.1258C61.9765 61.9806 62.1459 61.7741 62.2459 61.5326C62.3459 61.291 62.3721 61.0252 62.321 60.7688C62.27 60.5124 62.1441 60.2769 61.9592 60.0921C61.7114 59.8443 61.3753 59.7051 61.0248 59.7051C60.6743 59.7051 60.3382 59.8443 60.0904 60.0921Z" fill="#00B288"/>
<path d="M53.5513 66.6389C53.3664 66.8238 53.2405 67.0593 53.1895 67.3157C53.1385 67.5721 53.1646 67.8379 53.2646 68.0795C53.3647 68.321 53.5341 68.5274 53.7514 68.6727C53.9688 68.818 54.2243 68.8955 54.4857 68.8955C54.7472 68.8955 55.0027 68.818 55.2201 68.6727C55.4374 68.5274 55.6068 68.321 55.7068 68.0795C55.8069 67.8379 55.833 67.5721 55.782 67.3157C55.7309 67.0593 55.605 66.8238 55.4202 66.6389C55.1723 66.3912 54.8362 66.252 54.4857 66.252C54.1353 66.252 53.7992 66.3912 53.5513 66.6389Z" fill="#00B288"/>
<path d="M60.092 47.0065C60.2769 46.8217 60.4028 46.5862 60.4539 46.3298C60.5049 46.0734 60.4787 45.8076 60.3787 45.566C60.2787 45.3245 60.1093 45.118 59.8919 44.9728C59.6746 44.8275 59.419 44.75 59.1576 44.75C58.8962 44.75 58.6406 44.8275 58.4233 44.9728C58.2059 45.118 58.0365 45.3245 57.9365 45.566C57.8365 45.8076 57.8103 46.0734 57.8614 46.3298C57.9124 46.5862 58.0383 46.8217 58.2232 47.0065C58.471 47.2543 58.8071 47.3935 59.1576 47.3935C59.5081 47.3935 59.8442 47.2543 60.092 47.0065Z" fill="#00B288"/>
<path d="M53.553 53.5534C53.7378 53.3686 53.8638 53.1331 53.9148 52.8767C53.9658 52.6202 53.9397 52.3545 53.8397 52.1129C53.7396 51.8714 53.5702 51.6649 53.3529 51.5197C53.1355 51.3744 52.88 51.2969 52.6185 51.2969C52.3571 51.2969 52.1016 51.3744 51.8842 51.5197C51.6669 51.6649 51.4975 51.8714 51.3974 52.1129C51.2974 52.3545 51.2713 52.6202 51.3223 52.8767C51.3733 53.1331 51.4992 53.3686 51.6841 53.5534C51.932 53.8012 52.2681 53.9404 52.6185 53.9404C52.969 53.9404 53.3051 53.8012 53.553 53.5534Z" fill="#00B288"/>
<path d="M45.1372 58.2278C44.9524 58.4127 44.8265 58.6482 44.7754 58.9046C44.7244 59.161 44.7505 59.4268 44.8506 59.6683C44.9506 59.9099 45.12 60.1163 45.3373 60.2616C45.5547 60.4068 45.8103 60.4844 46.0717 60.4844C46.3331 60.4844 46.5886 60.4068 46.806 60.2616C47.0233 60.1163 47.1928 59.9099 47.2928 59.6683C47.3928 59.4268 47.4189 59.161 47.3679 58.9046C47.3169 58.6482 47.191 58.4127 47.0061 58.2278C46.7582 57.98 46.4221 57.8408 46.0717 57.8408C45.7212 57.8408 45.3851 57.98 45.1372 58.2278Z" fill="#00B288"/>
<path d="M59.1607 52.6194C58.9758 52.8043 58.8499 53.0398 58.7989 53.2962C58.7478 53.5526 58.774 53.8184 58.874 54.0599C58.974 54.3015 59.1434 54.5079 59.3608 54.6532C59.5781 54.7984 59.8337 54.876 60.0951 54.876C60.3565 54.876 60.6121 54.7984 60.8294 54.6532C61.0468 54.5079 61.2162 54.3015 61.3162 54.0599C61.4162 53.8184 61.4424 53.5526 61.3914 53.2962C61.3403 53.0398 61.2144 52.8043 61.0295 52.6194C60.7817 52.3716 60.4456 52.2324 60.0951 52.2324C59.7446 52.2324 59.4085 52.3716 59.1607 52.6194Z" fill="#00B288"/>
<path d="M53.5482 61.4179C54.2782 61.4179 54.8699 60.8262 54.8699 60.0962C54.8699 59.3662 54.2782 58.7744 53.5482 58.7744C52.8183 58.7744 52.2266 59.3662 52.2266 60.0962C52.2266 60.8262 52.8183 61.4179 53.5482 61.4179Z" fill="#00B288"/>
<path d="M67.7544 61.2112C67.5696 61.3961 67.4436 61.6316 67.3926 61.888C67.3416 62.1444 67.3677 62.4102 67.4678 62.6517C67.5678 62.8933 67.7372 63.0997 67.9545 63.245C68.1719 63.3902 68.4274 63.4678 68.6889 63.4678C68.9503 63.4678 69.2058 63.3902 69.4232 63.245C69.6405 63.0997 69.8099 62.8933 69.91 62.6517C70.01 62.4102 70.0361 62.1444 69.9851 61.888C69.9341 61.6316 69.8082 61.3961 69.6233 61.2112C69.3754 60.9634 69.0393 60.8242 68.6889 60.8242C68.3384 60.8242 68.0023 60.9634 67.7544 61.2112Z" fill="#00B288"/>
<path d="M62.142 70.0098C62.8719 70.0098 63.4637 69.418 63.4637 68.688C63.4637 67.958 62.8719 67.3662 62.142 67.3662C61.412 67.3662 60.8203 67.958 60.8203 68.688C60.8203 69.418 61.412 70.0098 62.142 70.0098Z" fill="#00B288"/>
<path d="M25.5139 12.4294C25.6988 12.2446 25.8247 12.009 25.8757 11.7526C25.9268 11.4962 25.9006 11.2304 25.8006 10.9889C25.7006 10.7473 25.5312 10.5409 25.3138 10.3956C25.0964 10.2504 24.8409 10.1729 24.5795 10.1729C24.3181 10.1729 24.0625 10.2504 23.8452 10.3956C23.6278 10.5409 23.4584 10.7473 23.3584 10.9889C23.2584 11.2304 23.2322 11.4962 23.2832 11.7526C23.3343 12.009 23.4602 12.2446 23.6451 12.4294C23.8929 12.6772 24.229 12.8164 24.5795 12.8164C24.9299 12.8164 25.2661 12.6772 25.5139 12.4294Z" fill="#00B288"/>
<path d="M18.0404 19.3594C18.7704 19.3594 19.3621 18.7676 19.3621 18.0376C19.3621 17.3076 18.7704 16.7158 18.0404 16.7158C17.3105 16.7158 16.7188 17.3076 16.7188 18.0376C16.7188 18.7676 17.3105 19.3594 18.0404 19.3594Z" fill="#00B288"/>
<path d="M10.5591 23.6458C10.3742 23.8306 10.2483 24.0661 10.1973 24.3225C10.1463 24.579 10.1724 24.8447 10.2724 25.0863C10.3725 25.3278 10.5419 25.5343 10.7592 25.6795C10.9766 25.8248 11.2321 25.9023 11.4935 25.9023C11.755 25.9023 12.0105 25.8248 12.2279 25.6795C12.4452 25.5343 12.6146 25.3278 12.7147 25.0863C12.8147 24.8447 12.8408 24.579 12.7898 24.3225C12.7388 24.0661 12.6128 23.8306 12.428 23.6458C12.1801 23.398 11.844 23.2588 11.4935 23.2588C11.1431 23.2588 10.807 23.398 10.5591 23.6458Z" fill="#00B288"/>
<path d="M33.9202 20.8356C34.105 20.6508 34.231 20.4153 34.282 20.1589C34.333 19.9025 34.3069 19.6367 34.2068 19.3951C34.1068 19.1536 33.9374 18.9471 33.7201 18.8019C33.5027 18.6566 33.2472 18.5791 32.9857 18.5791C32.7243 18.5791 32.4688 18.6566 32.2514 18.8019C32.0341 18.9471 31.8647 19.1536 31.7646 19.3951C31.6646 19.6367 31.6385 19.9025 31.6895 20.1589C31.7405 20.4153 31.8664 20.6508 32.0513 20.8356C32.2992 21.0834 32.6353 21.2226 32.9857 21.2226C33.3362 21.2226 33.6723 21.0834 33.9202 20.8356Z" fill="#00B288"/>
<path d="M26.4467 27.7715C27.1766 27.7715 27.7683 27.1797 27.7683 26.4497C27.7683 25.7197 27.1766 25.1279 26.4467 25.1279C25.7167 25.1279 25.125 25.7197 25.125 26.4497C25.125 27.1797 25.7167 27.7715 26.4467 27.7715Z" fill="#00B288"/>
<path d="M18.9732 32.0579C18.7883 32.2427 18.6624 32.4782 18.6114 32.7347C18.5603 32.9911 18.5865 33.2568 18.6865 33.4984C18.7865 33.7399 18.9559 33.9464 19.1733 34.0917C19.3906 34.2369 19.6462 34.3144 19.9076 34.3144C20.169 34.3144 20.4246 34.2369 20.6419 34.0917C20.8593 33.9464 21.0287 33.7399 21.1287 33.4984C21.2287 33.2568 21.2549 32.9911 21.2039 32.7347C21.1528 32.4782 21.0269 32.2427 20.842 32.0579C20.5942 31.8101 20.2581 31.6709 19.9076 31.6709C19.5572 31.6709 19.221 31.8101 18.9732 32.0579Z" fill="#00B288"/>
<path d="M26.4514 19.9108C26.6363 19.726 26.7622 19.4905 26.8132 19.2341C26.8643 18.9777 26.8381 18.7119 26.7381 18.4703C26.6381 18.2288 26.4687 18.0223 26.2513 17.8771C26.034 17.7318 25.7784 17.6543 25.517 17.6543C25.2556 17.6543 25 17.7318 24.7827 17.8771C24.5653 18.0223 24.3959 18.2288 24.2959 18.4703C24.1959 18.7119 24.1697 18.9777 24.2207 19.2341C24.2718 19.4905 24.3977 19.726 24.5826 19.9108C24.8304 20.1586 25.1665 20.2978 25.517 20.2978C25.8674 20.2978 26.2036 20.1586 26.4514 19.9108Z" fill="#00B288"/>
<path d="M17.803 11.8571C17.9878 11.6723 18.1138 11.4368 18.1648 11.1804C18.2158 10.924 18.1897 10.6582 18.0896 10.4166C17.9896 10.1751 17.8202 9.96863 17.6029 9.82337C17.3855 9.67812 17.13 9.60059 16.8685 9.60059C16.6071 9.60059 16.3516 9.67812 16.1342 9.82337C15.9169 9.96863 15.7475 10.1751 15.6474 10.4166C15.5474 10.6582 15.5213 10.924 15.5723 11.1804C15.6233 11.4368 15.7492 11.6723 15.9341 11.8571C16.182 12.1049 16.5181 12.2441 16.8685 12.2441C17.219 12.2441 17.5551 12.1049 17.803 11.8571Z" fill="#00B288"/>
<path d="M19.9123 26.4499C20.0972 26.2651 20.2231 26.0295 20.2742 25.7731C20.3252 25.5167 20.299 25.2509 20.199 25.0094C20.099 24.7679 19.9296 24.5614 19.7122 24.4161C19.4949 24.2709 19.2393 24.1934 18.9779 24.1934C18.7165 24.1934 18.461 24.2709 18.2436 24.4161C18.0262 24.5614 17.8568 24.7679 17.7568 25.0094C17.6568 25.2509 17.6306 25.5167 17.6817 25.7731C17.7327 26.0295 17.8586 26.2651 18.0435 26.4499C18.2913 26.6977 18.6275 26.8369 18.9779 26.8369C19.3284 26.8369 19.6645 26.6977 19.9123 26.4499Z" fill="#00B288"/>
<path d="M11.1936 18.4665C11.3785 18.2817 11.5044 18.0462 11.5554 17.7897C11.6064 17.5333 11.5803 17.2675 11.4803 17.026C11.3803 16.7845 11.2109 16.578 10.9935 16.4327C10.7761 16.2875 10.5206 16.21 10.2592 16.21C9.99775 16.21 9.74221 16.2875 9.52485 16.4327C9.30749 16.578 9.13809 16.7845 9.03807 17.026C8.93805 17.2675 8.9119 17.5333 8.96293 17.7897C9.01395 18.0462 9.13987 18.2817 9.32475 18.4665C9.5726 18.7143 9.90871 18.8535 10.2592 18.8535C10.6096 18.8535 10.9457 18.7143 11.1936 18.4665Z" fill="#00B288"/>
<path d="M53.6236 34.9317L44.1988 25.5062C42.9603 24.2713 41.2835 23.5767 39.5347 23.5742C37.7858 23.5717 36.107 24.2616 34.8651 25.493L25.6465 34.6647C24.409 35.907 23.7132 37.5885 23.7109 39.342C23.7087 41.0955 24.4002 42.7787 25.6346 44.0242L35.2576 53.648C35.8808 54.2655 36.6202 54.7533 37.4331 55.0834C38.246 55.4134 39.1162 55.579 39.9934 55.5706C40.8707 55.5623 41.7376 55.3801 42.544 55.0347C43.3504 54.6892 44.0804 54.1874 44.6917 53.5581L53.7121 44.1881C54.9046 42.937 55.5624 41.2703 55.5458 39.5419C55.5293 37.8136 54.8397 36.1598 53.6236 34.9317ZM51.8076 42.3548L42.7872 51.7248C42.4217 52.1046 41.9841 52.4078 41.5001 52.6165C41.0161 52.8252 40.4953 52.9353 39.9682 52.9403C39.4411 52.9454 38.9184 52.8453 38.4304 52.6459C37.9425 52.4465 37.4992 52.1518 37.1265 51.779L27.5034 42.1552C26.7621 41.4087 26.3461 40.3992 26.3461 39.3471C26.3461 38.295 26.7621 37.2855 27.5034 36.539L36.7221 27.3672C37.4676 26.6288 38.475 26.2152 39.5243 26.2167C40.5737 26.2181 41.5798 26.6346 42.3233 27.3752L51.7481 36.8007C52.4788 37.5367 52.8937 38.5286 52.9048 39.5657C52.9159 40.6027 52.5223 41.6033 51.8076 42.3548Z" fill="#00B288"/>
</svg>
