<svg width="26" height="36" viewBox="0 0 26 36" fill="none" xmlns="http://www.w3.org/2000/svg">
<path d="M1 6L3.5 3.5L6 1" stroke="#A0A0A0"/>
<path d="M1 22L11.5 11.5L22 1" stroke="#A0A0A0"/>
<path d="M8 35L16.5 26.5L25 18" stroke="#A0A0A0"/>
<path d="M1 14L7.5 7.5L14 1" stroke="#A0A0A0"/>
<path d="M1 30L13 18L25 6" stroke="#A0A0A0"/>
<path d="M16 35L20.5 30.5L25 26" stroke="#A0A0A0"/>
<path d="M1 18L9.5 9.5L18 1" stroke="#A0A0A0"/>
<path d="M4 35L14.5 24.5L25 14" stroke="#A0A0A0"/>
<path d="M1 34L13 22L25 10" stroke="#A0A0A0"/>
<path d="M20 35L22.5 32.5L25 30" stroke="#A0A0A0"/>
<path d="M1 10L5.5 5.5L10 1" stroke="#A0A0A0"/>
<path d="M1 26L13 14L25 2" stroke="#A0A0A0"/>
<path d="M12 35L18.5 28.5L25 22" stroke="#A0A0A0"/>
</svg>
