<svg width="18" height="21" viewBox="0 0 18 21" fill="none" xmlns="http://www.w3.org/2000/svg">
<path d="M17.441 15.2217C16.0803 14.0715 15.3 12.3902 15.3 10.6091V8.09998C15.3 4.93296 12.9474 2.31124 9.90002 1.87206V0.899942C9.90002 0.402263 9.49677 0 8.99992 0C8.50323 0 8.09998 0.402263 8.09998 0.899942V1.87206C5.05161 2.31124 2.69999 4.93296 2.69999 8.09998V10.6091C2.69999 12.3902 1.91969 14.0715 0.550743 15.2288C0.20072 15.5286 0 15.9641 0 16.4249C0 17.2935 0.706474 18 1.57494 18H16.4249C17.2935 18 18 17.2935 18 16.4249C18 15.9641 17.7993 15.5286 17.441 15.2217Z" fill="white"/>
<path d="M9 21C10.4788 21 11.7159 20.1393 12 19H6C6.28423 20.1393 7.52131 21 9 21Z" fill="white"/>
</svg>
