<svg width="224" height="214" xmlns="http://www.w3.org/2000/svg" fill="none">
 <defs>
  <clipPath id="clip0_85_114">
   <rect id="svg_1" x="17" y="0" fill="white" height="201" width="201"/>
  </clipPath>
 </defs>
 <g>
  <title>Layer 1</title>
  <path id="svg_12" fill="#39C3FC" d="m183.453,21.9834l-21.984,0c-0.833,0 -1.632,0.3309 -2.221,0.9199c-0.589,0.5889 -0.92,1.3878 -0.92,2.2207l0,15.7031l-81.6561,0l0,-15.7031c0,-0.8329 -0.3309,-1.6318 -0.9199,-2.2207c-0.589,-0.589 -1.3878,-0.9199 -2.2208,-0.9199l-21.9843,0c-1.6653,0.0019 -3.2619,0.6643 -4.4394,1.8418c-1.1776,1.1776 -1.84,2.7741 -1.8419,4.4394l0,163.3124c0.0019,1.665 0.6643,3.262 1.8419,4.44c1.1775,1.177 2.7741,1.839 4.4394,1.841l131.9061,0c1.665,-0.002 3.262,-0.664 4.44,-1.841c1.177,-1.178 1.839,-2.775 1.841,-4.44l0,-163.3124c-0.002,-1.6653 -0.664,-3.2618 -1.841,-4.4394c-1.178,-1.1775 -2.775,-1.8399 -4.44,-1.8418z"/>
  <path id="svg_13" fill="#EAEEF9" d="m174.031,34.5459l-12.562,0c-0.833,0 -1.632,0.3309 -2.221,0.9199c-0.589,0.5889 -0.92,1.3878 -0.92,2.2207l0,3.1406l-81.6561,0l0,-3.1406c0,-0.8329 -0.3309,-1.6318 -0.9199,-2.2207c-0.589,-0.589 -1.3878,-0.9199 -2.2208,-0.9199l-12.5624,0c-0.833,0 -1.6318,0.3309 -2.2208,0.9199c-0.589,0.5889 -0.9199,1.3878 -0.9199,2.2207l0,144.4685c0,0.833 0.3309,1.632 0.9199,2.221c0.589,0.589 1.3878,0.92 2.2208,0.92l87.9372,0l28.266,-28.266c0,-3.14 0,0 0,0l0,-119.3435c0,-0.8329 -0.331,-1.6318 -0.92,-2.2207c-0.589,-0.589 -1.388,-0.9199 -2.221,-0.9199z"/>
  <path id="svg_14" fill="#D3DDEF" d="m177.172,157.03l-28.266,0l0,28.266l28.266,-28.266z"/>
  <path id="svg_15" fill="#2594EF" d="m164.609,21.9839l-25.349,0c-0.755,-5.2323 -3.371,-10.0171 -7.367,-13.47776c-3.997,-3.46068 -9.106,-5.36551 -14.393,-5.36552c-5.287,0.00001 -10.396,1.90484 -14.393,5.36552c-3.996,3.46066 -6.6117,8.24546 -7.3674,13.47776l-25.349,0l0,21.9844c0,0.8329 0.3309,1.6317 0.9199,2.2207c0.589,0.589 1.3878,0.9199 2.2207,0.9199l87.9378,0c0.833,0 1.632,-0.3309 2.221,-0.9199c0.588,-0.589 0.919,-1.3878 0.919,-2.2207l0,-21.9844z"/>
  <path id="svg_16" fill="#1974D8" d="m117.5,37.6865c6.938,0 12.562,-5.6244 12.562,-12.5625c0,-6.9381 -5.624,-12.5625 -12.562,-12.5625c-6.938,0 -12.562,5.6244 -12.562,12.5625c0,6.9381 5.624,12.5625 12.562,12.5625z"/>
  <path id="svg_17" fill="#1974D8" d="m117.977,149c0.99,0.004 1.959,-0.285 2.784,-0.832c0.825,-0.546 1.47,-1.325 1.852,-2.239c0.382,-0.913 0.484,-1.919 0.294,-2.89c-0.191,-0.972 -0.665,-1.865 -1.363,-2.566c-0.699,-0.702 -1.59,-1.18 -2.56,-1.375c-0.971,-0.195 -1.977,-0.097 -2.892,0.28c-0.915,0.378 -1.697,1.019 -2.248,1.842c-0.55,0.822 -0.844,1.79 -0.844,2.78c0.006,1.32 0.532,2.585 1.463,3.521c0.931,0.936 2.194,1.467 3.514,1.479z"/>
  <path id="svg_18" stroke-linecap="round" stroke-width="10" stroke="#1974D8" d="m100.315,95.5664c-0.063,-2.281 0.331,-4.5516 1.16,-6.6775c0.829,-2.126 2.076,-4.0642 3.667,-5.7c1.591,-1.6358 3.494,-2.9361 5.596,-3.824c2.102,-0.8879 4.36,-1.3454 6.642,-1.3454c2.282,0 4.541,0.4575 6.643,1.3454c2.102,0.8879 4.005,2.1882 5.596,3.824c1.591,1.6358 2.838,3.574 3.667,5.7c0.829,2.1259 1.223,4.3965 1.16,6.6775c0,16.1196 -17.191,11.2136 -17.019,33.1386"/>
 </g>
</svg>