<svg width="102" height="146" viewBox="0 0 102 146" fill="none" xmlns="http://www.w3.org/2000/svg">
<path d="M95.1 14H82V28.1C82 28.7435 81.8733 29.3807 81.627 29.9752C81.3808 30.5696 81.0198 31.1098 80.5648 31.5648C80.1098 32.0198 79.5696 32.3808 78.9751 32.627C78.3806 32.8733 77.7435 33 77.1 33H23.9C23.2565 33 22.6193 32.8733 22.0248 32.627C21.4304 32.3808 20.8902 32.0198 20.4352 31.5648C19.9802 31.1098 19.6192 30.5696 19.373 29.9752C19.1267 29.3807 19 28.7435 19 28.1V14H6.9C5.60044 14 4.3541 14.5162 3.43517 15.4352C2.51624 16.3541 2 17.6004 2 18.9V139.1C2 140.4 2.51624 141.646 3.43517 142.565C4.3541 143.484 5.60044 144 6.9 144H95.1C96.3996 144 97.6459 143.484 98.5648 142.565C99.4837 141.646 100 140.4 100 139.1V18.9C100 18.2565 99.8733 17.6193 99.627 17.0249C99.3808 16.4304 99.0198 15.8902 98.5648 15.4352C98.1098 14.9802 97.5696 14.6192 96.9751 14.373C96.3806 14.1267 95.7435 14 95.1 14V14Z" stroke="#006A51" stroke-width="4" stroke-miterlimit="10"/>
<path d="M72.74 2H28.26C28.1164 2 28 2.11641 28 2.26V23.74C28 23.8836 28.1164 24 28.26 24H72.74C72.8836 24 73 23.8836 73 23.74V2.26C73 2.11641 72.8836 2 72.74 2Z" stroke="#006A51" stroke-width="4" stroke-miterlimit="10"/>
</svg>
