<svg width="126" height="96" viewBox="0 0 126 96" fill="none" xmlns="http://www.w3.org/2000/svg">
    <path d="M112.412 0.0117188H13.588C6.09563 0.0117188 0 6.08331 0 13.5469V82.4531C0 89.9167 6.09563 95.9883 13.588 95.9883H112.412C119.904 95.9883 126 89.9167 126 82.4531V13.5469C126 6.08331 119.904 0.0117188 112.412 0.0117188ZM66.7058 55.3828C66.7058 57.4217 65.0466 59.0742 63 59.0742H51.8825V70.1484C51.8825 72.1874 50.2233 73.8398 48.1767 73.8398H33.3534C31.3068 73.8398 29.6476 72.1874 29.6476 70.1484V59.0742H18.5291C16.4825 59.0742 14.8233 57.4217 14.8233 55.3828V40.6172C14.8233 38.5783 16.4825 36.9258 18.5291 36.9258H29.6466V25.8516C29.6466 23.8126 31.3058 22.1602 33.3524 22.1602H48.1767C50.2233 22.1602 51.8825 23.8126 51.8825 25.8516V36.9258H63C65.0466 36.9258 66.7058 38.5783 66.7058 40.6172V55.3828ZM108.059 73.8398H77.8233C75.7767 73.8398 74.1175 72.1874 74.1175 70.1484C74.1175 68.1095 75.7767 66.457 77.8233 66.457H108.059C110.106 66.457 111.765 68.1095 111.765 70.1484C111.765 72.1874 110.106 73.8398 108.059 73.8398ZM107.471 59.0742H77.8233C75.7767 59.0742 74.1175 57.4217 74.1175 55.3828C74.1175 53.3439 75.7767 51.6914 77.8233 51.6914H107.471C109.517 51.6914 111.177 53.3439 111.177 55.3828C111.177 57.4217 109.517 59.0742 107.471 59.0742ZM107.471 44.3086H77.8233C75.7767 44.3086 74.1175 42.6561 74.1175 40.6172C74.1175 38.5783 75.7767 36.9258 77.8233 36.9258H107.471C109.517 36.9258 111.177 38.5783 111.177 40.6172C111.177 42.6561 109.517 44.3086 107.471 44.3086ZM107.471 29.543H77.8233C75.7767 29.543 74.1175 27.8905 74.1175 25.8516C74.1175 23.8126 75.7767 22.1602 77.8233 22.1602H107.471C109.517 22.1602 111.177 23.8126 111.177 25.8516C111.177 27.8905 109.517 29.543 107.471 29.543Z" fill="white"/>
</svg>