<svg width="107" height="107" viewBox="0 0 107 107" fill="none" xmlns="http://www.w3.org/2000/svg">
<path fill-rule="evenodd" clip-rule="evenodd" d="M98.4731 0.226216L98.5439 0.158351H98.1188C97.4338 0.0678647 96.7015 0 96.2528 0H26.1713C20.2426 0 15.4241 4.9315 15.4241 10.9941L14.9989 78.6778H2.19668C0.992045 78.6778 -7.62939e-06 79.6958 -7.62939e-06 80.9399V92.2055C-7.62939e-06 100.349 6.4011 106.977 14.2903 107C14.4084 107 14.5501 107 14.7154 106.955H73.223H73.7662H74.2623C82.2459 106.955 88.7651 100.214 88.7651 91.9114V50.2651H104.803C106.008 50.2651 107 49.2471 107 48.003V11.8085C107 5.88161 103.481 1.17632 98.4731 0.226216ZM102.607 11.7862V45.7412H88.7416V11.8088C88.8124 7.91791 91.9067 4.72827 95.6623 4.72827C99.418 4.72827 102.536 7.89529 102.583 11.7862H102.607ZM63.586 102.137L63.8694 102.453H13.7707V102.634L13.7235 102.453C8.47977 102.091 4.34621 97.5898 4.34621 92.2059V83.2025H59.7595V91.957C59.7595 95.7574 61.1294 99.3543 63.586 102.137ZM67.8963 27.8506H72.6324C73.9315 27.8506 74.9944 26.6743 74.9944 25.2492C74.9944 23.824 73.9315 22.6477 72.6324 22.6477H67.8963V18.1123C67.8963 16.8681 66.6681 15.8502 65.18 15.8502C63.6919 15.8502 62.4637 16.8681 62.4637 18.1123V22.6477H57.728C56.4288 22.6477 55.3659 23.824 55.3659 25.2492C55.3659 26.6743 56.4288 27.8506 57.728 27.8506H62.4637V32.3865C62.4637 33.6307 63.6919 34.6487 65.18 34.6487C66.6681 34.6487 67.8963 33.6307 67.8963 32.3865V27.8506ZM28.9349 51.1961H73.223C74.5457 51.1961 75.6322 50.1103 75.6322 48.7982C75.6322 47.4861 74.5457 46.4003 73.223 46.4003H28.9349C27.6122 46.4003 26.5256 47.4861 26.5256 48.7982C26.5256 50.1103 27.6122 51.1961 28.9349 51.1961ZM28.9349 58.3445H73.223C74.5457 58.3445 75.6322 59.4304 75.6322 60.7424C75.6322 62.0545 74.5457 63.1403 73.223 63.1403H28.9349C27.6122 63.1403 26.5256 62.0545 26.5256 60.7424C26.5256 59.4304 27.6122 58.3445 28.9349 58.3445Z" fill="white"/>
</svg>
