<svg width="177" height="213" viewBox="0 0 177 213" fill="none" xmlns="http://www.w3.org/2000/svg">
<path d="M172.4 165.2C165.2 159.1 159.4 151.6 155.5 143C151.5 134.5 149.5 125.2 149.5 115.8V88.5C149.4 75.4 145.2 62.6 137.3 52.1C129.5 41.6 118.5 33.8 105.9 30L104.5 29.6V16.5C104.5 12.3 102.8 8.2 99.8002 5.2C96.8002 2.2 92.7002 0.5 88.5002 0.5C84.3002 0.5 80.2002 2.2 77.2002 5.2C74.2002 8.2 72.5002 12.3 72.5002 16.5V29.6L71.1002 30C58.5002 33.8 47.5002 41.5 39.7002 52.1C31.9002 62.6 27.6002 75.4 27.5002 88.5V115.9C27.5002 125.3 25.4002 134.6 21.5002 143.2C17.5002 151.7 11.7002 159.3 4.50016 165.4C2.70016 166.9 1.50016 169 0.900156 171.2C0.300156 173.5 0.400156 175.9 1.30016 178C2.10016 180.2 3.60016 182.1 5.50016 183.4C7.40016 184.7 9.70016 185.5 12.0002 185.5H59.0002L59.2002 187.2C60.2002 194.2 63.7002 200.7 69.1002 205.3C74.5002 210 81.3002 212.5 88.4002 212.5C95.5002 212.5 102.4 209.9 107.7 205.3C113.1 200.7 116.6 194.2 117.6 187.2L117.8 185.5H165C167.4 185.5 169.7 184.8 171.6 183.4C173.5 182 175 180.1 175.8 177.9C176.6 175.7 176.7 173.3 176.1 171C175.5 168.8 174.2 166.7 172.4 165.2ZM77.5002 16.5C77.5002 13.6 78.7002 10.8 80.7002 8.7C82.8002 6.6 85.6002 5.5 88.5002 5.5C91.4002 5.5 94.2002 6.7 96.3002 8.7C98.4002 10.8 99.5002 13.6 99.5002 16.5V28.5L97.2002 28.2C91.4002 27.4 85.5002 27.4 79.8002 28.2L77.5002 28.5V16.5ZM112.5 188C111.4 193.5 108.3 198.5 104 202C99.6002 205.6 94.2002 207.5 88.5002 207.5C82.9002 207.5 77.4002 205.6 73.0002 202C68.6002 198.4 65.6002 193.5 64.5002 188L64.0002 185.5H113L112.5 188ZM165 180.5H12.0002C10.7002 180.5 9.40016 180.1 8.30016 179.3C7.20016 178.5 6.40016 177.5 5.90016 176.2C5.40016 174.9 5.40016 173.6 5.70016 172.3C6.00016 171 6.80016 169.9 7.80016 169C15.5002 162.5 21.8002 154.3 26.0002 145.1C30.3002 135.9 32.5002 125.9 32.5002 115.8V88.5C32.5002 76 36.6002 63.8 44.3002 54C52.0002 44.1 62.8002 37.1 75.0002 34.1H75.3002C75.5002 34.1 75.7002 34 75.9002 33.9L76.2002 33.8C84.3002 32 92.8002 32 100.9 33.8L101.2 33.9C101.4 34 101.6 34 101.8 34.1H102.1C114.2 37.1 125 44.1 132.7 54C140.4 63.9 144.6 76 144.5 88.5V115.9C144.5 126 146.7 136.1 151 145.2C155.3 154.4 161.5 162.5 169.3 169.1C170.3 170 171 171.1 171.3 172.4C171.6 173.7 171.6 175 171.1 176.3C170.6 177.5 169.8 178.6 168.7 179.4C167.6 180.1 166.3 180.5 165 180.5Z" fill="white"/>
</svg>
