<svg width="284" height="196" viewBox="0 0 284 196" fill="none" xmlns="http://www.w3.org/2000/svg">
<g clip-path="url(#clip0)">
<path fill-rule="evenodd" clip-rule="evenodd" d="M145.477 191.875L145.477 191.875C146.824 193.376 149.179 193.374 150.524 191.875L150.524 191.875C151.834 190.417 168.285 171.956 184.39 147.851C192.443 135.798 200.369 122.393 206.273 109.041C212.194 95.6526 215.985 82.5298 215.985 70.9834C215.984 33.5 185.484 3.00006 148.001 3.00006C110.517 3.00006 80.0171 33.5 80.0171 70.9834C80.0171 82.5298 83.8081 95.6526 89.7286 109.041C95.6327 122.393 103.559 135.798 111.611 147.851C127.717 171.956 144.167 190.417 145.477 191.875ZM77.0171 70.9834C77.0171 31.8432 108.86 6.10352e-05 148.001 6.10352e-05C187.141 6.10352e-05 218.984 31.8432 218.985 70.9834C218.985 119.558 155.461 190.868 152.757 193.88C150.221 196.704 145.786 196.709 143.245 193.88C140.541 190.868 77.0171 119.558 77.0171 70.9834Z" fill="white"/>
</g>
<path d="M132.414 90.0066V89.0066H131.414H114.653C113.176 89.0066 112 87.8305 112 86.352V60.6481C112 59.1696 113.176 57.9936 114.653 57.9936H131.414H132.414V56.9936V39.6546C132.414 38.1761 133.59 37.0001 135.067 37.0001H160.756C162.233 37.0001 163.409 38.1761 163.409 39.6546V56.9936V57.9936H164.409H182.347C183.824 57.9936 185 59.1696 185 60.6481V86.352C185 87.8305 183.824 89.0066 182.347 89.0066H164.409H163.409V90.0066V107.345C163.409 108.824 162.233 110 160.756 110H135.067C133.59 110 132.414 108.824 132.414 107.345V90.0066ZM137.76 103.691V104.691H138.76H157.144H158.144V103.691V86.352C158.144 84.8734 159.321 83.6974 160.797 83.6974H178.735H179.735V82.6974V64.3027V63.3027H178.735H160.797C159.321 63.3027 158.144 62.1267 158.144 60.6481V43.3092V42.3092H157.144H138.76H137.76V43.3092V60.6481C137.76 62.1267 136.584 63.3027 135.107 63.3027H118.346H117.346V64.3027V82.6974V83.6974H118.346H135.107C136.584 83.6974 137.76 84.8734 137.76 86.352V103.691Z" fill="white"/>
<path d="M109.457 180.454C110.285 180.454 110.957 181.125 110.957 181.954C110.957 182.782 110.285 183.454 109.457 183.454L2.45091 183.454C1.62249 183.454 0.950913 182.782 0.950912 181.954C0.950912 181.125 1.62248 180.454 2.45091 180.454L109.457 180.454Z" fill="white"/>
<path d="M291.506 180C292.335 180 293.006 180.672 293.006 181.5C293.006 182.328 292.335 183 291.506 183L184.5 183C183.672 183 183 182.328 183 181.5C183 180.672 183.672 180 184.5 180L291.506 180Z" fill="white"/>
<defs>
<clipPath id="clip0">
<rect width="196" height="196" fill="white" transform="translate(50.0005)"/>
</clipPath>
</defs>
</svg>
