<svg width="29" height="29" viewBox="0 0 29 29" fill="none" xmlns="http://www.w3.org/2000/svg">
<path d="M17.5195 0H11.4781C10.8136 0 10.2695 0.544104 10.2695 1.20822V4.22928C10.2695 4.8934 10.8136 5.4375 11.4781 5.4375H17.5195C18.184 5.4375 18.7281 4.8934 18.7281 4.22928V1.20822C18.7281 0.544104 18.184 0 17.5195 0Z" fill="#00B288"/>
<path d="M24.168 2.41699H20.543V4.83342C20.543 6.16235 19.4548 7.25021 18.1262 7.25021H10.8762C9.54761 7.25021 8.4594 6.16235 8.4594 4.83342V2.41699H4.8344C3.50582 2.41699 2.41797 3.50485 2.41797 4.83342V26.5834C2.41797 27.9123 3.50582 29.0002 4.8344 29.0002H24.168C25.4965 29.0002 26.5844 27.9123 26.5844 26.5834V4.83342C26.5844 3.50485 25.4965 2.41699 24.168 2.41699ZM7.25118 12.0834H14.5012V14.5002H7.25118V12.0834ZM19.3344 24.167H7.25118V21.7502H19.3344V24.167ZM21.7512 19.3334H7.25118V16.917H21.7512V19.3334Z" fill="#00B288"/>
</svg>
