<svg width="109" height="109" viewBox="0 0 109 109" fill="none" xmlns="http://www.w3.org/2000/svg">
<path d="M33.9801 36.1797C33.4173 36.1797 32.8545 35.9657 32.4266 35.5348L26.5641 29.6723C25.7052 28.8134 25.7052 27.4211 26.5641 26.5622C27.4229 25.7034 28.8153 25.7034 29.6741 26.5622L35.5366 32.4247C36.3955 33.2836 36.3955 34.6759 35.5366 35.5348C35.1057 35.9657 34.5429 36.1797 33.9801 36.1797Z" fill="white"/>
<path d="M44.9204 29.5316C43.9472 29.5316 43.059 28.8837 42.7952 27.9018L40.6495 19.8936C40.3359 18.7211 41.0306 17.5134 42.2031 17.1998C43.399 16.8861 44.5833 17.5867 44.8969 18.7534L47.0426 26.7615C47.3562 27.934 46.6615 29.1417 45.489 29.4553C45.2985 29.511 45.108 29.5316 44.9204 29.5316Z" fill="white"/>
<path d="M27.3337 47.1191C27.149 47.1191 26.9555 47.0956 26.765 47.0458L18.7568 44.9001C17.5843 44.5865 16.8867 43.3788 17.2033 42.2063C17.5169 41.0397 18.7041 40.3303 19.8971 40.6527L27.9052 42.7984C29.0777 43.1121 29.7754 44.3197 29.4588 45.4922C29.195 46.4742 28.3068 47.1191 27.3337 47.1191Z" fill="white"/>
<path d="M80.8805 83.0797C80.3177 83.0797 79.7549 82.8657 79.327 82.4348L73.4645 76.5723C72.6056 75.7135 72.6056 74.3211 73.4645 73.4623C74.3233 72.6034 75.7157 72.6034 76.5745 73.4623L82.437 79.3248C83.2959 80.1836 83.2959 81.576 82.437 82.4348C82.0061 82.8657 81.4433 83.0797 80.8805 83.0797Z" fill="white"/>
<path d="M89.6754 68.4234C89.4908 68.4234 89.2973 68.3999 89.1068 68.3501L81.0986 66.2044C79.9261 65.8908 79.2285 64.6831 79.5451 63.5106C79.8587 62.344 81.0488 61.6375 82.2389 61.957L90.247 64.1027C91.4195 64.4164 92.1172 65.624 91.8006 66.7965C91.5368 67.7756 90.6486 68.4234 89.6754 68.4234Z" fill="white"/>
<path d="M66.225 91.8734C65.2519 91.8734 64.3637 91.2256 64.0999 90.2436L61.9542 82.2355C61.6406 81.063 62.3353 79.8553 63.5078 79.5416C64.7066 79.2221 65.8879 79.9286 66.2016 81.0952L68.3473 89.1034C68.6609 90.2759 67.9662 91.4836 66.7937 91.7972C66.6032 91.85 66.4097 91.8734 66.225 91.8734Z" fill="white"/>
<path d="M53.879 60.6849C52.0997 60.1866 50.426 60.298 48.9252 60.7934C48.4767 60.94 48.0604 60.5237 48.207 60.0752C48.7024 58.5715 48.8138 56.9007 48.3155 55.1214C47.3833 51.7945 44.4931 49.1827 41.0694 48.7225C35.6671 47.9897 31.0504 52.1726 31.0504 57.4313C31.0504 60.4211 32.5571 63.0387 34.8376 64.6245C35.0691 64.7858 35.1072 65.0994 34.9079 65.2987L13.4629 86.7438L22.2566 95.5375L43.7017 74.0925C43.901 73.8932 44.2146 73.9342 44.3759 74.1628C45.9617 76.4433 48.5793 77.95 51.5691 77.95C56.8278 77.95 61.0107 73.3333 60.2808 67.931C59.8177 64.5073 57.2059 61.6171 53.879 60.6849ZM43.517 65.3984C43.5815 65.3691 43.6401 65.328 43.7017 65.2987C43.6694 65.3632 43.6313 65.4218 43.602 65.4834C43.5727 65.4541 43.5463 65.4277 43.517 65.3984Z" fill="white"/>
<path d="M67.9311 60.2805C73.3334 61.0103 77.9501 56.8274 77.9501 51.5688C77.9501 48.5789 76.4435 45.9613 74.1629 44.3755C73.9314 44.2143 73.8933 43.9006 74.0926 43.7013L95.5376 22.2563L86.7439 13.4625L65.2988 34.9076C65.0995 35.1069 64.7859 35.0658 64.6247 34.8372C63.0389 32.5567 60.4212 31.05 57.4314 31.05C52.1727 31.05 47.9898 35.6667 48.7197 41.069C49.1828 44.4927 51.7946 47.3829 55.1186 48.3151C56.8979 48.8134 58.5716 48.702 60.0724 48.2066C60.5209 48.0601 60.9371 48.4763 60.7906 48.9248C60.2952 50.4285 60.1838 52.0993 60.6821 53.8786C61.6172 57.2056 64.5074 59.8173 67.9311 60.2805ZM65.4835 43.6016C65.419 43.6309 65.3604 43.672 65.2988 43.7013C65.3311 43.6368 65.3692 43.5782 65.3985 43.5166C65.4278 43.5459 65.4542 43.5723 65.4835 43.6016Z" fill="white"/>
</svg>
