<svg width="22" height="23" viewBox="0 0 22 23" fill="none" xmlns="http://www.w3.org/2000/svg">
<path d="M15.7867 6.66184L15.7865 6.66202C15.1815 7.26731 14.8747 8.01459 14.8747 8.87495C14.8747 9.54249 15.0681 10.1517 15.4551 10.6858L15.4551 10.6858C15.7669 11.116 16.1586 11.448 16.6247 11.6782V16.7497C16.6247 17.542 16.2835 18.2304 15.5278 18.8335C14.7684 19.4393 13.8515 19.7496 12.7499 19.7496C11.6484 19.7496 10.7314 19.4393 9.97187 18.8335C9.21605 18.2305 8.87494 17.5421 8.87494 16.7497V15.3758C10.281 15.1261 11.4855 14.5196 12.4713 13.5517C13.5622 12.4809 14.1251 11.2066 14.1251 9.74962V2.75007C14.1251 2.37538 13.9819 2.04451 13.7188 1.78128L13.7186 1.78114C13.4623 1.52483 13.1414 1.38261 12.7791 1.37531C12.6059 1.15285 12.3939 0.966435 12.1457 0.817403C11.7946 0.606369 11.4091 0.5 10.9999 0.5C10.3841 0.5 9.84469 0.723941 9.40931 1.15896L9.40916 1.15911C8.97358 1.59468 8.75 2.13428 8.75 2.75007C8.75 3.36568 8.97359 3.90533 9.40918 4.34086C9.84471 4.77632 10.3843 4.99999 10.9999 4.99999C11.1269 4.99999 11.252 4.98879 11.3749 4.96683V9.74981C11.3749 10.5422 11.0339 11.2304 10.2781 11.8336C9.51862 12.4394 8.60152 12.7496 7.50003 12.7496C6.39859 12.7496 5.48151 12.4393 4.72211 11.8337C3.96626 11.2306 3.62517 10.5424 3.62517 9.74981V4.96682C3.74811 4.98878 3.87319 4.99999 4.00018 4.99999C4.61578 4.99999 5.15544 4.77641 5.59097 4.34081L5.591 4.34079C6.02644 3.90522 6.24996 3.36565 6.24996 2.75007C6.24996 2.13438 6.02647 1.59475 5.591 1.15916L5.5908 1.15896C5.1554 0.72393 4.61589 0.5 4.00013 0.5C3.59061 0.5 3.20535 0.606478 2.85402 0.817403L2.85401 0.81741C2.60607 0.966266 2.39399 1.15271 2.22077 1.3753C1.85799 1.38257 1.53773 1.52499 1.28142 1.78094L1.28108 1.78128C1.0178 2.04471 0.875 2.37566 0.875 2.75007V9.74986C0.875 11.2067 1.43761 12.4806 2.52854 13.5518C3.51431 14.5196 4.7189 15.1262 6.12487 15.376V16.7499C6.12487 18.3593 6.79918 19.7309 8.09775 20.8415C9.39349 21.95 10.9534 22.4995 12.7496 22.4995C14.5464 22.4995 16.1061 21.95 17.4018 20.8416C18.7007 19.7308 19.3745 18.3592 19.3745 16.7499V11.6782C19.8407 11.448 20.2325 11.116 20.5442 10.6857C20.9314 10.1517 21.125 9.54251 21.125 8.87495V8.87485C21.1248 8.01481 20.8181 7.26717 20.2125 6.66186C19.6071 6.05682 18.8598 5.74997 17.9994 5.74997C17.1394 5.74997 16.3921 6.05685 15.7867 6.66184ZM18.2616 9.13668C18.1786 9.21953 18.0992 9.24986 17.9998 9.24986C17.9004 9.24986 17.8212 9.21958 17.738 9.13643L17.3853 9.48944L17.7382 9.13668C17.6554 9.05381 17.625 8.97455 17.625 8.87495C17.625 8.77543 17.6554 8.69607 17.738 8.61328C17.8215 8.53013 17.9008 8.49989 17.9998 8.49989C18.0988 8.49989 18.1783 8.53016 18.2616 8.61308C18.3444 8.69595 18.3749 8.77535 18.3749 8.87495C18.3749 8.97465 18.3445 9.05378 18.2616 9.13668Z" stroke="#56595B"/>
</svg>
