<svg width="105" height="134" viewBox="0 0 105 134" fill="none" xmlns="http://www.w3.org/2000/svg">
<path d="M97.52 131.16L56.14 106.16C55.7235 105.914 55.2503 105.78 54.7666 105.772C54.2829 105.763 53.8052 105.88 53.38 106.11L7.38 131.33C6.83431 131.644 6.21568 131.809 5.58615 131.808C4.95663 131.808 4.33835 131.642 3.79333 131.326C3.24832 131.011 2.79572 130.559 2.48096 130.013C2.1662 129.468 2.00034 128.85 2 128.22V5.80031C2.0519 4.75162 2.51407 3.76539 3.28674 3.05446C4.05941 2.34353 5.08063 1.96492 6.13 2.00032H98.87C99.9194 1.96492 100.941 2.34353 101.713 3.05446C102.486 3.76539 102.948 4.75162 103 5.80031V128.18C102.99 129.094 102.632 129.97 102 130.63C101.42 131.206 100.663 131.572 99.8514 131.668C99.0394 131.764 98.2187 131.585 97.52 131.16V131.16Z" stroke="#006A51" stroke-width="4" stroke-miterlimit="10"/>
</svg>
