<svg width="25" height="25" viewBox="0 0 25 25" fill="none" xmlns="http://www.w3.org/2000/svg">
<path d="M18.9415 1.45834H6.12484C5.08317 1.45834 4.1665 2.31668 4.1665 3.33334V22.2917C4.1665 22.6333 4.25817 22.9167 4.4165 23.1333C4.59984 23.3917 4.8915 23.5417 5.20817 23.5417C5.50817 23.5417 5.82484 23.4083 6.1165 23.1583L11.8498 18.2917C12.0248 18.1417 12.2832 18.05 12.5498 18.05C12.8165 18.05 13.0665 18.1333 13.2498 18.2917L18.9665 23.1583C19.2582 23.4083 19.5582 23.5417 19.8498 23.5417C20.3498 23.5417 20.8415 23.15 20.8415 22.2833V3.33334C20.8332 2.31668 19.9832 1.45834 18.9415 1.45834Z" stroke="#006A51" fill="#006A51" stroke-width="1.5" stroke-miterlimit="10"/>
</svg>
