<svg width="13" height="17" viewBox="0 0 13 17" fill="none" xmlns="http://www.w3.org/2000/svg">
<path d="M13.0007 10.4484C13.0007 10.8606 12.7683 11.2155 12.4277 11.398V13.2782C12.4277 15.2982 10.8222 16.942 8.84675 16.942C7.25684 16.942 5.90646 15.8748 5.4412 14.4042C4.90782 14.3054 4.50355 13.8401 4.50355 13.2791V10.8313C4.50355 10.7115 4.52625 10.5993 4.56009 10.4911C2.02808 10.0677 0.333984 8.02453 0.333984 5.2285C0.333984 4.81221 0.602012 4.46181 0.973332 4.33092C1.06683 3.66842 1.26362 3.03352 1.55436 2.45472C1.41099 2.27129 1.3215 2.04244 1.3215 1.79133C1.3215 1.19339 1.80591 0.708984 2.40385 0.708984C3.00179 0.708984 3.4862 1.19339 3.4862 1.79133C3.4862 2.38883 3.00179 2.87324 2.40385 2.87324C2.3384 2.87324 2.2734 2.86523 2.20929 2.85409C1.97821 3.3296 1.81704 3.8474 1.73556 4.3888C2.03743 4.54908 2.24535 4.86297 2.24535 5.2285C2.24535 7.31706 3.54453 8.66611 5.55607 8.66611C7.56672 8.66611 8.86679 7.31706 8.86679 5.2285C8.86679 4.86297 9.07426 4.54952 9.37613 4.3888C9.29376 3.8474 9.13259 3.3296 8.9024 2.85409C8.83874 2.86567 8.77551 2.87324 8.70828 2.87324C8.1099 2.87324 7.62504 2.38883 7.62504 1.79133C7.62504 1.19339 8.1099 0.708984 8.70784 0.708984C9.30578 0.708984 9.79019 1.19339 9.79019 1.79133C9.79019 2.04244 9.70114 2.27129 9.55778 2.45472C9.84807 3.03352 10.0449 3.66842 10.1388 4.33092C10.5101 4.46181 10.7786 4.81221 10.7786 5.2285C10.7786 7.9573 9.16464 9.96974 6.73325 10.459C6.77332 10.5766 6.79959 10.6999 6.79959 10.8304V13.2782C6.79959 13.7079 6.5605 14.0774 6.21055 14.2733C6.60636 15.3828 7.63929 16.1776 8.85298 16.1776C10.4055 16.1776 11.6699 14.8762 11.6699 13.2778V11.4969C11.1958 11.3811 10.8427 10.9577 10.8427 10.4479C10.8427 9.84997 11.3271 9.36556 11.9264 9.36556C12.5163 9.36556 13.0007 9.84997 13.0007 10.4484Z" fill="white"/>
</svg>
