<svg width="16" height="16" viewBox="0 0 16 16" fill="none" xmlns="http://www.w3.org/2000/svg">
<g clip-path="url(#clip0_2695_53724)">
<path d="M14.7499 4.58336C14.3609 4.19453 13.8887 4.00007 13.333 4.00007C12.7777 4.00007 12.3055 4.19453 11.9164 4.58336C11.5276 4.97229 11.3332 5.44444 11.3332 6.0001C11.3332 6.43063 11.4564 6.81613 11.7029 7.15628C11.9496 7.49665 12.2707 7.73953 12.6666 7.88543V12.0001C12.6666 12.7362 12.3401 13.3647 11.6874 13.8855C11.0347 14.4063 10.2501 14.6668 9.33327 14.6668C8.41669 14.6668 7.6319 14.4063 6.97907 13.8855C6.32635 13.3648 5.99992 12.7362 5.99992 12.0001V10.6251C7.13888 10.4863 8.09022 10.0417 8.85418 9.2916C9.61807 8.54172 10.0001 7.66667 10.0001 6.66654V1.33342C10.0001 1.15289 9.93396 0.996551 9.80206 0.864585C9.67024 0.732801 9.51369 0.66669 9.33309 0.66669C9.29164 0.66669 9.23596 0.673732 9.16657 0.68756C9.04843 0.479121 8.88538 0.312676 8.67687 0.187496C8.46886 0.0624258 8.24299 0 7.99996 0C7.63201 0 7.31776 0.130361 7.05729 0.390608C6.79683 0.651075 6.66665 0.96532 6.66665 1.33342C6.66665 1.70137 6.79683 2.01565 7.05729 2.27608C7.31776 2.53651 7.63201 2.66673 7.99996 2.66673C8.22912 2.66673 8.45128 2.6043 8.66661 2.47923V6.66669C8.66661 7.40292 8.34025 8.0313 7.6875 8.55223C7.03467 9.07291 6.24988 9.33323 5.3333 9.33323C4.41673 9.33323 3.63193 9.07287 2.97914 8.55223C2.32643 8.03144 2 7.40303 2 6.66669V2.47923C2.21518 2.60426 2.43756 2.66673 2.66669 2.66673C3.03464 2.66673 3.34892 2.53655 3.60935 2.27608C3.86974 2.01561 3.99989 1.70137 3.99989 1.33342C3.99989 0.965357 3.86974 0.651075 3.60935 0.390608C3.34888 0.130361 3.0346 0 2.66665 0C2.42355 0 2.19782 0.0624258 1.98949 0.187496C1.78123 0.312531 1.61796 0.479085 1.49997 0.68756C1.43043 0.673769 1.37493 0.66669 1.33323 0.66669C1.15256 0.66669 0.996365 0.732801 0.864399 0.864585C0.732505 0.996551 0.666504 1.15289 0.666504 1.33342V6.66672C0.666504 7.6667 1.04836 8.54154 1.81232 9.29164C2.57624 10.0417 3.52762 10.4863 4.6665 10.6253V12.0002C4.6665 13.1045 5.12311 14.0471 6.03637 14.8282C6.94963 15.6095 8.04852 16 9.33309 16C10.6181 16 11.7169 15.6095 12.6301 14.8282C13.5435 14.0471 13.9998 13.1045 13.9998 12.0002V7.88543C14.3958 7.73953 14.7169 7.49661 14.9634 7.15628C15.2101 6.81609 15.3335 6.43059 15.3335 6.0001C15.3334 5.44462 15.139 4.97225 14.7499 4.58336ZM13.8023 6.46883C13.6702 6.60079 13.5139 6.66672 13.3333 6.66672C13.1527 6.66672 12.9967 6.60079 12.8646 6.46883C12.7327 6.3369 12.6668 6.18067 12.6668 6.0001C12.6668 5.81958 12.7327 5.66324 12.8646 5.53127C12.9967 5.39949 13.1527 5.33338 13.3333 5.33338C13.5139 5.33338 13.6701 5.39949 13.8023 5.53127C13.9341 5.66324 14.0001 5.81958 14.0001 6.0001C14.0001 6.18078 13.9341 6.3369 13.8023 6.46883Z" fill="white"/>
</g>
<defs>
<clipPath id="clip0_2695_53724">
<rect width="16" height="16" fill="white"/>
</clipPath>
</defs>
</svg>
