<svg width="19" height="27" viewBox="0 0 19 27" fill="none" xmlns="http://www.w3.org/2000/svg">
<path d="M16.641 0H2.35883C1.42132 0 0.658569 0.76275 0.658569 1.70026V25.9799C0.658569 26.3498 0.858854 26.6906 1.1819 26.8708C1.33663 26.9572 1.5077 27 1.67872 27C1.86508 27 2.05076 26.9493 2.21497 26.848L9.50191 22.3491L16.7878 26.8154C17.1027 27.0089 17.4975 27.0167 17.8195 26.8358C18.1416 26.6555 18.3412 26.3152 18.3412 25.9459V1.70026C18.3412 0.76275 17.5785 0 16.641 0ZM16.3009 24.1235L10.0334 20.2813C9.70494 20.08 9.29145 20.081 8.96397 20.283L2.69886 24.151V2.04029H16.3009V24.1235Z" fill="#00B288"/>
</svg>
