<svg version="1.1" id="Layer_1" xmlns="http://www.w3.org/2000/svg" x="0" y="0" viewBox="-290 377 30 39" style="enable-background:new -290 377 30 39" xml:space="preserve"><path class="st0" d="M-275 389.9c3.6 0 6.4-2.9 6.4-6.4s-2.8-6.5-6.4-6.5-6.4 2.9-6.4 6.4 2.9 6.5 6.4 6.5zM-261.4 399.7c-2.9-5.1-3.2-5.9-4.7-6.9s-2.3-.9-2.5-.9c-.3-.2-8.9-.2-8.9-.2h-2.3s-3.5-.2-6 4.5c-2.5 4.8-2.7 5.6-2.7 5.6s-1.5 3.6-1.4 5c.1 1.4.3 5 3.2 6.7 2.9 1.7 5.7 2.7 10.3 2.5 3.6-.2 3.8-1.9 3.8-3.2.1-1.3-.8-2.1-1.7-2.3-.9-.2-3.3-.2-3.3-.2s-1.8.1-4-.4c-2.1-.5-2.4-1.1-2.6-1.4-.1-.4 3.2-.9 3.2-.9s1.5-.2 1.7-.7c.2-.8-.5-2-.8-3.1-.3-1.1-.3-2.4.4-2.7.9-.3 1.6-.4 2.8 1.4 1.2 1.8 1.8 3 2.7 3.9.8.8 2.1 1.4 3.5 1.4 1 0 1.5-.1 1.7-.1-.5.3-2.2 1.6-2.4 2.2-.2.7-.7 3.2 2.6 3.3 3.4.1 6.7-3.5 7.3-4.4.6-.9 3-4 .1-9.1zm-9.1 6.8c-2.4 0-4.3-1.9-4.3-4.3s1.9-4.3 4.3-4.3 4.3 1.9 4.3 4.3-1.9 4.3-4.3 4.3z"/></svg>