<svg width="15" height="15" viewBox="0 0 15 15" fill="none" xmlns="http://www.w3.org/2000/svg">
<path d="M5.21789 7.20196C5.39159 7.16599 5.57308 7.08718 5.74429 6.96358C6.23657 6.60749 6.45506 6.02277 6.2318 5.65694C5.98905 5.25901 5.32501 5.28576 4.81473 5.73864C4.32676 6.15996 4.22266 6.60019 4.22266 7.06286C4.22266 7.38977 4.32722 7.97351 4.96596 8.48044C5.26754 8.24742 5.62708 8.05572 6.0352 7.91711L6.04061 7.91513C5.72702 7.78445 5.31826 7.52653 5.21789 7.20196ZM5.13914 6.07674C5.13914 5.94004 5.24805 5.83013 5.38238 5.83013C5.51659 5.83013 5.62562 5.94056 5.62562 6.07726C5.62562 6.21396 5.51659 6.32387 5.38238 6.32387C5.24808 6.32387 5.13914 6.21344 5.13914 6.07674Z" fill="white"/>
<path d="M10.9224 7.0629C10.921 6.59975 10.8174 6.15952 10.329 5.7382C9.81909 5.28578 9.1546 5.25805 8.91182 5.6565C8.68901 6.02233 8.90695 6.60707 9.39923 6.96314C9.5705 7.08674 9.75199 7.16552 9.92563 7.20152C9.86531 7.39659 9.68191 7.59507 9.40221 7.76242C9.01759 7.99198 8.80984 8.02037 6.34904 8.83753C5.43839 9.14693 4.89648 9.7618 4.89648 10.4823C4.89648 10.9955 5.15866 11.3915 5.523 11.6815C5.75216 11.4455 6.03824 11.2407 6.37245 11.0768C5.98765 10.8822 5.86892 10.7348 5.86892 10.4823C5.86892 10.0656 6.70188 9.82732 7.08614 9.70054V10.7552L8.05909 10.3213V9.70102C8.44395 9.82848 9.27479 10.0664 9.27479 10.4823C9.27479 11.1742 7.29368 11.5822 6.45077 12.1636C6.04168 12.4472 5.8217 12.8077 5.8217 13.2314C5.8217 13.4746 5.84997 13.7762 6.27707 14.0759C6.39817 14.1726 6.56643 14.0313 6.48777 13.8954C6.20556 13.3306 6.50523 13.0485 7.08708 12.8042V13.6205C7.08708 13.8891 7.30502 14.107 7.57355 14.107C7.84209 14.107 8.06003 13.8891 8.06003 13.6205V12.8047C8.61896 13.0392 8.97074 13.3705 8.65791 13.8954C8.58037 14.0287 8.74547 14.1738 8.86806 14.0759C9.28157 13.7626 9.31416 13.494 9.31416 13.2377C9.31416 12.8432 9.0982 12.4603 8.68855 12.167C9.51656 11.8678 10.2492 11.3643 10.2492 10.4833C10.2492 9.87469 9.86248 9.34152 9.19403 9.0039C9.50629 8.89153 9.66342 8.81613 9.87212 8.69162C10.7862 8.14528 10.9224 7.43651 10.9224 7.0629ZM9.76175 6.32343C9.62742 6.32343 9.51851 6.213 9.51851 6.0763C9.51851 5.9396 9.62742 5.82917 9.76175 5.82917C9.89595 5.82917 10.005 5.9396 10.005 6.0763C10.005 6.213 9.89599 6.32343 9.76175 6.32343Z" fill="white"/>
<path d="M14.3793 0.973892H11.0477C10.3941 0.973892 9.90364 1.2628 9.48171 1.68475C9.02333 2.14313 8.78499 3.16209 8.05513 3.16209V1.81096C8.34476 1.64243 8.5416 1.33221 8.5416 0.972949C8.5416 0.435608 8.10602 0 7.56865 0C7.03128 0 6.5957 0.435608 6.5957 0.972949C6.5957 1.33218 6.79254 1.6424 7.08218 1.81096V7.60868C7.38242 7.5129 7.71195 7.40737 8.05513 7.29715V4.86037C8.2662 4.75447 8.43649 4.58326 8.54093 4.37137C8.71013 4.66058 9.03182 4.86569 9.39038 4.86569C9.75405 4.86569 10.0674 4.66377 10.2343 4.36827C10.8042 4.93821 11.8635 4.94918 12.4334 4.37928L11.6067 3.55257L11.9859 3.70967C12.7306 4.01813 13.5843 3.66449 13.8928 2.91982L12.7184 2.43335C13.8561 2.43332 14.3793 1.71938 14.3793 0.973892Z" fill="white"/>
<path d="M5.6554 1.68449C5.23347 1.26254 4.74301 0.973633 4.08943 0.973633H0.757812C0.757812 1.71909 1.28099 2.43306 2.41873 2.43306L1.24429 2.91953C1.55277 3.6642 2.40651 4.01781 3.15118 3.70938L3.53041 3.55228L2.70371 4.37899C3.27362 4.94892 4.33292 4.93795 4.90282 4.36798C5.06974 4.66351 5.38306 4.86543 5.74673 4.86543C5.75032 4.86543 5.75391 4.8654 5.7575 4.86537C6.23284 4.85996 6.59618 4.43058 6.59618 3.95524V2.97651C6.21275 2.66191 5.99313 2.02223 5.6554 1.68449Z" fill="white"/>
</svg>
