<svg width="16" height="16" viewBox="0 0 16 16" fill="none" xmlns="http://www.w3.org/2000/svg">
<path d="M7.94872 1.5C9.12375 1.50211 10.2527 1.97373 11.0876 2.81579C11.9232 3.65857 12.3956 4.80381 12.3974 6.00115C12.3972 6.7737 12.143 7.69123 11.6699 8.69957C11.2022 9.69613 10.5619 10.6946 9.89035 11.6038C9.19001 12.5519 8.48055 13.3698 7.94872 13.9481C7.41689 13.3698 6.70742 12.5519 6.00708 11.6038C5.33551 10.6946 4.69522 9.69613 4.22757 8.69957C3.75436 7.69114 3.50021 6.77354 3.5 6.00095C3.50184 4.80368 3.97432 3.65852 4.80985 2.81579C5.64472 1.97373 6.77368 1.50211 7.94872 1.5ZM12.1752 6.00089V5.99999C12.1752 5.16227 11.929 4.34233 11.4662 3.64377C11.0033 2.94506 10.3441 2.39852 9.57034 2.07526L8.9921 3.45933L9.57034 2.07526C8.79646 1.75195 7.94415 1.66715 7.12174 1.83214C6.29941 1.99713 5.54583 2.40402 4.95559 2.99935L6.02079 4.05545L4.95559 2.99935C4.36549 3.59454 3.96506 4.35131 3.80296 5.17327C3.64087 5.99516 3.72395 6.84721 4.04222 7.6222C4.36053 8.39732 4.90045 9.06189 5.59566 9.53042C6.29102 9.99905 7.10992 10.25 7.94872 10.25H7.94962C9.07429 10.2493 10.1501 9.79827 10.9414 9.00015C11.7322 8.20247 12.1745 7.12348 12.1752 6.00089Z" stroke="white" stroke-width="3"/>
</svg>
