<svg width="22" height="22" viewBox="0 0 22 22" fill="none" xmlns="http://www.w3.org/2000/svg">
<path d="M10.9295 0.750001C12.8969 0.752901 14.7843 1.54242 16.1775 2.94762C17.571 4.35311 18.3562 6.25989 18.359 8.25027C18.3589 9.57886 17.9288 11.0395 17.2342 12.5195C16.5426 13.9934 15.6098 15.4423 14.655 16.735C13.1229 18.8091 11.5635 20.4418 10.9295 21.081C10.2955 20.4418 8.73606 18.8091 7.20402 16.735C6.24918 15.4423 5.31641 13.9934 4.62473 12.5195C3.93026 11.0395 3.5001 9.57901 3.5 8.25048C3.50275 6.26002 4.28797 4.35315 5.68149 2.94762C7.07468 1.54242 8.96205 0.7529 10.9295 0.750001ZM10.9295 12.7812H10.9299C12.1249 12.7805 13.2694 12.3014 14.1123 11.4511C14.9551 10.6011 15.4277 9.44979 15.4284 8.25044V8.24999C15.4284 7.35522 15.1654 6.48002 14.6719 5.73504C14.1783 4.98998 13.4761 4.4083 12.6533 4.06454C11.8304 3.72076 10.9246 3.63071 10.0506 3.80605C9.17663 3.98139 8.37476 4.41401 7.74599 5.0482C7.11729 5.68231 6.68987 6.48945 6.51676 7.36719C6.34367 8.2449 6.43245 9.15475 6.77215 9.98193C7.11188 10.8092 7.68761 11.5173 8.42754 12.0159C9.16755 12.5146 10.0382 12.7812 10.9295 12.7812Z" stroke="#56595B" stroke-width="1.5"/>
</svg>
