<svg width="16" height="17" viewBox="0 0 16 17" fill="none" xmlns="http://www.w3.org/2000/svg">
<path d="M6.05895 9.22371C6.05895 9.04833 5.91349 8.90625 5.73402 8.90625H4.60014C4.42087 8.90625 4.27539 9.04833 4.27539 9.22371V10.3325C4.27539 10.5081 4.42087 10.6502 4.60014 10.6502H5.73402C5.91349 10.6502 6.05895 10.5081 6.05895 10.3325V9.22371Z" fill="black"/>
<path d="M8.89277 9.22371C8.89277 9.04833 8.74728 8.90625 8.56816 8.90625H7.43413C7.25486 8.90625 7.10938 9.04833 7.10938 9.22371V10.3325C7.10938 10.5081 7.25486 10.6502 7.43413 10.6502H8.56816C8.74728 10.6502 8.89277 10.5081 8.89277 10.3325V9.22371Z" fill="black"/>
<path d="M11.7269 9.22371C11.7269 9.04833 11.5814 8.90625 11.4022 8.90625H10.2683C10.0888 8.90625 9.94336 9.04833 9.94336 9.22371V10.3325C9.94336 10.5081 10.0888 10.6502 10.2683 10.6502H11.4022C11.5814 10.6502 11.7269 10.5081 11.7269 10.3325V9.22371Z" fill="black"/>
<path d="M6.05895 11.9954C6.05895 11.8197 5.91349 11.6777 5.73402 11.6777H4.60014C4.42087 11.6777 4.27539 11.8197 4.27539 11.9954V13.1039C4.27539 13.2794 4.42087 13.4215 4.60014 13.4215H5.73402C5.91349 13.4215 6.05895 13.2794 6.05895 13.1039V11.9954Z" fill="black"/>
<path d="M8.89277 11.9954C8.89277 11.8197 8.74728 11.6777 8.56816 11.6777H7.43413C7.25486 11.6777 7.10938 11.8197 7.10938 11.9954V13.1039C7.10938 13.2794 7.25486 13.4215 7.43413 13.4215H8.56816C8.74728 13.4215 8.89277 13.2794 8.89277 13.1039V11.9954Z" fill="black"/>
<path d="M11.7269 11.9954C11.7269 11.8197 11.5814 11.6777 11.4023 11.6777H10.2683C10.0888 11.6777 9.94336 11.8197 9.94336 11.9954V13.1039C9.94336 13.2794 10.0888 13.4215 10.2683 13.4215H11.4023C11.5814 13.4215 11.7269 13.2794 11.7269 13.1039V11.9954Z" fill="black"/>
<path d="M13.754 3.05881V4.75235C13.754 5.51781 13.1191 6.13465 12.3365 6.13465H11.4422C10.6596 6.13465 10.0162 5.51781 10.0162 4.75235V3.05273H5.9857V4.75235C5.9857 5.51781 5.34236 6.13465 4.55983 6.13465H3.66543C2.88287 6.13465 2.24794 5.51781 2.24794 4.75235V3.05881C1.56398 3.07898 1.00195 3.63247 1.00195 4.31278V14.2377C1.00195 14.9308 1.57638 15.5 2.2851 15.5H13.7168C14.4245 15.5 15 14.9296 15 14.2377V4.31278C15 3.63247 14.438 3.07898 13.754 3.05881ZM13.3387 13.6196C13.3387 13.9192 13.0903 14.1622 12.7839 14.1622H3.19355C2.88715 14.1622 2.63882 13.9192 2.63882 13.6196V8.49307C2.63882 8.19342 2.88712 7.95042 3.19355 7.95042H12.7839C13.0903 7.95042 13.3386 8.19342 13.3386 8.49307L13.3387 13.6196Z" fill="black"/>
<path d="M3.66194 5.22678H4.54646C4.81494 5.22678 5.03262 5.0142 5.03262 4.75164V1.97531C5.03262 1.71272 4.81494 1.5 4.54646 1.5H3.66194C3.39344 1.5 3.17578 1.71272 3.17578 1.97531V4.75164C3.17578 5.0142 3.39344 5.22678 3.66194 5.22678Z" fill="black"/>
<path d="M11.4314 5.22678H12.316C12.5843 5.22678 12.8019 5.0142 12.8019 4.75164V1.97531C12.802 1.71272 12.5843 1.5 12.316 1.5H11.4314C11.163 1.5 10.9453 1.71272 10.9453 1.97531V4.75164C10.9453 5.0142 11.163 5.22678 11.4314 5.22678Z" fill="black"/>
</svg>
