<svg width="61" height="59" viewBox="0 0 61 59" fill="none" xmlns="http://www.w3.org/2000/svg">
    <path d="M7.18192 58.1185H54.1645C57.6999 58.1185 60.5964 55.3579 60.5964 51.9447V11.663C60.5964 8.24984 57.6999 5.48926 54.1645 5.48926L7.18192 5.48926C3.64653 5.48926 0.75 8.24984 0.75 11.663L0.75 51.9447C0.75 55.3579 3.64653 58.1185 7.18192 58.1185ZM3.72277 11.663C3.72277 9.85146 5.26485 8.35877 7.18192 8.35877L54.1645 8.35877C56.0816 8.35877 57.6236 9.85146 57.6236 11.663V51.9447C57.6236 53.7563 56.0816 55.249 54.1645 55.249H7.18192C5.26485 55.249 3.72277 53.7563 3.72277 51.9447L3.72277 11.663Z" fill="#006A51" stroke="#006A51" stroke-width="0.5"/>
    <path d="M2.23638 22.5758H59.11C59.9204 22.5758 60.5964 21.9431 60.5964 21.1411C60.5964 20.3391 59.9204 19.7063 59.11 19.7063H2.23638C1.42599 19.7063 0.75 20.3391 0.75 21.1411C0.75 21.9431 1.42599 22.5758 2.23638 22.5758Z" fill="#006A51" stroke="#006A51" stroke-width="0.5"/>
    <path d="M13.1094 11.6628C13.1094 12.4648 13.7854 13.0976 14.5958 13.0976C15.4062 13.0976 16.0821 12.4648 16.0821 11.6628V2.18476C16.0821 1.38276 15.4062 0.75 14.5958 0.75C13.7854 0.75 13.1094 1.38276 13.1094 2.18476V11.6628Z" fill="#006A51" stroke="#006A51" stroke-width="0.5"/>
    <path d="M45.2578 11.6628C45.2578 12.4648 45.9338 13.0976 46.7442 13.0976C47.5546 13.0976 48.2306 12.4648 48.2306 11.6628V2.18476C48.2306 1.38276 47.5546 0.75 46.7442 0.75C45.9338 0.75 45.2578 1.38276 45.2578 2.18476V11.6628Z" fill="#006A51" stroke="#006A51" stroke-width="0.5"/>
    <rect x="21.125" y="37.7295" width="11" height="3" rx="1.5" transform="rotate(45 21.125 37.7295)" fill="#006A51"/>
    <path d="M41.3065 31.0607C41.8923 31.6465 41.8923 32.5962 41.3065 33.182L27.9348 46.5537C27.349 47.1395 26.3992 47.1395 25.8135 46.5537V46.5537C25.2277 45.968 25.2277 45.0182 25.8135 44.4324L39.1852 31.0607C39.771 30.4749 40.7207 30.4749 41.3065 31.0607V31.0607Z" fill="#006A51"/>
</svg>