<svg width="24" height="24" viewBox="0 0 24 24" fill="none" xmlns="http://www.w3.org/2000/svg">
<path d="M8.74407 13.2405C8.74407 12.9399 8.50021 12.6963 8.19932 12.6963H6.29836C5.99781 12.6963 5.75391 12.9399 5.75391 13.2405V15.1412C5.75391 15.4423 5.99781 15.6859 6.29836 15.6859H8.19932C8.50021 15.6859 8.74407 15.4423 8.74407 15.1412V13.2405Z" fill="#00B288"/>
<path d="M13.4948 13.2405C13.4948 12.9399 13.2509 12.6963 12.9506 12.6963H11.0493C10.7488 12.6963 10.5049 12.9399 10.5049 13.2405V15.1412C10.5049 15.4423 10.7488 15.6859 11.0493 15.6859H12.9506C13.2509 15.6859 13.4948 15.4423 13.4948 15.1412V13.2405Z" fill="#00B288"/>
<path d="M18.245 13.2405C18.245 12.9399 18.0011 12.6963 17.7006 12.6963H15.7996C15.4987 12.6963 15.2549 12.9399 15.2549 13.2405V15.1412C15.2549 15.4423 15.4987 15.6859 15.7996 15.6859H17.7006C18.0011 15.6859 18.245 15.4423 18.245 15.1412V13.2405Z" fill="#00B288"/>
<path d="M8.74407 17.9918C8.74407 17.6906 8.50021 17.4473 8.19932 17.4473H6.29836C5.99781 17.4473 5.75391 17.6906 5.75391 17.9918V19.8921C5.75391 20.193 5.99781 20.4366 6.29836 20.4366H8.19932C8.50021 20.4366 8.74407 20.1929 8.74407 19.8921V17.9918Z" fill="#00B288"/>
<path d="M13.4948 17.9918C13.4948 17.6906 13.2509 17.4473 12.9506 17.4473H11.0493C10.7488 17.4473 10.5049 17.6906 10.5049 17.9918V19.8921C10.5049 20.193 10.7488 20.4366 11.0493 20.4366H12.9506C13.2509 20.4366 13.4948 20.1929 13.4948 19.8921V17.9918Z" fill="#00B288"/>
<path d="M18.245 17.9918C18.245 17.6906 18.0011 17.4473 17.7008 17.4473H15.7996C15.4987 17.4473 15.2549 17.6906 15.2549 17.9918V19.8921C15.2549 20.193 15.4987 20.4366 15.7996 20.4366H17.7008C18.0011 20.4366 18.245 20.1929 18.245 19.8921V17.9918Z" fill="#00B288"/>
<path d="M21.6447 2.67253V5.57573C21.6447 6.88794 20.5802 7.94538 19.2681 7.94538H17.769C16.4568 7.94538 15.3782 6.88794 15.3782 5.57573V2.66211H8.62097V5.57573C8.62097 6.88794 7.54239 7.94538 6.23047 7.94538H4.73099C3.41902 7.94538 2.35455 6.88794 2.35455 5.57573V2.67253C1.20787 2.7071 0.265625 3.65593 0.265625 4.82217V21.8363C0.265625 23.0244 1.22867 24.0003 2.41684 24.0003H21.5823C22.7687 24.0003 23.7336 23.0224 23.7336 21.8363V4.82217C23.7336 3.65593 22.7914 2.7071 21.6447 2.67253ZM20.9484 20.7768C20.9484 21.2902 20.532 21.7068 20.0184 21.7068H3.93987C3.4262 21.7068 3.00987 21.2902 3.00987 20.7768V11.9884C3.00987 11.4747 3.42615 11.0581 3.93987 11.0581H20.0183C20.532 11.0581 20.9483 11.4747 20.9483 11.9884L20.9484 20.7768Z" fill="#00B288"/>
<path d="M4.72521 6.38875H6.20813C6.65823 6.38875 7.02319 6.02434 7.02319 5.57423V0.814812C7.02319 0.364657 6.65823 0 6.20813 0H4.72521C4.27506 0 3.91016 0.364657 3.91016 0.814812V5.57423C3.91016 6.02434 4.27506 6.38875 4.72521 6.38875Z" fill="#00B288"/>
<path d="M17.7496 6.38875H19.2325C19.6823 6.38875 20.0473 6.02434 20.0473 5.57423V0.814812C20.0473 0.364657 19.6824 0 19.2325 0H17.7496C17.2995 0 16.9346 0.364657 16.9346 0.814812V5.57423C16.9346 6.02434 17.2995 6.38875 17.7496 6.38875Z" fill="#00B288"/>
</svg>
