<svg width="20" height="21" viewBox="0 0 20 21" fill="none" xmlns="http://www.w3.org/2000/svg">
<g clip-path="url(#clip0)">
<path d="M7.28686 11.6356C7.28686 11.3725 7.08364 11.1594 6.8329 11.1594H5.24876C4.9983 11.1594 4.79504 11.3725 4.79504 11.6356V13.2987C4.79504 13.5621 4.9983 13.7753 5.24876 13.7753H6.8329C7.08364 13.7753 7.28686 13.5621 7.28686 13.2987V11.6356Z" fill="black"/>
<path d="M11.2458 11.6356C11.2458 11.3725 11.0426 11.1594 10.7923 11.1594H9.20798C8.95753 11.1594 8.75427 11.3725 8.75427 11.6356V13.2987C8.75427 13.5621 8.95753 13.7753 9.20798 13.7753H10.7923C11.0426 13.7753 11.2458 13.5621 11.2458 13.2987V11.6356Z" fill="black"/>
<path d="M15.2049 11.6356C15.2049 11.3725 15.0017 11.1594 14.7512 11.1594H13.1671C12.9163 11.1594 12.7131 11.3725 12.7131 11.6356V13.2987C12.7131 13.5621 12.9163 13.7753 13.1671 13.7753H14.7512C15.0017 13.7753 15.2049 13.5621 15.2049 13.2987V11.6356Z" fill="black"/>
<path d="M7.28686 15.7931C7.28686 15.5296 7.08364 15.3167 6.8329 15.3167H5.24876C4.9983 15.3167 4.79504 15.5296 4.79504 15.7931V17.4559C4.79504 17.7192 4.9983 17.9323 5.24876 17.9323H6.8329C7.08364 17.9323 7.28686 17.7191 7.28686 17.4559V15.7931Z" fill="black"/>
<path d="M11.2458 15.7931C11.2458 15.5296 11.0426 15.3167 10.7923 15.3167H9.20798C8.95753 15.3167 8.75427 15.5296 8.75427 15.7931V17.4559C8.75427 17.7192 8.95753 17.9323 9.20798 17.9323H10.7923C11.0426 17.9323 11.2458 17.7191 11.2458 17.4559V15.7931Z" fill="black"/>
<path d="M15.2049 15.7931C15.2049 15.5296 15.0017 15.3167 14.7514 15.3167H13.1671C12.9163 15.3167 12.7131 15.5296 12.7131 15.7931V17.4559C12.7131 17.7192 12.9163 17.9323 13.1671 17.9323H14.7514C15.0017 17.9323 15.2049 17.7191 15.2049 17.4559V15.7931Z" fill="black"/>
<path d="M18.0376 2.38827V4.92857C18.0376 6.07675 17.1505 7.00201 16.0571 7.00201H14.8078C13.7144 7.00201 12.8155 6.07675 12.8155 4.92857V2.37915H7.18447V4.92857C7.18447 6.07675 6.28566 7.00201 5.19239 7.00201H3.94282C2.84951 7.00201 1.96245 6.07675 1.96245 4.92857V2.38827C1.00689 2.41851 0.22168 3.24874 0.22168 4.26921V19.1565C0.22168 20.1962 1.02422 21.05 2.01436 21.05H17.9856C18.9743 21.05 19.7783 20.1944 19.7783 19.1565V4.26921C19.7783 3.24874 18.9931 2.41851 18.0376 2.38827ZM17.4573 18.2295C17.4573 18.6788 17.1104 19.0433 16.6823 19.0433H3.28356C2.85549 19.0433 2.50855 18.6788 2.50855 18.2295V10.5396C2.50855 10.0902 2.85545 9.72566 3.28356 9.72566H16.6823C17.1103 9.72566 17.4573 10.0902 17.4573 10.5396L17.4573 18.2295Z" fill="black"/>
<path d="M3.93849 5.6402H5.17425C5.54934 5.6402 5.85346 5.32134 5.85346 4.9275V0.763009C5.85346 0.369124 5.54934 0.0500488 5.17425 0.0500488H3.93849C3.56336 0.0500488 3.25928 0.369124 3.25928 0.763009V4.9275C3.25928 5.32134 3.56336 5.6402 3.93849 5.6402Z" fill="black"/>
<path d="M14.792 5.6402H16.0277C16.4026 5.6402 16.7067 5.32134 16.7067 4.9275V0.763009C16.7067 0.369124 16.4026 0.0500488 16.0277 0.0500488H14.792C14.4169 0.0500488 14.1128 0.369124 14.1128 0.763009V4.9275C14.1128 5.32134 14.4169 5.6402 14.792 5.6402Z" fill="black"/>
</g>
<defs>
<clipPath id="clip0">
<rect width="20" height="21" fill="white"/>
</clipPath>
</defs>
</svg>
