<svg width="30" height="31" viewBox="0 0 30 31" fill="none" xmlns="http://www.w3.org/2000/svg">
<path d="M24.1875 5.83398H22.875V3.20898C22.875 2.86089 22.7367 2.52705 22.4906 2.28091C22.2444 2.03477 21.9106 1.89648 21.5625 1.89648C21.2144 1.89648 20.8806 2.03477 20.6344 2.28091C20.3883 2.52705 20.25 2.86089 20.25 3.20898V5.83398H9.75V3.20898C9.75 2.86089 9.61172 2.52705 9.36558 2.28091C9.11944 2.03477 8.7856 1.89648 8.4375 1.89648C8.0894 1.89648 7.75556 2.03477 7.50942 2.28091C7.26328 2.52705 7.125 2.86089 7.125 3.20898V5.83398H5.8125C4.76821 5.83398 3.76669 6.24883 3.02827 6.98725C2.28984 7.72568 1.875 8.72719 1.875 9.77148V11.084H28.125V9.77148C28.125 8.72719 27.7102 7.72568 26.9717 6.98725C26.2333 6.24883 25.2318 5.83398 24.1875 5.83398Z" fill="#00B288"/>
<path d="M1.875 24.209C1.875 25.2533 2.28984 26.2548 3.02827 26.9932C3.76669 27.7316 4.76821 28.1465 5.8125 28.1465H24.1875C25.2318 28.1465 26.2333 27.7316 26.9717 26.9932C27.7102 26.2548 28.125 25.2533 28.125 24.209V13.709H1.875V24.209Z" fill="#00B288"/>
</svg>
