<svg width="66" height="61" viewBox="0 0 66 61" fill="none" xmlns="http://www.w3.org/2000/svg">
<mask id="path-1-outside-1" maskUnits="userSpaceOnUse" x="0" y="0" width="66" height="61" fill="black">
<rect fill="white" width="66" height="61"/>
<path d="M59.4375 7.375H54.125V5.25C54.125 4.12283 53.6772 3.04183 52.8802 2.2448C52.0832 1.44777 51.0022 1 49.875 1C48.7478 1 47.6668 1.44777 46.8698 2.2448C46.0728 3.04183 45.625 4.12283 45.625 5.25V7.375H37.125V5.25C37.125 4.12283 36.6772 3.04183 35.8802 2.2448C35.0832 1.44777 34.0022 1 32.875 1C31.7478 1 30.6668 1.44777 29.8698 2.2448C29.0728 3.04183 28.625 4.12283 28.625 5.25V7.375H20.125V5.25C20.125 4.12283 19.6772 3.04183 18.8802 2.2448C18.0832 1.44777 17.0022 1 15.875 1C14.7478 1 13.6668 1.44777 12.8698 2.2448C12.0728 3.04183 11.625 4.12283 11.625 5.25V7.375H6.3125C4.90354 7.375 3.55228 7.93471 2.556 8.93099C1.55971 9.92728 1 11.2785 1 12.6875V55.1875C1 56.5965 1.55971 57.9477 2.556 58.944C3.55228 59.9403 4.90354 60.5 6.3125 60.5H58.0625C58.3443 60.5 58.6145 60.3881 58.8138 60.1888C59.0131 59.9895 59.125 59.7193 59.125 59.4375C59.125 59.1557 59.0131 58.8855 58.8138 58.6862C58.6145 58.4869 58.3443 58.375 58.0625 58.375H6.3125C5.4679 58.3725 4.65861 58.0358 4.06138 57.4386C3.46416 56.8414 3.12752 56.0321 3.125 55.1875V22.25H62.625V54.3125C62.625 54.5943 62.7369 54.8645 62.9362 55.0638C63.1355 55.2631 63.4057 55.375 63.6875 55.375C63.9693 55.375 64.2395 55.2631 64.4388 55.0638C64.6381 54.8645 64.75 54.5943 64.75 54.3125V12.6875C64.75 11.2785 64.1903 9.92728 63.194 8.93099C62.1977 7.93471 60.8465 7.375 59.4375 7.375ZM47.75 5.25C47.75 4.68641 47.9739 4.14591 48.3724 3.7474C48.7709 3.34888 49.3114 3.125 49.875 3.125C50.4386 3.125 50.9791 3.34888 51.3776 3.7474C51.7761 4.14591 52 4.68641 52 5.25V11.625C52 12.1886 51.7761 12.7291 51.3776 13.1276C50.9791 13.5261 50.4386 13.75 49.875 13.75C49.3114 13.75 48.7709 13.5261 48.3724 13.1276C47.9739 12.7291 47.75 12.1886 47.75 11.625V5.25ZM30.75 5.25C30.75 4.68641 30.9739 4.14591 31.3724 3.7474C31.7709 3.34888 32.3114 3.125 32.875 3.125C33.4386 3.125 33.9791 3.34888 34.3776 3.7474C34.7761 4.14591 35 4.68641 35 5.25V11.625C35 12.1886 34.7761 12.7291 34.3776 13.1276C33.9791 13.5261 33.4386 13.75 32.875 13.75C32.3114 13.75 31.7709 13.5261 31.3724 13.1276C30.9739 12.7291 30.75 12.1886 30.75 11.625V5.25ZM13.75 5.25C13.75 4.68641 13.9739 4.14591 14.3724 3.7474C14.7709 3.34888 15.3114 3.125 15.875 3.125C16.4386 3.125 16.9791 3.34888 17.3776 3.7474C17.7761 4.14591 18 4.68641 18 5.25V11.625C18 12.1886 17.7761 12.7291 17.3776 13.1276C16.9791 13.5261 16.4386 13.75 15.875 13.75C15.3114 13.75 14.7709 13.5261 14.3724 13.1276C13.9739 12.7291 13.75 12.1886 13.75 11.625V5.25ZM62.625 20.125H3.125V12.6875C3.12752 11.8429 3.46416 11.0336 4.06138 10.4364C4.65861 9.83916 5.4679 9.50252 6.3125 9.5H11.625V11.625C11.625 12.7522 12.0728 13.8332 12.8698 14.6302C13.6668 15.4272 14.7478 15.875 15.875 15.875C17.0022 15.875 18.0832 15.4272 18.8802 14.6302C19.6772 13.8332 20.125 12.7522 20.125 11.625V9.5H28.625V11.625C28.625 12.7522 29.0728 13.8332 29.8698 14.6302C30.6668 15.4272 31.7478 15.875 32.875 15.875C34.0022 15.875 35.0832 15.4272 35.8802 14.6302C36.6772 13.8332 37.125 12.7522 37.125 11.625V9.5H45.625V11.625C45.625 12.7522 46.0728 13.8332 46.8698 14.6302C47.6668 15.4272 48.7478 15.875 49.875 15.875C51.0022 15.875 52.0832 15.4272 52.8802 14.6302C53.6772 13.8332 54.125 12.7522 54.125 11.625V9.5H59.4375C60.2821 9.50252 61.0914 9.83916 61.6886 10.4364C62.2858 11.0336 62.6225 11.8429 62.625 12.6875V20.125Z"/>
</mask>
<path d="M59.4375 7.375H54.125V5.25C54.125 4.12283 53.6772 3.04183 52.8802 2.2448C52.0832 1.44777 51.0022 1 49.875 1C48.7478 1 47.6668 1.44777 46.8698 2.2448C46.0728 3.04183 45.625 4.12283 45.625 5.25V7.375H37.125V5.25C37.125 4.12283 36.6772 3.04183 35.8802 2.2448C35.0832 1.44777 34.0022 1 32.875 1C31.7478 1 30.6668 1.44777 29.8698 2.2448C29.0728 3.04183 28.625 4.12283 28.625 5.25V7.375H20.125V5.25C20.125 4.12283 19.6772 3.04183 18.8802 2.2448C18.0832 1.44777 17.0022 1 15.875 1C14.7478 1 13.6668 1.44777 12.8698 2.2448C12.0728 3.04183 11.625 4.12283 11.625 5.25V7.375H6.3125C4.90354 7.375 3.55228 7.93471 2.556 8.93099C1.55971 9.92728 1 11.2785 1 12.6875V55.1875C1 56.5965 1.55971 57.9477 2.556 58.944C3.55228 59.9403 4.90354 60.5 6.3125 60.5H58.0625C58.3443 60.5 58.6145 60.3881 58.8138 60.1888C59.0131 59.9895 59.125 59.7193 59.125 59.4375C59.125 59.1557 59.0131 58.8855 58.8138 58.6862C58.6145 58.4869 58.3443 58.375 58.0625 58.375H6.3125C5.4679 58.3725 4.65861 58.0358 4.06138 57.4386C3.46416 56.8414 3.12752 56.0321 3.125 55.1875V22.25H62.625V54.3125C62.625 54.5943 62.7369 54.8645 62.9362 55.0638C63.1355 55.2631 63.4057 55.375 63.6875 55.375C63.9693 55.375 64.2395 55.2631 64.4388 55.0638C64.6381 54.8645 64.75 54.5943 64.75 54.3125V12.6875C64.75 11.2785 64.1903 9.92728 63.194 8.93099C62.1977 7.93471 60.8465 7.375 59.4375 7.375ZM47.75 5.25C47.75 4.68641 47.9739 4.14591 48.3724 3.7474C48.7709 3.34888 49.3114 3.125 49.875 3.125C50.4386 3.125 50.9791 3.34888 51.3776 3.7474C51.7761 4.14591 52 4.68641 52 5.25V11.625C52 12.1886 51.7761 12.7291 51.3776 13.1276C50.9791 13.5261 50.4386 13.75 49.875 13.75C49.3114 13.75 48.7709 13.5261 48.3724 13.1276C47.9739 12.7291 47.75 12.1886 47.75 11.625V5.25ZM30.75 5.25C30.75 4.68641 30.9739 4.14591 31.3724 3.7474C31.7709 3.34888 32.3114 3.125 32.875 3.125C33.4386 3.125 33.9791 3.34888 34.3776 3.7474C34.7761 4.14591 35 4.68641 35 5.25V11.625C35 12.1886 34.7761 12.7291 34.3776 13.1276C33.9791 13.5261 33.4386 13.75 32.875 13.75C32.3114 13.75 31.7709 13.5261 31.3724 13.1276C30.9739 12.7291 30.75 12.1886 30.75 11.625V5.25ZM13.75 5.25C13.75 4.68641 13.9739 4.14591 14.3724 3.7474C14.7709 3.34888 15.3114 3.125 15.875 3.125C16.4386 3.125 16.9791 3.34888 17.3776 3.7474C17.7761 4.14591 18 4.68641 18 5.25V11.625C18 12.1886 17.7761 12.7291 17.3776 13.1276C16.9791 13.5261 16.4386 13.75 15.875 13.75C15.3114 13.75 14.7709 13.5261 14.3724 13.1276C13.9739 12.7291 13.75 12.1886 13.75 11.625V5.25ZM62.625 20.125H3.125V12.6875C3.12752 11.8429 3.46416 11.0336 4.06138 10.4364C4.65861 9.83916 5.4679 9.50252 6.3125 9.5H11.625V11.625C11.625 12.7522 12.0728 13.8332 12.8698 14.6302C13.6668 15.4272 14.7478 15.875 15.875 15.875C17.0022 15.875 18.0832 15.4272 18.8802 14.6302C19.6772 13.8332 20.125 12.7522 20.125 11.625V9.5H28.625V11.625C28.625 12.7522 29.0728 13.8332 29.8698 14.6302C30.6668 15.4272 31.7478 15.875 32.875 15.875C34.0022 15.875 35.0832 15.4272 35.8802 14.6302C36.6772 13.8332 37.125 12.7522 37.125 11.625V9.5H45.625V11.625C45.625 12.7522 46.0728 13.8332 46.8698 14.6302C47.6668 15.4272 48.7478 15.875 49.875 15.875C51.0022 15.875 52.0832 15.4272 52.8802 14.6302C53.6772 13.8332 54.125 12.7522 54.125 11.625V9.5H59.4375C60.2821 9.50252 61.0914 9.83916 61.6886 10.4364C62.2858 11.0336 62.6225 11.8429 62.625 12.6875V20.125Z" fill="#006A51"/>
<path d="M59.4375 7.375H54.125V5.25C54.125 4.12283 53.6772 3.04183 52.8802 2.2448C52.0832 1.44777 51.0022 1 49.875 1C48.7478 1 47.6668 1.44777 46.8698 2.2448C46.0728 3.04183 45.625 4.12283 45.625 5.25V7.375H37.125V5.25C37.125 4.12283 36.6772 3.04183 35.8802 2.2448C35.0832 1.44777 34.0022 1 32.875 1C31.7478 1 30.6668 1.44777 29.8698 2.2448C29.0728 3.04183 28.625 4.12283 28.625 5.25V7.375H20.125V5.25C20.125 4.12283 19.6772 3.04183 18.8802 2.2448C18.0832 1.44777 17.0022 1 15.875 1C14.7478 1 13.6668 1.44777 12.8698 2.2448C12.0728 3.04183 11.625 4.12283 11.625 5.25V7.375H6.3125C4.90354 7.375 3.55228 7.93471 2.556 8.93099C1.55971 9.92728 1 11.2785 1 12.6875V55.1875C1 56.5965 1.55971 57.9477 2.556 58.944C3.55228 59.9403 4.90354 60.5 6.3125 60.5H58.0625C58.3443 60.5 58.6145 60.3881 58.8138 60.1888C59.0131 59.9895 59.125 59.7193 59.125 59.4375C59.125 59.1557 59.0131 58.8855 58.8138 58.6862C58.6145 58.4869 58.3443 58.375 58.0625 58.375H6.3125C5.4679 58.3725 4.65861 58.0358 4.06138 57.4386C3.46416 56.8414 3.12752 56.0321 3.125 55.1875V22.25H62.625V54.3125C62.625 54.5943 62.7369 54.8645 62.9362 55.0638C63.1355 55.2631 63.4057 55.375 63.6875 55.375C63.9693 55.375 64.2395 55.2631 64.4388 55.0638C64.6381 54.8645 64.75 54.5943 64.75 54.3125V12.6875C64.75 11.2785 64.1903 9.92728 63.194 8.93099C62.1977 7.93471 60.8465 7.375 59.4375 7.375ZM47.75 5.25C47.75 4.68641 47.9739 4.14591 48.3724 3.7474C48.7709 3.34888 49.3114 3.125 49.875 3.125C50.4386 3.125 50.9791 3.34888 51.3776 3.7474C51.7761 4.14591 52 4.68641 52 5.25V11.625C52 12.1886 51.7761 12.7291 51.3776 13.1276C50.9791 13.5261 50.4386 13.75 49.875 13.75C49.3114 13.75 48.7709 13.5261 48.3724 13.1276C47.9739 12.7291 47.75 12.1886 47.75 11.625V5.25ZM30.75 5.25C30.75 4.68641 30.9739 4.14591 31.3724 3.7474C31.7709 3.34888 32.3114 3.125 32.875 3.125C33.4386 3.125 33.9791 3.34888 34.3776 3.7474C34.7761 4.14591 35 4.68641 35 5.25V11.625C35 12.1886 34.7761 12.7291 34.3776 13.1276C33.9791 13.5261 33.4386 13.75 32.875 13.75C32.3114 13.75 31.7709 13.5261 31.3724 13.1276C30.9739 12.7291 30.75 12.1886 30.75 11.625V5.25ZM13.75 5.25C13.75 4.68641 13.9739 4.14591 14.3724 3.7474C14.7709 3.34888 15.3114 3.125 15.875 3.125C16.4386 3.125 16.9791 3.34888 17.3776 3.7474C17.7761 4.14591 18 4.68641 18 5.25V11.625C18 12.1886 17.7761 12.7291 17.3776 13.1276C16.9791 13.5261 16.4386 13.75 15.875 13.75C15.3114 13.75 14.7709 13.5261 14.3724 13.1276C13.9739 12.7291 13.75 12.1886 13.75 11.625V5.25ZM62.625 20.125H3.125V12.6875C3.12752 11.8429 3.46416 11.0336 4.06138 10.4364C4.65861 9.83916 5.4679 9.50252 6.3125 9.5H11.625V11.625C11.625 12.7522 12.0728 13.8332 12.8698 14.6302C13.6668 15.4272 14.7478 15.875 15.875 15.875C17.0022 15.875 18.0832 15.4272 18.8802 14.6302C19.6772 13.8332 20.125 12.7522 20.125 11.625V9.5H28.625V11.625C28.625 12.7522 29.0728 13.8332 29.8698 14.6302C30.6668 15.4272 31.7478 15.875 32.875 15.875C34.0022 15.875 35.0832 15.4272 35.8802 14.6302C36.6772 13.8332 37.125 12.7522 37.125 11.625V9.5H45.625V11.625C45.625 12.7522 46.0728 13.8332 46.8698 14.6302C47.6668 15.4272 48.7478 15.875 49.875 15.875C51.0022 15.875 52.0832 15.4272 52.8802 14.6302C53.6772 13.8332 54.125 12.7522 54.125 11.625V9.5H59.4375C60.2821 9.50252 61.0914 9.83916 61.6886 10.4364C62.2858 11.0336 62.6225 11.8429 62.625 12.6875V20.125Z" stroke="#006A51" stroke-width="0.8" mask="url(#path-1-outside-1)"/>
<mask id="path-2-inside-2" fill="white">
<path d="M9 42C9 41.4477 9.44772 41 10 41H22C22.5523 41 23 41.4477 23 42V52C23 52.5523 22.5523 53 22 53H10C9.44772 53 9 52.5523 9 52V42Z"/>
</mask>
<path d="M9 42C9 41.4477 9.44772 41 10 41H22C22.5523 41 23 41.4477 23 42V52C23 52.5523 22.5523 53 22 53H10C9.44772 53 9 52.5523 9 52V42Z" stroke="#006A51" stroke-width="6" mask="url(#path-2-inside-2)"/>
<mask id="path-3-inside-3" fill="white">
<path d="M26 42C26 41.4477 26.4477 41 27 41H39C39.5523 41 40 41.4477 40 42V52C40 52.5523 39.5523 53 39 53H27C26.4477 53 26 52.5523 26 52V42Z"/>
</mask>
<path d="M26 42C26 41.4477 26.4477 41 27 41H39C39.5523 41 40 41.4477 40 42V52C40 52.5523 39.5523 53 39 53H27C26.4477 53 26 52.5523 26 52V42Z" stroke="#006A51" stroke-width="6" mask="url(#path-3-inside-3)"/>
<mask id="path-4-inside-4" fill="white">
<path d="M43 42C43 41.4477 43.4477 41 44 41H56C56.5523 41 57 41.4477 57 42V52C57 52.5523 56.5523 53 56 53H44C43.4477 53 43 52.5523 43 52V42Z"/>
</mask>
<path d="M43 42C43 41.4477 43.4477 41 44 41H56C56.5523 41 57 41.4477 57 42V52C57 52.5523 56.5523 53 56 53H44C43.4477 53 43 52.5523 43 52V42Z" stroke="#006A51" stroke-width="6" mask="url(#path-4-inside-4)"/>
<mask id="path-5-inside-5" fill="white">
<path d="M9 28C9 27.4477 9.44772 27 10 27H22C22.5523 27 23 27.4477 23 28V38C23 38.5523 22.5523 39 22 39H10C9.44772 39 9 38.5523 9 38V28Z"/>
</mask>
<path d="M9 28C9 27.4477 9.44772 27 10 27H22C22.5523 27 23 27.4477 23 28V38C23 38.5523 22.5523 39 22 39H10C9.44772 39 9 38.5523 9 38V28Z" stroke="#006A51" stroke-width="6" mask="url(#path-5-inside-5)"/>
<mask id="path-6-inside-6" fill="white">
<path d="M26 28C26 27.4477 26.4477 27 27 27H39C39.5523 27 40 27.4477 40 28V38C40 38.5523 39.5523 39 39 39H27C26.4477 39 26 38.5523 26 38V28Z"/>
</mask>
<path d="M26 28C26 27.4477 26.4477 27 27 27H39C39.5523 27 40 27.4477 40 28V38C40 38.5523 39.5523 39 39 39H27C26.4477 39 26 38.5523 26 38V28Z" stroke="#006A51" stroke-width="6" mask="url(#path-6-inside-6)"/>
<mask id="path-7-inside-7" fill="white">
<path d="M43 28C43 27.4477 43.4477 27 44 27H56C56.5523 27 57 27.4477 57 28V38C57 38.5523 56.5523 39 56 39H44C43.4477 39 43 38.5523 43 38V28Z"/>
</mask>
<path d="M43 28C43 27.4477 43.4477 27 44 27H56C56.5523 27 57 27.4477 57 28V38C57 38.5523 56.5523 39 56 39H44C43.4477 39 43 38.5523 43 38V28Z" stroke="#006A51" stroke-width="6" mask="url(#path-7-inside-7)"/>
<mask id="path-8-outside-8" maskUnits="userSpaceOnUse" x="-0.25" y="0" width="66" height="61" fill="black">
<rect fill="white" x="-0.25" width="66" height="61"/>
<path d="M6.3125 7.375H11.625V5.25C11.625 4.12283 12.0728 3.04183 12.8698 2.2448C13.6668 1.44777 14.7478 1 15.875 1C17.0022 1 18.0832 1.44777 18.8802 2.2448C19.6772 3.04183 20.125 4.12283 20.125 5.25V7.375H28.625V5.25C28.625 4.12283 29.0728 3.04183 29.8698 2.2448C30.6668 1.44777 31.7478 1 32.875 1C34.0022 1 35.0832 1.44777 35.8802 2.2448C36.6772 3.04183 37.125 4.12283 37.125 5.25V7.375H45.625V5.25C45.625 4.12283 46.0728 3.04183 46.8698 2.2448C47.6668 1.44777 48.7478 1 49.875 1C51.0022 1 52.0832 1.44777 52.8802 2.2448C53.6772 3.04183 54.125 4.12283 54.125 5.25V7.375H59.4375C60.8465 7.375 62.1977 7.93471 63.194 8.93099C64.1903 9.92728 64.75 11.2785 64.75 12.6875V55.1875C64.75 56.5965 64.1903 57.9477 63.194 58.944C62.1977 59.9403 60.8465 60.5 59.4375 60.5H7.6875C7.40571 60.5 7.13546 60.3881 6.9362 60.1888C6.73694 59.9895 6.625 59.7193 6.625 59.4375C6.625 59.1557 6.73694 58.8855 6.9362 58.6862C7.13546 58.4869 7.40571 58.375 7.6875 58.375H59.4375C60.2821 58.3725 61.0914 58.0358 61.6886 57.4386C62.2858 56.8414 62.6225 56.0321 62.625 55.1875V22.25H3.125V54.3125C3.125 54.5943 3.01306 54.8645 2.8138 55.0638C2.61454 55.2631 2.34429 55.375 2.0625 55.375C1.78071 55.375 1.51046 55.2631 1.3112 55.0638C1.11194 54.8645 1 54.5943 1 54.3125V12.6875C1 11.2785 1.55971 9.92728 2.556 8.93099C3.55228 7.93471 4.90354 7.375 6.3125 7.375ZM18 5.25C18 4.68641 17.7761 4.14591 17.3776 3.7474C16.9791 3.34888 16.4386 3.125 15.875 3.125C15.3114 3.125 14.7709 3.34888 14.3724 3.7474C13.9739 4.14591 13.75 4.68641 13.75 5.25V11.625C13.75 12.1886 13.9739 12.7291 14.3724 13.1276C14.7709 13.5261 15.3114 13.75 15.875 13.75C16.4386 13.75 16.9791 13.5261 17.3776 13.1276C17.7761 12.7291 18 12.1886 18 11.625V5.25ZM35 5.25C35 4.68641 34.7761 4.14591 34.3776 3.7474C33.9791 3.34888 33.4386 3.125 32.875 3.125C32.3114 3.125 31.7709 3.34888 31.3724 3.7474C30.9739 4.14591 30.75 4.68641 30.75 5.25V11.625C30.75 12.1886 30.9739 12.7291 31.3724 13.1276C31.7709 13.5261 32.3114 13.75 32.875 13.75C33.4386 13.75 33.9791 13.5261 34.3776 13.1276C34.7761 12.7291 35 12.1886 35 11.625V5.25ZM52 5.25C52 4.68641 51.7761 4.14591 51.3776 3.7474C50.9791 3.34888 50.4386 3.125 49.875 3.125C49.3114 3.125 48.7709 3.34888 48.3724 3.7474C47.9739 4.14591 47.75 4.68641 47.75 5.25V11.625C47.75 12.1886 47.9739 12.7291 48.3724 13.1276C48.7709 13.5261 49.3114 13.75 49.875 13.75C50.4386 13.75 50.9791 13.5261 51.3776 13.1276C51.7761 12.7291 52 12.1886 52 11.625V5.25ZM3.125 20.125H62.625V12.6875C62.6225 11.8429 62.2858 11.0336 61.6886 10.4364C61.0914 9.83916 60.2821 9.50252 59.4375 9.5H54.125V11.625C54.125 12.7522 53.6772 13.8332 52.8802 14.6302C52.0832 15.4272 51.0022 15.875 49.875 15.875C48.7478 15.875 47.6668 15.4272 46.8698 14.6302C46.0728 13.8332 45.625 12.7522 45.625 11.625V9.5H37.125V11.625C37.125 12.7522 36.6772 13.8332 35.8802 14.6302C35.0832 15.4272 34.0022 15.875 32.875 15.875C31.7478 15.875 30.6668 15.4272 29.8698 14.6302C29.0728 13.8332 28.625 12.7522 28.625 11.625V9.5H20.125V11.625C20.125 12.7522 19.6772 13.8332 18.8802 14.6302C18.0832 15.4272 17.0022 15.875 15.875 15.875C14.7478 15.875 13.6668 15.4272 12.8698 14.6302C12.0728 13.8332 11.625 12.7522 11.625 11.625V9.5H6.3125C5.4679 9.50252 4.65861 9.83916 4.06138 10.4364C3.46416 11.0336 3.12752 11.8429 3.125 12.6875V20.125Z"/>
</mask>
<path d="M6.3125 7.375H11.625V5.25C11.625 4.12283 12.0728 3.04183 12.8698 2.2448C13.6668 1.44777 14.7478 1 15.875 1C17.0022 1 18.0832 1.44777 18.8802 2.2448C19.6772 3.04183 20.125 4.12283 20.125 5.25V7.375H28.625V5.25C28.625 4.12283 29.0728 3.04183 29.8698 2.2448C30.6668 1.44777 31.7478 1 32.875 1C34.0022 1 35.0832 1.44777 35.8802 2.2448C36.6772 3.04183 37.125 4.12283 37.125 5.25V7.375H45.625V5.25C45.625 4.12283 46.0728 3.04183 46.8698 2.2448C47.6668 1.44777 48.7478 1 49.875 1C51.0022 1 52.0832 1.44777 52.8802 2.2448C53.6772 3.04183 54.125 4.12283 54.125 5.25V7.375H59.4375C60.8465 7.375 62.1977 7.93471 63.194 8.93099C64.1903 9.92728 64.75 11.2785 64.75 12.6875V55.1875C64.75 56.5965 64.1903 57.9477 63.194 58.944C62.1977 59.9403 60.8465 60.5 59.4375 60.5H7.6875C7.40571 60.5 7.13546 60.3881 6.9362 60.1888C6.73694 59.9895 6.625 59.7193 6.625 59.4375C6.625 59.1557 6.73694 58.8855 6.9362 58.6862C7.13546 58.4869 7.40571 58.375 7.6875 58.375H59.4375C60.2821 58.3725 61.0914 58.0358 61.6886 57.4386C62.2858 56.8414 62.6225 56.0321 62.625 55.1875V22.25H3.125V54.3125C3.125 54.5943 3.01306 54.8645 2.8138 55.0638C2.61454 55.2631 2.34429 55.375 2.0625 55.375C1.78071 55.375 1.51046 55.2631 1.3112 55.0638C1.11194 54.8645 1 54.5943 1 54.3125V12.6875C1 11.2785 1.55971 9.92728 2.556 8.93099C3.55228 7.93471 4.90354 7.375 6.3125 7.375ZM18 5.25C18 4.68641 17.7761 4.14591 17.3776 3.7474C16.9791 3.34888 16.4386 3.125 15.875 3.125C15.3114 3.125 14.7709 3.34888 14.3724 3.7474C13.9739 4.14591 13.75 4.68641 13.75 5.25V11.625C13.75 12.1886 13.9739 12.7291 14.3724 13.1276C14.7709 13.5261 15.3114 13.75 15.875 13.75C16.4386 13.75 16.9791 13.5261 17.3776 13.1276C17.7761 12.7291 18 12.1886 18 11.625V5.25ZM35 5.25C35 4.68641 34.7761 4.14591 34.3776 3.7474C33.9791 3.34888 33.4386 3.125 32.875 3.125C32.3114 3.125 31.7709 3.34888 31.3724 3.7474C30.9739 4.14591 30.75 4.68641 30.75 5.25V11.625C30.75 12.1886 30.9739 12.7291 31.3724 13.1276C31.7709 13.5261 32.3114 13.75 32.875 13.75C33.4386 13.75 33.9791 13.5261 34.3776 13.1276C34.7761 12.7291 35 12.1886 35 11.625V5.25ZM52 5.25C52 4.68641 51.7761 4.14591 51.3776 3.7474C50.9791 3.34888 50.4386 3.125 49.875 3.125C49.3114 3.125 48.7709 3.34888 48.3724 3.7474C47.9739 4.14591 47.75 4.68641 47.75 5.25V11.625C47.75 12.1886 47.9739 12.7291 48.3724 13.1276C48.7709 13.5261 49.3114 13.75 49.875 13.75C50.4386 13.75 50.9791 13.5261 51.3776 13.1276C51.7761 12.7291 52 12.1886 52 11.625V5.25ZM3.125 20.125H62.625V12.6875C62.6225 11.8429 62.2858 11.0336 61.6886 10.4364C61.0914 9.83916 60.2821 9.50252 59.4375 9.5H54.125V11.625C54.125 12.7522 53.6772 13.8332 52.8802 14.6302C52.0832 15.4272 51.0022 15.875 49.875 15.875C48.7478 15.875 47.6668 15.4272 46.8698 14.6302C46.0728 13.8332 45.625 12.7522 45.625 11.625V9.5H37.125V11.625C37.125 12.7522 36.6772 13.8332 35.8802 14.6302C35.0832 15.4272 34.0022 15.875 32.875 15.875C31.7478 15.875 30.6668 15.4272 29.8698 14.6302C29.0728 13.8332 28.625 12.7522 28.625 11.625V9.5H20.125V11.625C20.125 12.7522 19.6772 13.8332 18.8802 14.6302C18.0832 15.4272 17.0022 15.875 15.875 15.875C14.7478 15.875 13.6668 15.4272 12.8698 14.6302C12.0728 13.8332 11.625 12.7522 11.625 11.625V9.5H6.3125C5.4679 9.50252 4.65861 9.83916 4.06138 10.4364C3.46416 11.0336 3.12752 11.8429 3.125 12.6875V20.125Z" fill="#006A51"/>
<path d="M6.3125 7.375H11.625V5.25C11.625 4.12283 12.0728 3.04183 12.8698 2.2448C13.6668 1.44777 14.7478 1 15.875 1C17.0022 1 18.0832 1.44777 18.8802 2.2448C19.6772 3.04183 20.125 4.12283 20.125 5.25V7.375H28.625V5.25C28.625 4.12283 29.0728 3.04183 29.8698 2.2448C30.6668 1.44777 31.7478 1 32.875 1C34.0022 1 35.0832 1.44777 35.8802 2.2448C36.6772 3.04183 37.125 4.12283 37.125 5.25V7.375H45.625V5.25C45.625 4.12283 46.0728 3.04183 46.8698 2.2448C47.6668 1.44777 48.7478 1 49.875 1C51.0022 1 52.0832 1.44777 52.8802 2.2448C53.6772 3.04183 54.125 4.12283 54.125 5.25V7.375H59.4375C60.8465 7.375 62.1977 7.93471 63.194 8.93099C64.1903 9.92728 64.75 11.2785 64.75 12.6875V55.1875C64.75 56.5965 64.1903 57.9477 63.194 58.944C62.1977 59.9403 60.8465 60.5 59.4375 60.5H7.6875C7.40571 60.5 7.13546 60.3881 6.9362 60.1888C6.73694 59.9895 6.625 59.7193 6.625 59.4375C6.625 59.1557 6.73694 58.8855 6.9362 58.6862C7.13546 58.4869 7.40571 58.375 7.6875 58.375H59.4375C60.2821 58.3725 61.0914 58.0358 61.6886 57.4386C62.2858 56.8414 62.6225 56.0321 62.625 55.1875V22.25H3.125V54.3125C3.125 54.5943 3.01306 54.8645 2.8138 55.0638C2.61454 55.2631 2.34429 55.375 2.0625 55.375C1.78071 55.375 1.51046 55.2631 1.3112 55.0638C1.11194 54.8645 1 54.5943 1 54.3125V12.6875C1 11.2785 1.55971 9.92728 2.556 8.93099C3.55228 7.93471 4.90354 7.375 6.3125 7.375ZM18 5.25C18 4.68641 17.7761 4.14591 17.3776 3.7474C16.9791 3.34888 16.4386 3.125 15.875 3.125C15.3114 3.125 14.7709 3.34888 14.3724 3.7474C13.9739 4.14591 13.75 4.68641 13.75 5.25V11.625C13.75 12.1886 13.9739 12.7291 14.3724 13.1276C14.7709 13.5261 15.3114 13.75 15.875 13.75C16.4386 13.75 16.9791 13.5261 17.3776 13.1276C17.7761 12.7291 18 12.1886 18 11.625V5.25ZM35 5.25C35 4.68641 34.7761 4.14591 34.3776 3.7474C33.9791 3.34888 33.4386 3.125 32.875 3.125C32.3114 3.125 31.7709 3.34888 31.3724 3.7474C30.9739 4.14591 30.75 4.68641 30.75 5.25V11.625C30.75 12.1886 30.9739 12.7291 31.3724 13.1276C31.7709 13.5261 32.3114 13.75 32.875 13.75C33.4386 13.75 33.9791 13.5261 34.3776 13.1276C34.7761 12.7291 35 12.1886 35 11.625V5.25ZM52 5.25C52 4.68641 51.7761 4.14591 51.3776 3.7474C50.9791 3.34888 50.4386 3.125 49.875 3.125C49.3114 3.125 48.7709 3.34888 48.3724 3.7474C47.9739 4.14591 47.75 4.68641 47.75 5.25V11.625C47.75 12.1886 47.9739 12.7291 48.3724 13.1276C48.7709 13.5261 49.3114 13.75 49.875 13.75C50.4386 13.75 50.9791 13.5261 51.3776 13.1276C51.7761 12.7291 52 12.1886 52 11.625V5.25ZM3.125 20.125H62.625V12.6875C62.6225 11.8429 62.2858 11.0336 61.6886 10.4364C61.0914 9.83916 60.2821 9.50252 59.4375 9.5H54.125V11.625C54.125 12.7522 53.6772 13.8332 52.8802 14.6302C52.0832 15.4272 51.0022 15.875 49.875 15.875C48.7478 15.875 47.6668 15.4272 46.8698 14.6302C46.0728 13.8332 45.625 12.7522 45.625 11.625V9.5H37.125V11.625C37.125 12.7522 36.6772 13.8332 35.8802 14.6302C35.0832 15.4272 34.0022 15.875 32.875 15.875C31.7478 15.875 30.6668 15.4272 29.8698 14.6302C29.0728 13.8332 28.625 12.7522 28.625 11.625V9.5H20.125V11.625C20.125 12.7522 19.6772 13.8332 18.8802 14.6302C18.0832 15.4272 17.0022 15.875 15.875 15.875C14.7478 15.875 13.6668 15.4272 12.8698 14.6302C12.0728 13.8332 11.625 12.7522 11.625 11.625V9.5H6.3125C5.4679 9.50252 4.65861 9.83916 4.06138 10.4364C3.46416 11.0336 3.12752 11.8429 3.125 12.6875V20.125Z" stroke="#006A51" stroke-width="0.8" mask="url(#path-8-outside-8)"/>
</svg>
