<svg width="112" height="114" viewBox="0 0 112 114" xmlns="http://www.w3.org/2000/svg">
<path d="M40.2717 62.8933C40.2717 61.4653 39.1133 60.3083 37.6841 60.3083H28.6545C27.2269 60.3083 26.0684 61.4653 26.0684 62.8933V71.9218C26.0684 73.3517 27.2269 74.5091 28.6545 74.5091H37.6841C39.1133 74.5091 40.2717 73.3517 40.2717 71.9218V62.8933Z" fill="white"/>
<path d="M62.8367 62.8933C62.8367 61.4653 61.6781 60.3083 60.2517 60.3083H51.2209C49.7933 60.3083 48.6348 61.4653 48.6348 62.8933V71.9218C48.6348 73.3517 49.7933 74.5091 51.2209 74.5091H60.2517C61.6781 74.5091 62.8367 73.3517 62.8367 71.9218V62.8933Z" fill="white"/>
<path d="M85.4045 62.8933C85.4045 61.4653 84.2459 60.3083 82.8183 60.3083H73.7887C72.3595 60.3083 71.2012 61.4653 71.2012 62.8933V71.9218C71.2012 73.3517 72.3595 74.5091 73.7887 74.5091H82.8183C84.2459 74.5091 85.4045 73.3517 85.4045 71.9218V62.8933Z" fill="white"/>
<path d="M40.2717 85.4616C40.2717 84.0312 39.1133 82.8752 37.6841 82.8752H28.6545C27.2269 82.8752 26.0684 84.0312 26.0684 85.4616V94.4884C26.0684 95.9174 27.2269 97.0746 28.6545 97.0746H37.6841C39.1133 97.0746 40.2717 95.9172 40.2717 94.4884V85.4616Z" fill="white"/>
<path d="M62.8367 85.4616C62.8367 84.0312 61.6781 82.8752 60.2517 82.8752H51.2209C49.7933 82.8752 48.6348 84.0312 48.6348 85.4616V94.4884C48.6348 95.9174 49.7933 97.0746 51.2209 97.0746H60.2517C61.6781 97.0746 62.8367 95.9172 62.8367 94.4884V85.4616Z" fill="white"/>
<path d="M85.4045 85.4616C85.4045 84.0312 84.2459 82.8752 82.8195 82.8752H73.7887C72.3595 82.8752 71.2012 84.0312 71.2012 85.4616V94.4884C71.2012 95.9174 72.3595 97.0746 73.7887 97.0746H82.8195C84.2459 97.0746 85.4045 95.9172 85.4045 94.4884V85.4616Z" fill="white"/>
<path d="M101.551 12.6936V26.4837C101.551 32.7167 96.4941 37.7396 90.262 37.7396H83.1409C76.9083 37.7396 71.7848 32.7167 71.7848 26.4837V12.644H39.6879V26.4837C39.6879 32.7167 34.5646 37.7396 28.333 37.7396H21.2105C14.9786 37.7396 9.92239 32.7167 9.92239 26.4837V12.6936C4.47568 12.8577 0 17.3647 0 22.9044V103.721C0 109.365 4.57446 114 10.2183 114H101.254C106.89 114 111.473 109.356 111.473 103.721V22.9044C111.473 17.3647 106.997 12.8577 101.551 12.6936ZM98.243 98.6887C98.243 101.128 96.2655 103.106 93.8255 103.106H17.4527C15.0127 103.106 13.0352 101.128 13.0352 98.6887V56.9438C13.0352 54.5038 15.0125 52.5251 17.4527 52.5251H93.8253C96.2652 52.5251 98.2428 54.5038 98.2428 56.9438L98.243 98.6887Z" fill="white"/>
<path d="M21.186 30.3466H28.2298C30.3678 30.3466 32.1013 28.6156 32.1013 26.4776V3.87036C32.1013 1.73212 30.3678 0 28.2298 0H21.186C19.0477 0 17.3145 1.73212 17.3145 3.87036V26.4776C17.3145 28.6156 19.0477 30.3466 21.186 30.3466Z" fill="white"/>
<path d="M83.051 30.3466H90.0948C92.2314 30.3466 93.9649 28.6156 93.9649 26.4776V3.87036C93.9652 1.73212 92.2316 0 90.0948 0H83.051C80.9132 0 79.1797 1.73212 79.1797 3.87036V26.4776C79.1797 28.6156 80.9132 30.3466 83.051 30.3466Z" fill="white"/>
</svg>
