<svg width="38" height="30" viewBox="0 0 38 30" fill="none" xmlns="http://www.w3.org/2000/svg">
<path d="M25.0587 17.5293C25.0587 20.7463 22.3805 23.3633 19.0882 23.3633C15.796 23.3633 13.1188 20.7463 13.1188 17.5293C13.1188 14.3123 15.796 11.6953 19.0882 11.6953C22.3805 11.6953 25.0587 14.3133 25.0587 17.5293ZM37.5983 9.24533V25.8153C37.5983 28.0243 35.7654 29.8153 33.5047 29.8153H4.67169C2.41102 29.8153 0.578125 28.0243 0.578125 25.8153V9.24533C0.578125 7.03633 2.41102 5.24533 4.67169 5.24533H9.70678V3.86133C9.70678 1.92833 11.3094 0.361328 13.2887 0.361328H24.8878C26.867 0.361328 28.4696 1.92833 28.4696 3.86133V5.24433H33.5047C35.7654 5.24533 37.5983 7.03633 37.5983 9.24533ZM28.1289 17.5293C28.1289 12.6583 24.0732 8.69533 19.0882 8.69533C14.1043 8.69533 10.0486 12.6583 10.0486 17.5293C10.0486 22.4003 14.1043 26.3633 19.0882 26.3633C24.0732 26.3633 28.1289 22.4003 28.1289 17.5293Z" fill="#A1A1A1"/>
</svg>
