<svg width="82" height="62" viewBox="0 0 82 62" fill="none" xmlns="http://www.w3.org/2000/svg">
<path d="M59.7503 10.3541L58.1707 1.66812C58.057 1.03925 57.5095 0.582031 56.87 0.582031H25.128C24.4885 0.582031 23.941 1.03925 23.8273 1.66851L22.2621 10.2768C22.1305 10.9946 22.6069 11.6838 23.3265 11.8143C24.0483 11.9434 24.734 11.4681 24.8634 10.7494L26.2325 3.22713H55.7657L57.1488 10.8271C57.2639 11.4656 57.8207 11.9132 58.4482 11.9132C58.5272 11.9132 58.6059 11.9058 58.6859 11.8916C59.4054 11.7613 59.882 11.0723 59.7503 10.3541Z" fill="#006A51"/>
<path d="M75.3779 9.83789H6.62176C2.97058 9.83789 0 12.8015 0 16.4438V54.8125C0 58.455 2.97058 61.4186 6.62176 61.4186H75.3782C79.0296 61.4186 82 58.455 82 54.8129V16.4438C82 12.8015 79.0296 9.83789 75.3779 9.83789ZM79.3545 54.8125C79.3545 56.9967 77.571 58.7733 75.3779 58.7733H6.62176C4.42884 58.7733 2.6451 56.9967 2.6451 54.8129V16.4438C2.6451 14.2596 4.42884 12.483 6.62176 12.483H75.3782C77.5712 12.483 79.3549 14.2596 79.3545 16.4438V54.8125Z" fill="#006A51"/>
<path d="M40.9993 15C29.8113 15 20.709 24.1024 20.709 35.2903C20.709 46.4782 29.8113 55.5806 40.9993 55.5806C52.1872 55.5806 61.2895 46.4782 61.2895 35.2903C61.2895 24.1024 52.187 15 40.9993 15ZM40.9993 53.0442C31.2096 53.0442 23.2454 45.08 23.2454 35.2903C23.2454 25.5006 31.2096 17.5364 40.9993 17.5364C50.7889 17.5364 58.7531 25.5006 58.7531 35.2903C58.7531 45.0798 50.7889 53.0442 40.9993 53.0442Z" fill="#006A51"/>
<path d="M40.9999 20.0723C32.6083 20.0723 25.7822 26.899 25.7822 35.2899C25.7822 43.6808 32.6083 50.5076 40.9999 50.5076C49.3915 50.5076 56.2176 43.6808 56.2176 35.2899C56.2176 26.899 49.3913 20.0723 40.9999 20.0723ZM40.9999 47.9714C34.0076 47.9714 28.3184 42.2828 28.3184 35.2899C28.3184 28.2971 34.0076 22.6085 40.9999 22.6085C47.9922 22.6085 53.6813 28.2971 53.6813 35.2899C53.6812 42.2828 47.992 47.9714 40.9999 47.9714Z" fill="#006A51"/>
<path d="M18.5161 4.54688H9.25819C8.52722 4.54688 7.93555 5.13913 7.93555 5.86952V11.1599C7.93555 11.8903 8.52703 12.4826 9.25819 12.4826H18.5163C19.2473 12.4826 19.839 11.8903 19.839 11.1599V5.86952C19.8388 5.13913 19.2473 4.54688 18.5161 4.54688ZM17.1937 9.83727H10.5806V7.19217H17.1935V9.83727H17.1937Z" fill="#006A51"/>
<circle cx="71.5" cy="20.5" r="3.5" stroke="#006A51" stroke-width="2"/>
</svg>
