<svg width="37" height="37" viewBox="0 0 37 37" fill="none" xmlns="http://www.w3.org/2000/svg">
<g clip-path="url(#clip0)">
<path d="M23.921 20.5274C23.921 23.7444 21.304 26.3614 18.087 26.3614C14.87 26.3614 12.254 23.7444 12.254 20.5274C12.254 17.3104 14.87 14.6934 18.087 14.6934C21.304 14.6934 23.921 17.3114 23.921 20.5274ZM36.174 12.2434V28.8134C36.174 31.0224 34.383 32.8134 32.174 32.8134H4C1.791 32.8134 0 31.0224 0 28.8134V12.2434C0 10.0344 1.791 8.24338 4 8.24338H8.92V6.85938C8.92 4.92638 10.486 3.35938 12.42 3.35938H23.754C25.688 3.35938 27.254 4.92638 27.254 6.85938V8.24238H32.174C34.383 8.24338 36.174 10.0344 36.174 12.2434ZM26.921 20.5274C26.921 15.6564 22.958 11.6934 18.087 11.6934C13.217 11.6934 9.254 15.6564 9.254 20.5274C9.254 25.3984 13.217 29.3614 18.087 29.3614C22.958 29.3614 26.921 25.3984 26.921 20.5274Z" fill="#00B288"/>
</g>
<defs>
<clipPath id="clip0">
<rect width="36.174" height="36.174" fill="white"/>
</clipPath>
</defs>
</svg>
