<svg width="29" height="17" viewBox="0 0 29 17" fill="none" xmlns="http://www.w3.org/2000/svg">
<path d="M16.1409 0L3.12203 0C1.40492 0 0 1.40492 0 3.12203L0 13.6433C0 15.3604 1.40492 16.7653 3.12203 16.7653L16.1409 16.7653C17.858 16.7653 19.263 15.3604 19.263 13.6433V3.12203C19.263 1.3737 17.858 0 16.1409 0Z" fill="#56595B"/>
<path d="M26.2249 1.71996C26.0375 1.75119 25.8502 1.84485 25.6941 1.93851L20.8237 4.74834V11.9915L25.7253 14.8013C26.6307 15.332 27.7546 15.0198 28.2854 14.1144C28.4415 13.8335 28.5352 13.5213 28.5352 13.1778V3.53074C28.5352 2.37559 27.4424 1.43898 26.2249 1.71996Z" fill="#56595B"/>
</svg>
