<svg width="25" height="24" viewBox="0 0 25 24" fill="none" xmlns="http://www.w3.org/2000/svg">
<path d="M19.3253 2.16143C18.7779 1.64629 18.0775 1.39893 17.3715 1.39893C16.5768 1.39893 15.7743 1.71225 15.1759 2.31142L14.9191 2.5682L14.6623 2.31063C14.0639 1.71225 13.2614 1.39893 12.4667 1.39893C11.7607 1.39893 11.0602 1.64629 10.5129 2.16143C9.30908 3.29458 9.28788 5.19024 10.4485 6.35088L14.9191 10.8215L19.3897 6.35088C20.5503 5.19024 20.5291 3.29458 19.3253 2.16143Z" stroke="#56595B" stroke-width="1.5"/>
<path d="M23.7129 13.0978C23.0258 12.6321 22.2162 12.764 21.4992 13.1779C20.7823 13.5917 16.6658 17.1113 16.6658 17.1113L12.6138 17.1121C12.4253 17.1121 12.2212 16.9001 12.2212 16.7124C12.2212 16.4917 12.4136 16.3197 12.6138 16.3197H15.0929C15.9607 16.3197 16.932 15.7543 16.932 14.7492C16.932 13.6812 15.9607 13.1786 15.0929 13.1786C13.5875 13.1786 13.2946 13.1849 13.2946 13.1849C12.6915 13.1849 12.0798 13.1488 11.6086 12.8967C10.9804 12.5748 10.2564 12.3926 9.48369 12.3926C8.18641 12.3926 7.02499 12.9101 6.22872 13.726L2 17.8895L6.71166 22.6012L8.28222 21.0306H16.2347C17.0263 21.0306 17.7903 20.7401 18.3817 20.2147L23.7663 14.1744C24.0953 13.8822 24.0765 13.3451 23.7129 13.0978Z" stroke="#56595B" stroke-width="1.5"/>
</svg>
