<svg width="59" height="60" viewBox="0 0 59 60" fill="none" xmlns="http://www.w3.org/2000/svg">
<path d="M33.428 3.58838L25.1597 3.58838C24.7062 3.58838 24.334 4.03147 24.334 4.5795C24.334 5.12753 24.7062 5.57062 25.1597 5.57062L33.428 5.57062C33.8816 5.57062 34.2537 5.12753 34.2537 4.5795C34.2537 4.03147 33.8816 3.58838 33.428 3.58838Z" fill="#84DFC3"/>
<path d="M30.5215 50.9048H28.0562C26.5444 50.9048 25.3233 52.1414 25.3233 53.6463V54.1246C25.3233 55.6411 26.556 56.866 28.0562 56.866H30.5215C32.0333 56.866 33.2544 55.6294 33.2544 54.1246V53.6463C33.2544 52.1414 32.0333 50.9048 30.5215 50.9048ZM31.2774 54.1362C31.2774 54.5562 30.9402 54.8945 30.5215 54.8945H28.0562C27.6375 54.8945 27.3003 54.5562 27.3003 54.1362V53.6579C27.3003 53.238 27.6375 52.8996 28.0562 52.8996H30.5215C30.9402 52.8996 31.2774 53.238 31.2774 53.6579V54.1362Z" fill="#84DFC3"/>
<path d="M42.569 0.135254L16.008 0.135254C14.0311 0.135254 12.4263 1.74512 12.4263 3.7283L12.4263 56.2591C12.4263 58.2422 14.0311 59.8521 16.008 59.8521L42.569 59.8521C44.546 59.8521 46.1508 58.2422 46.1508 56.2591L46.1508 3.73996C46.1625 1.75679 44.546 0.135254 42.569 0.135254ZM44.1739 56.2707C44.1739 57.1573 43.4529 57.8806 42.569 57.8806L16.008 57.8806C15.1242 57.8806 14.4032 57.1573 14.4032 56.2707L14.4032 3.73996C14.4032 2.85337 15.1242 2.13009 16.008 2.13009L42.569 2.13009C43.4529 2.13009 44.1739 2.85337 44.1739 3.73996L44.1739 56.2707Z" fill="#84DFC3"/>
<path d="M45.1623 7.06494L13.4147 7.06494C12.8682 7.06494 12.4263 7.49657 12.4263 8.0332L12.4263 48.9333C12.4263 49.4699 12.9533 49.9016 13.4999 49.9016L45.2726 49.9016C45.8191 49.9016 46.1625 49.4699 46.1625 48.9333L46.1625 8.04486C46.1625 7.50824 45.7205 7.06494 45.1623 7.06494ZM44.1739 47.965L14.4032 47.965L14.4032 9.01312L44.1739 9.01312V47.965Z" fill="#84DFC3"/>
<path d="M8.58859 44.2083C8.356 44.2083 8.13505 44.1383 7.93735 43.9867C3.18103 40.2187 0.448181 34.5608 0.448181 28.4946C0.448181 22.4168 3.18103 16.7706 7.93735 13.0026C8.39089 12.641 9.05375 12.7227 9.40263 13.1776C9.76313 13.6326 9.68173 14.2975 9.22819 14.6475C4.98355 18.0189 2.54143 23.0584 2.54143 28.4946C2.54143 33.9309 4.98355 38.9704 9.22819 42.3418C9.68173 42.7034 9.76313 43.3567 9.40263 43.8117C9.20493 44.0683 8.89094 44.2083 8.58859 44.2083Z" fill="#84DFC3"/>
<path d="M8.77415 37.8621C8.47179 37.8621 8.18106 37.7338 7.97174 37.4888C6.1227 35.2723 5.06445 31.9943 5.06445 28.4829C5.06445 24.9715 6.1227 21.6934 7.97174 19.4769C8.34387 19.0336 9.00673 18.9753 9.44864 19.3486C9.89055 19.7219 9.94869 20.3868 9.57656 20.8301C8.04151 22.6733 7.1577 25.4614 7.1577 28.4829C7.1577 31.5043 8.04151 34.2924 9.57656 36.1356C9.94869 36.5789 9.89055 37.2438 9.44864 37.6171C9.25094 37.7921 9.00673 37.8621 8.77415 37.8621Z" fill="#84DFC3"/>
<path d="M50.0238 44.8036C49.6982 44.8036 49.3726 44.652 49.1749 44.3603C48.8376 43.8937 48.9423 43.2288 49.4191 42.8905C53.5125 39.9507 55.9547 34.7827 55.9547 29.0781C55.9547 23.3619 53.5125 18.2056 49.4191 15.2658C48.9539 14.9275 48.8376 14.2742 49.1749 13.7959C49.5121 13.3292 50.1634 13.2126 50.6401 13.5509C55.2802 16.8873 58.0479 22.6852 58.0479 29.0781C58.0479 35.471 55.2802 41.2689 50.6401 44.6053C50.4541 44.7453 50.2331 44.8036 50.0238 44.8036Z" fill="#84DFC3"/>
<path d="M49.8372 38.4686C49.6046 38.4686 49.3604 38.3869 49.1627 38.2236C48.7208 37.8503 48.6626 37.1853 49.0348 36.742C50.5698 34.8989 51.4536 32.1107 51.4536 29.0893C51.4536 26.0679 50.5698 23.2798 49.0348 21.4366C48.6626 20.9933 48.7208 20.3283 49.1627 19.955C49.6046 19.5817 50.2675 19.6401 50.6396 20.0834C52.4886 22.2999 53.5469 25.5779 53.5469 29.0893C53.5469 32.6007 52.4886 35.8788 50.6396 38.0953C50.4303 38.3402 50.1395 38.4686 49.8372 38.4686Z" fill="#84DFC3"/>
<path d="M32.8121 39.0174H25.4509C24.8694 39.0174 24.4043 38.5508 24.4043 37.9675L24.4043 32.9862H19.6014C19.02 32.9862 18.5548 32.5196 18.5548 31.9363L18.5548 24.5518C18.5548 23.9685 19.02 23.5019 19.6014 23.5019H24.4043V18.5206C24.4043 17.9373 24.8694 17.4707 25.4509 17.4707H32.8121C33.3936 17.4707 33.8588 17.9373 33.8588 18.5206V23.5019L38.9988 23.5019C39.5803 23.5019 40.0455 23.9685 40.0455 24.5518V31.9363C40.0455 32.5196 39.5803 32.9862 38.9988 32.9862H33.8588V37.9675C33.8588 38.5508 33.3936 39.0174 32.8121 39.0174ZM26.5091 36.9176H31.7771V31.9363C31.7771 31.353 32.2423 30.8863 32.8238 30.8863H37.9639V25.6018H32.8238C32.2423 25.6018 31.7771 25.1351 31.7771 24.5518V19.5705H26.5091V24.5518C26.5091 25.1351 26.044 25.6018 25.4625 25.6018H20.6597V30.8863H25.4625C26.044 30.8863 26.5091 31.353 26.5091 31.9363L26.5091 36.9176Z" fill="#84DFC3"/>
</svg>
