<svg width="16" height="16" viewBox="0 0 16 16" fill="none" xmlns="http://www.w3.org/2000/svg">
<g clip-path="url(#clip0_1612_25446)">
<path d="M12.5998 0.844556C12.2018 0.469908 11.6923 0.290009 11.1789 0.290009C10.6009 0.290009 10.0173 0.517881 9.58207 0.953638L9.39532 1.14039L9.20856 0.953067C8.77338 0.517881 8.1897 0.290009 7.61174 0.290009C7.09831 0.290009 6.58888 0.469908 6.19082 0.844556C5.31531 1.66867 5.29989 3.04733 6.14399 3.89143L9.39532 7.14276L12.6466 3.89143C13.4907 3.04733 13.4753 1.66867 12.5998 0.844556Z" fill="white"/>
<path d="M15.7912 8.79841C15.2915 8.45974 14.7027 8.55569 14.1812 8.85666C13.6598 9.15764 10.6661 11.7174 10.6661 11.7174L7.71913 11.7179C7.58206 11.7179 7.43357 11.5637 7.43357 11.4272C7.43357 11.2667 7.5735 11.1417 7.71913 11.1417H9.52212C10.1532 11.1417 10.8597 10.7305 10.8597 9.99945C10.8597 9.22274 10.1532 8.85723 9.52212 8.85723C8.42731 8.85723 8.21428 8.8618 8.21428 8.8618C7.77567 8.8618 7.33077 8.83553 6.98811 8.65221C6.53122 8.41805 6.00465 8.28555 5.44268 8.28555C4.49921 8.28555 3.65454 8.66191 3.07543 9.2553L0 12.2833L3.42666 15.71L4.56888 14.5678H10.3525C10.9282 14.5678 11.4839 14.3565 11.9139 13.9744L15.83 9.5814C16.0693 9.36895 16.0556 8.97831 15.7912 8.79841Z" fill="white"/>
</g>
<defs>
<clipPath id="clip0_1612_25446">
<rect width="16" height="16" fill="white"/>
</clipPath>
</defs>
</svg>
