<svg width="14" height="14" viewBox="0 0 14 14" fill="none" xmlns="http://www.w3.org/2000/svg">
<path d="M10.4548 9.16254C10.0979 8.8057 9.51936 8.8057 9.16251 9.16254C8.80567 9.51938 8.80567 10.0979 9.16251 10.4548L12.4401 13.7324C12.797 14.0892 13.3755 14.0892 13.7324 13.7324C14.0892 13.3755 14.0892 12.797 13.7324 12.4401L10.4548 9.16254Z" fill="white"/>
<path fill-rule="evenodd" clip-rule="evenodd" d="M0 5.71166C0 2.5572 2.55721 0 5.71169 0C8.86617 0 11.4234 2.5572 11.4234 5.71166C11.4234 8.86612 8.86617 11.4233 5.71169 11.4233C2.55721 11.4233 0 8.86612 0 5.71166ZM5.02082 5.84258L5.474 5.07288L6.30173 7.16152C6.43998 7.51034 6.92614 7.56266 7.13973 7.25167L7.94816 6.07472H9.59283C9.85499 6.07472 10.0675 5.86846 10.0675 5.61401C10.0675 5.35957 9.85499 5.15331 9.59283 5.15331H7.69413C7.53542 5.15331 7.3872 5.23031 7.29916 5.35847L6.85856 5.99988L6.0011 3.83617C5.85743 3.47367 5.34445 3.43577 5.14593 3.773L4.33324 5.15331H1.40463C1.14246 5.15331 0.929946 5.35957 0.929946 5.61401C0.929946 5.86846 1.14246 6.07472 1.40463 6.07472H4.60867C4.77901 6.07472 4.93631 5.98612 5.02082 5.84258Z" fill="white"/>
</svg>
