<svg width="25" height="25" viewBox="0 0 25 25" fill="none" xmlns="http://www.w3.org/2000/svg">
<g clip-path="url(#clip0_9399_2972)">
<path d="M19.6875 1.31961C19.0655 0.734218 18.2695 0.453125 17.4673 0.453125C16.5642 0.453125 15.6522 0.809176 14.9722 1.49005L14.6804 1.78185L14.3886 1.48915C13.7087 0.809176 12.7967 0.453125 11.8936 0.453125C11.0914 0.453125 10.2954 0.734218 9.67341 1.31961C8.30542 2.60728 8.28133 4.76144 9.60023 6.08034L14.6804 11.1605L19.7606 6.08034C21.0795 4.76144 21.0554 2.60728 19.6875 1.31961Z" fill="#00B288"/>
<path d="M24.6738 13.7476C23.8929 13.2185 22.9729 13.3684 22.1582 13.8386C21.3435 14.3089 16.6657 18.3085 16.6657 18.3085L12.0611 18.3094C11.847 18.3094 11.615 18.0684 11.615 17.8552C11.615 17.6044 11.8336 17.409 12.0611 17.409H14.8783C15.8644 17.409 16.9682 16.7665 16.9682 15.6243C16.9682 14.4106 15.8644 13.8395 14.8783 13.8395C13.1677 13.8395 12.8348 13.8467 12.8348 13.8467C12.1495 13.8467 11.4543 13.8056 10.9189 13.5192C10.205 13.1533 9.38227 12.9463 8.50419 12.9463C7.03001 12.9463 5.71021 13.5344 4.80536 14.4615L0 19.1928L5.35416 24.547L7.13888 22.7622H16.1758C17.0753 22.7622 17.9436 22.4321 18.6155 21.8351L24.7344 14.9711C25.1083 14.6391 25.0869 14.0287 24.6738 13.7476Z" fill="#00B288"/>
</g>
<defs>
<clipPath id="clip0_9399_2972">
<rect width="25" height="25" fill="white"/>
</clipPath>
</defs>
</svg>
