<svg width="47" height="45" viewBox="0 0 47 45" fill="none" xmlns="http://www.w3.org/2000/svg">
<path d="M27.1104 18.3595L18.4357 9.68486C16.3975 7.64667 16.4351 4.31827 18.5491 2.32832C19.4979 1.43536 20.7166 1 21.9638 1C23.3732 1 24.8007 1.55693 25.864 2.62001C25.8641 2.62013 25.8643 2.62025 25.8644 2.62038L26.4022 3.15982L27.1093 3.86909L27.8175 3.1609L28.3564 2.62202L28.3568 2.62156C29.42 1.55698 30.8475 1 32.2569 1C33.5041 1 34.7229 1.4354 35.6716 2.32836C37.7857 4.31831 37.8232 7.64668 35.785 9.68486L27.1104 18.3595Z" stroke="#00B288" stroke-width="2"/>
<path d="M9.8877 43.0814L1.41973 34.6134L9.57581 26.5831L9.58291 26.5761L9.58988 26.5689C11.0708 25.0515 13.2492 24.0723 15.705 24.0723C17.1655 24.0723 18.526 24.4157 19.7011 25.0165C20.9342 25.6728 22.4502 25.735 23.7025 25.735H23.7132L23.7235 25.7348L23.7236 25.7348L23.7237 25.7348L23.7238 25.7348L23.7239 25.7348L23.7241 25.7348L23.7284 25.7347L23.7507 25.7344L23.8594 25.7329C23.9641 25.7317 24.1378 25.7301 24.4107 25.7284C24.9566 25.7252 25.8979 25.7219 27.4763 25.7219C28.2123 25.7219 28.959 25.9386 29.4953 26.3341C30.0014 26.7075 30.3358 27.2439 30.3358 28.0178C30.3358 28.7119 30.0131 29.2583 29.4838 29.6606C28.9349 30.0778 28.1869 30.3137 27.4763 30.3137H22.2737C21.335 30.3137 20.4497 31.0891 20.4497 32.1376C20.4497 32.674 20.7222 33.1208 20.9976 33.4031C21.2722 33.6845 21.7202 33.9764 22.2737 33.9764H22.2739L30.7773 33.9748L31.1464 33.9747L31.427 33.7348L30.7771 32.9748C31.427 33.7348 31.427 33.7348 31.4271 33.7348L31.4273 33.7345L31.4285 33.7336L31.4331 33.7296L31.4515 33.7139L31.5237 33.6523L31.7996 33.4171C32.0382 33.2139 32.3809 32.9225 32.7968 32.5701C33.6289 31.8652 34.7534 30.9168 35.9244 29.9416C37.0962 28.9658 38.3108 27.9663 39.3241 27.1582C40.3677 26.326 41.1237 25.7574 41.4202 25.5863C42.7489 24.8193 44.0052 24.7032 45.0037 25.3792C45.1003 25.4451 45.1617 25.5529 45.1679 25.6913C45.1743 25.8331 45.1194 25.97 45.014 26.0637L44.9703 26.1024L44.9314 26.146L33.6717 38.7768C32.6198 39.6934 31.27 40.1997 29.8724 40.1997H13.1836H12.7694L12.4765 40.4926L9.8877 43.0814Z" stroke="#00B288" stroke-width="2"/>
</svg>
