<svg width="20" height="20" viewBox="0 0 20 20" fill="none" xmlns="http://www.w3.org/2000/svg">
<rect width="20" height="20" rx="10" fill="#56595B"/>
<path d="M15.1342 4.73185C15.2169 4.64082 15.3156 4.5685 15.4246 4.51913C15.5336 4.46977 15.6506 4.44434 15.7687 4.44434C15.8869 4.44434 16.0039 4.46977 16.1129 4.51913C16.2218 4.5685 16.3206 4.64082 16.4033 4.73185C16.75 5.10966 16.7548 5.72016 16.4154 6.1045L9.248 15.2424C9.16662 15.3388 9.06787 15.4162 8.95779 15.47C8.8477 15.5238 8.72859 15.5528 8.60775 15.5553C8.48691 15.5577 8.36688 15.5336 8.255 15.4843C8.14312 15.435 8.04174 15.3615 7.95707 15.2685L3.59576 10.5022C3.42756 10.3172 3.33334 10.0684 3.33334 9.80933C3.33334 9.55024 3.42756 9.30147 3.59576 9.11647C3.67849 9.02544 3.77722 8.95312 3.88618 8.90376C3.99514 8.85439 4.11214 8.82896 4.23032 8.82896C4.34851 8.82896 4.4655 8.85439 4.57446 8.90376C4.68342 8.95312 4.78216 9.02544 4.86488 9.11647L8.56435 13.1599L15.1099 4.76061C15.1175 4.75051 15.1256 4.7409 15.1342 4.73185Z" fill="#FAFAFA"/>
</svg>
