<svg width="37" height="37" viewBox="0 0 37 37" fill="none" xmlns="http://www.w3.org/2000/svg">
<path d="M18.4999 0C8.29912 0 0 8.29892 0 18.4999C0 28.7009 8.29912 37 18.4999 37C28.7007 37 36.9998 28.7009 36.9998 18.4999C36.9998 8.29892 28.7009 0 18.4999 0ZM29.1229 15.3751L17.5003 26.9977C17.0061 27.4918 16.3492 27.7638 15.6504 27.7638C14.9516 27.7638 14.2947 27.4918 13.8005 26.9977L7.87693 21.0741C7.38274 20.5799 7.11055 19.923 7.11055 19.2242C7.11055 18.5252 7.38274 17.8683 7.87693 17.3741C8.37093 16.8799 9.02785 16.6077 9.72686 16.6077C10.4257 16.6077 11.0828 16.8799 11.5768 17.3743L15.6502 21.4475L25.4226 11.6751C25.9168 11.1809 26.5737 10.9089 27.2726 10.9089C27.9714 10.9089 28.6283 11.1809 29.1225 11.6751C30.1429 12.6955 30.1429 14.3551 29.1229 15.3751Z" fill="#006A51"/>
</svg>
