<svg width="100" height="100" viewBox="0 0 100 100" fill="none" xmlns="http://www.w3.org/2000/svg">
<path d="M21.7351 23.4H2.05355L23.3974 2.05373V21.7375C23.3974 22.6337 22.6328 23.4 21.7351 23.4ZM61.9959 66.625L55.3467 79.925L68.6452 73.275L89.5573 52.3606L82.908 45.7106L61.9959 66.625ZM98.5669 36.7C96.739 34.8719 93.6465 34.9725 91.6855 36.898L87.5962 40.9893L94.2455 47.6394L98.3347 43.548C100.296 41.6225 100.396 38.5281 98.5669 36.7ZM49.3955 76.9669C48.1325 79.5256 48.6309 82.6168 50.66 84.6137C51.923 85.9093 53.6178 86.575 55.3467 86.575C56.345 86.575 57.3759 86.3412 58.306 85.8769L71.6046 79.2269C72.2701 78.8957 72.8351 78.4963 73.3335 77.9637L79.9162 71.3787V91.5625C79.9162 96.1506 76.1922 99.875 71.6046 99.875H8.43658C3.84898 99.875 0.125 96.1506 0.125 91.5625V30.05H21.7351C26.3227 30.05 30.0467 26.3256 30.0467 21.7375V0.124969H71.6046C76.1922 0.124969 79.9162 3.84936 79.9162 8.43747V39.2587L57.2752 61.9362C56.7769 62.4362 56.3775 63.0012 56.0447 63.6669L49.3955 76.9669ZM25.7578 74.2393C24.4607 72.9438 22.3341 72.9438 21.0371 74.2393L16.7482 78.5612L15.7839 77.5644C14.4868 76.2688 12.3602 76.2688 11.0632 77.5644C9.76611 78.8599 9.76611 80.99 11.0632 82.2856L14.3878 85.6106C15.0534 86.2438 15.8845 86.575 16.7482 86.575C17.6118 86.575 18.4429 86.2438 19.1085 85.6106L25.7578 78.9606C27.0548 77.665 27.0548 75.5349 25.7578 74.2393ZM25.7578 57.6143C24.4607 56.3188 22.3341 56.3188 21.0371 57.6143L16.7482 61.9362L15.7839 60.9394C14.4868 59.6438 12.3602 59.6438 11.0632 60.9394C9.76611 62.2349 9.76611 64.365 11.0632 65.6606L14.3878 68.9856C15.0534 69.6188 15.8845 69.95 16.7482 69.95C17.6118 69.95 18.4429 69.6188 19.1085 68.9856L25.7578 62.3356C27.0548 61.04 27.0548 58.9099 25.7578 57.6143ZM25.7578 40.9893C24.4607 39.6938 22.3341 39.6938 21.0371 40.9893L16.7482 45.3112L15.7839 44.3144C14.4868 43.0188 12.3602 43.0188 11.0632 44.3144C9.76611 45.6099 9.76611 47.74 11.0632 49.0356L14.3878 52.3606C15.0534 52.9938 15.8845 53.325 16.7482 53.325C17.6118 53.325 18.4429 52.9938 19.1085 52.3606L25.7578 45.7106C27.0548 44.415 27.0548 42.2849 25.7578 40.9893ZM33.3713 46.675C33.3713 48.5031 34.868 50 36.6959 50H66.6176C68.4455 50 69.9423 48.5031 69.9423 46.675C69.9423 44.8469 68.4455 43.35 66.6176 43.35H36.6959C34.868 43.35 33.3713 44.8469 33.3713 46.675ZM46.6698 79.925C46.6698 78.0969 45.1731 76.6 43.3452 76.6H36.6959C34.868 76.6 33.3713 78.0969 33.3713 79.925C33.3713 81.7531 34.868 83.25 36.6959 83.25H43.3452C45.1731 83.25 46.6698 81.7531 46.6698 79.925ZM49.9945 63.3C49.9945 61.4719 48.4977 59.975 46.6698 59.975H36.6959C34.868 59.975 33.3713 61.4719 33.3713 63.3C33.3713 65.1281 34.868 66.625 36.6959 66.625H46.6698C48.4977 66.625 49.9945 65.1281 49.9945 63.3Z" fill="white"/>
</svg>
