<svg width="22" height="22" viewBox="0 0 22 22" fill="none" xmlns="http://www.w3.org/2000/svg">
<path d="M1 11C1 5.48657 5.48657 1 11 1C16.5134 1 21 5.48657 21 11C21 16.5134 16.5134 21 11 21C5.48657 21 1 16.5134 1 11Z" fill="#56595B" stroke="white" stroke-width="2"/>
<path d="M9.82767 14.3249L9.82763 14.3249L9.8199 14.3324C9.78648 14.3647 9.72568 14.3992 9.62117 14.3992C9.52319 14.3992 9.46097 14.3686 9.41492 14.3252C9.41484 14.3251 9.41476 14.325 9.41467 14.3249L6.55553 11.6156L6.55557 11.6155L6.54704 11.6076C6.52751 11.5895 6.5171 11.5729 6.511 11.5589C6.5048 11.5446 6.5 11.5259 6.5 11.5009C6.5 11.4565 6.5149 11.4167 6.55125 11.3807C6.60536 11.3325 6.67756 11.3029 6.76137 11.3029C6.84642 11.3029 6.91614 11.3331 6.96787 11.382L8.93398 13.2418L9.62117 13.8918L10.3084 13.2418L15.0269 8.77848C15.0811 8.72937 15.154 8.69922 15.2386 8.69922C15.3215 8.69922 15.3929 8.72807 15.4468 8.77531C15.4878 8.81697 15.5 8.85934 15.5 8.89419C15.5 8.93032 15.4871 8.97158 15.4451 9.01126L9.82767 14.3249Z" fill="white" stroke="white" stroke-width="2"/>
</svg>
