<svg width="24" height="24" viewBox="0 0 24 24" fill="none" xmlns="http://www.w3.org/2000/svg">
<rect x="0.5" y="0.5" width="23" height="23" rx="11.5" fill="#EEF5FF"/>
<path d="M12 9C12.8284 9 13.5 9.67157 13.5 10.5V17.5C13.5 18.3284 12.8284 19 12 19C11.1716 19 10.5 18.3284 10.5 17.5V10.5C10.5 9.67157 11.1716 9 12 9Z" fill="#3178CC"/>
<path d="M10.5 6.5C10.5 6.06552 10.6358 5.7069 10.9074 5.42414C11.179 5.14138 11.5432 5 12 5C12.4506 5 12.8117 5.14138 13.0833 5.42414C13.3611 5.7069 13.5 6.06552 13.5 6.5C13.5 6.93448 13.3611 7.2931 13.0833 7.57586C12.8117 7.85862 12.4506 8 12 8C11.5432 8 11.179 7.85862 10.9074 7.57586C10.6358 7.2931 10.5 6.93448 10.5 6.5Z" fill="#3178CC"/>
<rect x="0.5" y="0.5" width="23" height="23" rx="11.5" stroke="#3178CC"/>
</svg>
