<svg width="20" height="21" viewBox="0 0 20 21" fill="none" xmlns="http://www.w3.org/2000/svg">
<path d="M2.07351 0.875H17.9265C18.8645 0.875 19.625 1.63545 19.625 2.57352V18.4265C19.625 19.3645 18.8645 20.125 17.9265 20.125H2.07351C1.13545 20.125 0.375 19.3645 0.375 18.4265V2.57352C0.375 1.63545 1.13545 0.875 2.07351 0.875ZM4.33825 16.4449H9.43383C9.74653 16.4449 10 16.1914 10 15.8787C10 15.566 9.74653 15.3125 9.43383 15.3125H4.33825C4.02555 15.3125 3.77207 15.566 3.77207 15.8787C3.77207 16.1914 4.02555 16.4449 4.33825 16.4449ZM7.0689 10.4011L8.05614 12.968C8.22104 13.3967 8.80088 13.461 9.05568 13.0788L10.0199 11.6323H15.6618C15.9745 11.6323 16.228 11.3789 16.228 11.0662C16.228 10.7535 15.9745 10.5 15.6618 10.5H9.71694C9.52764 10.5 9.35085 10.5947 9.24584 10.7521L8.7203 11.5404L7.69757 8.88132C7.52624 8.43583 6.91437 8.38925 6.67755 8.80368L5.7082 10.5H4.33821C4.02551 10.5 3.77203 10.7535 3.77203 11.0662C3.77203 11.3789 4.02551 11.6324 4.33821 11.6324H6.03673C6.23991 11.6324 6.42752 11.5235 6.52832 11.3471L7.0689 10.4011ZM10.749 5.02248L11.7363 7.58932C11.9012 8.018 12.481 8.0823 12.7358 7.70012L13.7001 6.25369H15.6618C15.9745 6.25369 16.228 6.00021 16.228 5.68751C16.228 5.37481 15.9745 5.12132 15.6618 5.12132H13.3971C13.2078 5.12132 13.031 5.21596 12.926 5.37345L12.4004 6.16173L11.3777 3.50263C11.2064 3.05713 10.5945 3.01055 10.3577 3.42499L9.38834 5.12132H4.33821C4.02551 5.12132 3.77203 5.37481 3.77203 5.68751C3.77203 6.00021 4.02551 6.25369 4.33821 6.25369H9.71691C9.92008 6.25369 10.1077 6.14481 10.2085 5.9684L10.749 5.02248ZM15.3787 16.728C15.8477 16.728 16.228 16.3477 16.228 15.8787C16.228 15.4097 15.8477 15.0295 15.3787 15.0295C14.9097 15.0295 14.5295 15.4097 14.5295 15.8787C14.5295 16.3477 14.9097 16.728 15.3787 16.728Z" fill="#00B288"/>
</svg>
