<svg width="107" height="107" viewBox="0 0 107 107" fill="none" xmlns="http://www.w3.org/2000/svg">
<path d="M9.4411 0H97.5589C102.773 0 107 4.22693 107 9.4411V97.5589C107 102.773 102.773 107 97.5589 107H9.4411C4.22692 107 0 102.773 0 97.5589V9.4411C0 4.22693 4.22692 0 9.4411 0ZM22.0295 86.5444H50.353C52.0911 86.5444 53.5001 85.1354 53.5001 83.3973C53.5001 81.6591 52.0911 80.2502 50.353 80.2502H22.0295C20.2914 80.2502 18.8824 81.6591 18.8824 83.3973C18.8824 85.1354 20.2914 86.5444 22.0295 86.5444ZM37.2077 52.9505L42.6952 67.2181C43.6118 69.6009 46.8347 69.9583 48.251 67.834L53.6109 59.7941H84.9707C86.7088 59.7941 88.1178 58.3851 88.1178 56.647C88.1178 54.9089 86.7088 53.5001 84.9707 53.5001H51.9267C50.8744 53.5001 49.8918 54.0261 49.3081 54.9016L46.3869 59.2831L40.7021 44.5027C39.7497 42.0264 36.3487 41.7675 35.0323 44.0711L29.6443 53.5001H22.0293C20.2912 53.5001 18.8822 54.9091 18.8822 56.6472C18.8822 58.3853 20.2912 59.7943 22.0293 59.7943H31.4704C32.5997 59.7943 33.6426 59.1891 34.2029 58.2085L37.2077 52.9505ZM57.6635 23.0535L63.151 37.3211C64.0676 39.704 67.2906 40.0613 68.7069 37.937L74.0667 29.8972H84.9707C86.7088 29.8972 88.1178 28.4882 88.1178 26.7501C88.1178 25.0119 86.7088 23.6029 84.9707 23.6029H72.3825C71.3303 23.6029 70.3476 24.129 69.7639 25.0044L66.8427 29.386L61.1579 14.6055C60.2056 12.1293 56.8046 11.8703 55.4882 14.174L50.1001 23.6029H22.0293C20.2912 23.6029 18.8822 25.0119 18.8822 26.7501C18.8822 28.4882 20.2912 29.8972 22.0293 29.8972H51.9264C53.0558 29.8972 54.0986 29.2919 54.6589 28.3114L57.6635 23.0535ZM83.3973 88.1178C86.0043 88.1178 88.1178 86.0043 88.1178 83.3973C88.1178 80.7902 86.0043 78.6767 83.3973 78.6767C80.7902 78.6767 78.6767 80.7902 78.6767 83.3973C78.6767 86.0043 80.7902 88.1178 83.3973 88.1178Z" fill="white"/>
</svg>
