<svg width="54" height="54" viewBox="0 0 54 54" fill="none" xmlns="http://www.w3.org/2000/svg">
<path d="M53.2525 10.1352C53.2525 8.65852 52.629 7.21464 51.5461 6.16455C50.4632 5.11445 48.9537 4.52377 47.4113 4.52377H45.4752V2.62048C45.4752 2.12825 45.2783 1.63602 44.9174 1.30786C44.5564 0.946893 44.0314 0.75 43.5391 0.75C43.0469 0.75 42.5218 0.946893 42.1609 1.30786C41.7999 1.66883 41.603 2.12825 41.603 2.62048V4.49096H35.7619V2.62048C35.7619 2.12825 35.565 1.63602 35.204 1.30786C34.8102 0.946893 34.318 0.75 33.7929 0.75C33.2679 0.75 32.7757 0.946893 32.4147 1.30786C32.0537 1.66883 31.8568 2.12825 31.8568 2.62048V4.49096H26.0157V2.62048C26.0157 2.12825 25.8188 1.63602 25.4578 1.30786C25.0969 0.946893 24.6046 0.75 24.0796 0.75C23.5545 0.75 23.0623 0.946893 22.7013 1.30786C22.3404 1.66883 22.1435 2.12825 22.1435 2.62048V4.49096H20.2074C18.665 4.49096 17.1883 5.08164 16.0726 6.13173C14.9897 7.18182 14.3662 8.6257 14.3662 10.1024V14.7622H53.2525V10.1024V10.1352Z" fill="#006A51"/>
<path d="M14.3662 47.6433C14.3662 49.12 14.9897 50.5639 16.0726 51.614C17.1555 52.6641 18.665 53.2548 20.2074 53.2548H47.4113C48.9537 53.2548 50.4304 52.6641 51.5461 51.614C52.6618 50.5639 53.2525 49.12 53.2525 47.6433V16.7312H14.3662V47.6433ZM27.9846 30.7762H31.8896V27.0352C31.8896 26.543 32.0865 26.0508 32.4475 25.7226C32.8085 25.3617 33.3007 25.1648 33.8258 25.1648C34.3508 25.1648 34.843 25.3617 35.204 25.7226C35.565 26.0836 35.7619 26.543 35.7619 27.0352V30.7762H39.6669C40.1919 30.7762 40.6842 30.9731 41.0451 31.3341C41.4061 31.695 41.603 32.1545 41.603 32.6467C41.603 33.1389 41.4061 33.6311 41.0451 33.9593C40.6842 34.3203 40.1919 34.5172 39.6669 34.5172H35.7619V38.2581C35.7619 38.7504 35.565 39.2426 35.204 39.5707C34.843 39.9317 34.3508 40.1286 33.8258 40.1286C33.3007 40.1286 32.8085 39.9317 32.4475 39.5707C32.0865 39.2098 31.8896 38.7504 31.8896 38.2581V34.5172H27.9846C27.4596 34.5172 26.9673 34.3203 26.6064 33.9593C26.2454 33.5983 26.0485 33.1389 26.0485 32.6467C26.0485 32.1545 26.2454 31.6622 26.6064 31.3341C26.9673 30.9731 27.4596 30.7762 27.9846 30.7762Z" fill="#006A51"/>
<path d="M0.747559 43.8696C0.747559 44.1649 0.813189 44.4602 0.944451 44.7228L4.84949 52.2375C5.01356 52.5656 5.24327 52.7954 5.57143 52.9922C5.86677 53.1891 6.22773 53.2876 6.5887 53.2876C6.94967 53.2876 7.31064 53.1891 7.60598 52.9922C7.90132 52.7954 8.16384 52.5328 8.32792 52.2375L12.233 44.7228C12.3642 44.4602 12.4298 44.1649 12.4298 43.8696V16.7312H0.747559V43.8696Z" fill="#006A51"/>
<path d="M12.4298 10.1351C12.4298 8.65842 11.8064 7.21455 10.7234 6.16445C9.64054 5.11436 8.13103 4.52368 6.5887 4.52368C5.04638 4.52368 3.56969 5.11436 2.45396 6.16445C1.37105 7.21455 0.747559 8.62561 0.747559 10.1351V14.7949H12.4298V10.1351Z" fill="#006A51"/>
</svg>
