<svg width="110" height="110" viewBox="0 0 110 110" fill="none" xmlns="http://www.w3.org/2000/svg">
<path d="M66.4546 0H43.5388C41.0184 0 38.9546 2.06384 38.9546 4.58289V16.0421C38.9546 18.5612 41.0184 20.625 43.5388 20.625H66.4546C68.975 20.625 71.0388 18.5612 71.0388 16.0421V4.58289C71.0388 2.06384 68.975 0 66.4546 0Z" fill="white"/>
<path d="M91.665 9.16699H77.915V18.3328C77.915 23.3735 73.7873 27.4999 68.7479 27.4999H41.2479C36.2085 27.4999 32.0808 23.3735 32.0808 18.3328V9.16699H18.3308C13.2914 9.16699 9.16504 13.2933 9.16504 18.3328V100.833C9.16504 105.874 13.2914 110 18.3308 110H91.665C96.7045 110 100.831 105.874 100.831 100.833V18.3328C100.831 13.2933 96.7045 9.16699 91.665 9.16699ZM27.4979 45.8328H54.9979V54.9999H27.4979V45.8328ZM73.3308 91.667H27.4979V82.4999H73.3308V91.667ZM82.4979 73.3328H27.4979V64.167H82.4979V73.3328Z" fill="white"/>
</svg>
