<svg width="24" height="24" viewBox="0 0 24 24" fill="none" xmlns="http://www.w3.org/2000/svg">
<path d="M14.5 0H9.50019C8.95029 0 8.5 0.450293 8.5 0.999902V3.5001C8.5 4.04971 8.95029 4.5 9.50019 4.5H14.5C15.0499 4.5 15.5002 4.04971 15.5002 3.5001V0.999902C15.5002 0.450293 15.0499 0 14.5 0Z" fill="#00B288"/>
<path d="M20 2.00012H17V3.99993C17 5.09973 16.0994 6.00002 14.9999 6.00002H8.9999C7.90039 6.00002 6.9998 5.09973 6.9998 3.99993V2.00012H3.9998C2.90029 2.00012 2 2.90042 2 3.99993V21.9999C2 23.0997 2.90029 24 3.9998 24H20C21.0995 24 21.9998 23.0997 21.9998 21.9999V3.99993C21.9998 2.90042 21.0995 2.00012 20 2.00012ZM5.9999 9.99993H11.9999V12H5.9999V9.99993ZM15.9998 20.0001H5.9999V18H15.9998V20.0001ZM17.9999 15.9999H5.9999V14.0001H17.9999V15.9999Z" fill="#00B288"/>
</svg>
