<svg width="16" height="16" viewBox="0 0 16 16" fill="none" xmlns="http://www.w3.org/2000/svg">
<path d="M8 0C6.41775 0 4.87103 0.469192 3.55544 1.34824C2.23985 2.22729 1.21447 3.47672 0.608967 4.93853C0.0034663 6.40034 -0.15496 8.00887 0.153721 9.56072C0.462403 11.1126 1.22433 12.538 2.34315 13.6569C3.46197 14.7757 4.88743 15.5376 6.43928 15.8463C7.99113 16.155 9.59966 15.9965 11.0615 15.391C12.5233 14.7855 13.7727 13.7602 14.6518 12.4446C15.5308 11.129 16 9.58225 16 8C15.9975 5.87903 15.1538 3.84566 13.6541 2.34591C12.1543 0.84616 10.121 0.00250216 8 0ZM10.696 10.696C10.5596 10.8323 10.3747 10.9089 10.1818 10.9089C9.98897 10.9089 9.80402 10.8323 9.66764 10.696L7.48582 8.51418C7.34942 8.37782 7.27277 8.19287 7.27273 8V3.63636C7.27273 3.44348 7.34935 3.25849 7.48574 3.1221C7.62213 2.98571 7.80712 2.90909 8 2.90909C8.19289 2.90909 8.37787 2.98571 8.51426 3.1221C8.65065 3.25849 8.72727 3.44348 8.72727 3.63636V7.69891L10.696 9.66763C10.8323 9.80402 10.9089 9.98897 10.9089 10.1818C10.9089 10.3747 10.8323 10.5596 10.696 10.696Z" fill="black"/>
</svg>
