<svg width="14" height="16" viewBox="0 0 14 16" fill="none" xmlns="http://www.w3.org/2000/svg">
<path fill-rule="evenodd" clip-rule="evenodd" d="M0.275608 1.2714C0.643736 0.903268 1.24059 0.903268 1.60872 1.2714L6.95814 6.62082L12.3076 1.2714C12.6757 0.903271 13.2725 0.903271 13.6407 1.2714C14.0088 1.63953 14.0088 2.23638 13.6407 2.60451L8.28698 7.9582L13.7242 13.3955C14.0924 13.7636 14.0924 14.3604 13.7242 14.7286C13.3561 15.0967 12.7593 15.0967 12.3911 14.7286L7.0417 9.37914L1.69228 14.7286C1.32415 15.0967 0.727301 15.0967 0.359173 14.7286C-0.00895554 14.3604 -0.0089555 13.7636 0.359173 13.3955L5.71286 8.04176L0.275608 2.60451C-0.0925205 2.23638 -0.0925202 1.63952 0.275608 1.2714Z" fill="#56595B"/>
</svg>
