<svg width="280" height="280" viewBox="0 0 280 280" fill="none" xmlns="http://www.w3.org/2000/svg">
<linearGradient id="paint0_linear_5383_32261" x1="140.5" y1="39" x2="140.5" y2="232" gradientUnits="userSpaceOnUse">
<stop stop-color="#4ACFA3" stop-opacity="0.33"/>
<stop offset="1" stop-color="#4ACFA3" stop-opacity="0.08"/>
</linearGradient>
<linearGradient id="paint1_linear_5383_32261" x1="140" y1="35" x2="140" y2="244" gradientUnits="userSpaceOnUse">
<stop stop-color="#04C598"/>
<stop offset="1" stop-color="#189A7C"/>
</linearGradient>
<path fill-rule="evenodd" clip-rule="evenodd" d="M138.721 39.5356C164.573 36.0861 189.247 49.7526 208.994 67.487C230.546 86.8425 250.215 111.122 251.423 140.752C252.669 171.302 238.667 202.133 215.233 220.521C193.925 237.242 165.305 231.409 138.721 229.192C115.205 227.232 92.1608 223.807 73.5408 208.706C52.0511 191.278 27.2071 169.02 29.6695 140.752C32.0861 113.008 64.436 102.636 84.3937 84.1125C102.287 67.5048 114.958 42.7062 138.721 39.5356Z" fill="url(#paint0_linear_5383_32261)"/>
<path fill-rule="evenodd" clip-rule="evenodd" d="M142.873 35.025C170.645 35.8627 189.616 59.246 209.052 78.1656C228.169 96.7754 251.001 115.194 251.964 141.218C252.947 167.804 233.774 190.204 213.886 208.876C194.18 227.377 170.324 246.911 142.873 243.638C116.727 240.521 106.871 211.005 87.6555 193.827C67.1708 175.514 31.6969 167.785 28.306 141.218C24.8282 113.969 51.7169 93.1835 72.367 74.0427C92.6186 55.2714 114.633 34.1732 142.873 35.025Z" fill="url(#paint1_linear_5383_32261)"/>
<ellipse cx="151.5" cy="220" rx="21" ry="20" fill="#C5CCE8"/>
<path d="M71.5 97.4996C124.5 58.4988 172.4 58.6996 232 97.4996M94.5 132.5C135.5 108 160.5 105.5 210 132.5M120.5 171C141.5 157.5 160.5 158 181 171" stroke="#EAEEF9" stroke-width="20" stroke-linecap="round"/>
</svg>
