<svg width="33" height="37" viewBox="0 0 33 37" fill="none" xmlns="http://www.w3.org/2000/svg">
<path d="M1.85409 7.06831C1.85409 7.23685 1.86114 7.39506 1.85281 7.55262C1.75103 9.45049 3.23618 10.4023 4.42685 10.6341C4.67651 10.6826 4.93449 10.7091 5.18863 10.7091C10.395 10.7129 15.6006 10.7103 20.807 10.7116C21.6449 10.7116 22.4086 10.4805 23.0737 9.96321C23.7933 9.40399 24.1818 8.67171 24.1652 7.73989C24.1614 7.51775 24.1652 7.29497 24.1652 7.0625C24.9507 7.32015 25.6119 8.25585 25.6433 9.13601C25.6574 9.52281 25.6599 9.91155 25.6414 10.2977C25.6343 10.4378 25.5722 10.5883 25.4973 10.7103C23.9175 13.2527 22.328 15.7892 20.7538 18.3347C20.5938 18.593 20.517 18.903 20.3986 19.1878C20.3672 19.2627 20.3422 19.3563 20.284 19.4009C19.4812 20.0143 19.22 20.9022 19.0638 21.8418C18.9793 22.3507 18.9185 22.8627 18.8296 23.3709C18.8046 23.5137 18.7431 23.6622 18.6593 23.7791C18.3437 24.2195 18.2457 24.7089 18.3162 25.252C16.1172 25.252 13.9439 25.252 11.77 25.252C9.18828 25.252 6.60656 25.252 4.02484 25.2533C3.5268 25.2533 3.25474 25.4677 3.2381 25.8616C3.22337 26.211 3.45383 26.486 3.80015 26.5229C3.90577 26.5338 4.01332 26.528 4.12022 26.528C8.70753 26.528 13.2948 26.5254 17.8821 26.5325C18.2624 26.5325 18.5837 26.4744 18.7527 26.0753C19.1618 26.4241 19.5837 26.6798 20.1195 26.6778C20.6924 26.6759 21.1975 26.4757 21.4913 25.9901C21.803 25.4761 22.2793 25.1952 22.7287 24.8568C23.2472 24.4661 23.7683 24.0716 24.2369 23.6247C24.507 23.3671 24.676 23.0022 24.9167 22.6471C25.1139 22.793 25.3488 22.9531 25.5652 23.1365C25.6235 23.1863 25.6439 23.307 25.6446 23.3948C25.6478 26.9458 25.6567 30.4975 25.6401 34.0484C25.6356 34.9686 25.1209 35.6183 24.3713 36.0877C23.8227 36.4319 23.2133 36.5824 22.5725 36.5824C16.2037 36.5862 9.83483 36.5895 3.46599 36.5824C2.48784 36.5811 1.62236 36.2588 0.955967 35.5007C0.565476 35.0571 0.372151 34.5321 0.372151 33.9367C0.372151 25.7254 0.370871 17.5146 0.372151 9.30326C0.372151 8.31526 1.02254 7.32403 1.85281 7.06767L1.85409 7.06831ZM13.0036 30.595C15.9591 30.595 18.9141 30.595 21.8696 30.595C21.9765 30.595 22.0834 30.6001 22.1897 30.5924C22.5827 30.5627 22.8266 30.2566 22.7761 29.8633C22.7313 29.5133 22.4758 29.3235 22.0284 29.3235C16.0219 29.3222 10.0147 29.3222 4.00819 29.3228C3.92306 29.3228 3.836 29.3215 3.75342 29.337C3.38021 29.4068 3.15616 29.7716 3.25538 30.1371C3.33668 30.4355 3.5825 30.595 3.97683 30.595C6.98553 30.5956 9.99422 30.595 13.0029 30.595H13.0036ZM11.5235 18.3935C14.0086 18.3935 16.4937 18.3935 18.9787 18.3935C19.0856 18.3935 19.1932 18.4006 19.2981 18.3883C19.6112 18.3528 19.8461 18.0926 19.8564 17.78C19.866 17.4778 19.6688 17.2111 19.3673 17.1485C19.2335 17.1207 19.092 17.1227 18.9544 17.1227C14.0054 17.1214 9.05641 17.1214 4.10806 17.1233C3.96018 17.1233 3.80655 17.1265 3.66572 17.1653C3.36933 17.2473 3.20481 17.5237 3.24002 17.8369C3.27266 18.1268 3.49288 18.356 3.7803 18.387C3.89617 18.4 4.0146 18.3928 4.13174 18.3928C6.59568 18.3928 9.05897 18.3928 11.5229 18.3928L11.5235 18.3935ZM9.24781 22.4598C10.7406 22.4598 12.2335 22.4598 13.7263 22.4598C14.0464 22.4598 14.3664 22.4701 14.6859 22.4553C15.0124 22.4404 15.2466 22.1989 15.2742 21.8825C15.3023 21.5525 15.0956 21.2755 14.7608 21.2103C14.6468 21.1883 14.5278 21.189 14.4113 21.189C11.2233 21.1877 8.03537 21.1883 4.84679 21.1883C4.5376 21.1883 4.22841 21.1864 3.91921 21.1896C3.65739 21.1922 3.43846 21.2806 3.30915 21.528C3.07038 21.9839 3.38725 22.4585 3.93842 22.4598C5.70843 22.463 7.47844 22.4611 9.24845 22.4611L9.24781 22.4598Z" fill="#00B288"/>
<path d="M8.85516 4.97837C8.85516 4.4043 8.85516 3.88963 8.85516 3.37497C8.85516 2.57876 8.8526 1.78319 8.8558 0.986984C8.85772 0.625363 9.01328 0.454239 9.3692 0.418723C9.50619 0.404517 9.64574 0.412266 9.78466 0.412266C11.9919 0.412266 14.1991 0.412266 16.4064 0.412266C17.035 0.412266 17.1713 0.552394 17.172 1.19362C17.1726 2.32304 17.172 3.45246 17.172 4.58188C17.172 4.69811 17.172 4.81435 17.172 4.97902C17.3134 4.97902 17.4261 4.97902 17.5388 4.97902C18.5835 4.97902 19.6289 4.97902 20.6736 4.97902C21.1735 4.97902 21.6504 5.07071 22.0736 5.3542C22.6068 5.7113 22.9109 6.19819 22.8955 6.86332C22.8891 7.13195 22.8789 7.40252 22.8975 7.66986C22.9724 8.75859 22.1344 9.44309 21.2504 9.60453C21.0525 9.64069 20.8477 9.65231 20.6454 9.65231C15.6234 9.6549 10.6008 9.65231 5.57888 9.65683C4.89072 9.65748 4.23841 9.57741 3.69813 9.09116C3.31852 8.74955 3.11943 8.32852 3.12135 7.81322C3.12199 7.55492 3.12135 7.29661 3.12135 7.03896C3.12135 5.88177 3.79607 5.10623 4.94898 5.00937C5.58464 4.95577 6.22735 4.98354 6.86686 4.98031C7.51533 4.97643 8.1638 4.97966 8.85452 4.97966L8.85516 4.97837Z" fill="#00B288"/>
<path d="M31.6354 10.5058C31.4132 10.8558 31.2078 11.1786 31.0035 11.5021C28.9071 14.8213 26.8099 18.1405 24.7134 21.4596C24.3799 21.9878 24.097 22.0531 23.5785 21.7192C22.994 21.3434 22.4095 20.9682 21.8257 20.5904C21.3898 20.3089 21.3149 19.9989 21.5921 19.5592C24.145 15.5123 26.6992 11.4666 29.2559 7.4223C29.4922 7.04841 29.7188 6.99158 30.2206 7.15366C30.921 6.33808 31.4344 6.17148 32.0131 6.57184C32.5559 6.94767 32.6058 7.53014 32.1686 8.37155C32.5597 8.9114 32.5674 9.00374 32.2531 9.53325C32.2928 9.59331 32.3357 9.66434 32.385 9.72956C33.1282 10.7137 33.2108 11.949 32.5655 12.9919C31.668 14.4423 30.7494 15.879 29.8366 17.3197C29.6355 17.6374 29.3436 17.7156 29.0754 17.5431C28.8123 17.374 28.763 17.0763 28.9672 16.7515C29.8519 15.3431 30.7411 13.9379 31.6303 12.5328C32.0105 11.9309 32.0611 11.3097 31.7461 10.6659C31.7237 10.6207 31.6885 10.582 31.636 10.5058H31.6354Z" fill="#00B288"/>
<path d="M19.9996 25.8838C19.4754 25.8954 19.1527 25.4492 19.3992 25.147C19.9094 24.5225 19.8492 23.7605 20.0124 23.0515C20.1366 22.511 20.2755 21.9744 20.4266 21.441C20.4625 21.3131 20.5476 21.1659 20.6539 21.102C20.7653 21.0348 20.9675 20.9928 21.0642 21.051C21.7857 21.4875 22.4879 21.955 23.2017 22.4038C23.4129 22.5368 23.4577 22.7235 23.3163 22.8888C23.0064 23.2497 22.6851 23.6088 22.3221 23.9136C21.9566 24.221 21.5456 24.4786 21.1353 24.7259C20.7761 24.9423 20.5137 25.229 20.3037 25.5893C20.2218 25.7307 20.0617 25.8257 19.9996 25.8838V25.8838Z" fill="#00B288"/>
</svg>
