<?xml version="1.0" encoding="UTF-8" standalone="no"?>
<svg
   width="49"
   height="38.836441"
   viewBox="0 0 49 38.836441"
   fill="none"
   version="1.1"
   id="svg138"
   xmlns="http://www.w3.org/2000/svg"
   xmlns:svg="http://www.w3.org/2000/svg">
  <g
     clip-path="url(#clip0_648:1303)"
     id="g131"
     transform="translate(-0.871094,-5.4140598)">
    <path
       d="M 49.0003,9.5991 C 48.3654,8.84859 47.4763,8.39018 46.4966,8.30835 L 11.9903,5.42712 C 11.0105,5.3453 10.0579,5.64992 9.30729,6.28472 8.55976,6.91702 8.10201,7.80161 8.0176,8.77653 L 7.32337,15.2897 H 4.55134 c -2.02928,0 -3.680246,1.6509 -3.680246,3.6802 v 21.6003 c 0,2.0293 1.650966,3.6803 3.680246,3.6803 H 39.1778 c 2.0294,0 3.6804,-1.651 3.6804,-3.6803 v -3.5039 l 1.2287,0.1026 c 0.1037,0.0086 0.2067,0.0129 0.3089,0.0129 1.8919,0 3.5047,-1.4556 3.6649,-3.3742 L 49.8581,12.2822 C 49.9398,11.3025 49.6352,10.3497 49.0003,9.5991 Z M 4.55134,17.2037 H 39.1778 c 0.9739,0 1.7663,0.7924 1.7663,1.7662 v 1.9682 H 2.78515 v -1.9682 c 0,-0.9738 0.79232,-1.7662 1.76619,-1.7662 z M 2.78515,22.8522 H 40.9441 v 3.9706 H 2.78515 Z M 39.1778,42.3364 H 4.55134 c -0.97387,0 -1.76619,-0.7923 -1.76619,-1.7662 V 28.7369 H 40.9441 v 11.8333 c 0,0.9739 -0.7924,1.7662 -1.7663,1.7662 z m 8.7728,-30.2135 -1.7974,21.5253 c -0.081,0.9706 -0.9367,1.6946 -1.907,1.6132 l -1.388,-0.1159 V 18.9699 c 0,-2.0293 -1.651,-3.6802 -3.6804,-3.6802 H 9.24834 L 9.92199,8.96947 C 9.92276,8.96219 9.92343,8.95502 9.924,8.94765 10.0051,7.97712 10.8603,7.25323 11.8311,7.33458 l 34.5064,2.88122 c 0.4701,0.0392 0.8969,0.2593 1.2015,0.6195 0.3046,0.3602 0.4509,0.8174 0.4116,1.2876 z"
       fill="#00b288"
       id="path127" />
    <path
       d="m 36.9392,31.582 h -9.2107 c -0.5286,0 -0.957,0.4285 -0.957,0.9571 v 6.0091 c 0,0.5285 0.4284,0.957 0.957,0.957 h 9.2107 c 0.5285,0 0.957,-0.4285 0.957,-0.957 v -6.0091 c 0,-0.5286 -0.4285,-0.9571 -0.957,-0.9571 z m -0.9571,6.0091 h -7.2966 v -4.095 h 7.2966 z"
       fill="#00b288"
       id="path129" />
  </g>
  <defs
     id="defs136">
    <clipPath
       id="clip0_648:1303">
      <rect
         width="49"
         height="49"
         fill="#ffffff"
         transform="translate(0.871094,0.332031)"
         id="rect133"
         x="0"
         y="0" />
    </clipPath>
  </defs>
</svg>
