<svg width="114" height="142" viewBox="0 0 114 142" fill="none" xmlns="http://www.w3.org/2000/svg">
<g clip-path="url(#clip0_3206:2091)">
<path d="M56.7398 68.96C40.9298 68.96 28.0698 53.49 28.0698 34.48C28.0698 23.25 29.6498 15.81 33.1998 10.36C37.7398 3.39 45.4498 0 56.7398 0C68.0298 0 75.7398 3.39 80.2798 10.36C83.8298 15.81 85.4198 23.25 85.4198 34.48C85.4198 53.49 72.5498 68.96 56.7398 68.96ZM56.7398 3.96C46.9098 3.96 40.3098 6.76 36.5598 12.51C33.4498 17.26 32.0698 24.03 32.0698 34.44C32.0698 51.29 43.1398 64.96 56.7398 64.96C70.3398 64.96 81.4198 51.29 81.4198 34.48C81.4198 24.07 80.0298 17.31 76.9298 12.55C73.1798 6.8 66.5698 4 56.7398 4V3.96Z" fill="#006A51"/>
<path d="M56.74 141.639C37.74 141.639 22.84 139.099 12.32 134.099C9.10634 132.638 6.13794 130.688 3.52004 128.319C2.79715 127.628 2.12851 126.883 1.52004 126.089C1.28004 125.769 1.10004 125.509 0.960039 125.299C0.820039 125.089 0.820041 125.069 0.770041 124.989L0.0400391 123.639V122.339H2.04004H0.0400391L0.110041 116.679C0.410041 101.909 1.78004 91.8991 7.89004 84.4091C13.89 77.1091 21.06 75.9391 34.17 73.8191L38.08 73.1791H38.21C39.1692 73.0192 40.1534 73.1091 41.0677 73.4402C41.982 73.7712 42.7956 74.3322 43.43 75.0691L43.68 75.2891C44.2056 75.7271 44.7753 76.1092 45.38 76.4291C46.88 77.2391 49.7 78.3191 56.78 78.3191H56.85C64.67 78.3191 66.78 77.1791 68.18 76.4291C68.7861 76.1062 69.3588 75.7243 69.89 75.2891C70.03 75.1691 70.13 75.0691 70.18 75.0191C70.813 74.2989 71.6186 73.7514 72.5211 73.4278C73.4237 73.1042 74.3937 73.0152 75.34 73.1691H75.49L79.14 73.7691C92.54 75.9491 99.92 77.1491 105.88 84.6591C111.84 92.1691 113.21 102.599 113.47 117.999V119.999C113.47 120.999 113.47 122.109 113.47 122.319V123.619L112.79 124.859L112.73 124.969C112.67 125.069 112.62 125.169 112.54 125.279C112.46 125.389 112.23 125.749 111.99 126.069C111.368 126.866 110.682 127.612 109.94 128.299C107.326 130.672 104.356 132.622 101.14 134.079C90.64 139.099 75.74 141.639 56.74 141.639ZM4.14004 122.889L4.28004 123.129C4.37004 123.269 4.50004 123.449 4.66004 123.659C5.15023 124.284 5.68496 124.872 6.26004 125.419C8.58054 127.495 11.204 129.204 14.04 130.489C24.04 135.229 38.38 137.639 56.74 137.639C75.1 137.639 89.47 135.229 99.44 130.489C102.28 129.207 104.904 127.494 107.22 125.409C107.802 124.87 108.341 124.284 108.83 123.659C108.99 123.449 109.11 123.269 109.2 123.129L109.27 123.019L109.35 122.769L109.49 122.629V122.339C109.49 122.089 109.49 118.279 109.43 118.069H111.43H109.43C109.18 103.529 108 93.8091 102.71 87.1491C97.71 80.8491 91.71 79.8691 78.46 77.7191L74.79 77.1191L75.12 75.1191L74.79 77.1191H74.64C74.3639 77.0763 74.0814 77.1043 73.819 77.2005C73.5567 77.2967 73.323 77.4579 73.14 77.6691L70.74 79.0991L66.97 81.2191C63.6295 82.0665 60.1834 82.4235 56.74 82.2791C48.84 82.2791 45.48 81.0091 43.44 79.9091C42.5968 79.4541 41.7997 78.9182 41.06 78.3091C40.8802 78.1635 40.7098 78.0065 40.55 77.8391C40.476 77.7766 40.4089 77.7062 40.35 77.6291C40.1628 77.4178 39.9256 77.2567 39.6601 77.1606C39.3945 77.0645 39.1092 77.0365 38.83 77.0791H38.7L34.74 77.7491C21.81 79.8391 15.91 80.7491 10.92 86.9091C5.54004 93.5091 4.32004 102.839 4.04004 116.729L3.97004 122.629L4.14004 122.889ZM111.25 123.989L112.52 125.259L111.25 123.989ZM2.40004 123.829L1.95004 124.069L2.40004 123.829ZM73.13 77.6491L72.45 78.2291C71.288 79.2241 69.966 80.0153 68.54 80.5691L66.93 81.1991" fill="#006A51"/>
</g>
<defs>
<clipPath id="clip0_3206:2091">
<rect width="113.49" height="141.63" fill="white"/>
</clipPath>
</defs>
</svg>
