<svg xmlns="http://www.w3.org/2000/svg" width="16" height="16" viewBox="0 0 16 16" fill="white">
<path d="M10.1969 15H5.80308C5.57692 15 5.39385 14.8169 5.39385 14.5908V10.6062H1.40923C1.18308 10.6062 1 10.4231 1 10.1969V5.80308C1 5.57692 1.18308 5.39385 1.40923 5.39385H5.39385V1.40923C5.39385 1.18308 5.57692 1 5.80308 1H10.1969C10.4231 1 10.6062 1.18308 10.6062 1.40923V5.39385H14.5908C14.8169 5.39385 15 5.57692 15 5.80308V10.1969C15 10.4231 14.8169 10.6062 14.5908 10.6062H10.6062V14.5908C10.6062 14.8169 10.4231 15 10.1969 15Z" fill="#ffffff"/>
</svg>