<svg width="66" height="59" viewBox="0 0 66 59" fill="none" xmlns="http://www.w3.org/2000/svg">
<path fill-rule="evenodd" clip-rule="evenodd" d="M1.23734 28.0336C8.51506 15.6586 20.3904 8.27065 33.0003 8.27065C37.4486 8.27065 41.8055 9.19029 45.9012 10.924L55.8053 1.01984C56.7081 0.117081 58.1852 0.117081 59.088 1.01984C59.9907 1.92261 59.9907 3.39983 59.088 4.3026L50.2578 13.1329L43.9134 19.4773L40.6317 22.7588L25.1233 38.2671L21.8417 41.5487L15.4368 47.9537L5.41042 57.98C4.50765 58.8828 3.03043 58.8828 2.12766 57.98C1.2249 57.0773 1.2249 55.6002 2.12766 54.6974L11.5693 45.2558C7.58309 42.0954 4.0637 38.0429 1.23734 33.2378C0.249011 31.5601 0.249011 29.7119 1.23734 28.0336ZM40.0972 16.728C37.9668 15.636 35.5543 15.0192 33.0003 15.0192C24.3893 15.0192 17.384 22.0251 17.384 30.6361C17.384 33.1899 18.0009 35.6023 19.0927 37.7325L22.6223 34.2029C22.2367 33.0841 22.0271 31.8841 22.0271 30.636C22.0271 24.585 26.9499 19.662 33.0003 19.662C34.2485 19.662 35.4487 19.8717 36.5675 20.2576L40.0972 16.728ZM54.1565 15.7993L46.7389 23.2171C47.936 25.4253 48.6165 27.9527 48.6165 30.6361C48.6165 39.2464 41.6114 46.2522 33.0004 46.2522C30.317 46.2522 27.7897 45.5716 25.5815 44.3745L19.7562 50.1997C23.9515 52.0283 28.4274 53.0007 33.0004 53.0007C45.6103 53.0007 57.4843 45.6129 64.7633 33.2378C65.751 31.5601 65.751 29.7119 64.7633 28.0334C61.8724 23.1182 58.2559 18.9907 54.1565 15.7993ZM43.2465 26.7093L29.0736 40.8822C30.2935 41.3515 31.6172 41.6093 33.0003 41.6093C39.0506 41.6093 43.9734 36.6863 43.9734 30.6361C43.9734 29.253 43.7156 27.9292 43.2465 26.7093Z" fill="#00B288"/>
</svg>
