<svg width="26" height="26" viewBox="0 0 26 26" fill="none" xmlns="http://www.w3.org/2000/svg">
<path fill-rule="evenodd" clip-rule="evenodd" d="M15.1096 6.39431H10.8904C10.5993 6.39431 10.3619 6.63169 10.3619 6.92276V10.362H6.92276C6.63169 10.362 6.39431 10.5993 6.39431 10.8904V15.1096C6.39431 15.4007 6.63169 15.6381 6.92276 15.6381H10.362V19.0772C10.362 19.3683 10.5993 19.6057 10.8904 19.6057H15.1097C15.4008 19.6057 15.6382 19.3683 15.6382 19.0772V15.6381H19.0772C19.3683 15.6381 19.6057 15.4007 19.6057 15.1096V10.8904C19.6057 10.5993 19.3683 10.3619 19.0772 10.3619H15.6381V6.92276C15.6381 6.63169 15.4007 6.39431 15.1096 6.39431ZM13 0C20.1797 0 26 5.8203 26 13C26 20.1797 20.1797 26 13 26C5.8203 26 0 20.1797 0 13C0 5.8203 5.8203 0 13 0ZM13 2.23336C18.9462 2.23336 23.7666 7.05377 23.7666 13C23.7666 18.9462 18.9462 23.7666 13 23.7666C7.05377 23.7666 2.23336 18.9462 2.23336 13C2.23336 7.05377 7.05377 2.23336 13 2.23336Z" fill="#00B288"/>
</svg>
