<svg width="34" height="34" viewBox="0 0 34 34" fill="none" xmlns="http://www.w3.org/2000/svg">
<path d="M22.0215 33H11.9785C11.4615 33 11.0431 32.5815 11.0431 32.0646V22.9569H1.93538C1.41846 22.9569 1 22.5385 1 22.0215V11.9785C1 11.4615 1.41846 11.0431 1.93538 11.0431H11.0431V1.93538C11.0431 1.41846 11.4615 1 11.9785 1H22.0215C22.5385 1 22.9569 1.41846 22.9569 1.93538V11.0431H32.0646C32.5815 11.0431 33 11.4615 33 11.9785V22.0215C33 22.5385 32.5815 22.9569 32.0646 22.9569H22.9569V32.0646C22.9569 32.5815 22.5385 33 22.0215 33Z" stroke="white" fill="white" stroke-width="1.5" stroke-miterlimit="10"/>
</svg>
