<svg width="16" height="16" viewBox="0 0 16 16" fill="none" xmlns="http://www.w3.org/2000/svg">
<path d="M8.00065 10.9173C9.61148 10.9173 10.9173 9.61148 10.9173 8.00065C10.9173 6.38982 9.61148 5.08398 8.00065 5.08398C6.38982 5.08398 5.08398 6.38982 5.08398 8.00065C5.08398 9.61148 6.38982 10.9173 8.00065 10.9173Z" fill="#56595B"/>
<path d="M14.4167 7.41667H13.8036C13.5294 4.66508 11.3349 2.47058 8.58333 2.19642V1.58333C8.58333 1.26133 8.32258 1 8 1C7.67742 1 7.41667 1.26133 7.41667 1.58333V2.19642C4.66508 2.47058 2.47058 4.66508 2.19642 7.41667H1.58333C1.26075 7.41667 1 7.678 1 8C1 8.322 1.26075 8.58333 1.58333 8.58333H2.19642C2.47117 11.3349 4.66508 13.5294 7.41667 13.8036V14.4167C7.41667 14.7387 7.67742 15 8 15C8.32258 15 8.58333 14.7387 8.58333 14.4167V13.8036C11.3349 13.5288 13.5294 11.3349 13.8036 8.58333H14.4167C14.7392 8.58333 15 8.322 15 8C15 7.678 14.7392 7.41667 14.4167 7.41667ZM8.57517 12.6276C8.55417 12.3248 8.30858 12.0833 8 12.0833C7.69142 12.0833 7.44583 12.3248 7.42483 12.6276C5.312 12.3663 3.63433 10.6886 3.373 8.57575C3.67575 8.55417 3.91667 8.308 3.91667 8C3.91667 7.692 3.67575 7.44583 3.37242 7.42483C3.63375 5.312 5.31142 3.63433 7.42425 3.373C7.44583 3.67517 7.69142 3.91667 8 3.91667C8.30858 3.91667 8.55417 3.67517 8.57517 3.37242C10.688 3.63375 12.3657 5.31142 12.627 7.42425C12.3242 7.44583 12.0833 7.692 12.0833 8C12.0833 8.308 12.3243 8.55417 12.6276 8.57517C12.3657 10.6886 10.6886 12.3657 8.57517 12.6276Z" fill="#56595B"/>
</svg>
