<svg width="20" height="20" viewBox="0 0 20 20" fill="none" xmlns="http://www.w3.org/2000/svg">
<path d="M16.0577 3.4375L12.8846 3.4375V2.89062C12.8846 1.98452 12.1097 1.25 11.1538 1.25L8.84615 1.25C7.89026 1.25 7.11538 1.98452 7.11538 2.89062V3.4375L3.94231 3.4375C3.14576 3.4375 2.5 4.04962 2.5 4.80469V5.89844C2.5 6.20048 2.75828 6.44531 3.07692 6.44531L16.9231 6.44531C17.2417 6.44531 17.5 6.20048 17.5 5.89844V4.80469C17.5 4.04962 16.8542 3.4375 16.0577 3.4375ZM8.26923 2.89062C8.26923 2.58916 8.52812 2.34375 8.84615 2.34375H11.1538C11.4719 2.34375 11.7308 2.58916 11.7308 2.89062V3.4375L8.26923 3.4375V2.89062Z" fill="#00B288"/>
<path d="M3.59483 7.53906C3.49189 7.53906 3.40986 7.62062 3.41476 7.7181L3.89072 17.1873C3.93471 18.0637 4.69409 18.75 5.61933 18.75H14.3806C15.3059 18.75 16.0652 18.0637 16.1092 17.1873L16.5852 7.7181C16.5901 7.62062 16.5081 7.53906 16.4051 7.53906L3.59483 7.53906ZM12.3077 8.90625C12.3077 8.6041 12.5658 8.35937 12.8846 8.35937C13.2033 8.35937 13.4615 8.6041 13.4615 8.90625L13.4615 16.0156C13.4615 16.3178 13.2033 16.5625 12.8846 16.5625C12.5658 16.5625 12.3077 16.3178 12.3077 16.0156L12.3077 8.90625ZM9.42305 8.90625C9.42305 8.6041 9.68123 8.35938 9.99998 8.35938C10.3187 8.35938 10.5769 8.6041 10.5769 8.90625V16.0156C10.5769 16.3178 10.3187 16.5625 9.99998 16.5625C9.68123 16.5625 9.42305 16.3178 9.42305 16.0156V8.90625ZM6.53844 8.90625C6.53844 8.6041 6.79661 8.35938 7.11536 8.35938C7.43411 8.35938 7.69228 8.6041 7.69228 8.90625L7.69228 16.0156C7.69228 16.3178 7.43411 16.5625 7.11536 16.5625C6.79661 16.5625 6.53844 16.3178 6.53844 16.0156L6.53844 8.90625Z" fill="#00B288"/>
</svg>
