<svg width="280" height="280" viewBox="0 0 280 280" fill="none" xmlns="http://www.w3.org/2000/svg">
    <defs>
        <linearGradient id="paint0_linear_68_5865" x1="139.431" y1="50.9995" x2="139.431" y2="228"
            gradientUnits="userSpaceOnUse">
            <stop stop-color="#4ACFA3" stop-opacity="0.33" />
            <stop offset="1" stop-color="#4ACFA3" stop-opacity="0.08" />
        </linearGradient>
        <linearGradient id="paint1_linear_68_5865" x1="143.191" y1="38.9995" x2="143.191" y2="248"
            gradientUnits="userSpaceOnUse">
            <stop stop-color="#04C598" />
            <stop offset="1" stop-color="#189A7C" />
        </linearGradient>
    </defs>
    <path fill-rule="evenodd" clip-rule="evenodd"
        d="M135.298 51.3232C159.795 52.0365 184.598 56.056 202.776 72.4544C221.815 89.6306 234.617 114.194 233.343 139.772C232.116 164.424 216.097 185.798 196.387 200.716C179.128 213.78 156.76 211.03 135.298 213.983C107.536 217.802 75.1613 239.282 54.6639 220.215C34.2265 201.204 53.8516 167.599 55.5195 139.772C57.009 114.923 47.0727 86.911 63.7634 68.4064C80.8128 49.5041 109.82 50.5813 135.298 51.3232Z"
        fill="url(#paint0_linear_68_5865)" />
    <path fill-rule="evenodd" clip-rule="evenodd"
        d="M146.064 39.0245C173.837 39.8622 192.807 63.2455 212.243 82.1651C231.361 100.775 254.193 119.193 255.155 145.217C256.138 171.804 236.966 194.203 217.077 212.876C197.372 231.377 173.516 250.911 146.064 247.638C119.918 244.521 110.063 215.005 90.8469 197.826C70.3622 179.513 34.8883 171.785 31.4974 145.217C28.0196 117.969 54.9083 97.183 75.5585 78.0422C95.81 59.2709 117.824 38.1727 146.064 39.0245Z"
        fill="url(#paint1_linear_68_5865)" />
    <circle cx="139.431" cy="129" r="70" fill="#EAEEF9" />
    <path
        d="M104.397 130.359C105.207 129.608 106.473 129.656 107.224 130.466L127.862 152.737C128.613 153.548 128.565 154.813 127.755 155.564C126.945 156.315 125.679 156.266 124.928 155.456L104.29 133.185C103.539 132.375 103.587 131.11 104.397 130.359Z"
        fill="#00B288" stroke="#00B288" stroke-width="3" />
    <rect x="176.19" y="107.143" width="70.2924" height="4" rx="2"
        transform="rotate(135 176.19 107.143)" fill="#00B288" stroke="#00B288" stroke-width="3" />
</svg>
