<svg width="95" height="108" viewBox="0 0 95 108" fill="none" xmlns="http://www.w3.org/2000/svg">
<path fill-rule="evenodd" clip-rule="evenodd" d="M85.152 0.571289H10.348C5.05457 0.571289 0.75 4.87586 0.75 10.1693V98.4018C0.75 103.695 5.05457 108 10.348 108H85.152C90.4454 108 94.75 103.695 94.75 98.4018V10.1693C94.75 4.87586 90.4454 0.571289 85.152 0.571289ZM40.9738 41.2902C40.9738 47.8052 37.251 51.6444 33.1791 54.6693C37.251 57.7523 40.9738 61.5333 40.9738 68.0483C40.9738 68.63 40.7412 69.2117 40.334 69.6771C39.9268 70.1424 39.3451 70.3751 38.8216 70.3751C38.298 70.3751 37.7163 70.1424 37.3091 69.6771C36.9019 69.2699 36.6693 68.6882 36.6693 68.0483C36.6693 66.7104 36.4366 65.4307 35.9131 64.2091H22.883C22.3595 65.4307 22.1268 66.7104 22.1268 68.0483C22.1268 68.63 21.8941 69.2117 21.4869 69.6771C21.0797 70.0843 20.498 70.3751 19.9745 70.3751C19.451 70.3751 18.8693 70.1424 18.4621 69.6771C18.0549 69.2699 17.8222 68.6882 17.8222 68.0483C17.8222 61.5333 21.5451 57.7523 25.617 54.6693C21.5451 51.5863 17.8222 47.8052 17.8222 41.2902C17.8222 34.7752 21.5451 30.9359 25.617 27.9111C21.5451 24.8281 17.8222 21.0471 17.8222 14.5321C17.8222 13.9504 18.0549 13.3687 18.4621 12.9033C18.8693 12.4961 19.451 12.2053 19.9745 12.2053C20.498 12.2053 21.0797 12.4379 21.4869 12.9033C21.8941 13.3105 22.1268 13.8922 22.1268 14.5321C22.1268 15.5209 22.2431 16.4517 22.534 17.3824H36.3202C36.6111 16.4517 36.7274 15.5209 36.7274 14.5321C36.7274 13.9504 36.9601 13.3687 37.3673 12.9033C37.7745 12.4961 38.3562 12.2053 38.8797 12.2053C39.4033 12.2053 39.9849 12.4379 40.3921 12.9033C40.7993 13.3105 41.032 13.8922 41.032 14.5321C41.032 21.0471 37.3091 24.8281 33.2372 27.9111C37.3091 30.9941 41.032 34.7752 41.032 41.2902H40.9738ZM33.6417 34.1928C32.3038 32.8549 30.9077 31.6915 29.3371 30.6444C27.8247 31.6915 26.3704 32.8549 25.0325 34.1928H33.6417ZM22.4179 43.908C22.1853 43.0936 22.0689 42.1629 22.0689 41.2903L22.0108 41.2321C22.0108 40.4178 22.0689 39.5452 22.3016 38.7308H36.2624C36.7277 40.4759 36.7277 42.221 36.2624 43.908H22.4179ZM32.2481 59.6719H26.5474C27.42 58.9157 28.3507 58.2176 29.3977 57.4614C29.6805 57.6776 29.9632 57.8891 30.2432 58.0985L30.2436 58.0988C30.9428 58.6217 31.6251 59.132 32.2481 59.6719ZM29.3645 51.915L29.3351 51.935H29.3933L29.3645 51.915ZM33.5234 48.5029C32.1945 49.7741 30.8082 50.9304 29.3645 51.915C27.8632 50.8739 26.4767 49.7745 25.2051 48.5029H33.5234ZM33.2968 21.919C32.0752 23.0824 30.7373 24.1294 29.3412 25.1183C27.9451 24.1876 26.6072 23.0824 25.3857 21.919H33.2968ZM53.5989 17.4652C53.5989 16.269 54.5686 15.2993 55.7648 15.2993H78.2902C79.4864 15.2993 80.4561 16.269 80.4561 17.4652C80.4561 18.6614 79.4864 19.6311 78.2902 19.6311H55.7648C54.5686 19.6311 53.5989 18.6614 53.5989 17.4652ZM55.7648 24.8291C54.5686 24.8291 53.5989 25.7988 53.5989 26.995C53.5989 28.1912 54.5686 29.1609 55.7648 29.1609H78.2902C79.4864 29.1609 80.4561 28.1912 80.4561 26.995C80.4561 25.7988 79.4864 24.8291 78.2902 24.8291H55.7648ZM53.5989 36.5251C53.5989 35.3289 54.5686 34.3592 55.7648 34.3592H78.2902C79.4864 34.3592 80.4561 35.3289 80.4561 36.5251C80.4561 37.7213 79.4864 38.691 78.2902 38.691H55.7648C54.5686 38.691 53.5989 37.7213 53.5989 36.5251ZM55.7648 43.889C54.5686 43.889 53.5989 44.8587 53.5989 46.0549C53.5989 47.2511 54.5686 48.2208 55.7648 48.2208H78.2902C79.4864 48.2208 80.4561 47.2511 80.4561 46.0549C80.4561 44.8587 79.4864 43.889 78.2902 43.889H55.7648ZM18.5103 82.0092C17.3141 82.0092 16.3444 82.9789 16.3444 84.1751C16.3444 85.3713 17.3141 86.341 18.5103 86.341H41.0357C42.2319 86.341 43.2016 85.3713 43.2016 84.1751C43.2016 82.9789 42.2319 82.0092 41.0357 82.0092H18.5103ZM18.5103 91.539C17.3141 91.539 16.3444 92.5087 16.3444 93.7049C16.3444 94.9011 17.3141 95.8708 18.5103 95.8708H41.0357C42.2319 95.8708 43.2016 94.9011 43.2016 93.7049C43.2016 92.5087 42.2319 91.539 41.0357 91.539H18.5103ZM59 59C56.2386 59 54 61.2386 54 64V91C54 93.7614 56.2386 96 59 96H75C77.7614 96 80 93.7614 80 91V64C80 61.2386 77.7614 59 75 59H59Z" fill="white"/>
</svg>
