<svg width="24" height="24" viewBox="0 0 24 24" fill="none" xmlns="http://www.w3.org/2000/svg">
<rect x="1.5" y="1.5" width="21" height="21" rx="10.5" fill="#56595B"/>
<path fill-rule="evenodd" clip-rule="evenodd" d="M7.22338 7.22338C7.48475 6.962 7.90853 6.962 8.16991 7.22338L11.9691 11.0226L15.7686 7.22529C16.0301 6.96399 16.454 6.96399 16.7154 7.22529C16.9769 7.48659 16.9769 7.91024 16.7154 8.17154L12.9145 11.9702L16.7746 15.8303C17.036 16.0917 17.036 16.5155 16.7746 16.7768C16.5132 17.0382 16.0894 17.0382 15.8281 16.7768L12.0294 12.9782L8.2292 16.7762C7.96775 17.0375 7.54385 17.0375 7.28239 16.7762C7.02094 16.5149 7.02094 16.0913 7.28239 15.83L11.084 12.0306L7.22338 8.16991C6.962 7.90853 6.962 7.48476 7.22338 7.22338Z" fill="white"/>
</svg>
