<svg width="22" height="23" viewBox="0 0 22 23" fill="none" xmlns="http://www.w3.org/2000/svg">
<path fill-rule="evenodd" clip-rule="evenodd" d="M15.0527 5.42423C14.4805 5.24715 13.8872 5.15766 13.2818 5.15766C9.96196 5.15766 7.28951 7.85004 7.28951 11.1496C7.28951 14.4601 9.97212 17.1416 13.2807 17.1416C13.8842 17.1416 14.4816 17.0506 15.0527 16.8743V20.5611C15.0527 20.8724 14.8 21.1251 14.4887 21.1251H1.93897C1.62766 21.1251 1.375 20.8724 1.375 20.5611V6.23559H5.17163C5.48294 6.23559 5.73559 5.98294 5.73559 5.67163V1.875H14.4887C14.8 1.875 15.0527 2.12766 15.0527 2.43897V5.42423ZM3.33009 16.5757H5.68446C5.99615 16.5757 6.24843 16.3231 6.24843 16.0118C6.24843 15.7005 5.99615 15.4478 5.68446 15.4478H3.33009C3.01878 15.4478 2.76612 15.7005 2.76612 16.0118C2.76612 16.3231 3.01878 16.5757 3.33009 16.5757ZM3.33009 14.3199H5.68446C5.99615 14.3199 6.24843 14.0672 6.24843 13.7559C6.24843 13.4446 5.99615 13.1919 5.68446 13.1919H3.33009C3.01878 13.1919 2.76612 13.4446 2.76612 13.7559C2.76612 14.0672 3.01878 14.3199 3.33009 14.3199ZM3.33009 12.064H5.68446C5.99615 12.064 6.24843 11.8113 6.24843 11.5C6.24843 11.1887 5.99615 10.9361 5.68446 10.9361H3.33009C3.01878 10.9361 2.76612 11.1887 2.76612 11.5C2.76612 11.8113 3.01878 12.064 3.33009 12.064ZM3.33009 9.80814H5.68446C5.99615 9.80814 6.24843 9.55548 6.24843 9.24417C6.24843 8.93286 5.99615 8.6802 5.68446 8.6802H3.33009C3.01878 8.6802 2.76612 8.93286 2.76612 9.24417C2.76612 9.55548 3.01878 9.80814 3.33009 9.80814ZM4.60769 5.1077H1.70552L4.60769 2.20552V5.1077ZM9.84203 7.71019C11.7415 5.81113 14.8215 5.81075 16.7209 7.71019C18.6263 9.61554 18.6139 12.6977 16.7205 14.5887C14.8298 16.4818 11.7477 16.4948 9.84203 14.5891C7.94258 12.6896 7.94296 9.60963 9.84203 7.71019ZM14.1522 12.669L16.2848 10.5364C16.5051 10.3161 16.5051 9.95929 16.2848 9.73897C16.0645 9.51865 15.7073 9.51865 15.4873 9.73897L13.7537 11.4726L12.6645 10.3834C12.4442 10.1631 12.0874 10.1627 11.8667 10.3834L10.3443 11.9057C10.1244 12.1261 10.1244 12.4829 10.3443 12.7032C10.5656 12.9244 10.9232 12.9221 11.1422 12.7032L12.2656 11.5798L13.3548 12.669C13.5743 12.8885 13.9318 12.8894 14.1522 12.669ZM18.1128 18.115C18.6873 18.6895 19.6197 18.6895 20.1942 18.115C20.7687 17.5401 20.7687 16.6084 20.1942 16.0336L18.4102 14.2496C17.895 15.1009 17.1688 15.8169 16.3156 16.3174H16.3152L18.1128 18.115Z" fill="#00B288"/>
</svg>
