<svg width="14" height="14" viewBox="0 0 14 14" fill="none" xmlns="http://www.w3.org/2000/svg">
<path fill-rule="evenodd" clip-rule="evenodd" d="M9.94742 2.58126C9.53125 2.45247 9.09976 2.38739 8.65953 2.38739C6.24506 2.38739 4.30146 4.34549 4.30146 6.74518C4.30146 9.15281 6.25245 11.103 8.65871 11.103C9.09758 11.103 9.53207 11.0368 9.94742 10.9086V13.5899C9.94742 13.8163 9.76367 14.0001 9.53726 14.0001H0.410158C0.183751 14.0001 0 13.8163 0 13.5899V3.17134H2.76118C2.98759 3.17134 3.17134 2.98759 3.17134 2.76118V0H9.53726C9.76367 0 9.94742 0.183751 9.94742 0.410158V2.58126ZM1.42188 10.6915H3.13415C3.36083 10.6915 3.54431 10.5077 3.54431 10.2813C3.54431 10.0549 3.36083 9.87113 3.13415 9.87113H1.42188C1.19547 9.87113 1.01172 10.0549 1.01172 10.2813C1.01172 10.5077 1.19547 10.6915 1.42188 10.6915ZM1.42188 9.05082H3.13415C3.36083 9.05082 3.54431 8.86707 3.54431 8.64066C3.54431 8.41425 3.36083 8.2305 3.13415 8.2305H1.42188C1.19547 8.2305 1.01172 8.41425 1.01172 8.64066C1.01172 8.86707 1.19547 9.05082 1.42188 9.05082ZM1.42188 7.41019H3.13415C3.36083 7.41019 3.54431 7.22644 3.54431 7.00003C3.54431 6.77362 3.36083 6.58987 3.13415 6.58987H1.42188C1.19547 6.58987 1.01172 6.77362 1.01172 7.00003C1.01172 7.22644 1.19547 7.41019 1.42188 7.41019ZM1.42188 5.76955H3.13415C3.36083 5.76955 3.54431 5.5858 3.54431 5.3594C3.54431 5.13299 3.36083 4.94924 3.13415 4.94924H1.42188C1.19547 4.94924 1.01172 5.13299 1.01172 5.3594C1.01172 5.5858 1.19547 5.76955 1.42188 5.76955ZM2.35105 2.35105H0.240378L2.35105 0.240379V2.35105ZM6.15784 4.24377C7.53925 2.86264 9.77926 2.86236 11.1607 4.24377C12.5464 5.62948 12.5374 7.87102 11.1604 9.24633C9.7853 10.6232 7.54379 10.6326 6.15784 9.24661C4.77642 7.8652 4.7767 5.62519 6.15784 4.24377ZM9.29254 7.85016L10.8435 6.29921C11.0037 6.13898 11.0037 5.87949 10.8435 5.71925C10.6832 5.55902 10.4235 5.55902 10.2635 5.71925L9.00269 6.98008L8.21054 6.18792C8.05031 6.02769 7.79081 6.02742 7.6303 6.18792L6.52315 7.29508C6.36319 7.45531 6.36319 7.71481 6.52315 7.87504C6.68404 8.03593 6.94416 8.03426 7.10339 7.87504L7.92042 7.05801L8.71257 7.85016C8.87223 8.00982 9.13225 8.01045 9.29254 7.85016ZM12.1729 11.8109C12.5908 12.2287 13.2689 12.2287 13.6867 11.8109C14.1045 11.3928 14.1045 10.7152 13.6867 10.2971L12.3892 8.99968C12.0146 9.61882 11.4864 10.1395 10.8659 10.5036H10.8656L12.1729 11.8109Z" fill="white"/>
</svg>
