<svg width="16" height="16" viewBox="0 0 16 16" fill="none" xmlns="http://www.w3.org/2000/svg">
<path d="M14.6402 10.9854L12.9719 9.3172C13.6326 7.92907 13.3563 6.25766 12.2518 5.15319C11.8755 4.77688 11.4317 4.4927 10.9478 4.31147V1.41016C10.9478 1.18364 10.7642 1 10.5376 1H3.76131C3.65505 1 3.54909 1.0423 3.47122 1.1202C3.46203 1.12939 1.11982 3.47149 1.11982 3.47149C1.04222 3.54929 1 3.65505 1 3.76131V14.5898C1 14.8164 1.18364 15 1.41018 15H10.5376C10.7642 15 10.9478 14.8164 10.9478 14.5898V11.1781C11.0435 11.1421 11.1381 11.1015 11.2315 11.0571L12.9 12.7256C13.3797 13.2053 14.1604 13.2053 14.6402 12.7256C15.12 12.2458 15.12 11.4652 14.6402 10.9854ZM11.6715 9.75705C10.5558 10.8729 8.75551 10.8651 7.64759 9.75725C6.53815 8.64783 6.53815 6.84265 7.64759 5.73323C8.75324 4.62764 10.5537 4.61528 11.6717 5.73323C12.7788 6.8403 12.7883 8.64034 11.6715 9.75705ZM3.35113 2.40036V3.35102H2.40041C2.53814 3.21329 3.21339 2.53809 3.35113 2.40036ZM10.1275 14.1797H1.82034V4.17133H3.76128C3.98782 4.17133 4.17146 3.98769 4.17146 3.76117V1.82031H10.1275V4.10904C9.97348 4.08954 9.81729 4.07951 9.65957 4.07954C8.68042 4.07956 7.75987 4.46087 7.06752 5.15321C5.63821 6.58247 5.63821 8.90803 7.06752 10.3373C7.77441 11.0442 8.71345 11.4118 9.66182 11.4118C9.8171 11.4118 9.97263 11.4017 10.1275 11.3819V14.1797ZM14.0601 12.1455C13.9002 12.3054 13.64 12.3054 13.48 12.1455L11.9455 10.611C12.1496 10.4479 12.3523 10.2477 12.5256 10.031L14.0601 11.5654C14.22 11.7254 14.22 11.9856 14.0601 12.1455Z" fill="#56595B"/>
<path d="M10.003 7.97995L9.21081 7.18781C9.05074 7.02771 8.79086 7.02765 8.63074 7.18781L7.52354 8.29498C7.36333 8.45516 7.36333 8.71484 7.52354 8.87502C7.68369 9.0352 7.94343 9.03523 8.10361 8.87502L8.92077 8.05788L9.71295 8.85003C9.87302 9.01013 10.1329 9.01018 10.293 8.85003L11.8439 7.29918C12.0041 7.139 12.0041 6.87931 11.8439 6.71913C11.6838 6.55895 11.424 6.55895 11.2639 6.71913L10.003 7.97995Z" fill="#56595B"/>
<path d="M4.7633 7.58984H3.05087C2.82433 7.58984 2.64069 7.77348 2.64069 8C2.64069 8.22652 2.82433 8.41016 3.05087 8.41016H4.7633C4.98984 8.41016 5.17348 8.22652 5.17348 8C5.17348 7.77348 4.98981 7.58984 4.7633 7.58984Z" fill="#56595B"/>
<path d="M4.7633 9.23047H3.05087C2.82433 9.23047 2.64069 9.41411 2.64069 9.64062C2.64069 9.86714 2.82433 10.0508 3.05087 10.0508H4.7633C4.98984 10.0508 5.17348 9.86714 5.17348 9.64062C5.17348 9.41411 4.98981 9.23047 4.7633 9.23047Z" fill="#56595B"/>
<path d="M4.7633 10.8711H3.05087C2.82433 10.8711 2.64069 11.0547 2.64069 11.2812C2.64069 11.5078 2.82433 11.6914 3.05087 11.6914H4.7633C4.98984 11.6914 5.17348 11.5078 5.17348 11.2812C5.17348 11.0547 4.98981 10.8711 4.7633 10.8711Z" fill="#56595B"/>
<path d="M4.7633 5.94922H3.05087C2.82433 5.94922 2.64069 6.13286 2.64069 6.35938C2.64069 6.58589 2.82433 6.76953 3.05087 6.76953H4.7633C4.98984 6.76953 5.17348 6.58589 5.17348 6.35938C5.17348 6.13286 4.98981 5.94922 4.7633 5.94922Z" fill="#56595B"/>
</svg>
