<svg width="23" height="23" viewBox="0 0 23 23" fill="none" xmlns="http://www.w3.org/2000/svg">
<path d="M18.9111 8.47418C18.8722 7.23154 17.8856 6.22768 16.6608 6.18855C16.1569 5.05492 14.8669 4.51147 13.7207 4.9515C12.8275 4.10018 11.4315 4.09914 10.538 4.9515C9.39225 4.51187 8.10181 5.05412 7.59751 6.18855C6.37429 6.22768 5.38612 7.22954 5.3472 8.47378C4.80556 8.72055 4.38694 9.16498 4.16211 9.70324H20.0962C19.8714 9.16498 19.4528 8.72095 18.9111 8.47418Z" fill="#00B288"/>
<path d="M2.69531 10.9012C2.69531 11.9774 2.95513 13.0299 3.44175 13.9695C4.42991 14.1472 5.31235 14.6383 5.98567 15.3379C7.04656 13.7463 8.84051 12.6981 10.8711 12.6981H12.0503V13.896C12.0503 15.8534 11.1215 17.5944 9.68796 18.6877H16.8457V18.0704C16.8457 17.5968 17.1212 17.1664 17.5473 16.9743C19.8559 15.934 21.5625 13.3496 21.5625 10.9012H2.69531Z" fill="#00B288"/>
<path d="M10.8711 13.8959C8.27025 13.8959 6.1543 16.0454 6.1543 18.6875C8.75514 18.6875 10.8711 16.538 10.8711 13.8959Z" fill="#00B288"/>
<path d="M2.6167 15.0939H1.4375C1.4375 17.0755 3.02447 18.6876 4.9751 18.6876H6.1543C6.1543 16.706 4.56733 15.0939 2.6167 15.0939Z" fill="#00B288"/>
</svg>
