<svg width="109" height="120" viewBox="0 0 109 120" fill="none" xmlns="http://www.w3.org/2000/svg">
<path d="M4.91783 22.0814C4.91783 22.6405 4.94119 23.1653 4.91358 23.688C4.57594 29.9836 9.5025 33.1411 13.4522 33.9101C14.2804 34.0708 15.1362 34.1586 15.9792 34.1586C33.2498 34.1714 50.5182 34.1629 67.7888 34.1671C70.5685 34.1671 73.1018 33.4003 75.3081 31.6845C77.695 29.8294 78.9839 27.4002 78.9287 24.3092C78.916 23.5723 78.9287 22.8333 78.9287 22.0621C81.5343 22.9168 83.7279 26.0207 83.8319 28.9404C83.8787 30.2235 83.8872 31.5131 83.8256 32.7941C83.8022 33.2589 83.5962 33.758 83.3478 34.1629C78.1069 42.5963 72.8343 51.0105 67.6125 59.4546C67.0816 60.3115 66.8268 61.3397 66.434 62.2844C66.3299 62.5328 66.2471 62.8435 66.0539 62.9913C63.391 65.0263 62.5246 67.9716 62.0064 71.0884C61.7261 72.7764 61.5244 74.4751 61.2292 76.1609C61.1464 76.6343 60.9426 77.127 60.6644 77.5147C59.6175 78.9756 59.2926 80.5993 59.5262 82.4008C52.2319 82.4008 45.0226 82.4008 37.8111 82.4008C29.247 82.4008 20.6828 82.4008 12.1187 82.4051C10.4666 82.4051 9.56408 83.1163 9.50887 84.423C9.46003 85.5819 10.2245 86.4944 11.3733 86.6165C11.7237 86.6529 12.0804 86.6336 12.4351 86.6336C27.6522 86.6336 42.8693 86.6251 58.0864 86.6486C59.3478 86.6486 60.4138 86.4558 60.9744 85.132C62.3313 86.2887 63.7307 87.137 65.5081 87.1306C67.4087 87.1242 69.0841 86.4601 70.0588 84.8493C71.093 83.1441 72.6729 82.2123 74.1636 81.0899C75.8836 79.7939 77.6122 78.4851 79.1666 77.0027C80.0627 76.148 80.6233 74.9378 81.4218 73.7596C82.0758 74.2437 82.8551 74.775 83.5729 75.3833C83.7661 75.5483 83.8341 75.9488 83.8362 76.2402C83.8468 88.0196 83.8765 99.8011 83.8213 111.581C83.8065 114.633 82.0992 116.788 79.6125 118.345C77.7927 119.487 75.7711 119.986 73.6454 119.986C52.5186 119.999 31.3917 120.01 10.2648 119.986C7.02011 119.982 4.14912 118.913 1.93853 116.398C0.64319 114.926 0.00188757 113.185 0.00188757 111.21C0.00188757 83.971 -0.00235946 56.7342 0.00188757 29.4952C0.00188757 26.2178 2.15938 22.9297 4.91358 22.0793L4.91783 22.0814ZM41.9031 100.125C51.7074 100.125 61.5095 100.125 71.3138 100.125C71.6684 100.125 72.0231 100.142 72.3756 100.116C73.6794 100.017 74.4885 99.0021 74.3207 97.6976C74.1721 96.5366 73.3248 95.9068 71.8404 95.9068C51.9155 95.9025 31.9884 95.9025 12.0635 95.9046C11.781 95.9046 11.4922 95.9004 11.2183 95.9518C9.98029 96.1831 9.23706 97.3934 9.56621 98.6058C9.83589 99.5955 10.6513 100.125 11.9594 100.125C21.9399 100.127 31.9205 100.125 41.901 100.125H41.9031ZM36.9935 59.6496C45.237 59.6496 53.4805 59.6496 61.724 59.6496C62.0786 59.6496 62.4354 59.6731 62.7836 59.6324C63.822 59.5146 64.6014 58.6514 64.6354 57.6146C64.6672 56.6121 64.0132 55.7274 63.013 55.5196C62.5692 55.4275 62.0999 55.4339 61.6433 55.4339C45.2264 55.4296 28.8095 55.4296 12.3947 55.4361C11.9042 55.4361 11.3946 55.4468 10.9274 55.5753C9.94419 55.8474 9.39845 56.7642 9.51524 57.8031C9.62354 58.7649 10.354 59.5253 11.3075 59.6282C11.6918 59.671 12.0847 59.6474 12.4733 59.6474C20.6467 59.6474 28.818 59.6474 36.9914 59.6474L36.9935 59.6496ZM29.4444 73.1384C34.3965 73.1384 39.3485 73.1384 44.3006 73.1384C45.3623 73.1384 46.4241 73.1727 47.4837 73.1234C48.5667 73.0741 49.3439 72.273 49.4352 71.2234C49.5287 70.1287 48.8428 69.2098 47.7322 68.9934C47.3542 68.9206 46.9592 68.9227 46.5727 68.9227C35.9976 68.9185 25.4225 68.9206 14.8453 68.9206C13.8196 68.9206 12.794 68.9142 11.7683 68.9249C10.8998 68.9334 10.1735 69.2269 9.74458 70.0473C8.95251 71.5597 10.0036 73.1341 11.832 73.1384C17.7035 73.1491 23.575 73.1427 29.4466 73.1427L29.4444 73.1384Z" fill="white"/>
<path d="M28.1415 15.1538C28.1415 13.2495 28.1415 11.5422 28.1415 9.83495C28.1415 7.19374 28.133 4.55468 28.1436 1.91347C28.15 0.71389 28.666 0.146234 29.8467 0.0284183C30.3011 -0.0187079 30.764 0.00699726 31.2248 0.00699726C38.5467 0.00699726 45.8686 0.00699726 53.1905 0.00699726C55.2758 0.00699726 55.7281 0.471833 55.7302 2.59894C55.7323 6.34547 55.7302 10.092 55.7302 13.8385C55.7302 14.2241 55.7302 14.6097 55.7302 15.1559C56.1995 15.1559 56.5732 15.1559 56.947 15.1559C60.4125 15.1559 63.8802 15.1559 67.3458 15.1559C69.0043 15.1559 70.5863 15.4601 71.9899 16.4005C73.7588 17.5851 74.7675 19.2002 74.7165 21.4066C74.6953 22.2977 74.6613 23.1952 74.7229 24.0821C74.9714 27.6936 72.1917 29.9643 69.2591 30.4998C68.6029 30.6197 67.9234 30.6583 67.2524 30.6583C50.5934 30.6669 33.9323 30.6583 17.2733 30.6733C14.9905 30.6754 12.8267 30.4098 11.0344 28.7968C9.77518 27.6637 9.11477 26.267 9.12114 24.5576C9.12326 23.7008 9.12114 22.8439 9.12114 21.9892C9.12114 18.1506 11.3593 15.5779 15.1838 15.2566C17.2924 15.0788 19.4244 15.1709 21.5458 15.1602C23.697 15.1474 25.8481 15.1581 28.1393 15.1581L28.1415 15.1538Z" fill="white"/>
<path d="M103.709 33.4858C102.972 34.6468 102.29 35.7178 101.613 36.791C94.6581 47.8014 87.7015 58.8118 80.7469 69.8222C79.6406 71.5745 78.702 71.7908 76.9819 70.6833C75.0432 69.4366 73.1044 68.1921 71.1678 66.9389C69.7216 66.005 69.4732 64.9768 70.3927 63.518C78.8613 50.0935 87.3341 36.6732 95.8154 23.2573C96.599 22.017 97.3507 21.8285 99.0156 22.3661C101.339 19.6607 103.042 19.108 104.961 20.4361C106.762 21.6828 106.928 23.615 105.477 26.4061C106.775 28.1969 106.8 28.5033 105.758 30.2598C105.889 30.459 106.032 30.6946 106.195 30.911C108.661 34.1755 108.935 38.2734 106.794 41.7329C103.817 46.544 100.77 51.3102 97.7415 56.0892C97.0747 57.1431 96.1063 57.4023 95.2166 56.8304C94.3438 56.2691 94.1803 55.2816 94.8577 54.2042C97.7924 49.5322 100.742 44.871 103.692 40.2098C104.953 38.2134 105.121 36.1527 104.076 34.017C104.002 33.8671 103.885 33.7385 103.711 33.4858H103.709Z" fill="white"/>
<path d="M65.1107 84.5021C63.3715 84.5406 62.3012 83.0605 63.1188 82.0579C64.8112 79.9865 64.6116 77.4589 65.1531 75.1068C65.5651 73.3139 66.0259 71.5338 66.527 69.7644C66.646 69.3403 66.9284 68.8519 67.2809 68.6398C67.6504 68.417 68.3214 68.2778 68.6421 68.4706C71.0353 69.9187 73.3648 71.4695 75.7325 72.9583C76.4333 73.3996 76.5819 74.0186 76.1126 74.567C75.0848 75.7645 74.0188 76.9555 72.8148 77.9665C71.6023 78.9862 70.239 79.8409 68.8778 80.6613C67.6865 81.3789 66.8158 82.33 66.1193 83.5253C65.8475 83.9944 65.3166 84.3093 65.1107 84.5021Z" fill="white"/>
</svg>
