<svg width="26" height="27" viewBox="0 0 26 27" fill="none" xmlns="http://www.w3.org/2000/svg">
<path d="M26.0002 16.9665C26.0002 16.7155 25.8887 16.4777 25.6963 16.3167L20.6233 12.0892C20.3723 11.8795 20.0188 11.8349 19.7233 11.9736C19.426 12.1123 19.2361 12.4112 19.2361 12.739V13.5845H15.8541V11.8935H10.7811V13.5845H6.55352C6.08618 13.5845 5.70801 13.9627 5.70801 14.43V19.5031C5.70801 19.9704 6.08618 20.3486 6.55352 20.3486H19.2361V21.1941C19.2361 21.5219 19.426 21.8208 19.7233 21.9595C20.0211 22.0997 20.3719 22.0525 20.6233 21.8439L25.6964 17.6163C25.8887 17.4554 26.0002 17.2175 26.0002 16.9665Z" fill="#38B68C"/>
<path d="M6.91165 1.77106C6.61769 1.63398 6.26596 1.67777 6.01163 1.88667L0.938585 6.17058C0.74626 6.33156 0.634766 6.56938 0.634766 6.82038C0.634766 7.07138 0.74626 7.30919 0.938641 7.47018L6.01169 11.6977C6.26602 11.9088 6.61735 11.9519 6.9117 11.8133C7.20893 11.6746 7.39883 11.3757 7.39883 11.0479V10.2024H20.0814C20.5488 10.2024 20.927 9.82424 20.927 9.3569V4.22749C20.927 3.76015 20.5488 3.38198 20.0814 3.38198H7.39883V2.53647C7.39883 2.2087 7.20893 1.90978 6.91165 1.77106Z" fill="#38B68C"/>
<path d="M15.0088 0H11.6268C11.1598 0 10.7812 0.378562 10.7812 0.845508V1.69102H15.8543V0.845508C15.8543 0.378562 15.4757 0 15.0088 0Z" fill="#38B68C"/>
<path d="M15.0088 28.86C15.4757 28.86 15.8543 28.4814 15.8543 28.0145V22.0396H10.7812V28.0145C10.7812 28.4814 11.1598 28.86 11.6268 28.86H15.0088Z" fill="#38B68C"/>
</svg>
