<svg width="107" height="107" viewBox="0 0 107 107" fill="none" xmlns="http://www.w3.org/2000/svg">
<path d="M53.5007 53.2317C39.7597 53.2317 28.5785 42.7925 28.5785 29.9596C28.5785 17.1267 39.7597 6.6875 53.5007 6.6875C67.2416 6.6875 78.4229 17.1267 78.4229 29.9596C78.4229 42.7925 67.2416 53.2317 53.5007 53.2317Z" fill="white"/>
<path d="M42.7144 62.4285C42.2368 62.4286 41.766 62.3221 41.3414 62.1179C40.9168 61.9137 40.5506 61.6178 40.2732 61.2547C39.9958 60.8916 39.8154 60.4719 39.7468 60.0306C39.6783 59.5892 39.7237 59.1389 39.8792 58.7172C40.5913 56.782 40.9829 54.355 40.9829 51.8826C40.9823 50.8053 40.9066 49.7293 40.7562 48.6612C40.7018 48.2957 40.7254 47.9238 40.8255 47.5669C40.9257 47.2099 41.1004 46.875 41.3396 46.5813C41.5788 46.2876 41.8779 46.0409 42.2196 45.8556C42.5612 45.6702 42.9388 45.5497 43.3305 45.501C43.7222 45.4524 44.1203 45.4765 44.502 45.572C44.8837 45.6675 45.2414 45.8326 45.5546 46.0576C45.8677 46.2827 46.1301 46.5633 46.3267 46.8834C46.5233 47.2035 46.6502 47.5568 46.7 47.9228C46.8838 49.2357 46.9752 50.5585 46.9736 51.8826C46.9736 55.0024 46.4808 57.9963 45.5439 60.5388C45.3412 61.0894 44.9598 61.5673 44.4526 61.906C43.9455 62.2447 43.3379 62.4274 42.7144 62.4285Z" fill="white"/>
<path d="M64.2804 62.4293C63.6557 62.4292 63.0466 62.2468 62.5384 61.9076C62.0301 61.5685 61.6479 61.0896 61.4453 60.5378C60.5083 57.9989 60.0174 55.005 60.0174 51.8834C60.0149 50.5581 60.107 49.234 60.2928 47.9201C60.3453 47.5555 60.4741 47.204 60.6719 46.8858C60.8698 46.5676 61.1329 46.289 61.4461 46.0657C61.7593 45.8425 62.1165 45.679 62.4974 45.5847C62.8782 45.4903 63.2752 45.467 63.6658 45.5159C64.0563 45.5649 64.4327 45.6852 64.7734 45.8699C65.1141 46.0547 65.4126 46.3003 65.6517 46.5928C65.8907 46.8853 66.0658 47.2189 66.1668 47.5745C66.2678 47.9301 66.2929 48.3009 66.2404 48.6655C66.0913 49.7325 66.0174 50.8074 66.0193 51.8834C66.0193 54.3576 66.411 56.7828 67.123 58.718C67.2786 59.1399 67.324 59.5903 67.2553 60.0318C67.1867 60.4733 67.0061 60.8931 66.7285 61.2562C66.4509 61.6193 66.0844 61.9153 65.6596 62.1193C65.2347 62.3234 64.7638 62.4297 64.286 62.4293H64.2804Z" fill="white"/>
<path fill-rule="evenodd" clip-rule="evenodd" d="M72.803 56.8304V67.7917C71.5472 68.2059 70.3932 68.8789 69.4335 69.7751C67.7442 71.3525 66.7952 73.4919 66.7952 75.7227V81.336C66.7952 82.0786 67.1111 82.7907 67.6734 83.3157C68.2356 83.8407 68.9982 84.1357 69.7934 84.1357C70.5886 84.1357 71.3511 83.8407 71.9134 83.3157C72.4757 82.7907 72.7915 82.0786 72.7915 81.336V75.7227C72.7915 74.977 73.1088 74.2618 73.6735 73.7344C74.2383 73.2071 75.0042 72.9108 75.8028 72.9108C76.6015 72.9108 77.3674 73.2071 77.9321 73.7344C78.4968 74.2618 78.8141 74.977 78.8141 75.7227V81.336C78.8141 82.0786 79.13 82.7907 79.6922 83.3157C80.2545 83.8407 81.0171 84.1357 81.8122 84.1357C82.6074 84.1357 83.37 83.8407 83.9323 83.3157C84.4945 82.7907 84.8104 82.0786 84.8104 81.336V75.7227C84.8104 73.4919 83.8614 71.3525 82.1721 69.7751C81.2116 68.8782 80.0564 68.2047 78.7993 67.7906V57.2598C84.3551 58.2405 89.4546 60.8661 93.3196 64.782C97.8153 69.337 100.312 75.3044 100.312 81.4989V97.5129C100.312 98.2554 99.9966 98.9675 99.4344 99.4925C98.8721 100.018 98.1095 100.313 97.3143 100.313H9.68566C8.8905 100.313 8.1279 100.018 7.56564 99.4925C7.00338 98.9675 6.6875 98.2554 6.6875 97.5129V81.4989C6.68845 75.3044 9.18474 69.337 13.6804 64.782C17.5455 60.8659 22.6453 58.2403 28.2013 57.2597V68.0913C27.0196 68.496 25.9407 69.137 25.0431 69.9752C23.8255 71.1121 22.9964 72.5607 22.6605 74.1376C22.3245 75.7146 22.4969 77.3492 23.1559 78.8346C23.8148 80.3201 24.9307 81.5898 26.3623 82.483C27.794 83.3763 29.4772 83.8531 31.1991 83.8531C33.5073 83.8508 35.7202 82.9936 37.3523 81.4695C38.9845 79.9454 39.9025 77.879 39.905 75.7236C39.905 74.1157 39.3944 72.544 38.4378 71.2071C37.4811 69.8702 36.1215 68.8282 34.5307 68.2129C34.4204 68.1703 34.3094 68.1298 34.1976 68.0915V56.8304H42.7179C43.2333 56.8306 43.74 56.9548 44.189 57.1911C44.638 57.4274 45.0142 57.7679 45.2813 58.1795L53.5 70.8462L61.7206 58.1795C61.9876 57.7679 62.3638 57.4274 62.8129 57.1911C63.2619 56.9548 63.7686 56.8306 64.284 56.8304H72.803ZM29.6935 73.6217C30.1391 73.3436 30.6631 73.1952 31.1991 73.1952C31.9172 73.1956 32.6058 73.4621 33.1138 73.9361C33.6218 74.4102 33.9077 75.053 33.9087 75.7236C33.909 76.2241 33.7504 76.7135 33.4529 77.1298C33.1554 77.5461 32.7324 77.8707 32.2373 78.0625C31.7422 78.2542 31.1973 78.3046 30.6716 78.2071C30.1459 78.1097 29.6629 77.8689 29.2838 77.5151C28.9046 77.1613 28.6464 76.7105 28.5417 76.2196C28.437 75.7288 28.4905 75.2199 28.6956 74.7575C28.9006 74.2951 29.2479 73.8998 29.6935 73.6217Z" fill="white"/>
</svg>
