<svg width="62" height="62" viewBox="0 0 62 62" fill="none" xmlns="http://www.w3.org/2000/svg">
<path d="M38.1362 33.8082C37.7194 33.8082 37.3811 33.4797 37.3811 33.075C37.3811 32.6703 37.7194 32.3419 38.1362 32.3419C42.4799 32.3419 43.8109 30.9254 44.1979 30.2505C43.4008 29.3703 42.3244 26.9405 42.3244 20.2469C42.3244 20.0435 42.3296 19.7963 42.3352 19.5127C42.3871 17.0157 42.5082 11.1698 39.1709 7.8633C37.4823 6.19013 35.0719 5.34133 32.0072 5.34133C28.9373 5.34133 27.5674 7.00005 27.5105 7.07082C27.2538 7.38981 26.7811 7.44762 26.4526 7.2024C26.1241 6.95719 26.0594 6.50263 26.3099 6.18116C26.3838 6.08746 28.1531 3.875 32.0072 3.875C35.4928 3.875 38.2665 4.87133 40.2493 6.83657C44.0305 10.5821 43.8997 16.8606 43.8447 19.5416C43.8386 19.8137 43.834 20.0515 43.834 20.2459C43.834 27.9274 45.2747 29.2497 45.4066 29.3534C45.7064 29.4859 45.8865 29.797 45.8403 30.1209C45.8188 30.2729 45.227 33.8082 38.1362 33.8082Z" fill="#00B288" stroke="#00B288" stroke-width="0.3"/>
<path d="M23.8609 33.8086C18.953 33.8086 16.3574 30.6043 16.2491 30.4678C16.0987 30.2779 16.0535 30.0286 16.128 29.8004C16.1916 29.601 16.3404 29.4405 16.5329 29.3548C16.6638 29.2516 18.1056 27.9318 18.1056 20.2473C18.1056 16.8371 18.5999 5.7085 24.9623 5.7085C26.5073 5.7085 27.0729 5.89391 27.2105 5.95073C27.5928 6.11022 27.771 6.54135 27.6067 6.91366C27.4455 7.27651 27.0159 7.44796 26.6423 7.30891C26.6002 7.29645 26.1598 7.17433 24.9623 7.17433C19.7655 7.17433 19.6151 18.9085 19.6151 20.2468C19.6151 26.4959 18.6774 29.0288 17.9039 30.0541C18.7513 30.848 20.7556 32.3418 23.8604 32.3418C24.2771 32.3418 24.6154 32.6702 24.6154 33.075C24.6159 33.4802 24.2776 33.8086 23.8609 33.8086Z" fill="#00B288" stroke="#00B288" stroke-width="0.3"/>
<path d="M31.0023 30.7542C25.5098 30.7542 23.6861 25.8956 23.3022 24.6157C22.5816 24.1272 20.6855 22.6315 20.6855 20.4305C20.6855 19.0265 21.2527 18.3212 21.7295 17.9773C22.1304 17.6872 22.464 17.3005 22.6919 16.8614C23.1508 15.9747 23.779 15.3602 24.3867 14.7645C25.5051 13.668 26.6621 12.5341 27.24 9.36772C27.3011 9.03478 27.589 8.78458 27.937 8.76365C28.3014 8.7467 28.6032 8.95753 28.7049 9.281C29.2248 10.9283 31.687 12.2102 34.0675 13.4502C36.1965 14.5592 38.2086 15.6064 39.2418 17.0418C39.4897 17.3847 39.7951 17.6708 40.1508 17.8921C40.6856 18.226 41.3195 18.9373 41.3195 20.43C41.3195 22.631 39.4235 24.1267 38.7028 24.6152C38.3184 25.8956 36.4948 30.7542 31.0023 30.7542ZM28.2876 11.4122C27.5423 13.7538 26.4064 14.8672 25.459 15.7963C24.8867 16.3575 24.3924 16.8424 24.0408 17.5203C23.7077 18.1627 23.2201 18.7279 22.6303 19.1536C22.2715 19.4132 22.1961 19.9914 22.1961 20.4305C22.1961 22.2353 24.3221 23.5147 24.3436 23.5267C24.5227 23.6308 24.6506 23.8033 24.6957 24.0021C24.744 24.218 25.9409 29.2878 31.0033 29.2878C36.0898 29.2878 37.2991 24.0565 37.3109 24.0036C37.355 23.8033 37.4818 23.6303 37.663 23.5262C37.6825 23.5147 39.8105 22.2492 39.8105 20.43C39.8105 19.971 39.7278 19.3714 39.3357 19.1262C38.8137 18.8007 38.3656 18.3825 38.0058 17.8816C37.1784 16.7333 35.2342 15.7205 33.3546 14.7416C31.4478 13.7498 29.4943 12.7335 28.2876 11.4122Z" fill="#00B288" stroke="#00B288" stroke-width="0.3"/>
<path d="M33.0152 54.2113C32.7154 54.2113 32.4311 54.0369 32.3136 53.7493L25.4496 36.9961C25.253 36.5141 25.2037 35.9928 25.3054 35.4879C25.5394 34.3271 26.0979 31.3446 26.2226 28.7424C26.2421 28.3387 26.6009 28.0092 27.012 28.0446C27.4277 28.0635 27.7501 28.4064 27.7306 28.8112C27.6007 31.5096 27.0279 34.5763 26.7877 35.7695C26.7415 35.9988 26.7641 36.2355 26.8534 36.4548L33.7168 53.207C33.8703 53.5828 33.6814 54.01 33.2944 54.1595C33.203 54.1949 33.1086 54.2113 33.0152 54.2113Z" fill="#00B288" stroke="#00B288" stroke-width="0.3"/>
<path d="M33.0139 58.1207C32.5971 58.1207 32.2589 57.7923 32.2589 57.3876V53.8254L21.4644 45.2482C21.1636 45.0095 21.0989 44.5888 21.314 44.2748L22.7783 42.1416L20.6965 41.4678C20.3891 41.3676 20.1807 41.088 20.1807 40.772V35.885C20.1807 35.6901 20.2602 35.5032 20.4029 35.3657L23 32.8537C23.1063 32.739 23.2516 32.6114 23.4102 32.4948C24.2848 31.7771 25.3888 31.343 26.5714 31.2637C26.9815 31.2428 27.348 31.5404 27.3762 31.9441C27.4049 32.3478 27.0913 32.6982 26.6756 32.7256C25.8153 32.7829 25.0116 33.0999 24.352 33.6402C24.237 33.7259 24.1606 33.7927 24.0913 33.8664L21.6907 36.1896V40.2432L24.1944 41.0536C24.4177 41.1263 24.5932 41.2953 24.6692 41.5116C24.7457 41.7274 24.7144 41.9662 24.5835 42.1561L22.9498 44.5355L33.4918 52.9108C33.6678 53.0494 33.7689 53.2582 33.7689 53.478V57.3876C33.7689 57.7923 33.4307 58.1207 33.0139 58.1207Z" fill="#00B288" stroke="#00B288" stroke-width="0.3"/>
<path d="M8.50669 54.5242C8.4528 54.5242 8.39737 54.5187 8.34142 54.5073C7.9344 54.4196 7.67776 54.0273 7.7681 53.6321L9.67247 41.651C10.0143 40.1533 11.0958 38.9182 12.5642 38.3485L20.6559 35.2056C21.0414 35.0585 21.4828 35.2379 21.6368 35.6143C21.7923 35.9906 21.6034 36.4172 21.2159 36.5667L13.1242 39.7097C12.1197 40.1 11.3806 40.9438 11.1466 41.969L9.24221 53.951C9.16419 54.292 8.85264 54.5242 8.50669 54.5242Z" fill="#00B288" stroke="#00B288" stroke-width="0.3"/>
<path d="M14.8977 58.125C14.4809 58.125 14.1427 57.7966 14.1427 57.3919V50.1519C14.1427 48.5465 13.8773 46.9611 13.3543 45.4379L13.1746 44.9121C13.0427 44.5283 13.2573 44.1131 13.6535 43.985C14.0467 43.8579 14.4763 44.0663 14.6082 44.4501L14.7878 44.9749C15.3617 46.6471 15.6527 48.389 15.6527 50.1519V57.3919C15.6527 57.7971 15.3144 58.125 14.8977 58.125Z" fill="#00B288" stroke="#00B288" stroke-width="0.3"/>
<path d="M41.6173 57.1438C41.2006 57.1438 40.8623 56.8153 40.8623 56.4106V50.5462C40.8623 50.1414 41.2006 49.813 41.6173 49.813C42.0341 49.813 42.3723 50.1414 42.3723 50.5462V56.4106C42.3723 56.8153 42.0341 57.1438 41.6173 57.1438Z" fill="#00B288" stroke="#00B288" stroke-width="0.3"/>
<path d="M47.6652 57.1438C47.2484 57.1438 46.9102 56.8153 46.9102 56.4106V50.5462C46.9102 50.1414 47.2484 49.813 47.6652 49.813C48.082 49.813 48.4202 50.1414 48.4202 50.5462V56.4106C48.4202 56.8153 48.082 57.1438 47.6652 57.1438Z" fill="#00B288" stroke="#00B288" stroke-width="0.3"/>
<path d="M31.0013 55.4329C31.0013 54.8927 30.5512 54.4556 29.9948 54.4556C29.4384 54.4556 28.9883 54.8927 28.9883 55.4329C28.9883 55.9732 29.4384 56.4103 29.9948 56.4103C30.5512 56.4103 31.0013 55.9732 31.0013 55.4329Z" fill="#00B288" stroke="#00B288" stroke-width="0.3"/>
<path d="M31.0017 49.021C30.9063 49.021 30.8103 49.0041 30.7169 48.9667C30.3314 48.8142 30.1456 48.3865 30.3032 48.0112L35.1479 36.457C35.2393 36.2377 35.2639 35.9989 35.2177 35.7687C34.9827 34.5834 34.4252 31.5306 34.3231 28.7654C34.3082 28.3617 34.6347 28.0218 35.0514 28.0068C35.0602 28.0068 35.0689 28.0068 35.0792 28.0068C35.4831 28.0068 35.8183 28.3178 35.8331 28.7141C35.9307 31.3761 36.4722 34.3387 36.7001 35.49C36.8022 35.9989 36.7493 36.5247 36.5456 37.0097L31.7008 48.5645C31.5817 48.8491 31.2994 49.021 31.0017 49.021Z" fill="#00B288" stroke="#00B288" stroke-width="0.3"/>
<path d="M32.0676 51.7671C31.8495 51.7671 31.6334 51.6754 31.4835 51.4979C31.2192 51.1849 31.2664 50.7229 31.5898 50.4672L39.0522 44.5351L37.4184 42.1557C37.2876 41.9658 37.2563 41.727 37.3327 41.5112C37.4082 41.2944 37.5842 41.1255 37.8075 41.0532L40.3112 40.2428V36.1892L37.9363 33.892C37.8419 33.7928 37.7654 33.726 37.6818 33.6647C37.0083 33.1075 36.2112 32.7925 35.3392 32.7257C34.9234 32.6933 34.6139 32.3399 34.6463 31.9362C34.6796 31.5325 35.0471 31.2414 35.4593 31.2634C36.6496 31.3561 37.7454 31.7912 38.6272 32.5224C38.7499 32.6111 38.8956 32.7392 39.027 32.8792L41.5985 35.3658C41.7412 35.5034 41.8208 35.6903 41.8208 35.8852V40.7721C41.8208 41.0881 41.6124 41.3677 41.3049 41.4679L39.2231 42.1417L40.6875 44.2749C40.9025 44.5889 40.8379 45.0101 40.5371 45.2483L32.5449 51.6016C32.4059 51.7128 32.2365 51.7671 32.0676 51.7671Z" fill="#00B288" stroke="#00B288" stroke-width="0.3"/>
<path d="M53.4964 54.5236C53.1504 54.5236 52.8389 54.2918 52.7604 53.9499L50.856 41.9688C50.6219 40.9426 49.8828 40.0988 48.8784 39.7085L40.7867 36.5655C40.3992 36.4155 40.2108 35.9889 40.3658 35.6131C40.5203 35.2363 40.9622 35.0568 41.3466 35.2044L49.4383 38.3474C50.9068 38.917 51.9883 40.1521 52.3301 41.6509L54.2345 53.6309C54.3248 54.0262 54.0682 54.4184 53.6611 54.5061C53.6067 54.5176 53.5503 54.5236 53.4964 54.5236Z" fill="#00B288" stroke="#00B288" stroke-width="0.3"/>
<path d="M31.1174 42.1039C29.7798 42.1039 28.4427 41.7506 27.2709 41.0493C26.9163 40.8365 26.8059 40.385 27.024 40.0406C27.2422 39.6972 27.7062 39.589 28.0629 39.8008C29.8193 40.8525 32.0397 40.9178 33.8593 39.9728C34.2298 39.7809 34.6851 39.9165 34.8817 40.2723C35.0783 40.6292 34.9397 41.0743 34.5732 41.2651C33.4948 41.8253 32.3056 42.1039 31.1174 42.1039Z" fill="#00B288" stroke="#00B288" stroke-width="0.3"/>
<path d="M48.4115 56.4104C48.4115 56.8151 48.0732 57.1436 47.6565 57.1436H41.6173C41.2006 57.1436 40.8623 56.8151 40.8623 56.4104C40.8623 56.0057 41.2006 55.6772 41.6173 55.6772H47.6565C48.0732 55.6772 48.4115 56.0057 48.4115 56.4104Z" fill="#00B288" stroke="#00B288" stroke-width="0.3"/>
</svg>
