<svg width="58" height="63" viewBox="0 0 58 63" fill="none" xmlns="http://www.w3.org/2000/svg">
<path d="M37.5929 34.3403C37.091 34.3403 36.6837 33.9683 36.6837 33.5099C36.6837 33.0516 37.091 32.6796 37.5929 32.6796C42.8239 32.6796 44.4267 31.0754 44.8927 30.3111C43.9328 29.3143 42.6366 26.5626 42.6366 18.9818C42.6366 18.7515 42.6428 18.4716 42.6496 18.1504C42.7121 15.3224 42.8579 8.70188 38.839 4.95725C36.8055 3.06235 33.9029 2.10108 30.2122 2.10108C26.5154 2.10108 24.8656 3.9796 24.797 4.05975C24.488 4.42101 23.9187 4.48649 23.5231 4.20877C23.1275 3.93106 23.0497 3.41627 23.3513 3.05219C23.4403 2.94607 25.5709 0.44043 30.2122 0.44043C34.4097 0.44043 37.7499 1.56879 40.1377 3.79446C44.6912 8.03638 44.5336 15.1469 44.4675 18.1831C44.46 18.4913 44.4545 18.7606 44.4545 18.9807C44.4545 27.6802 46.1895 29.1777 46.3483 29.2951C46.7093 29.4453 46.9263 29.7975 46.8706 30.1644C46.8447 30.3365 46.132 34.3403 37.5929 34.3403Z" fill="#84DFC3" stroke="#84DFC3" stroke-width="0.3"/>
<path d="M20.4007 34.3405C14.4904 34.3405 11.3647 30.7115 11.2343 30.5569C11.0532 30.3418 10.9988 30.0596 11.0884 29.801C11.165 29.5753 11.3443 29.3935 11.5761 29.2964C11.7337 29.1796 13.4699 27.6849 13.4699 18.982C13.4699 15.1199 14.0652 2.5166 21.7271 2.5166C23.5876 2.5166 24.2688 2.72658 24.4344 2.79093C24.8949 2.97156 25.1094 3.45982 24.9116 3.88147C24.7175 4.2924 24.2001 4.48658 23.7502 4.32909C23.6995 4.31498 23.1692 4.17669 21.7271 4.17669C15.4689 4.17669 15.2878 17.4658 15.2878 18.9814C15.2878 26.0587 14.1585 28.9273 13.227 30.0884C14.2475 30.9875 16.6612 32.6792 20.4001 32.6792C20.902 32.6792 21.3093 33.0512 21.3093 33.5096C21.3099 33.9685 20.9026 34.3405 20.4007 34.3405Z" fill="#84DFC3" stroke="#84DFC3" stroke-width="0.3"/>
<path d="M29.0011 30.8813C22.3868 30.8813 20.1907 25.3789 19.7283 23.9294C18.8605 23.3762 16.5773 21.6823 16.5773 19.1896C16.5773 17.5995 17.2603 16.8008 17.8345 16.4113C18.3172 16.0828 18.719 15.6448 18.9934 15.1475C19.546 14.1433 20.3026 13.4473 21.0344 12.7728C22.3812 11.531 23.7744 10.2468 24.4704 6.66079C24.544 6.28373 24.8907 6.00037 25.3098 5.97666C25.7486 5.95747 26.1121 6.19624 26.2345 6.56257C26.8606 8.42812 29.8256 9.87992 32.6924 11.2843C35.2563 12.5402 37.6792 13.7262 38.9235 15.3518C39.222 15.7402 39.5898 16.0642 40.0181 16.3148C40.6622 16.693 41.4255 17.4985 41.4255 19.189C41.4255 21.6817 39.1423 23.3756 38.2744 23.9288C37.8115 25.3789 35.6154 30.8813 29.0011 30.8813ZM25.732 8.97621C24.8345 11.6281 23.4666 12.8891 22.3256 13.9412C21.6364 14.5768 21.0412 15.126 20.6178 15.8937C20.2166 16.6213 19.6295 17.2614 18.9193 17.7434C18.4872 18.0375 18.3963 18.6923 18.3963 19.1896C18.3963 21.2335 20.9565 22.6825 20.9825 22.696C21.1982 22.814 21.3521 23.0093 21.4065 23.2345C21.4646 23.4789 22.906 29.2206 29.0023 29.2206C35.1277 29.2206 36.5839 23.296 36.5982 23.2362C36.6513 23.0093 36.804 22.8134 37.0222 22.6955C37.0457 22.6825 39.6083 21.2493 39.6083 19.189C39.6083 18.6692 39.5088 17.9901 39.0366 17.7124C38.408 17.3438 37.8684 16.8702 37.4351 16.3029C36.4387 15.0024 34.0973 13.8554 31.8338 12.7468C29.5376 11.6235 27.1851 10.4726 25.732 8.97621Z" fill="#84DFC3" stroke="#84DFC3" stroke-width="0.3"/>
<path d="M31.4242 57.4473C31.0632 57.4473 30.7208 57.2498 30.5793 56.9241L22.3134 37.9508C22.0767 37.4049 22.0174 36.8145 22.1397 36.2427C22.4216 34.9281 23.0941 31.5503 23.2443 28.6033C23.2678 28.146 23.6998 27.7729 24.1949 27.813C24.6956 27.8345 25.0838 28.2228 25.0603 28.6812C24.9039 31.7372 24.2141 35.2103 23.9248 36.5616C23.8692 36.8213 23.8964 37.0894 24.0039 37.3378L32.2692 56.3099C32.454 56.7355 32.2265 57.2193 31.7605 57.3886C31.6504 57.4287 31.5367 57.4473 31.4242 57.4473Z" fill="#84DFC3" stroke="#84DFC3" stroke-width="0.3"/>
<path d="M31.4242 61.8747C30.9223 61.8747 30.515 61.5027 30.515 61.0444V57.0102L17.5157 47.2963C17.1535 47.026 17.0756 46.5496 17.3346 46.194L19.0981 43.7781L16.591 43.0149C16.2208 42.9015 15.9698 42.5848 15.9698 42.2269V36.6924C15.9698 36.4717 16.0657 36.26 16.2375 36.1042L19.3651 33.2593C19.493 33.1295 19.6679 32.985 19.8589 32.8529C20.9122 32.0401 22.2417 31.5484 23.6658 31.4587C24.1597 31.435 24.601 31.772 24.635 32.2292C24.6696 32.6864 24.2919 33.0832 23.7913 33.1143C22.7554 33.1792 21.7874 33.5382 20.9931 34.15C20.8547 34.2471 20.7626 34.3228 20.6792 34.4063L17.7883 37.0373V41.628L20.8034 42.5458C21.0723 42.6283 21.2837 42.8196 21.3751 43.0646C21.4672 43.309 21.4295 43.5794 21.2719 43.7944L19.3045 46.4892L31.9997 55.9744C32.2117 56.1313 32.3334 56.3678 32.3334 56.6167V61.0444C32.3334 61.5027 31.9261 61.8747 31.4242 61.8747Z" fill="#84DFC3" stroke="#84DFC3" stroke-width="0.3"/>
<path d="M1.91136 57.801C1.84646 57.801 1.77971 57.7948 1.71234 57.7818C1.22218 57.6825 0.913132 57.2383 1.02192 56.7906L3.31524 43.2219C3.7269 41.5257 5.02924 40.127 6.79762 39.4818L16.542 35.9223C17.0062 35.7558 17.5377 35.959 17.7232 36.3852C17.9104 36.8113 17.683 37.2945 17.2163 37.4639L7.47197 41.0233C6.26235 41.4653 5.37228 42.421 5.09043 43.5821L2.7971 57.1519C2.70315 57.538 2.32796 57.801 1.91136 57.801Z" fill="#84DFC3" stroke="#84DFC3" stroke-width="0.3"/>
<path d="M9.60726 61.8792C9.10537 61.8792 8.69804 61.5072 8.69804 61.0489V52.8495C8.69804 51.0314 8.37848 49.2359 7.74864 47.5109L7.53231 46.9154C7.37345 46.4807 7.63182 46.0105 8.10899 45.8655C8.58245 45.7215 9.09981 45.9575 9.25866 46.3921L9.47499 46.9865C10.166 48.8803 10.5165 50.853 10.5165 52.8495V61.0489C10.5165 61.5078 10.1092 61.8792 9.60726 61.8792Z" fill="#84DFC3" stroke="#84DFC3" stroke-width="0.3"/>
<path d="M41.7839 60.768C41.282 60.768 40.8746 60.396 40.8746 59.9377V53.2961C40.8746 52.8378 41.282 52.4658 41.7839 52.4658C42.2858 52.4658 42.6931 52.8378 42.6931 53.2961V59.9377C42.6931 60.396 42.2858 60.768 41.7839 60.768Z" fill="#84DFC3" stroke="#84DFC3" stroke-width="0.3"/>
<path d="M49.068 60.768C48.5661 60.768 48.1588 60.396 48.1588 59.9377V53.2961C48.1588 52.8378 48.5661 52.4658 49.068 52.4658C49.5699 52.4658 49.9773 52.8378 49.9773 53.2961V59.9377C49.9773 60.396 49.5699 60.768 49.068 60.768Z" fill="#84DFC3" stroke="#84DFC3" stroke-width="0.3"/>
<path d="M29 58.8305C29 58.2187 28.4579 57.7236 27.7879 57.7236C27.1179 57.7236 26.5758 58.2187 26.5758 58.8305C26.5758 59.4424 27.1179 59.9374 27.7879 59.9374C28.4579 59.9374 29 59.4424 29 58.8305Z" fill="#84DFC3" stroke="#84DFC3" stroke-width="0.3"/>
<path d="M29.0002 51.569C28.8853 51.569 28.7697 51.5498 28.6572 51.5074C28.193 51.3347 27.9692 50.8504 28.159 50.4254L33.9932 37.34C34.1033 37.0916 34.1329 36.8212 34.0773 36.5604C33.7942 35.2181 33.123 31.7608 33 28.6291C32.982 28.1719 33.3751 27.787 33.877 27.77C33.8876 27.77 33.8981 27.77 33.9104 27.77C34.3969 27.77 34.8005 28.1222 34.8184 28.571C34.9358 31.5858 35.5879 34.941 35.8624 36.2449C35.9854 36.8212 35.9217 37.4167 35.6763 37.9659L29.8421 51.0519C29.6987 51.3742 29.3587 51.569 29.0002 51.569Z" fill="#84DFC3" stroke="#84DFC3" stroke-width="0.3"/>
<path d="M30.284 54.6792C30.0213 54.6792 29.7611 54.5753 29.5806 54.3744C29.2622 54.0199 29.3191 53.4966 29.7085 53.2071L38.6951 46.4889L36.7277 43.7941C36.5701 43.5791 36.5323 43.3087 36.6244 43.0643C36.7153 42.8187 36.9273 42.6274 37.1962 42.5455L40.2113 41.6277V37.0369L37.3513 34.4353C37.2376 34.323 37.1455 34.2474 37.0448 34.1779C36.2338 33.5469 35.2739 33.1901 34.2237 33.1145C33.7231 33.0778 33.3504 32.6776 33.3893 32.2204C33.4295 31.7632 33.872 31.4335 34.3684 31.4583C35.8018 31.5633 37.1214 32.0561 38.1833 32.8842C38.331 32.9847 38.5066 33.1297 38.6648 33.2883L41.7615 36.1044C41.9333 36.2602 42.0291 36.4719 42.0291 36.6926V42.2272C42.0291 42.585 41.7782 42.9017 41.4079 43.0151L38.9009 43.7783L40.6644 46.1942C40.9233 46.5498 40.8455 47.0268 40.4833 47.2966L30.8588 54.4918C30.6913 54.6177 30.4873 54.6792 30.284 54.6792Z" fill="#84DFC3" stroke="#84DFC3" stroke-width="0.3"/>
<path d="M56.0898 57.801C55.6732 57.801 55.298 57.5385 55.2034 57.1513L52.9101 43.5825C52.6283 42.4203 51.7382 41.4647 50.5286 41.0227L40.7842 37.4632C40.3176 37.2933 40.0907 36.8101 40.2774 36.3845C40.4634 35.9578 40.9956 35.7546 41.4586 35.9216L51.2029 39.4811C52.9713 40.1263 54.2737 41.5251 54.6853 43.2224L56.9786 56.79C57.0874 57.2376 56.7784 57.6819 56.2882 57.7812C56.2227 57.7942 56.1547 57.801 56.0898 57.801Z" fill="#84DFC3" stroke="#84DFC3" stroke-width="0.3"/>
<path d="M29.1405 43.7356C27.5297 43.7356 25.9195 43.3354 24.5084 42.5412C24.0813 42.3002 23.9484 41.7888 24.2111 41.3987C24.4738 41.0098 25.0326 40.8873 25.4621 41.1272C27.5773 42.3182 30.2512 42.3922 32.4423 41.322C32.8886 41.1047 33.4369 41.2582 33.6736 41.6612C33.9103 42.0654 33.7434 42.5694 33.3021 42.7856C32.0035 43.4201 30.5714 43.7356 29.1405 43.7356Z" fill="#84DFC3" stroke="#84DFC3" stroke-width="0.3"/>
<path d="M49.9657 59.9373C49.9657 60.3956 49.5583 60.7676 49.0564 60.7676H41.7839C41.282 60.7676 40.8746 60.3956 40.8746 59.9373C40.8746 59.4789 41.282 59.1069 41.7839 59.1069H49.0564C49.5583 59.1069 49.9657 59.4789 49.9657 59.9373Z" fill="#84DFC3" stroke="#84DFC3" stroke-width="0.3"/>
</svg>
