<svg width="37" height="44" viewBox="0 0 37 44" fill="none" xmlns="http://www.w3.org/2000/svg">
<path d="M29.0834 33.335H29.0833C27.52 33.3381 26.2534 34.6047 26.2502 36.168V36.1681V41.3789C26.0857 41.4107 25.9297 41.4312 25.7943 41.4312H8.59017H8.5816C8.33821 41.4265 8.13421 41.2191 8.13421 40.9753V8.59025C8.13421 8.34361 8.3431 8.13429 8.59017 8.13429H34.397C34.6436 8.13429 34.853 8.34364 34.853 8.59025L34.8521 32.879C34.8521 33.0135 34.8293 33.1694 34.7932 33.335H29.0834ZM34.3971 6.51616H30.905V3.02409C30.905 1.88317 29.9717 0.95 28.8314 0.95H3.02401C1.88317 0.95 0.95 1.88317 0.95 3.02409V35.4092C0.95 36.55 1.88317 37.4833 3.02409 37.4833H6.51624V40.9754C6.51624 42.1163 7.44899 43.0495 8.59033 43.0495H25.7944C26.359 43.0495 27.0373 42.8914 27.6751 42.6385C28.313 42.3855 28.9153 42.0359 29.3263 41.649L34.9805 36.3267C35.3925 35.9394 35.7645 35.3585 36.0334 34.7361C36.3023 34.1136 36.4703 33.4446 36.4703 32.8792L36.4713 8.59042C36.4712 7.44941 35.538 6.51616 34.3971 6.51616ZM6.51607 8.59033V35.8652H3.02401C2.7774 35.8652 2.56805 35.6559 2.56805 35.4093V3.02409C2.56805 2.77748 2.7774 2.56813 3.02401 2.56813H28.8314C29.0776 2.56813 29.2874 2.77751 29.2874 3.02409V6.51624H8.59017C7.44882 6.51624 6.51607 7.44941 6.51607 8.59033ZM33.8715 35.1487L28.2173 40.4704C28.1226 40.5595 28.0027 40.6479 27.8684 40.7339V36.1682C27.8684 35.8345 28.0028 35.5342 28.2252 35.3103C28.4497 35.0879 28.7499 34.9532 29.0834 34.9532H34.0455C33.9877 35.0271 33.9296 35.0938 33.8715 35.1487Z" fill="#00B288" stroke="#00B288" stroke-width="0.1"/>
<path d="M28.8314 13.6016H14.157C13.7099 13.6016 13.3479 13.9635 13.3479 14.4106C13.3479 14.8578 13.7099 15.2197 14.157 15.2197H28.8314C29.278 15.2197 29.6405 14.8578 29.6405 14.4106C29.6405 13.9635 29.278 13.6016 28.8314 13.6016Z" fill="#00B288" stroke="#00B288" stroke-width="0.1"/>
<path d="M28.8314 23.72H14.157C13.7099 23.72 13.3479 24.0819 13.3479 24.529C13.3479 24.9762 13.7099 25.3381 14.157 25.3381H28.8314C29.278 25.3381 29.6405 24.9762 29.6405 24.529C29.6405 24.0818 29.278 23.72 28.8314 23.72Z" fill="#00B288" stroke="#00B288" stroke-width="0.1"/>
<path d="M22.2532 28.7823H14.157C13.7099 28.7823 13.3479 29.1442 13.3479 29.5913C13.3479 30.0384 13.7099 30.4003 14.157 30.4003H22.2532C22.6998 30.4003 23.0617 30.0384 23.0617 29.5913C23.0617 29.1442 22.6998 28.7823 22.2532 28.7823Z" fill="#00B288" stroke="#00B288" stroke-width="0.1"/>
<path d="M28.8314 18.6597H14.157C13.7099 18.6597 13.3479 19.0216 13.3479 19.4687C13.3479 19.9159 13.7099 20.2778 14.157 20.2778H28.8314C29.278 20.2778 29.6405 19.9159 29.6405 19.4687C29.6405 19.0216 29.278 18.6597 28.8314 18.6597Z" fill="#00B288" stroke="#00B288" stroke-width="0.1"/>
</svg>
