<svg width="22" height="22" viewBox="0 0 22 22" fill="none" xmlns="http://www.w3.org/2000/svg">
<g clip-path="url(#clip0_10501_3465)">
<path d="M4.36217 17.3006C4.06605 17.3006 3.82492 17.0782 3.82492 16.8051V2.86195C3.82492 2.58883 4.06605 2.36643 4.36217 2.36643H15.1089C15.405 2.36643 15.6462 2.58883 15.6462 2.86195V3.70799H16.7207V2.86195C16.7207 2.04221 15.9977 1.375 15.1085 1.375H4.36217C3.47299 1.375 2.75 2.04184 2.75 2.86195V16.8051C2.75 17.6248 3.47299 18.292 4.36217 18.292H5.27946V17.301H4.36217V17.3006Z" fill="#00B288"/>
<path d="M17.6362 3.70801H6.89269C6.00148 3.70801 5.2793 4.37447 5.2793 5.19609V19.1381C5.2793 19.9582 6.00229 20.625 6.89106 20.625H14.9511C14.9511 20.625 14.9438 19.2324 14.9381 18.1053C14.934 17.3258 15.6138 16.6901 16.459 16.6833C17.7018 16.6732 19.2504 16.6743 19.2504 16.6743V5.19646C19.2504 4.37447 18.5278 3.70801 17.6366 3.70801H17.6362ZM13.3394 14.6122H9.0576C8.76718 14.6122 8.51668 14.4063 8.50405 14.1392C8.49061 13.8552 8.73623 13.6212 9.0409 13.6212H13.3227C13.6131 13.6212 13.8636 13.827 13.8762 14.0941C13.8896 14.3782 13.644 14.6122 13.3394 14.6122ZM15.4888 12.6297H9.05719C8.76677 12.6297 8.51627 12.4239 8.50365 12.1567C8.4902 11.8727 8.73582 11.6387 9.04049 11.6387H15.4717C15.7621 11.6387 16.0126 11.8446 16.0252 12.1117C16.0387 12.3957 15.7931 12.6297 15.4884 12.6297H15.4888ZM15.4888 10.6472H9.05719C8.76677 10.6472 8.51627 10.4414 8.50365 10.1743C8.4902 9.89025 8.73582 9.6562 9.04049 9.6562H15.4717C15.7621 9.6562 16.0126 9.86207 16.0252 10.1292C16.0387 10.4132 15.7931 10.6472 15.4884 10.6472H15.4888ZM15.4888 8.66477H9.05719C8.76677 8.66477 8.51627 8.4589 8.50365 8.19178C8.4902 7.90777 8.73582 7.67372 9.04049 7.67372H15.4717C15.7621 7.67372 16.0126 7.87959 16.0252 8.1467C16.0387 8.43072 15.7931 8.66477 15.4884 8.66477H15.4888Z" fill="#00B288"/>
<path d="M16.0254 18.4156V20.625L19.2514 17.6589H16.8486C16.394 17.6589 16.0254 17.9978 16.0254 18.4159V18.4156Z" fill="#00B288"/>
</g>
<defs>
<clipPath id="clip0_10501_3465">
<rect width="16.501" height="19.25" fill="white" transform="translate(2.75 1.375)"/>
</clipPath>
</defs>
</svg>
