<svg width="12" height="14" viewBox="0 0 12 14" fill="none" xmlns="http://www.w3.org/2000/svg">
<path d="M1.89844 14H10.1016C10.7801 14 11.332 13.448 11.332 12.7695V4.10156H8.46094C7.78243 4.10156 7.23047 3.5496 7.23047 2.87109V0H1.89844C1.21993 0 0.667969 0.551961 0.667969 1.23047V12.7695C0.667969 13.448 1.21993 14 1.89844 14ZM3.53906 5.76953H8.46094C8.68764 5.76953 8.87109 5.95298 8.87109 6.17969C8.87109 6.40639 8.68764 6.58984 8.46094 6.58984H3.53906C3.31236 6.58984 3.12891 6.40639 3.12891 6.17969C3.12891 5.95298 3.31236 5.76953 3.53906 5.76953ZM3.53906 7.41016H8.46094C8.68764 7.41016 8.87109 7.59361 8.87109 7.82031C8.87109 8.04702 8.68764 8.23047 8.46094 8.23047H3.53906C3.31236 8.23047 3.12891 8.04702 3.12891 7.82031C3.12891 7.59361 3.31236 7.41016 3.53906 7.41016ZM3.53906 9.05078H8.46094C8.68764 9.05078 8.87109 9.23423 8.87109 9.46094C8.87109 9.68764 8.68764 9.87109 8.46094 9.87109H3.53906C3.31236 9.87109 3.12891 9.68764 3.12891 9.46094C3.12891 9.23423 3.31236 9.05078 3.53906 9.05078ZM3.53906 10.6914H6.82031C7.04702 10.6914 7.23047 10.8749 7.23047 11.1016C7.23047 11.3283 7.04702 11.5117 6.82031 11.5117H3.53906C3.31236 11.5117 3.12891 11.3283 3.12891 11.1016C3.12891 10.8749 3.31236 10.6914 3.53906 10.6914Z" fill="white"/>
<path d="M8.46094 3.28125H11.0917L8.05078 0.240326V2.8711C8.05078 3.09739 8.23464 3.28125 8.46094 3.28125Z" fill="white"/>
</svg>
