<svg width="25" height="25" viewBox="0 0 25 25" fill="none" xmlns="http://www.w3.org/2000/svg">
<path d="M6.32023 11.3953C6.44679 11.1156 6.72492 10.9375 7.03117 10.9375H10.1562V0.78125C10.1562 0.35 10.5062 0 10.9374 0H14.0624C14.4937 0 14.8437 0.35 14.8437 0.78125V10.9375H17.9687C18.2749 10.9375 18.553 11.1172 18.6796 11.3953C18.8077 11.675 18.7577 12.0016 18.5562 12.2328L13.0874 18.4828C12.939 18.6531 12.7249 18.75 12.4999 18.75C12.2749 18.75 12.0608 18.6516 11.9124 18.4828L6.44367 12.2328C6.24054 12.0031 6.19367 11.675 6.32023 11.3953Z" fill="#00B288"/>
<path d="M3.90625 17.1875V21.875H21.0938V17.1875H24.2188V23.4375C24.2188 24.3016 23.5187 25 22.6562 25H2.34375C1.47969 25 0.78125 24.3016 0.78125 23.4375V17.1875H3.90625Z" fill="#00B288"/>
</svg>
