<svg width="44" height="44" viewBox="0 0 44 44" fill="none" xmlns="http://www.w3.org/2000/svg">
<g clip-path="url(#clip0_618:1269)">
<path d="M12.9999 0C16.4746 0 19.7382 1.35253 22.1914 3.80766L40.1914 21.8077C42.6465 24.2636 44 27.5283 44 31.0001C44 38.168 38.168 44.0001 31 44.0001C27.5253 44.0001 24.2617 42.6476 21.8085 40.1924L3.8085 22.1934C1.35337 19.7373 -9.53674e-05 16.4726 -9.53674e-05 12.9999C0 5.832 5.832 0 12.9999 0ZM23.2226 38.7783C25.2988 40.8555 28.0605 42 31 42C37.0645 42 41.9999 37.0655 41.9999 31.0001C41.9999 28.0626 40.8554 25.2999 38.7773 23.2217L30.4843 14.9288L14.9294 30.4856L23.2226 38.7783ZM5.22263 20.7793L13.5154 29.0715L29.0703 13.5146L20.7774 5.22169C18.7012 3.14456 15.9395 1.99997 13 1.99997C6.93554 1.99997 1.99997 6.9346 1.99997 13C1.99997 15.9384 3.14447 18.7012 5.22263 20.7793Z" fill="#00B288"/>
<path d="M31.3633 18.6367L37.3633 24.6358C39.0645 26.336 40 28.5958 40 31C40 31.5528 39.5527 32.0001 39 32.0001C38.4472 32.0001 37.9999 31.5528 37.9999 31C37.9999 29.1308 37.2714 27.3721 35.9492 26.0498L29.9491 20.0508C29.5585 19.6601 29.5585 19.0273 29.9491 18.6367C30.3399 18.2461 30.9727 18.2461 31.3633 18.6367Z" fill="#00B288"/>
</g>
<defs>
<clipPath id="clip0_618:1269">
<rect width="44" height="44" fill="white" transform="matrix(-1 0 0 1 44 0)"/>
</clipPath>
</defs>
</svg>
