<svg width="27" height="27" viewBox="0 0 27 27" fill="none" xmlns="http://www.w3.org/2000/svg">
<g clip-path="url(#clip0_330:682)">
<path d="M24.8996 2.08136C22.1229 -0.693787 17.6064 -0.693787 14.8297 2.08136L8.95898 7.95207L15.6243 14.6174C16.9961 13.475 18.7354 12.7597 20.6558 12.7597C21.7573 12.7597 22.8055 12.9885 23.7593 13.3971L24.8996 12.1513C27.6755 9.37537 27.6755 4.85809 24.8996 2.08136Z" fill="white"/>
<path d="M14.516 15.7453L7.84142 9.07074L2.09559 14.8222C-0.680299 17.5981 -0.680299 22.1154 2.09559 24.8921C4.87221 27.6671 9.44148 27.72 12.2182 24.9448L13.383 23.7744C12.9744 22.8206 12.7456 21.7724 12.7456 20.6709C12.7457 18.7998 13.4259 17.1013 14.516 15.7453Z" fill="white"/>
<path d="M14.3281 20.671C14.3281 23.8954 16.7483 26.5269 19.866 26.9202V14.4217C16.7483 14.815 14.3281 17.4464 14.3281 20.671Z" fill="white"/>
<path d="M21.4473 14.4217V26.9202C24.565 26.5269 26.9852 23.8954 26.9852 20.6709C26.9852 17.4465 24.5651 14.815 21.4473 14.4217Z" fill="white"/>
</g>
<defs>
<clipPath id="clip0_330:682">
<rect width="27" height="27" fill="white"/>
</clipPath>
</defs>
</svg>
