<?xml version="1.0" encoding="utf-8"?>
<!-- Generator: Adobe Illustrator 25.3.1, SVG Export Plug-In . SVG Version: 6.00 Build 0)  -->
<svg version="1.1" id="Layer_1" xmlns="http://www.w3.org/2000/svg" xmlns:xlink="http://www.w3.org/1999/xlink" x="0px" y="0px"
	 viewBox="0 0 21 21" style="enable-background:new 0 0 21 21;" xml:space="preserve">
<g>
	<defs>
		<rect id="SVGID_1_" width="21" height="21"/>
	</defs>
	<clipPath id="SVGID_2_">
		<use xlink:href="#SVGID_1_"  style="overflow:visible;"/>
	</clipPath>
	<g class="st0">
		<path class="st1" d="M13,3.5L1.4,15.1c-0.1,0.1-0.1,0.1-0.1,0.2L0,20.4c0,0.2,0,0.3,0.1,0.4C0.2,21,0.3,21,0.5,21c0,0,0.1,0,0.1,0
			l5.1-1.3c0.1,0,0.2-0.1,0.2-0.1L17.5,8L13,3.5z"/>
		<path class="st1" d="M20.3,2L19,0.7c-0.9-0.9-2.4-0.9-3.2,0l-1.6,1.6l4.5,4.5l1.6-1.6c0.4-0.4,0.7-1,0.7-1.6C21,3,20.8,2.4,20.3,2
			z"/>
	</g>
</g>
</svg>
