<svg width="14" height="11" viewBox="0 0 14 11" fill="none" xmlns="http://www.w3.org/2000/svg">
<path fill-rule="evenodd" clip-rule="evenodd" d="M1.22897 0.5H12.7689C12.9527 0.5 13.1255 0.543889 13.2822 0.617556L8.7818 5.20436L8.78084 5.20503L8.78018 5.206L7.31713 6.69715C7.1617 6.85504 6.83623 6.85504 6.68079 6.69715L5.21744 5.20575L5.21613 5.20436L0.715637 0.617584C0.872356 0.543945 1.04521 0.5 1.22897 0.5ZM0 1.74987C0 1.55175 0.0497693 1.36681 0.130877 1.2002L4.34984 5.50003L0.13085 9.79958C0.0497146 9.63297 0 9.44802 0 9.24991V1.74987ZM9.65027 5.50009L13.8692 1.2002C13.9503 1.36681 14.0001 1.55175 14.0001 1.74992V9.24997C14.0001 9.44814 13.9503 9.63309 13.8692 9.7997L9.65027 5.50009ZM9.07053 6.09033L7.89791 7.28551C7.4224 7.77023 6.58573 7.78068 6.09993 7.28551L4.92726 6.09033L0.715576 10.3825C0.872349 10.4561 1.0452 10.5001 1.22897 10.5001H12.7689C12.9526 10.5001 13.1254 10.4562 13.2822 10.3825L9.07053 6.09033Z" fill="black"/>
</svg>
