<svg width="30" height="29" viewBox="0 0 30 29" fill="none" xmlns="http://www.w3.org/2000/svg">
<path d="M13.0082 16.9915C10.2402 14.2235 9.61524 11.4555 9.47424 10.3465C9.43484 10.0398 9.54037 9.7323 9.75974 9.51446L11.9997 7.27546C12.3293 6.94616 12.3877 6.43295 12.1407 6.03796L8.57424 0.499962C8.301 0.0625862 7.73996 -0.095267 7.27874 0.135462L1.55324 2.83196C1.18027 3.01562 0.960898 3.41189 1.00324 3.82546C1.30324 6.67546 2.54574 13.6815 9.43074 20.567C16.3157 27.4525 23.3207 28.6945 26.1722 28.9945C26.5858 29.0368 26.9821 28.8174 27.1657 28.4445L29.8622 22.719C30.0921 22.2587 29.9353 21.6992 29.4997 21.4255L23.9617 17.86C23.567 17.6127 23.0538 17.6708 22.7242 18L20.4852 20.24C20.2674 20.4593 19.9599 20.5649 19.6532 20.5255C18.5442 20.3845 15.7762 19.7595 13.0082 16.9915Z" fill="#00B288"/>
<path d="M24 15.5C23.4477 15.5 23 15.0523 23 14.5C22.9953 10.3598 19.6402 7.00468 15.5 7C14.9477 7 14.5 6.55228 14.5 6C14.5 5.44771 14.9477 5 15.5 5C20.7443 5.00579 24.9942 9.25569 25 14.5C25 15.0523 24.5523 15.5 24 15.5Z" fill="#00B288"/>
<path d="M29 15.5C28.4477 15.5 28 15.0523 28 14.5C27.9923 7.59964 22.4004 2.00772 15.5 2C14.9477 2 14.5 1.55228 14.5 1C14.5 0.447715 14.9477 0 15.5 0C23.5045 0.00881794 29.9912 6.49553 30 14.5C30 14.7652 29.8946 15.0196 29.7071 15.2071C29.5196 15.3946 29.2652 15.5 29 15.5Z" fill="#00B288"/>
</svg>
