<svg width="35" height="35" viewBox="0 0 35 35" fill="none" xmlns="http://www.w3.org/2000/svg">
<path d="M17.5 1.09375C8.45467 1.09375 1.09375 8.45467 1.09375 17.5C1.09375 26.5453 8.45467 33.9062 17.5 33.9062C26.5453 33.9062 33.9062 26.5453 33.9062 17.5C33.9062 8.45467 26.5453 1.09375 17.5 1.09375ZM17.5 31.7188C9.65783 31.7188 3.28125 25.3422 3.28125 17.5C3.28125 9.65777 9.65783 3.28125 17.5 3.28125C25.3422 3.28125 31.7188 9.65777 31.7188 17.5C31.7188 25.3422 25.3422 31.7188 17.5 31.7188Z" fill="#00B288"/>
<path d="M25.4297 13.65H21.35V9.57031C21.35 8.36714 20.3656 7.38281 19.1625 7.38281H15.8375C14.6344 7.38281 13.65 8.36714 13.65 9.57031V13.65H9.57031C8.36721 13.65 7.38281 14.6344 7.38281 15.8375V19.1625C7.38281 20.3656 8.36721 21.35 9.57031 21.35H13.65V25.4297C13.65 26.6328 14.6344 27.6172 15.8375 27.6172H19.1625C20.3656 27.6172 21.35 26.6328 21.35 25.4297V21.35H25.4297C26.6328 21.35 27.6172 20.3656 27.6172 19.1625V15.8375C27.6172 14.6344 26.6328 13.65 25.4297 13.65Z" fill="#00B288"/>
</svg>
