<svg width="14" height="15" viewBox="0 0 14 15" fill="none" xmlns="http://www.w3.org/2000/svg">
<path d="M10.1979 14.5C10.3838 14.501 10.5681 14.4651 10.7399 14.3942C10.9118 14.3233 11.0678 14.2189 11.1988 14.087L13.0956 12.1902C13.226 12.0591 13.2992 11.8817 13.2992 11.6968C13.2992 11.5119 13.226 11.3345 13.0956 11.2033L10.2959 8.40362C10.1648 8.27326 9.98739 8.20009 9.80248 8.20009C9.61757 8.20009 9.44017 8.27326 9.30903 8.40362L8.18915 9.51651C7.41381 9.30978 6.69573 8.9292 6.08938 8.40362C5.56522 7.7963 5.18481 7.07856 4.97649 6.30385L6.08938 5.18397C6.21974 5.05283 6.29291 4.87543 6.29291 4.69052C6.29291 4.50561 6.21974 4.32821 6.08938 4.19707L3.28967 1.39737C3.15853 1.26701 2.98114 1.19384 2.79623 1.19384C2.61132 1.19384 2.43392 1.26701 2.30278 1.39737L0.412979 3.30117C0.281136 3.43222 0.176716 3.58823 0.105815 3.76007C0.034913 3.93192 -0.00105042 4.11617 2.33542e-05 4.30206C0.0635226 6.99138 1.13815 9.558 3.0097 11.4903C4.942 13.3618 7.50862 14.4365 10.1979 14.5ZM2.79973 2.88821L4.61253 4.70102L3.70963 5.60392C3.62411 5.68403 3.56007 5.78432 3.52339 5.8956C3.4867 6.00689 3.47854 6.1256 3.49965 6.24085C3.76126 7.40999 4.31514 8.49367 5.10948 9.39052C6.00563 10.1859 7.08959 10.7399 8.25914 11.0003C8.37266 11.0241 8.49029 11.0192 8.60146 10.9862C8.71264 10.9533 8.81388 10.8932 8.89608 10.8114L9.79898 9.88747L11.6118 11.7003L10.2119 13.1001C7.8908 13.0404 5.67607 12.114 4.0036 10.5034C2.38881 8.83024 1.45979 6.61259 1.39987 4.28806L2.79973 2.88821ZM12.5987 6.8008H13.9985C14.0167 5.96858 13.8661 5.14131 13.556 4.36884C13.2459 3.59637 12.7825 2.89468 12.1939 2.30608C11.6053 1.71748 10.9036 1.25414 10.1312 0.943996C9.35869 0.63385 8.53142 0.483316 7.6992 0.501466V1.90132C8.34867 1.87885 8.99581 1.99021 9.60041 2.22849C10.205 2.46676 10.7541 2.82684 11.2136 3.28636C11.6732 3.74587 12.0332 4.295 12.2715 4.89959C12.5098 5.50419 12.6211 6.15133 12.5987 6.8008Z" fill="black"/>
<path d="M2.79973 2.88821L4.61253 4.70102L3.70963 5.60392C3.62411 5.68403 3.56007 5.78432 3.52339 5.8956C3.4867 6.00689 3.47854 6.1256 3.49965 6.24085C3.76126 7.40999 4.31514 8.49367 5.10948 9.39052C6.00563 10.1859 7.08959 10.7399 8.25914 11.0003C8.37266 11.0241 8.49029 11.0192 8.60146 10.9862C8.71264 10.9533 8.81388 10.8932 8.89608 10.8114L9.79898 9.88747L11.6118 11.7003L10.2119 13.1001C7.8908 13.0404 5.67607 12.114 4.0036 10.5034C2.38881 8.83024 1.45979 6.61259 1.39987 4.28806L2.79973 2.88821Z" fill="black"/>
</svg>
