<svg width="14" height="16" viewBox="0 0 14 16" fill="none" xmlns="http://www.w3.org/2000/svg">
<path d="M5.82812 13.1562H7.29787C6.84462 12.6601 6.563 12.0061 6.563 11.2812C6.563 12.0061 6.28131 12.66 5.82812 13.1562Z" fill="white"/>
<path d="M4.6875 15.5312C4.6875 15.7903 4.89716 16 5.15625 16H7.96875C8.22784 16 8.4375 15.7903 8.4375 15.5312V14.0938H4.6875V15.5312Z" fill="white"/>
<path d="M4.6875 2.84375H8.4375V4.71875H4.6875V2.84375Z" fill="white"/>
<path d="M6.38244 6.57728C6.4035 6.57728 6.46759 6.59375 6.56278 6.59375C6.7175 6.59375 6.78709 6.55072 6.788 6.55072L7.61731 5.65625H5.51172L6.37512 6.58322C6.37328 6.57909 6.37509 6.57728 6.38244 6.57728Z" fill="white"/>
<path d="M8.4375 0.46875C8.4375 0.209656 8.22784 0 7.96875 0H5.15625C4.89716 0 4.6875 0.209656 4.6875 0.46875V1.90625H8.4375V0.46875Z" fill="white"/>
<path d="M11.25 11.2158C11.25 10.298 11.6437 9.42456 12.3294 8.82031C12.8421 8.36803 13.125 7.74366 13.125 7.0625C13.125 5.77022 12.074 4.71875 10.7812 4.71875C10.1331 4.71875 9.50866 4.9925 9.07012 5.46766L7.42584 7.23372C7.28669 7.37744 6.98731 7.53125 6.5625 7.53125C6.13769 7.53125 5.83831 7.37744 5.70741 7.24241L4.05672 5.4695C3.61634 4.9925 2.99194 4.71875 2.34375 4.71875C1.05103 4.71875 0 5.77022 0 7.0625C0 7.74366 0.282906 8.36803 0.795594 8.82031C1.48131 9.42456 1.875 10.298 1.875 11.2812C1.875 12.3153 2.71637 13.1562 3.75 13.1562C4.78363 13.1562 5.625 12.3153 5.625 11.2812C5.625 10.7644 6.04522 10.3438 6.5625 10.3438C7.07978 10.3438 7.5 10.7644 7.5 11.2812C7.5 12.3153 8.34138 13.1562 9.375 13.1562C10.4086 13.1562 11.25 12.3153 11.25 11.2158ZM2.34375 7.53125C2.08488 7.53125 1.875 7.32137 1.875 7.0625C1.875 6.80356 2.08488 6.59375 2.34375 6.59375C2.60262 6.59375 2.8125 6.80356 2.8125 7.0625C2.8125 7.32137 2.60262 7.53125 2.34375 7.53125ZM4.21875 9.40625C3.95988 9.40625 3.75 9.19637 3.75 8.9375C3.75 8.67856 3.95988 8.46875 4.21875 8.46875C4.47762 8.46875 4.6875 8.67856 4.6875 8.9375C4.6875 9.19637 4.47762 9.40625 4.21875 9.40625ZM10.7812 6.59375C11.0401 6.59375 11.25 6.80356 11.25 7.0625C11.25 7.32137 11.0401 7.53125 10.7812 7.53125C10.5224 7.53125 10.3125 7.32137 10.3125 7.0625C10.3125 6.80356 10.5224 6.59375 10.7812 6.59375ZM8.90625 9.40625C8.64738 9.40625 8.4375 9.19637 8.4375 8.9375C8.4375 8.67856 8.64738 8.46875 8.90625 8.46875C9.16512 8.46875 9.375 8.67856 9.375 8.9375C9.375 9.19637 9.16512 9.40625 8.90625 9.40625Z" fill="white"/>
</svg>
