<?xml version="1.0" encoding="UTF-8" standalone="no"?>
<svg
   xmlns:dc="http://purl.org/dc/elements/1.1/"
   xmlns:cc="http://creativecommons.org/ns#"
   xmlns:rdf="http://www.w3.org/1999/02/22-rdf-syntax-ns#"
   xmlns:svg="http://www.w3.org/2000/svg"
   xmlns="http://www.w3.org/2000/svg"
   width="138.0923"
   height="124.32014"
   viewBox="0 0 138.0923 124.32014"
   fill="none"
   version="1.1"
   id="svg24">
  <defs
     id="defs28" />
  <path
     d="m 69.847654,98.420147 c 1.3807,0 2.5,-1.119 2.5,-2.5 0,-1.381 -1.1193,-2.5 -2.5,-2.5 -1.3807,0 -2.5,1.119 -2.5,2.5 0,1.381 1.1193,2.5 2.5,2.5 z"
     fill="#006a51"
     id="path10" />
  <path
     d="m 69.847654,43.620147 c -1.4,0 -2.5,1.1 -2.5,2.6 v 5.9 1.2 3.4 0.4 7.1 0.7 1.9 7.1 0.4 3.4 7.1 c 0,1.4 1.1,2.6 2.5,2.6 1.4,0 2.5,-1.1 2.5,-2.6 v -7.1 -3.4 -0.4 -7.1 -1.9 -0.7 -7.1 -0.4 -3.4 -1.2 -5.9 c 0,-1.4 -1.1,-2.6 -2.5,-2.6 z"
     fill="#006a51"
     id="path12" />
  <path
     d="m 135.14785,119.32015 h -5.9 -1.2 -3.4 -0.4 -7.2 -0.7 -1.9 -2.2 -5 -0.4 -0.6 -1.2 -1.6 -1.8 -0.4 -4.999996 -2.2 -0.7 -1.9 -7.2 -0.2 -3.4 -4.4 -2.7 -3.2 -1.3 -3.4 -0.4 -7.2 -0.7 -1.9 -7.2 -0.4 -3.4 -3.2 -4 -2 -1.2 -3.4 -0.4 -7.2 -0.7 -1.9 -7.2 -0.4 -3.4 -6.8 c -1.4,0 -2.59999999,1.1 -2.59999999,2.5 0,1.4 1.09999999,2.5 2.59999999,2.5 h 7.2 3.4 0.4 7.2 1.9 0.7 7.2 0.4 3.4 1.2 2 4 3.2 3.4 0.4 7.2 1.9 0.7 7.2 0.4 3 1.2 3.2 2.7 4.4 3.5 0.4 7.2 1.9 0.7 2.2 4.999996 0.4 1.8 1.6 1.2 0.6 0.4 5 2.2 1.9 0.7 7.2 0.4 3.4 1.2 5.9 c 1.4,0 2.6,-1.1 2.6,-2.5 -0.2,-1.5 -1.4,-2.5 -2.8,-2.5 z"
     fill="#006a51"
     id="path14" />
  <path
     d="m 0.34824401,120.42015 2.90000999,-5.2 0.6,-1.1 1.6,-2.9 0.2,-0.4 3.5,-6.2 0.3,-0.6 0.9,-1.6 1.1,-1.9 2.4,-4.300003 0.2,-0.4 0.3,-0.5 0.6,-1.1 0.8,-1.4 0.9,-1.6 0.2,-0.4 2.4,-4.2999 1.1,-1.9 0.3,-0.6 0.9,-1.6 3.5,-6.2 0.2,-0.4 1.6,-2.9 2.1,-3.8 1.3,-2.4 1.5,-2.8 0.6,-1.1 1.6,-2.9 0.2,-0.4 3.5,-6.2 0.3,-0.6 0.9,-1.6 3.5,-6.2 0.2,-0.4 1.6,-2.9 1.5,-2.8 1.9,-3.5 0.9,-1.7 0.6,-1.1 1.6,-2.9 0.2,-0.4 3.5,-6.2 0.3,-0.6 0.9,-1.6 3.5,-6.2 0.2,-0.4 1.6,-2.9 3.5,-6.1999997 c 0.7,-1.2 2.2,-1.7 3.4,-1 1.2,0.6 1.6,2.2 0.9,3.4 l -3.5,6.1999997 -1.6,2.9 v 0.5 l -3.5,6.2 -0.9,1.6 -0.3,0.6 -3.5,6.2 -0.2,0.4 -1.6,3 -0.6,1 -0.9,1.7 -2,3.5 -1.5,2.8 -1.6,2.9 -0.2,0.4 -3.5,6.2 -0.9,1.6 -0.3,0.6 -3.5,6.3 -0.2,0.4 -1.6,2.9 -0.7,1 -1.5,2.8 -1.3,2.4 -2.2,3.8 -1.6,2.9 -0.2,0.4 -3.5,6.2 -0.9,1.6 -0.3,0.5999 -1.1,1.9 -2.4,4.3 -0.2,0.4 -0.9,1.6 -0.8,1.4 -0.6,1.1 -0.3,0.5 -0.2,0.4 -2.4,4.300003 -1.1,1.9 -0.9,1.6 -0.3,0.6 -3.5,6.2 -0.2,0.4 -1.6,2.9 -0.6,1.1 -2.9,5.2 c -0.7,1.2 -2.20001,1.7 -3.40001,1 -1.09999999,-0.7 -1.49999999,-2.2 -0.79999999,-3.5 z"
     fill="#006a51"
     id="path16" />
  <path
     d="m 137.74785,120.42015 -2.9,-5.2 -0.6,-1.1 -1.6,-2.9 -0.2,-0.4 -3.5,-6.2 -0.3,-0.6 -0.9,-1.6 -1.1,-1.9 -2.4,-4.300003 -0.2,-0.4 -0.3,-0.5 -0.6,-1.1 -0.8,-1.4 -0.9,-1.6 -0.2,-0.4 -2.4,-4.2999 -1.1,-1.9 -0.3,-0.6 -0.9,-1.6 -3.5,-6.2 -0.2,-0.4 -1.6,-2.9 -2.1,-3.8 -1.3,-2.4 -1.5,-2.8 -0.6,-1.1 -1.6,-2.9 -0.2,-0.4 -3.5,-6.2 -0.3,-0.6 -0.899996,-1.6 -3.5,-6.2 -0.2,-0.4 -1.6,-2.9 -1.4999,-2.8 -1.9,-3.5 -0.9,-1.7 -0.6,-1.1 -1.6,-2.9 -0.2,-0.4 -3.5,-6.2 -0.3,-0.6 -0.9,-1.6 -3.5,-6.2 -0.2,-0.4 -1.6,-2.9 -3.5,-6.1999997 c -0.7,-1.2 -2.2,-1.7 -3.4,-1 -1.2,0.6 -1.6,2.2 -0.9,3.4 l 3.5,6.1999997 1.6,2.9 0.2,0.4 3.5,6.2 0.9,1.6 0.3,0.6 3.5,6.2 0.2,0.4 1.6,2.9 0.6,1.1 0.9,1.7 1.9,3.5 1.5,2.8 1.6,2.9 0.2,0.4 3.4999,6.2 0.9,1.6 0.3,0.6 3.5,6.2 0.2,0.4 1.599996,2.9 0.6,1.1 1.5,2.8 1.3,2.4 2.1,3.8 1.6,2.9 0.2,0.4 3.5,6.2 0.9,1.6 0.3,0.6 1.1,1.8999 2.4,4.3 0.2,0.4 0.9,1.6 0.8,1.4 0.6,1.1 0.3,0.5 0.2,0.4 2.4,4.300003 1.1,1.9 0.9,1.6 0.3,0.6 3.5,6.2 0.2,0.4 1.6,2.9 0.6,1.1 2.9,5.2 c 0.7,1.2 2.2,1.7 3.4,1 1.2,-0.6 1.6,-2.1 0.9,-3.4 z"
     fill="#006a51"
     id="path18" />
  <path
     d="m 135.64785,116.62015 -2.9,-5.2 -0.6,-1.1 -1.6,-2.9 -0.2,-0.4 -3.5,-6.2 -0.3,-0.6 -0.9,-1.600003 -1.1,-1.9 -2.4,-4.3 -0.2,-0.4 -0.3,-0.5 -0.6,-1.1 -0.8,-1.4 -0.9,-1.6 -0.2,-0.4001 -2.4,-4.3 -1.1,-1.9 -0.3,-0.6 -0.9,-1.6 -3.5,-6.2 -0.2,-0.4 -1.6,-2.9 -2.1,-3.8 -1.3,-2.4 -1.5,-2.8 -0.6,-1.1 -1.6,-2.9 -0.2,-0.4 -3.499996,-6.2 -0.3,-0.6 -0.9,-1.6 -3.5,-6.2 -0.2,-0.4 -1.6003,-2.9 -1.7,-2.7 -1.9,-3.5 -0.9,-1.7 -0.6,-1.1 -1.7,-2.9 -0.2,-0.4 -3.5,-6.2 -0.3,-0.5 -0.9,-1.7 -3.5,-6.2 -0.2,-0.4 -1.6,-2.8999997 -3.5,-6.2 c -0.7,-1.20000002 -2.2,-1.70000002 -3.4,-1.00000002 -1.2,0.60000002 -1.6,2.20000002 -0.9,3.40000002 l 3.5,6.1999997 1.6,2.9 0.2,0.4 3.5,6.2 0.9,1.6 0.3,0.6 3.5,6.2 0.2,0.4 1.6,2.9 0.6,1.1 0.9,1.7 1.9,3.5 1.5,2.8 1.6,2.9 0.2,0.4 3.5,6.2 0.9003,1.6 0.3,0.6 3.5,6.2 0.2,0.4 1.6,2.9 0.6,1.1 1.499996,2.8 1.3,2.4 2.1,3.8 1.6,2.9 0.2,0.4 3.5,6.2 0.9,1.6 0.3,0.6 1.1,1.9 2.4,4.3001 0.2,0.4 0.9,1.6 0.8,1.4 0.6,1.1 0.3,0.5 0.2,0.4 2.4,4.3 1.1,1.900003 0.9,1.6 0.3,0.6 3.5,6.2 0.2,0.4 1.6,2.9 0.6,1.1 2.9,5.2 c 0.7,1.2 2.2,1.7 3.4,1 1.5,-0.7 1.9,-2.2 1.2,-3.5 z"
     fill="#006a51"
     id="path20" />
  <path
     d="m 2.447854,116.62015 2.9,-5.2 0.6,-1.1 1.6,-2.9 0.2,-0.4 3.5,-6.2 0.3,-0.6 0.9,-1.600003 1.1,-1.9 2.4,-4.3 0.2,-0.4 0.3,-0.5 0.6,-1.1 0.8,-1.4 0.9,-1.6 0.2,-0.4002 2.4,-4.3 1.1,-1.9 0.3,-0.6 0.9,-1.6 3.5,-6.2 0.2,-0.4 1.6,-2.9 2.1,-3.8 1.3,-2.4 1.5,-2.8 0.6,-1.1 1.6,-2.9 0.2,-0.4 3.5,-6.2 0.3,-0.6 0.9,-1.6 3.5,-6.2 0.2,-0.4 1.6,-2.9 1.5,-2.8 1.9,-3.5 0.9,-1.7 0.6,-1.1 1.6,-2.9 0.2,-0.4 3.5,-6.2 0.3,-0.6 0.9,-1.6 3.5,-6.2 0.2,-0.4 1.6,-2.8999997 3.5,-6.2 c 0.7,-1.20000002 2.2,-1.70000002 3.4,-1.00000002 1.2,0.6 1.6,2.20000002 0.9,3.40000002 l -3.5,6.2 -1.6,2.8999997 -0.2,0.4 -3.5,6.2 -0.9,1.6 -0.3,0.6 -3.5,6.2 -0.2,0.4 -1.6,2.9 -0.4,1.2 -0.9,1.7 -1.9,3.5 -1.5,2.8 -1.7,2.9 -0.2,0.4 -3.5,6.2 -0.9,1.6 -0.4,0.6 -3.5,6.2 -0.2,0.4 -1.6,2.9 -0.6,1.1 -1.5,2.8 -1.3,2.4 -2.1,3.8 -1.6,2.9 -0.2,0.4 -3.6,6.2 -0.9,1.6 -0.3,0.6 -1.1,1.9 -2.4,4.3002 -0.2,0.4 -0.9,1.6 -0.8,1.4 -0.6,1.1 -0.3,0.5 -0.2,0.4 -2.4,4.3 -1.1,1.900003 -0.9,1.6 -0.3,0.6 -3.5,6.2 -0.2,0.4 -1.6,2.9 -0.6,1.1 -2.9,5.2 c -0.7,1.2 -2.2,1.7 -3.4,1 -1.1,-0.7 -1.5,-2.2 -0.8,-3.5 z"
     fill="#006a51"
     id="path22" />
</svg>
