<svg width="65" height="65" viewBox="0 0 65 65" fill="none" xmlns="http://www.w3.org/2000/svg">
<circle cx="32.5" cy="32.5" r="31" stroke="#006A51" stroke-width="3"/>
<path d="M43.9825 21.0604C44.5683 21.6462 44.5683 22.596 43.9825 23.1818L23.182 43.9823C22.5962 44.5681 21.6464 44.5681 21.0606 43.9823V43.9823C20.4749 43.3965 20.4749 42.4467 21.0606 41.861L41.8612 21.0604C42.447 20.4746 43.3967 20.4746 43.9825 21.0604V21.0604Z" fill="#006A51"/>
<path d="M43.9825 43.9823C43.3967 44.5681 42.4469 44.5681 41.8612 43.9823L21.0606 23.1818C20.4748 22.596 20.4748 21.6463 21.0606 21.0605V21.0605C21.6464 20.4747 22.5962 20.4747 23.1819 21.0605L43.9825 41.861C44.5683 42.4468 44.5683 43.3965 43.9825 43.9823V43.9823Z" fill="#006A51"/>
</svg>
