<svg width="60" height="60" viewBox="0 0 60 60" fill="none" xmlns="http://www.w3.org/2000/svg">
<rect width="60" height="60" rx="30" fill="#F7F7F7"/>
<path d="M30.01 37.3028C30.37 37.3028 30.67 37.0285 30.67 36.6857C30.67 36.3428 30.37 36.0685 30.01 36.0685C29.65 36.0685 29.35 36.3428 29.35 36.6857C29.35 37.0285 29.65 37.3028 30.01 37.3028Z" fill="#00664E"/>
<path d="M30.01 27.0344C29.65 27.0344 29.35 27.2401 29.35 27.5144V34.5258C29.35 34.7829 29.63 35.0058 30.01 35.0058C30.39 35.0058 30.67 34.8001 30.67 34.5258V27.5144C30.67 27.2572 30.39 27.0344 30.01 27.0344Z" fill="#00664E"/>
<path fill-rule="evenodd" clip-rule="evenodd" d="M30.0037 18C30.2436 18 30.4834 18.12 30.5834 18.32L43.9174 41.1C44.0373 41.28 44.0173 41.52 43.9174 41.7C43.7974 41.88 43.5775 42 43.3376 42H16.6697C16.4298 42 16.2099 41.88 16.09 41.7C15.97 41.52 15.97 41.28 16.09 41.1L29.4239 18.32C29.5439 18.12 29.7638 18 30.0037 18ZM17.7892 40.78H42.2181L30.0037 19.9L17.7892 40.78Z" fill="#00664E"/>
</svg>
