<svg width="24" height="25" viewBox="0 0 24 25" fill="none" xmlns="http://www.w3.org/2000/svg">
<path d="M12.6719 11.5469V20H11.2188V11.5469H12.6719ZM11.1094 9.30469C11.1094 9.07031 11.1797 8.8724 11.3203 8.71094C11.4661 8.54948 11.6797 8.46875 11.9609 8.46875C12.237 8.46875 12.4479 8.54948 12.5938 8.71094C12.7448 8.8724 12.8203 9.07031 12.8203 9.30469C12.8203 9.52865 12.7448 9.72135 12.5938 9.88281C12.4479 10.0391 12.237 10.1172 11.9609 10.1172C11.6797 10.1172 11.4661 10.0391 11.3203 9.88281C11.1797 9.72135 11.1094 9.52865 11.1094 9.30469Z" fill="#3178CC"/>
<rect x="0.5" y="0.5" width="23" height="23.0141" rx="11.5" stroke="#3178CC"/>
</svg>
