<svg width="20" height="21" viewBox="0 0 20 21" fill="none" xmlns="http://www.w3.org/2000/svg">
<path d="M9.86095 7.46875C8.37746 7.46875 7.17188 8.67434 7.17188 10.1578C7.17188 11.6413 8.37746 12.8469 9.86095 12.8469C11.3444 12.8469 12.55 11.6413 12.55 10.1578C12.55 8.67434 11.3444 7.46875 9.86095 7.46875Z" fill="#00B288"/>
<path d="M9.85997 3.4375C5.37816 3.4375 1.55072 6.22515 0 10.1602C1.55072 14.0952 5.37816 16.8829 9.85997 16.8829C14.3462 16.8829 18.1692 14.0952 19.7199 10.1602C18.1692 6.22515 14.3462 3.4375 9.85997 3.4375ZM9.85997 14.642C7.38601 14.642 5.37816 12.6341 5.37816 10.1602C5.37816 7.6862 7.38601 5.67838 9.85997 5.67838C12.3339 5.67838 14.3418 7.68624 14.3418 10.1602C14.3418 12.6341 12.3339 14.642 9.85997 14.642Z" fill="#00B288"/>
</svg>
