<svg width="32" height="32" viewBox="0 0 32 32" fill="none" xmlns="http://www.w3.org/2000/svg">
<rect width="32" height="32" fill="white"/>
<g clip-path="url(#clip0_4536_79807)">
<g clip-path="url(#clip1_4536_79807)">
<path d="M16 2C8.26259 2 2 8.26155 2 16V28.9062C2 29.5103 2.48967 30 3.09375 30H16C23.7374 30 30 23.7384 30 16C30 8.26259 23.7384 2 16 2Z" fill="#00B288"/>
<path d="M15.5713 20.7698C14.7707 20.7698 14.1226 21.437 14.1226 22.2376C14.1226 23.0192 14.7516 23.7055 15.5713 23.7055C16.3909 23.7055 17.0391 23.0192 17.0391 22.2376C17.0391 21.437 16.372 20.7698 15.5713 20.7698Z" fill="white"/>
<path d="M15.8188 9.65637C13.2453 9.65637 12.0635 11.1813 12.0635 12.2107C12.0635 12.9542 12.6925 13.2973 13.2072 13.2973C14.2365 13.2973 13.8172 11.8295 15.7616 11.8295C16.7147 11.8295 17.4772 12.2489 17.4772 13.1257C17.4772 14.1552 16.4097 14.7461 15.7806 15.2798C15.2279 15.7564 14.5035 16.538 14.5035 18.1773C14.5035 19.1686 14.7703 19.4545 15.5519 19.4545C16.4859 19.4545 16.6765 19.0352 16.6765 18.673C16.6765 17.6817 16.6957 17.1098 17.7441 16.2902C18.2587 15.8899 19.8791 14.5936 19.8791 12.8017C19.8791 11.0098 18.2587 9.65637 15.8188 9.65637Z" fill="white"/>
</g>
</g>
<defs>
<clipPath id="clip0_4536_79807">
<rect width="28" height="28" fill="white" transform="translate(2 2)"/>
</clipPath>
<clipPath id="clip1_4536_79807">
<rect width="28" height="28" fill="white" transform="translate(2 2)"/>
</clipPath>
</defs>
</svg>
