<svg version="1.1" id="Layer_1" xmlns="http://www.w3.org/2000/svg" xmlns:xlink="http://www.w3.org/1999/xlink" x="0" y="0" viewBox="0 0 36 36" style="enable-background:new 0 0 36 36" xml:space="preserve"><defs><path id="SVGID_1_" d="M0 0h36v36H0z"/></defs><clipPath id="SVGID_00000008110435847891547400000012337683057006592128_"><use xlink:href="#SVGID_1_" style="overflow:visible"/></clipPath><g style="clip-path:url(#SVGID_00000008110435847891547400000012337683057006592128_)"><path class="st1" d="M32.57 11.43c.47-.86.72-1.82.72-2.83 0-.58-.08-1.16-.25-1.7.71-.11 1.4-.43 1.94-.98a3.476 3.476 0 0 0 0-4.92 3.476 3.476 0 0 0-5.9 1.94c-.54-.16-1.12-.25-1.7-.25-1 0-1.97.25-2.83.72l8.02 8.02zM20.77 2.62a3.467 3.467 0 0 0-2.61 2.16l13.06 13.06a3.6 3.6 0 0 0 1.2-.78c.51-.51.84-1.14.96-1.83L20.77 2.62zM17.7 7.31l-3.71 1.24L1.02 21.51C.36 22.16 0 23.04 0 23.97s.36 1.8 1.02 2.46l8.56 8.56c.66.66 1.53 1.02 2.46 1.02.93 0 1.8-.36 2.46-1.02l12.96-12.96 1.24-3.71-11-11.01zM6.77 26.32 4.3 23.86l1.49-1.49 2.46 2.46-1.48 1.49zm3.42-3.42-2.46-2.46 1.49-1.49 2.46 2.46-1.49 1.49zm3.43-3.43-2.46-2.46 1.49-1.49 2.46 2.46-1.49 1.49zm3.42-3.42-2.46-2.46 1.49-1.49 2.46 2.46-1.49 1.49z"/></g></svg>