<svg width="20" height="21" viewBox="0 0 20 21" fill="none" xmlns="http://www.w3.org/2000/svg">
    <path
        d="M16.9331 1.75H3.06692C2.71491 1.75029 2.37055 1.85875 2.07563 2.0622C1.7807 2.26565 1.54791 2.55535 1.40548 2.89614C1.26306 3.23694 1.21713 3.61417 1.27328 3.98205C1.32943 4.34994 1.48524 4.69266 1.72179 4.96862L7.73111 11.9652V18.5637C7.73116 18.6927 7.76555 18.8191 7.83033 18.9283C7.89511 19.0375 7.98766 19.1252 8.09737 19.1814C8.18505 19.2271 8.28161 19.2506 8.37936 19.25C8.5267 19.2499 8.6696 19.1966 8.78452 19.099L10 18.0696L12.0258 16.3539C12.1016 16.2897 12.1628 16.2082 12.2049 16.1155C12.247 16.0229 12.2688 15.9214 12.2689 15.8186V11.9652L18.2782 4.96862C18.5148 4.69266 18.6706 4.34994 18.7267 3.98205C18.7829 3.61417 18.7369 3.23694 18.5945 2.89614C18.4521 2.55535 18.2193 2.26565 17.9244 2.0622C17.6295 1.85875 17.2851 1.75029 16.9331 1.75Z"
        fill="#00B288" />
</svg>
