<svg width="123" height="123" viewBox="0 0 123 123" fill="none" xmlns="http://www.w3.org/2000/svg">
<g clip-path="url(#clip0_5275_1592)">
<path d="M104.961 24.682C104.033 24.682 103.11 24.354 102.372 23.6775C91.0616 13.366 76.5476 7.68747 61.5006 7.68747C46.4536 7.68747 31.9396 13.366 20.6287 23.6826C19.0554 25.1125 16.6261 24.9946 15.1962 23.4315C13.7664 21.8632 13.8791 19.4288 15.4474 17.999C28.183 6.39084 44.5369 -3.05176e-05 61.5006 -3.05176e-05C78.4644 -3.05176e-05 94.8182 6.39084 107.554 17.999C109.122 19.4288 109.235 21.8581 107.805 23.4315C107.046 24.2617 106.006 24.682 104.961 24.682Z" fill="white"/>
<path d="M111.469 49.7996C110.233 49.7996 109.014 49.2051 108.276 48.0981C97.6055 32.2106 80.119 22.7242 61.4999 22.7242C42.8808 22.7242 25.3943 32.2106 14.724 48.0981C13.5401 49.8662 11.1468 50.3377 9.38888 49.1487C7.62588 47.9648 7.15438 45.5766 8.33825 43.8136C20.4384 25.7992 40.3131 15.0418 61.4999 15.0418C82.6866 15.0418 102.561 25.7992 114.661 43.8187C115.845 45.5817 115.379 47.97 113.611 49.1538C112.955 49.5895 112.212 49.7996 111.469 49.7996Z" fill="white"/>
<path d="M49.3593 123C48.3702 123 47.381 122.621 46.6277 121.862C45.7872 121.017 26.0918 100.911 26.0918 81.5541C26.0918 61.4641 41.9742 45.1205 61.5004 45.1205C81.0267 45.1205 96.909 61.4641 96.909 81.5541C96.909 83.6759 95.187 85.3979 93.0653 85.3979C90.9436 85.3979 89.2215 83.6759 89.2215 81.5541C89.2215 65.7025 76.7883 52.808 61.5004 52.808C46.2125 52.808 33.7793 65.7025 33.7793 81.5541C33.7793 97.785 51.9064 116.266 52.0909 116.45C53.5874 117.957 53.5772 120.391 52.0653 121.888C51.317 122.631 50.3382 123 49.3593 123Z" fill="white"/>
<path d="M73.6416 123C64.3961 123 42.9634 105.411 40.8877 85.8232C40.1549 78.8994 42.3586 71.8166 46.7764 66.8761C50.6201 62.5814 55.8117 60.1982 61.3929 60.1675H61.5005C66.9432 60.1675 72.0887 62.3046 76.0042 66.1945C80.094 70.2586 82.3439 75.7167 82.3439 81.5592V84.0654C82.3439 90.241 87.1511 95.2635 93.0654 95.2635C98.9796 95.2635 103.792 90.241 103.792 84.0654V83.189C103.792 59.2552 86.4541 39.3446 64.3192 37.8686C52.7777 37.0845 41.7077 41.0717 33.1644 49.0565C24.2981 57.3487 19.2141 69.1977 19.2141 81.5592C19.2141 91.7272 22.6581 101.634 28.9106 109.455C30.2329 111.115 29.9664 113.529 28.3059 114.856C26.6505 116.184 24.2315 115.912 22.899 114.252C15.5651 105.073 11.5215 93.4595 11.5215 81.5541C11.5215 67.0709 17.4972 53.177 27.9061 43.4395C38.0177 33.9787 51.1275 29.274 64.8215 30.1914C90.9795 31.939 111.474 55.2167 111.474 83.1839V84.0602C111.474 94.4742 103.213 102.946 93.0602 102.946C82.9076 102.946 74.6512 94.4742 74.6512 84.0602V81.5541C74.6512 77.7719 73.206 74.2561 70.582 71.6424C68.122 69.1926 64.8984 67.8499 61.5005 67.8499C61.4749 67.8499 61.4544 67.8499 61.4287 67.8499C57.0981 67.8704 54.182 70.1202 52.501 72.0011C49.5029 75.3477 48.0166 80.2165 48.524 85.0135C50.2204 100.993 68.5832 115.318 73.6365 115.318C75.7582 115.318 77.4802 117.04 77.4802 119.161C77.4802 121.283 75.7634 123 73.6416 123Z" fill="white"/>
<path d="M87.9036 115.482C74.1481 115.482 57.3535 98.6716 57.3535 79.048C57.3535 76.9262 59.0755 75.2042 61.1973 75.2042C63.319 75.2042 65.041 76.9262 65.041 79.048C65.041 94.259 77.8279 107.794 87.9036 107.794C90.0254 107.794 91.7474 109.516 91.7474 111.638C91.7474 113.76 90.0254 115.482 87.9036 115.482Z" fill="white"/>
</g>
<defs>
<clipPath id="clip0_5275_1592">
<rect width="123" height="123" fill="white"/>
</clipPath>
</defs>
</svg>
