<svg width="54" height="54" viewBox="0 0 54 54" fill="none" xmlns="http://www.w3.org/2000/svg">
<g clip-path="url(#clip0_6824_4676)">
<path d="M47.625 6.375H33.4014L28.3256 1.29937C27.9741 0.94772 27.4972 0.750106 27 0.75H13.875C12.3837 0.751638 10.9539 1.3448 9.89933 2.39933C8.8448 3.45387 8.25164 4.88366 8.25 6.375V12H6.375C4.88366 12.0016 3.45387 12.5948 2.39933 13.6493C1.3448 14.7039 0.751638 16.1337 0.75 17.625V47.625C0.751638 49.1163 1.3448 50.5461 2.39933 51.6007C3.45387 52.6552 4.88366 53.2484 6.375 53.25H40.125C41.6163 53.2484 43.0461 52.6552 44.1007 51.6007C45.1552 50.5461 45.7484 49.1163 45.75 47.625V42H47.625C49.1163 41.9984 50.5461 41.4052 51.6007 40.3507C52.6552 39.2961 53.2484 37.8663 53.25 36.375V12C53.2484 10.5087 52.6552 9.07887 51.6007 8.02433C50.5461 6.9698 49.1163 6.37664 47.625 6.375ZM6.375 15.75H18.7236L23.7994 20.8256C24.1509 21.1773 24.6278 21.3749 25.125 21.375H40.125C40.6223 21.375 41.0992 21.5725 41.4508 21.9242C41.8025 22.2758 42 22.7527 42 23.25C42 23.7473 41.8025 24.2242 41.4508 24.5758C41.0992 24.9275 40.6223 25.125 40.125 25.125H6.375C5.87772 25.125 5.40081 24.9275 5.04918 24.5758C4.69754 24.2242 4.5 23.7473 4.5 23.25V17.625C4.5 17.1277 4.69754 16.6508 5.04918 16.2992C5.40081 15.9475 5.87772 15.75 6.375 15.75ZM49.5 36.375C49.4996 36.8721 49.3019 37.3488 48.9503 37.7003C48.5988 38.0519 48.1221 38.2496 47.625 38.25H45.75V23.25C45.7484 21.7587 45.1552 20.3289 44.1007 19.2743C43.0461 18.2198 41.6163 17.6266 40.125 17.625H25.9014L20.8256 12.5494C20.4741 12.1977 19.9972 12.0001 19.5 12H12V6.375C12.0004 5.87786 12.1981 5.4012 12.5497 5.04967C12.9012 4.69813 13.3779 4.50045 13.875 4.5H26.2236L31.2994 9.57562C31.6509 9.92728 32.1278 10.1249 32.625 10.125H47.625C48.1221 10.1254 48.5988 10.3231 48.9503 10.6747C49.3019 11.0262 49.4996 11.5029 49.5 12V36.375Z" fill="#006A51"/>
</g>
<defs>
<clipPath id="clip0_6824_4676">
<rect width="52.5" height="52.5" fill="white" transform="translate(0.75 0.75)"/>
</clipPath>
</defs>
</svg>
