<svg width="72" height="69" viewBox="0 0 72 69" fill="none" xmlns="http://www.w3.org/2000/svg">
    <path fill-rule="evenodd" clip-rule="evenodd"
        d="M36.9234 1.62036C45.8503 1.89046 51.9479 9.42993 58.1951 15.5302C64.3401 21.5306 71.679 27.4691 71.9883 35.8601C72.3044 44.4324 66.1418 51.6547 59.7491 57.6752C53.4151 63.6404 45.7471 69.9388 36.9234 68.8836C28.5193 67.8785 25.3514 58.3616 19.175 52.8228C12.5906 46.9182 1.18829 44.4263 0.0983529 35.8601C-1.01952 27.0744 7.62328 20.3724 14.2608 14.2008C20.7703 8.14841 27.8463 1.34571 36.9234 1.62036Z"
        fill="url(#paint0_linear_6800_39754)" />
    <g clip-path="url(#clip0_6800_39754)">
        <path
            d="M55.1732 15.3152H52.4571V9.83392C52.4571 9.10705 52.171 8.40995 51.6616 7.89598C51.1523 7.38201 50.4614 7.09326 49.7411 7.09326C49.0207 7.09326 48.3299 7.38201 47.8205 7.89598C47.3112 8.40995 47.025 9.10705 47.025 9.83392V15.3152H25.2964V9.83392C25.2964 9.10705 25.0103 8.40995 24.5009 7.89598C23.9915 7.38201 23.3007 7.09326 22.5804 7.09326C21.86 7.09326 21.1692 7.38201 20.6598 7.89598C20.1504 8.40995 19.8643 9.10705 19.8643 9.83392V15.3152H17.1482C14.9872 15.3152 12.9146 16.1815 11.3866 17.7234C9.85847 19.2653 9 21.3566 9 23.5372V26.2778H63.3214V23.5372C63.3214 21.3566 62.463 19.2653 60.9349 17.7234C59.4068 16.1815 57.3343 15.3152 55.1732 15.3152Z"
            fill="#2594EF" />
        <path
            d="M8.99951 53.6845C8.99951 55.8651 9.85798 57.9564 11.3861 59.4983C12.9142 61.0402 14.9867 61.9065 17.1477 61.9065H55.1727C57.3338 61.9065 59.4063 61.0402 60.9344 59.4983C62.4625 57.9564 63.3209 55.8651 63.3209 53.6845V31.7593H8.99951V53.6845Z"
            fill="#9FE0FB" />
    </g>
    <defs>
        <linearGradient id="paint0_linear_6800_39754" x1="36" y1="1.6123" x2="36" y2="69.0002"
            gradientUnits="userSpaceOnUse">
            <stop stop-color="#04C598" />
            <stop offset="1" stop-color="#189A7C" />
        </linearGradient>
        <clipPath id="clip0_6800_39754">
            <rect width="54.3214" height="54.8131" fill="white" transform="translate(9 7.09326)" />
        </clipPath>
    </defs>
</svg>
