<svg width="60" height="60" viewBox="0 0 60 60" fill="none" xmlns="http://www.w3.org/2000/svg">
<rect width="60" height="60" rx="30" fill="#F7F7F7"/>
<path d="M24.8374 21.9414H34.3735V28.8769H24.8374V21.9414Z" fill="#00B288"/>
<path d="M32.9492 44.2354C32.9492 46.2833 34.6205 47.9494 36.6748 47.9494C38.7291 47.9494 40.4004 46.2833 40.4004 44.2354C40.4004 43.4325 40.1339 42.6373 39.6498 41.9966L36.6748 38.0586L33.6997 41.9966C33.2158 42.6373 32.9492 43.4325 32.9492 44.2354Z" fill="#00B288"/>
<path d="M23 15H36.2107V19.8906H23V15Z" fill="#00B288"/>
<path d="M30.8984 44.2352C30.8984 42.9889 31.3121 41.7548 32.0634 40.7603L34.3733 37.7026V30.9277H24.8372V45.2319C24.8372 47.861 26.9761 50 29.6052 50C30.9045 50 32.0833 49.4772 32.944 48.6313C31.6939 47.573 30.8984 45.9954 30.8984 44.2352Z" fill="#00B288"/>
</svg>
