<svg width="60" height="60" viewBox="0 0 60 60" fill="none" xmlns="http://www.w3.org/2000/svg">
<rect width="60" height="60" rx="30" fill="#F7F7F7"/>
<path d="M41.8272 18.1585C38.9449 15.2805 34.2566 15.2805 31.3743 18.1585L25.2803 24.2466L32.1991 31.1588C33.6231 29.9741 35.4285 29.2323 37.422 29.2323C38.5654 29.2323 39.6535 29.4696 40.6435 29.8933L41.8272 28.6014C44.7087 25.7226 44.7087 21.038 41.8272 18.1585Z" fill="#00B288"/>
<path d="M31.054 32.3284L24.1255 25.4066L18.1611 31.3711C15.2796 34.2498 15.2796 38.9345 18.1611 41.814C21.0433 44.6918 25.7864 44.7467 28.6688 41.8686L29.8779 40.6549C29.4538 39.6658 29.2162 38.5788 29.2162 37.4365C29.2163 35.4961 29.9224 33.7346 31.054 32.3284Z" fill="#00B288"/>
<path d="M30.8691 37.4368C30.8691 40.7806 33.3813 43.5096 36.6177 43.9175V30.9561C33.3813 31.364 30.8691 34.0928 30.8691 37.4368Z" fill="#00B288"/>
<path d="M38.251 30.9548V43.9163C41.4873 43.5084 43.9995 40.7794 43.9995 37.4355C43.9995 34.0917 41.4874 31.3627 38.251 30.9548Z" fill="#00B288"/>
</svg>
