<svg width="60" height="60" viewBox="0 0 60 60" fill="none" xmlns="http://www.w3.org/2000/svg">
<rect width="60" height="60" rx="30" fill="#F7F7F7"/>
<g clip-path="url(#clip0_8102_66318)">
<path d="M41.2 18.8H39.6V15.6C39.6 15.1757 39.4314 14.7687 39.1314 14.4686C38.8313 14.1686 38.4243 14 38 14C37.5757 14 37.1687 14.1686 36.8686 14.4686C36.5686 14.7687 36.4 15.1757 36.4 15.6V18.8H23.6V15.6C23.6 15.1757 23.4314 14.7687 23.1314 14.4686C22.8313 14.1686 22.4243 14 22 14C21.5757 14 21.1687 14.1686 20.8686 14.4686C20.5686 14.7687 20.4 15.1757 20.4 15.6V18.8H18.8C17.527 18.8 16.3061 19.3057 15.4059 20.2059C14.5057 21.1061 14 22.327 14 23.6V25.2H46V23.6C46 22.327 45.4943 21.1061 44.5941 20.2059C43.6939 19.3057 42.473 18.8 41.2 18.8Z" fill="#00B288"/>
<path d="M14 41.2C14 42.4731 14.5057 43.694 15.4059 44.5941C16.3061 45.4943 17.527 46 18.8 46H41.2C42.473 46 43.6939 45.4943 44.5941 44.5941C45.4943 43.694 46 42.4731 46 41.2V28.4H14V41.2Z" fill="#00B288"/>
</g>
<defs>
<clipPath id="clip0_8102_66318">
<rect width="32" height="32" fill="white" transform="translate(14 14)"/>
</clipPath>
</defs>
</svg>
