<svg width="21" height="20" viewBox="0 0 21 20" fill="none" xmlns="http://www.w3.org/2000/svg">
<path d="M15.7731 19.3626C15.5995 19.2819 15.3959 19.2324 15.2594 19.1121C15.0882 18.9608 14.9505 18.7627 14.837 18.5639C14.7068 18.336 14.7426 18.1349 14.9669 17.9356C15.44 17.5161 15.8807 17.0625 16.3382 16.6196C14.9665 15.2952 13.603 13.9792 12.248 12.6714C12.8701 12.0704 13.4614 11.4992 14.0593 10.9219C15.4069 12.2274 16.7645 13.5426 18.1355 14.8708C18.2018 14.8108 18.2533 14.7659 18.3024 14.7183C18.7439 14.292 19.1889 13.869 19.623 13.4359C19.7295 13.3295 19.8379 13.3099 19.9713 13.3381C20.4624 13.4423 20.79 13.7241 20.9526 14.1848C20.967 14.226 20.9834 14.2663 20.999 14.3067V18.3816C20.9538 18.491 20.9163 18.6042 20.8625 18.7095C20.6812 19.0649 20.3617 19.2509 19.985 19.3626H15.7727H15.7731Z" fill="#00B288"/>
<path d="M20.9978 5.04542C20.9141 5.21337 20.8617 5.40729 20.7393 5.54285C20.5945 5.70288 20.4028 5.83656 20.2068 5.93748C19.9553 6.06701 19.7288 6.05496 19.5026 5.81171C19.0782 5.35457 18.6087 4.9366 18.1506 4.4949C16.7755 5.8215 15.4114 7.13755 14.0605 8.4408C13.4401 7.84396 12.8474 7.27386 12.248 6.69736C13.6009 5.39599 14.9642 4.08409 16.3745 2.72699C16.2247 2.60311 16.0803 2.49654 15.9512 2.37492C15.5835 2.02811 15.2263 1.67076 14.8551 1.32772C14.7447 1.22605 14.7224 1.12137 14.7526 0.991839C14.8645 0.511358 15.1602 0.191289 15.65 0.0402911C15.6864 0.0289945 15.7212 0.0135559 15.7568 0C17.1652 0 18.5735 0 19.9819 0C20.1344 0.0655201 20.2948 0.117861 20.4376 0.199196C20.7451 0.37467 20.8942 0.663862 20.999 0.979036V5.0458L20.9978 5.04542Z" fill="#00B288"/>
<path d="M0.923828 14.3189C0.981722 14.1872 1.02671 14.0483 1.10064 13.9256C1.29544 13.6029 1.59782 13.4211 1.97413 13.3488C2.10205 13.3244 2.20454 13.3511 2.30428 13.4505C2.78387 13.9278 3.27323 14.3965 3.76024 14.8697C5.14109 13.5405 6.50707 12.2259 7.8621 10.9219C8.4825 11.5189 9.07513 12.0892 9.6748 12.6656C8.3229 13.9658 6.95927 15.277 5.58624 16.5976C5.6367 16.6526 5.67191 16.6958 5.71181 16.7342C6.15853 17.1649 6.60134 17.5993 7.05628 18.0213C7.17128 18.1279 7.20219 18.234 7.17011 18.371C7.05784 18.851 6.76368 19.1721 6.27276 19.322C6.23638 19.3329 6.20156 19.3491 6.16596 19.3626H1.94088C1.82197 19.3159 1.69914 19.2772 1.58491 19.2218C1.22425 19.0471 1.03883 18.7407 0.923828 18.3846C0.923828 17.0294 0.923828 15.6742 0.923828 14.3189Z" fill="#00B288"/>
<path d="M6.15225 0C6.28882 0.0554869 6.43318 0.0977625 6.55999 0.16948C6.89321 0.357834 7.08244 0.649611 7.15736 1.01273C7.18272 1.13654 7.15541 1.23468 7.0524 1.33131C6.55921 1.79558 6.075 2.26968 5.58415 2.74339C6.95641 4.07055 8.31893 5.38826 9.6748 6.69957C9.05676 7.2952 8.46446 7.86592 7.86749 8.4408C6.5198 7.13629 5.16041 5.82083 3.7421 4.44801C3.67187 4.54652 3.62388 4.63976 3.55209 4.71034C3.14201 5.11385 2.721 5.50754 2.31521 5.9152C2.19933 6.03184 2.08384 6.05713 1.93362 6.0224C1.44394 5.90992 1.12009 5.62569 0.965968 5.16103C0.954262 5.12631 0.937875 5.09233 0.923828 5.05799C0.923828 3.69912 0.923828 2.34026 0.923828 0.9814C0.985087 0.844759 1.03425 0.701701 1.10955 0.572987C1.29255 0.260071 1.59767 0.103802 1.9383 0C3.34295 0 4.7476 0 6.15225 0Z" fill="#00B288"/>
</svg>
