 <svg width="17" height="17" viewBox="0 0 17 17" fill="white " xmlns="http://www.w3.org/2000/svg">
<path d="M10.5952 15.6116H6.03013C5.79516 15.6116 5.60495 15.43 5.60495 15.2057V11.2541H1.46509C1.23013 11.2541 1.03992 11.0725 1.03992 10.8482V6.49068C1.03992 6.26639 1.23013 6.08483 1.46509 6.08483H5.60495V2.13314C5.60495 1.90886 5.79516 1.72729 6.03013 1.72729H10.5952C10.8301 1.72729 11.0203 1.90886 11.0203 2.13314V6.08483H15.1602C15.3952 6.08483 15.5854 6.26639 15.5854 6.49068V10.8482C15.5854 11.0725 15.3952 11.2541 15.1602 11.2541H11.0203V15.2057C11.0203 15.43 10.8301 15.6116 10.5952 15.6116Z" stroke="white" stroke-width="1.5" stroke-miterlimit="10"/>
</svg>
