<svg width="23" height="21" viewBox="0 0 23 21" fill="none" xmlns="http://www.w3.org/2000/svg">
<path d="M14.5681 20.0909H8.29123C7.96815 20.0909 7.70661 19.8413 7.70661 19.5329V14.0993H2.0143C1.69123 14.0993 1.42969 13.8496 1.42969 13.5413V7.54965C1.42969 7.24126 1.69123 6.99161 2.0143 6.99161H7.70661V1.55804C7.70661 1.24965 7.96815 1 8.29123 1H14.5681C14.8912 1 15.1528 1.24965 15.1528 1.55804V6.99161H20.8451C21.1681 6.99161 21.4297 7.24126 21.4297 7.54965V13.5413C21.4297 13.8496 21.1681 14.0993 20.8451 14.0993H15.1528V19.5329C15.1528 19.8413 14.8912 20.0909 14.5681 20.0909Z" stroke="#56595B" stroke-width="1.5" stroke-miterlimit="10"/>
</svg>
