<svg version="1.1" id="Layer_1" xmlns="http://www.w3.org/2000/svg" xmlns:xlink="http://www.w3.org/1999/xlink" x="0px" y="0px"
     viewBox="0 0 136 136" style="enable-background:new 0 0 136 136;" xml:space="preserve" fill="#FFFFFF">    <g>
	<defs>
		<rect id="SVGID_1_" width="136" height="136"/>
	</defs>
        <clipPath id="SVGID_2_">
		<use xlink:href="#SVGID_1_"  style="overflow:visible;"/>
	</clipPath>
        <g class="st0">
		<path class="st1" d="M96.6,37.6c-7.8,1.6-16.1,2.6-24.6,2.8V64h28C99.8,54.7,98.6,45.7,96.6,37.6z"/>
            <path class="st1" d="M28,64c0.3-9.9,1.5-19.5,3.6-28.3c-7-2-13.4-4.5-18.9-7.5C5.2,38.6,0.7,51,0,64H28z"/>
            <path class="st1" d="M28,72H0C0.7,85,5.2,97.4,12.7,107.9c5.5-3,11.9-5.6,18.9-7.5C29.5,91.5,28.3,81.9,28,72z"/>
            <path class="st1" d="M79.5,4.6C77,2.5,74.5,1.2,72,0.4v32c7.8-0.2,15.4-1.1,22.5-2.5c-1.3-4-2.8-7.7-4.5-11.1
			C86.9,12.7,83.3,7.9,79.5,4.6z"/>
            <path class="st1" d="M33.8,108c-5.8,1.6-11.2,3.7-15.9,6.2c0.6,0.7,1.3,1.4,1.9,2c7.7,7.7,16.8,13.3,26.8,16.6
			c-2.8-3.3-5.4-7.3-7.7-12C37,116.8,35.3,112.5,33.8,108z"/>
            <path class="st1" d="M46.1,18.8c-1.7,3.4-3.2,7.1-4.5,11.1c7.1,1.4,14.6,2.3,22.5,2.5v-32c-2.5,0.7-5,2.1-7.5,4.2
			C52.7,7.9,49.1,12.7,46.1,18.8z"/>
            <path class="st1" d="M108,72c-0.3,9.9-1.5,19.5-3.6,28.3c7,2,13.4,4.5,18.9,7.5c7.6-10.5,12-22.8,12.7-35.9H108z"/>
            <path class="st1" d="M102.2,28c5.8-1.6,11.2-3.7,15.9-6.2c-0.6-0.7-1.3-1.4-1.9-2c-7.7-7.7-16.8-13.3-26.8-16.6
			c2.8,3.3,5.4,7.3,7.7,12C99,19.2,100.7,23.5,102.2,28z"/>
            <path class="st1" d="M89.9,117.2c1.7-3.4,3.2-7.1,4.5-11.1c-7.1-1.4-14.6-2.3-22.5-2.5v32c2.5-0.7,5-2.1,7.5-4.2
			C83.3,128.1,86.9,123.3,89.9,117.2z"/>
            <path class="st1" d="M104.3,35.7c2.1,8.8,3.4,18.4,3.6,28.3h28c-0.7-13.1-5.2-25.4-12.7-35.9C117.7,31.2,111.3,33.7,104.3,35.7z"
            />
            <path class="st1" d="M72,72v23.6c8.6,0.2,16.9,1.2,24.6,2.8c2-8.2,3.1-17.1,3.4-26.5H72z"/>
            <path class="st1" d="M64,64V40.4c-8.6-0.2-16.9-1.2-24.6-2.8c-2,8.2-3.1,17.1-3.4,26.5H64z"/>
            <path class="st1" d="M33.8,28c1.5-4.6,3.2-8.9,5.1-12.8c2.3-4.6,4.9-8.6,7.7-12c-10,3.3-19.2,8.9-26.8,16.6
			c-0.7,0.7-1.3,1.3-1.9,2C22.6,24.3,28,26.4,33.8,28z"/>
            <path class="st1" d="M102.2,108c-1.5,4.6-3.2,8.9-5.1,12.8c-2.3,4.6-4.9,8.6-7.7,12c10-3.3,19.2-8.9,26.8-16.6
			c0.7-0.7,1.3-1.3,1.9-2C113.4,111.7,108,109.6,102.2,108z"/>
            <path class="st1" d="M64,72H36c0.3,9.3,1.4,18.3,3.4,26.5c7.8-1.6,16.1-2.6,24.6-2.8V72z"/>
            <path class="st1" d="M56.5,131.4c2.4,2.1,4.9,3.4,7.5,4.2v-32c-7.8,0.2-15.4,1.1-22.5,2.5c1.3,4,2.8,7.7,4.5,11.1
			C49.1,123.3,52.7,128.1,56.5,131.4z"/>
	</g>
</g>
</svg>