<svg width="21" height="24" viewBox="0 0 21 24" fill="none" xmlns="http://www.w3.org/2000/svg">
    <path d="M10.5001 11C12.9852 11 15 8.53759 15 5.50003C15 2.46241 14.3385 0 10.5001 0C6.66161 0 6 2.46241 6 5.50003C6 8.53759 8.01479 11 10.5001 11Z" fill="#00B288"/>
    <path d="M19.9941 20.314C19.9009 14.4325 19.1328 12.7565 13.2547 11.6957C13.2547 11.6957 12.4273 12.75 10.4987 12.75C8.57012 12.75 7.74254 11.6957 7.74254 11.6957C1.92862 12.745 1.11376 14.396 1.00662 20.123C0.99783 20.5906 0.993759 20.6152 0.992188 20.5609C0.992545 20.6626 0.992973 20.8508 0.992973 21.1788C0.992973 21.1788 2.3924 24 10.4987 24C18.6048 24 20.0044 21.1788 20.0044 21.1788C20.0044 20.968 20.0045 20.8215 20.0048 20.7218C20.0032 20.7553 20 20.6903 19.9941 20.314Z" fill="#00B288"/>
</svg>