<svg width="110" height="85" viewBox="0 0 110 85" fill="none" xmlns="http://www.w3.org/2000/svg">
<path d="M106.253 64.5929L99.7277 61.3307C99.6899 61.3118 99.6663 61.2735 99.6663 61.2314L99.6667 57.9518C102.345 56.1074 104.241 53.1916 104.716 49.7695C105.921 47.6875 106.555 45.3358 106.555 42.9446C106.555 38.4855 104.408 34.5191 101.094 32.023C101.289 31.3762 101.389 30.7089 101.389 30.028C101.389 25.8158 97.5756 22.3888 92.8888 22.3888C88.202 22.3888 84.3887 25.8158 84.3887 30.028C84.3887 30.7097 84.488 31.3772 84.6822 32.0237C82.7063 33.5121 81.1483 35.5248 80.2103 37.8515C79.8109 33.9266 79.3949 29.2866 78.996 23.8816C78.4696 16.75 75.9048 10.7276 71.5791 6.4655C67.2864 2.23566 61.5533 0 54.9999 0C48.4465 0 42.7134 2.23566 38.4211 6.46528C34.0954 10.7276 31.5306 16.75 31.0043 23.8813C30.8644 25.7748 30.7226 27.5693 30.5802 29.2776H15.389C9.75238 29.2776 5.16655 33.8634 5.16655 39.5V39.5961C5.16655 40.9088 5.47679 42.2234 6.06395 43.3975L6.88874 45.0473V47.678C6.88874 51.8473 8.94328 55.5884 12.0553 57.8397V60.1669C12.0553 60.4653 11.8548 60.7309 11.568 60.8129L4.91583 62.7136C2.02146 63.5404 0 66.2203 0 69.2305V82.5553C0 83.4452 0.721444 84.1666 1.61133 84.1666C2.50121 84.1666 3.22265 83.4452 3.22265 82.5553V69.2305C3.22265 67.6514 4.28312 66.2457 5.8012 65.8119L12.4536 63.9112C12.6936 63.8426 12.9215 63.7496 13.1385 63.6392L17.2221 67.7227V82.5553C17.2221 83.4452 17.9435 84.1666 18.8334 84.1666C19.7233 84.1666 20.4447 83.4452 20.4447 82.5553V67.7227L24.5568 63.6106C25.1064 63.8802 25.654 64.0371 26.0553 64.1518L27.6888 64.6184C25.4753 66.1924 24.111 68.7595 24.111 71.5433V82.5549C24.111 83.4447 24.8325 84.1662 25.7223 84.1662C26.6122 84.1662 27.3337 83.4447 27.3337 82.5549V71.5433C27.3337 69.4546 28.5684 67.5596 30.4792 66.7157L39.6917 62.6468C42.5785 68.428 48.4777 72.1109 55.0001 72.1109C61.5468 72.1109 67.4262 68.4362 70.3114 62.6481L79.521 66.7157C81.4319 67.5596 82.6666 69.4546 82.6666 71.5433V82.5549C82.6666 83.4447 83.388 84.1662 84.2779 84.1662C85.1678 84.1662 85.8892 83.4447 85.8892 82.5549V71.5433C85.8892 69.4821 85.1401 67.5403 83.8542 66.0308L86.3479 64.7841L88.2198 66.563C89.5291 67.8074 91.2087 68.4291 92.889 68.4291C94.5687 68.4291 96.2492 67.8069 97.558 66.563L99.4297 64.7843L104.812 67.4752C106.024 68.0813 106.777 69.2999 106.777 70.6553V82.5551C106.777 83.4449 107.499 84.1664 108.389 84.1664C109.279 84.1664 110 83.4449 110 82.5551V70.6553C110 68.0716 108.564 65.7485 106.253 64.5929ZM92.8886 25.6113C95.7984 25.6113 98.166 27.5925 98.166 30.0278C98.166 30.1298 98.1578 30.231 98.1497 30.332C96.5293 29.6535 94.7522 29.2776 92.8886 29.2776C91.0253 29.2776 89.2483 29.6535 87.6284 30.3318C87.62 30.2308 87.6112 30.1298 87.6112 30.0278C87.6112 27.5925 89.9788 25.6113 92.8886 25.6113ZM18.8336 64.7768L15.1619 61.1051C15.2378 60.8026 15.2784 60.4879 15.2784 60.1667V59.4869C16.292 59.8197 17.3611 60.0171 18.4673 60.0502C18.5913 60.0541 18.7146 60.0558 18.8381 60.0558C20.0601 60.0558 21.2532 59.8713 22.3884 59.5191V60.166C22.3884 60.5156 22.4243 60.8327 22.4881 61.1223L18.8336 64.7768ZM18.564 56.8286C13.9032 56.6892 10.1114 52.584 10.1114 47.678V44.6668C10.1114 44.4167 10.0532 44.1699 9.94123 43.9462L8.94629 41.9563C8.58192 41.2271 8.3892 40.4112 8.3892 39.5961V39.5C8.3892 35.6404 11.5294 32.5002 15.389 32.5002H29.2778V39.1894C29.2778 40.2702 29.0223 41.3528 28.5387 42.3196L27.7255 43.946C27.6136 44.1699 27.5554 44.4165 27.5554 44.6666V48.1109C27.5554 50.4901 26.6148 52.7133 24.9068 54.3706C23.1996 56.0271 20.9457 56.9008 18.564 56.8286ZM32.031 62.5074L26.9407 61.0531C25.6108 60.6733 25.611 60.525 25.611 60.1665L25.6115 57.9465C26.1527 57.5716 26.6687 57.152 27.1515 56.6834C27.4763 56.3682 27.7788 56.0365 28.0624 55.6928C28.3213 56.2178 28.7181 56.6765 29.2309 57.0085C30.5226 57.8449 32.96 59.2342 36.5444 60.5139L32.031 62.5074ZM54.9999 68.8885C49.7573 68.8885 45.0093 65.958 42.6415 61.3442L44.9869 60.3083C46.8174 59.4998 48.0001 57.6846 48.0001 55.6835V51.8172C50.1651 52.6871 52.5275 53.1669 54.9999 53.1669C57.4723 53.1669 59.8345 52.6871 61.9997 51.8172V55.6835C61.9997 57.6846 63.1824 59.5 65.0129 60.3083L67.3579 61.344C64.9918 65.9629 60.2621 68.8885 54.9999 68.8885ZM68.972 58.5339L66.3148 57.3602C65.6512 57.0671 65.2224 56.4088 65.2224 55.6833V50.1436C70.4005 46.7841 73.8335 40.9522 73.8335 34.3333V31.3119C73.8335 29.3482 72.9986 27.4959 71.5428 26.23C68.3054 23.4143 60.9768 18.5006 48.2714 17.23C47.3882 17.1415 46.5963 17.7873 46.5078 18.6731C46.4193 19.5587 47.0653 20.3482 47.9509 20.4368C59.7683 21.6184 66.4794 26.0972 69.4281 28.6618C70.1799 29.3154 70.6108 30.2815 70.6108 31.3119V34.3333C70.6108 42.941 63.6078 49.944 55.0001 49.944C46.3924 49.944 39.3894 42.941 39.3894 34.3333V32.9853C39.3894 32.3662 39.7327 31.799 40.3076 31.4679C42.3222 30.308 44.979 28.1591 46.1956 24.5095C46.4771 23.6654 46.0207 22.7528 45.1764 22.4713C44.3325 22.1899 43.4196 22.6462 43.1382 23.4905C42.2419 26.1795 40.2296 27.7941 38.6995 28.6751C37.1372 29.5747 36.1665 31.2264 36.1665 32.9855V34.3335C36.1665 40.9526 39.5993 46.7843 44.7776 50.1438V55.6835C44.7776 56.4091 44.3488 57.0671 43.6852 57.3604L41.0278 58.5341C35.838 57.1455 32.5127 55.2942 30.9823 54.3036C30.9518 54.2838 30.9346 54.2613 30.9432 54.2104C31.5053 50.888 32.9494 41.3049 34.2183 24.1187C34.6862 17.7776 36.9217 12.4667 40.6829 8.76067C44.36 5.13776 49.3106 3.22265 54.9999 3.22265C60.6892 3.22265 65.6398 5.13776 69.3168 8.76067C73.0781 12.4667 75.3136 17.7774 75.7817 24.1185C77.0503 41.3041 78.4945 50.8876 79.0568 54.2101C79.0654 54.2613 79.0482 54.2838 79.0174 54.3036C77.485 55.2955 74.1596 57.1458 68.972 58.5339ZM86.1107 61.2312C86.1107 61.2735 86.0873 61.3116 86.0495 61.3305L81.0011 63.8547C80.9412 63.8265 80.8836 63.7949 80.823 63.7681L73.4558 60.5143C77.0385 59.2351 79.4755 57.8464 80.7689 57.0089C81.88 56.2894 82.4554 54.9801 82.2343 53.6728C82.2223 53.6013 82.2092 53.5229 82.1963 53.4455C83.1025 55.2678 84.4575 56.8136 86.1107 57.9518V61.2312ZM95.3374 64.2272C93.9643 65.5326 91.8129 65.5324 90.4394 64.2272L88.9417 62.8041C89.1944 62.3306 89.3332 61.7935 89.3332 61.2312V59.5166C90.4585 59.8657 91.6522 60.0556 92.8884 60.0556C94.1244 60.0556 95.3183 59.8657 96.4434 59.5166L96.4432 61.2308C96.4432 61.7935 96.582 62.3306 96.8348 62.8043L95.3374 64.2272ZM92.8886 56.8327C88.4272 56.8327 84.7009 53.4919 84.2212 49.0616C84.1954 48.8242 84.1174 48.5956 83.9924 48.392C82.9796 46.7426 82.4444 44.8589 82.4444 42.9442C82.4444 37.1855 87.1295 32.5002 92.8886 32.5002C98.6475 32.5002 103.333 37.1855 103.333 42.9444C103.333 44.0545 103.152 45.1541 102.803 46.2038C98.2277 41.5556 90.179 39.734 89.791 39.6485C89.3145 39.5434 88.8156 39.6603 88.4349 39.966C88.0544 40.272 87.8329 40.7339 87.8329 41.222C87.8329 41.2325 87.7594 42.3504 86.5827 43.5271C85.9535 44.1563 85.9535 45.1766 86.5827 45.8057C87.212 46.435 88.2323 46.435 88.8614 45.8057C89.7676 44.8995 90.2999 43.9797 90.6123 43.2031C93.3237 44.0085 98.951 46.0427 101.477 49.6131C100.76 53.7658 97.1625 56.8327 92.8886 56.8327Z" fill="#006A51"/>
</svg>
