<svg width="16" height="16" viewBox="0 0 16 16" fill="none" xmlns="http://www.w3.org/2000/svg">
<g clip-path="url(#clip0_7269_13682)">
<path d="M8 8.4375C9.933 8.4375 11.5 6.8705 11.5 4.9375C11.5 3.0045 9.933 1.4375 8 1.4375C6.067 1.4375 4.5 3.0045 4.5 4.9375C4.5 6.8705 6.067 8.4375 8 8.4375Z" fill="#56595B"/>
<path d="M3.1875 14.5625H8.595C7.82678 13.9467 7.31807 13.0647 7.16976 12.0915C7.02146 11.1182 7.24441 10.1247 7.79437 9.3081C6.66334 9.25191 5.59762 8.76136 4.81937 7.93872C3.94696 8.307 3.2024 8.92419 2.67874 9.71319C2.15507 10.5022 1.87552 11.428 1.875 12.375V13.25C1.87604 13.5977 2.01465 13.931 2.26057 14.1769C2.50649 14.4228 2.83972 14.5614 3.1875 14.5625V14.5625Z" fill="#56595B"/>
<path d="M8 11.5C8 12.1057 8.17961 12.6978 8.51612 13.2014C8.85264 13.7051 9.33093 14.0976 9.89053 14.3294C10.4501 14.5612 11.0659 14.6218 11.66 14.5037C12.254 14.3855 12.7997 14.0938 13.228 13.6655C13.6563 13.2372 13.948 12.6915 14.0662 12.0975C14.1843 11.5034 14.1237 10.8876 13.8919 10.328C13.6601 9.76843 13.2676 9.29014 12.7639 8.95362C12.2603 8.61711 11.6682 8.4375 11.0625 8.4375C10.2506 8.43843 9.47214 8.76138 8.89801 9.33551C8.32388 9.90964 8.00093 10.6881 8 11.5V11.5ZM11.5 10.625V11.0625H11.9375C12.0535 11.0625 12.1648 11.1086 12.2469 11.1906C12.3289 11.2727 12.375 11.384 12.375 11.5C12.375 11.616 12.3289 11.7273 12.2469 11.8094C12.1648 11.8914 12.0535 11.9375 11.9375 11.9375H11.5V12.375C11.5 12.491 11.4539 12.6023 11.3719 12.6844C11.2898 12.7664 11.1785 12.8125 11.0625 12.8125C10.9465 12.8125 10.8352 12.7664 10.7531 12.6844C10.6711 12.6023 10.625 12.491 10.625 12.375V11.9375H10.1875C10.0715 11.9375 9.96019 11.8914 9.87814 11.8094C9.79609 11.7273 9.75 11.616 9.75 11.5C9.75 11.384 9.79609 11.2727 9.87814 11.1906C9.96019 11.1086 10.0715 11.0625 10.1875 11.0625H10.625V10.625C10.625 10.509 10.6711 10.3977 10.7531 10.3156C10.8352 10.2336 10.9465 10.1875 11.0625 10.1875C11.1785 10.1875 11.2898 10.2336 11.3719 10.3156C11.4539 10.3977 11.5 10.509 11.5 10.625Z" fill="#56595B"/>
</g>
<defs>
<clipPath id="clip0_7269_13682">
<rect width="14" height="14" fill="white" transform="translate(1 1)"/>
</clipPath>
</defs>
</svg>
