<svg width="16" height="9" viewBox="0 0 16 9" fill="none" xmlns="http://www.w3.org/2000/svg">
<path d="M13.9278 7.33331V7.18331H13.7778H2.22226H2.07226V7.33331V8.33331V8.48331H2.22226H13.7778H13.9278V8.33331V7.33331ZM16.8167 3.83331V3.68331H16.6667H-0.666626H-0.816626V3.83331V4.83331V4.98331H-0.666626H16.6667H16.8167V4.83331V3.83331ZM13.9278 0.333313V0.183313H13.7778H2.22226H2.07226V0.333313V1.33331V1.48331H2.22226H13.7778H13.9278V1.33331V0.333313Z" fill="white"/>
<path d="M13.9278 7.33331V7.18331H13.7778H2.22226H2.07226V7.33331V8.33331V8.48331H2.22226H13.7778H13.9278V8.33331V7.33331ZM16.8167 3.83331V3.68331H16.6667H-0.666626H-0.816626V3.83331V4.83331V4.98331H-0.666626H16.6667H16.8167V4.83331V3.83331ZM13.9278 0.333313V0.183313H13.7778H2.22226H2.07226V0.333313V1.33331V1.48331H2.22226H13.7778H13.9278V1.33331V0.333313Z" fill="white"/>
<path d="M13.9278 7.33331V7.18331H13.7778H2.22226H2.07226V7.33331V8.33331V8.48331H2.22226H13.7778H13.9278V8.33331V7.33331ZM16.8167 3.83331V3.68331H16.6667H-0.666626H-0.816626V3.83331V4.83331V4.98331H-0.666626H16.6667H16.8167V4.83331V3.83331ZM13.9278 0.333313V0.183313H13.7778H2.22226H2.07226V0.333313V1.33331V1.48331H2.22226H13.7778H13.9278V1.33331V0.333313Z" fill="#0D261D"/>
<path d="M13.9278 7.33331V7.18331H13.7778H2.22226H2.07226V7.33331V8.33331V8.48331H2.22226H13.7778H13.9278V8.33331V7.33331ZM16.8167 3.83331V3.68331H16.6667H-0.666626H-0.816626V3.83331V4.83331V4.98331H-0.666626H16.6667H16.8167V4.83331V3.83331ZM13.9278 0.333313V0.183313H13.7778H2.22226H2.07226V0.333313V1.33331V1.48331H2.22226H13.7778H13.9278V1.33331V0.333313Z" stroke="white" stroke-width="0.3"/>
<path d="M13.9278 7.33331V7.18331H13.7778H2.22226H2.07226V7.33331V8.33331V8.48331H2.22226H13.7778H13.9278V8.33331V7.33331ZM16.8167 3.83331V3.68331H16.6667H-0.666626H-0.816626V3.83331V4.83331V4.98331H-0.666626H16.6667H16.8167V4.83331V3.83331ZM13.9278 0.333313V0.183313H13.7778H2.22226H2.07226V0.333313V1.33331V1.48331H2.22226H13.7778H13.9278V1.33331V0.333313Z" stroke="white" stroke-width="0.3"/>
<path d="M13.9278 7.33331V7.18331H13.7778H2.22226H2.07226V7.33331V8.33331V8.48331H2.22226H13.7778H13.9278V8.33331V7.33331ZM16.8167 3.83331V3.68331H16.6667H-0.666626H-0.816626V3.83331V4.83331V4.98331H-0.666626H16.6667H16.8167V4.83331V3.83331ZM13.9278 0.333313V0.183313H13.7778H2.22226H2.07226V0.333313V1.33331V1.48331H2.22226H13.7778H13.9278V1.33331V0.333313Z" stroke="#0D261D" stroke-width="0.3"/>
</svg>
