<svg width="16" height="16" viewBox="0 0 16 16" fill="none" xmlns="http://www.w3.org/2000/svg">
<path d="M9.66614 0H6.33293C5.96633 0 5.66614 0.300195 5.66614 0.666602V2.3334C5.66614 2.6998 5.96633 3 6.33293 3H9.66614C10.0327 3 10.3329 2.6998 10.3329 2.3334V0.666602C10.3329 0.300195 10.0327 0 9.66614 0Z" fill="white"/>
<path d="M13.3331 1.33337H11.3331V2.66658C11.3331 3.39978 10.7327 3.99998 9.99973 3.99998H5.99973C5.26672 3.99998 4.66633 3.39978 4.66633 2.66658V1.33337H2.66633C1.93333 1.33337 1.33313 1.93357 1.33313 2.66658V14.6666C1.33313 15.3998 1.93333 16 2.66633 16H13.3331C14.0661 16 14.6663 15.3998 14.6663 14.6666V2.66658C14.6663 1.93357 14.0661 1.33337 13.3331 1.33337ZM3.99973 6.66658H7.99973V7.99998H3.99973V6.66658ZM10.6663 13.3334H3.99973V12H10.6663V13.3334ZM11.9997 10.6666H3.99973V9.33337H11.9997V10.6666Z" fill="white"/>
</svg>
