<svg width="21" height="28" viewBox="0 0 21 28" fill="none" xmlns="http://www.w3.org/2000/svg">
<path fill-rule="evenodd" clip-rule="evenodd" d="M14 3.5H18.375C19.8242 3.5 21 4.67578 21 6.125V25.375C21 26.8242 19.8242 28 18.375 28H2.625C1.17578 28 0 26.8242 0 25.375V6.125C0 4.67578 1.17578 3.5 2.625 3.5H7C7 1.56953 8.56953 0 10.5 0C12.4305 0 14 1.56953 14 3.5ZM11.8125 3.5C11.8125 2.77266 11.2273 2.1875 10.5 2.1875C9.77266 2.1875 9.1875 2.77266 9.1875 3.5C9.1875 4.22734 9.77266 4.8125 10.5 4.8125C11.2273 4.8125 11.8125 4.22734 11.8125 3.5ZM2.48331 16.7667C2.21603 16.7667 2 16.5501 2 16.2834C2 16.0166 2.21603 15.8001 2.48331 15.8H4.06818L5.89178 10.3306C5.95754 10.1329 6.14168 10 6.35 10C6.55832 10 6.74297 10.1329 6.80822 10.3306L10.2515 20.66L13.1496 13.2085C13.2187 13.0301 13.3869 12.9097 13.5778 12.9006C13.7562 12.8967 13.9471 12.9962 14.0326 13.1673L15.3487 15.8001H16.5894C16.7895 15.2384 17.3207 14.8334 17.95 14.8334C18.7494 14.8334 19.4 15.4839 19.4 16.2834C19.4 17.0828 18.7494 17.7334 17.95 17.7334C17.3207 17.7334 16.7895 17.3283 16.5894 16.7667H15.05C14.8668 16.7667 14.6996 16.6633 14.6174 16.4995L13.6551 14.5748L10.6671 22.2583C10.5946 22.4449 10.4153 22.5667 10.2167 22.5667H10.2051C10.0011 22.5614 9.82275 22.4294 9.75846 22.2361L6.35 12.0116L4.87485 16.4361C4.8096 16.6338 4.62495 16.7667 4.41663 16.7667H2.48331ZM18.4333 16.2834C18.4333 16.017 18.2168 15.8001 17.95 15.8001C17.6832 15.8001 17.4667 16.017 17.4667 16.2834C17.4667 16.5497 17.6832 16.7667 17.95 16.7667C18.2168 16.7667 18.4333 16.5497 18.4333 16.2834Z" fill="#00B288"/>
</svg>