<svg xmlns="http://www.w3.org/2000/svg" xmlns:xlink="http://www.w3.org/1999/xlink" width="89px" height="90px" viewBox="0 0 89 90" version="1.1" fill="#FFFFFF">
    <path d="M 73.992188 81.222656 C 73.992188 85.308594 77.378906 88.675781 81.496094 88.675781 C 85.609375 88.675781 89 85.308594 89 81.222656 L 89 79.621094 L 73.992188 79.621094 Z M 73.992188 81.222656 "/>
    <path d="M 73.992188 24.484375 L 89 24.484375 L 89 74.332031 L 73.992188 74.332031 Z M 73.992188 24.484375 "/>
    <path d="M 83.269531 7.414062 C 82.949219 6.695312 82.222656 6.214844 81.496094 6.214844 C 80.769531 6.214844 79.960938 6.695312 79.722656 7.414062 L 74.394531 19.277344 L 88.597656 19.277344 Z M 83.269531 7.414062 "/>
    <path d="M 54.304688 0.121094 L 50.835938 0.121094 L 50.835938 89.878906 L 54.304688 89.878906 C 60.113281 89.878906 64.792969 85.230469 64.792969 79.460938 L 64.792969 10.539062 C 64.792969 4.769531 60.03125 0.121094 54.304688 0.121094 Z M 54.304688 0.121094 "/>
    <path d="M 25.980469 0.121094 L 25.980469 13.183594 C 25.980469 14.148438 25.496094 14.949219 24.691406 15.429688 C 24.289062 15.667969 23.804688 15.75 23.320312 15.75 C 22.835938 15.75 22.429688 15.667969 22.027344 15.429688 L 17.589844 12.945312 L 13.152344 15.429688 C 12.34375 15.910156 11.296875 15.910156 10.488281 15.429688 C 9.683594 14.949219 9.199219 14.066406 9.199219 13.183594 L 9.199219 0.121094 L 2.664062 0.121094 C 1.210938 0.121094 0 1.324219 0 2.765625 L 0 87.234375 C 0 88.675781 1.210938 89.878906 2.664062 89.878906 L 45.589844 89.878906 L 45.589844 0.121094 Z M 25.980469 0.121094 "/>
    <path d="M 14.523438 8.695312 L 16.300781 7.734375 C 16.703125 7.496094 17.1875 7.335938 17.589844 7.335938 C 18.074219 7.335938 18.476562 7.414062 18.882812 7.65625 L 20.65625 8.617188 L 20.65625 0.121094 L 14.523438 0.121094 Z M 14.523438 8.695312 "/>
</svg>