<svg width="34" height="43" viewBox="0 0 34 43" fill="none" xmlns="http://www.w3.org/2000/svg">
<path d="M33.5 0.549976C33.4546 0.440259 33.3864 0.34142 33.3 0.259976C33.2182 0.176455 33.1192 0.111637 33.01 0.0699759C32.9032 0.022039 32.7871 -0.0018568 32.67 -2.40815e-05H4.67C3.42777 0.010526 2.24002 0.51141 1.36536 1.39357C0.490691 2.27572 -4.47963e-05 3.46771 3.06704e-09 4.70998V38.15C-1.12277e-05 39.3957 0.493473 40.5907 1.37245 41.4734C2.25142 42.3561 3.4443 42.8547 4.69 42.86H32.69C32.8679 42.8611 33.0421 42.8088 33.19 42.71C33.3346 42.6052 33.4486 42.4637 33.52 42.3C33.5501 42.1819 33.5501 42.0581 33.52 41.94C33.5303 41.8939 33.5303 41.8461 33.52 41.8V0.929976C33.5377 0.803197 33.5309 0.674195 33.5 0.549976ZM3.57 2.00998C3.92591 1.86475 4.30566 1.78677 4.69 1.77998H19.47V7.92998L19.52 8.20998C19.5796 8.35027 19.6682 8.47637 19.78 8.57998C19.8985 8.67677 20.0395 8.74212 20.19 8.76998C20.3375 8.79762 20.4896 8.78835 20.6327 8.74299C20.7757 8.69762 20.9054 8.61757 21.01 8.50998L23.34 6.12998L25.68 8.46998C25.7678 8.55804 25.8736 8.62624 25.99 8.66998C26.1192 8.71156 26.2543 8.73182 26.39 8.72998C26.6267 8.72347 26.852 8.6269 27.02 8.45998C27.1031 8.37753 27.1688 8.27934 27.2135 8.17117C27.2581 8.06299 27.2807 7.947 27.28 7.82998V1.77998H31.79V33.45H4.68C3.66979 33.4536 2.68774 33.7833 1.88 34.39L1.78 34.47V4.70998C1.77761 4.32568 1.85242 3.94481 2 3.58998C2.14161 3.21816 2.35577 2.87824 2.63 2.58998C2.90474 2.34013 3.22347 2.14346 3.57 2.00998ZM25.49 5.77998L23.97 4.24998C23.8876 4.16693 23.7894 4.10115 23.6812 4.05651C23.573 4.01187 23.457 3.98925 23.34 3.98998C23.2204 3.99495 23.1023 4.01857 22.99 4.05998C22.883 4.10594 22.7849 4.17024 22.7 4.24998L21.27 5.69998V1.77998H25.49V5.77998ZM2.65 36.09C2.92002 35.819 3.24116 35.6043 3.59478 35.4584C3.9484 35.3125 4.32746 35.2383 4.71 35.24H31.79V37.24H4.38C4.25785 37.232 4.13535 37.249 4.02 37.29C3.90403 37.3299 3.79822 37.3948 3.71 37.48C3.62043 37.5608 3.54888 37.6596 3.5 37.77C3.44982 37.8835 3.42264 38.0059 3.42 38.13C3.42032 38.2544 3.44762 38.3772 3.5 38.49C3.55094 38.6021 3.62213 38.7038 3.71 38.79C3.79916 38.874 3.90469 38.9387 4.02 38.98C4.13262 38.9979 4.24738 38.9979 4.36 38.98H31.79V40.98H4.71C4.32746 40.9817 3.9484 40.9074 3.59478 40.7615C3.24116 40.6156 2.92002 40.4009 2.65 40.13C2.1064 39.5821 1.80095 38.8418 1.8 38.07C1.8175 37.3251 2.12202 36.6157 2.65 36.09Z" fill="#00B288"/>
</svg>
