<svg width="19" height="22" viewBox="0 0 19 22" fill="none" xmlns="http://www.w3.org/2000/svg">
<path d="M16.1831 1.75204H13.804V1.62262C13.804 0.726697 13.0175 0 12.0519 0H7.01482C6.04921 0 5.26278 0.726697 5.26278 1.62262V1.75204H2.794C1.46007 1.75204 0.375 2.85701 0.375 4.20091V19.5511C0.375 20.905 1.46007 22 2.794 22H16.1732C17.5071 22 18.5922 20.895 18.5922 19.5511V4.20091C18.5922 2.84706 17.5071 1.75204 16.1732 1.75204H16.1831ZM6.756 1.62262C6.756 1.62262 6.84559 1.49321 7.01482 1.49321H12.0519C12.2212 1.49321 12.3107 1.59276 12.3107 1.62262V3.82262C12.3107 3.82262 12.2212 3.95204 12.0519 3.95204H7.01482C6.84559 3.95204 6.756 3.85249 6.756 3.82262V1.61267V1.62262ZM17.1089 19.5611C17.1089 20.0887 16.6908 20.5167 16.1831 20.5167H2.80396C2.29627 20.5167 1.87817 20.0887 1.87817 19.5611V4.20091C1.87817 3.6733 2.29627 3.24525 2.80396 3.24525H5.27274V3.82262C5.27274 4.71855 6.05916 5.44525 7.02477 5.44525H12.0619C13.0275 5.44525 13.8139 4.71855 13.8139 3.82262V3.24525H16.1931C16.7008 3.24525 17.1189 3.6733 17.1189 4.20091V19.5511L17.1089 19.5611Z" fill="#56595B"/>
<path d="M9.49376 9.31738H4.47656V11.0196H9.49376V9.31738Z" fill="#56595B"/>
<path d="M12.8386 16.1465H4.47656V17.8487H12.8386V16.1465Z" fill="#56595B"/>
<path d="M14.511 12.7324H4.47656V14.4347H14.511V12.7324Z" fill="#56595B"/>
</svg>
