<svg width="25" height="25" viewBox="0 0 25 25" fill="none" xmlns="http://www.w3.org/2000/svg">
<path d="M21.5583 4.32499C20.4416 3.11666 18.8666 2.43332 17.2249 2.43332C15.5749 2.43332 14.0083 3.11666 12.8833 4.32499L12.4999 4.73332L12.1166 4.32499C9.8916 1.92499 6.1416 1.79166 3.74993 4.01666C3.6416 4.11666 3.53327 4.21666 3.4416 4.32499C1.08327 6.87499 1.08327 10.8083 3.4416 13.3583L11.9416 22.325C12.2333 22.6333 12.7249 22.65 13.0333 22.3583C13.0416 22.35 13.0499 22.3417 13.0666 22.325L21.5666 13.3583C23.9249 10.8167 23.9249 6.87499 21.5583 4.32499Z" stroke="#FFF" fill="#FFF" stroke-width="1.5" stroke-miterlimit="10"/>
</svg>
