<?xml version="1.0" encoding="utf-8"?>
<!-- Generator: Adobe Illustrator 25.3.1, SVG Export Plug-In . SVG Version: 6.00 Build 0)  -->
<svg version="1.1" id="Layer_1" xmlns="http://www.w3.org/2000/svg" xmlns:xlink="http://www.w3.org/1999/xlink" x="0px" y="0px"
	 viewBox="0 0 113.6 145.7" style="enable-background:new 0 0 113.6 145.7;" xml:space="preserve">
<g>
	<defs>
		<rect id="SVGID_1_" width="113.6" height="145.7" />
	</defs>
	<clipPath id="SVGID_2_">
		<use xlink:href="#SVGID_1_"  style="overflow:visible;"/>
	</clipPath>
	<g class="st0">
		<path class="st1" fill= "#006A51" d="M113.6,45.3c0,0,0-0.1,0-0.1V1.8c0-0.2,0-0.5-0.1-0.7c-0.1-0.2-0.2-0.4-0.4-0.6s-0.4-0.3-0.6-0.4
			C112.2,0,112,0,111.8,0H14.9C11,0,7.2,1.6,4.4,4.4S0,11,0,15v115.7c0,4,1.6,7.8,4.4,10.6c2.8,2.8,6.6,4.4,10.6,4.4h96.8
			c0.4,0,0.7-0.1,1-0.3c0.3-0.2,0.5-0.5,0.7-0.8c0.1-0.3,0.1-0.6,0.1-0.9c0-0.1,0-0.3,0-0.4L113.6,45.3z M71,3.6h17.2v18.2l-7.5-7.5
			c-0.3-0.3-0.8-0.5-1.3-0.5c-0.2,0-0.5,0-0.7,0.1c-0.2,0.1-0.4,0.2-0.6,0.4L71,21.6V3.6z M110,128.9H13.8c-0.2,0-0.5,0-0.7,0.1
			c-0.2,0.1-0.4,0.2-0.6,0.4c-0.2,0.2-0.3,0.4-0.4,0.6c-0.1,0.2-0.2,0.5-0.2,0.7s0.1,0.5,0.2,0.7c0.1,0.2,0.2,0.4,0.4,0.6
			c0.2,0.2,0.4,0.3,0.6,0.4c0.2,0.1,0.5,0.1,0.7,0.1H110v9.6H15c-3,0-5.9-1.2-8-3.3c-2.1-2.1-3.3-5-3.3-8c0-3,1.2-5.9,3.3-8
			c2.1-2.1,5-3.3,8-3.3h95V128.9z M110,45.3v70.4H87.2h-3.6H61h-3.6H14.9c-3.2,0-6.4,1-9,3l-2.4,1.8V15c0-1.5,0.3-3,0.9-4.4
			C5,9.3,5.8,8,6.9,6.9C7.9,5.9,9.2,5,10.6,4.5c1.4-0.6,2.9-0.9,4.4-0.9h52.5v22.3c0,0,0,0.1,0,0.1c0,0,0,0.1,0,0.2
			c0,0.1,0,0.2,0.1,0.3l0,0c0.1,0.3,0.3,0.5,0.5,0.7c0.2,0.2,0.5,0.3,0.8,0.4c0.3,0.1,0.6,0,0.9-0.1c0.3-0.1,0.6-0.3,0.8-0.5l9-9
			l9,9c0.2,0.2,0.4,0.3,0.6,0.4c0.2,0.1,0.5,0.1,0.7,0.1H90c0.5,0,0.9-0.2,1.3-0.5s0.5-0.8,0.5-1.3V3.6H110V45.3z"/>
		<path class="st2" fill= "#FFFFFF" d="M79.5,13.8c0.5,0,0.9,0.2,1.3,0.5l7.5,7.5V3.6H71v18l7.2-7.2C78.5,14,79,13.8,79.5,13.8z"/>
	</g>
</g>
</svg>
