<?xml version="1.0" encoding="utf-8"?>
<svg version="1.1" id="Layer_1" xmlns="http://www.w3.org/2000/svg" xmlns:xlink="http://www.w3.org/1999/xlink" x="0px" y="0px"
	 viewBox="0 0 202 153.1" fill="white" style="enable-background:new 0 0 202 153.1;" xml:space="preserve">
<path class="st0" d="M199,86h-25.1c6.7-12.4,10.1-25,10.1-37.3C184,22.8,162.5,0,138.1,0c-15,0-29,7.3-37.6,19.6
	C91.9,7.3,77.9,0,62.9,0C38.5,0,17,22.8,17,48.7c0,12.4,3.4,24.9,10.1,37.3H3c-1.7,0-3,1.3-3,3c0,1.7,1.3,3,3,3h27.6
	c6.8,10.9,16.1,21.6,27.7,32c12.5,11.1,26.2,20.7,40.9,28.7c0.8,0.4,1.8,0.4,2.6,0c14.7-8,28.4-17.7,40.9-28.7
	c11.7-10.4,21-21.1,27.7-32H199c1.7,0,3-1.3,3-3C202,87.4,200.7,86,199,86z M22.6,48.7c0-23,18.9-43.1,40.4-43.1
	c14.6,0,28,7.9,35.2,20.6c0.5,0.8,1.4,1.3,2.4,1.3c1,0,1.9-0.5,2.4-1.3c7.2-12.7,20.6-20.5,35.1-20.6c21.5,0,40.4,20.2,40.4,43.1
	c0,13.4-4.3,26-10.9,37.3h-35.9l-11-41.6c-0.4-1.6-2.1-2.6-3.7-2.1c-0.7,0.2-1.3,0.6-1.7,1.2c-0.4,0.4-0.7,0.9-0.9,1.6L102,103.8
	l-4.4-14.6c-0.2-0.5-0.5-1-0.9-1.3C96.3,86.8,95.2,86,94,86H33.4C26.9,74.7,22.6,62.1,22.6,48.7z M100.5,147.1
	c-7.2-4-42.8-24.6-63.3-55.1h55l6.9,23.1c0.1,0.3,0.3,0.6,0.4,0.9c0.1,1.3,1,2.3,2.4,2.6c1.6,0.3,3.2-0.7,3.6-2.3l12.4-58.8
	l8.4,31.6c0.2,0.9,0.8,1.5,1.5,1.9c0.5,0.6,1.3,1,2.2,1h33.8C143.3,122.5,107.7,143.2,100.5,147.1z"/>
</svg>
