<svg width="25" height="23" viewBox="0 0 25 23" fill="none" xmlns="http://www.w3.org/2000/svg">
<path d="M1.98326 2.54385C3.2774 1.14024 5.05314 0.367188 6.98376 0.367188C8.42686 0.367188 9.74846 0.823425 10.9119 1.72312C11.499 2.17726 12.031 2.73287 12.5 3.38137C12.9688 2.73306 13.501 2.17726 14.0882 1.72312C15.2515 0.823425 16.5731 0.367188 18.0162 0.367188C19.9469 0.367188 21.7228 1.14024 23.0169 2.54385C24.2956 3.93107 25 5.82621 25 7.88042C25 9.99472 24.2121 11.9301 22.5204 13.9714C21.0072 15.7973 18.8322 17.6508 16.3136 19.7972C15.4535 20.5302 14.4787 21.361 13.4665 22.246C13.199 22.4802 12.8559 22.6092 12.5 22.6092C12.1443 22.6092 11.801 22.4802 11.5339 22.2464C10.5217 21.3612 9.54628 20.53 8.68587 19.7966C6.1676 17.6506 3.99265 15.7973 2.47936 13.9712C0.787735 11.9301 0 9.99472 0 7.88023C0 5.82621 0.704384 3.93107 1.98326 2.54385Z" fill="#006A51"/>
</svg>
