<svg width="25" height="25" viewBox="0 0 25 25" fill="none" xmlns="http://www.w3.org/2000/svg">
<path d="M22.9502 11.0583L13.9336 2.05001C13.5502 1.66668 13.0419 1.45834 12.5002 1.45834C11.9586 1.45834 11.4502 1.66668 11.0586 2.05001L2.05857 11.05C2.05023 11.0583 2.05023 11.0583 2.05023 11.0583C1.25857 11.85 1.25857 13.1333 2.05857 13.9333C2.4169 14.2917 2.90023 14.5 3.40857 14.525C3.42523 14.525 3.45023 14.5333 3.47523 14.5333H3.83357V21.1667C3.83357 22.4833 4.90023 23.5417 6.20857 23.5417H9.73357C10.0919 23.5417 10.3836 23.25 10.3836 22.8917V17.7C10.3836 17.1 10.8669 16.6167 11.4669 16.6167H13.5419C14.1419 16.6167 14.6252 17.1 14.6252 17.7V22.9C14.6252 23.2583 14.9169 23.55 15.2752 23.55H18.8002C20.1169 23.55 21.1752 22.4833 21.1752 21.175V14.5333H21.5086C22.0502 14.5333 22.5586 14.325 22.9502 13.9417C23.7419 13.1417 23.7419 11.85 22.9502 11.0583Z" fill="#006A51" stroke="#006A51" stroke-width="1.5" stroke-miterlimit="10"/>
</svg>
