<svg width="24" height="24" viewBox="0 0 24 24" fill="none" xmlns="http://www.w3.org/2000/svg">
<path d="M21.9888 10.5602L13.1835 1.58921C12.8092 1.20747 12.3128 1 11.7838 1C11.2548 1 10.7584 1.20747 10.3759 1.58921L1.58695 10.5519C1.57882 10.5602 1.57882 10.5602 1.57882 10.5602C0.80571 11.3485 0.80571 12.6266 1.58695 13.4232C1.93689 13.7801 2.40889 13.9876 2.9053 14.0124C2.92158 14.0124 2.94599 14.0207 2.97041 14.0207H3.32034V20.6266C3.32034 21.9378 4.36199 22.9917 5.63965 22.9917H9.08201C9.43194 22.9917 9.71677 22.7012 9.71677 22.3444V17.1743C9.71677 16.5768 10.1888 16.0954 10.7747 16.0954H12.8011C13.387 16.0954 13.859 16.5768 13.859 17.1743V22.3527C13.859 22.7095 14.1438 23 14.4937 23H17.9361C19.2219 23 20.2554 21.9378 20.2554 20.6349V14.0207H20.5809C21.1099 14.0207 21.6063 13.8133 21.9888 13.4315C22.7619 12.6349 22.7619 11.3485 21.9888 10.5602Z" stroke="#56595B" stroke-width="1.5" stroke-miterlimit="10"/>
</svg>
