<svg width="198" height="198" fill="none" xmlns="http://www.w3.org/2000/svg">
	<defs>
        <linearGradient id="a" x1="104.96" y1="14.902" x2="104.96" y2="170.321" gradientUnits="userSpaceOnUse">
            <stop stop-color="#4ACFA3" stop-opacity=".33"/>
            <stop offset="1" stop-color="#4ACFA3" stop-opacity=".08"/>
        </linearGradient>
        <linearGradient id="b" x1="99.185" y1="7.054" x2="99.185" y2="190.571" gradientUnits="userSpaceOnUse">
            <stop stop-color="#04C598"/>
            <stop offset="1" stop-color="#189A7C"/>
        </linearGradient>
    </defs>
    <path fill-rule="evenodd" clip-rule="evenodd" d="M101.332 15.187c21.51.626 43.289 4.155 59.25 18.554 16.718 15.082 27.959 36.651 26.841 59.11-1.078 21.646-15.144 40.414-32.45 53.514-15.155 11.471-34.797 9.056-53.641 11.649-24.378 3.354-52.805 22.215-70.803 5.472-17.946-16.693-.713-46.201.751-70.635 1.308-21.82-7.417-46.416 7.239-62.664 14.97-16.598 40.441-15.652 62.813-15Z" fill="url(#a)"/>
    <path fill-rule="evenodd" clip-rule="evenodd" d="M101.708 7.076c24.386.735 41.043 21.267 58.11 37.88 16.786 16.341 36.835 32.514 37.68 55.365.863 23.345-15.972 43.013-33.435 59.409-17.303 16.245-38.251 33.397-62.355 30.524-22.958-2.737-31.612-28.655-48.485-43.739-17.987-16.08-49.136-22.866-52.113-46.194-3.054-23.926 20.556-42.178 38.688-58.985 17.783-16.482 37.113-35.008 61.91-34.26Z" fill="url(#b)"/>
    <path d="m168.18 148.544-41.47-41.259a2.788 2.788 0 0 0-3.822 0l-21.622 21.512a2.689 2.689 0 0 0-.792 1.902 2.677 2.677 0 0 0 .792 1.901l41.468 41.259a17.995 17.995 0 0 0 5.838 3.913 18.091 18.091 0 0 0 13.807.03c2.19-.9 4.179-2.221 5.855-3.888a17.892 17.892 0 0 0 3.907-5.825 17.813 17.813 0 0 0-.029-13.736 17.911 17.911 0 0 0-3.932-5.809ZM113.196 99.218l-13.27-13.204a2.672 2.672 0 0 0-2.217-.77 2.711 2.711 0 0 0-1.985 1.246 48.533 48.533 0 0 1-15.36 15.28 2.703 2.703 0 0 0-.852.846 2.677 2.677 0 0 0 .375 3.335l13.27 13.203a2.696 2.696 0 0 0 1.912.788 2.698 2.698 0 0 0 1.91-.788l16.218-16.134c.251-.25.45-.546.586-.872a2.695 2.695 0 0 0-.001-2.058 2.687 2.687 0 0 0-.586-.872Z" fill="#DAE3F7"/>
    <path d="M54.526 114.564c29.854 0 54.056-24.079 54.056-53.782C108.582 31.079 84.381 7 54.526 7 24.67 7 .469 31.079.469 60.782c0 29.703 24.202 53.782 54.057 53.782Z" fill="#DAE3F7"/>
    <path d="M54.526 103.808c23.883 0 43.245-19.263 43.245-43.026 0-23.762-19.362-43.025-43.245-43.025-23.884 0-43.245 19.263-43.245 43.025 0 23.763 19.361 43.026 43.245 43.026Z" fill="#fff"/>
    <path d="M132.116 101.907 121.304 91.15a2.69 2.69 0 0 0-1.91-.788 2.717 2.717 0 0 0-1.911.788l-32.434 32.27a2.671 2.671 0 0 0-.792 1.901 2.675 2.675 0 0 0 .792 1.901l10.811 10.756a2.696 2.696 0 0 0 1.911.788 2.698 2.698 0 0 0 1.91-.788l32.435-32.269a2.684 2.684 0 0 0 .792-1.901 2.674 2.674 0 0 0-.792-1.901Z" fill="#EAEEF9"/>
    <path d="M155.457 173.725a12.564 12.564 0 0 1-4.82-.947 12.507 12.507 0 0 1-4.081-2.722 2.69 2.69 0 0 1-.82-1.91 2.69 2.69 0 0 1 .791-1.922 2.705 2.705 0 0 1 1.932-.787 2.722 2.722 0 0 1 1.92.817 7.374 7.374 0 0 0 5.078 2.024c1.891 0 3.71-.725 5.078-2.024a2.706 2.706 0 0 1 2.968-.621 2.698 2.698 0 0 1 1.478 1.47 2.681 2.681 0 0 1-.624 2.953 12.507 12.507 0 0 1-4.081 2.722c-1.527.63-3.165.951-4.819.947Z" fill="#C3CFE5"/>
    <path d="M72.599 51.772h-9.122v-9.123a3.04 3.04 0 0 0-3.04-3.04H48.275a3.04 3.04 0 0 0-3.04 3.04v9.123h-9.121a3.04 3.04 0 0 0-3.04 3.04v12.165a3.041 3.041 0 0 0 3.04 3.04h9.12v9.123a3.041 3.041 0 0 0 3.041 3.041h12.162a3.04 3.04 0 0 0 3.04-3.04v-9.124H72.6a3.04 3.04 0 0 0 3.04-3.04V54.813a3.041 3.041 0 0 0-3.04-3.041Z" fill="#FB5968"/>
</svg>
