<svg width="24" height="24" viewBox="0 0 24 24" fill="none" xmlns="http://www.w3.org/2000/svg">
<path d="M22.4927 10.6L13.476 1.59167C13.0927 1.20833 12.5844 1 12.0427 1C11.501 1 10.9927 1.20833 10.601 1.59167L1.60105 10.5917C1.59271 10.6 1.59271 10.6 1.59271 10.6C0.801046 11.3917 0.801046 12.675 1.60105 13.475C1.95938 13.8333 2.44271 14.0417 2.95105 14.0667C2.96771 14.0667 2.99271 14.075 3.01771 14.075H3.37605V20.7083C3.37605 22.025 4.44271 23.0833 5.75105 23.0833H9.27605C9.63438 23.0833 9.92605 22.7917 9.92605 22.4333V17.2417C9.92605 16.6417 10.4094 16.1583 11.0094 16.1583H13.0844C13.6844 16.1583 14.1677 16.6417 14.1677 17.2417V22.4417C14.1677 22.8 14.4594 23.0917 14.8177 23.0917H18.3427C19.6594 23.0917 20.7177 22.025 20.7177 20.7167V14.075H21.051C21.5927 14.075 22.101 13.8667 22.4927 13.4833C23.2844 12.6833 23.2844 11.3917 22.4927 10.6Z" fill="white" stroke="white" stroke-width="1.5" stroke-miterlimit="10"/>
</svg>
