<svg width="174" height="158" viewBox="0 0 174 158" fill="none" xmlns="http://www.w3.org/2000/svg">
<path fill-rule="evenodd" clip-rule="evenodd" d="M24.319 50.8525C33.7737 39.9113 47.7361 36.473 61.2532 31.1525C79.2772 24.058 96.6962 8.09078 114.895 15.2003C134.286 22.7754 142.613 45.1582 148.151 65.0992C153.976 86.0711 157.907 109.523 146.117 127.621C134.429 145.564 111.71 154.553 90.0788 154.249C71.734 153.991 60.1915 136.514 44.9322 126.201C30.5913 116.509 9.26488 113.154 4.72687 96.5661C0.14607 79.8216 13.0509 63.8922 24.319 50.8525Z" fill="url(#paint0_linear_3886_6125)"/>
<path fill-rule="evenodd" clip-rule="evenodd" d="M92.5675 7.59627C112.207 8.18865 125.621 24.724 139.365 38.1028C152.884 51.2627 169.03 64.287 169.71 82.6898C170.406 101.49 156.848 117.33 142.784 130.534C128.849 143.617 111.98 157.43 92.5675 155.116C74.0784 152.911 67.1091 132.039 53.5209 119.892C39.0353 106.942 13.9502 101.477 11.5523 82.6898C9.093 63.4212 28.1072 48.7227 42.7098 35.1874C57.0305 21.9134 72.5978 6.99392 92.5675 7.59627Z" fill="url(#paint1_linear_3886_6125)"/>
<path d="M144.856 57.0112H116.549C115.433 57.0112 114.527 57.9165 114.527 59.0332V131.823C114.527 132.939 115.433 133.845 116.549 133.845H144.856C145.973 133.845 146.878 132.939 146.878 131.823V59.0332C146.878 57.9165 145.973 57.0112 144.856 57.0112Z" fill="#DAE3F7"/>
<path d="M63.9813 57.0112H35.6743C34.5576 57.0112 33.6523 57.9165 33.6523 59.0332V131.823C33.6523 132.939 34.5576 133.845 35.6743 133.845H63.9813C65.098 133.845 66.0032 132.939 66.0032 131.823V59.0332C66.0032 57.9165 65.098 57.0112 63.9813 57.0112Z" fill="#DAE3F7"/>
<path d="M63.9807 46.9019H29.6079C28.4912 46.9019 27.5859 47.8071 27.5859 48.9238V59.0334C27.5859 60.1501 28.4912 61.0554 29.6079 61.0554H63.9807C65.0974 61.0554 66.0026 60.1501 66.0026 59.0334V48.9238C66.0026 47.8071 65.0974 46.9019 63.9807 46.9019Z" fill="#C5CCE8"/>
<path d="M150.922 46.9019H116.549C115.433 46.9019 114.527 47.8071 114.527 48.9238V59.0334C114.527 60.1501 115.433 61.0554 116.549 61.0554H150.922C152.039 61.0554 152.944 60.1501 152.944 59.0334V48.9238C152.944 47.8071 152.039 46.9019 150.922 46.9019Z" fill="#C5CCE8"/>
<path d="M116.549 24.6602H63.979C62.8623 24.6602 61.957 25.5654 61.957 26.6821V131.822C61.957 132.939 62.8623 133.844 63.979 133.844H116.549C117.666 133.844 118.571 132.939 118.571 131.822V26.6821C118.571 25.5654 117.666 24.6602 116.549 24.6602Z" fill="#EAEEF9"/>
<path d="M102.398 101.494H78.1352C77.0185 101.494 76.1133 102.399 76.1133 103.516V131.823C76.1133 132.939 77.0185 133.845 78.1352 133.845H102.398C103.515 133.845 104.42 132.939 104.42 131.823V103.516C104.42 102.399 103.515 101.494 102.398 101.494Z" fill="#39C3FC"/>
<path d="M90.2641 133.845C89.7279 133.845 89.2136 133.632 88.8344 133.252C88.4552 132.873 88.2422 132.359 88.2422 131.823V103.516C88.2422 102.979 88.4552 102.465 88.8344 102.086C89.2136 101.707 89.7279 101.494 90.2641 101.494C90.8004 101.494 91.3147 101.707 91.6938 102.086C92.073 102.465 92.286 102.979 92.286 103.516V131.823C92.286 132.359 92.073 132.873 91.6938 133.252C91.3147 133.632 90.8004 133.845 90.2641 133.845Z" fill="#2594EF"/>
<path d="M122.614 12.5288H57.9126C56.7959 12.5288 55.8906 13.4341 55.8906 14.5507V26.6823C55.8906 27.799 56.7959 28.7042 57.9126 28.7042H122.614C123.731 28.7042 124.636 27.799 124.636 26.6823V14.5507C124.636 13.4341 123.731 12.5288 122.614 12.5288Z" fill="#DAE3F7"/>
<path d="M138.79 65.0991H126.659C125.542 65.0991 124.637 66.0044 124.637 67.1211V75.2088C124.637 76.3255 125.542 77.2307 126.659 77.2307H138.79C139.907 77.2307 140.812 76.3255 140.812 75.2088V67.1211C140.812 66.0044 139.907 65.0991 138.79 65.0991Z" fill="#6CC4EA"/>
<path d="M138.79 81.2744H126.659C125.542 81.2744 124.637 82.1797 124.637 83.2963V91.3841C124.637 92.5007 125.542 93.406 126.659 93.406H138.79C139.907 93.406 140.812 92.5007 140.812 91.3841V83.2963C140.812 82.1797 139.907 81.2744 138.79 81.2744Z" fill="#6CC4EA"/>
<path d="M138.79 97.4497H126.659C125.542 97.4497 124.637 98.355 124.637 99.4716V107.559C124.637 108.676 125.542 109.581 126.659 109.581H138.79C139.907 109.581 140.812 108.676 140.812 107.559V99.4716C140.812 98.355 139.907 97.4497 138.79 97.4497Z" fill="#6CC4EA"/>
<path d="M138.79 113.625H126.659C125.542 113.625 124.637 114.531 124.637 115.647V123.735C124.637 124.852 125.542 125.757 126.659 125.757H138.79C139.907 125.757 140.812 124.852 140.812 123.735V115.647C140.812 114.531 139.907 113.625 138.79 113.625Z" fill="#6CC4EA"/>
<path d="M53.8723 65.0991H41.7407C40.624 65.0991 39.7188 66.0044 39.7188 67.1211V75.2088C39.7188 76.3255 40.624 77.2307 41.7407 77.2307H53.8723C54.9889 77.2307 55.8942 76.3255 55.8942 75.2088V67.1211C55.8942 66.0044 54.9889 65.0991 53.8723 65.0991Z" fill="#6CC4EA"/>
<path d="M53.8723 81.2744H41.7407C40.624 81.2744 39.7188 82.1797 39.7188 83.2963V91.3841C39.7188 92.5007 40.624 93.406 41.7407 93.406H53.8723C54.9889 93.406 55.8942 92.5007 55.8942 91.3841V83.2963C55.8942 82.1797 54.9889 81.2744 53.8723 81.2744Z" fill="#6CC4EA"/>
<path d="M53.8723 97.4497H41.7407C40.624 97.4497 39.7188 98.355 39.7188 99.4716V107.559C39.7188 108.676 40.624 109.581 41.7407 109.581H53.8723C54.9889 109.581 55.8942 108.676 55.8942 107.559V99.4716C55.8942 98.355 54.9889 97.4497 53.8723 97.4497Z" fill="#6CC4EA"/>
<path d="M53.8723 113.625H41.7407C40.624 113.625 39.7188 114.531 39.7188 115.647V123.735C39.7188 124.852 40.624 125.757 41.7407 125.757H53.8723C54.9889 125.757 55.8942 124.852 55.8942 123.735V115.647C55.8942 114.531 54.9889 113.625 53.8723 113.625Z" fill="#6CC4EA"/>
<path d="M100.374 40.8358H94.3083V34.77C94.3083 34.2337 94.0952 33.7194 93.716 33.3403C93.3369 32.9611 92.8226 32.748 92.2863 32.748H88.2425C87.7062 32.748 87.1919 32.9611 86.8127 33.3403C86.4336 33.7194 86.2205 34.2337 86.2205 34.77V40.8358H80.1547C79.6185 40.8358 79.1042 41.0488 78.725 41.428C78.3458 41.8072 78.1328 42.3214 78.1328 42.8577V46.9016C78.1328 47.4378 78.3458 47.9521 78.725 48.3313C79.1042 48.7105 79.6185 48.9235 80.1547 48.9235H86.2205V54.9893C86.2205 55.5255 86.4336 56.0398 86.8127 56.419C87.1919 56.7982 87.7062 57.0112 88.2425 57.0112H92.2863C92.8226 57.0112 93.3369 56.7982 93.716 56.419C94.0952 56.0398 94.3083 55.5255 94.3083 54.9893V48.9235H100.374C100.91 48.9235 101.425 48.7105 101.804 48.3313C102.183 47.9521 102.396 47.4378 102.396 46.9016V42.8577C102.396 42.3214 102.183 41.8072 101.804 41.428C101.425 41.0488 100.91 40.8358 100.374 40.8358Z" fill="#FB5968"/>
<path d="M108.461 61.0552H94.3071C93.1904 61.0552 92.2852 61.9604 92.2852 63.0771V71.1648C92.2852 72.2815 93.1904 73.1868 94.3071 73.1868H108.461C109.577 73.1868 110.483 72.2815 110.483 71.1648V63.0771C110.483 61.9604 109.577 61.0552 108.461 61.0552Z" fill="#6CC4EA"/>
<path d="M86.2223 61.0552H72.0688C70.9521 61.0552 70.0469 61.9604 70.0469 63.0771V71.1648C70.0469 72.2815 70.9521 73.1868 72.0688 73.1868H86.2223C87.339 73.1868 88.2442 72.2815 88.2442 71.1648V63.0771C88.2442 61.9604 87.339 61.0552 86.2223 61.0552Z" fill="#6CC4EA"/>
<path d="M108.461 77.2305H94.3071C93.1904 77.2305 92.2852 78.1357 92.2852 79.2524V87.3401C92.2852 88.4568 93.1904 89.362 94.3071 89.362H108.461C109.577 89.362 110.483 88.4568 110.483 87.3401V79.2524C110.483 78.1357 109.577 77.2305 108.461 77.2305Z" fill="#6CC4EA"/>
<path d="M86.2223 77.2305H72.0688C70.9521 77.2305 70.0469 78.1357 70.0469 79.2524V87.3401C70.0469 88.4568 70.9521 89.362 72.0688 89.362H86.2223C87.339 89.362 88.2442 88.4568 88.2442 87.3401V79.2524C88.2442 78.1357 87.339 77.2305 86.2223 77.2305Z" fill="#6CC4EA"/>
<path d="M152.945 129.718H27.5853C26.4228 129.718 25.4805 130.66 25.4805 131.823V139.91C25.4805 141.073 26.4228 142.015 27.5853 142.015H152.945C154.107 142.015 155.05 141.073 155.05 139.91V131.823C155.05 130.66 154.107 129.718 152.945 129.718Z" fill="#C5CCE8"/>
<path d="M106.439 93.4062H74.0883C72.9717 93.4062 72.0664 94.3115 72.0664 95.4282V101.494C72.0664 102.611 72.9717 103.516 74.0883 103.516H106.439C107.556 103.516 108.461 102.611 108.461 101.494V95.4282C108.461 94.3115 107.556 93.4062 106.439 93.4062Z" fill="#C5CCE8"/>
<defs>
<linearGradient id="paint0_linear_3886_6125" x1="28.5047" y1="40.3554" x2="152.047" y2="118.223" gradientUnits="userSpaceOnUse">
<stop stop-color="#4ACFA3" stop-opacity="0.33"/>
<stop offset="1" stop-color="#4ACFA3" stop-opacity="0.08"/>
</linearGradient>
<linearGradient id="paint1_linear_3886_6125" x1="90.5359" y1="7.57861" x2="90.5359" y2="155.371" gradientUnits="userSpaceOnUse">
<stop stop-color="#04C598"/>
<stop offset="1" stop-color="#189A7C"/>
</linearGradient>
</defs>
</svg>
