<svg width="25" height="25" viewBox="0 0 25 25" fill="none" xmlns="http://www.w3.org/2000/svg">
<path d="M24.7658 10.0508C23.827 5.13632 19.8639 1.17323 14.9494 0.234462C6.15805 -1.44479 -1.44503 6.15829 0.234218 14.9497C1.17304 19.8641 5.13612 23.8272 10.0506 24.766C18.8419 26.4453 26.445 18.8422 24.7658 10.0508ZM18.2922 18.2925C17.9871 18.5977 17.5873 18.7502 17.1875 18.7502C16.7877 18.7502 16.3879 18.5977 16.0828 18.2925L11.3953 13.605C11.1023 13.312 10.9375 12.9153 10.9375 12.5002V6.25023C10.9375 5.38656 11.6371 4.68773 12.5 4.68773C13.3629 4.68773 14.0625 5.38661 14.0625 6.25023V11.8533L18.2922 16.083C18.9026 16.6934 18.9026 17.6821 18.2922 18.2925Z" fill="#38B68C"/>
</svg>
