<svg width="30" height="29" viewBox="0 0 30 29" fill="none" xmlns="http://www.w3.org/2000/svg">
<path d="M13.9459 20.2105C14.5318 20.7975 15.0595 21.3171 15.5759 21.8473C15.8685 22.1482 15.9665 22.5097 15.8341 22.9206C15.7069 23.3161 15.4309 23.5549 15.0356 23.6389C14.6199 23.727 14.2902 23.5562 13.9976 23.2607C12.1511 21.3944 10.3001 19.5328 8.45034 17.6692C7.51356 16.726 6.57214 15.7869 5.64264 14.8371C5.0276 14.2087 5.28646 13.2349 6.11666 13.0261C6.50262 12.9294 6.83695 13.0455 7.11567 13.323C7.56321 13.7679 8.00611 14.2181 8.45166 14.6657C8.52846 14.7424 8.60791 14.8157 8.70589 14.9091C9.39044 14.2108 10.0558 13.5324 10.7536 12.8214C11.2931 13.3703 11.8095 13.8959 12.3411 14.4369C12.5815 14.1707 12.8026 13.9253 13.0131 13.6925C12.5172 13.1989 11.9956 12.6793 11.4937 12.1797C12.0028 11.6681 12.4457 11.2232 12.9112 10.7556C13.3925 11.2486 13.9062 11.7755 14.4299 12.3131C14.7026 12.0323 14.9377 11.7902 15.1694 11.5514C14.6556 11.0365 14.1406 10.5209 13.652 10.0313C14.1386 9.54168 14.5874 9.09145 15.0648 8.61121C15.5375 9.09412 16.0472 9.61572 16.5736 10.154C16.8079 9.8912 17.033 9.63907 17.2674 9.37693C16.7828 8.89135 16.2624 8.36908 15.7573 7.86215C16.2372 7.37857 16.6801 6.93234 17.1456 6.46343C17.6374 6.97103 18.1439 7.49396 18.6689 8.03624C18.9178 7.75543 19.1416 7.50264 19.3799 7.23316C18.8927 6.76959 18.3591 6.26133 17.8261 5.7544C18.4206 5.14542 18.9291 4.58847 19.4766 4.07554C19.8804 3.69668 20.4855 3.75738 20.9092 4.17826C21.6481 4.91197 22.3783 5.65435 23.1118 6.3934C23.5958 6.88098 24.0804 7.36723 24.563 7.85615C25.1423 8.44245 25.141 9.00474 24.5558 9.59438C21.1383 13.0381 17.7202 16.4819 14.3001 19.9237C14.2068 20.0177 14.0942 20.0918 13.9459 20.2105Z" fill="#00B288"/>
<path d="M2.61797 22.6828C4.17443 21.1146 5.70042 19.5765 7.19001 18.0758C8.40816 19.303 9.5952 20.499 10.8604 21.7737C9.36083 23.2337 7.80107 24.7532 6.20953 26.3033C6.524 26.6135 6.78551 26.8649 7.03973 27.1237C7.5164 27.6093 7.53626 28.2543 7.09402 28.6925C6.66038 29.1214 6.02681 29.1027 5.56007 28.6338C3.82685 26.8923 2.09562 25.1481 0.366379 23.4018C-0.100357 22.9309 -0.120879 22.2946 0.30415 21.857C0.737785 21.4101 1.37996 21.4281 1.86126 21.9071C2.11813 22.1625 2.36772 22.426 2.61797 22.6828Z" fill="#00B288"/>
<path d="M29.8143 0.189634C28.8057 0.736479 27.7554 1.30471 26.7057 1.87559C26.648 1.90673 26.5942 1.9485 26.547 1.99365C25.4026 3.10042 24.2589 4.20853 23.1077 5.32383C23.3679 5.56045 23.6175 5.78703 23.84 5.98881C25.8038 4.08214 27.8236 2.12248 29.8143 0.189634V0.189634Z" fill="#00B288"/>
</svg>
