<svg width="16" height="20" viewBox="0 0 16 20" fill="none" xmlns="http://www.w3.org/2000/svg">
<path fill-rule="evenodd" clip-rule="evenodd" d="M8 0C6 0 4.125 0.75 2.75 2.25C1.25 3.625 0.5 5.5 0.5 7.5C0.5 12.875 7.5 19.625 7.75 19.875C7.75 19.875 7.875 19.875 8 19.875C8.125 19.875 8.125 19.875 8.25 19.875C8.5 19.625 15.5 12.875 15.5 7.5C15.5 5.5 14.75 3.625 13.25 2.25C11.875 0.75 10 0 8 0ZM6.875 11.25C6.875 11.25 6.625 11.25 6.625 11V8.875H4.5C4.5 8.875 4.25 8.875 4.25 8.625V6.25C4.25 6.25 4.25 6 4.5 6H6.625V3.875C6.625 3.875 6.625 3.625 6.875 3.625H9.25C9.25 3.625 9.5 3.625 9.5 3.875V6H11.625C11.625 6 11.875 6 11.875 6.25V8.625C11.875 8.625 11.875 8.875 11.625 8.875H9.5V11C9.5 11 9.5 11.25 9.25 11.25H6.875Z" fill="white"/>
</svg>
