<svg width="16" height="17" viewBox="0 0 16 17" fill="none" xmlns="http://www.w3.org/2000/svg">
<g clip-path="url(#clip0_2475_27647)">
<g clip-path="url(#clip1_2475_27647)">
<path fill-rule="evenodd" clip-rule="evenodd" d="M8 0.5C6.4 0.5 4.9 1.1 3.8 2.3C2.6 3.4 2 4.9 2 6.5C2 10.8 7.6 16.2 7.8 16.4C7.8 16.4 7.9 16.4 8 16.4C8.1 16.4 8.1 16.4 8.2 16.4C8.4 16.2 14 10.8 14 6.5C14 4.9 13.4 3.4 12.2 2.3C11.1 1.1 9.6 0.5 8 0.5ZM7.1 9.5C7.1 9.5 6.9 9.5 6.9 9.3V7.6H5.2C5.2 7.6 5 7.6 5 7.4V5.5C5 5.5 5 5.3 5.2 5.3H6.9V3.6C6.9 3.6 6.9 3.4 7.1 3.4H9C9 3.4 9.2 3.4 9.2 3.6V5.3H10.9C10.9 5.3 11.1 5.3 11.1 5.5V7.4C11.1 7.4 11.1 7.6 10.9 7.6H9.2V9.3C9.2 9.3 9.2 9.5 9 9.5H7.1Z" fill="#00664E"/>
</g>
</g>
<defs>
<clipPath id="clip0_2475_27647">
<rect width="16" height="16" fill="white" transform="translate(0 0.5)"/>
</clipPath>
<clipPath id="clip1_2475_27647">
<rect width="12" height="16" fill="white" transform="translate(2 0.5)"/>
</clipPath>
</defs>
</svg>
