<svg version="1.1" id="Layer_1" xmlns="http://www.w3.org/2000/svg" xmlns:xlink="http://www.w3.org/1999/xlink" x="0px" y="0px"
	 viewBox="0 0 17 17" fill="#00B288" style="enable-background:new 0 0 17 17;" xml:space="preserve">
<path class="st0" d="M8.5,0C3.8,0,0,3.8,0,8.5C0,13.2,3.8,17,8.5,17c4.7,0,8.5-3.8,8.5-8.5C17,3.8,13.2,0,8.5,0z M10,12.5
	c0,0.8-0.7,1.5-1.5,1.5S7,13.3,7,12.5v-4C7,7.7,7.7,7,8.5,7S10,7.7,10,8.5V12.5z M8.5,6C7.7,6,7,5.3,7,4.5S7.7,3,8.5,3
	S10,3.7,10,4.5S9.3,6,8.5,6z"/>
</svg>
