<svg width="16" height="17" viewBox="0 0 16 17" fill="none" xmlns="http://www.w3.org/2000/svg">
<rect y="0.5" width="16" height="16" rx="8" fill="#3178CC"/>
<path d="M8 6.5C8.55228 6.5 9 6.94772 9 7.5V12.1667C9 12.719 8.55228 13.1667 8 13.1667C7.44772 13.1667 7 12.719 7 12.1667V7.5C7 6.94771 7.44772 6.5 8 6.5Z" fill="white"/>
<path d="M7 4.83337C7 4.54372 7.09053 4.30464 7.2716 4.11613C7.45267 3.92763 7.69547 3.83337 8 3.83337C8.30041 3.83337 8.54115 3.92763 8.72222 4.11613C8.90741 4.30464 9 4.54372 9 4.83337C9 5.12303 8.90741 5.36211 8.72222 5.55062C8.54115 5.73912 8.30041 5.83337 8 5.83337C7.69547 5.83337 7.45267 5.73912 7.2716 5.55062C7.09053 5.36211 7 5.12303 7 4.83337Z" fill="white"/>
</svg>
