<svg width="20" height="20" viewBox="0 0 20 20" fill="none" xmlns="http://www.w3.org/2000/svg">
<path d="M10 0.375C4.71339 0.375 0.375 4.71339 0.375 10C0.375 15.2866 4.71339 19.625 10 19.625C15.2866 19.625 19.625 15.2866 19.625 10C19.625 4.71339 15.2866 0.375 10 0.375ZM11.1279 14.5117C11.1279 15.1335 10.6218 15.6396 10 15.6396C9.37821 15.6396 8.87207 15.1335 8.87207 14.5117V8.87207C8.87207 8.25028 9.37821 7.74414 10 7.74414C10.6218 7.74414 11.1279 8.25028 11.1279 8.87207V14.5117ZM10 6.61621C9.37821 6.61621 8.87207 6.11007 8.87207 5.48828C8.87207 4.86649 9.37821 4.36035 10 4.36035C10.6218 4.36035 11.1279 4.86649 11.1279 5.48828C11.1279 6.11007 10.6218 6.61621 10 6.61621Z" fill="black"/>
</svg>
