<svg width="24" height="26" viewBox="0 0 24 26" fill="none" xmlns="http://www.w3.org/2000/svg">
<path d="M12.6719 12.54V20.9932H11.2188V12.54H12.6719ZM11.1094 10.2979C11.1094 10.0635 11.1797 9.86556 11.3203 9.7041C11.4661 9.54264 11.6797 9.46191 11.9609 9.46191C12.237 9.46191 12.4479 9.54264 12.5938 9.7041C12.7448 9.86556 12.8203 10.0635 12.8203 10.2979C12.8203 10.5218 12.7448 10.7145 12.5938 10.876C12.4479 11.0322 12.237 11.1104 11.9609 11.1104C11.6797 11.1104 11.4661 11.0322 11.3203 10.876C11.1797 10.7145 11.1094 10.5218 11.1094 10.2979Z" fill="#3178CC"/>
<rect x="0.5" y="1.49316" width="23" height="23.0141" rx="11.5" stroke="#3178CC"/>
</svg>
