<svg viewBox="0 0 35 35" xmlns="http://www.w3.org/2000/svg" data-uw-styling-context="true"><g fill="none" data-uw-styling-context="true"><circle fill="#405DE6" cx="17.5" cy="17.5" r="17.5" data-uw-styling-context="true"></circle>
<path d="M17.5 8.893c2.803 0 3.136.01 4.244.06 2.845.13 4.174 1.48 4.304 4.305.05 1.107.06 1.44.06 4.243 0 2.804-.01 3.136-.06 4.243-.13 2.822-1.456 4.174-4.304 4.304-1.108.05-1.439.061-4.244.061-2.803 0-3.136-.01-4.243-.061-2.852-.13-4.175-1.487-4.304-4.305-.05-1.107-.061-1.439-.061-4.243 0-2.803.011-3.135.061-4.243.13-2.823 1.456-4.175 4.304-4.304 1.108-.05 1.44-.06 4.243-.06zM17.5 7c-2.852 0-3.209.012-4.329.063-3.813.175-5.932 2.29-6.107 6.108C7.012 14.29 7 14.648 7 17.5c0 2.852.012 3.21.063 4.33.175 3.813 2.29 5.932 6.108 6.107 1.12.05 1.477.063 4.329.063 2.852 0 3.21-.012 4.33-.063 3.81-.175 5.934-2.29 6.106-6.108.052-1.12.064-1.477.064-4.329 0-2.852-.012-3.209-.063-4.329-.172-3.81-2.29-5.932-6.107-6.107C20.71 7.012 20.352 7 17.5 7zm0 5.108a5.392 5.392 0 1 0 0 10.784 5.392 5.392 0 0 0 0-10.784zm0 8.892a3.5 3.5 0 1 1 0-7 3.5 3.5 0 0 1 0 7zm5.605-10.364a1.26 1.26 0 1 0 0 2.52 1.26 1.26 0 0 0 0-2.52z" fill="#FFF" data-uw-styling-context="true"></path>
</g></svg>