<svg version="1.1" id="Layer_1" xmlns="http://www.w3.org/2000/svg" x="0px" y="0px"
     viewBox="0 0 68 56.2" style="enable-background:new 0 0 68 56.2;" xml:space="preserve">
	<circle class="st0" cx="34" cy="43.2" r="2" fill="#006A51"/>
    <path class="st0"
          d="M32,20.7v17.2c0,0.9,0.9,1.7,2,1.7c1.1,0,2-0.7,2-1.7V20.7c0-0.9-0.9-1.7-2-1.7C32.8,19,32,19.7,32,20.7z"
          fill="#006A51"/>
    <path class="st0" d="M67.7,54L35.3,0.7C35,0.3,34.5,0,34,0s-1,0.3-1.3,0.7L0.2,54c-0.3,0.5-0.3,1,0,1.5C0.5,56,1,56.3,1.5,56.3h65
		c0.5,0,1-0.3,1.3-0.8S68,54.4,67.7,54z M4.2,53.3L34,4.4l29.8,48.9H4.2z" fill="#006A51"/>
</svg>