<svg width="239" height="227" viewBox="0 0 239 227" fill="none" xmlns="http://www.w3.org/2000/svg">
<defs>
<linearGradient id="paint0_linear_8219_2723" x1="107.193" y1="11.5415" x2="128.352" y2="208.035" gradientUnits="userSpaceOnUse">
<stop stop-color="#04C598"/>
<stop offset="1" stop-color="#189A7C"/>
</linearGradient>
<linearGradient id="paint1_linear_8219_2723" x1="142.305" y1="21.5855" x2="101.106" y2="205.016" gradientUnits="userSpaceOnUse">
<stop stop-color="#4ACFA3" stop-opacity="0.33"/>
<stop offset="1" stop-color="#4ACFA3" stop-opacity="0.08"/>
</linearGradient>
</defs>
<path fill-rule="evenodd" clip-rule="evenodd" d="M109.946 11.2689C136.611 9.19433 157.134 29.2233 177.651 45.0077C197.833 60.5338 221.549 75.4969 225.105 99.8645C228.738 124.759 212.655 147.794 195.511 167.398C178.524 186.823 157.669 207.647 131.065 207.399C105.725 207.163 93.3042 180.429 73.1742 166.259C51.7147 151.153 16.9808 147.543 11.0459 122.914C4.95878 97.6547 28.5893 75.3416 46.4155 55.218C63.8976 35.4829 82.8313 13.3784 109.946 11.2689Z" fill="url(#paint0_linear_8219_2723)"/>
<path fill-rule="evenodd" clip-rule="evenodd" d="M138.005 20.972C162.884 27.3366 187.307 37.1977 202.075 58.366C217.543 80.5383 224.915 108.934 217.659 135.148C210.665 160.414 189.313 178.886 165.689 189.821C145.003 199.395 122.773 191.409 100.144 189.541C70.8702 187.124 32.7709 201.95 16.2523 177.484C-0.217834 153.089 27.6688 122.769 35.8513 94.3141C43.158 68.9044 39.5192 37.5931 60.891 22.249C82.722 6.5752 112.129 14.3526 138.005 20.972Z" fill="url(#paint1_linear_8219_2723)"/>
<path d="M203.161 47.9465C202.876 47.6476 202.534 47.4097 202.154 47.2471C201.775 47.0844 201.366 47.0006 200.953 47.0005C157.017 47.0005 121.102 14.6117 120.744 14.2848C120.182 13.7699 119.448 13.4844 118.685 13.4844C117.923 13.4844 117.189 13.7699 116.627 14.2848C116.27 14.6117 80.4285 47.0005 36.4194 47.0005C36.0063 47.0002 35.5976 47.0839 35.218 47.2466C34.8384 47.4093 34.4959 47.6476 34.2112 47.9469C33.9266 48.2462 33.7059 48.6002 33.5625 48.9875C33.4191 49.3748 33.356 49.7873 33.377 50.1997L35.3155 88.9596C36.5099 114.529 44.8386 139.253 59.3589 160.333C73.8792 181.413 94.011 198.007 117.475 208.236L117.486 208.24C117.87 208.405 118.283 208.489 118.701 208.487C119.118 208.486 119.531 208.398 119.914 208.23C143.375 198 163.503 181.406 178.021 160.327C192.539 139.248 200.865 114.526 202.059 88.9596L203.995 50.1997C204.016 49.7872 203.953 49.3749 203.809 48.9876C203.666 48.6003 203.445 48.2461 203.161 47.9465Z" fill="#6CC4EA"/>
<path d="M188.535 58.4522C157.929 54.8547 132.78 38.9314 120.512 29.7593C119.986 29.3653 119.346 29.1523 118.688 29.1523C118.031 29.1523 117.391 29.3653 116.864 29.7593C104.596 38.9305 79.4482 54.8547 48.8413 58.4522C48.0739 58.5424 47.3695 58.9209 46.8706 59.5109C46.3718 60.1009 46.1157 60.8584 46.1542 61.6301L47.4903 88.3516C48.5941 110.7 55.6517 132.347 67.9322 151.051C80.2128 169.756 97.2698 184.837 117.337 194.735C117.756 194.941 118.217 195.048 118.683 195.047C119.15 195.047 119.61 194.94 120.029 194.733C140.093 184.832 157.149 169.749 169.43 151.046C181.712 132.343 188.774 110.699 189.886 88.3516L191.222 61.6301C191.261 60.8584 191.005 60.1009 190.506 59.5109C190.007 58.9209 189.303 58.5424 188.535 58.4522Z" fill="#2266B6"/>
<path d="M146.108 95.7503H130.874V80.5157C130.874 79.7076 130.553 78.9326 129.981 78.3612C129.41 77.7898 128.635 77.4688 127.827 77.4688H109.545C108.737 77.4688 107.962 77.7898 107.391 78.3612C106.819 78.9326 106.498 79.7076 106.498 80.5157V95.7503H91.2637C90.4556 95.7503 89.6806 96.0713 89.1092 96.6427C88.5378 97.2141 88.2168 97.9891 88.2168 98.7972V117.079C88.2168 117.887 88.5378 118.662 89.1092 119.233C89.6806 119.805 90.4556 120.126 91.2637 120.126H106.498V135.36C106.498 136.168 106.819 136.943 107.391 137.515C107.962 138.086 108.737 138.407 109.545 138.407H127.827C128.635 138.407 129.41 138.086 129.981 137.515C130.553 136.943 130.874 136.168 130.874 135.36V120.126H146.108C146.916 120.126 147.691 119.805 148.263 119.233C148.834 118.662 149.155 117.887 149.155 117.079V98.7972C149.155 97.9891 148.834 97.2141 148.263 96.6427C147.691 96.0713 146.916 95.7503 146.108 95.7503Z" fill="white"/>
</svg>
