<svg width="35" height="35" viewBox="0 0 35 35" fill="none" xmlns="http://www.w3.org/2000/svg">
<g clip-path="url(#clip0_393_701)">
<path d="M31.2255 4.16992H3.77445C1.69323 4.16992 0 5.85648 0 7.92969V27.0703C0 29.1435 1.69323 30.8301 3.77445 30.8301H31.2255C33.3068 30.8301 35 29.1435 35 27.0703V7.92969C35 5.85648 33.3068 4.16992 31.2255 4.16992ZM18.5294 19.5508C18.5294 20.1171 18.0685 20.5762 17.5 20.5762H14.4118V23.6523C14.4118 24.2187 13.9509 24.6777 13.3824 24.6777H9.26483C8.69633 24.6777 8.23544 24.2187 8.23544 23.6523V20.5762H5.14698C4.57848 20.5762 4.11758 20.1171 4.11758 19.5508V15.4492C4.11758 14.8829 4.57848 14.4238 5.14698 14.4238H8.23517V11.3477C8.23517 10.7813 8.69606 10.3223 9.26456 10.3223H13.3824C13.9509 10.3223 14.4118 10.7813 14.4118 11.3477V14.4238H17.5C18.0685 14.4238 18.5294 14.8829 18.5294 15.4492V19.5508ZM29.7942 24.6777H21.6176C21.0491 24.6777 20.5882 24.2187 20.5882 23.6523C20.5882 23.086 21.0491 22.627 21.6176 22.627H29.7942C30.3627 22.627 30.8236 23.086 30.8236 23.6523C30.8236 24.2187 30.3627 24.6777 29.7942 24.6777ZM29.853 20.5762H21.6176C21.0491 20.5762 20.5882 20.1171 20.5882 19.5508C20.5882 18.9844 21.0491 18.5254 21.6176 18.5254H29.853C30.4215 18.5254 30.8824 18.9844 30.8824 19.5508C30.8824 20.1171 30.4215 20.5762 29.853 20.5762ZM29.853 16.4746H21.6176C21.0491 16.4746 20.5882 16.0156 20.5882 15.4492C20.5882 14.8829 21.0491 14.4238 21.6176 14.4238H29.853C30.4215 14.4238 30.8824 14.8829 30.8824 15.4492C30.8824 16.0156 30.4215 16.4746 29.853 16.4746ZM29.853 12.373H21.6176C21.0491 12.373 20.5882 11.914 20.5882 11.3477C20.5882 10.7813 21.0491 10.3223 21.6176 10.3223H29.853C30.4215 10.3223 30.8824 10.7813 30.8824 11.3477C30.8824 11.914 30.4215 12.373 29.853 12.373Z" fill="#00B288"/>
</g>
<defs>
<clipPath id="clip0_393_701">
<rect width="35" height="35" fill="white"/>
</clipPath>
</defs>
</svg>
