<svg width="20" height="22" viewBox="0 0 20 22" fill="none" xmlns="http://www.w3.org/2000/svg">
<path d="M18.9152 17.0136L18.8952 16.9837L13.5897 9.08522V5.32548C14.4174 5.32548 15.0956 4.61741 15.0956 3.7398V1.58568C15.0956 0.708069 14.4174 0 13.5897 0H6.79821C5.97047 0 5.29231 0.708069 5.29231 1.58568V3.7398C5.29231 4.61741 5.97047 5.32548 6.79821 5.32548V9.10517L1.47273 17.0236C0.884336 18.0009 0.834472 19.2475 1.33311 20.2747C1.8517 21.3418 2.86892 22 3.9759 22H16.402C17.519 22 18.5362 21.3418 19.0448 20.2747C19.5434 19.2475 19.4936 18.0009 18.9052 17.0236L18.9152 17.0136ZM8.16448 9.74343C8.24426 9.62375 8.29413 9.47416 8.29413 9.32457V5.32548H12.0938V9.3146C12.0938 9.46419 12.1337 9.60381 12.2234 9.73345L12.7919 10.5811H7.61598L8.17445 9.7534L8.16448 9.74343ZM6.78823 3.7398V1.49592L13.5897 1.58568V3.82956H12.8517C12.8517 3.82956 12.8018 3.82956 12.7719 3.82956H7.77554C7.77554 3.82956 7.69576 3.8495 7.66584 3.8495C7.62595 3.8495 7.59603 3.82956 7.55614 3.82956L6.79821 3.7398H6.78823ZM17.6985 19.6165C17.4292 20.165 16.9306 20.5041 16.392 20.5041H3.9759C3.43737 20.5041 2.93873 20.165 2.67944 19.6165C2.4002 19.0381 2.43012 18.33 2.7293 17.8114L6.59875 12.0671H13.7891L17.6386 17.7915C17.9578 18.34 17.9877 19.0381 17.7085 19.6065L17.6985 19.6165Z" fill="#56595B"/>
</svg>
