<svg width="16" height="16" viewBox="0 0 16 16" fill="none" xmlns="http://www.w3.org/2000/svg">
<path d="M15.1991 13.0949L11.1676 7.00725V3.42287H11.4637C11.8118 3.42287 12.094 3.14066 12.094 2.7926V0.630271C12.094 0.28221 11.8118 0 11.4637 0H5.43834C5.09028 0 4.80807 0.28221 4.80807 0.630271V2.7926C4.80807 3.14066 5.09028 3.42287 5.43834 3.42287H5.73442V7.00725L1.70295 13.0949C1.32177 13.6705 1.28793 14.4059 1.61461 15.014C1.9413 15.6222 2.57308 16 3.26345 16H13.6386C14.3289 16 14.9608 15.6222 15.2874 15.0141C15.6142 14.4059 15.5803 13.6705 15.1991 13.0949ZM6.06861 1.26054H10.8335V2.16233C10.4061 2.16233 6.5875 2.16233 6.06861 2.16233V1.26054ZM9.90711 3.42287V7.19698C9.90711 7.32077 9.94356 7.44178 10.0119 7.54494L10.6528 8.51284H5.43834L2.57004 12.9702C2.37788 13.2603 4.22696 13.3399 3.93658 13.1476C3.64635 12.9554 3.56689 12.5644 3.75905 12.2742L6.89018 7.54489C6.95855 7.44173 6.99496 7.32072 6.99496 7.19693V3.42287H9.90711Z" fill="white"/>
</svg>
