<svg width="21" height="23" viewBox="0 0 21 23" fill="none" xmlns="http://www.w3.org/2000/svg">
<path d="M20.2002 18.8239L14.405 10.0729V4.92038H14.8306C15.3309 4.92038 15.7366 4.5147 15.7366 4.01437V0.906014C15.7366 0.405677 15.3309 0 14.8306 0H6.1691C5.66876 0 5.26308 0.405677 5.26308 0.906014V4.01437C5.26308 4.5147 5.66876 4.92038 6.1691 4.92038H6.59471V10.0729L0.799482 18.8239C0.251525 19.6514 0.20289 20.7085 0.672495 21.5826C1.1421 22.4569 2.05029 23 3.0427 23H17.9569C18.9493 23 19.8576 22.4569 20.3271 21.5827C20.7969 20.7085 20.7482 19.6514 20.2002 18.8239ZM7.07511 1.81203H13.9246V3.10835C13.3103 3.10835 7.82102 3.10835 7.07511 3.10835V1.81203ZM12.593 4.92038V10.3457C12.593 10.5236 12.6454 10.6976 12.7436 10.8459L13.6649 12.2372H6.1691L2.04591 18.6446C1.76969 19.0617 4.42774 19.1761 4.01032 18.8997C3.59312 18.6234 3.47889 18.0614 3.75512 17.6442L8.25612 10.8458C8.3544 10.6975 8.40674 10.5235 8.40674 10.3456V4.92038H12.593Z" fill="#00B288"/>
</svg>
