<svg width="63" height="123" viewBox="0 0 63 123" fill="none" xmlns="http://www.w3.org/2000/svg">
<path d="M7.38135 24.3942H40.8941V48.7676H7.38135V24.3942Z" fill="white"/>
<path d="M35.8892 102.741C35.8892 109.938 41.7627 115.793 48.9819 115.793C56.2012 115.793 62.0747 109.938 62.0747 102.741C62.0747 99.919 61.138 97.1246 59.4369 94.8729L48.9819 81.0337L38.5267 94.8731C36.8261 97.1246 35.8892 99.919 35.8892 102.741Z" fill="white"/>
<path d="M0.924805 0H47.3511V17.1871H0.924805V0Z" fill="white"/>
<path d="M28.6822 102.741C28.6822 98.3608 30.1361 94.0239 32.7763 90.529L40.894 79.7833V55.9746H7.38135V106.244C7.38135 115.483 14.8983 123 24.1377 123C28.7036 123 32.8464 121.163 35.871 118.19C31.4781 114.471 28.6822 108.927 28.6822 102.741Z" fill="white"/>
</svg>
