<svg width="20" height="20" viewBox="0 0 20 20" fill="none" xmlns="http://www.w3.org/2000/svg">
<path d="M3.68054 10.5862H0C0.115799 12.6068 0.829153 14.5143 2.05528 16.1036C2.74488 15.7141 3.51907 15.3802 4.35541 15.1078C3.95745 13.7174 3.72609 12.1821 3.68054 10.5862Z" fill="white"/>
<path d="M3.68054 9.41402C3.72609 7.81803 3.95745 6.28275 4.35545 4.89226C3.51906 4.61996 2.74492 4.286 2.05532 3.89648C0.829153 5.48583 0.115799 7.3934 0 9.41402H3.68054Z" fill="white"/>
<path d="M6.45511 2.78132C6.23258 3.19225 6.03165 3.63294 5.85303 4.09844C6.96609 4.36446 8.17046 4.52331 9.41405 4.56133V0.0498047C8.31923 0.300195 7.28552 1.24784 6.45511 2.78132Z" fill="white"/>
<path d="M10.5862 0.0498047V4.56129C11.8297 4.52328 13.0341 4.36439 14.1471 4.09841C13.9685 3.63294 13.7675 3.19221 13.545 2.78129C12.7146 1.24788 11.6809 0.300234 10.5862 0.0498047Z" fill="white"/>
<path d="M14.5184 5.21216C13.2873 5.51467 11.9563 5.69391 10.5862 5.73372V9.41391H15.147C15.1021 7.92477 14.8869 6.49802 14.5184 5.21216Z" fill="white"/>
<path d="M4.72088 16.2192C4.04351 16.4399 3.41278 16.704 2.84277 17.0078C2.86743 17.033 2.89161 17.0585 2.91653 17.0834C3.95912 18.126 5.19127 18.9098 6.53495 19.404C6.13454 18.9443 5.76206 18.4004 5.42439 17.7768C5.16189 17.2921 4.92716 16.7705 4.72088 16.2192Z" fill="white"/>
<path d="M15.2792 3.7807C15.9565 3.56008 16.5873 3.29598 17.1573 2.99214C17.1326 2.96698 17.1084 2.94151 17.0835 2.91658C16.0409 1.874 14.8088 1.0902 13.4651 0.595947C13.8655 1.05567 14.238 1.59962 14.5757 2.22315C14.8382 2.70788 15.0729 3.22948 15.2792 3.7807Z" fill="white"/>
<path d="M16.3194 10.5862C16.2739 12.1821 16.0425 13.7174 15.6445 15.1079C16.4809 15.3802 17.2551 15.7141 17.9447 16.1036C19.1708 14.5143 19.8841 12.6068 19.9999 10.5862H16.3194V10.5862Z" fill="white"/>
<path d="M15.279 16.2192C15.0727 16.7705 14.8379 17.292 14.5754 17.7768C14.2378 18.4003 13.8653 18.9443 13.4648 19.404C14.8085 18.9097 16.0407 18.1259 17.0833 17.0834C17.1082 17.0584 17.1324 17.033 17.157 17.0078C16.587 16.704 15.9563 16.4399 15.279 16.2192Z" fill="white"/>
<path d="M4.72105 3.7807C4.92733 3.22948 5.16205 2.70792 5.42459 2.22315C5.76222 1.59962 6.13474 1.05567 6.53516 0.595947C5.19147 1.0902 3.95932 1.874 2.91674 2.91658C2.89181 2.94151 2.86763 2.96698 2.84302 2.99214C3.41299 3.29598 4.04367 3.56008 4.72105 3.7807Z" fill="white"/>
<path d="M15.6445 4.89223C16.0425 6.28272 16.2739 7.818 16.3194 9.41399H20C19.8842 7.39336 19.1708 5.4858 17.9447 3.89648C17.2551 4.28596 16.4809 4.61992 15.6445 4.89223Z" fill="white"/>
<path d="M9.4139 9.41415V5.73397C8.0438 5.69416 6.71273 5.51487 5.48156 5.2124C5.11307 6.49823 4.89784 7.92498 4.85303 9.41419H9.4139V9.41415Z" fill="white"/>
<path d="M10.5862 10.5862V14.2663C11.9562 14.3062 13.2873 14.4854 14.5184 14.7879C14.8869 13.5021 15.1021 12.0754 15.147 10.5862H10.5862V10.5862Z" fill="white"/>
<path d="M13.5448 17.2187C13.7673 16.8078 13.9683 16.3671 14.1469 15.9016C13.0338 15.6356 11.8295 15.4767 10.5859 15.4387V19.9502C11.6807 19.6998 12.7144 18.7521 13.5448 17.2187Z" fill="white"/>
<path d="M9.41406 19.9502V15.4387C8.1705 15.4767 6.96613 15.6356 5.85303 15.9016C6.03169 16.3671 6.23262 16.8078 6.45515 17.2187C7.28556 18.7522 8.31927 19.6998 9.41406 19.9502Z" fill="white"/>
<path d="M9.4139 10.5862H4.85303C4.89788 12.0754 5.11307 13.5021 5.48156 14.7879C6.71269 14.4854 8.04376 14.3061 9.4139 14.2663V10.5862Z" fill="white"/>
</svg>
