<?xml version="1.0" encoding="UTF-8" standalone="no"?>
<svg
   width="40.939995"
   height="40.939968"
   viewBox="0 0 40.939995 40.939968"
   fill="none"
   version="1.1"
   id="svg11"
   xmlns="http://www.w3.org/2000/svg"
   xmlns:svg="http://www.w3.org/2000/svg">
  <defs
     id="defs15" />
  <path
     d="m 0.10002571,20.46947 h 2.8e-4 l -2.9e-4,0.0039 c -0.00467,3.7523 1.03202999,7.4322 2.99474999,10.6303 1.8e-4,3e-4 3.5e-4,6e-4 5.3e-4,8e-4 l 0.01033,0.016 0.00111,0.0018 c 1.82178,2.9693 4.37456,5.4217 7.4144603,7.123 3.0398,1.7013 6.4652,2.5947 9.9487,2.5947 3.4836,0 6.909,-0.8933 9.9488,-2.5946 3.0399,-1.7013 5.5927,-4.1537 7.4145,-7.1229 v 0 l 0.0011,-0.0017 0.0104,-0.0162 c 2e-4,-3e-4 4e-4,-6e-4 6e-4,-9e-4 1.9584,-3.2012 2.9947,-6.881 2.9947,-10.6337 0,-3.7528 -1.0364,-7.4326 -2.9948,-10.6338 l -0.0109,-0.0169 v 0 l -0.001,-0.0016 c -1.8218,-2.96926 -4.3746,-5.42172 -7.4145,-7.12304 -3.0399,-1.70131 -6.4653,-2.59464 -9.9489,-2.59463 -3.4836,10e-6 -6.9089,0.89337 -9.9488,2.59472 C 7.4811957,4.39606 4.9283957,6.84854 3.1066357,9.81777 l -0.00102,0.0016 -0.01024,0.016 c -1.8e-4,3e-4 -3.6e-4,6e-4 -5.3e-4,9e-4 -1.96213,3.197 -2.99880999,6.8757 -2.99480999,10.6268 0,0.0021 -10e-6,0.0043 -10e-6,0.0064 z M 21.802896,38.43877 v 0 l -0.0025,0.0012 c -0.4157,0.1975 -0.8702,0.3 -1.3304,0.3 -0.4601,0 -0.9145,-0.1024 -1.3301,-0.2999 -0.4304,-0.2033 -0.8298,-0.4661 -1.1864,-0.7802 v 0.0151 l -0.1695,-0.1713 -0.0016,-0.0016 c -1.0822,-1.0936 -1.9434,-2.3855 -2.5365,-3.805 -0.4484,-1.0053 -0.8246,-2.0413 -1.1259,-3.1 l -0.034,-0.1194 0.124,-0.0077 c 2.0855,-0.1307 4.1722,-0.1961 6.26,-0.1961 h 1e-4 c 2.0886,0.0024 4.1751,0.0677 6.2595,0.196 l 0.1217,0.0075 -0.0312,0.1179 c -0.545,2.0621 -1.4444,4.0137 -2.6582,5.7676 -0.6005,0.8782 -1.4115,1.5919 -2.359,2.0759 z m 16.7971,-16.9188 h 0.1063 l -0.0065,0.1062 c -0.1666,2.7106 -0.9395,5.3492 -2.2617,7.7214 l -0.0339,0.0607 -0.0687,-0.0106 c -2.2434,-0.3466 -4.4925,-0.6191 -6.7473,-0.8175 l -0.1107,-0.0098 0.0213,-0.1091 c 0.4419,-2.2559 0.691,-4.5454 0.7447,-6.8436 l 0.0022,-0.0977 h 0.0977 z m -2.2646,-9.9777 0.0076,-0.0012 h 0.0077 1e-4 0.0587 l 0.0286,0.0514 c 1.3222,2.3721 2.0951,5.0108 2.2617,7.7214 l 0.0065,0.1061 h -0.1063 -8.2573 -0.0977 l -0.0023,-0.0976 c -0.0538,-2.2982 -0.3034,-4.5877 -0.7462,-6.8435 l -0.0214,-0.1091 0.1108,-0.0097 c 2.2573,-0.1977 4.5071,-0.4703 6.7495,-0.8178 z m -13.1794,-8.10597 0.0016,0.00162 c 1.0822,1.09354 1.9434,2.38547 2.5365,3.80505 0.4484,1.0053 0.8247,2.0412 1.1259,3.0999 l 0.034,0.1194 -0.1239,0.0077 c -2.0856,0.1307 -4.1723,0.1961 -6.2601,0.1961 h -10e-5 c -2.0886,-0.0024 -4.1751,-0.0678 -6.2594,-0.196 l -0.1217,-0.0075 0.0311,-0.1179 c 0.545,-2.0621 1.4445,-4.01369 2.6582,-5.7676 0.6005,-0.8782 1.4116,-1.5919 2.359,-2.07585 v -4e-5 l 0.0026,-0.00123 c 0.4157,-0.19751 0.8701,-0.29998 1.3303,-0.29998 0.4602,0 0.9145,0.10244 1.3301,0.29989 0.5,0.23617 0.958,0.55249 1.3559,0.93644 z M 2.3400157,19.41997 h -0.10633 l 0.00652,-0.1061 c 0.16661,-2.7106 0.9395,-5.3493 2.26171,-7.7215 l 0.03387,-0.0607 0.06875,0.0106 c 2.24331,0.3466 4.49236,0.6191 6.7472603,0.8176 l 0.1107,0.0097 -0.0213,0.1091 c -0.4419,2.256 -0.691,4.5454 -0.7447,6.8437 l -0.0022,0.0976 h -0.0977 z m 25.0416803,8.9018 -0.0175,0.0855 -0.0872,-0.0058 c -2.2675,-0.1517 -4.5365,-0.2276 -6.8069,-0.2275 -2.2721,0.0029 -4.5417,0.0788 -6.8089,0.2276 l -0.087,0.0057 -0.0175,-0.0855 c -0.4506,-2.2063 -0.7048,-4.4482 -0.7597,-6.6993 l -0.0025,-0.1025 h 0.1024 15.1459 0.1025 l -0.0025,0.1025 c -0.0554,2.2512 -0.3101,4.493 -0.7611,6.6993 z m -13.8234,-15.7036 0.0987,0.01 0.006,-0.0897 c 2.2676,0.1517 4.5365,0.2276 6.8069,0.2276 2.2721,-0.0031 4.5418,-0.079 6.8089,-0.2277 l 0.0871,-0.0057 0.0174,0.0855 c 0.4506,2.2063 0.7048,4.4482 0.7598,6.6994 l 0.0025,0.1024 h -0.1025 -15.1459 -0.1025 l 0.0025,-0.1024 c 0.0555,-2.2512 0.3102,-4.4931 0.7611,-6.6994 z m -2.9609,8.9018 h 0.0976 l 0.0023,0.0977 c 0.0538,2.2982 0.3035,4.5876 0.7462,6.8434 l 0.0215,0.1092 -0.1109,0.0097 c -2.2572003,0.1976 -4.5070803,0.4702 -6.7495003,0.8177 l -0.06878,0.0107 -0.03389,-0.0608 c -1.3222,-2.3722 -2.0951,-5.0108 -2.26172,-7.7214 l -0.00652,-0.1062 h 0.10633 z m -4.6433603,-11.8968 -0.16739,-0.0242 0.10182,-0.135 C 8.2063957,6.39001 11.436396,4.12703 15.117196,2.9982 l 0.2951,-0.09051 -0.186,0.24637 c -0.7528,0.99718 -1.3879,2.07801 -1.8926,3.22098 l -2e-4,2.6e-4 c -0.5541,1.24497 -1.01,2.53127 -1.3634,3.84737 l -0.0217,0.0807 -0.0832,-0.007 C 9.8888957,10.13097 7.9184957,9.90657 5.9540357,9.62317 Z m 27.4348603,-2.072 h 10e-5 c 0.5974,0.5987 1.1529,1.2378 1.6625,1.9128 l 0.1021,0.1352 -0.1677,0.024 c -1.9671,0.2816 -3.9388,0.5062 -5.9151,0.6735 l -0.085,0.0072 -0.0205,-0.0828 c -0.6115,-2.4718 -1.6695,-4.81105 -3.1221,-6.90242 -0.0246,-0.03293 -0.0481,-0.06247 -0.0726,-0.09327 -0.0176,-0.02216 -0.0358,-0.04498 -0.0553,-0.07019 l -0.1922,-0.24894 0.3007,0.09222 c 2.8561,0.876 5.4537,2.43923 7.5651,4.5527 z m 1.5971,23.7656 0.0857,0.0124 v 0.0866 0.0335 l -0.0201,0.0267 c -2.318,3.074 -5.548,5.337 -9.2288,6.4658 l -0.2951,0.0905 0.186,-0.2464 c 0.7528,-0.9971 1.3879,-2.078 1.8927,-3.2209 l 10e-5,-3e-4 c 0.5541,-1.2449 1.01,-2.5313 1.3635,-3.8474 l 0.0217,-0.0806 0.0832,0.0069 c 1.9763,0.1654 3.9466,0.3898 5.9111,0.6732 z m -19.8698,6.6247 c -2.7796,-0.8525 -5.3143003,-2.3559 -7.3944003,-4.384 v 0.0025 l -0.1707,-0.1711 v -10e-5 c -0.59749,-0.5986 -1.15299,-1.2377 -1.6626,-1.9127 l -0.1021,-0.1353 0.16773,-0.024 c 1.96707,-0.2816 3.93877,-0.5061 5.9150703,-0.6735 l 0.085,-0.0072 0.0205,0.0828 c 0.6115,2.4718 1.6696,4.8111 3.1221,6.9024 0.0246,0.0329 0.0481,0.0625 0.0726,0.0932 0.0176,0.0222 0.0358,0.0451 0.0553,0.0703 l 0.1922,0.2489 z"
     fill="#00b288"
     stroke="#ffffff"
     stroke-width="0.2"
     id="path9" />
</svg>
