<svg width="94" height="94" viewBox="0 0 94 94" fill="none" xmlns="http://www.w3.org/2000/svg">
<path d="M69.8878 61.3268C67.5237 58.9627 63.6908 58.9627 61.3267 61.3268C58.9626 63.6909 58.9626 67.5238 61.3267 69.8879L83.0408 91.6019C85.4049 93.966 89.2378 93.966 91.6019 91.6019C93.966 89.2378 93.966 85.4049 91.6019 83.0408L69.8878 61.3268Z" fill="white"/>
<path fill-rule="evenodd" clip-rule="evenodd" d="M0.625 38.4647C0.625 17.5664 17.5665 0.624969 38.4649 0.624969C59.3634 0.624969 76.3049 17.5664 76.3049 38.4647C76.3049 59.363 59.3634 76.3044 38.4649 76.3044C17.5665 76.3044 0.625 59.363 0.625 38.4647ZM33.8879 39.332L36.8903 34.2328L42.3739 48.07C43.2899 50.381 46.5107 50.7276 47.9257 48.6673L53.2816 40.87H64.1775C65.9143 40.87 67.3223 39.5035 67.3223 37.8178C67.3223 36.1321 65.9143 34.7656 64.1775 34.7656H51.5986C50.5471 34.7656 49.5652 35.2758 48.982 36.1248L46.0629 40.3742L40.3823 26.0396C39.4305 23.638 36.032 23.3869 34.7168 25.6211L29.3327 34.7656H9.93067C8.19383 34.7656 6.78589 36.1321 6.78589 37.8178C6.78589 39.5035 8.19383 40.87 9.93067 40.87H31.1575C32.286 40.87 33.328 40.283 33.8879 39.332Z" fill="white"/>
</svg>
