<svg width="30" height="25" fill="#00B188" version="1.1" id="Layer_1" xmlns="http://www.w3.org/2000/svg" xmlns:xlink="http://www.w3.org/1999/xlink" x="0px" y="0px"
	 viewBox="0 0 34 26" style="enable-background:new 0 0 34 26;" xml:space="preserve">

<path class="st0" d="M9,24h24c0.55,0,1,0.45,1,1l0,0c0,0.55-0.45,1-1,1H9c-0.55,0-1-0.45-1-1l0,0C8,24.45,8.45,24,9,24z"/>
<path class="st0" d="M9,16h24c0.55,0,1,0.45,1,1l0,0c0,0.55-0.45,1-1,1H9c-0.55,0-1-0.45-1-1l0,0C8,16.45,8.45,16,9,16z"/>
<path class="st0" d="M9,8h24c0.55,0,1,0.45,1,1l0,0c0,0.55-0.45,1-1,1H9c-0.55,0-1-0.45-1-1l0,0C8,8.45,8.45,8,9,8z"/>
<path class="st0" d="M9,0h24c0.55,0,1,0.45,1,1l0,0c0,0.55-0.45,1-1,1H9C8.45,2,8,1.55,8,1l0,0C8,0.45,8.45,0,9,0z"/>
<path class="st0" d="M1,0h3c0.55,0,1,0.45,1,1l0,0c0,0.55-0.45,1-1,1H1C0.45,2,0,1.55,0,1l0,0C0,0.45,0.45,0,1,0z"/>
<path class="st0" d="M1,8h3c0.55,0,1,0.45,1,1l0,0c0,0.55-0.45,1-1,1H1c-0.55,0-1-0.45-1-1l0,0C0,8.45,0.45,8,1,8z"/>
<path class="st0" d="M1,16h3c0.55,0,1,0.45,1,1l0,0c0,0.55-0.45,1-1,1H1c-0.55,0-1-0.45-1-1l0,0C0,16.45,0.45,16,1,16z"/>
<path class="st0" d="M1,24h3c0.55,0,1,0.45,1,1l0,0c0,0.55-0.45,1-1,1H1c-0.55,0-1-0.45-1-1l0,0C0,24.45,0.45,24,1,24z"/>
</svg>
