<svg width="29" height="30" viewBox="0 0 29 30" fill="none" xmlns="http://www.w3.org/2000/svg">
<g clip-path="url(#clip0)">
<path d="M9.67026 15.3143C10.0273 15.2378 10.4004 15.0702 10.7523 14.8074C11.7642 14.0502 12.2133 12.8068 11.7544 12.0289C11.2554 11.1827 9.89044 11.2396 8.84154 12.2026C7.83851 13.0985 7.62451 14.0346 7.62451 15.0185C7.62451 15.7136 7.83944 16.9549 9.1524 18.0329C9.77232 17.5374 10.5114 17.1297 11.3503 16.835L11.3614 16.8308C10.7168 16.5529 9.87656 16.0044 9.67026 15.3143ZM9.50839 12.9216C9.50839 12.6309 9.73226 12.3972 10.0084 12.3972C10.2842 12.3972 10.5084 12.632 10.5084 12.9227C10.5084 13.2134 10.2842 13.4471 10.0084 13.4471C9.73232 13.4471 9.50839 13.2123 9.50839 12.9216Z" fill="white"/>
<path d="M21.3939 15.0196C21.3909 14.0347 21.1779 13.0986 20.174 12.2027C19.1259 11.2407 17.76 11.1817 17.261 12.029C16.803 12.8069 17.251 14.0503 18.2629 14.8075C18.6149 15.0703 18.988 15.2378 19.3449 15.3144C19.2209 15.7292 18.8439 16.1512 18.269 16.5071C17.4784 16.9952 17.0514 17.0556 11.9931 18.7932C10.1212 19.4511 9.00732 20.7586 9.00732 22.2907C9.00732 23.382 9.54624 24.2241 10.2952 24.8407C10.7662 24.3389 11.3542 23.9035 12.0412 23.5548C11.2502 23.1411 11.0062 22.8276 11.0062 22.2907C11.0062 21.4045 12.7184 20.8979 13.5082 20.6283V22.8711L15.5082 21.9483V20.6294C16.2993 20.9004 18.0071 21.4064 18.0071 22.2907C18.0071 23.7619 13.9348 24.6294 12.2022 25.8657C11.3613 26.4688 10.9091 27.2354 10.9091 28.1364C10.9091 28.6536 10.9673 29.2949 11.8452 29.9322C12.0941 30.1379 12.44 29.8374 12.2783 29.5483C11.6982 28.3473 12.3142 27.7474 13.5102 27.228V28.9638C13.5102 29.5349 13.9582 29.9983 14.5101 29.9983C15.0621 29.9983 15.5101 29.5349 15.5101 28.9638V27.2291C16.659 27.7277 17.3821 28.4321 16.7391 29.5483C16.5797 29.8318 16.9191 30.1404 17.1711 29.9322C18.021 29.2659 18.088 28.6949 18.088 28.1498C18.088 27.3109 17.6441 26.4968 16.8021 25.873C18.5041 25.2368 20.01 24.1661 20.01 22.2927C20.01 20.9987 19.2151 19.8649 17.8411 19.147C18.4829 18.908 18.8059 18.7477 19.2349 18.4829C21.1139 17.3212 21.3939 15.8141 21.3939 15.0196ZM19.0081 13.4472C18.7319 13.4472 18.5081 13.2124 18.5081 12.9217C18.5081 12.631 18.7319 12.3962 19.0081 12.3962C19.2839 12.3962 19.508 12.631 19.508 12.9217C19.508 13.2124 19.284 13.4472 19.0081 13.4472Z" fill="white"/>
<path d="M28.4995 2.0709H21.6512C20.3077 2.0709 19.2996 2.68524 18.4323 3.58249C17.4901 4.5572 17.0002 6.72392 15.4999 6.72392V3.85087C16.0953 3.49249 16.4999 2.83284 16.4999 2.0689C16.4999 0.926285 15.6045 0 14.4999 0C13.3953 0 12.5 0.926285 12.5 2.0689C12.5 2.83277 12.9046 3.49243 13.5 3.85087V16.1792C14.1171 15.9756 14.7945 15.7512 15.4999 15.5168V10.3352C15.9338 10.11 16.2838 9.74593 16.4985 9.29537C16.8463 9.91035 17.5075 10.3465 18.2446 10.3465C18.9921 10.3465 19.6361 9.91714 19.9793 9.28877C21.1507 10.5007 23.3282 10.524 24.4996 9.31218L22.8003 7.55426L23.5798 7.88832C25.1105 8.54423 26.8653 7.79225 27.4995 6.20876L25.0854 5.17432C27.4241 5.17425 28.4995 3.65613 28.4995 2.0709Z" fill="white"/>
<path d="M10.5677 3.58288C9.70038 2.68562 8.69222 2.07129 7.34877 2.07129H0.500488C0.500488 3.65645 1.57589 5.17464 3.91457 5.17464L1.50046 6.20909C2.13456 7.79257 3.88944 8.54449 5.42014 7.88865L6.19968 7.55458L4.50036 9.3125C5.67182 10.5244 7.84925 10.5011 9.02071 9.2891C9.36383 9.91752 10.0079 10.3469 10.7554 10.3469C10.7628 10.3469 10.7702 10.3468 10.7775 10.3468C11.7546 10.3352 12.5015 9.42222 12.5015 8.41143V6.33025C11.7133 5.66128 11.2619 4.30104 10.5677 3.58288Z" fill="white"/>
</g>
<defs>
<clipPath id="clip0">
<rect width="29" height="30" fill="white"/>
</clipPath>
</defs>
</svg>
