<svg width="16" height="16" viewBox="0 0 16 16" fill="none" xmlns="http://www.w3.org/2000/svg">
<path d="M8 1.5C9.1928 1.50211 10.3362 1.97687 11.1797 2.82035C12.0234 3.6641 12.4982 4.80795 12.5 6.00117C12.4997 6.77108 12.2442 7.68696 11.767 8.69508C11.2956 9.69124 10.6499 10.6896 9.97245 11.5988C9.25992 12.5552 8.538 13.3791 8 13.9584C7.462 13.3791 6.74008 12.5552 6.02755 11.5988C5.35013 10.6896 4.70444 9.69124 4.23295 8.69508C3.75577 7.68688 3.50022 6.77093 3.5 6.00098C3.50185 4.80783 3.97664 3.66405 4.82035 2.82035C5.66382 1.97687 6.8072 1.50211 8 1.5ZM8 10.25H8.0009C9.12762 10.2493 10.208 9.80143 11.0047 9.00471C11.8014 8.208 12.2493 7.12762 12.25 6.00089V5.99999C12.25 5.15942 12.0007 4.33773 11.5337 3.63882C11.0667 2.93991 10.403 2.39518 9.6264 2.07351C8.84982 1.75184 7.99529 1.66767 7.17087 1.83166C6.34645 1.99565 5.58917 2.40042 4.9948 2.99479C4.40042 3.58916 3.99565 4.34644 3.83166 5.17086C3.66768 5.99528 3.75184 6.84981 4.07351 7.6264C4.39518 8.40298 4.93992 9.06674 5.63883 9.53374C6.33774 10.0007 7.15943 10.25 8 10.25Z" stroke="#00B288" stroke-width="3"/>
</svg>
