<svg width="40" height="40" viewBox="0 0 40 40" fill="none" xmlns="http://www.w3.org/2000/svg">
<path d="M24.5 4V3.5H24H6H5.5V4V36V36.5H6H24H24.5V36V34C24.5 33.6022 24.658 33.2206 24.9393 32.9393C25.2206 32.658 25.6022 32.5 26 32.5C26.3978 32.5 26.7794 32.658 27.0607 32.9393C27.342 33.2206 27.5 33.6022 27.5 34V36C27.5 36.9283 27.1313 37.8185 26.4749 38.4749C25.8185 39.1313 24.9283 39.5 24 39.5H6C5.07174 39.5 4.1815 39.1313 3.52513 38.4749C2.86875 37.8185 2.5 36.9283 2.5 36V4C2.5 3.07174 2.86875 2.1815 3.52513 1.52513C4.1815 0.868749 5.07174 0.5 6 0.5H24C24.9283 0.5 25.8185 0.868749 26.4749 1.52513C27.1313 2.1815 27.5 3.07174 27.5 4V6C27.5 6.39783 27.342 6.77936 27.0607 7.06066C26.7794 7.34196 26.3978 7.5 26 7.5C25.6022 7.5 25.2206 7.34196 24.9393 7.06066C24.658 6.77936 24.5 6.39782 24.5 6V4Z" fill="#00b288" stroke="#FAFAFA"/>
<path d="M31.34 18.5H32.5435L31.6943 17.6472L27.9514 13.8884C27.6986 13.6044 27.5632 13.2348 27.5728 12.8545C27.5825 12.4704 27.7394 12.1047 28.011 11.833C28.2827 11.5614 28.6484 11.4045 29.0325 11.3948C29.4127 11.3852 29.7821 11.5205 30.066 11.7731L37.2324 18.9395C37.2324 18.9395 37.2324 18.9395 37.2324 18.9396C37.5136 19.2208 37.6716 19.6023 37.6716 20C37.6716 20.3977 37.5136 20.7792 37.2324 21.0605C37.2324 21.0605 37.2324 21.0605 37.2324 21.0605L30.0564 28.2365C29.4717 28.8212 28.5283 28.8212 27.9436 28.2365C27.6634 27.9559 27.5059 27.5756 27.5056 27.1791C27.5053 26.7824 27.6623 26.4019 27.9423 26.1209L27.9423 26.1208L31.6943 22.3528L32.5435 21.5H31.34H14C13.6022 21.5 13.2206 21.342 12.9393 21.0607C12.658 20.7794 12.5 20.3978 12.5 20C12.5 19.6022 12.658 19.2207 12.9393 18.9393C13.2206 18.658 13.6022 18.5 14 18.5H31.34Z" fill="#00b288" stroke="#FAFAFA"/>
</svg>
