<svg width="16" height="16" viewBox="0 0 16 16" fill="none" xmlns="http://www.w3.org/2000/svg">
<g clip-path="url(#clip0)">
<path d="M5.59051 8.38574L7.60156 11.4333L4.59411 15.7675C4.39152 16.0558 3.97546 16.0796 3.74003 15.8204L1.83664 13.7108C1.656 13.5119 1.64868 13.2108 1.81475 13.0027L5.59051 8.38574Z" fill="white"/>
<path d="M4.7058 5.7503C4.75326 5.03858 4.96858 2.46545 5.62922 0.967203C5.66754 0.879607 5.72775 0.804786 5.80259 0.748214C6.09457 0.531049 6.91943 0 7.99796 0C9.07648 0 9.90134 0.531049 10.1933 0.748214C10.27 0.804786 10.3284 0.881432 10.3667 0.967203C11.0255 2.46728 11.2408 5.0404 11.2901 5.7503C11.2974 5.87074 11.2664 5.99118 11.1989 6.09155L10.5018 7.1354L8.50348 4.51301L9.25897 3.44908C9.40496 3.24287 9.30277 2.95088 9.05641 2.88518C8.53813 2.74467 7.99796 2.76657 7.99796 2.76657C7.99796 2.76657 7.47786 2.74467 6.96688 2.87788C6.71139 2.94358 6.60555 3.24834 6.76796 3.45638L7.93591 4.96011L14.1808 13.0025C14.3487 13.2124 14.3395 13.5116 14.1589 13.7106L12.2573 15.8183C12.0219 16.0793 11.6058 16.0537 11.4032 15.7654L4.79523 6.08973C4.72954 5.98936 4.69667 5.87074 4.7058 5.7503Z" fill="white"/>
</g>
<defs>
<clipPath id="clip0">
<rect width="16" height="16" fill="white" transform="matrix(-1 0 0 1 16 0)"/>
</clipPath>
</defs>
</svg>
