<svg width="30" height="30" viewBox="0 0 30 30" fill="none" xmlns="http://www.w3.org/2000/svg">
<circle cx="15" cy="15" r="15" fill="#00B288"/>
<path d="M19.9367 19.2086C18.8825 18.1626 17.9606 17.2203 17.1596 16.369C18.5004 14.7102 19.1161 13.635 19.0967 12.9867C19.0544 11.5777 18.5366 10.2406 17.5991 9.11997C17.595 9.11483 17.5907 9.10991 17.5862 9.10518C16.9448 8.40277 16.0026 8 15.0001 8C13.9976 8 13.0554 8.4028 12.414 9.10523C12.4095 9.10996 12.4052 9.11488 12.4011 9.12002C11.4636 10.2407 10.9458 11.5778 10.9035 12.9867C10.8824 13.6921 11.6444 14.8854 12.789 16.3049C12.6618 16.446 12.5435 16.5776 12.4325 16.701C11.6091 17.6167 11.1555 18.1211 10.063 19.2086C9.98874 19.2825 9.97909 19.3931 10.0396 19.4768L11.792 21.9016C11.8346 21.9605 11.9057 21.9971 11.983 21.9998C11.9861 21.9999 11.9892 22 11.9923 22C12.0661 22 12.1361 21.9689 12.1817 21.9155C12.4374 21.6153 12.884 21.1376 13.4495 20.5327C13.9203 20.029 14.4503 19.462 15.0016 18.8568C15.5044 19.4094 16.0263 19.9716 16.5507 20.5325C17.1161 21.1375 17.5628 21.6153 17.8186 21.9155C17.8641 21.9689 17.934 22 18.0079 22C18.011 22 18.0141 21.9999 18.0173 21.9998C18.0945 21.9971 18.1656 21.9605 18.2082 21.9016L19.9604 19.4771C20.021 19.3932 20.0112 19.2825 19.9367 19.2086ZM17.6966 10.0379C18.2699 10.9358 18.5857 11.9457 18.6172 12.9986C18.628 13.3588 18.3252 14.1763 16.8398 16.027C16.2217 15.362 15.6808 14.7546 15.2111 14.1984C16.192 12.9806 16.8939 11.9515 17.2974 11.1393C17.5049 10.7216 17.6377 10.3558 17.6966 10.0379ZM14.9084 13.835C14.4657 13.2958 14.0942 12.8072 13.7881 12.3625C13.625 12.1256 13.481 11.9016 13.355 11.6892C13.8359 11.3853 14.4138 11.2189 15.0001 11.2189C15.534 11.2189 16.0503 11.3521 16.5032 11.6046C16.1432 12.201 15.6287 12.9339 14.9084 13.835ZM12.8025 9.36363C13.352 8.77462 14.1508 8.4375 15.0001 8.4375C15.849 8.4375 16.6475 8.77429 17.197 9.36283C17.3188 9.66236 17.2743 10.2115 16.7264 11.2165C16.2046 10.9316 15.6123 10.7815 15.0001 10.7815C14.3382 10.7815 13.6854 10.9631 13.1357 11.2962C12.7036 10.4636 12.5979 9.83621 12.8025 9.36363ZM13.0845 20.2488C12.645 20.7189 12.2768 21.1128 12.011 21.4096L10.5429 19.3782C11.5543 18.3674 12.0069 17.8641 12.8033 16.9784C12.8921 16.8797 12.9855 16.7759 13.0843 16.6661C13.5716 17.2543 14.1157 17.8758 14.6906 18.5135C14.1206 19.1404 13.5709 19.7285 13.0845 20.2488ZM17.9892 21.4096C17.7234 21.1128 17.3552 20.7188 16.9156 20.2486C15.8814 19.1423 14.465 17.6271 13.3291 16.2354C11.7003 14.2398 11.3718 13.3737 11.383 12.9986C11.4133 11.9874 11.7057 11.0159 12.2367 10.1452C12.3177 10.8001 12.6928 11.5943 13.3819 12.5952C14.487 14.2003 16.4194 16.3584 19.4569 19.3788L17.9892 21.4096Z" fill="white"/>
<path d="M17.9892 21.4096C17.7234 21.1128 17.3552 20.7188 16.9156 20.2486C15.8814 19.1423 14.465 17.6271 13.3291 16.2354C11.7003 14.2398 11.3718 13.3737 11.383 12.9986C11.4133 11.9874 11.7057 11.0159 12.2367 10.1452C12.3177 10.8001 12.6928 11.5943 13.3819 12.5952C14.487 14.2003 16.4194 16.3584 19.4569 19.3788L17.9892 21.4096Z" fill="white"/>
<path d="M17.6966 10.0379C18.2699 10.9358 18.5857 11.9457 18.6172 12.9986C18.628 13.3588 18.3252 14.1763 16.8398 16.027C16.2217 15.362 15.6808 14.7546 15.2111 14.1984C16.192 12.9806 16.8939 11.9515 17.2974 11.1393C17.5049 10.7216 17.6377 10.3558 17.6966 10.0379Z" fill="white"/>
<path d="M12.8025 9.36363C13.352 8.77462 14.1508 8.4375 15.0001 8.4375C15.849 8.4375 16.6475 8.77429 17.197 9.36283C17.3188 9.66236 17.2743 10.2115 16.7264 11.2165C16.2046 10.9316 15.6123 10.7815 15.0001 10.7815C14.3382 10.7815 13.6854 10.9631 13.1357 11.2962C12.7036 10.4636 12.5979 9.83621 12.8025 9.36363Z" fill="white"/>
<path d="M13.0845 20.2488C12.645 20.7189 12.2768 21.1128 12.011 21.4096L10.5429 19.3782C11.5543 18.3674 12.0069 17.8641 12.8033 16.9784L13.0843 16.6661C13.5716 17.2543 14.1157 17.8758 14.6906 18.5135C14.1206 19.1404 13.5709 19.7285 13.0845 20.2488Z" fill="white"/>
</svg>
