<svg width="16" height="16" viewBox="0 0 16 16" fill="none" xmlns="http://www.w3.org/2000/svg">
<path d="M13.5502 12.8099C12.3551 11.6144 11.3101 10.5375 10.4019 9.56453C11.9219 7.66881 12.6199 6.43994 12.5979 5.69904C12.55 4.08877 11.9629 2.56074 10.9002 1.27996C10.8956 1.27409 10.8907 1.26846 10.8856 1.26306C10.1585 0.460311 9.09034 0 7.95395 0C6.81755 0 5.74939 0.460342 5.02233 1.26312C5.0172 1.26853 5.01234 1.27415 5.00768 1.28003C3.94493 2.56083 3.35788 4.08886 3.31003 5.69907C3.28607 6.50522 4.14992 7.869 5.44737 9.49134C5.30324 9.65259 5.16907 9.80299 5.04326 9.94405C4.10985 10.9905 3.5957 11.567 2.35718 12.8099C2.273 12.8943 2.26206 13.0206 2.33064 13.1164L4.31726 15.8876C4.36548 15.9549 4.44609 15.9967 4.53367 15.9998C4.5372 15.9999 4.54074 16 4.54427 16C4.62798 16 4.7073 15.9645 4.75892 15.9034C5.04887 15.5603 5.55513 15.0143 6.19615 14.3231C6.7299 13.7474 7.33074 13.0994 7.95565 12.4078C8.52566 13.0394 9.11729 13.6819 9.71168 14.3229C10.3527 15.0143 10.8591 15.5603 11.149 15.9034C11.2006 15.9645 11.2799 16 11.3636 16C11.3672 16 11.3707 15.9999 11.3743 15.9998C11.4618 15.9967 11.5424 15.9549 11.5907 15.8876L13.577 13.1167C13.6457 13.0208 13.6347 12.8943 13.5502 12.8099ZM11.0108 2.32905C11.6606 3.35521 12.0186 4.50939 12.0543 5.7127C12.0666 6.12435 11.7233 7.05863 10.0394 9.17375C9.33877 8.41372 8.72556 7.71956 8.19319 7.08394C9.30516 5.69213 10.1008 4.51595 10.5582 3.58777C10.7934 3.11036 10.944 2.69236 11.0108 2.32905ZM7.84999 6.6686C7.34811 6.05238 6.92704 5.49392 6.58003 4.98576C6.39509 4.71495 6.2319 4.45892 6.08909 4.2162C6.6342 3.86895 7.28935 3.6788 7.95398 3.6788C8.55917 3.6788 9.14445 3.83102 9.65785 4.11955C9.24973 4.8012 8.6666 5.63879 7.84999 6.6686ZM5.46273 1.55843C6.08559 0.885278 6.99121 0.499998 7.95395 0.499998C8.91628 0.499998 9.82152 0.884903 10.4443 1.55753C10.5825 1.89984 10.532 2.52743 9.91096 3.67605C9.31943 3.35042 8.6479 3.17883 7.95391 3.17883C7.20364 3.17883 6.4636 3.38646 5.8404 3.76705C5.35065 2.81552 5.23082 2.09852 5.46273 1.55843ZM5.78235 13.9986C5.28414 14.5359 4.86682 14.986 4.56548 15.3253L2.9012 13.0037C4.0478 11.8485 4.56086 11.2733 5.46368 10.2611C5.56431 10.1483 5.6702 10.0296 5.78222 9.90415C6.3346 10.5764 6.95138 11.2866 7.60313 12.0154C6.95688 12.7319 6.33375 13.4039 5.78235 13.9986ZM11.3424 15.3253C11.0411 14.986 10.6237 14.5358 10.1254 13.9984C8.95305 12.734 7.34739 11.0024 6.05973 9.41187C4.21323 7.13116 3.84083 6.14138 3.85358 5.7127C3.8879 4.55704 4.21942 3.4468 4.82131 2.45165C4.91317 3.20008 5.33842 4.10777 6.11954 5.25164C7.37224 7.0861 9.5629 9.55249 13.0062 13.0044L11.3424 15.3253Z" fill="white"/>
<path d="M11.3424 15.3253C11.0411 14.986 10.6237 14.5358 10.1254 13.9984C8.95305 12.734 7.34739 11.0024 6.05973 9.41187C4.21323 7.13116 3.84083 6.14138 3.85358 5.7127C3.8879 4.55704 4.21942 3.4468 4.82131 2.45165C4.91317 3.20008 5.33842 4.10777 6.11954 5.25164C7.37224 7.0861 9.5629 9.55249 13.0062 13.0044L11.3424 15.3253Z" fill="white"/>
<path d="M11.0108 2.32905C11.6606 3.35521 12.0186 4.50939 12.0543 5.7127C12.0666 6.12435 11.7233 7.05863 10.0394 9.17375C9.33877 8.41372 8.72556 7.71956 8.19319 7.08394C9.30516 5.69213 10.1008 4.51595 10.5582 3.58777C10.7934 3.11036 10.944 2.69236 11.0108 2.32905Z" fill="white"/>
<path d="M5.46273 1.55843C6.08559 0.885278 6.99121 0.499998 7.95395 0.499998C8.91628 0.499998 9.82152 0.884903 10.4443 1.55753C10.5825 1.89984 10.532 2.52743 9.91096 3.67605C9.31943 3.35042 8.6479 3.17883 7.95391 3.17883C7.20364 3.17883 6.4636 3.38646 5.8404 3.76705C5.35065 2.81552 5.23082 2.09852 5.46273 1.55843Z" fill="white"/>
<path d="M5.78235 13.9986C5.28414 14.5359 4.86682 14.986 4.56548 15.3253L2.9012 13.0037C4.0478 11.8485 4.56086 11.2733 5.46368 10.2611L5.78222 9.90415C6.3346 10.5764 6.95138 11.2866 7.60313 12.0154C6.95688 12.7319 6.33375 13.4039 5.78235 13.9986Z" fill="white"/>
</svg>
