<svg width="22" height="24" viewBox="0 0 22 24" fill="none" xmlns="http://www.w3.org/2000/svg">
<path d="M3.08039 19.1224L3.08042 19.1224L5.81202 22.9328C5.90719 23.0656 6.06244 23.1437 6.22609 23.1496L6.2262 23.1496C6.23282 23.1499 6.23944 23.15 6.24607 23.15C6.40261 23.15 6.55458 23.0837 6.65576 22.964L6.65577 22.964C7.05163 22.4956 7.74467 21.7481 8.62739 20.7962L8.5174 20.6942L8.62739 20.7962L8.62859 20.7949C9.33041 20.038 10.1172 19.1895 10.9366 18.2844C11.6866 19.1138 12.4624 19.9559 13.2413 20.796L13.3513 20.694L13.2413 20.796C14.124 21.748 14.8172 22.4956 15.213 22.964L15.213 22.964C15.3142 23.0837 15.4661 23.15 15.6227 23.15C15.6293 23.15 15.6359 23.1499 15.6425 23.1497L15.6427 23.1496C15.8064 23.1437 15.9616 23.0656 16.0568 22.9329L16.0568 22.9328L18.788 19.1229L18.788 19.1228C18.926 18.9302 18.9023 18.6746 18.7353 18.5075C17.1317 16.9033 15.725 15.455 14.4985 14.1436C15.5042 12.883 16.2456 11.8349 16.7356 10.9723C17.2359 10.0915 17.4861 9.38415 17.4697 8.83173C17.4029 6.58355 16.5832 4.45113 15.102 2.66552C15.0935 2.6547 15.0845 2.64448 15.0754 2.6348C14.0458 1.49868 12.5364 0.85 10.9344 0.85C9.33234 0.85 7.8229 1.49875 6.79325 2.63496C6.7839 2.64489 6.77513 2.65505 6.76684 2.66544C5.28557 4.45113 4.46587 6.58361 4.39906 8.83177C4.38123 9.43156 4.69023 10.2095 5.20742 11.098C5.71318 11.9669 6.43261 12.9654 7.29158 14.0451C7.12509 14.2315 6.96843 14.4071 6.82024 14.5732L6.81875 14.5749C5.53704 16.0119 4.83206 16.8022 3.13257 18.5077C2.96608 18.6747 2.94258 18.93 3.08039 19.1224ZM9.16911 7.77083L9.04524 7.85542L9.16911 7.77083C8.94846 7.44773 8.75078 7.14048 8.57473 6.84771C9.27419 6.43417 10.0985 6.20835 10.9344 6.20835C11.6881 6.20835 12.4178 6.3854 13.0674 6.72157C12.5353 7.59396 11.7971 8.65028 10.7899 9.92934C10.1536 9.14187 9.61601 8.42526 9.16911 7.77083ZM14.6497 5.99948C14.9019 5.48777 15.0863 5.02086 15.2011 4.59658C15.96 5.90481 16.3778 7.35375 16.4225 8.85941C16.4297 9.10263 16.331 9.53691 15.9295 10.2852C15.5428 11.0059 14.883 12.0041 13.7934 13.3832C12.9147 12.4269 12.1383 11.5479 11.4571 10.738C12.9489 8.86258 14.0245 7.26833 14.6497 5.99948ZM14.2292 3.22267C14.376 3.6219 14.3304 4.39429 13.5635 5.8517C12.7608 5.43796 11.8614 5.22089 10.9343 5.22089C9.93108 5.22089 8.94047 5.48385 8.08994 5.96909C7.491 4.75893 7.36914 3.87662 7.63689 3.22555C8.46289 2.34408 9.65936 1.8375 10.9344 1.8375C12.208 1.8375 13.4033 2.34294 14.2292 3.22267ZM7.83844 20.1461C7.22004 20.813 6.69096 21.3837 6.28805 21.8327L4.1826 18.8957C5.69973 17.3642 6.40376 16.5749 7.62201 15.209L7.6222 15.2088L7.62299 15.208C7.72575 15.0928 7.83248 14.9731 7.94368 14.8485C8.65038 15.7036 9.42981 16.6013 10.2504 17.5206C9.39485 18.4675 8.57095 19.3561 7.83844 20.1461ZM5.4463 8.85942C5.48866 7.43302 5.86575 6.05771 6.55054 4.80462C6.76906 5.78246 7.34715 6.92754 8.2882 8.30559C10.0081 10.8242 13.0016 14.1969 17.6853 18.8969L15.5807 21.8327C15.1778 21.3836 14.6486 20.8128 14.0302 20.1459C12.4174 18.4066 10.2132 16.0293 8.44641 13.8469C7.17982 12.2825 6.42309 11.166 5.98586 10.3709C5.54632 9.57164 5.43876 9.11312 5.4463 8.85942Z" fill="#56595B" stroke="#56595B" stroke-width="0.3"/>
</svg>
