<svg width="148" height="144" viewBox="0 0 148 144" fill="none" xmlns="http://www.w3.org/2000/svg">
	<path d="M71.5301 140C70.5701 138.93 58.5901 125.5 46.8701 107.94C41.0001 99.1699 35.2301 89.3999 30.9201 79.6699C26.6101 69.9199 23.8301 60.3299 23.8301 51.8799C23.8301 24.4799 46.1301 2.17993 73.5301 2.17993C100.93 2.17993 123.23 24.4799 123.23 51.8799C123.23 60.3299 120.46 69.9199 116.14 79.6699C111.84 89.4099 106.06 99.1599 100.19 107.94C88.4601 125.5 76.4901 138.93 75.5201 140C74.4701 141.2 72.5901 141.2 71.5301 140ZM45.6001 51.8799C45.6001 67.2899 58.1301 79.7999 73.5201 79.7999C88.9301 79.7999 101.44 67.2699 101.44 51.8799C101.44 36.4899 88.9101 23.9599 73.5201 23.9599C58.1301 23.9599 45.6001 36.4799 45.6001 51.8799Z" stroke="#006A51" stroke-width="4.3617"/>
	<path d="M73.4603 70.91C74.6643 70.91 75.6403 69.934 75.6403 68.73C75.6403 67.5261 74.6643 66.55 73.4603 66.55C72.2563 66.55 71.2803 67.5261 71.2803 68.73C71.2803 69.934 72.2563 70.91 73.4603 70.91Z" fill="#006A51"/>
	<path d="M64.5195 43.74C64.5195 38.75 68.5595 34.71 73.5495 34.71C78.5395 34.71 82.5795 38.75 82.5795 43.74C82.5795 52.28 73.5195 49.68 73.5795 61.28" stroke="#006A51" stroke-width="4.3617" stroke-linecap="round"/>
	<path d="M144.88 128.77H138.79H127.28H121.19C121.13 128.77 121.08 128.77 121.02 128.79C120.96 128.79 120.91 128.77 120.85 128.77H103.25C102.03 128.77 101.06 129.75 101.06 130.95C101.06 132.15 102.05 133.13 103.25 133.13H120.85C120.91 133.13 120.96 133.13 121.02 133.11C121.08 133.11 121.13 133.13 121.19 133.13H127.28H138.79H144.88C146.1 133.13 147.07 132.15 147.07 130.95C147.09 129.75 146.1 128.77 144.88 128.77Z" fill="#006A51"/>
	<path d="M43.81 128.77H37.72H26.21H20.12C20.06 128.77 20.01 128.77 19.95 128.79C19.89 128.79 19.84 128.77 19.78 128.77H2.19C0.97 128.77 0 129.75 0 130.95C0 132.15 0.99 133.13 2.19 133.13H19.79C19.85 133.13 19.9 133.13 19.96 133.11C20.02 133.11 20.07 133.13 20.13 133.13H26.22H37.73H43.82C45.04 133.13 46.01 132.15 46.01 130.95C46.01 129.75 45.03 128.77 43.81 128.77Z" fill="#006A51"/>
</svg>