<svg width="16" height="16" viewBox="0 0 16 16" fill="none" xmlns="http://www.w3.org/2000/svg">
<g clip-path="url(#clip0_1612_25444)">
<path d="M14.7436 1.23341C13.0982 -0.411136 10.4218 -0.411136 8.77645 1.23341L5.29761 4.71237L9.24731 8.66221C10.0602 7.98524 11.0908 7.56136 12.2288 7.56136C12.8816 7.56136 13.5027 7.69695 14.0679 7.93908L14.7436 7.20082C16.3885 5.55581 16.3885 2.87889 14.7436 1.23341Z" fill="white"/>
<path d="M8.59373 9.33055L4.63853 5.37524L1.23369 8.78355C-0.411231 10.4285 -0.411231 13.1055 1.23369 14.7509C2.87905 16.3954 5.58669 16.4268 7.23211 14.7822L7.92234 14.0886C7.68023 13.5234 7.54464 12.9022 7.54464 12.2495C7.54467 11.1407 7.94778 10.1341 8.59373 9.33055Z" fill="white"/>
<path d="M8.48816 12.2497C8.48816 14.1605 9.92227 15.7199 11.7698 15.953V8.54639C9.92227 8.77948 8.48816 10.3388 8.48816 12.2497Z" fill="white"/>
<path d="M12.7024 8.54565V15.9522C14.5499 15.7191 15.984 14.1597 15.984 12.2489C15.984 10.3381 14.5499 8.77875 12.7024 8.54565Z" fill="white"/>
</g>
<defs>
<clipPath id="clip0_1612_25444">
<rect width="16" height="16" fill="white"/>
</clipPath>
</defs>
</svg>
