<svg width="22" height="22" viewBox="0 0 22 22" fill="none" xmlns="http://www.w3.org/2000/svg">
<path d="M16.5809 10.2608C17.4682 10.2608 18.3062 10.448 19.0752 10.7733L19.9921 9.76792C22.2202 7.54032 22.2202 3.91308 19.9921 1.67563C18.878 0.561828 17.4091 0 15.95 0C14.4909 0 13.0219 0.561828 11.9078 1.67563L7.19531 6.3871L12.5487 11.7392C13.6529 10.8226 15.0429 10.2509 16.5908 10.2509L16.5809 10.2608ZM12.943 2.73029C13.7416 1.9319 14.8063 1.48835 15.9401 1.48835C17.0739 1.48835 18.1386 1.9319 18.9372 2.73029C20.5935 4.3862 20.5935 7.07706 18.9372 8.72312C18.9175 8.74283 18.9076 8.75269 18.8879 8.7724L18.6316 9.05824C17.9612 8.87097 17.271 8.78226 16.5711 8.78226C15.2007 8.78226 13.8796 9.1371 12.6965 9.83692L9.26567 6.40681L12.9332 2.74014L12.943 2.73029Z" fill="#56595B"/>
<path d="M11.6482 12.656L6.28501 7.29395L1.67107 11.9167C-0.557024 14.1443 -0.557024 17.7715 1.67107 20.009C2.79498 21.1327 4.29352 21.7043 5.78221 21.7043C7.27089 21.7043 8.70043 21.1622 9.80462 20.0583L10.7412 19.1219C10.4159 18.3531 10.2285 17.5153 10.2285 16.6282C10.2285 15.13 10.7708 13.7599 11.6482 12.6757V12.656ZM9.03563 18.7178L8.75958 18.9938C7.97087 19.7823 6.91598 20.216 5.78221 20.216C4.64844 20.216 3.53439 19.7724 2.71611 18.9543C1.05983 17.2984 1.05983 14.6076 2.71611 12.9615L6.28501 9.39341L9.7356 12.8432C9.08492 14.0063 8.73986 15.2877 8.73986 16.6183C8.73986 17.3379 8.83845 18.0377 9.02577 18.7276L9.03563 18.7178Z" fill="#56595B"/>
<path d="M16.7856 11.4043C13.9069 11.4043 11.5703 13.7403 11.5703 16.6185C11.5703 19.4966 13.9069 21.8326 16.7856 21.8326C19.6644 21.8326 22.001 19.4966 22.001 16.6185C22.001 13.7403 19.6644 11.4043 16.7856 11.4043ZM13.0491 16.6185C13.0491 14.8147 14.3406 13.3066 16.0462 12.9616V20.2753C14.3406 19.9303 13.0491 18.4222 13.0491 16.6185ZM17.5251 20.2753V12.9616C19.2306 13.3066 20.5221 14.8147 20.5221 16.6185C20.5221 18.4222 19.2306 19.9303 17.5251 20.2753Z" fill="#56595B"/>
</svg>
