<svg width="32" height="34" viewBox="0 0 32 34" fill="none" xmlns="http://www.w3.org/2000/svg">
<path d="M30.2903 4.85249C26.3812 3.43669 22.4779 2.0034 18.5602 0.616768C17.751 0.329526 16.8824 0.209964 15.9832 0C15.0956 0.215796 14.1834 0.354313 13.3292 0.657594C9.40996 2.0486 5.50816 3.48481 1.60055 4.90498C0.476199 5.31324 -0.148438 6.0904 0.0302375 7.29623C0.403567 9.83329 0.715886 12.4053 1.40008 14.8651C3.64877 22.94 8.41054 29.2024 15.4065 33.7677C15.7711 34.0053 16.0703 34.1162 16.5076 33.8275C26.0485 27.5679 30.9963 18.608 31.987 7.32685C32.0974 6.0627 31.5047 5.29429 30.2888 4.85395L30.2903 4.85249ZM22.5114 18.2945H17.7917V23.1135H14.2531V18.382H9.50003V14.852H14.1499V10.0243H17.7351V14.7616H22.5114V18.2945V18.2945Z" fill="#00B288"/>
</svg>
