<svg xmlns="http://www.w3.org/2000/svg" viewBox="-290 379 29.5 35" style="enable-background:new -290 379 29.5 35" xml:space="preserve"><path d="M-273.6 379c-7.2 0-13.1 5.9-13.1 13.1v1.9l-3.2 6.3c-.2.3-.2.7 0 1.1.3.4.6.6 1 .6h2.2v5.3c0 .6.3 1.2.8 1.7.5.4 1.1.6 1.8.5l4-.7v4.2c0 .3.1.6.4.8.2.2.4.3.7.3h.2l13.1-2.2c.5-.1.9-.5.9-1.1V404c0-1.5.7-2.7 1.4-3.5 1.9-2.3 3-5.3 3-8.4-.1-7.2-6-13.1-13.2-13.1zm5.8 14.1c-.6.8-1.4 1.7-2.3 2.5-1.7 1.4-3.4 2.4-3.4 2.4-.1 0-.2.1-.2.1-.1 0-.1 0-.2-.1-.1 0-1.7-1-3.4-2.4-1-.8-1.8-1.7-2.3-2.5-.7-1.1-1.1-2.1-1.1-3 0-1.1.4-2.1 1.1-2.9.7-.8 1.7-1.2 2.7-1.2 1.3 0 2.5.7 3.2 1.9.7-1.2 1.9-1.9 3.2-1.9 1 0 1.9.4 2.6 1.1.8.8 1.2 1.9 1.2 3 0 .9-.4 1.9-1.1 3z" style="fill:#00b288"/></svg>