<?xml version="1.0" encoding="utf-8"?>
<!-- Generator: Adobe Illustrator 25.3.1, SVG Export Plug-In . SVG Version: 6.00 Build 0)  -->
<svg version="1.1" id="Layer_1" xmlns="http://www.w3.org/2000/svg" xmlns:xlink="http://www.w3.org/1999/xlink" x="0px" y="0px"
	 viewBox="0 0 74 69.1" style="enable-background:new 0 0 74 69.1;" xml:space="preserve">
<style type="text/css">
	.st0{fill:none;stroke:#006B52;stroke-width:3;}
	.st1{fill:#006B52;}
</style>
<path style="stroke:#006B52; stroke-width:3; fill-opacity:0.0;" class="st0" d="M36.6,52.8h-0.5l-0.4,0.3L17.9,67.4l0,0c-0.2,0.1-0.4,0.2-0.6,0.2c-0.1,0-0.3,0-0.4-0.1
	c-0.3-0.2-0.5-0.5-0.5-0.9V54.3v-1.5h-1.5H7.4c-3.3,0-5.9-2.6-5.9-5.9V7.4c0-3.3,2.6-5.9,5.9-5.9h59.2c3.3,0,5.9,2.6,5.9,5.9v39.5
	c0,3.3-2.6,5.9-5.9,5.9H36.6z"/>
<path fill="#006B52" class="st1" d="M18.5,20h37c0.8,0,1.5,0.7,1.5,1.5l0,0c0,0.8-0.7,1.5-1.5,1.5h-37c-0.8,0-1.5-0.7-1.5-1.5l0,0
	C17,20.7,17.7,20,18.5,20z"/>
<path fill="#006B52" class="st1" d="M18.5,29h37c0.8,0,1.5,0.7,1.5,1.5l0,0c0,0.8-0.7,1.5-1.5,1.5h-37c-0.8,0-1.5-0.7-1.5-1.5l0,0
	C17,29.7,17.7,29,18.5,29z"/>
</svg>
