<svg width="26" height="25" viewBox="0 0 26 25" fill="none" xmlns="http://www.w3.org/2000/svg">
<path d="M23.2714 0H2.58571C1.16012 0 0 1.16012 0 2.58571V16.3762C0 17.8018 1.16012 18.9619 2.58571 18.9619H5.17143V23.2714C5.17143 23.6033 5.36191 23.9041 5.65927 24.048C5.77907 24.1049 5.90663 24.1333 6.03333 24.1333C6.22554 24.1333 6.41602 24.0695 6.57202 23.9446L12.8001 18.9619H23.2714C24.697 18.9619 25.8571 17.8018 25.8571 16.3762V2.58571C25.8571 1.16012 24.697 0 23.2714 0ZM12.9286 12.0667H6.03333C5.5567 12.0667 5.17143 11.6805 5.17143 11.2048C5.17143 10.729 5.5567 10.3429 6.03333 10.3429H12.9286C13.4052 10.3429 13.7905 10.729 13.7905 11.2048C13.7905 11.6805 13.4052 12.0667 12.9286 12.0667ZM19.8238 8.61905H6.03333C5.5567 8.61905 5.17143 8.23291 5.17143 7.75714C5.17143 7.28137 5.5567 6.89524 6.03333 6.89524H19.8238C20.3004 6.89524 20.6857 7.28137 20.6857 7.75714C20.6857 8.23291 20.3004 8.61905 19.8238 8.61905Z" fill="white"/>
</svg>
