<svg width="38" height="34" viewBox="0 0 38 34" fill="none" xmlns="http://www.w3.org/2000/svg">
<path d="M0.000974124 28.9672L0.000974124 27.7328C0.184109 26.735 0.598112 25.8371 1.12414 24.9693C3.2867 21.399 5.4249 17.8141 7.57187 14.2341C9.66916 10.7374 11.7674 7.24179 13.8598 3.74129C14.3401 2.93743 14.9401 2.25382 15.7389 1.75347C18.3866 0.0953341 21.7736 0.929249 23.4199 3.66372C26.3647 8.55666 29.2978 13.4564 32.2357 18.3542C33.655 20.7202 35.0724 23.0862 36.4917 25.4512C37.2963 26.7913 37.5564 28.2167 37.1414 29.7352C36.4576 32.2311 34.3603 33.7874 31.6814 33.7884C23.0049 33.7913 14.3284 33.7894 5.65187 33.7884C5.50575 33.7884 5.36061 33.7836 5.21449 33.7768C2.99056 33.6682 1.11342 32.3009 0.349711 30.2142C0.201644 29.8099 0.114947 29.3832 0 28.9663L0.000974124 28.9672ZM20.856 14.1827C20.856 12.7553 20.8599 11.328 20.855 9.90063C20.8502 8.60224 19.9033 7.62869 18.6593 7.63354C17.4173 7.63839 16.4822 8.61291 16.4802 9.91808C16.4773 12.7485 16.4773 15.579 16.4802 18.4095C16.4812 19.7428 17.4095 20.7086 18.6759 20.7056C19.9384 20.7018 20.8531 19.734 20.856 18.393C20.8589 16.9899 20.856 15.5868 20.856 14.1837V14.1827ZM18.6555 29.4249C20.4566 29.4327 21.9353 27.985 21.949 26.2008C21.9626 24.3768 20.48 22.8835 18.6613 22.8893C16.867 22.8952 15.3941 24.3564 15.3863 26.1406C15.3775 27.952 16.8358 29.4172 18.6555 29.4249Z" fill="#00B288"/>
</svg>
