<svg width="20" height="20" viewBox="0 0 20 20" fill="none" xmlns="http://www.w3.org/2000/svg">
<path d="M12.9592 8.83008L11.2841 10.5108C10.6049 11.1924 9.40972 11.2071 8.71578 10.5108L7.04066 8.83008L1.02441 14.8659C1.24836 14.9694 1.49527 15.0312 1.75777 15.0312H18.2421C18.5046 15.0312 18.7515 14.9695 18.9753 14.8659L12.9592 8.83008Z" fill="white"/>
<path d="M18.2421 0.96875H1.7577C1.4952 0.96875 1.24828 1.03055 1.02441 1.1341L7.4532 7.58422C7.45363 7.58465 7.45414 7.58473 7.45457 7.58516C7.455 7.58559 7.45508 7.58617 7.45508 7.58617L9.54543 9.68344C9.76746 9.90547 10.2324 9.90547 10.4544 9.68344L12.5443 7.58652C12.5443 7.58652 12.5448 7.58559 12.5453 7.58516C12.5453 7.58516 12.5462 7.58465 12.5466 7.58422L18.9753 1.13406C18.7514 1.03047 18.5046 0.96875 18.2421 0.96875Z" fill="white"/>
<path d="M0.186953 1.95312C0.0710937 2.18742 0 2.4475 0 2.72609V13.273C0 13.5516 0.0710156 13.8116 0.186914 14.0459L6.21359 7.99972L0.186953 1.95312Z" fill="white"/>
<path d="M19.8127 1.95312L13.7861 7.99981L19.8127 14.0461C19.9286 13.8118 19.9997 13.5517 19.9997 13.2731V2.72617C19.9997 2.4475 19.9286 2.18742 19.8127 1.95312Z" fill="white"/>
</svg>
