<svg width="136" height="136" viewBox="0 0 136 136" fill="none" xmlns="http://www.w3.org/2000/svg">
<circle opacity="0.1" cx="68" cy="68" r="67.5" stroke="#00B288"/>
<circle opacity="0.1" cx="68" cy="68" r="63" fill="#00B288"/>
<circle opacity="0.1" cx="68" cy="68" r="53" fill="#00B288"/>
<path d="M68.3852 78.7688C71.3472 78.7688 73.882 77.7143 75.9909 75.6062C78.0994 73.4981 79.1538 70.962 79.1538 68.0003V50.7697C79.1538 47.8079 78.1003 45.2729 75.9909 43.1638C73.882 41.0551 71.3472 40 68.3852 40C65.4236 40 62.8885 41.0551 60.7795 43.1638C58.6703 45.2726 57.6159 47.8079 57.6159 50.7697V68.0003C57.6159 70.9619 58.6708 73.4981 60.7795 75.6062C62.8881 77.7143 65.4236 78.7688 68.3852 78.7688Z" fill="#00B288"/>
<path d="M87.1297 62.1755C86.7046 61.7491 86.1987 61.5359 85.6154 61.5359C85.0326 61.5359 84.5278 61.7491 84.101 62.1755C83.6751 62.6017 83.462 63.1065 83.462 63.6896V67.9976C83.462 72.1484 81.9864 75.6987 79.036 78.649C76.0866 81.5994 72.5358 83.0746 68.3848 83.0746C64.234 83.0746 60.6836 81.5994 57.7331 78.649C54.7829 75.6995 53.3079 72.1486 53.3079 67.9976V63.6896C53.3079 63.1065 53.0947 62.6017 52.6686 62.1755C52.2422 61.7491 51.7379 61.5359 51.1542 61.5359C50.5705 61.5359 50.0656 61.7491 49.6395 62.1755C49.213 62.6017 48.9999 63.1065 48.9999 63.6896V67.9976C48.9999 72.956 50.6549 77.2695 53.9639 80.9374C57.273 84.6055 61.362 86.7087 66.2309 87.2468V91.6897H57.6155C57.0322 91.6897 56.5274 91.9031 56.1012 92.3295C55.6748 92.7555 55.4616 93.2605 55.4616 93.8438C55.4616 94.4262 55.6748 94.9322 56.1012 95.3582C56.5274 95.7842 57.0322 95.998 57.6155 95.998H79.1536C79.7368 95.998 80.2423 95.7843 80.6679 95.3582C81.0947 94.9323 81.3081 94.4264 81.3081 93.8438C81.3081 93.2606 81.0947 92.7556 80.6679 92.3295C80.2424 91.9031 79.7369 91.6897 79.1536 91.6897H70.5392V87.2468C75.4074 86.7087 79.496 84.6055 82.8054 80.9374C86.1149 77.2695 87.7703 72.956 87.7703 67.9976V63.6896C87.7703 63.1066 87.5566 62.6022 87.1297 62.1755Z" fill="#00B288"/>
</svg>
