<svg width="21" height="29" viewBox="0 0 21 29" fill="none" xmlns="http://www.w3.org/2000/svg">
<path d="M10.0283 20.0552C11.5605 20.0552 12.8718 19.5097 13.9627 18.4192C15.0535 17.3287 15.5989 16.0168 15.5989 14.4847V5.57119C15.5989 4.03907 15.0539 2.72769 13.9627 1.63663C12.8718 0.545807 11.5605 0 10.0283 0C8.49622 0 7.18479 0.545807 6.09378 1.63663C5.00272 2.72751 4.45728 4.03907 4.45728 5.57119V14.4847C4.45728 16.0167 5.00296 17.3287 6.09378 18.4192C7.1846 19.5097 8.49622 20.0552 10.0283 20.0552Z" fill="#56595B"/>
<path d="M19.7247 11.4722C19.5048 11.2517 19.2431 11.1414 18.9413 11.1414C18.6398 11.1414 18.3787 11.2517 18.1579 11.4722C17.9376 11.6927 17.8274 11.9538 17.8274 12.2555V14.484C17.8274 16.6313 17.0641 18.4678 15.5378 19.994C14.012 21.5203 12.1752 22.2834 10.0279 22.2834C7.88064 22.2834 6.044 21.5203 4.51768 19.994C2.99154 18.4683 2.22854 16.6313 2.22854 14.484V12.2555C2.22854 11.9538 2.11823 11.6927 1.89779 11.4722C1.67724 11.2517 1.41638 11.1414 1.11442 11.1414C0.812461 11.1414 0.551295 11.2517 0.330863 11.4722C0.110247 11.6927 0 11.9538 0 12.2555V14.484C0 17.049 0.85612 19.2804 2.56787 21.1778C4.27969 23.0753 6.39493 24.1634 8.91365 24.4417V26.74H4.45689C4.15511 26.74 3.89401 26.8504 3.67351 27.071C3.45296 27.2914 3.34265 27.5526 3.34265 27.8544C3.34265 28.1557 3.45296 28.4174 3.67351 28.6377C3.89401 28.8581 4.15511 28.9687 4.45689 28.9687H15.5986C15.9003 28.9687 16.1618 28.8582 16.382 28.6377C16.6028 28.4174 16.7131 28.1557 16.7131 27.8544C16.7131 27.5527 16.6028 27.2914 16.382 27.071C16.1618 26.8504 15.9004 26.74 15.5986 26.74H11.1424V24.4417C13.6607 24.1634 15.7757 23.0753 17.4877 21.1778C19.1997 19.2804 20.0561 17.049 20.0561 14.484V12.2555C20.0561 11.9539 19.9455 11.693 19.7247 11.4722Z" fill="#56595B"/>
</svg>
