<svg width="140" height="140" viewBox="0 0 140 140" fill="none" xmlns="http://www.w3.org/2000/svg">
<rect x="5" y="5" width="130" height="130" rx="65" fill="#EBF5F3"/>
<rect x="15" y="15" width="110" height="110" rx="55" fill="#D9F4ED"/>
<path d="M70.0006 81.7788C73.343 81.7788 76.2034 80.6255 78.5831 78.3197C80.9625 76.014 82.1523 73.2401 82.1523 70.0007V51.1545C82.1523 47.915 80.9634 45.1423 78.5831 42.8354C76.2034 40.529 73.343 39.375 70.0006 39.375C66.6586 39.375 63.7979 40.529 61.418 42.8354C59.038 45.1419 57.8481 47.915 57.8481 51.1545V70.0007C57.8481 73.24 59.0385 76.014 61.418 78.3197C63.7975 80.6255 66.6586 81.7788 70.0006 81.7788Z" fill="#04A127"/>
<path d="M91.1521 63.6312C90.6724 63.1649 90.1015 62.9316 89.4432 62.9316C88.7856 62.9316 88.216 63.1649 87.7344 63.6312C87.2538 64.0974 87.0133 64.6495 87.0133 65.2873V69.9992C87.0133 74.5392 85.3482 78.4224 82.0189 81.6493C78.6906 84.8764 74.6838 86.4899 69.9997 86.4899C65.3157 86.4899 61.3093 84.8764 57.9798 81.6493C54.6507 78.4233 52.9863 74.5394 52.9863 69.9992V65.2873C52.9863 64.6495 52.7457 64.0974 52.2648 63.6312C51.7837 63.1649 51.2147 62.9316 50.556 62.9316C49.8973 62.9316 49.3276 63.1649 48.8467 63.6312C48.3655 64.0974 48.125 64.6495 48.125 65.2873V69.9992C48.125 75.4225 49.9925 80.1405 53.7265 84.1523C57.4606 88.1643 62.0748 90.4647 67.5691 91.0533V95.9127H57.8472C57.1889 95.9127 56.6193 96.1462 56.1383 96.6125C55.6572 97.0785 55.4166 97.6308 55.4166 98.2688C55.4166 98.9059 55.6572 99.4592 56.1383 99.9252C56.6193 100.391 57.1889 100.625 57.8472 100.625H82.1515C82.8097 100.625 83.38 100.391 83.8603 99.9252C84.342 99.4594 84.5827 98.906 84.5827 98.2688C84.5827 97.6309 84.342 97.0786 83.8603 96.6125C83.3801 96.1462 82.8098 95.9127 82.1515 95.9127H72.4308V91.0533C77.9242 90.4647 82.5379 88.1643 86.2724 84.1523C90.0069 80.1405 91.875 75.4225 91.875 69.9992V65.2873C91.875 64.6496 91.6338 64.0979 91.1521 63.6312Z" fill="#04A127"/>
<rect x="0.5" y="0.5" width="139" height="139" rx="69.5" stroke="#E6F8EF"/>
</svg>
