<svg width="106" height="106" viewBox="0 0 106 106" fill="none" xmlns="http://www.w3.org/2000/svg">
<circle opacity="0.1" cx="53" cy="53" r="53" fill="#00B288"/>
<path d="M53.3852 63.7688C56.3472 63.7688 58.882 62.7143 60.9909 60.6062C63.0994 58.4981 64.1538 55.962 64.1538 53.0003V35.7697C64.1538 32.8079 63.1003 30.2729 60.9909 28.1638C58.882 26.0551 56.3472 25 53.3852 25C50.4236 25 47.8885 26.0551 45.7795 28.1638C43.6703 30.2726 42.6159 32.8079 42.6159 35.7697V53.0003C42.6159 55.9619 43.6708 58.4981 45.7795 60.6062C47.8881 62.7143 50.4236 63.7688 53.3852 63.7688Z" fill="#00B288"/>
<path d="M72.1297 47.1755C71.7046 46.7491 71.1987 46.5359 70.6154 46.5359C70.0326 46.5359 69.5278 46.7491 69.101 47.1755C68.6751 47.6017 68.462 48.1065 68.462 48.6896V52.9976C68.462 57.1484 66.9865 60.6987 64.036 63.649C61.0866 66.5994 57.5358 68.0746 53.3848 68.0746C49.234 68.0746 45.6836 66.5994 42.7331 63.649C39.7829 60.6995 38.3079 57.1486 38.3079 52.9976V48.6896C38.3079 48.1065 38.0947 47.6017 37.6686 47.1755C37.2422 46.7491 36.7379 46.5359 36.1542 46.5359C35.5705 46.5359 35.0656 46.7491 34.6395 47.1755C34.213 47.6017 33.9999 48.1065 33.9999 48.6896V52.9976C33.9999 57.956 35.6549 62.2695 38.9639 65.9374C42.273 69.6055 46.362 71.7087 51.2309 72.2468V76.6897H42.6155C42.0322 76.6897 41.5274 76.9031 41.1012 77.3295C40.6748 77.7555 40.4616 78.2605 40.4616 78.8438C40.4616 79.4262 40.6748 79.9322 41.1012 80.3582C41.5274 80.7842 42.0322 80.998 42.6155 80.998H64.1536C64.7368 80.998 65.2423 80.7843 65.6679 80.3582C66.0947 79.9323 66.3081 79.4264 66.3081 78.8438C66.3081 78.2606 66.0947 77.7556 65.6679 77.3295C65.2424 76.9031 64.7369 76.6897 64.1536 76.6897H55.5392V72.2468C60.4074 71.7087 64.496 69.6055 67.8054 65.9374C71.1149 62.2695 72.7703 57.956 72.7703 52.9976V48.6896C72.7703 48.1066 72.5566 47.6022 72.1297 47.1755Z" fill="#00B288"/>
</svg>
