<svg width="25" height="25" viewBox="0 0 22 22" fill="none" xmlns="http://www.w3.org/2000/svg">
<g clip-path="url(#clip0_10271_3415)">
<path d="M10.3263 15.3448H11.6875C11.4813 15.166 11.2475 15.001 11.0138 14.8223C10.7663 15.001 10.5463 15.166 10.34 15.3448H10.3263Z" fill="#00B288"/>
<path d="M9.28121 11C9.28121 11.2063 9.30871 11.4263 9.36371 11.6188H12.6362C12.7462 11.22 12.7462 10.8075 12.6362 10.395H9.33621C9.28121 10.5875 9.26746 10.7938 9.26746 10.9863L9.28121 11Z" fill="#00B288"/>
<path d="M9.98254 9.32264H12.0175C11.7013 9.00639 11.3713 8.73139 11 8.48389C10.6425 8.73139 10.2988 9.00639 9.98254 9.32264Z" fill="#00B288"/>
<path d="M11.0001 13.5163C11.3438 13.2826 11.6738 13.0076 11.9901 12.7051H10.0238C10.3263 13.0076 10.6563 13.2688 11.0138 13.5163H11.0001Z" fill="#00B288"/>
<path d="M18.3563 1.375H3.64375C2.3925 1.375 1.375 2.3925 1.375 3.64375V18.3563C1.375 19.6075 2.3925 20.625 3.64375 20.625H18.3563C19.6075 20.625 20.625 19.6075 20.625 18.3563V3.64375C20.625 2.3925 19.6075 1.375 18.3563 1.375ZM13.75 11C13.75 12.54 12.87 13.4475 11.9075 14.1625C12.87 14.8913 13.75 15.785 13.75 17.325C13.75 17.4625 13.695 17.6 13.5988 17.71C13.5025 17.82 13.365 17.875 13.2413 17.875C13.1175 17.875 12.98 17.82 12.8837 17.71C12.7875 17.6138 12.7325 17.4763 12.7325 17.325C12.7325 17.0088 12.6775 16.7062 12.5538 16.4175H9.47375C9.35 16.7062 9.295 17.0088 9.295 17.325C9.295 17.4625 9.24 17.6 9.14375 17.71C9.0475 17.8063 8.91 17.875 8.78625 17.875C8.6625 17.875 8.525 17.82 8.42875 17.71C8.3325 17.6138 8.2775 17.4763 8.2775 17.325C8.2775 15.785 9.1575 14.8913 10.12 14.1625C9.1575 13.4338 8.2775 12.54 8.2775 11C8.2775 9.46 9.1575 8.5525 10.12 7.8375C9.1575 7.10875 8.2775 6.215 8.2775 4.675C8.2775 4.5375 8.3325 4.4 8.42875 4.29C8.525 4.19375 8.6625 4.125 8.78625 4.125C8.91 4.125 9.0475 4.18 9.14375 4.29C9.24 4.38625 9.295 4.52375 9.295 4.675C9.295 4.90875 9.3225 5.12875 9.39125 5.34875H12.65C12.7187 5.12875 12.7463 4.90875 12.7463 4.675C12.7463 4.5375 12.8013 4.4 12.8975 4.29C12.9938 4.19375 13.1313 4.125 13.255 4.125C13.3788 4.125 13.5162 4.18 13.6125 4.29C13.7087 4.38625 13.7638 4.52375 13.7638 4.675C13.7638 6.215 12.8838 7.10875 11.9213 7.8375C12.8838 8.56625 13.7638 9.46 13.7638 11H13.75Z" fill="#00B288"/>
<path d="M10.9999 7.17764C11.3299 6.94389 11.6462 6.69639 11.9349 6.42139H10.0649C10.3537 6.69639 10.6699 6.95764 10.9999 7.17764V7.17764Z" fill="#00B288"/>
</g>
<defs>
<clipPath id="clip0_10271_3415">
<rect width="31" height="34" fill="white" transform="translate(1.375 1.375)"/>
</clipPath>
</defs>
</svg>
