<svg width="56" height="37" viewBox="0 0 56 37" fill="none" xmlns="http://www.w3.org/2000/svg">
<path d="M54.6094 26.0045H11.2687C11.0388 26.0045 10.8183 25.9131 10.6557 25.7506C10.4932 25.588 10.4019 25.3675 10.4019 25.1376V0.866815C10.4019 0.636922 10.4932 0.416444 10.6557 0.253885C10.8183 0.0913251 11.0388 0 11.2687 0H54.6094C54.8393 0 55.0598 0.0913251 55.2224 0.253885C55.3849 0.416444 55.4763 0.636922 55.4763 0.866815V25.1376C55.4763 25.3675 55.3849 25.588 55.2224 25.7506C55.0598 25.9131 54.8393 26.0045 54.6094 26.0045ZM12.1355 24.2708H53.7426V1.73363H12.1355V24.2708Z" fill="#00B288"/>
<path d="M33.8058 17.3364H32.0721C31.3824 17.3364 30.721 17.0624 30.2333 16.5747C29.7457 16.087 29.4717 15.4256 29.4717 14.7359H31.2053C31.2053 14.9658 31.2966 15.1863 31.4592 15.3489C31.6218 15.5114 31.8422 15.6027 32.0721 15.6027H33.8058C34.0357 15.6027 34.2561 15.5114 34.4187 15.3489C34.5812 15.1863 34.6726 14.9658 34.6726 14.7359C34.6726 14.506 34.5812 14.2855 34.4187 14.123C34.2561 13.9604 34.0357 13.8691 33.8058 13.8691H32.0721C31.3824 13.8691 30.721 13.5951 30.2333 13.1075C29.7457 12.6198 29.4717 11.9583 29.4717 11.2687C29.4717 10.579 29.7457 9.91754 30.2333 9.42987C30.721 8.94219 31.3824 8.66821 32.0721 8.66821H33.8058C34.4954 8.66821 35.1569 8.94219 35.6445 9.42987C36.1322 9.91754 36.4062 10.579 36.4062 11.2687H34.6726C34.6726 11.0388 34.5812 10.8183 34.4187 10.6557C34.2561 10.4932 34.0357 10.4018 33.8058 10.4018H32.0721C31.8422 10.4018 31.6218 10.4932 31.4592 10.6557C31.2966 10.8183 31.2053 11.0388 31.2053 11.2687C31.2053 11.4986 31.2966 11.719 31.4592 11.8816C31.6218 12.0442 31.8422 12.1355 32.0721 12.1355H33.8058C34.4954 12.1355 35.1569 12.4094 35.6445 12.8971C36.1322 13.3848 36.4062 14.0462 36.4062 14.7359C36.4062 15.4256 36.1322 16.087 35.6445 16.5747C35.1569 17.0624 34.4954 17.3364 33.8058 17.3364Z" fill="#00B288"/>
<path d="M32.0721 7.80127H33.8058V9.5349H32.0721V7.80127Z" fill="#00B288"/>
<path d="M32.0721 16.4695H33.8058V18.2031H32.0721V16.4695Z" fill="#00B288"/>
<path d="M47.6748 22.5372H18.2031C17.9732 22.5372 17.7527 22.4459 17.5902 22.2833C17.4276 22.1208 17.3363 21.9003 17.3363 21.6704C17.3363 20.9807 17.0623 20.3193 16.5746 19.8316C16.0869 19.3439 15.4255 19.07 14.7358 19.07C14.5059 19.07 14.2855 18.9786 14.1229 18.8161C13.9603 18.6535 13.869 18.433 13.869 18.2031V7.80136C13.869 7.57147 13.9603 7.35099 14.1229 7.18843C14.2855 7.02587 14.5059 6.93455 14.7358 6.93455C15.4255 6.93455 16.0869 6.66057 16.5746 6.17289C17.0623 5.68522 17.3363 5.02378 17.3363 4.3341C17.3363 4.10421 17.4276 3.88373 17.5902 3.72117C17.7527 3.55861 17.9732 3.46729 18.2031 3.46729H47.6748C47.9047 3.46729 48.1252 3.55861 48.2878 3.72117C48.4503 3.88373 48.5416 4.10421 48.5416 4.3341C48.5416 5.02378 48.8156 5.68522 49.3033 6.17289C49.791 6.66057 50.4524 6.93455 51.1421 6.93455C51.372 6.93455 51.5925 7.02587 51.755 7.18843C51.9176 7.35099 52.0089 7.57147 52.0089 7.80136V18.2031C52.0089 18.433 51.9176 18.6535 51.755 18.8161C51.5925 18.9786 51.372 19.07 51.1421 19.07C50.4524 19.07 49.791 19.3439 49.3033 19.8316C48.8156 20.3193 48.5416 20.9807 48.5416 21.6704C48.5416 21.9003 48.4503 22.1208 48.2878 22.2833C48.1252 22.4459 47.9047 22.5372 47.6748 22.5372ZM18.9832 20.8036H46.8947C47.0659 19.9713 47.4774 19.2075 48.0783 18.6066C48.6791 18.0057 49.443 17.5942 50.2753 17.423V8.5815C49.443 8.41027 48.6791 7.99877 48.0783 7.39791C47.4774 6.79706 47.0659 6.03322 46.8947 5.20092H18.9832C18.812 6.03322 18.4005 6.79706 17.7996 7.39791C17.1988 7.99877 16.435 8.41027 15.6026 8.5815V17.423C16.435 17.5942 17.1988 18.0057 17.7996 18.6066C18.4005 19.2075 18.812 19.9713 18.9832 20.8036Z" fill="#00B288"/>
<path d="M32.939 22.5372C31.0532 22.5372 29.2097 21.978 27.6417 20.9303C26.0737 19.8826 24.8515 18.3934 24.1299 16.6511C23.4082 14.9088 23.2194 12.9917 23.5873 11.1421C23.9552 9.29248 24.8633 7.59351 26.1968 6.26002C27.5303 4.92653 29.2292 4.01841 31.0788 3.6505C32.9285 3.28259 34.8456 3.47142 36.5879 4.1931C38.3302 4.91478 39.8193 6.1369 40.8671 7.70491C41.9148 9.27293 42.474 11.1164 42.474 13.0023C42.471 15.5302 41.4655 17.9537 39.678 19.7412C37.8905 21.5287 35.4669 22.5342 32.939 22.5372ZM32.939 5.20092C31.3961 5.20092 29.8878 5.65846 28.6048 6.51568C27.3219 7.37291 26.322 8.59131 25.7315 10.0168C25.1411 11.4423 24.9866 13.0109 25.2876 14.5242C25.5886 16.0375 26.3316 17.4276 27.4226 18.5186C28.5137 19.6097 29.9037 20.3527 31.4171 20.6537C32.9304 20.9547 34.499 20.8002 35.9245 20.2098C37.35 19.6193 38.5684 18.6194 39.4256 17.3365C40.2828 16.0535 40.7404 14.5452 40.7404 13.0023C40.7378 10.934 39.9151 8.95115 38.4526 7.48867C36.9901 6.02618 35.0073 5.20344 32.939 5.20092Z" fill="#00B288"/>
<path d="M13.869 31.2054H6.06762C5.83773 31.2054 5.61725 31.1141 5.45469 30.9515C5.29213 30.7889 5.20081 30.5685 5.20081 30.3386V6.06774C5.20081 5.83785 5.29213 5.61737 5.45469 5.45481C5.61725 5.29225 5.83773 5.20093 6.06762 5.20093H11.2685V6.93456H6.93444V29.4718H13.869V31.2054Z" fill="#00B288"/>
<path d="M49.4085 31.2054H19.0699V29.4718H48.5417V25.1377H50.2753V30.3386C50.2753 30.5685 50.184 30.789 50.0214 30.9515C49.8589 31.1141 49.6384 31.2054 49.4085 31.2054Z" fill="#00B288"/>
<path d="M44.2076 36.4063H0.866816C0.636922 36.4063 0.416444 36.315 0.253884 36.1524C0.091325 35.9899 0 35.7694 0 35.5395V11.2687C0 11.0388 0.091325 10.8183 0.253884 10.6557C0.416444 10.4932 0.636922 10.4019 0.866816 10.4019H6.06771V12.1355H1.73363V34.6727H43.3408V30.3386H45.0744V35.5395C45.0744 35.7694 44.9831 35.9899 44.8205 36.1524C44.658 36.315 44.4375 36.4063 44.2076 36.4063Z" fill="#00B288"/>
<path d="M15.6027 29.4717H17.3363V31.2053H15.6027V29.4717Z" fill="#00B288"/>
</svg>
