<svg width="32" height="32" viewBox="0 0 32 32" fill="none" xmlns="http://www.w3.org/2000/svg">
<path d="M25.8 6.2H24.4V3.4C24.4 3.0287 24.2525 2.6726 23.99 2.41005C23.7274 2.1475 23.3713 2 23 2C22.6287 2 22.2726 2.1475 22.01 2.41005C21.7475 2.6726 21.6 3.0287 21.6 3.4V6.2H10.4V3.4C10.4 3.0287 10.2525 2.6726 9.98995 2.41005C9.7274 2.1475 9.3713 2 9 2C8.6287 2 8.2726 2.1475 8.01005 2.41005C7.7475 2.6726 7.6 3.0287 7.6 3.4V6.2H6.2C5.08609 6.2 4.0178 6.6425 3.23015 7.43015C2.4425 8.2178 2 9.28609 2 10.4V11.8H30V10.4C30 9.28609 29.5575 8.2178 28.7698 7.43015C27.9822 6.6425 26.9139 6.2 25.8 6.2Z" fill="#00B288"/>
<path d="M2 25.7996C2 26.9135 2.4425 27.9818 3.23015 28.7695C4.0178 29.5571 5.08609 29.9996 6.2 29.9996H25.8C26.9139 29.9996 27.9822 29.5571 28.7698 28.7695C29.5575 27.9818 30 26.9135 30 25.7996V14.5996H2V25.7996Z" fill="#00B288"/>
</svg>
