<svg width="16" height="17" viewBox="0 0 16 17" fill="none" xmlns="http://www.w3.org/2000/svg">
<path d="M11.1939 8.62814C11.1212 8.62814 11.0491 8.63017 10.9772 8.63362C10.3164 9.16156 9.47195 9.47531 8.58257 9.52331C8.44896 9.53193 8.31488 9.53329 8.18108 9.52737C7.25727 9.49652 6.3754 9.17881 5.69069 8.63017C5.64891 8.62895 5.6069 8.62814 5.56466 8.62814C3.42525 8.62814 1.99109 10.9154 1.99109 12.805C2.35493 13.3142 4.16505 15.939 8.29627 15.9289C11.9891 15.9824 13.9817 13.9358 14.6015 13.0794C14.6015 11.1897 13.3331 8.62814 11.1939 8.62814Z" fill="white"/>
<path d="M8.23208 8.28558C10.2127 8.28558 11.8183 6.72793 11.8183 4.80648C11.8183 2.88504 10.2127 1.32739 8.23208 1.32739C6.25147 1.32739 4.64587 2.88504 4.64587 4.80648C4.64587 6.72793 6.25147 8.28558 8.23208 8.28558Z" fill="white"/>
</svg>
