<svg width="22" height="22" viewBox="0 0 22 22" fill="none" xmlns="http://www.w3.org/2000/svg">
<path d="M15.2548 5.2735C15.2548 7.44389 13.3821 9.27356 10.9829 9.27356C8.58367 9.27356 6.71094 7.44389 6.71094 5.2735C6.71094 3.10311 8.58367 1.27344 10.9829 1.27344C13.3821 1.27344 15.2548 3.10311 15.2548 5.2735Z" stroke="#56595B" stroke-width="1.5"/>
<path d="M10.9252 20.7242L10.9252 20.7241L10.9116 20.7241C7.88382 20.7321 5.49183 19.6449 3.82441 18.4641C2.99003 17.8732 2.34296 17.2627 1.89617 16.764C1.67257 16.5145 1.50341 16.2977 1.38786 16.1306C1.33504 16.0542 1.29949 15.9968 1.2764 15.9572C1.37494 13.3216 3.91372 10.8178 6.76378 10.774C7.92707 11.6916 9.37519 12.2174 10.8825 12.2722C11.117 12.2831 11.352 12.2806 11.5862 12.2646C13.0376 12.1798 14.425 11.6585 15.5466 10.7738C15.566 10.7736 15.5855 10.7734 15.6049 10.7734C18.3937 10.7734 20.6021 13.1898 20.7208 15.8875C19.5178 17.5546 16.1254 20.8049 10.9252 20.7242Z" stroke="#56595B" stroke-width="1.5"/>
</svg>
