<svg width="24" height="22" viewBox="0 0 24 22" fill="none" xmlns="http://www.w3.org/2000/svg">
<path d="M20.8854 2.89249C19.7688 1.68416 18.1937 1.00083 16.5521 1.00083C14.9021 1.00083 13.3354 1.68416 12.2104 2.89249L11.8271 3.30083L11.4437 2.89249C9.21875 0.492494 5.46875 0.359161 3.07708 2.58416C2.96875 2.68416 2.86042 2.78416 2.76875 2.89249C0.410417 5.44249 0.410417 9.37583 2.76875 11.9258L11.2687 20.8925C11.5604 21.2008 12.0521 21.2175 12.3604 20.9258C12.3687 20.9175 12.3771 20.9092 12.3938 20.8925L20.8937 11.9258C23.2521 9.38416 23.2521 5.44249 20.8854 2.89249Z" fill="white" stroke="white" stroke-width="1.5" stroke-miterlimit="10"/>
</svg>
