<svg width="21" height="21" viewBox="0 0 21 21" fill="none" xmlns="http://www.w3.org/2000/svg">
<path d="M18.6014 3.09019C17.609 1.99506 16.2093 1.37575 14.7504 1.37575C13.2841 1.37575 11.8919 1.99506 10.8921 3.09019L10.5514 3.46026L10.2108 3.09019C8.23349 0.915043 4.90095 0.794201 2.77554 2.81074C2.67927 2.90137 2.58299 2.992 2.50153 3.09019C0.405739 5.40128 0.405739 8.9661 2.50153 11.2772L10.0553 19.4038C10.3145 19.6832 10.7514 19.6983 11.0254 19.434C11.0328 19.4264 11.0402 19.4189 11.055 19.4038L18.6088 11.2772C20.7046 8.97365 20.7046 5.40128 18.6014 3.09019Z" stroke="#56595B" stroke-width="1.5" stroke-miterlimit="10"/>
</svg>
