<svg width="24" height="28" viewBox="0 0 24 28" fill="none" xmlns="http://www.w3.org/2000/svg">
<path fill-rule="evenodd" clip-rule="evenodd" d="M0 1.18528C0 0.530136 0.537305 0 1.2 0H22.8C23.4627 0 24 0.530136 24 1.18528V19.3697C24 20.0248 23.4627 20.5549 22.8 20.5549H17.8301C17.1674 20.5549 16.6301 21.0851 16.6301 21.7402V26.8147C16.6301 27.4699 16.0928 28 15.4301 28H1.2C0.537305 28 0 27.4699 0 26.8147V1.18528ZM13.3441 21.9764C13.8088 21.9764 14.185 21.6036 14.185 21.1453C14.185 20.6869 13.8088 20.3142 13.3441 20.3142H7.93828C7.47422 20.3142 7.09746 20.6869 7.09746 21.1453C7.09746 21.6036 7.47422 21.9764 7.93828 21.9764H13.3441ZM16.2193 18.4691C16.6834 18.4691 17.0602 18.0964 17.0602 17.638C17.0602 17.1797 16.6834 16.8069 16.2193 16.8069H7.93828C7.47422 16.8069 7.09746 17.1797 7.09746 17.638C7.09746 18.0964 7.47422 18.4691 7.93828 18.4691H16.2193ZM12.0211 4C13.2361 4 14.2245 4.97633 14.2245 6.17641C14.2245 7.37649 13.2361 8.35283 12.0211 8.35283C10.806 8.35283 9.81763 7.37649 9.81763 6.17641C9.81763 4.97641 10.8062 4 12.0211 4ZM17 13.5562C17 13.8013 16.7989 13.9999 16.5507 13.9999H7.49158C7.24345 13.9999 7.0423 13.8013 7.0423 13.5562V11.9801C7.0423 10.2999 8.42611 8.93311 10.1272 8.93311H13.9152C15.6162 8.93311 17 10.3 17 11.9801V13.5562ZM18.3115 22.8075C18.3115 22.4802 18.5802 22.2148 18.9115 22.2148H21.8145C22.349 22.2148 22.6167 22.8532 22.2388 23.2265L19.3358 26.0939C18.9578 26.4673 18.3115 26.2028 18.3115 25.6748V22.8075Z" fill="#00B288"/>
</svg>
