<svg width="32" height="38" viewBox="0 0 32 38" fill="none" xmlns="http://www.w3.org/2000/svg">
<path d="M3.4 0.625C1.6603 0.625 0.25 2.0353 0.25 3.775V34.225C0.25 35.9647 1.6603 37.375 3.4 37.375H21.8045C22.6332 37.375 23.4285 37.0484 24.0181 36.4661L30.8136 29.754C31.4128 29.1621 31.75 28.355 31.75 27.5129V3.775C31.75 2.03531 30.3397 0.625 28.6 0.625H3.4ZM29.5427 24.1378C29.5427 26.2799 28.7948 27.2878 26.3927 27.2878H24.6875C22.9478 27.2878 21.5375 28.6981 21.5375 30.4378V32.0449C21.5375 34.75 21.0627 35.1949 18.3875 35.1949H5.60716C2.45716 35.1949 2.45716 35.1949 2.45716 32.0449V5.95509C2.45716 2.80509 2.45716 2.80509 5.60716 2.80509H26.3927C29.5427 2.80509 29.5427 2.80509 29.5427 5.95509V24.1378Z" fill="#00B288"/>
<path fill-rule="evenodd" clip-rule="evenodd" d="M19.8722 9.38262C19.8722 9.94257 19.7496 10.474 19.5299 10.9532C19.3352 11.3777 19.4989 11.9025 19.9176 12.1336C21.3411 12.9192 22.3045 14.4209 22.3045 16.1405V19.5658C22.3045 19.7108 22.1856 19.8283 22.0388 19.8283H9.96058C9.81381 19.8283 9.69482 19.7108 9.69482 19.5658V16.1405C9.69482 14.4209 10.6583 12.9192 12.0818 12.1336C12.5006 11.9025 12.6642 11.3777 12.4696 10.9532C12.2498 10.474 12.1272 9.94257 12.1272 9.38262C12.1272 7.27378 13.8646 5.55762 15.9997 5.55762C18.1348 5.55762 19.8722 7.27378 19.8722 9.38262ZM18.1966 9.38255C18.1966 8.18583 17.2114 7.21264 15.9997 7.21264C14.7882 7.21264 13.8029 8.18589 13.8029 9.38255C13.8029 10.5793 14.788 11.5525 15.9997 11.5525C17.2114 11.5525 18.1966 10.5793 18.1966 9.38255ZM12.1678 18.1731H19.8317C20.2721 18.1731 20.629 17.8206 20.629 17.3856V16.1405C20.629 14.523 19.2973 13.2076 17.6597 13.2076H14.3399C12.7023 13.2076 11.3705 14.523 11.3705 16.1405V17.3856C11.3705 17.8206 11.7275 18.1731 12.1678 18.1731Z" fill="#00B288"/>
<path d="M21.5513 22.6841H10.6555C10.0535 22.6841 9.56543 23.1721 9.56543 23.7741C9.56543 24.3761 10.0535 24.8642 10.6555 24.8642H21.5513C22.1533 24.8642 22.6413 24.3761 22.6413 23.7741C22.6413 23.1721 22.1533 22.6841 21.5513 22.6841Z" fill="#00B288"/>
<path d="M17.7778 27.2876H10.6555C10.0535 27.2876 9.56543 27.7756 9.56543 28.3776C9.56543 28.9797 10.0535 29.4677 10.6555 29.4677H17.7778C18.3798 29.4677 18.8678 28.9797 18.8678 28.3776C18.8678 27.7756 18.3798 27.2876 17.7778 27.2876Z" fill="#00B288"/>
</svg>
