<svg width="62" height="62" viewBox="0 0 62 62" fill="none" xmlns="http://www.w3.org/2000/svg">
<path fill-rule="evenodd" clip-rule="evenodd" d="M43.6394 41.1371C43.6039 40.8947 43.6713 40.6486 43.8252 40.4581C46.944 36.6003 48.8112 31.691 48.8112 26.3432C48.8112 13.9344 38.7519 3.875 26.3431 3.875C13.9343 3.875 3.875 13.9344 3.875 26.3432C3.875 38.7521 13.9343 48.8115 26.3431 48.8115C31.691 48.8115 36.6004 46.9441 40.4583 43.8252C40.6487 43.6712 40.8949 43.6038 41.1372 43.6393C41.3796 43.6748 41.596 43.81 41.7343 44.0122C41.7907 44.0948 41.8559 44.1738 41.9302 44.2481L55.3269 57.6449C55.967 58.285 57.0048 58.285 57.6449 57.6449C58.285 57.0048 58.285 55.967 57.6449 55.3269L44.2482 41.9301C44.1739 41.8558 44.0949 41.7906 44.0123 41.7341C43.8101 41.5959 43.6749 41.3794 43.6394 41.1371ZM6.44413 24.8404C7.21247 14.5216 15.828 6.3884 26.3431 6.3884C36.8582 6.3884 45.4738 14.5216 46.2421 24.8404H34.4467C34.0485 24.8404 33.6858 25.0338 33.475 25.3407L30.8456 29.1685L26.8019 18.9643C26.457 18.0943 25.19 17.9875 24.7032 18.8144L21.1553 24.8404H6.44413ZM6.40057 27.0471H21.8354C22.2632 27.0471 22.6466 26.8245 22.8481 26.4824L25.5095 21.962L29.4803 31.9817C29.8112 32.8165 31.0116 32.9624 31.538 32.1961L35.0746 27.0471H46.2857C45.9149 37.7419 37.1282 46.2981 26.3431 46.2981C15.558 46.2981 6.77133 37.7419 6.40057 27.0471Z" fill="#00B288"/>
</svg>
