<svg width="224" height="214" viewBox="0 0 224 214" fill="none" xmlns="http://www.w3.org/2000/svg">
<defs>
<linearGradient id="paint0_linear_683_792" x1="112" y1="5" x2="112" y2="214" gradientUnits="userSpaceOnUse">
<stop stop-color="#04C598"/>
<stop offset="1" stop-color="#189A7C"/>
</linearGradient>
<linearGradient id="paint1_linear_683_792" x1="118.564" y1="203.587" x2="115.487" y2="15.6121" gradientUnits="userSpaceOnUse">
<stop stop-color="#4ACFA3" stop-opacity="0.33"/>
<stop offset="1" stop-color="#4ACFA3" stop-opacity="0.08"/>
</linearGradient>
<clipPath id="clip0_683_792">
<rect width="201" height="201" fill="white" transform="translate(17)"/>
</clipPath>
</defs>
<path fill-rule="evenodd" clip-rule="evenodd" d="M114.873 5.02497C142.645 5.86268 161.616 29.246 181.052 48.1656C200.169 66.7754 223.001 85.1937 223.964 111.218C224.947 137.804 205.774 160.204 185.886 178.876C166.18 197.377 142.324 216.911 114.873 213.638C88.7268 210.521 78.8711 181.005 59.6555 163.827C39.1708 145.514 3.6969 137.785 0.305987 111.218C-3.17183 83.9693 23.7169 63.1835 44.367 44.0427C64.6186 25.2714 86.6329 4.17316 114.873 5.02497Z" fill="url(#paint0_linear_683_792)"/>
<g clip-path="url(#clip0_683_792)">
<path d="M183.453 21.9844H161.469C160.636 21.9844 159.837 22.3153 159.248 22.9042C158.659 23.4932 158.328 24.2921 158.328 25.125V40.8281H76.6719V25.125C76.6719 24.2921 76.341 23.4932 75.752 22.9042C75.163 22.3153 74.3642 21.9844 73.5312 21.9844H51.5469C49.8816 21.9863 48.285 22.6487 47.1075 23.8262C45.9299 25.0038 45.2675 26.6003 45.2656 28.2656V191.578C45.2675 193.243 45.9299 194.84 47.1075 196.018C48.285 197.195 49.8816 197.857 51.5469 197.859H183.453C185.118 197.857 186.715 197.195 187.893 196.018C189.07 194.84 189.732 193.243 189.734 191.578V28.2656C189.732 26.6003 189.07 25.0038 187.893 23.8262C186.715 22.6487 185.118 21.9863 183.453 21.9844V21.9844Z" fill="#39C3FC"/>
<path d="M174.031 34.5469H161.469C160.636 34.5469 159.837 34.8778 159.248 35.4667C158.659 36.0557 158.328 36.8546 158.328 37.6875V40.8281H76.6719V37.6875C76.6719 36.8546 76.341 36.0557 75.752 35.4667C75.163 34.8778 74.3642 34.5469 73.5312 34.5469H60.9688C60.1358 34.5469 59.337 34.8778 58.748 35.4667C58.159 36.0557 57.8281 36.8546 57.8281 37.6875V182.156C57.8281 182.989 58.159 183.788 58.748 184.377C59.337 184.966 60.1358 185.297 60.9688 185.297H148.906L177.172 157.031C177.172 153.891 177.172 157.031 177.172 157.031V37.6875C177.172 36.8546 176.841 36.0557 176.252 35.4667C175.663 34.8778 174.864 34.5469 174.031 34.5469Z" fill="#EAEEF9"/>
<path d="M177.172 157.031H148.906V185.297L177.172 157.031Z" fill="#D3DDEF"/>
<path d="M164.609 21.9844H139.26C138.505 16.7521 135.889 11.9673 131.893 8.50662C127.896 5.04595 122.787 3.14111 117.5 3.14111C112.213 3.14111 107.104 5.04595 103.107 8.50662C99.111 11.9673 96.4953 16.7521 95.7396 21.9844H70.3906V43.9687C70.3906 44.8017 70.7215 45.6005 71.3105 46.1895C71.8995 46.7785 72.6983 47.1094 73.5312 47.1094H161.469C162.302 47.1094 163.101 46.7785 163.69 46.1895C164.278 45.6005 164.609 44.8017 164.609 43.9687V21.9844Z" fill="#2594EF"/>
<path d="M117.5 37.6875C124.438 37.6875 130.062 32.0631 130.062 25.125C130.062 18.1869 124.438 12.5625 117.5 12.5625C110.562 12.5625 104.938 18.1869 104.938 25.125C104.938 32.0631 110.562 37.6875 117.5 37.6875Z" fill="#1974D8"/>
<path d="M117.977 149C118.967 149.004 119.936 148.715 120.761 148.168C121.586 147.622 122.231 146.843 122.613 145.929C122.995 145.016 123.097 144.01 122.907 143.039C122.716 142.067 122.242 141.174 121.544 140.473C120.845 139.771 119.954 139.293 118.984 139.098C118.013 138.903 117.007 139.001 116.092 139.378C115.177 139.756 114.395 140.397 113.844 141.22C113.294 142.042 113 143.01 113 144C113.006 145.32 113.532 146.585 114.463 147.521C115.394 148.457 116.657 148.988 117.977 149V149Z" fill="#1974D8"/>
<path d="M100.316 95.5664C100.253 93.2854 100.647 91.0148 101.476 88.8889C102.305 86.7629 103.552 84.8247 105.143 83.1889C106.734 81.5531 108.637 80.2528 110.739 79.3649C112.841 78.477 115.099 78.0195 117.381 78.0195C119.663 78.0195 121.922 78.477 124.024 79.3649C126.126 80.2528 128.029 81.5531 129.62 83.1889C131.211 84.8247 132.457 86.7629 133.287 88.8889C134.116 91.0148 134.51 93.2854 134.446 95.5664C134.446 111.686 117.256 106.78 117.428 128.705" stroke="#1974D8" stroke-width="10" stroke-linecap="round"/>
<path fill-rule="evenodd" clip-rule="evenodd" d="M122.888 203.172C97.2094 202.835 71.1528 198.992 51.8225 181.888C31.5753 163.974 17.7351 138.106 18.6252 110.921C19.483 84.7196 35.8941 61.7457 56.2856 45.5639C74.1416 31.3943 97.6256 33.9312 120.06 30.4272C149.081 25.8945 182.628 2.52747 204.435 22.425C226.178 42.2642 206.201 78.2897 204.937 107.871C203.808 134.286 214.706 163.865 197.54 183.803C180.006 204.17 149.595 203.523 122.888 203.172Z" fill="url(#paint1_linear_683_792)"/>
</g>
<path d="M183.453 21.9844H161.469C160.636 21.9844 159.837 22.3153 159.248 22.9042C158.659 23.4932 158.328 24.2921 158.328 25.125V40.8281H76.6719V25.125C76.6719 24.2921 76.341 23.4932 75.752 22.9042C75.163 22.3153 74.3642 21.9844 73.5312 21.9844H51.5469C49.8816 21.9863 48.285 22.6487 47.1075 23.8262C45.9299 25.0038 45.2675 26.6003 45.2656 28.2656V191.578C45.2675 193.243 45.9299 194.84 47.1075 196.018C48.285 197.195 49.8816 197.857 51.5469 197.859H183.453C185.118 197.857 186.715 197.195 187.893 196.018C189.07 194.84 189.732 193.243 189.734 191.578V28.2656C189.732 26.6003 189.07 25.0038 187.893 23.8262C186.715 22.6487 185.118 21.9863 183.453 21.9844V21.9844Z" fill="#39C3FC"/>
<path d="M174.031 34.5469H161.469C160.636 34.5469 159.837 34.8778 159.248 35.4667C158.659 36.0557 158.328 36.8546 158.328 37.6875V40.8281H76.6719V37.6875C76.6719 36.8546 76.341 36.0557 75.752 35.4667C75.163 34.8778 74.3642 34.5469 73.5312 34.5469H60.9688C60.1358 34.5469 59.337 34.8778 58.748 35.4667C58.159 36.0557 57.8281 36.8546 57.8281 37.6875V182.156C57.8281 182.989 58.159 183.788 58.748 184.377C59.337 184.966 60.1358 185.297 60.9688 185.297H148.906L177.172 157.031C177.172 153.891 177.172 157.031 177.172 157.031V37.6875C177.172 36.8546 176.841 36.0557 176.252 35.4667C175.663 34.8778 174.864 34.5469 174.031 34.5469Z" fill="#EAEEF9"/>
<path d="M177.172 157.031H148.906V185.297L177.172 157.031Z" fill="#D3DDEF"/>
<path d="M164.609 21.9844H139.26C138.505 16.7521 135.889 11.9673 131.893 8.50662C127.896 5.04595 122.787 3.14111 117.5 3.14111C112.213 3.14111 107.104 5.04595 103.107 8.50662C99.111 11.9673 96.4953 16.7521 95.7396 21.9844H70.3906V43.9687C70.3906 44.8017 70.7215 45.6005 71.3105 46.1895C71.8995 46.7785 72.6983 47.1094 73.5312 47.1094H161.469C162.302 47.1094 163.101 46.7785 163.69 46.1895C164.278 45.6005 164.609 44.8017 164.609 43.9687V21.9844Z" fill="#2594EF"/>
<path d="M117.5 37.6875C124.438 37.6875 130.062 32.0631 130.062 25.125C130.062 18.1869 124.438 12.5625 117.5 12.5625C110.562 12.5625 104.938 18.1869 104.938 25.125C104.938 32.0631 110.562 37.6875 117.5 37.6875Z" fill="#1974D8"/>
</svg>
