<svg width="254" height="258" viewBox="0 0 254 258" fill="none" xmlns="http://www.w3.org/2000/svg">
<defs>
<linearGradient id="paint0_linear_469_1986" x1="125" y1="24" x2="125" y2="233" gradientUnits="userSpaceOnUse">
<stop stop-color="#04C598"/>
<stop offset="1" stop-color="#189A7C"/>
</linearGradient>
<linearGradient id="paint1_linear_469_1986" x1="212.742" y1="90.4833" x2="41.4671" y2="168" gradientUnits="userSpaceOnUse">
<stop stop-color="#4ACFA3" stop-opacity="0.33"/>
<stop offset="1" stop-color="#4ACFA3" stop-opacity="0.08"/>
</linearGradient>
</defs>
<path fill-rule="evenodd" clip-rule="evenodd" d="M127.873 24.025C155.645 24.8627 174.616 48.246 194.052 67.1656C213.169 85.7754 236.001 104.194 236.964 130.218C237.947 156.804 218.774 179.204 198.886 197.876C179.18 216.377 155.324 235.911 127.873 232.638C101.727 229.521 91.8711 200.005 72.6555 182.827C52.1708 164.514 16.6969 156.785 13.306 130.218C9.82817 102.969 36.7169 82.1835 57.367 63.0427C77.6186 44.2714 99.6329 23.1732 127.873 24.025Z" fill="url(#paint0_linear_469_1986)"/>
<path fill-rule="evenodd" clip-rule="evenodd" d="M210.643 86.68C220.537 110.378 227.364 135.817 219.35 160.352C210.956 186.05 192.718 209.029 167.417 219.015C143.032 228.639 115.429 222.708 92.4767 210.425C72.3786 199.67 65.3751 177.111 53.2452 157.917C37.5538 133.086 2.78094 111.587 12.3749 83.6685C21.9408 55.8321 62.9382 59.8498 90.5861 49.2552C115.275 39.7945 138.088 18.041 163.205 25.8707C188.862 33.8687 200.353 62.0326 210.643 86.68Z" fill="url(#paint1_linear_469_1986)"/>
<path d="M160.794 69.4375C158.445 69.4206 156.197 68.4743 154.544 66.8054C152.89 65.1365 151.964 62.8807 151.969 60.5312V54.5938C151.969 53.8064 151.656 53.0513 151.099 52.4945C150.542 51.9378 149.787 51.625 149 51.625H83.6875C82.9001 51.625 82.145 51.9378 81.5883 52.4945C81.0315 53.0513 80.7188 53.8064 80.7188 54.5938V60.5312C80.6834 62.9054 79.7155 65.1704 78.0241 66.8368C76.3327 68.5033 74.0536 69.4375 71.6792 69.4375C67.7643 69.4687 64.0206 71.0468 61.2648 73.8276C58.5089 76.6084 56.9646 80.3662 56.9688 84.2812V185.219C56.9734 189.154 58.5388 192.927 61.3215 195.71C64.1043 198.492 67.8771 200.058 71.8125 200.062H160.875C164.81 200.058 168.583 198.492 171.366 195.71C174.149 192.927 175.714 189.154 175.719 185.219V84.2812C175.679 80.3427 174.091 76.578 171.299 73.8005C168.506 71.023 164.733 69.4558 160.794 69.4375Z" fill="#EAEEF9"/>
<path d="M175.719 90.2188H56.9688V179.281H175.719V90.2188Z" fill="#DAE3F7"/>
<path d="M163.844 21.9375H68.8438C67.2042 21.9375 65.875 23.2667 65.875 24.9062V54.5938C65.875 56.2333 67.2042 57.5625 68.8438 57.5625H163.844C165.483 57.5625 166.812 56.2333 166.812 54.5938V24.9062C166.812 23.2667 165.483 21.9375 163.844 21.9375Z" fill="#DAE3F7"/>
<path d="M196.5 164.438C212.896 164.438 226.188 151.146 226.188 134.75C226.188 118.354 212.896 105.062 196.5 105.062C180.104 105.062 166.812 118.354 166.812 134.75C166.812 151.146 180.104 164.438 196.5 164.438Z" fill="#FB5968"/>
<path d="M116.344 48.6562C115.556 48.6562 114.801 48.3435 114.245 47.7867C113.688 47.23 113.375 46.4749 113.375 45.6875V33.8125C113.375 33.0251 113.688 32.27 114.245 31.7133C114.801 31.1565 115.556 30.8438 116.344 30.8438C117.131 30.8438 117.886 31.1565 118.443 31.7133C119 32.27 119.312 33.0251 119.312 33.8125V45.6875C119.312 46.4749 119 47.23 118.443 47.7867C117.886 48.3435 117.131 48.6562 116.344 48.6562Z" fill="#C3CFE5"/>
<path d="M104.469 48.6562C103.681 48.6562 102.926 48.3435 102.37 47.7867C101.813 47.23 101.5 46.4749 101.5 45.6875V33.8125C101.5 33.0251 101.813 32.27 102.37 31.7133C102.926 31.1565 103.681 30.8438 104.469 30.8438C105.256 30.8438 106.011 31.1565 106.568 31.7133C107.125 32.27 107.438 33.0251 107.438 33.8125V45.6875C107.438 46.4749 107.125 47.23 106.568 47.7867C106.011 48.3435 105.256 48.6562 104.469 48.6562Z" fill="#C3CFE5"/>
<path d="M92.5938 48.6562C91.8064 48.6562 91.0513 48.3435 90.4945 47.7867C89.9378 47.23 89.625 46.4749 89.625 45.6875V33.8125C89.625 33.0251 89.9378 32.27 90.4945 31.7133C91.0513 31.1565 91.8064 30.8438 92.5938 30.8438C93.3811 30.8438 94.1362 31.1565 94.693 31.7133C95.2497 32.27 95.5625 33.0251 95.5625 33.8125V45.6875C95.5625 46.4749 95.2497 47.23 94.693 47.7867C94.1362 48.3435 93.3811 48.6562 92.5938 48.6562Z" fill="#C3CFE5"/>
<path d="M80.7188 48.6562C79.9314 48.6562 79.1763 48.3435 78.6195 47.7867C78.0628 47.23 77.75 46.4749 77.75 45.6875V33.8125C77.75 33.0251 78.0628 32.27 78.6195 31.7133C79.1763 31.1565 79.9314 30.8438 80.7188 30.8438C81.5061 30.8438 82.2612 31.1565 82.818 31.7133C83.3747 32.27 83.6875 33.0251 83.6875 33.8125V45.6875C83.6875 46.4749 83.3747 47.23 82.818 47.7867C82.2612 48.3435 81.5061 48.6562 80.7188 48.6562Z" fill="#C3CFE5"/>
<path d="M128.219 48.6562C127.431 48.6562 126.676 48.3435 126.12 47.7867C125.563 47.23 125.25 46.4749 125.25 45.6875V33.8125C125.25 33.0251 125.563 32.27 126.12 31.7133C126.676 31.1565 127.431 30.8438 128.219 30.8438C129.006 30.8438 129.761 31.1565 130.318 31.7133C130.875 32.27 131.188 33.0251 131.188 33.8125V45.6875C131.188 46.4749 130.875 47.23 130.318 47.7867C129.761 48.3435 129.006 48.6562 128.219 48.6562Z" fill="#C3CFE5"/>
<path d="M140.094 48.6562C139.306 48.6562 138.551 48.3435 137.995 47.7867C137.438 47.23 137.125 46.4749 137.125 45.6875V33.8125C137.125 33.0251 137.438 32.27 137.995 31.7133C138.551 31.1565 139.306 30.8438 140.094 30.8438C140.881 30.8438 141.636 31.1565 142.193 31.7133C142.75 32.27 143.062 33.0251 143.062 33.8125V45.6875C143.062 46.4749 142.75 47.23 142.193 47.7867C141.636 48.3435 140.881 48.6562 140.094 48.6562Z" fill="#C3CFE5"/>
<path d="M151.969 48.6562C151.181 48.6562 150.426 48.3435 149.87 47.7867C149.313 47.23 149 46.4749 149 45.6875V33.8125C149 33.0251 149.313 32.27 149.87 31.7133C150.426 31.1565 151.181 30.8438 151.969 30.8438C152.756 30.8438 153.511 31.1565 154.068 31.7133C154.625 32.27 154.938 33.0251 154.938 33.8125V45.6875C154.938 46.4749 154.625 47.23 154.068 47.7867C153.511 48.3435 152.756 48.6562 151.969 48.6562Z" fill="#C3CFE5"/>
<path d="M196.5 164.437C202.372 164.44 208.112 162.701 212.995 159.44C217.878 156.178 221.684 151.542 223.93 146.117C226.177 140.692 226.763 134.722 225.615 128.964C224.468 123.205 221.637 117.917 217.482 113.768L175.518 155.732C178.27 158.493 181.54 160.684 185.14 162.178C188.741 163.672 192.602 164.44 196.5 164.437Z" fill="#E23B50"/>
<path d="M157.906 102.094H113.375C111.735 102.094 110.406 103.423 110.406 105.062V116.938C110.406 118.577 111.735 119.906 113.375 119.906H157.906C159.546 119.906 160.875 118.577 160.875 116.938V105.062C160.875 103.423 159.546 102.094 157.906 102.094Z" fill="#FB5968"/>
<path d="M157.906 131.781H113.375C112.588 131.781 111.833 131.468 111.276 130.912C110.719 130.355 110.406 129.6 110.406 128.812C110.406 128.025 110.719 127.27 111.276 126.713C111.833 126.157 112.588 125.844 113.375 125.844H157.906C158.694 125.844 159.449 126.157 160.005 126.713C160.562 127.27 160.875 128.025 160.875 128.812C160.875 129.6 160.562 130.355 160.005 130.912C159.449 131.468 158.694 131.781 157.906 131.781Z" fill="#FB5968"/>
<path d="M157.906 143.656H104.469C103.681 143.656 102.926 143.343 102.37 142.787C101.813 142.23 101.5 141.475 101.5 140.688C101.5 139.9 101.813 139.145 102.37 138.588C102.926 138.032 103.681 137.719 104.469 137.719H157.906C158.694 137.719 159.449 138.032 160.005 138.588C160.562 139.145 160.875 139.9 160.875 140.688C160.875 141.475 160.562 142.23 160.005 142.787C159.449 143.343 158.694 143.656 157.906 143.656Z" fill="#FB5968"/>
<path d="M157.906 155.531H71.8125C71.0251 155.531 70.27 155.218 69.7133 154.662C69.1565 154.105 68.8438 153.35 68.8438 152.562C68.8438 151.775 69.1565 151.02 69.7133 150.463C70.27 149.907 71.0251 149.594 71.8125 149.594H157.906C158.694 149.594 159.449 149.907 160.005 150.463C160.562 151.02 160.875 151.775 160.875 152.562C160.875 153.35 160.562 154.105 160.005 154.662C159.449 155.218 158.694 155.531 157.906 155.531Z" fill="#FB5968"/>
<path d="M143.062 167.406H71.8125C71.0251 167.406 70.27 167.093 69.7133 166.537C69.1565 165.98 68.8438 165.225 68.8438 164.438C68.8438 163.65 69.1565 162.895 69.7133 162.338C70.27 161.782 71.0251 161.469 71.8125 161.469H143.062C143.85 161.469 144.605 161.782 145.162 162.338C145.718 162.895 146.031 163.65 146.031 164.438C146.031 165.225 145.718 165.98 145.162 166.537C144.605 167.093 143.85 167.406 143.062 167.406Z" fill="#FB5968"/>
<path d="M101.5 113.969H92.5938V105.062C92.5938 104.275 92.281 103.52 91.7242 102.963C91.1675 102.407 90.4124 102.094 89.625 102.094H83.6875C82.9001 102.094 82.145 102.407 81.5883 102.963C81.0315 103.52 80.7188 104.275 80.7188 105.062V113.969H71.8125C71.0251 113.969 70.27 114.282 69.7133 114.838C69.1565 115.395 68.8438 116.15 68.8438 116.938V122.875C68.8438 123.662 69.1565 124.417 69.7133 124.974C70.27 125.531 71.0251 125.844 71.8125 125.844H80.7188V134.75C80.7188 135.537 81.0315 136.292 81.5883 136.849C82.145 137.406 82.9001 137.719 83.6875 137.719H89.625C90.4124 137.719 91.1675 137.406 91.7242 136.849C92.281 136.292 92.5938 135.537 92.5938 134.75V125.844H101.5C102.287 125.844 103.042 125.531 103.599 124.974C104.156 124.417 104.469 123.662 104.469 122.875V116.938C104.469 116.15 104.156 115.395 103.599 114.838C103.042 114.282 102.287 113.969 101.5 113.969Z" fill="#FB5968"/>
<path d="M220.25 158.5H172.75C167.238 158.5 161.953 160.689 158.055 164.587C154.158 168.484 151.969 173.77 151.969 179.281C151.969 184.793 154.158 190.079 158.055 193.976C161.953 197.873 167.238 200.062 172.75 200.062H220.25C225.762 200.062 231.047 197.873 234.945 193.976C238.842 190.079 241.031 184.793 241.031 179.281C241.031 173.77 238.842 168.484 234.945 164.587C231.047 160.689 225.762 158.5 220.25 158.5Z" fill="#39C3FC"/>
<path d="M196.5 200.062H220.25C225.762 200.062 231.047 197.873 234.945 193.976C238.842 190.079 241.031 184.793 241.031 179.281C241.031 173.77 238.842 168.484 234.945 164.587C231.047 160.689 225.762 158.5 220.25 158.5H196.5V200.062Z" fill="#2594EF"/>
</svg>
