<svg width="280" height="280" viewBox="0 0 280 280" fill="none" xmlns="http://www.w3.org/2000/svg">
    <defs>
        <linearGradient id="paint0_linear_9541_26606" x1="140" y1="35" x2="140" y2="244"
            gradientUnits="userSpaceOnUse">
            <stop stop-color="#04C598" />
            <stop offset="1" stop-color="#189A7C" />
        </linearGradient>
        <linearGradient id="paint1_linear_9541_26606" x1="150" y1="51" x2="150" y2="228"
            gradientUnits="userSpaceOnUse">
            <stop stop-color="#4ACFA3" stop-opacity="0.33" />
            <stop offset="1" stop-color="#4ACFA3" stop-opacity="0.08" />
        </linearGradient>
    </defs>
    <path fill-rule="evenodd" clip-rule="evenodd"
        d="M142.873 35.025C170.645 35.8627 189.616 59.246 209.052 78.1656C228.169 96.7754 251.001 115.194 251.964 141.218C252.947 167.804 233.774 190.204 213.886 208.876C194.18 227.377 170.324 246.911 142.873 243.638C116.727 240.521 106.871 211.005 87.6555 193.827C67.1708 175.514 31.6969 167.785 28.306 141.218C24.8282 113.969 51.7169 93.1835 72.367 74.0427C92.6186 55.2714 114.633 34.1732 142.873 35.025Z"
        fill="url(#paint0_linear_9541_26606)" />
    <path fill-rule="evenodd" clip-rule="evenodd"
        d="M145.868 51.3237C170.364 52.037 195.167 56.0565 213.345 72.4549C232.385 89.631 245.187 114.195 243.913 139.772C242.685 164.424 226.667 185.798 206.957 200.717C189.697 213.78 167.329 211.03 145.868 213.983C118.105 217.803 85.7307 239.283 65.2332 220.216C44.7959 201.205 64.4209 167.6 66.0889 139.772C67.5783 114.923 57.642 86.9114 74.3327 68.4069C91.3821 49.5046 120.39 50.5817 145.868 51.3237Z"
        fill="url(#paint1_linear_9541_26606)" />
    <path
        d="M221.998 203.198L174.77 156.21C174.182 155.657 173.403 155.348 172.594 155.348C171.784 155.348 171.006 155.657 170.417 156.21L145.792 180.71C145.507 180.994 145.28 181.332 145.125 181.703C144.97 182.075 144.891 182.473 144.891 182.875C144.891 183.277 144.97 183.675 145.125 184.047C145.28 184.418 145.507 184.756 145.792 185.04L193.019 232.028C194.919 233.935 197.178 235.449 199.668 236.484C202.157 237.52 204.828 238.056 207.526 238.062C210.224 238.067 212.897 237.543 215.391 236.518C217.885 235.494 220.151 233.989 222.059 232.091C223.967 230.193 225.48 227.938 226.51 225.457C227.54 222.976 228.067 220.316 228.061 217.632C228.055 214.947 227.517 212.29 226.476 209.813C225.436 207.337 223.914 205.089 221.998 203.198Z"
        fill="#DAE3F7" />
    <path
        d="M159.379 147.022L144.266 131.985C143.94 131.657 143.543 131.408 143.106 131.256C142.668 131.104 142.202 131.053 141.742 131.108C141.282 131.16 140.84 131.314 140.448 131.56C140.057 131.806 139.726 132.136 139.481 132.527C135.043 139.565 129.063 145.514 121.989 149.929C121.597 150.174 121.265 150.503 121.018 150.892C120.771 151.282 120.616 151.722 120.564 152.179C120.511 152.637 120.564 153.1 120.716 153.535C120.869 153.97 121.118 154.365 121.445 154.691L136.559 169.727C136.844 170.012 137.184 170.237 137.557 170.391C137.931 170.545 138.331 170.625 138.735 170.625C139.139 170.625 139.539 170.545 139.913 170.391C140.286 170.237 140.626 170.012 140.911 169.727L159.38 151.352C159.666 151.068 159.893 150.731 160.047 150.359C160.202 149.988 160.282 149.589 160.282 149.187C160.281 148.785 160.202 148.387 160.047 148.015C159.892 147.644 159.665 147.307 159.379 147.022V147.022Z"
        fill="#DAE3F7" />
    <path
        d="M92.5625 164.5C126.563 164.5 154.125 137.077 154.125 103.25C154.125 69.4226 126.563 42 92.5625 42C58.5625 42 31 69.4226 31 103.25C31 137.077 58.5625 164.5 92.5625 164.5Z"
        fill="#DAE3F7" />
    <path
        d="M92.5625 152.25C119.763 152.25 141.812 130.312 141.812 103.25C141.812 76.188 119.763 54.25 92.5625 54.25C65.3625 54.25 43.3125 76.188 43.3125 103.25C43.3125 130.312 65.3625 152.25 92.5625 152.25Z"
        fill="white" />
    <path
        d="M93.6685 142.98C94.6583 142.985 95.6273 142.696 96.4525 142.149C97.2778 141.602 97.9222 140.823 98.3042 139.91C98.6861 138.997 98.7884 137.991 98.5981 137.019C98.4078 136.048 97.9334 135.155 97.2351 134.453C96.5367 133.752 95.6459 133.273 94.6753 133.078C93.7048 132.883 92.6983 132.981 91.7833 133.359C90.8684 133.737 90.0861 134.377 89.5357 135.2C88.9853 136.023 88.6914 136.991 88.6914 137.98C88.6974 139.301 89.223 140.566 90.1544 141.501C91.0858 142.437 92.3482 142.968 93.6685 142.98Z"
        fill="#6CC4EA" />
    <path fill-rule="evenodd" clip-rule="evenodd"
        d="M93.0718 77C91.4582 77 89.861 77.3235 88.3746 77.9513C86.8882 78.5792 85.5428 79.4986 84.4178 80.6553C83.2928 81.8121 82.4111 83.1826 81.8249 84.6859C81.2387 86.1892 80.9598 87.7948 81.0047 89.4077C81.0815 92.1681 78.9061 94.4681 76.1458 94.5449C73.3854 94.6218 71.0854 92.4464 71.0085 89.686C70.9264 86.737 71.4364 83.8014 72.5083 81.0527C73.5801 78.3041 75.1921 75.7983 77.249 73.6834C79.3059 71.5684 81.7659 69.8873 84.4836 68.7394C87.2013 67.5914 90.1216 67 93.0718 67C96.022 67 98.9422 67.5914 101.66 68.7394C104.378 69.8873 106.838 71.5684 108.895 73.6834C110.951 75.7983 112.563 78.3041 113.635 81.0527C114.699 83.7794 115.209 86.6901 115.137 89.6154C115.124 94.6324 113.737 98.3919 111.456 101.438C109.691 103.797 107.388 105.657 105.611 107.092C105.305 107.339 105.015 107.573 104.746 107.796C102.729 109.46 101.199 110.917 100.082 112.942C98.9881 114.922 98.0802 117.844 98.1179 122.646C98.1395 125.408 95.9186 127.664 93.1573 127.685C90.3959 127.707 88.1399 125.486 88.1182 122.725C88.0699 116.564 89.2464 111.877 91.3276 108.108C93.3849 104.382 96.1208 101.948 98.3805 100.083C98.7872 99.7472 99.1672 99.4373 99.5235 99.1467C101.307 97.6927 102.493 96.7247 103.451 95.4458C104.378 94.2071 105.137 92.5554 105.137 89.5469V89.4773L105.139 89.4077C105.184 87.7948 104.905 86.1892 104.319 84.6859C103.732 83.1826 102.851 81.8121 101.726 80.6553C100.601 79.4986 99.2553 78.5792 97.7689 77.9513C96.2825 77.3235 94.6853 77 93.0718 77Z"
        fill="#6CC4EA" />
    <path
        d="M180.926 150.085L168.614 137.835C168.328 137.55 167.989 137.325 167.615 137.171C167.242 137.017 166.842 136.937 166.437 136.937C166.033 136.937 165.633 137.017 165.26 137.171C164.886 137.325 164.547 137.55 164.261 137.835L127.324 174.585C127.038 174.869 126.811 175.207 126.656 175.578C126.501 175.95 126.422 176.348 126.422 176.75C126.422 177.152 126.501 177.55 126.656 177.922C126.811 178.293 127.038 178.631 127.324 178.915L139.636 191.165C139.922 191.45 140.261 191.675 140.635 191.829C141.008 191.983 141.408 192.062 141.813 192.062C142.217 192.062 142.617 191.983 142.99 191.829C143.364 191.675 143.703 191.45 143.989 191.165L180.926 154.415C181.212 154.131 181.439 153.793 181.594 153.422C181.749 153.05 181.828 152.652 181.828 152.25C181.828 151.848 181.749 151.45 181.594 151.078C181.439 150.707 181.212 150.369 180.926 150.085V150.085Z"
        fill="#EAEEF9" />
    <path
        d="M207.508 231.875C205.625 231.88 203.759 231.514 202.019 230.797C200.279 230.08 198.7 229.026 197.372 227.697C197.079 227.414 196.846 227.076 196.685 226.703C196.525 226.329 196.44 225.928 196.437 225.522C196.434 225.116 196.512 224.713 196.667 224.337C196.822 223.962 197.05 223.62 197.339 223.333C197.627 223.046 197.971 222.819 198.348 222.665C198.726 222.511 199.131 222.433 199.539 222.436C199.947 222.439 200.35 222.523 200.726 222.683C201.101 222.843 201.441 223.075 201.725 223.366C203.283 224.846 205.354 225.672 207.508 225.672C209.662 225.672 211.734 224.846 213.292 223.366C213.576 223.074 213.915 222.841 214.291 222.68C214.666 222.52 215.07 222.435 215.479 222.432C215.888 222.428 216.293 222.506 216.671 222.66C217.05 222.814 217.393 223.041 217.682 223.329C217.971 223.616 218.2 223.958 218.355 224.334C218.51 224.711 218.587 225.114 218.584 225.521C218.58 225.927 218.495 226.329 218.334 226.703C218.173 227.076 217.938 227.414 217.644 227.697C216.317 229.026 214.737 230.079 212.997 230.797C211.257 231.514 209.392 231.88 207.508 231.875V231.875Z"
        fill="#C3CFE5" />
</svg>
