<svg width="198" height="185" viewBox="0 0 198 185" fill="none" xmlns="http://www.w3.org/2000/svg">
    <defs>
        <linearGradient id="paint0_linear_7388_13874" x1="104.491" y1="8.5824" x2="104.491"
            y2="164.002" gradientUnits="userSpaceOnUse">
            <stop stop-color="#4ACFA3" stop-opacity="0.33" />
            <stop offset="1" stop-color="#4ACFA3" stop-opacity="0.08" />
        </linearGradient>
        <linearGradient id="paint1_linear_7388_13874" x1="98.7157" y1="0.733704" x2="98.7157"
            y2="184.251" gradientUnits="userSpaceOnUse">
            <stop stop-color="#04C598" />
            <stop offset="1" stop-color="#189A7C" />
        </linearGradient>
    </defs>
    <path fill-rule="evenodd" clip-rule="evenodd"
        d="M100.862 8.86659C122.372 9.49296 144.151 13.0224 160.112 27.4214C176.831 42.5033 188.072 64.0723 186.953 86.5311C185.875 108.177 171.81 126.945 154.503 140.045C139.348 151.516 119.707 149.101 100.862 151.694C76.4847 155.048 48.0576 173.909 30.0593 157.166C12.1138 140.473 29.346 110.966 30.8106 86.5311C32.1185 64.7118 23.3936 40.1153 38.0493 23.8669C53.02 7.26934 78.4908 8.21514 100.862 8.86659Z"
        fill="url(#paint0_linear_7388_13874)" />
    <path fill-rule="evenodd" clip-rule="evenodd"
        d="M101.238 0.755631C125.625 1.4912 142.282 22.0235 159.348 38.6363C176.135 54.9771 196.183 71.1497 197.028 94.0008C197.892 117.346 181.057 137.014 163.593 153.41C146.29 169.655 125.343 186.807 101.238 183.934C78.2801 181.197 69.6261 155.279 52.7533 140.195C34.7662 124.115 3.61755 117.329 0.640078 94.0008C-2.4137 70.0746 21.1966 51.8231 39.329 35.0161C57.1113 18.5335 76.4416 0.00768024 101.238 0.755631Z"
        fill="url(#paint1_linear_7388_13874)" />
    <path
        d="M167.71 142.224L126.241 100.965C125.724 100.479 125.04 100.208 124.33 100.208C123.619 100.208 122.935 100.479 122.419 100.965L100.796 122.477C100.545 122.727 100.346 123.023 100.21 123.35C100.074 123.676 100.004 124.025 100.004 124.379C100.004 124.732 100.074 125.081 100.21 125.408C100.346 125.734 100.545 126.03 100.796 126.28L142.265 167.539C143.933 169.213 145.917 170.542 148.103 171.452C150.289 172.361 152.634 172.831 155.003 172.837C157.372 172.842 159.719 172.381 161.909 171.481C164.099 170.582 166.089 169.261 167.764 167.594C169.44 165.927 170.768 163.948 171.672 161.769C172.576 159.59 173.039 157.255 173.034 154.898C173.029 152.541 172.556 150.207 171.643 148.033C170.729 145.858 169.393 143.884 167.71 142.224Z"
        fill="#DAE3F7" />
    <path
        d="M112.727 92.8972L99.4557 79.6937C99.1697 79.4057 98.8214 79.1865 98.4373 79.0529C98.0531 78.9193 97.6434 78.8749 97.2394 78.923C96.8356 78.9687 96.4474 79.1045 96.1037 79.3203C95.76 79.5361 95.4697 79.8262 95.2544 80.1691C91.3574 86.349 86.1069 91.5727 79.8954 95.4497C79.5508 95.6642 79.2593 95.9532 79.0426 96.2953C78.8259 96.6374 78.6895 97.0237 78.6435 97.4254C78.5976 97.8272 78.6433 98.2341 78.7773 98.6159C78.9114 98.9977 79.1302 99.3444 79.4175 99.6304L92.6884 112.834C92.9392 113.084 93.2371 113.282 93.565 113.417C93.8929 113.552 94.2443 113.622 94.5992 113.622C94.9542 113.622 95.3056 113.552 95.6335 113.417C95.9614 113.282 96.2593 113.084 96.5101 112.834L112.727 96.6993C112.978 96.4497 113.177 96.1533 113.313 95.8271C113.449 95.5009 113.519 95.1512 113.519 94.7981C113.519 94.445 113.449 94.0954 113.313 93.7692C113.177 93.443 112.978 93.1467 112.727 92.8972Z"
        fill="#DAE3F7" />
    <path
        d="M54.0564 108.244C83.911 108.244 108.113 84.1647 108.113 54.4617C108.113 24.7587 83.911 0.679688 54.0564 0.679688C24.2019 0.679688 0 24.7587 0 54.4617C0 84.1647 24.2019 108.244 54.0564 108.244Z"
        fill="#DAE3F7" />
    <path
        d="M54.0564 97.4874C77.9401 97.4874 97.3016 78.2241 97.3016 54.4617C97.3016 30.6993 77.9401 11.4361 54.0564 11.4361C30.1728 11.4361 10.8113 30.6993 10.8113 54.4617C10.8113 78.2241 30.1728 97.4874 54.0564 97.4874Z"
        fill="white" />
    <path
        d="M131.646 95.5863L120.835 84.8299C120.584 84.5801 120.286 84.3819 119.958 84.2467C119.63 84.1115 119.279 84.0419 118.924 84.0419C118.569 84.0419 118.218 84.1115 117.89 84.2467C117.562 84.3819 117.264 84.5801 117.013 84.8299L84.5794 117.099C84.3283 117.349 84.1291 117.645 83.9932 117.971C83.8573 118.297 83.7874 118.647 83.7874 119C83.7874 119.353 83.8573 119.703 83.9932 120.029C84.1291 120.356 84.3283 120.652 84.5794 120.901L95.3907 131.658C95.6415 131.908 95.9394 132.106 96.2673 132.241C96.5952 132.376 96.9466 132.446 97.3015 132.446C97.6565 132.446 98.0079 132.376 98.3358 132.241C98.6637 132.106 98.9616 131.908 99.2124 131.658L131.646 99.3887C131.897 99.1391 132.097 98.8427 132.232 98.5165C132.368 98.1903 132.438 97.8406 132.438 97.4875C132.438 97.1343 132.368 96.7847 132.232 96.4585C132.097 96.1322 131.897 95.8359 131.646 95.5863Z"
        fill="#EAEEF9" />
    <path
        d="M154.987 167.404C153.334 167.409 151.695 167.087 150.168 166.457C148.64 165.828 147.253 164.902 146.087 163.735C145.83 163.487 145.625 163.19 145.484 162.863C145.343 162.535 145.269 162.182 145.266 161.826C145.263 161.469 145.332 161.116 145.468 160.786C145.604 160.456 145.804 160.156 146.058 159.904C146.311 159.652 146.613 159.452 146.944 159.317C147.276 159.182 147.631 159.114 147.99 159.116C148.348 159.119 148.702 159.193 149.032 159.333C149.361 159.473 149.659 159.677 149.909 159.933C151.277 161.233 153.096 161.958 154.987 161.958C156.879 161.958 158.698 161.233 160.066 159.933C160.315 159.676 160.613 159.471 160.943 159.33C161.273 159.189 161.627 159.115 161.986 159.112C162.345 159.109 162.701 159.177 163.033 159.312C163.365 159.448 163.667 159.647 163.921 159.9C164.175 160.152 164.375 160.452 164.511 160.783C164.647 161.113 164.716 161.467 164.712 161.825C164.709 162.182 164.635 162.534 164.493 162.863C164.351 163.191 164.146 163.487 163.887 163.735C162.722 164.902 161.335 165.828 159.807 166.457C158.279 167.087 156.641 167.409 154.987 167.404Z"
        fill="#C3CFE5" />
    <path fill-rule="evenodd" clip-rule="evenodd"
        d="M44.4499 79.8436C43.638 79.8436 43.0106 79.2531 42.9736 78.4412L41.2021 44.0071L36.884 60.2092C36.6995 60.8366 36.109 61.2795 35.4446 61.2795H26.4763C24.5202 61.2795 24.5202 58.3269 26.4763 58.3269H34.3374L40.7961 34.2268C41.2021 32.6029 43.6011 32.8612 43.7118 34.522L45.4464 68.993L48.1775 58.8067C48.362 58.1793 48.9526 57.7364 49.6169 57.7364H53.2707L55.8172 48.3621C56.1863 46.8858 58.3269 46.9227 58.6591 48.4359L61.9069 63.3463L65.1916 54.6363C65.413 54.0457 65.9666 53.6767 66.594 53.6767H86.5237C88.4429 53.6767 88.4429 56.6292 86.5237 56.6292H67.5905L62.9033 69.0668C62.3867 70.4324 60.3937 70.2848 60.0615 68.8454L57.0721 54.9684L55.8172 59.5818C55.6327 60.2092 55.0791 60.689 54.4148 60.689H50.7241L45.8524 78.7733C45.7048 79.4008 45.1142 79.8436 44.4499 79.8436Z"
        fill="#FB5968" />
</svg>
