<svg width="280" height="281" viewBox="0 0 280 281" fill="none" xmlns="http://www.w3.org/2000/svg">
<path fill-rule="evenodd" clip-rule="evenodd" d="M141.863 57.3666C163.373 57.993 185.151 61.5224 201.113 75.9214C217.831 91.0033 229.072 112.572 227.953 135.031C226.875 156.677 212.81 175.445 195.503 188.545C180.348 200.016 160.707 197.601 141.863 200.194C117.485 203.548 89.0579 222.409 71.0596 205.666C53.1141 188.973 70.3463 159.466 71.8109 135.031C73.1188 113.212 64.3939 88.6153 79.0496 72.3669C94.0203 55.7693 119.491 56.7151 141.863 57.3666Z" fill="url(#paint0_linear_1199_34092)"/>
<path fill-rule="evenodd" clip-rule="evenodd" d="M142.238 49.2556C166.624 49.9912 183.282 70.5235 200.348 87.1363C217.135 103.477 237.183 119.65 238.028 142.501C238.891 165.846 222.056 185.514 204.593 201.91C187.29 218.155 166.342 235.307 142.238 232.434C119.28 229.697 110.626 203.779 93.753 188.695C75.7659 172.615 44.6172 165.829 41.6398 142.501C38.586 118.575 62.1963 100.323 80.3286 83.5161C98.111 67.0335 117.441 48.5077 142.238 49.2556Z" fill="url(#paint1_linear_1199_34092)"/>
<path d="M208.71 190.724L167.24 149.465C166.724 148.979 166.04 148.708 165.329 148.708C164.619 148.708 163.935 148.979 163.418 149.465L141.796 170.977C141.545 171.227 141.346 171.523 141.21 171.85C141.074 172.176 141.004 172.525 141.004 172.879C141.004 173.232 141.074 173.581 141.21 173.908C141.346 174.234 141.545 174.53 141.796 174.78L183.265 216.039C184.933 217.713 186.917 219.042 189.102 219.952C191.288 220.861 193.633 221.331 196.003 221.336C198.372 221.342 200.719 220.881 202.909 219.981C205.099 219.082 207.088 217.761 208.764 216.094C210.439 214.427 211.767 212.447 212.672 210.269C213.576 208.09 214.039 205.755 214.034 203.398C214.029 201.04 213.556 198.707 212.642 196.533C211.729 194.358 210.392 192.384 208.71 190.724Z" fill="#DAE3F7"/>
<path d="M153.726 141.397L140.455 128.194C140.169 127.906 139.821 127.686 139.437 127.553C139.053 127.419 138.643 127.375 138.239 127.423C137.835 127.469 137.447 127.605 137.103 127.82C136.76 128.036 136.469 128.326 136.254 128.669C132.357 134.849 127.107 140.073 120.895 143.95C120.551 144.164 120.259 144.453 120.042 144.795C119.826 145.137 119.689 145.524 119.643 145.925C119.597 146.327 119.643 146.734 119.777 147.116C119.911 147.498 120.13 147.844 120.417 148.13L133.688 161.334C133.939 161.584 134.237 161.782 134.565 161.917C134.893 162.052 135.244 162.122 135.599 162.122C135.954 162.122 136.305 162.052 136.633 161.917C136.961 161.782 137.259 161.584 137.51 161.334L153.727 145.199C153.978 144.95 154.177 144.653 154.313 144.327C154.449 144.001 154.518 143.651 154.518 143.298C154.518 142.945 154.448 142.595 154.312 142.269C154.177 141.943 153.977 141.647 153.726 141.397Z" fill="#DAE3F7"/>
<path d="M95.0564 156.744C124.911 156.744 149.113 132.665 149.113 102.962C149.113 73.2587 124.911 49.1797 95.0564 49.1797C65.2019 49.1797 41 73.2587 41 102.962C41 132.665 65.2019 156.744 95.0564 156.744Z" fill="#DAE3F7"/>
<path d="M95.0567 145.987C118.94 145.987 138.302 126.724 138.302 102.962C138.302 79.1993 118.94 59.9361 95.0567 59.9361C71.173 59.9361 51.8115 79.1993 51.8115 102.962C51.8115 126.724 71.173 145.987 95.0567 145.987Z" fill="white"/>
<path d="M172.646 144.086L161.835 133.33C161.584 133.08 161.286 132.882 160.958 132.747C160.63 132.611 160.279 132.542 159.924 132.542C159.569 132.542 159.217 132.611 158.89 132.747C158.562 132.882 158.264 133.08 158.013 133.33L125.579 165.599C125.328 165.849 125.129 166.145 124.993 166.471C124.857 166.797 124.787 167.147 124.787 167.5C124.787 167.853 124.857 168.203 124.993 168.529C125.129 168.856 125.328 169.152 125.579 169.401L136.39 180.158C136.641 180.408 136.939 180.606 137.267 180.741C137.595 180.876 137.946 180.946 138.301 180.946C138.656 180.946 139.008 180.876 139.336 180.741C139.663 180.606 139.961 180.408 140.212 180.158L172.646 147.889C172.897 147.639 173.096 147.343 173.232 147.016C173.368 146.69 173.438 146.341 173.438 145.987C173.438 145.634 173.368 145.285 173.232 144.958C173.096 144.632 172.897 144.336 172.646 144.086Z" fill="#EAEEF9"/>
<path d="M195.987 215.904C194.333 215.909 192.695 215.587 191.167 214.957C189.639 214.328 188.252 213.402 187.086 212.235C186.829 211.987 186.624 211.69 186.483 211.363C186.342 211.035 186.268 210.682 186.266 210.326C186.263 209.969 186.332 209.616 186.467 209.286C186.603 208.956 186.804 208.656 187.057 208.404C187.311 208.152 187.612 207.952 187.944 207.817C188.275 207.682 188.631 207.614 188.989 207.616C189.347 207.619 189.702 207.693 190.031 207.833C190.361 207.973 190.659 208.177 190.909 208.433C192.277 209.733 194.095 210.458 195.987 210.458C197.878 210.458 199.697 209.733 201.065 208.433C201.315 208.176 201.613 207.971 201.943 207.83C202.272 207.689 202.627 207.615 202.986 207.612C203.345 207.609 203.701 207.677 204.033 207.812C204.365 207.948 204.667 208.147 204.92 208.4C205.174 208.652 205.375 208.952 205.511 209.283C205.647 209.613 205.715 209.967 205.712 210.325C205.709 210.682 205.634 211.034 205.493 211.363C205.351 211.691 205.145 211.987 204.887 212.235C203.721 213.402 202.334 214.328 200.807 214.957C199.279 215.587 197.641 215.909 195.987 215.904Z" fill="#C3CFE5"/>
<path fill-rule="evenodd" clip-rule="evenodd" d="M85.4495 128.344C84.6375 128.344 84.0101 127.753 83.9732 126.941L82.2017 92.507L77.8836 108.709C77.699 109.337 77.1085 109.779 76.4442 109.779H67.4758C65.5198 109.779 65.5198 106.827 67.4758 106.827H75.337L81.7957 82.7267C82.2017 81.1028 84.6006 81.3611 84.7113 83.022L86.446 117.493L89.1771 107.307C89.3616 106.679 89.9521 106.236 90.6164 106.236H94.2702L96.8168 96.862C97.1859 95.3858 99.3265 95.4227 99.6586 96.9358L102.906 111.846L106.191 103.136C106.413 102.546 106.966 102.177 107.594 102.177H127.523C129.442 102.177 129.442 105.129 127.523 105.129H108.59L103.903 117.567C103.386 118.932 101.393 118.785 101.061 117.345L98.0716 103.468L96.8168 108.082C96.6323 108.709 96.0787 109.189 95.4143 109.189H91.7236L86.8519 127.273C86.7043 127.901 86.1138 128.344 85.4495 128.344Z" fill="#FB5968"/>

<linearGradient id="paint0_linear_1199_34092" x1="145.491" y1="57.0824" x2="145.491" y2="212.502" gradientUnits="userSpaceOnUse">
<stop stop-color="#4ACFA3" stop-opacity="0.33"/>
<stop offset="1" stop-color="#4ACFA3" stop-opacity="0.08"/>
</linearGradient>
<linearGradient id="paint1_linear_1199_34092" x1="139.715" y1="49.2337" x2="139.715" y2="232.751" gradientUnits="userSpaceOnUse">
<stop stop-color="#04C598"/>
<stop offset="1" stop-color="#189A7C"/>
</linearGradient>
</svg>
