<svg width="137" height="137" viewBox="0 0 137 137" fill="none" xmlns="http://www.w3.org/2000/svg">
    <path d="M2.5 59.65C2.5 91.16 28.13 116.8 59.65 116.8C91.16 116.8 116.8 91.17 116.8 59.65C116.8 28.13 91.16 2.5 59.64 2.5C28.13 2.5 2.5 28.13 2.5 59.65Z" stroke="#006A51" stroke-width="5"/>
    <path d="M59.6504 93.96C61.0311 93.96 62.1504 92.8407 62.1504 91.46C62.1504 90.0793 61.0311 88.96 59.6504 88.96C58.2697 88.96 57.1504 90.0793 57.1504 91.46C57.1504 92.8407 58.2697 93.96 59.6504 93.96Z" fill="#006A51"/>
    <path d="M41.1699 43.83C41.1699 33.62 49.4499 25.34 59.6599 25.34C69.8699 25.34 78.1399 33.63 78.1399 43.83C78.1399 61.28 59.5799 55.97 59.7099 79.71" stroke="#006A51" stroke-width="5" stroke-linecap="round"/>
    <path d="M97.4902 101.03L112.32 115.86C112.37 115.91 112.41 115.95 112.48 115.99C112.53 116.04 112.56 116.1 112.61 116.15L117.74 121.28L127.44 130.98L132.57 136.11C133.6 137.14 135.21 137.16 136.18 136.19C137.18 135.23 137.13 133.61 136.1 132.58L130.97 127.45L121.27 117.75L116.14 112.62C116.09 112.57 116.05 112.53 115.98 112.49C115.93 112.44 115.9 112.38 115.85 112.33L101.02 97.5" fill="#006A51"/>
</svg>
