<svg width="225" height="210" viewBox="0 0 225 210" fill="none" xmlns="http://www.w3.org/2000/svg">
<defs>
<linearGradient id="paint0_linear_1726_28121" x1="119.469" y1="9" x2="119.469" y2="186" gradientUnits="userSpaceOnUse">
<stop stop-color="#4ACFA3" stop-opacity="0.33"/>
<stop offset="1" stop-color="#4ACFA3" stop-opacity="0.08"/>
</linearGradient>
<linearGradient id="paint1_linear_1726_28121" x1="112.892" y1="0.0615234" x2="112.892" y2="209.062" gradientUnits="userSpaceOnUse">
<stop stop-color="#04C598"/>
<stop offset="1" stop-color="#189A7C"/>
</linearGradient>
</defs>
<path fill-rule="evenodd" clip-rule="evenodd" d="M115.337 9.32365C139.834 10.037 164.637 14.0565 182.814 30.4549C201.854 47.631 214.656 72.195 213.382 97.7724C212.154 122.424 196.136 143.798 176.426 158.717C159.167 171.78 136.798 169.03 115.337 171.983C87.5745 175.803 55.2001 197.283 34.7026 178.216C14.2653 159.205 33.8903 125.6 35.5583 97.7724C37.0478 72.9234 27.1114 44.9114 43.8021 26.4069C60.8515 7.50462 89.8591 8.58174 115.337 9.32365Z" fill="url(#paint0_linear_1726_28121)"/>
<path fill-rule="evenodd" clip-rule="evenodd" d="M115.765 0.0864956C143.538 0.924201 162.508 24.3075 181.944 43.2271C201.062 61.837 223.894 80.2552 224.856 106.279C225.839 132.866 206.667 155.265 186.778 173.938C167.073 192.439 143.217 211.973 115.765 208.7C89.6192 205.583 79.7635 176.067 60.5479 158.888C40.0632 140.575 4.5893 132.847 1.19838 106.279C-2.27944 79.0309 24.6093 58.245 45.2594 39.1042C65.511 20.3329 87.5253 -0.765313 115.765 0.0864956Z" fill="url(#paint1_linear_1726_28121)"/>
<path d="M191.467 161.199L144.239 114.21C143.651 113.657 142.873 113.349 142.063 113.349C141.254 113.349 140.475 113.657 139.887 114.21L115.262 138.71C114.976 138.994 114.749 139.332 114.594 139.703C114.44 140.075 114.36 140.473 114.36 140.875C114.36 141.277 114.44 141.676 114.594 142.047C114.749 142.419 114.976 142.756 115.262 143.04L162.489 190.028C164.388 191.935 166.648 193.449 169.137 194.485C171.627 195.52 174.297 196.056 176.996 196.062C179.694 196.068 182.367 195.543 184.861 194.519C187.355 193.494 189.621 191.989 191.529 190.091C193.437 188.193 194.949 185.938 195.979 183.457C197.009 180.976 197.536 178.317 197.531 175.632C197.525 172.948 196.986 170.291 195.946 167.814C194.905 165.337 193.383 163.089 191.467 161.199Z" fill="#DAE3F7"/>
<path d="M128.849 105.022L113.735 89.9856C113.41 89.6575 113.013 89.4079 112.575 89.2558C112.138 89.1037 111.671 89.0531 111.211 89.1079C110.751 89.1599 110.309 89.3146 109.918 89.5603C109.526 89.8061 109.196 90.1365 108.951 90.527C104.512 97.565 98.5329 103.514 91.4588 107.929C91.0664 108.174 90.7345 108.503 90.4876 108.892C90.2408 109.282 90.0854 109.722 90.0331 110.179C89.9808 110.637 90.0329 111.1 90.1855 111.535C90.3382 111.97 90.5873 112.365 90.9146 112.691L106.028 127.728C106.314 128.012 106.653 128.238 107.027 128.392C107.4 128.546 107.8 128.625 108.204 128.625C108.609 128.625 109.009 128.546 109.382 128.392C109.756 128.238 110.095 128.012 110.381 127.728L128.849 109.353C129.135 109.068 129.362 108.731 129.517 108.359C129.671 107.988 129.751 107.589 129.751 107.187C129.751 106.785 129.671 106.387 129.516 106.016C129.362 105.644 129.135 105.307 128.849 105.022Z" fill="#DAE3F7"/>
<path d="M62.0319 122.5C96.032 122.5 123.594 95.0774 123.594 61.25C123.594 27.4226 96.032 0 62.0319 0C28.0319 0 0.469421 27.4226 0.469421 61.25C0.469421 95.0774 28.0319 122.5 62.0319 122.5Z" fill="#DAE3F7"/>
<path d="M62.0319 110.25C89.2319 110.25 111.282 88.312 111.282 61.25C111.282 34.188 89.2319 12.25 62.0319 12.25C34.8319 12.25 12.7819 34.188 12.7819 61.25C12.7819 88.312 34.8319 110.25 62.0319 110.25Z" fill="white"/>
<path d="M150.396 108.085L138.083 95.8349C137.797 95.5504 137.458 95.3247 137.085 95.1707C136.711 95.0168 136.311 94.9375 135.907 94.9375C135.503 94.9375 135.102 95.0168 134.729 95.1707C134.356 95.3247 134.016 95.5504 133.731 95.8349L96.7932 132.585C96.5072 132.869 96.2804 133.207 96.1256 133.578C95.9708 133.95 95.8912 134.348 95.8912 134.75C95.8912 135.152 95.9708 135.55 96.1256 135.922C96.2804 136.294 96.5072 136.631 96.7932 136.915L109.106 149.165C109.391 149.45 109.731 149.675 110.104 149.829C110.477 149.983 110.878 150.063 111.282 150.063C111.686 150.063 112.086 149.983 112.46 149.829C112.833 149.675 113.172 149.45 113.458 149.165L150.396 112.415C150.682 112.131 150.908 111.794 151.063 111.422C151.218 111.05 151.298 110.652 151.298 110.25C151.298 109.848 151.218 109.45 151.063 109.078C150.908 108.707 150.682 108.369 150.396 108.085Z" fill="#EAEEF9"/>
<path d="M176.978 189.875C175.094 189.881 173.229 189.514 171.489 188.797C169.749 188.08 168.169 187.026 166.841 185.697C166.548 185.414 166.315 185.076 166.155 184.703C165.994 184.33 165.91 183.928 165.907 183.522C165.904 183.116 165.982 182.713 166.137 182.338C166.291 181.962 166.52 181.62 166.808 181.333C167.097 181.046 167.44 180.819 167.818 180.665C168.195 180.511 168.6 180.433 169.008 180.436C169.416 180.44 169.82 180.523 170.195 180.683C170.57 180.843 170.91 181.075 171.194 181.367C172.752 182.847 174.824 183.672 176.978 183.672C179.132 183.672 181.203 182.847 182.761 181.367C183.045 181.074 183.385 180.841 183.76 180.68C184.136 180.52 184.54 180.435 184.949 180.432C185.357 180.428 185.763 180.506 186.141 180.66C186.519 180.814 186.863 181.041 187.152 181.329C187.441 181.616 187.669 181.958 187.824 182.334C187.979 182.711 188.057 183.114 188.053 183.521C188.05 183.927 187.965 184.329 187.803 184.703C187.642 185.077 187.408 185.414 187.114 185.697C185.786 187.026 184.207 188.08 182.467 188.797C180.727 189.514 178.861 189.881 176.978 189.875Z" fill="#C3CFE5"/>
<path d="M82.6142 50.9894H72.2264V40.5999C72.2264 39.6814 71.8616 38.8005 71.2122 38.1511C70.5628 37.5016 69.6821 37.1367 68.7638 37.1367H54.9134C53.995 37.1367 53.1143 37.5016 52.4649 38.1511C51.8156 38.8005 51.4508 39.6814 51.4508 40.5999V50.9894H41.0629C40.1446 50.9894 39.2639 51.3542 38.6145 52.0037C37.9652 52.6531 37.6003 53.534 37.6003 54.4525V68.3051C37.6003 69.2236 37.9652 70.1045 38.6145 70.754C39.2639 71.4034 40.1446 71.7683 41.0629 71.7683H51.4508V82.1578C51.4508 83.0763 51.8156 83.9571 52.4649 84.6066C53.1143 85.2561 53.995 85.6209 54.9134 85.6209H68.7638C69.6821 85.6209 70.5628 85.2561 71.2122 84.6066C71.8616 83.9571 72.2264 83.0763 72.2264 82.1578V71.7683H82.6142C83.5325 71.7683 84.4132 71.4034 85.0626 70.754C85.712 70.1045 86.0768 69.2236 86.0768 68.3051V54.4525C86.0768 53.534 85.712 52.6531 85.0626 52.0037C84.4132 51.3542 83.5325 50.9894 82.6142 50.9894Z" fill="#FB5968"/>
</svg>
