<svg width="134" height="134" viewBox="0 0 134 134" fill="none" xmlns="http://www.w3.org/2000/svg">
<path d="M122.834 27.9166V44.6666C122.834 46.1474 122.246 47.5676 121.199 48.6146C120.152 49.6617 118.731 50.25 117.251 50.25C115.77 50.25 114.35 49.6617 113.303 48.6146C112.256 47.5676 111.667 46.1474 111.667 44.6666V27.9166C111.667 26.4358 111.079 25.0157 110.032 23.9686C108.985 22.9215 107.565 22.3333 106.084 22.3333H89.334C87.8532 22.3333 86.433 21.7451 85.386 20.698C84.3389 19.6509 83.7506 18.2308 83.7506 16.75C83.7506 15.2692 84.3389 13.849 85.386 12.8019C86.433 11.7549 87.8532 11.1666 89.334 11.1666H106.084C110.526 11.1666 114.787 12.9314 117.928 16.0726C121.069 19.2138 122.834 23.4743 122.834 27.9166Z" fill="white"/>
<path d="M122.834 106.083C122.834 110.526 121.069 114.786 117.928 117.927C114.787 121.069 110.526 122.833 106.084 122.833H89.334C87.8532 122.833 86.433 122.245 85.386 121.198C84.3389 120.151 83.7506 118.731 83.7506 117.25C83.7506 115.769 84.3389 114.349 85.386 113.302C86.433 112.255 87.8532 111.667 89.334 111.667H106.084C107.565 111.667 108.985 111.078 110.032 110.031C111.079 108.984 111.667 107.564 111.667 106.083V89.3333C111.667 87.8525 112.256 86.4324 113.303 85.3853C114.35 84.3382 115.77 83.75 117.251 83.75C118.731 83.75 120.152 84.3382 121.199 85.3853C122.246 86.4324 122.834 87.8525 122.834 89.3333V106.083Z" fill="white"/>
<path d="M16.75 83.75C18.2308 83.75 19.6509 84.3382 20.698 85.3853C21.7451 86.4324 22.3333 87.8525 22.3333 89.3333V106.083C22.3333 107.564 22.9216 108.984 23.9686 110.031C25.0157 111.078 26.4359 111.667 27.9167 111.667H44.6667C46.1475 111.667 47.5676 112.255 48.6147 113.302C49.6618 114.349 50.25 115.769 50.25 117.25C50.25 118.731 49.6618 120.151 48.6147 121.198C47.5676 122.245 46.1475 122.833 44.6667 122.833H27.9167C23.4743 122.833 19.2139 121.069 16.0726 117.927C12.9314 114.786 11.1667 110.526 11.1667 106.083V89.3333C11.1667 87.8525 11.7549 86.4324 12.802 85.3853C13.8491 84.3382 15.2692 83.75 16.75 83.75Z" fill="white"/>
<path d="M27.9167 11.1666H44.6667C46.1475 11.1666 47.5676 11.7549 48.6147 12.8019C49.6618 13.849 50.25 15.2692 50.25 16.75C50.25 18.2308 49.6618 19.6509 48.6147 20.698C47.5676 21.7451 46.1475 22.3333 44.6667 22.3333H27.9167C26.4359 22.3333 25.0157 22.9215 23.9686 23.9686C22.9216 25.0157 22.3333 26.4358 22.3333 27.9166V44.6666C22.3333 46.1474 21.7451 47.5676 20.698 48.6146C19.6509 49.6617 18.2308 50.25 16.75 50.25C15.2692 50.25 13.8491 49.6617 12.802 48.6146C11.7549 47.5676 11.1667 46.1474 11.1667 44.6666V27.9166C11.1667 23.4743 12.9314 19.2138 16.0726 16.0726C19.2139 12.9314 23.4743 11.1666 27.9167 11.1666Z" fill="white"/>
<path d="M89.3333 50.25V44.6667C89.3333 43.1859 89.9216 41.7658 90.9687 40.7187C92.0157 39.6716 93.4359 39.0834 94.9167 39.0834C96.3975 39.0834 97.8176 39.6716 98.8647 40.7187C99.9118 41.7658 100.5 43.1859 100.5 44.6667V50.25C100.5 51.7308 99.9118 53.151 98.8647 54.1981C97.8176 55.2451 96.3975 55.8334 94.9167 55.8334C93.4359 55.8334 92.0157 55.2451 90.9687 54.1981C89.9216 53.151 89.3333 51.7308 89.3333 50.25Z" fill="white"/>
<path d="M33.4993 50.25V44.6667C33.4993 43.1859 34.0876 41.7658 35.1347 40.7187C36.1817 39.6716 37.6019 39.0834 39.0827 39.0834C40.5635 39.0834 41.9836 39.6716 43.0307 40.7187C44.0778 41.7658 44.666 43.1859 44.666 44.6667V50.25C44.666 51.7308 44.0778 53.151 43.0307 54.1981C41.9836 55.2451 40.5635 55.8334 39.0827 55.8334C37.6019 55.8334 36.1817 55.2451 35.1347 54.1981C34.0876 53.151 33.4993 51.7308 33.4993 50.25Z" fill="white"/>
<path d="M48.9929 80.2213C51.0674 83.0486 53.7785 85.3477 56.9068 86.9324C60.035 88.5171 63.4925 89.3428 66.9992 89.3428C70.5059 89.3428 73.9634 88.5171 77.0916 86.9324C80.2198 85.3477 82.931 83.0486 85.0054 80.2213C85.9413 79.0737 87.2947 78.3449 88.768 78.1951C90.2412 78.0454 91.7136 78.487 92.8612 79.4229C94.0088 80.3588 94.7376 81.7122 94.8874 83.1854C95.0371 84.6587 94.5955 86.131 93.6596 87.2787C90.5342 91.3864 86.5018 94.7164 81.8772 97.0088C77.2526 99.3012 72.1608 100.494 66.9992 100.494C61.8376 100.494 56.7458 99.3012 52.1212 97.0088C47.4966 94.7164 43.4642 91.3864 40.3388 87.2787C39.4029 86.131 38.9613 84.6587 39.111 83.1854C39.2607 81.7122 39.9896 80.3588 41.1372 79.4229C42.2848 78.487 43.7572 78.0454 45.2304 78.1951C46.7037 78.3449 48.0571 79.0737 48.9929 80.2213Z" fill="white"/>
<path d="M78.166 44.6667V61.4725C78.1512 65.9052 76.38 70.1513 73.2404 73.2805C70.1007 76.4097 65.8487 78.1667 61.416 78.1667C59.9352 78.1593 58.518 77.564 57.4762 76.5116C56.4343 75.4593 55.8532 74.0362 55.8606 72.5555C55.868 71.0747 56.4633 69.6575 57.5157 68.6156C58.568 67.5738 59.9911 66.9926 61.4719 67C62.9374 66.9986 64.3425 66.4157 65.3788 65.3794C66.415 64.3431 66.9979 62.9381 66.9993 61.4725V44.6667C66.9993 43.1859 67.5876 41.7658 68.6347 40.7187C69.6817 39.6716 71.1019 39.0834 72.5827 39.0834C74.0635 39.0834 75.4836 39.6716 76.5307 40.7187C77.5778 41.7658 78.166 43.1859 78.166 44.6667Z" fill="white"/>
</svg>
