<svg width="138" height="138" viewBox="0 0 138 138" fill="none" xmlns="http://www.w3.org/2000/svg">
<g clip-path="url(#clip0_7048_2615)">
<path d="M69.0697 16.2964H19.5076C8.75116 16.2964 0 25.0475 0 35.804V81.6813C0 92.4378 8.75116 101.189 19.5076 101.189H53.5649C53.5848 100.886 53.6112 100.583 53.6519 100.28C54.0775 97.105 55.6284 94.3126 57.8639 92.2787H19.5076C13.6642 92.2787 8.91018 87.5247 8.91018 81.6813V35.804C8.91018 29.9606 13.6642 25.2066 19.5076 25.2066H69.0697C74.9131 25.2066 79.6671 29.9606 79.6671 35.804V47.3987C81.5148 46.4449 83.5748 45.9365 85.7143 45.9365C86.6895 45.9365 87.6477 46.0438 88.5776 46.2484V35.804C88.5773 25.0475 79.8261 16.2964 69.0697 16.2964Z" fill="white"/>
<path d="M44.2884 29.5032C28.1656 29.5032 15.0488 42.6199 15.0488 58.7425C15.0488 74.8651 28.1656 87.9819 44.2884 87.9819C47.4484 87.9819 50.4917 87.476 53.3444 86.5445L36.2753 69.4753C33.781 66.9813 32.4075 63.665 32.4075 60.1379C32.4075 56.6105 33.781 53.2945 36.2753 50.8005C38.7692 48.3062 42.0856 46.9324 45.6126 46.9324C49.14 46.9324 52.4561 48.3062 54.95 50.8002L62.7015 58.5517C62.9789 58.2129 63.2756 57.8843 63.5918 57.5682C66.0857 55.0739 69.4021 53.7004 72.9292 53.7004C72.9839 53.7004 73.0375 53.7042 73.0922 53.705C70.6977 39.9745 58.6933 29.5032 44.2884 29.5032Z" fill="white"/>
<path d="M137.988 100.873C137.945 99.9785 137.796 99.0887 137.542 98.2332C137.032 96.5093 136.097 94.8846 134.736 93.5234C133.218 92.0052 131.7 90.4866 130.182 88.9681C130.436 87.0711 130.503 85.1537 130.383 83.2459C130.159 79.6841 129.271 76.1486 127.776 72.9075C126.342 69.7979 124.35 66.9552 121.929 64.5342C121.929 64.5342 105.608 48.2311 105.418 48.0761C103.774 46.7354 101.537 46.1748 99.4453 46.5799C98.0294 46.854 96.7149 47.5556 95.6958 48.575C94.4546 49.8162 93.7563 51.3948 93.6013 53.0158C93.4463 54.6365 93.8342 56.2995 94.7649 57.7097C95.0309 58.1124 95.3411 58.4946 95.6956 58.8493L94.0808 57.2345L90.851 54.0047C89.4324 52.5862 87.5732 51.877 85.714 51.877C83.327 51.877 80.9616 53.1522 79.6457 55.1448C78.0267 57.5973 78.094 60.9042 79.7681 63.3119C80.0083 63.6577 80.2791 63.9817 80.577 64.2795C80.577 64.2795 79.667 63.3696 79.667 63.3698L78.9035 62.6063L78.0668 61.7696C77.003 60.7058 75.6912 60.0409 74.3174 59.7746C71.9754 59.3209 69.4882 60.074 67.7925 61.7696C66.7287 62.8335 66.0638 64.1453 65.7977 65.5191C65.5317 66.8926 65.6646 68.3284 66.1966 69.6405C66.2851 69.8591 66.385 70.0744 66.4958 70.2852C66.7174 70.707 66.9834 71.1116 67.2939 71.4919C67.4489 71.6822 67.6152 71.8666 67.7925 72.0436L50.7503 55.0014C49.3954 53.6465 47.5291 52.8737 45.6133 52.8737C43.6969 52.8737 41.8312 53.6465 40.4763 55.0014C37.7141 57.7636 37.6923 62.4917 40.4763 65.276C40.4763 65.276 70.3965 95.1962 70.3954 95.1959L67.706 94.8353C67.3788 94.7913 67.0529 94.77 66.7311 94.77C63.1477 94.7698 60.0292 97.4209 59.5397 101.07C59.0158 104.978 61.868 108.713 65.7746 109.237C65.7746 109.237 94.1096 113.217 94.9045 113.411C98.2588 114.229 101.853 114.343 105.267 113.885C105.267 113.885 109.822 118.439 109.823 118.439C111.01 119.626 112.46 120.539 114.046 121.089C115.797 121.695 117.659 121.854 119.489 121.56C121.197 121.285 122.833 120.61 124.235 119.595C124.408 119.47 134.736 109.293 134.737 109.292C136.945 107.114 138.135 103.963 137.988 100.873Z" fill="white"/>
</g>
<defs>
<clipPath id="clip0_7048_2615">
<rect width="138" height="138" fill="white"/>
</clipPath>
</defs>
</svg>
