<svg width="16" height="14" viewBox="0 0 16 14" fill="none" xmlns="http://www.w3.org/2000/svg">
<path d="M0 1.0925C0 0.489132 0.397968 0 0.888888 0H15.1111C15.602 0 16 0.489132 16 1.0925C16 1.69588 15.602 2.18501 15.1111 2.18501H0.888888C0.397968 2.18501 0 1.69588 0 1.0925Z" fill="#00B288"/>
<path d="M2.37036 6.99996C2.37036 6.39662 2.76833 5.90747 3.25925 5.90747H12.7407C13.2317 5.90747 13.6296 6.39662 13.6296 6.99996C13.6296 7.6033 13.2317 8.09245 12.7407 8.09245H3.25925C2.76833 8.09245 2.37036 7.6033 2.37036 6.99996Z" fill="#00B288"/>
<path d="M5.62961 11.8151C5.13869 11.8151 4.74072 12.3042 4.74072 12.9076C4.74072 13.5109 5.13869 14 5.62961 14H10.3704C10.8613 14 11.2593 13.5109 11.2593 12.9076C11.2593 12.3042 10.8613 11.8151 10.3704 11.8151H5.62961Z" fill="#00B288"/>
</svg>
