<svg width="16" height="17" viewBox="0 0 16 17" fill="none" xmlns="http://www.w3.org/2000/svg">
<path d="M4.93739 5.76595C4.85339 5.76595 4.76939 5.73402 4.70552 5.6697L3.83052 4.7947C3.70233 4.66652 3.70233 4.4587 3.83052 4.33052C3.9587 4.20233 4.16652 4.20233 4.2947 4.33052L5.1697 5.20552C5.29789 5.3337 5.29789 5.54152 5.1697 5.6697C5.10539 5.73402 5.02139 5.76595 4.93739 5.76595Z" fill="white"/>
<path d="M6.57031 4.77362C6.42506 4.77362 6.29249 4.67693 6.25312 4.53037L5.93287 3.33512C5.88606 3.16012 5.98974 2.97987 6.16474 2.93306C6.34324 2.88624 6.51999 2.99081 6.56681 3.16493L6.88706 4.36018C6.93387 4.53518 6.83018 4.71543 6.65518 4.76224C6.62674 4.77056 6.59831 4.77362 6.57031 4.77362Z" fill="white"/>
<path d="M3.94526 7.39863C3.9177 7.39863 3.88883 7.39513 3.86039 7.38769L2.66514 7.06744C2.49014 7.02063 2.38601 6.84038 2.43326 6.66538C2.48008 6.49125 2.65726 6.38538 2.83533 6.4335L4.03058 6.75375C4.20558 6.80057 4.3097 6.98082 4.26245 7.15582C4.22308 7.30238 4.09051 7.39863 3.94526 7.39863Z" fill="white"/>
<path d="M11.9374 12.766C11.8534 12.766 11.7694 12.734 11.7055 12.6697L10.8305 11.7947C10.7023 11.6665 10.7023 11.4587 10.8305 11.3305C10.9587 11.2023 11.1665 11.2023 11.2947 11.3305L12.1697 12.2055C12.2979 12.3337 12.2979 12.5415 12.1697 12.6697C12.1054 12.734 12.0214 12.766 11.9374 12.766Z" fill="white"/>
<path d="M13.25 10.5782C13.2224 10.5782 13.1935 10.5747 13.1651 10.5672L11.9698 10.247C11.7948 10.2002 11.6907 10.0199 11.738 9.84492C11.7848 9.67079 11.9624 9.56535 12.14 9.61304L13.3353 9.93329C13.5103 9.9801 13.6144 10.1604 13.5671 10.3354C13.5278 10.4815 13.3952 10.5782 13.25 10.5782Z" fill="white"/>
<path d="M9.74999 14.0786C9.60474 14.0786 9.47218 13.9819 9.43281 13.8354L9.11256 12.6401C9.06574 12.4651 9.16943 12.2849 9.34443 12.238C9.52337 12.1904 9.69968 12.2958 9.74649 12.4699L10.0667 13.6652C10.1136 13.8402 10.0099 14.0204 9.83487 14.0672C9.80643 14.0751 9.77756 14.0786 9.74999 14.0786Z" fill="white"/>
<path d="M7.90725 9.42291C7.64169 9.34854 7.39187 9.36516 7.16787 9.4391C7.10094 9.46098 7.03881 9.39885 7.06069 9.33191C7.13462 9.10748 7.15125 8.8581 7.07687 8.59254C6.93775 8.09598 6.50637 7.70616 5.99537 7.63748C5.18906 7.5281 4.5 8.15241 4.5 8.93729C4.5 9.38354 4.72487 9.77423 5.06525 10.0109C5.09981 10.035 5.1055 10.0818 5.07575 10.1115L1.875 13.3123L3.1875 14.6248L6.38825 11.424C6.418 11.3943 6.46481 11.4004 6.48887 11.4345C6.72556 11.7749 7.11625 11.9998 7.5625 11.9998C8.34737 11.9998 8.97169 11.3107 8.86275 10.5044C8.79362 9.99341 8.40381 9.56204 7.90725 9.42291ZM6.36069 10.1264C6.37031 10.122 6.37906 10.1159 6.38825 10.1115C6.38344 10.1212 6.37775 10.1299 6.37337 10.1391C6.369 10.1347 6.36506 10.1308 6.36069 10.1264Z" fill="white"/>
<path d="M10.0045 9.36275C10.8108 9.47169 11.4999 8.84737 11.4999 8.0625C11.4999 7.61625 11.275 7.22556 10.9346 6.98887C10.9001 6.96481 10.8944 6.918 10.9241 6.88825L14.1249 3.6875L12.8124 2.375L9.61164 5.57575C9.58189 5.6055 9.53508 5.59937 9.51101 5.56525C9.27433 5.22487 8.88364 5 8.43739 5C7.65251 5 7.0282 5.68906 7.13714 6.49537C7.20626 7.00637 7.59608 7.43775 8.0922 7.57687C8.35777 7.65125 8.60758 7.63462 8.83158 7.56069C8.89851 7.53881 8.96064 7.60094 8.93876 7.66787C8.86483 7.89231 8.8482 8.14169 8.92258 8.40725C9.06214 8.90381 9.49352 9.29362 10.0045 9.36275ZM9.6392 6.87337C9.62958 6.87775 9.62083 6.88387 9.61164 6.88825C9.61645 6.87862 9.62214 6.86987 9.62651 6.86069C9.63089 6.86506 9.63483 6.869 9.6392 6.87337Z" fill="white"/>
</svg>
