<svg width="16" height="12" viewBox="0 0 16 12" fill="none" xmlns="http://www.w3.org/2000/svg">
<path d="M5.77414 6.12276C7.52913 6.12276 8.95184 4.75214 8.95184 3.06138C8.95184 1.37063 7.52913 0 5.77414 0C4.01914 0 2.59644 1.37063 2.59644 3.06138C2.59644 4.75214 4.01914 6.12276 5.77414 6.12276Z" fill="white"/>
<path d="M2.52464 7.20508C1.13091 7.20508 0 8.29459 0 9.6373V12.0005H11.556V9.6373C11.556 8.29459 10.4251 7.20508 9.03136 7.20508H7.81284C7.55799 7.20508 7.31906 7.32017 7.16775 7.51198L6.26779 8.63219C6.1324 8.80099 5.9333 8.88538 5.74216 8.88538C5.55102 8.88538 5.34395 8.80099 5.21653 8.63219L4.30861 7.51198C4.15729 7.32017 3.91837 7.20508 3.66351 7.20508H2.52464Z" fill="white"/>
<path d="M8.52973 8.67717V9.47512H7.70146C7.62182 9.47512 7.55811 9.5365 7.55811 9.61323V10.158C7.55811 10.2347 7.62182 10.2961 7.70146 10.2961H8.52973V11.094C8.52973 11.1708 8.59345 11.2322 8.67309 11.2322H9.23854C9.31819 11.2322 9.3819 11.1708 9.3819 11.094V10.2961H10.2102C10.2898 10.2961 10.3535 10.2347 10.3535 10.158V9.61323C10.3535 9.5365 10.2898 9.47512 10.2102 9.47512H9.3819V8.67717C9.3819 8.60044 9.31819 8.53906 9.23854 8.53906H8.67309C8.59345 8.53906 8.52973 8.60044 8.52973 8.67717Z" fill="#00B288"/>
<path d="M12.3285 7.12701C13.6789 7.12701 14.7735 6.07242 14.7735 4.77151C14.7735 3.47061 13.6789 2.41602 12.3285 2.41602C10.9782 2.41602 9.88354 3.47061 9.88354 4.77151C9.88354 6.07242 10.9782 7.12701 12.3285 7.12701Z" fill="white"/>
<path d="M13.3958 9.64362C13.3958 9.09119 13.2365 8.57713 12.9817 8.12444C13.0295 8.11677 13.0693 8.09375 13.1171 8.09375H14.0569C15.132 8.09375 16.0001 8.93007 16.0001 9.96587V11.9991H13.3958V9.64362Z" fill="white"/>
</svg>
