<svg width="62" height="63" viewBox="0 0 62 63" fill="none" xmlns="http://www.w3.org/2000/svg">
<path d="M24.2596 27.1631C30.5424 27.1631 35.6549 22.052 35.6549 15.7685C35.6549 9.485 30.5424 4.37497 24.2596 4.37497C17.9768 4.37497 12.8644 9.48606 12.8644 15.7696C12.8644 22.0531 17.9757 27.1631 24.2596 27.1631ZM24.2596 6.93789C29.1298 6.93789 33.0908 10.8997 33.0908 15.7685C33.0908 20.6373 29.1287 24.5992 24.2596 24.5992C19.3905 24.5992 15.4285 20.6373 15.4285 15.7685C15.4285 10.8997 19.3895 6.93789 24.2596 6.93789Z" fill="#00B288"/>
<path d="M25.3837 49.3202H6.43829V41.6125C6.43829 37.3631 9.89574 33.9048 14.1465 33.9048H34.3729C35.0797 33.9048 35.6549 33.3296 35.6549 32.6228C35.6549 31.916 35.0797 31.3408 34.3729 31.3408H14.1465C8.48305 31.3419 3.87523 35.9494 3.87523 41.6125V50.6011C3.87523 51.308 4.45041 51.8831 5.15728 51.8831H25.3837C26.0906 51.8831 26.6658 51.308 26.6658 50.6011C26.6658 49.8943 26.0906 49.3202 25.3837 49.3202Z" fill="#00B288"/>
<path d="M54.5993 40.3306H49.1392V34.8709C49.1392 32.9252 47.5559 31.342 45.6101 31.342H43.3631C41.4174 31.342 39.834 32.9252 39.834 34.8709V40.3306H34.3739C32.4282 40.3306 30.8449 41.9139 30.8449 43.8595V46.1064C30.8449 48.052 32.4282 49.6353 34.3739 49.6353H39.834V55.0951C39.834 57.0407 41.4174 58.6239 43.3631 58.6239H45.6101C47.5559 58.6239 49.1392 57.0407 49.1392 55.0951V49.6353H54.5993C56.545 49.6353 58.1284 48.052 58.1284 46.1064V43.8595C58.1284 41.9139 56.545 40.3306 54.5993 40.3306ZM46.5751 48.3544V55.0961C46.5751 55.6281 46.1421 56.0621 45.6091 56.0621H43.3621C42.8301 56.0621 42.396 55.6291 42.396 55.0961V48.3544C42.396 47.6475 41.8208 47.0724 41.114 47.0724H34.3718C33.8398 47.0724 33.4058 46.6394 33.4058 46.1064V43.8595C33.4058 43.3275 33.8388 42.8935 34.3718 42.8935H41.114C41.8208 42.8935 42.396 42.3184 42.396 41.6116V34.8698C42.396 34.3378 42.829 33.9038 43.3621 33.9038H45.6091C46.1411 33.9038 46.5751 34.3368 46.5751 34.8698V41.6116C46.5751 42.3184 47.1503 42.8935 47.8572 42.8935H54.5993C55.1313 42.8935 55.5653 43.3265 55.5653 43.8595V46.1064C55.5653 46.6384 55.1324 47.0724 54.5993 47.0724H47.8572C47.1503 47.0724 46.5751 47.6475 46.5751 48.3544Z" fill="#00B288"/>
<path d="M24.2596 27.1631C30.5424 27.1631 35.6549 22.052 35.6549 15.7685C35.6549 9.485 30.5424 4.37497 24.2596 4.37497C17.9768 4.37497 12.8644 9.48606 12.8644 15.7696C12.8644 22.0531 17.9757 27.1631 24.2596 27.1631ZM24.2596 6.93789C29.1298 6.93789 33.0908 10.8997 33.0908 15.7685C33.0908 20.6373 29.1287 24.5992 24.2596 24.5992C19.3905 24.5992 15.4285 20.6373 15.4285 15.7685C15.4285 10.8997 19.3895 6.93789 24.2596 6.93789Z" stroke="#00B288" stroke-width="0.1"/>
<path d="M25.3837 49.3202H6.43829V41.6125C6.43829 37.3631 9.89574 33.9048 14.1465 33.9048H34.3729C35.0797 33.9048 35.6549 33.3296 35.6549 32.6228C35.6549 31.916 35.0797 31.3408 34.3729 31.3408H14.1465C8.48305 31.3419 3.87523 35.9494 3.87523 41.6125V50.6011C3.87523 51.308 4.45041 51.8831 5.15728 51.8831H25.3837C26.0906 51.8831 26.6658 51.308 26.6658 50.6011C26.6658 49.8943 26.0906 49.3202 25.3837 49.3202Z" stroke="#00B288" stroke-width="0.1"/>
<path d="M54.5993 40.3306H49.1392V34.8709C49.1392 32.9252 47.5559 31.342 45.6101 31.342H43.3631C41.4174 31.342 39.834 32.9252 39.834 34.8709V40.3306H34.3739C32.4282 40.3306 30.8449 41.9139 30.8449 43.8595V46.1064C30.8449 48.052 32.4282 49.6353 34.3739 49.6353H39.834V55.0951C39.834 57.0407 41.4174 58.6239 43.3631 58.6239H45.6101C47.5559 58.6239 49.1392 57.0407 49.1392 55.0951V49.6353H54.5993C56.545 49.6353 58.1284 48.052 58.1284 46.1064V43.8595C58.1284 41.9139 56.545 40.3306 54.5993 40.3306ZM46.5751 48.3544V55.0961C46.5751 55.6281 46.1421 56.0621 45.6091 56.0621H43.3621C42.8301 56.0621 42.396 55.6291 42.396 55.0961V48.3544C42.396 47.6475 41.8208 47.0724 41.114 47.0724H34.3718C33.8398 47.0724 33.4058 46.6394 33.4058 46.1064V43.8595C33.4058 43.3275 33.8388 42.8935 34.3718 42.8935H41.114C41.8208 42.8935 42.396 42.3184 42.396 41.6116V34.8698C42.396 34.3378 42.829 33.9038 43.3621 33.9038H45.6091C46.1411 33.9038 46.5751 34.3368 46.5751 34.8698V41.6116C46.5751 42.3184 47.1503 42.8935 47.8572 42.8935H54.5993C55.1313 42.8935 55.5653 43.3265 55.5653 43.8595V46.1064C55.5653 46.6384 55.1324 47.0724 54.5993 47.0724H47.8572C47.1503 47.0724 46.5751 47.6475 46.5751 48.3544Z" stroke="#00B288" stroke-width="0.1"/>
</svg>
