<svg width="62" height="62" viewBox="0 0 62 62" fill="none" xmlns="http://www.w3.org/2000/svg">
<path d="M53.8049 3.97602L53.8408 3.94161H53.6253C53.2779 3.89574 52.9067 3.86133 52.6791 3.86133H17.1451C14.139 3.86133 11.6958 6.36165 11.6958 9.43543L11.4803 43.7517H4.98905C4.37825 43.7517 3.87524 44.2678 3.87524 44.8986V50.6104C3.87524 54.7393 7.12085 58.0999 11.121 58.1113C11.1809 58.1113 11.2527 58.1113 11.3365 58.0884H41.0021C41.0979 58.0884 41.1818 58.0884 41.2776 58.0884C41.3614 58.0884 41.4452 58.0884 41.5291 58.0884C45.5771 58.0884 48.8826 54.6705 48.8826 50.4613V29.3462H57.0146C57.6254 29.3462 58.1284 28.8301 58.1284 28.1993V9.84833C58.1284 6.84336 56.3439 4.45773 53.8049 3.97602V3.97602ZM55.9008 9.83686V27.0523H48.8706V9.84833C48.9065 7.8756 50.4755 6.25842 52.3797 6.25842C54.284 6.25842 55.8648 7.86413 55.8888 9.83686H55.9008ZM41.7087 55.9092L41.6848 55.8175H41.6129C41.6129 55.8175 41.5411 55.7945 41.5171 55.7945H41.1099C38.4511 55.5307 36.4271 53.2369 36.4152 50.4842V44.8986C36.4152 44.2678 35.9121 43.7517 35.3013 43.7517H13.6959L13.9115 9.43543C13.9354 7.6118 15.3726 6.12079 17.1212 6.12079H47.9484L47.8287 6.26989L47.7927 6.32724C47.0622 7.33654 46.655 8.57523 46.655 9.82539V50.4842C46.655 51.9064 46.128 53.2369 45.1579 54.2347C44.2357 55.2096 43.0142 55.7831 41.6967 55.8175V55.9092H41.7087ZM36.1157 55.6454L36.2595 55.806H10.8575V55.8977L10.8335 55.806C8.17478 55.6225 6.0789 53.3401 6.0789 50.6104V46.0456H34.1756V50.4842C34.1756 52.4111 34.8702 54.2347 36.1157 55.6454V55.6454Z" fill="#00B288"/>
<path d="M33.1455 17.9822H40.7026C41.3613 17.9822 41.9003 17.3858 41.9003 16.6632C41.9003 15.9406 41.3613 15.3442 40.7026 15.3442H33.1455C32.4868 15.3442 31.9479 15.9406 31.9479 16.6632C31.9479 17.3858 32.4868 17.9822 33.1455 17.9822Z" fill="#00B288"/>
<path d="M35.5467 13.0449L35.5467 20.282C35.5467 20.9129 36.1695 21.429 36.924 21.429C37.6785 21.429 38.3013 20.9129 38.3013 20.282L38.3013 13.0449C38.3013 12.4141 37.6785 11.8979 36.924 11.8979C36.1695 11.8979 35.5467 12.4141 35.5467 13.0449Z" fill="#00B288"/>
<path d="M18.5463 29.8187H41.0021C41.6727 29.8187 42.2237 29.2682 42.2237 28.603C42.2237 27.9377 41.6727 27.3872 41.0021 27.3872H18.5463C17.8756 27.3872 17.3247 27.9377 17.3247 28.603C17.3247 29.2682 17.8756 29.8187 18.5463 29.8187Z" fill="#00B288"/>
<path d="M41.0021 33.4429H18.5463C17.8756 33.4429 17.3247 33.9934 17.3247 34.6586C17.3247 35.3238 17.8756 35.8744 18.5463 35.8744H41.0021C41.6727 35.8744 42.2237 35.3238 42.2237 34.6586C42.2237 33.9934 41.6727 33.4429 41.0021 33.4429V33.4429Z" fill="#00B288"/>
</svg>
