<svg width="16" height="16" viewBox="0 0 16 16" fill="none" xmlns="http://www.w3.org/2000/svg">
<path d="M15.7489 10.3834H3.24974C3.18344 10.3834 3.11986 10.3571 3.07297 10.3102C3.02609 10.2633 2.99976 10.1997 2.99976 10.1334V3.13389C2.99976 3.06759 3.02609 3.00401 3.07297 2.95713C3.11986 2.91025 3.18344 2.88391 3.24974 2.88391H15.7489C15.8152 2.88391 15.8788 2.91025 15.9256 2.95713C15.9725 3.00401 15.9989 3.06759 15.9989 3.13389V10.1334C15.9989 10.1997 15.9725 10.2633 15.9256 10.3102C15.8788 10.3571 15.8152 10.3834 15.7489 10.3834ZM3.49972 9.88343H15.4989V3.38388H3.49972V9.88343Z" fill="#56595B"/>
<path d="M9.7493 7.88356H9.24934C9.05044 7.88356 8.85969 7.80454 8.71904 7.6639C8.5784 7.52326 8.49939 7.33251 8.49939 7.13361H8.99936C8.99936 7.19991 9.02569 7.26349 9.07257 7.31037C9.11945 7.35725 9.18304 7.38359 9.24934 7.38359H9.7493C9.8156 7.38359 9.87919 7.35725 9.92607 7.31037C9.97295 7.26349 9.99929 7.19991 9.99929 7.13361C9.99929 7.06731 9.97295 7.00372 9.92607 6.95684C9.87919 6.90996 9.8156 6.88363 9.7493 6.88363H9.24934C9.05044 6.88363 8.85969 6.80461 8.71904 6.66397C8.5784 6.52333 8.49939 6.33258 8.49939 6.13368C8.49939 5.93478 8.5784 5.74403 8.71904 5.60338C8.85969 5.46274 9.05044 5.38373 9.24934 5.38373H9.7493C9.9482 5.38373 10.139 5.46274 10.2796 5.60338C10.4202 5.74403 10.4993 5.93478 10.4993 6.13368H9.99929C9.99929 6.06738 9.97295 6.00379 9.92607 5.95691C9.87919 5.91003 9.8156 5.88369 9.7493 5.88369H9.24934C9.18304 5.88369 9.11945 5.91003 9.07257 5.95691C9.02569 6.00379 8.99936 6.06738 8.99936 6.13368C8.99936 6.19998 9.02569 6.26356 9.07257 6.31044C9.11945 6.35732 9.18304 6.38366 9.24934 6.38366H9.7493C9.9482 6.38366 10.139 6.46267 10.2796 6.60331C10.4202 6.74396 10.4993 6.93471 10.4993 7.13361C10.4993 7.33251 10.4202 7.52326 10.2796 7.6639C10.139 7.80454 9.9482 7.88356 9.7493 7.88356Z" fill="#56595B"/>
<path d="M9.24939 5.13379H9.74936V5.63375H9.24939V5.13379Z" fill="#56595B"/>
<path d="M9.24939 7.63361H9.74936V8.13357H9.24939V7.63361Z" fill="#56595B"/>
<path d="M13.7491 9.38347H5.24967C5.18337 9.38347 5.11979 9.35714 5.07291 9.31025C5.02602 9.26337 4.99969 9.19979 4.99969 9.13349C4.99969 8.93459 4.92068 8.74384 4.78003 8.6032C4.63939 8.46255 4.44864 8.38354 4.24974 8.38354C4.18344 8.38354 4.11985 8.3572 4.07297 8.31032C4.02609 8.26344 3.99976 8.19986 3.99976 8.13356V5.13376C3.99976 5.06746 4.02609 5.00388 4.07297 4.957C4.11985 4.91012 4.18344 4.88378 4.24974 4.88378C4.44864 4.88378 4.63939 4.80477 4.78003 4.66413C4.92068 4.52348 4.99969 4.33273 4.99969 4.13383C4.99969 4.06753 5.02602 4.00395 5.07291 3.95707C5.11979 3.91019 5.18337 3.88385 5.24967 3.88385H13.7491C13.8154 3.88385 13.879 3.91019 13.9259 3.95707C13.9727 4.00395 13.9991 4.06753 13.9991 4.13383C13.9991 4.33273 14.0781 4.52348 14.2187 4.66413C14.3594 4.80477 14.5501 4.88378 14.749 4.88378C14.8153 4.88378 14.8789 4.91012 14.9258 4.957C14.9727 5.00388 14.999 5.06746 14.999 5.13376V8.13356C14.999 8.19986 14.9727 8.26344 14.9258 8.31032C14.8789 8.3572 14.8153 8.38354 14.749 8.38354C14.5501 8.38354 14.3594 8.46255 14.2187 8.6032C14.0781 8.74384 13.9991 8.93459 13.9991 9.13349C13.9991 9.19979 13.9727 9.26337 13.9259 9.31025C13.879 9.35714 13.8154 9.38347 13.7491 9.38347ZM5.47465 8.88351H13.5241C13.5735 8.64348 13.6922 8.42319 13.8654 8.24991C14.0387 8.07663 14.259 7.95796 14.499 7.90857V5.35875C14.259 5.30937 14.0387 5.19069 13.8654 5.01741C13.6922 4.84413 13.5735 4.62385 13.5241 4.38382H5.47465C5.42527 4.62385 5.3066 4.84413 5.13332 5.01741C4.96004 5.19069 4.73975 5.30937 4.49972 5.35875V7.90857C4.73975 7.95796 4.96004 8.07663 5.13332 8.24991C5.3066 8.42319 5.42527 8.64348 5.47465 8.88351Z" fill="#56595B"/>
<path d="M9.49932 9.38347C8.95546 9.38347 8.42381 9.2222 7.97161 8.92005C7.51941 8.61789 7.16696 8.18843 6.95883 7.68597C6.7507 7.18351 6.69625 6.63061 6.80235 6.0972C6.90845 5.56379 7.17035 5.07382 7.55491 4.68925C7.93948 4.30468 8.42945 4.04279 8.96286 3.93669C9.49627 3.83059 10.0492 3.88504 10.5516 4.09317C11.0541 4.30129 11.4836 4.65374 11.7857 5.10595C12.0879 5.55815 12.2491 6.0898 12.2491 6.63366C12.2483 7.36269 11.9583 8.06162 11.4428 8.57712C10.9273 9.09263 10.2284 9.38261 9.49932 9.38347ZM9.49932 4.38382C9.05435 4.38382 8.61936 4.51577 8.24938 4.76298C7.87939 5.0102 7.59102 5.36158 7.42074 5.77268C7.25045 6.18379 7.2059 6.63616 7.29271 7.07259C7.37952 7.50901 7.5938 7.9099 7.90844 8.22454C8.22309 8.53919 8.62397 8.75347 9.0604 8.84028C9.49683 8.92709 9.9492 8.88253 10.3603 8.71225C10.7714 8.54196 11.1228 8.25359 11.37 7.88361C11.6172 7.51362 11.7492 7.07864 11.7492 6.63366C11.7484 6.03719 11.5112 5.46536 11.0894 5.04358C10.6676 4.62181 10.0958 4.38454 9.49932 4.38382Z" fill="#56595B"/>
<path d="M3.99971 11.8833H1.74986C1.68356 11.8833 1.61998 11.8569 1.5731 11.8101C1.52622 11.7632 1.49988 11.6996 1.49988 11.6333V4.63377C1.49988 4.56747 1.52622 4.50389 1.5731 4.45701C1.61998 4.41013 1.68356 4.38379 1.74986 4.38379H3.24976V4.88375H1.99984V11.3833H3.99971V11.8833Z" fill="#56595B"/>
<path d="M14.249 11.8833H5.49963V11.3833H13.9991V10.1334H14.499V11.6333C14.499 11.6996 14.4727 11.7632 14.4258 11.8101C14.3789 11.857 14.3153 11.8833 14.249 11.8833Z" fill="#56595B"/>
<path d="M12.7491 13.3832H0.249983C0.183683 13.3832 0.120099 13.3569 0.0732183 13.31C0.0263374 13.2631 0 13.1995 0 13.1332V6.13371C0 6.06741 0.0263374 6.00383 0.0732183 5.95695C0.120099 5.91007 0.183683 5.88373 0.249983 5.88373H1.74988V6.38369H0.499966V12.8832H12.4991V11.6333H12.9991V13.1332C12.9991 13.1995 12.9728 13.2631 12.9259 13.31C12.879 13.3569 12.8154 13.3832 12.7491 13.3832Z" fill="#56595B"/>
<path d="M4.49963 11.3833H4.9996V11.8833H4.49963V11.3833Z" fill="#56595B"/>
</svg>
