<svg width="107" height="107" viewBox="0 0 107 107" fill="none" xmlns="http://www.w3.org/2000/svg">
<path d="M43.6769 16.2475C43.6769 10.4858 48.3645 5.79827 54.1262 5.79827H57.7424L56.6515 2.76591C56.0382 1.0606 54.4311 0 52.7182 0C52.2436 0 51.7609 0.0815039 51.289 0.253289L14.7474 13.5533C12.575 14.3441 11.457 16.748 12.2524 18.9187L14.1832 24.1889H43.6769V16.2475Z" fill="white"/>
<path d="M54.127 12.0677C51.8185 12.0677 49.9473 13.939 49.9473 16.2474V24.1888H86.5195V16.2474C86.5195 13.939 84.6483 12.0677 82.3398 12.0677H54.127Z" fill="white"/>
<path d="M97.5957 84.4808H82.9668C74.3242 84.4808 67.293 77.4496 67.293 68.807C67.293 60.1645 74.3242 53.1332 82.9668 53.1332H97.5957V38.8177C97.5957 34.2011 93.853 30.4584 89.2363 30.4584H8.35938C3.7427 30.4584 0 34.2011 0 38.8177V98.6406C0 103.257 3.7427 107 8.35938 107H89.2363C93.853 107 97.5957 103.257 97.5957 98.6406V84.4808Z" fill="white"/>
<path d="M103.865 59.4027H82.9668C77.7813 59.4027 73.5625 63.6215 73.5625 68.807C73.5625 73.9925 77.7813 78.2113 82.9668 78.2113H103.865C105.594 78.2113 107 76.805 107 75.0765V62.5375C107 60.809 105.594 59.4027 103.865 59.4027ZM82.9668 71.9418C81.2356 71.9418 79.832 70.5382 79.832 68.807C79.832 67.0758 81.2356 65.6722 82.9668 65.6722C84.698 65.6722 86.1016 67.0758 86.1016 68.807C86.1016 70.5382 84.698 71.9418 82.9668 71.9418Z" fill="white"/>
</svg>
