<svg version="1.1" id="Layer_1" xmlns="http://www.w3.org/2000/svg" x="0" y="0" viewBox="0 0 44 41.25" style="enable-background:new 0 0 44 41.25" xml:space="preserve"><path class="st0" d="M14.67 26.58c1.52 0 2.75-1.23 2.75-2.75s-1.23-2.75-2.75-2.75-2.75 1.23-2.75 2.75 1.23 2.75 2.75 2.75z"/><path class="st0" d="M40.85 19.18c.21-1.8.4-3.86.4-5.27C41.25 3.78 29.44 0 22 0c-4.83 0-8.31 2.59-9.49 3.6-3.66.21-9.76 2.54-9.76 10.31 0 1.43.19 3.48.4 5.27C1.29 19.94 0 21.74 0 23.83c0 2.65 2.06 4.8 4.65 5C7.14 36.05 13.97 41.25 22 41.25s14.86-5.2 17.35-12.41c2.6-.2 4.65-2.36 4.65-5 0-2.1-1.29-3.9-3.15-4.66zm-3.86 8c0 .01-.01.01 0 0v.01C35.1 33.71 29.1 38.5 22 38.5c-7.75 0-14.17-5.69-15.38-13.11l1.83-6.4c1.63-.52 5.29-1.99 6.9-5.09 2.47 2.33 7.99 5.19 20.29 5.34l1.76 6.14c-.11.61-.24 1.21-.41 1.8z"/><path class="st0" d="M29.33 26.58c1.52 0 2.75-1.23 2.75-2.75s-1.23-2.75-2.75-2.75-2.75 1.23-2.75 2.75 1.23 2.75 2.75 2.75zM25.63 30.64c-2 1.93-5.26 1.93-7.26 0-.54-.52-1.42-.51-1.95.04s-.51 1.42.03 1.95a7.973 7.973 0 0 0 5.54 2.21c2.01 0 4.01-.74 5.54-2.21.55-.53.56-1.4.03-1.95-.51-.56-1.39-.57-1.93-.04z"/></svg>