<svg width="32" height="32" viewBox="0 0 32 32" fill="none" xmlns="http://www.w3.org/2000/svg">
<path d="M31.3601 9.35692L22.6344 0.619599C21.8119 -0.20676 20.3694 -0.206078 19.5485 0.618917L16.6401 3.53115C16.2275 3.9429 16.0002 4.4919 16.0002 5.07648C16.0002 5.66107 16.2275 6.21007 16.6394 6.62113L25.366 15.3592C25.7772 15.7724 26.3255 16 26.9093 16C27.493 16 28.0413 15.7724 28.4519 15.36L31.3602 12.4477C31.7728 12.036 32.0001 11.4869 32.0001 10.9024C32.0001 10.3177 31.7728 9.76866 31.3601 9.35692Z" fill="#00B288"/>
<path d="M16.0313 8.08084C15.7927 7.84152 15.4219 7.79891 15.1371 7.97502C13.0136 9.27688 9.68685 10.8287 5.89712 10.8287C5.57257 10.8287 5.28703 11.0439 5.19758 11.3564L0.0278555 29.4507C-0.0637804 29.7732 0.076128 30.1162 0.367331 30.2824C0.657784 30.4465 1.02569 30.3946 1.2558 30.1496L9.907 20.9898C10.1975 20.6816 10.3346 20.2477 10.2827 19.7988C10.1825 18.9209 10.5845 18.1205 11.3572 17.6581C12.0362 17.2533 12.9375 17.2732 13.6058 17.7057C14.1846 18.0829 14.5426 18.6588 14.6121 19.3272C14.681 19.9855 14.4523 20.6311 13.985 21.0984C13.5169 21.5665 12.8692 21.7888 12.1974 21.7142C11.7392 21.6602 11.3188 21.798 11.0092 22.0913L1.84891 30.7426C1.6053 30.9728 1.55062 31.3392 1.7161 31.6311C1.84823 31.8627 2.09178 31.9983 2.34821 31.9983C2.41427 31.9983 2.48171 31.9891 2.54777 31.9706L20.6421 26.8009C20.9546 26.7114 21.1698 26.4259 21.1698 26.1013C21.1698 22.3116 22.7216 18.9849 24.0235 16.8613C24.1989 16.5751 24.1556 16.2051 23.9177 15.9671L16.0313 8.08084Z" fill="#00B288"/>
</svg>
