<svg width="16" height="16" viewBox="0 0 16 16" fill="none" xmlns="http://www.w3.org/2000/svg">
<path d="M1.2171 14.7804L1.21967 14.783C1.28786 14.8517 1.36895 14.9062 1.45829 14.9435C1.54762 14.9807 1.64344 14.9999 1.74023 15C1.82167 14.9999 1.90255 14.9865 1.97964 14.9602L6.17686 13.5364L14.2311 5.48215C14.7234 4.98973 15 4.32187 15 3.62551C15 2.92915 14.7233 2.26133 14.2309 1.76895C13.7385 1.27657 13.0706 0.99997 12.3743 1C11.6779 1.00003 11.0101 1.27669 10.5177 1.76911L2.46354 9.82339L1.03985 14.0205C0.995006 14.1511 0.987847 14.2916 1.0192 14.426C1.05055 14.5604 1.11914 14.6832 1.2171 14.7804ZM11.1866 2.4379C11.502 2.12487 11.9286 1.94959 12.373 1.95044C12.8174 1.95129 13.2434 2.12821 13.5576 2.44245C13.8718 2.75669 14.0487 3.18264 14.0496 3.62704C14.0504 4.07143 13.8751 4.49805 13.5621 4.81348L12.5029 5.87263L10.1274 3.49704L11.1866 2.4379ZM3.28847 10.3361L9.4586 4.16583L11.8342 6.54141L5.664 12.7116L2.0689 13.9312L3.28847 10.3361Z" fill="#56595B"/>
</svg>
