<svg width="107" height="107" viewBox="0 0 107 107" fill="none" xmlns="http://www.w3.org/2000/svg">
<path d="M93.1854 63.7884C89.4226 61.8371 85.1071 60.7296 80.5198 60.7296H69.6172C64.9012 60.7296 60.4747 61.9009 56.6416 63.9522C48.5809 68.2602 43.1369 76.4626 43.1369 85.8697V93.6251H107V85.8697C107 76.3405 101.416 68.052 93.1854 63.7884Z" fill="white"/>
<path d="M35.4649 53.8398H26.4013C11.8441 53.8398 0 65.0845 0 78.905V89.5168H34.3656V85.8694C34.3656 76.9287 38.0349 68.5236 44.6922 62.2032C46.35 60.6294 48.1422 59.2304 50.0485 58.0229C45.8676 55.3804 40.8534 53.8398 35.4649 53.8398Z" fill="white"/>
<path d="M30.9198 16.1428C30.8733 16.1428 30.825 16.143 30.7783 16.1436C20.9668 16.2205 13.054 24.2716 13.1394 34.0903C13.2241 43.8624 21.1986 51.7586 30.9467 51.7586C30.9934 51.7586 31.0414 51.7583 31.0882 51.7578C35.8989 51.72 40.3886 49.7959 43.7298 46.3392C46.9936 42.9628 48.7683 38.5138 48.7274 33.8111C48.6423 24.039 40.6681 16.1428 30.9198 16.1428Z" fill="white"/>
<path d="M75.0693 13.375C63.7573 13.375 54.5563 22.6044 54.5563 33.9518C54.5563 42.1514 59.363 49.2462 66.301 52.5494C68.9616 53.8179 71.935 54.5257 75.0693 54.5257C78.2035 54.5257 81.177 53.8179 83.8376 52.5494C90.7756 49.2462 95.5822 42.1514 95.5822 33.9518C95.5822 22.6044 86.3812 13.375 75.0693 13.375Z" fill="white"/>
</svg>
