<svg width="18" height="22" viewBox="0 0 18 22" fill="none" xmlns="http://www.w3.org/2000/svg">
<path d="M8.99954 10.7594C11.4456 10.7594 13.4286 8.35089 13.4286 5.37975C13.4286 2.40856 12.7776 0 8.99954 0C5.22151 0 4.57031 2.40856 4.57031 5.37975C4.57031 8.35089 6.55339 10.7594 8.99954 10.7594Z" fill="white"/>
<path d="M17.3633 19.1147C17.3657 19.0651 17.3641 18.7707 17.3633 19.1147V19.1147Z" fill="white"/>
<path d="M17.3545 18.756C17.2725 13.5802 16.5965 12.1054 11.4238 11.1719C11.4238 11.1719 10.6957 12.0997 8.99853 12.0997C7.30139 12.0997 6.57313 11.1719 6.57313 11.1719C1.45687 12.0952 0.739795 13.5482 0.64551 18.5879C0.637778 18.9994 0.634195 19.021 0.632812 18.9733C0.633127 19.0628 0.633504 19.2283 0.633504 19.5171C0.633504 19.5171 1.865 21.9997 8.99853 21.9997C16.1319 21.9997 17.3636 19.5171 17.3636 19.5171C17.3636 19.3316 17.3637 19.2026 17.3639 19.1148C17.3625 19.1444 17.3597 19.0871 17.3545 18.756Z" fill="white"/>
</svg>
