<svg width="118" height="118" viewBox="0 0 118 118" fill="none" xmlns="http://www.w3.org/2000/svg">
<path d="M82.9688 5.53122H35.0312C34.5423 5.53122 34.0733 5.72547 33.7275 6.07124C33.3818 6.41701 33.1875 6.88598 33.1875 7.37497V44.25C33.1875 44.739 33.3818 45.2079 33.7275 45.5537C34.0733 45.8995 34.5423 46.0937 35.0312 46.0937H82.9688C83.4577 46.0937 83.9267 45.8995 84.2725 45.5537C84.6182 45.2079 84.8125 44.739 84.8125 44.25V7.37497C84.8125 6.88598 84.6182 6.41701 84.2725 6.07124C83.9267 5.72547 83.4577 5.53122 82.9688 5.53122ZM71.9062 29.5C71.9062 29.989 71.712 30.4579 71.3662 30.8037C71.0205 31.1495 70.5515 31.3437 70.0625 31.3437H64.5312V36.875C64.5312 37.364 64.337 37.8329 63.9912 38.1787C63.6455 38.5245 63.1765 38.7187 62.6875 38.7187H55.3125C54.8235 38.7187 54.3545 38.5245 54.0088 38.1787C53.663 37.8329 53.4688 37.364 53.4688 36.875V31.3437H47.9375C47.4485 31.3437 46.9795 31.1495 46.6338 30.8037C46.288 30.4579 46.0938 29.989 46.0938 29.5V22.125C46.0938 21.636 46.288 21.167 46.6338 20.8212C46.9795 20.4755 47.4485 20.2812 47.9375 20.2812H53.4688V14.75C53.4688 14.261 53.663 13.792 54.0088 13.4462C54.3545 13.1005 54.8235 12.9062 55.3125 12.9062H62.6875C63.1765 12.9062 63.6455 13.1005 63.9912 13.4462C64.337 13.792 64.5312 14.261 64.5312 14.75V20.2812H70.0625C70.5515 20.2812 71.0205 20.4755 71.3662 20.8212C71.712 21.167 71.9062 21.636 71.9062 22.125V29.5Z" fill="white"/>
<path d="M92.8512 70.0625C89.2387 70.071 85.739 68.8044 82.9688 66.4856C80.1985 68.8044 76.6988 70.071 73.0863 70.0625C70.7631 69.8043 64.6787 71.2425 59 66.4856C56.2298 68.8044 52.7301 70.071 49.1175 70.0625C46.7944 69.8043 40.71 71.2425 35.0312 66.4856C29.3525 71.2425 23.2681 69.8043 20.945 70.0625C18.8117 70.0595 16.7022 69.6138 14.75 68.7534V110.625C14.75 111.114 14.9443 111.583 15.29 111.929C15.6358 112.274 16.1048 112.469 16.5938 112.469H25.8125V79.2812C25.8125 78.7922 26.0068 78.3233 26.3525 77.9775C26.6983 77.6317 27.1673 77.4375 27.6562 77.4375H51.625C52.114 77.4375 52.583 77.6317 52.9287 77.9775C53.2745 78.3233 53.4688 78.7922 53.4688 79.2812V112.469H101.406C101.895 112.469 102.364 112.274 102.71 111.929C103.056 111.583 103.25 111.114 103.25 110.625V68.7534C98.9909 70.634 95.875 69.8965 92.8512 70.0625ZM90.3438 99.5625C90.3438 100.051 90.1495 100.52 89.8037 100.866C89.458 101.212 88.989 101.406 88.5 101.406H62.6875C62.1985 101.406 61.7295 101.212 61.3838 100.866C61.038 100.52 60.8438 100.051 60.8438 99.5625V79.2812C60.8438 78.7922 61.038 78.3233 61.3838 77.9775C61.7295 77.6317 62.1985 77.4375 62.6875 77.4375H88.5C88.989 77.4375 89.458 77.6317 89.8037 77.9775C90.1495 78.3233 90.3438 78.7922 90.3438 79.2812V99.5625Z" fill="white"/>
<path d="M33.1877 49.4493C32.1118 49.069 31.1799 48.3651 30.5197 47.4342C29.8595 46.5034 29.5034 45.3911 29.5002 44.25V23.9687H16.594C16.16 23.9608 15.7372 24.1063 15.3999 24.3795C15.0627 24.6526 14.8326 25.036 14.7502 25.4622L9.21897 54.2984C9.21086 54.415 9.21086 54.5321 9.21897 54.6487C9.21897 57.7587 10.4544 60.7413 12.6535 62.9404C14.8526 65.1395 17.8352 66.375 20.9452 66.375H25.149C28.1374 66.3767 31.0134 65.2355 33.1877 63.1853V49.4493Z" fill="white"/>
<path d="M57.1562 49.7812H36.875V63.1853C39.0493 65.2355 41.9253 66.3767 44.9138 66.375H49.1175C52.106 66.3767 54.982 65.2355 57.1562 63.1853V49.7812Z" fill="white"/>
<path d="M81.125 49.7812H60.8438V63.1853C63.018 65.2355 65.894 66.3767 68.8825 66.375H73.0862C76.0747 66.3767 78.9507 65.2355 81.125 63.1853V49.7812Z" fill="white"/>
<path d="M108.781 54.2984L103.25 25.4622C103.168 25.036 102.938 24.6526 102.6 24.3795C102.263 24.1063 101.84 23.9608 101.406 23.9687H88.5V44.25C88.4968 45.3911 88.1407 46.5034 87.4805 47.4342C86.8204 48.3651 85.8884 49.069 84.8125 49.4493V63.1853C86.9868 65.2355 89.8628 66.3767 92.8513 66.375H97.055C100.165 66.375 103.148 65.1395 105.347 62.9404C107.546 60.7413 108.781 57.7587 108.781 54.6487C108.789 54.5321 108.789 54.415 108.781 54.2984Z" fill="white"/>
</svg>
