<svg width="160" height="160" viewBox="0 0 160 160" fill="none" xmlns="http://www.w3.org/2000/svg">
<g clip-path="url(#clip0_1495_2591)">
<path fill-rule="evenodd" clip-rule="evenodd" d="M84.3341 28.0158C102.064 28.5448 114.174 43.3132 126.582 55.2625C138.787 67.0161 153.362 78.6486 153.977 95.085C154.605 111.876 142.365 126.023 129.668 137.817C117.088 149.501 101.859 161.839 84.3341 159.772C67.6425 157.803 61.3508 139.161 49.0836 128.312C36.0063 116.746 13.3601 111.865 11.1953 95.085C8.97513 77.8754 26.1407 64.7475 39.3236 52.6586C52.2521 40.803 66.3059 27.4778 84.3341 28.0158Z" fill="url(#paint0_linear_1495_2591)"/>
<path fill-rule="evenodd" clip-rule="evenodd" d="M138.722 60.9473C145.42 76.8459 150.043 93.9119 144.617 110.372C138.933 127.612 126.585 143.028 109.455 149.727C92.9446 156.184 74.2553 152.205 58.7153 143.965C45.1076 136.749 40.3658 121.615 32.1531 108.738C21.5291 92.0798 -2.01432 77.6565 4.48139 58.9269C10.9581 40.2522 38.7159 42.9476 57.4353 35.8399C74.1511 29.493 89.5968 14.8991 106.603 20.1519C123.974 25.5175 131.754 44.412 138.722 60.9473Z" fill="url(#paint1_linear_1495_2591)"/>
<path d="M79.4945 67.7133C76.3929 60.9611 69.6399 56.2701 61.7979 56.2701C59.0263 56.2701 56.3867 56.8607 54 57.9192C54.4619 57.8858 54.9239 57.8635 55.3968 57.8635C62.2709 57.8635 68.221 61.8747 71.0917 67.7133H79.4945Z" fill="white"/>
<path d="M103.603 57.8524C104.076 57.8524 104.538 57.8746 105 57.9081C102.613 56.8495 99.9738 56.2701 97.2022 56.2701C89.3603 56.2701 82.6072 60.9499 79.5056 67.7133H87.9085C90.7681 61.8747 96.7292 57.8524 103.603 57.8524Z" fill="white"/>
<path d="M93.5393 51.7355C92.9454 51.5572 92.3295 51.4235 91.7026 51.3232C91.4056 51.2787 91.0977 51.2452 90.7897 51.2118C90.4157 51.1784 90.0308 51.1672 89.6458 51.1672C89.1289 51.1672 88.623 51.2007 88.1281 51.2564C84.7295 51.6352 81.6939 53.262 79.4942 55.691C77.2945 53.2731 74.27 51.6352 70.8604 51.2564C70.3655 51.2007 69.8486 51.1672 69.3426 51.1672C68.9577 51.1672 68.5837 51.1784 68.1988 51.2118C67.8908 51.2341 67.5829 51.2675 67.2859 51.3232C66.659 51.4235 66.0431 51.5572 65.4492 51.7355C64.8553 51.9138 64.2833 52.1255 63.7224 52.3817C63.9534 52.404 64.1843 52.4263 64.4153 52.4597C71.1794 53.3288 76.7006 57.6075 79.4942 63.3681C82.2879 57.5964 87.8091 53.3177 94.5732 52.4597C94.8041 52.4263 95.0351 52.404 95.2661 52.3817C94.7162 52.1255 94.1332 51.9138 93.5393 51.7355Z" fill="white"/>
<path d="M79.4944 52.4039C81.6501 49.9972 84.6307 48.3704 87.9742 47.9915C88.4692 47.9358 88.9641 47.9024 89.47 47.9024C89.701 47.9024 89.932 47.9135 90.1519 47.9247C89.2061 47.5236 88.2162 47.245 87.1933 47.1002C86.6874 47.0333 86.1705 46.9999 85.6425 46.9999C85.2466 46.9999 84.8617 47.0222 84.4767 47.0556C84.1577 47.089 83.8498 47.1336 83.5418 47.1893C82.8929 47.3119 82.266 47.4901 81.6501 47.713C80.0553 48.3035 78.5925 49.2283 77.2837 50.4206C78.0976 51 78.8345 51.6685 79.4944 52.4039Z" fill="white"/>
<path d="M80.9255 88.1642L75.8728 94.5146L82.1412 99.6335L87.194 93.2831L80.9255 88.1642Z" fill="white"/>
<path d="M82.6419 104.344L77.5891 110.694L83.8575 115.813L88.9103 109.463L82.6419 104.344Z" fill="white"/>
<path d="M79.2107 71.9854L74.158 78.3358L80.4264 83.4546L85.4791 77.1042L79.2107 71.9854Z" fill="white"/>
<path d="M89.7651 95.3806L84.7131 101.731L90.9816 106.849L96.0335 100.499L89.7651 95.3806Z" fill="white"/>
<path d="M64.4492 85.1843L60.7427 82.1648C61.7325 79.4572 63.0524 77.0059 64.6471 74.8777L69.4975 78.8444L64.4492 85.1843Z" fill="white"/>
<path d="M72.081 80.94L67.0291 87.2904L73.2975 92.4084L78.3494 86.058L72.081 80.94Z" fill="white"/>
<path d="M64.9551 89.9027L59.9023 96.2531L66.1708 101.372L71.2235 95.0215L64.9551 89.9027Z" fill="white"/>
<path d="M75.5133 113.297L81.6725 118.322C81.0126 118.366 80.3417 118.389 79.6488 118.389C76.9211 118.389 74.4685 118.032 72.2908 117.341L75.5133 113.297Z" fill="white"/>
<path d="M59.7085 85.6191L62.3812 87.803L58.7957 92.3045C58.8726 89.9869 59.1916 87.7473 59.7085 85.6191Z" fill="white"/>
<path d="M73.7961 97.1177L68.7441 103.468L75.0126 108.586L80.0645 102.236L73.7961 97.1177Z" fill="white"/>
<path d="M93.562 108.951L98.6103 102.6L99.4132 103.257C98.6543 106.177 97.5105 108.751 95.9597 110.912L93.562 108.951Z" fill="white"/>
<path d="M100.238 89.1513C100.425 90.622 100.524 92.1263 100.524 93.6639C100.524 94.065 100.524 94.4773 100.513 94.8673L98.1153 97.8868L91.8462 92.7725L96.8945 86.4214L100.238 89.1513Z" fill="white"/>
<path d="M91.4829 111.558L93.7706 113.419C91.8789 115.213 89.5692 116.561 86.8416 117.397L91.4829 111.558Z" fill="white"/>
<path d="M63.0847 110.578L66.6592 106.087L72.9284 111.202L69.1009 116.015C66.6592 114.689 64.6575 112.862 63.0847 110.578Z" fill="white"/>
<path d="M96.388 81.7083L90.1189 76.594L93.0225 72.9393C94.8812 74.9449 96.454 77.3628 97.6859 80.0704L96.388 81.7083Z" fill="white"/>
<path d="M64.086 103.982L61.3253 107.447C60.3245 105.241 59.6206 102.745 59.2026 99.9926L64.086 103.982Z" fill="white"/>
<path d="M88.0535 79.2065L83.0007 85.5569L89.2692 90.6757L94.3219 84.3253L88.0535 79.2065Z" fill="white"/>
<path d="M66.8247 72.3485C67.4846 71.68 68.1885 71.056 68.9144 70.4989H76.1404L71.5761 76.2261L66.8247 72.3485Z" fill="white"/>
<path d="M90.5925 70.666L87.5569 74.4879L82.6626 70.4989H90.3725C90.4495 70.5546 90.5155 70.6103 90.5925 70.666Z" fill="white"/>
<path d="M149.059 55.856C143.017 55.856 138.119 60.7638 138.119 66.8181V99.3178C137.888 99.036 137.642 98.7625 137.38 98.4994C133.097 94.2078 126.152 94.2078 121.869 98.4994L89.3784 131.053C84.2103 136.231 80.9369 142.952 80 150.135V160H126.406L152.872 133.066C157.439 128.423 160 122.165 160 115.646V66.8181C160 60.7638 155.102 55.856 149.059 55.856Z" fill="#FBC28A"/>
<path d="M70.6216 131.053L38.1312 98.4994C33.8481 94.2078 26.9038 94.2078 22.6206 98.4994C22.3581 98.7625 22.1119 99.036 21.8816 99.3178V66.8181C21.8816 60.7638 16.9831 55.856 10.9409 55.856C4.89844 55.856 0 60.7638 0 66.8181V115.646C0 122.165 2.56062 128.423 7.12812 133.066L33.5944 160H80V150.135C79.0631 142.952 75.7897 136.231 70.6216 131.053Z" fill="#FDE0C3"/>
<path d="M139.843 107.793C139.843 104.832 139.266 102.095 138.119 99.3178C137.889 99.0359 137.642 98.7625 137.38 98.4993C133.522 94.6343 127.508 94.2521 123.221 97.3484L125.436 99.5675C129.962 104.102 129.963 111.483 125.436 116.018L110.824 130.659C108.672 132.815 108.672 136.31 110.824 138.465C112.975 140.621 116.463 140.621 118.614 138.465L133.227 123.824C137.638 119.405 139.843 113.599 139.843 107.793Z" fill="#FF9E86"/>
<path d="M20.157 107.793C20.157 104.832 20.7342 102.095 21.8814 99.3178C22.1117 99.0359 22.3579 98.7625 22.6204 98.4993C26.4779 94.6343 32.4926 94.2521 36.7792 97.3484L34.5645 99.5675C30.0382 104.102 30.0376 111.483 34.5642 116.018L49.1767 130.659C51.3282 132.815 51.3279 136.31 49.1767 138.465C47.0254 140.621 43.5373 140.621 41.386 138.465L26.7735 123.824C22.3626 119.405 20.157 113.599 20.157 107.793Z" fill="#FBC28A"/>
</g>
<defs>
<linearGradient id="paint0_linear_1495_2591" x1="82.5" y1="28" x2="82.5" y2="160" gradientUnits="userSpaceOnUse">
<stop stop-color="#04C598"/>
<stop offset="1" stop-color="#189A7C"/>
</linearGradient>
<linearGradient id="paint1_linear_1495_2591" x1="140.142" y1="63.4988" x2="24.5428" y2="116.3" gradientUnits="userSpaceOnUse">
<stop stop-color="#4ACFA3" stop-opacity="0.33"/>
<stop offset="1" stop-color="#4ACFA3" stop-opacity="0.08"/>
</linearGradient>
<clipPath id="clip0_1495_2591">
<rect width="160" height="160" fill="white"/>
</clipPath>
</defs>
</svg>
