<svg width="11" height="17" viewBox="0 0 11 17" fill="none" xmlns="http://www.w3.org/2000/svg">
<path d="M9.07566 0H1.92262C1.23854 0 0.685913 0.554774 0.685913 1.23885V15.7628C0.685913 16.4447 1.23854 17 1.92262 17H9.07566C9.75866 17 10.3134 16.4452 10.3134 15.7628V1.23885C10.3129 0.554774 9.75866 0 9.07566 0ZM9.38577 13.7738H1.61358V2.08979H9.38577V13.7738ZM7.15756 1.25709H3.84126V0.895471H7.15809L7.15756 1.25709ZM8.57668 1.09184C8.57668 1.26675 8.43396 1.4084 8.25959 1.4084C8.08468 1.4084 7.9425 1.26621 7.9425 1.09184C7.9425 0.917469 8.08468 0.775288 8.25959 0.775288C8.4345 0.774752 8.57668 0.916932 8.57668 1.09184ZM7.00894 15.6801H3.9888V14.7509H7.00894V15.6801Z" fill="white"/>
</svg>
