<svg width="29" height="29" viewBox="0 0 29 29" fill="none" xmlns="http://www.w3.org/2000/svg">
<g clip-path="url(#clip0_9378_3289)">
<path d="M12.0102 16.9911C9.2422 14.2231 8.6172 11.4551 8.4762 10.3461C8.4368 10.0395 8.54232 9.73194 8.7617 9.51409L11.0017 7.27509C11.3312 6.94579 11.3897 6.43258 11.1427 6.0376L7.5762 0.499596C7.30296 0.06222 6.74192 -0.0956332 6.2807 0.135096L0.555198 2.8316C0.182227 3.01525 -0.0371492 3.41152 0.0051975 3.8251C0.305198 6.6751 1.5477 13.6811 8.4327 20.5666C15.3177 27.4521 22.3227 28.6941 25.1742 28.9941C25.5878 29.0364 25.984 28.8171 26.1677 28.4441L28.8642 22.7186C29.0941 22.2584 28.9373 21.6988 28.5017 21.4251L22.9637 17.8596C22.5689 17.6124 22.0557 17.6704 21.7262 17.9996L19.4872 20.2396C19.2694 20.459 18.9618 20.5645 18.6552 20.5251C17.5462 20.3841 14.7782 19.7591 12.0102 16.9911Z" fill="#00B288"/>
<path d="M23 15.5C22.4477 15.5 22 15.0523 22 14.5C21.9953 10.3598 18.6402 7.00468 14.5 7C13.9477 7 13.5 6.55228 13.5 6C13.5 5.44771 13.9477 5 14.5 5C19.7443 5.00579 23.9942 9.25569 24 14.5C24 15.0523 23.5523 15.5 23 15.5Z" fill="#00B288"/>
<path d="M28 15.5C27.4477 15.5 27 15.0523 27 14.5C26.9923 7.59964 21.4004 2.00772 14.5 2C13.9477 2 13.5 1.55228 13.5 1C13.5 0.447715 13.9477 0 14.5 0C22.5045 0.00881794 28.9912 6.49553 29 14.5C29 14.7652 28.8946 15.0196 28.7071 15.2071C28.5196 15.3946 28.2652 15.5 28 15.5Z" fill="#00B288"/>
</g>
<defs>
<clipPath id="clip0_9378_3289">
<rect width="29" height="29" fill="white"/>
</clipPath>
</defs>
</svg>
