<svg width="106" height="106" viewBox="0 0 106 106" fill="none" xmlns="http://www.w3.org/2000/svg">
<path d="M97.6999 8.17129C86.7985 -2.72409 69.0663 -2.72409 58.1649 8.17129L35.1162 31.22L61.2846 57.3884C66.6705 52.9033 73.4988 50.095 81.0385 50.095C85.3631 50.095 89.4784 50.9934 93.2229 52.5975L97.6999 47.7064C108.598 36.808 108.598 19.0729 97.6999 8.17129Z" fill="white"/>
<path d="M56.9545 61.8134L30.7497 35.6088L8.19129 58.1894C-2.70699 69.0876 -2.70699 86.8229 8.19129 97.7243C19.0925 108.619 37.0317 108.827 47.9333 97.9311L52.5063 93.3361C50.9022 89.5917 50.0039 85.4764 50.0039 81.1517C50.0041 73.8056 52.6749 67.1371 56.9545 61.8134Z" fill="white"/>
<path d="M56.2544 81.1541C56.2544 93.8132 65.756 104.145 77.9965 105.689V56.619C65.756 58.1633 56.2544 68.4943 56.2544 81.1541Z" fill="white"/>
<path d="M84.1763 56.619V105.689C96.4168 104.145 105.918 93.8132 105.918 81.1539C105.918 68.4945 96.417 58.1633 84.1763 56.619Z" fill="white"/>
</svg>
