<svg width="22" height="23" viewBox="0 0 22 23" fill="none" xmlns="http://www.w3.org/2000/svg">
<path d="M20.3745 2.58784C18.2093 0.423844 14.6874 0.423844 12.5222 2.58784L7.94434 7.16569L13.1418 12.3632C14.2115 11.4723 15.5677 10.9146 17.0652 10.9146C17.9242 10.9146 18.7416 11.093 19.4853 11.4116L20.3745 10.4402C22.539 8.27555 22.539 4.75308 20.3745 2.58784Z" fill="#00B288"/>
<path d="M12.2764 13.2427L7.07168 8.03809L2.5912 12.523C0.42663 14.6875 0.42663 18.2101 2.5912 20.3752C4.75635 22.5391 8.31938 22.5804 10.4846 20.4163L11.3929 19.5037C11.0743 18.76 10.8959 17.9426 10.8959 17.0837C10.8959 15.6246 11.4264 14.3001 12.2764 13.2427Z" fill="#00B288"/>
<path d="M12.1299 17.0835C12.1299 19.5978 14.0171 21.6498 16.4482 21.9565V12.2104C14.0171 12.5172 12.1299 14.5691 12.1299 17.0835Z" fill="#00B288"/>
<path d="M17.6816 12.2104V21.9565C20.1128 21.6498 22 19.5978 22 17.0835C22 14.5691 20.1128 12.5172 17.6816 12.2104Z" fill="#00B288"/>
</svg>
