<svg width="60" height="81" viewBox="0 0 60 81" fill="none" xmlns="http://www.w3.org/2000/svg">
<path d="M30.0014 1.5C37.4846 1.51055 44.661 4.5136 49.9565 9.85502C55.2529 15.1973 58.2351 22.443 58.245 30.0037C58.2446 35.0837 56.6049 40.5807 54.0388 46.0494C51.4781 51.5066 48.0373 56.8467 44.5357 61.5874C37.98 70.4631 31.2917 77.1311 30.0014 78.3937C28.7111 77.1311 22.0228 70.4631 15.4671 61.5874C11.9655 56.8467 8.52471 51.5066 5.96401 46.0494C3.3977 40.5803 1.75802 35.083 1.75781 30.0027C1.76802 22.4423 4.75016 15.1971 10.0463 9.85502C15.3418 4.5136 22.5182 1.51055 30.0014 1.5ZM30.0014 45.2525H30.0023C34.0189 45.2501 37.8677 43.6394 40.7039 40.7786C43.5396 37.9183 45.1315 34.0422 45.1339 30.0026V30.0017C45.1339 26.9883 44.248 24.0414 42.5869 21.5338C40.9257 19.026 38.5632 17.0695 35.7966 15.9136C33.0299 14.7576 29.9847 14.455 27.0468 15.0444C24.1089 15.6339 21.412 17.0885 19.2966 19.2224C17.1812 21.356 15.7421 24.073 15.1592 27.0288C14.5763 29.9847 14.8754 33.0486 16.0191 35.8337C17.1628 38.6189 19.1006 41.0016 21.5893 42.6789C24.0781 44.3563 27.0056 45.2525 30.0014 45.2525Z" stroke="#00B288" stroke-width="3"/>
</svg>
