<svg width="65" height="65" viewBox="0 0 65 65" xmlns="http://www.w3.org/2000/svg" data-uw-styling-context="true"><g fill="none" fill-rule="evenodd" data-uw-styling-context="true">
<path fill="#F0F0F0" fill-rule="nonzero" d="M-918-778H982v910H-918z" data-uw-styling-context="true"></path>
<path fill="#006A51" d="M0 65h65V0H0z" data-uw-styling-context="true"></path>
<path d="M32.16 21.69c2.332-4.813 7.41-8.151 13.302-8.151 2.083 0 4.064.418 5.86 1.171a12.84 12.84 0 0 0-1.052-.04c-5.166 0-9.638 2.86-11.793 7.02 0 0-.003.001-.003.004l-6.314-.003-6.315-.002c-2.156-4.16-6.627-7.02-11.794-7.02-.354 0-.703.014-1.051.04a15.11 15.11 0 0 1 5.86-1.169c5.891 0 10.97 3.337 13.3 8.15zm10.555-11.384c.446.125.876.279 1.294.459-.172.014-.345.033-.52.053-5.083.617-9.229 3.665-11.329 7.776-2.103-4.111-6.246-7.16-11.331-7.776-.173-.02-.348-.039-.52-.053a10.575 10.575 0 0 1 3.365-.828 10.812 10.812 0 0 1 2.002.027 10.484 10.484 0 0 1 6.484 3.157 10.478 10.478 0 0 1 6.484-3.157 10.537 10.537 0 0 1 2-.027 10.575 10.575 0 0 1 2.07.369zm-10.554.478a10.186 10.186 0 0 0-1.66-1.415 10.07 10.07 0 0 1 3.272-1.926 9.23 9.23 0 0 1 2.124-.467 8.925 8.925 0 0 1 2.053.033c.77.1 1.514.3 2.227.584a10.133 10.133 0 0 0-1.64.047 10.263 10.263 0 0 0-6.376 3.144zm1.983 33.648l-4.709-3.646 3.796-4.523 4.708 3.646-3.795 4.523zm-3.42 7.882l3.796-4.522 4.708 3.646-3.796 4.523-4.708-3.647zM36.65 28.38l-3.796 4.523-4.708-3.646 3.796-4.523 4.708 3.646zm7.934 16.674l-3.796 4.523-4.708-3.646 3.795-4.523 4.709 3.646zm-23.73-10.912l-2.783-2.155a19.837 19.837 0 0 1 2.932-5.193l3.647 2.825-3.796 4.523zm10.44.621l-3.796 4.523-4.708-3.646 3.796-4.523 4.708 3.646zm-13.86 7.261l3.796-4.522 4.708 3.646-3.795 4.523-4.709-3.647zm11.73 12.15l4.628 3.586c-.494.032-1.002.049-1.522.049-2.051 0-3.891-.258-5.527-.748l2.42-2.886zM17.287 34.45l2.005 1.553-2.693 3.212a23.02 23.02 0 0 1 .688-4.765zm15.295 11.843l-3.796 4.523-4.708-3.646 3.796-4.523 4.708 3.646zm10.142 4.784l3.795-4.522.606.469c-.57 2.083-1.431 3.916-2.598 5.45l-1.803-1.397zm5.017-14.107c.143 1.045.218 2.118.218 3.214 0 .289-.004.576-.011.86l-1.804 2.151-4.71-3.646 3.796-4.523 2.511 1.944zm-6.578 15.967l1.717 1.33c-1.425 1.276-3.159 2.235-5.208 2.83l3.491-4.16zm-21.333-.703l2.688-3.204 4.709 3.646-2.879 3.432a12.574 12.574 0 0 1-4.518-3.874zm25.024-20.568l-4.708-3.646 2.181-2.602c1.395 1.43 2.583 3.151 3.504 5.085l-.977 1.163zM20.582 47.53L18.51 50c-.753-1.574-1.282-3.352-1.593-5.309l3.665 2.84zM39.5 38.05l-4.709-3.647 3.796-4.522 4.708 3.646-3.795 4.523zM22.64 24.994a15.883 15.883 0 0 1 1.57-1.32h5.426l-3.427 4.085-3.57-2.765zm17.855-1.197l-2.284 2.723-3.676-2.846h5.796l.164.123z" fill="#FFF" data-uw-styling-context="true"></path>
</g></svg>