<svg width="11" height="15" viewBox="0 0 11 15" fill="none" xmlns="http://www.w3.org/2000/svg">
<path d="M5.49881 4.35158C4.82985 2.93304 3.3733 1.94756 1.68191 1.94756C1.08411 1.94756 0.514772 2.07162 0 2.294C0.0996334 2.28698 0.199267 2.28229 0.301272 2.28229C1.78391 2.28229 3.06728 3.12499 3.68644 4.35158H5.49881Z" fill="#224C74"/>
<path d="M10.6987 2.27995C10.8007 2.27995 10.9003 2.28463 11 2.29166C10.4852 2.06928 9.91587 1.94756 9.31807 1.94756C7.62667 1.94756 6.17013 2.9307 5.50116 4.35158H7.31354C7.93032 3.12499 9.21606 2.27995 10.6987 2.27995Z" fill="#224C74"/>
<path d="M8.52808 0.994832C8.39998 0.957379 8.26714 0.929289 8.13192 0.908222C8.06787 0.898858 8.00145 0.891836 7.93503 0.884813C7.85437 0.877791 7.77134 0.87545 7.68832 0.87545C7.57682 0.87545 7.4677 0.882473 7.36095 0.894177C6.62793 0.973765 5.9732 1.31553 5.49875 1.82582C5.02431 1.31787 4.37195 0.973765 3.63656 0.894177C3.52981 0.882473 3.41831 0.87545 3.30919 0.87545C3.22616 0.87545 3.14551 0.877791 3.06248 0.884813C2.99606 0.889495 2.92964 0.896518 2.86559 0.908222C2.73037 0.929289 2.59752 0.957379 2.46942 0.994832C2.34132 1.03229 2.21797 1.07676 2.09698 1.1306C2.1468 1.13528 2.19662 1.13996 2.24643 1.14699C3.70535 1.32957 4.89621 2.22845 5.49875 3.43865C6.1013 2.22611 7.29215 1.32723 8.75107 1.14699C8.80089 1.13996 8.85071 1.13528 8.90052 1.1306C8.78191 1.07676 8.65618 1.03229 8.52808 0.994832Z" fill="#224C74"/>
<path d="M5.49885 1.1353C5.96381 0.629682 6.60668 0.287921 7.32784 0.208333C7.43459 0.196629 7.54134 0.189607 7.65046 0.189607C7.70027 0.189607 7.75009 0.191948 7.79754 0.194288C7.59352 0.110019 7.38002 0.0514981 7.15941 0.0210674C7.05029 0.00702247 6.93879 0 6.82492 0C6.73952 0 6.6565 0.00468165 6.57347 0.0117041C6.50467 0.0187266 6.43825 0.0280899 6.37183 0.039794C6.23187 0.0655431 6.09665 0.102996 5.96381 0.149813C5.61983 0.273876 5.30433 0.468165 5.02203 0.718633C5.19758 0.840356 5.35652 0.980805 5.49885 1.1353Z" fill="#224C74"/>
<path d="M5.80752 8.64808L4.71771 9.98219L6.06973 11.0576L7.15953 9.72346L5.80752 8.64808Z" fill="#224C74"/>
<path d="M6.17739 12.0471L5.08759 13.3813L6.4396 14.4566L7.52941 13.1225L6.17739 12.0471Z" fill="#224C74"/>
<path d="M5.43752 5.24902L4.34772 6.58314L5.69973 7.65852L6.78954 6.3244L5.43752 5.24902Z" fill="#224C74"/>
<path d="M7.7139 10.164L6.62427 11.4981L7.97628 12.5733L9.06591 11.2392L7.7139 10.164Z" fill="#224C74"/>
<path d="M2.25354 8.022L1.4541 7.38763C1.6676 6.81881 1.95227 6.30383 2.29624 5.85674L3.34239 6.69007L2.25354 8.022Z" fill="#224C74"/>
<path d="M3.89963 7.13034L2.81 8.46446L4.16201 9.53967L5.25164 8.20555L3.89963 7.13034Z" fill="#224C74"/>
<path d="M2.36288 9.01314L1.27307 10.3473L2.62508 11.4226L3.71489 10.0885L2.36288 9.01314Z" fill="#224C74"/>
<path d="M4.64001 13.9279L5.96845 14.9836C5.82612 14.993 5.68141 14.9976 5.53196 14.9976C4.94365 14.9976 4.41465 14.9227 3.94495 14.7776L4.64001 13.9279Z" fill="#224C74"/>
<path d="M1.23114 8.11328L1.80759 8.57208L1.03424 9.51778C1.05085 9.03089 1.11964 8.56038 1.23114 8.11328Z" fill="#224C74"/>
<path d="M4.26956 10.5291L3.17993 11.8632L4.53194 12.9384L5.62158 11.6043L4.26956 10.5291Z" fill="#224C74"/>
<path d="M8.53284 13.015L9.62169 11.6807L9.79486 11.8188C9.63117 12.4321 9.38446 12.9728 9.04998 13.427L8.53284 13.015Z" fill="#224C74"/>
<path d="M9.97272 8.85532C10.0131 9.1643 10.0344 9.48032 10.0344 9.80335C10.0344 9.88762 10.0344 9.97423 10.032 10.0562L9.51489 10.6905L8.16272 9.61608L9.25157 8.28181L9.97272 8.85532Z" fill="#224C74"/>
<path d="M8.08445 13.5627L8.57788 13.9536C8.16985 14.3305 7.67169 14.6137 7.08337 14.7893L8.08445 13.5627Z" fill="#224C74"/>
<path d="M1.95941 13.3567L2.73038 12.4134L4.08255 13.4878L3.25702 14.499C2.73038 14.2205 2.29864 13.8366 1.95941 13.3567Z" fill="#224C74"/>
<path d="M9.14245 7.29165L7.79028 6.21721L8.41655 5.44942C8.81745 5.87077 9.15668 6.37873 9.42237 6.94755L9.14245 7.29165Z" fill="#224C74"/>
<path d="M2.17528 11.9709L1.57985 12.6989C1.36398 12.2354 1.21215 11.7111 1.12201 11.1329L2.17528 11.9709Z" fill="#224C74"/>
<path d="M7.34481 6.76599L6.255 8.10011L7.60702 9.17549L8.69683 7.84137L7.34481 6.76599Z" fill="#224C74"/>
<path d="M2.76599 5.32536C2.90832 5.18491 3.06015 5.05382 3.21671 4.93678H4.77526L3.79079 6.13997L2.76599 5.32536Z" fill="#224C74"/>
<path d="M7.89232 4.9719L7.23759 5.7748L6.18195 4.93678H7.84488C7.86148 4.94849 7.87572 4.96019 7.89232 4.9719Z" fill="#224C74"/>
</svg>
