<svg width="35" height="48" viewBox="0 0 35 48" fill="none" xmlns="http://www.w3.org/2000/svg">
<g opacity="0.3">
<path d="M17.4937 13.8747C15.3655 9.35181 10.7317 6.20966 5.35075 6.20966C3.44893 6.20966 1.63768 6.60522 0 7.31426C0.31697 7.29187 0.633939 7.27694 0.958456 7.27694C5.67526 7.27694 9.75813 9.96382 11.7279 13.8747H17.4937Z" fill="#56595B"/>
<path d="M34.0362 7.26948C34.3607 7.26948 34.6777 7.28441 34.9947 7.3068C33.357 6.59776 31.5457 6.20966 29.6439 6.20966C24.263 6.20966 19.6292 9.34435 17.501 13.8747H23.2668C25.229 9.96382 29.3194 7.26948 34.0362 7.26948Z" fill="#56595B"/>
<path d="M27.1315 3.17201C26.724 3.05259 26.3013 2.96303 25.8712 2.89586C25.6674 2.866 25.4561 2.84361 25.2448 2.82122C24.9882 2.79883 24.724 2.79137 24.4599 2.79137C24.1052 2.79137 23.758 2.81376 23.4184 2.85107C21.0864 3.10484 19.0035 4.19451 17.4941 5.82157C15.9847 4.20198 13.9093 3.10484 11.5698 2.85107C11.2302 2.81376 10.8755 2.79137 10.5283 2.79137C10.2642 2.79137 10.0076 2.79883 9.74346 2.82122C9.53215 2.83615 9.32083 2.85854 9.11707 2.89586C8.6869 2.96303 8.26427 3.05259 7.85674 3.17201C7.4492 3.29142 7.05677 3.43323 6.67188 3.60489C6.83036 3.61982 6.98884 3.63475 7.14733 3.65714C11.7887 4.2393 15.5772 7.1053 17.4941 10.964C19.411 7.09784 23.1996 4.23183 27.8409 3.65714C27.9994 3.63475 28.1579 3.61982 28.3164 3.60489C27.939 3.43323 27.539 3.29142 27.1315 3.17201Z" fill="#56595B"/>
<path d="M17.4925 3.61982C18.9717 2.0077 21.0169 0.918017 23.3112 0.664256C23.6508 0.626938 23.9904 0.604548 24.3375 0.604548C24.496 0.604548 24.6545 0.612011 24.8055 0.619475C24.1564 0.350787 23.4772 0.164198 22.7753 0.067172C22.4282 0.0223907 22.0735 0 21.7112 0C21.4395 0 21.1754 0.0149271 20.9113 0.0373178C20.6924 0.0597084 20.4811 0.0895626 20.2698 0.12688C19.8245 0.208979 19.3943 0.328396 18.9717 0.477667C17.8774 0.873235 16.8737 1.49271 15.9756 2.29131C16.5341 2.67941 17.0397 3.12723 17.4925 3.61982Z" fill="#56595B"/>
<path d="M18.4768 27.3383L15.0098 31.5921L19.311 35.0209L22.7781 30.7671L18.4768 27.3383Z" fill="#56595B"/>
<path d="M19.6536 38.176L16.1865 42.4297L20.4878 45.8585L23.9548 41.6048L19.6536 38.176Z" fill="#56595B"/>
<path d="M17.2991 16.5007L13.832 20.7545L18.1333 24.1832L21.6003 19.9295L17.2991 16.5007Z" fill="#56595B"/>
<path d="M24.5417 32.1719L21.0752 36.4256L25.3764 39.8539L28.843 35.6001L24.5417 32.1719Z" fill="#56595B"/>
<path d="M7.17026 25.3422L4.62695 23.3195C5.30617 21.5059 6.2118 19.8639 7.3061 18.4384L10.6343 21.0954L7.17026 25.3422Z" fill="#56595B"/>
<path d="M12.4069 22.4992L8.94043 26.753L13.2417 30.1812L16.7082 25.9275L12.4069 22.4992Z" fill="#56595B"/>
<path d="M7.51785 28.5024L4.05078 32.7561L8.35202 36.1849L11.8191 31.9312L7.51785 28.5024Z" fill="#56595B"/>
<path d="M14.762 44.1727L18.9883 47.5387C18.5355 47.5686 18.0751 47.5835 17.5997 47.5835C15.728 47.5835 14.0451 47.3447 12.5508 46.882L14.762 44.1727Z" fill="#56595B"/>
<path d="M3.91741 25.6332L5.7513 27.0961L3.29102 30.1113C3.34384 28.5589 3.5627 27.0587 3.91741 25.6332Z" fill="#56595B"/>
<path d="M13.5837 33.3358L10.1172 37.5895L14.4184 41.0178L17.8849 36.764L13.5837 33.3358Z" fill="#56595B"/>
<path d="M27.1465 41.2619L30.6105 37.0077L31.1614 37.4481C30.6407 39.4035 29.8558 41.1276 28.7917 42.5755L27.1465 41.2619Z" fill="#56595B"/>
<path d="M31.728 27.9992C31.8563 28.9844 31.9242 29.992 31.9242 31.0219C31.9242 31.2906 31.9242 31.5668 31.9167 31.828L30.2715 33.8506L25.9697 30.4248L29.4338 26.1706L31.728 27.9992Z" fill="#56595B"/>
<path d="M25.7199 43.0084L27.2897 44.2548C25.9916 45.4564 24.4068 46.3595 22.5352 46.9193L25.7199 43.0084Z" fill="#56595B"/>
<path d="M6.23438 42.3516L8.68712 39.3438L12.9888 42.7695L10.3625 45.9938C8.68712 45.1056 7.31358 43.8816 6.23438 42.3516Z" fill="#56595B"/>
<path d="M29.0869 23.0135L24.7852 19.5877L26.7775 17.1397C28.053 18.4831 29.1322 20.1027 29.9774 21.9164L29.0869 23.0135Z" fill="#56595B"/>
<path d="M6.92113 37.9332L5.02686 40.2543C4.3401 38.7765 3.85709 37.1047 3.57031 35.2612L6.92113 37.9332Z" fill="#56595B"/>
<path d="M23.3675 21.3376L19.9004 25.5913L24.2016 29.0201L27.6687 24.7663L23.3675 21.3376Z" fill="#56595B"/>
<path d="M8.7998 16.7441C9.25262 16.2963 9.73562 15.8784 10.2337 15.5052H15.192L12.0601 19.3415L8.7998 16.7441Z" fill="#56595B"/>
<path d="M25.1093 15.6171L23.0263 18.1771L19.668 15.5052H24.9583C25.0112 15.5425 25.0565 15.5798 25.1093 15.6171Z" fill="#56595B"/>
</g>
</svg>
