<svg width="21" height="28" viewBox="0 0 21 28" fill="none" xmlns="http://www.w3.org/2000/svg">
<path d="M10.1301 8.03626C8.89768 5.41718 6.21439 3.59766 3.09846 3.59766C1.99717 3.59766 0.948329 3.82672 0 4.2373C0.183547 4.22433 0.367095 4.21569 0.555013 4.21569C3.28637 4.21569 5.65064 5.77158 6.79126 8.03626H10.1301Z" fill="white"/>
<path d="M19.7079 4.21137C19.8958 4.21137 20.0793 4.22001 20.2629 4.23298C19.3146 3.8224 18.2657 3.59766 17.1644 3.59766C14.0485 3.59766 11.3652 5.41286 10.1328 8.03626H13.4716C14.6079 5.77158 16.9765 4.21137 19.7079 4.21137Z" fill="white"/>
<path d="M15.7108 1.83761C15.4748 1.76845 15.2301 1.71659 14.981 1.67769C14.863 1.66041 14.7407 1.64744 14.6183 1.63448C14.4697 1.62151 14.3167 1.61719 14.1638 1.61719C13.9584 1.61719 13.7574 1.63015 13.5607 1.65176C12.2103 1.79871 11.0042 2.42971 10.1301 3.37189C9.25608 2.43403 8.05428 1.79871 6.69953 1.65176C6.50287 1.63015 6.29747 1.61719 6.09644 1.61719C5.94349 1.61719 5.7949 1.62151 5.64194 1.63448C5.51958 1.64312 5.39721 1.65608 5.27922 1.67769C5.03012 1.71659 4.78539 1.76845 4.5494 1.83761C4.31341 1.90676 4.08616 1.98887 3.86328 2.08828C3.95505 2.09692 4.04683 2.10556 4.1386 2.11853C6.82626 2.45564 9.02009 4.11525 10.1301 6.34968C11.2401 4.11093 13.434 2.45132 16.1216 2.11853C16.2134 2.10556 16.3052 2.09692 16.397 2.08828C16.1784 1.98887 15.9468 1.90676 15.7108 1.83761Z" fill="white"/>
<path d="M10.1323 2.09613C10.9889 1.1626 12.1732 0.531596 13.5017 0.38465C13.6984 0.363041 13.895 0.350075 14.0961 0.350075C14.1878 0.350075 14.2796 0.354397 14.367 0.358719C13.9912 0.20313 13.5979 0.0950821 13.1914 0.0388972C12.9904 0.0129657 12.785 0 12.5752 0C12.4179 0 12.265 0.00864383 12.112 0.0216096C11.9853 0.0345753 11.8629 0.051863 11.7405 0.0734726C11.4827 0.121014 11.2336 0.190164 10.9889 0.276603C10.3552 0.505664 9.77396 0.864383 9.25391 1.32683C9.5773 1.55157 9.8701 1.81088 10.1323 2.09613Z" fill="white"/>
<path d="M10.6991 15.8298L8.69141 18.293L11.1821 20.2785L13.1898 17.8153L10.6991 15.8298Z" fill="white"/>
<path d="M11.3827 22.1071L9.375 24.5703L11.8657 26.5558L13.8734 24.0926L11.3827 22.1071Z" fill="white"/>
<path d="M10.0194 9.55437L8.01172 12.0176L10.5024 14.0031L12.5101 11.5399L10.0194 9.55437Z" fill="white"/>
<path d="M14.2105 18.6305L12.2031 21.0938L14.6938 23.0789L16.7012 20.6157L14.2105 18.6305Z" fill="white"/>
<path d="M4.15244 14.6755L2.67969 13.5043C3.073 12.454 3.59742 11.5032 4.2311 10.6777L6.15835 12.2163L4.15244 14.6755Z" fill="white"/>
<path d="M7.18314 13.029L5.17578 15.4922L7.6665 17.4774L9.67385 15.0142L7.18314 13.029Z" fill="white"/>
<path d="M4.35142 16.5055L2.34375 18.9688L4.83447 20.9543L6.84214 18.491L4.35142 16.5055Z" fill="white"/>
<path d="M8.54999 25.5781L10.9973 27.5273C10.7351 27.5446 10.4685 27.5532 10.1932 27.5532C9.10938 27.5532 8.13483 27.4149 7.26953 27.147L8.54999 25.5781Z" fill="white"/>
<path d="M2.26897 14.8438L3.33093 15.6908L1.90625 17.4369C1.93684 16.5379 2.06358 15.6692 2.26897 14.8438Z" fill="white"/>
<path d="M7.86673 19.3024L5.85938 21.7656L8.35009 23.7508L10.3574 21.2876L7.86673 19.3024Z" fill="white"/>
<path d="M15.7188 23.8932L17.7247 21.4297L18.0437 21.6847C17.7421 22.817 17.2876 23.8154 16.6714 24.6538L15.7188 23.8932Z" fill="white"/>
<path d="M18.3735 16.2132C18.4478 16.7837 18.4871 17.3671 18.4871 17.9635C18.4871 18.1191 18.4871 18.279 18.4828 18.4303L17.5301 19.6015L15.0391 17.6178L17.045 15.1543L18.3735 16.2132Z" fill="white"/>
<path d="M14.895 24.9043L15.804 25.6261C15.0523 26.3219 14.1346 26.8448 13.0508 27.169L14.895 24.9043Z" fill="white"/>
<path d="M3.60938 24.5249L5.02968 22.7832L7.52068 24.767L5.99986 26.634C5.02968 26.1197 4.23431 25.4109 3.60938 24.5249Z" fill="white"/>
<path d="M16.8426 13.3271L14.3516 11.3434L15.5053 9.92578C16.2438 10.7037 16.8688 11.6416 17.3582 12.6918L16.8426 13.3271Z" fill="white"/>
<path d="M4.00677 21.9652L2.90985 23.3093C2.51216 22.4536 2.23247 21.4855 2.06641 20.418L4.00677 21.9652Z" fill="white"/>
<path d="M13.5311 12.3551L11.5234 14.8184L14.0142 16.8039L16.0218 14.3407L13.5311 12.3551Z" fill="white"/>
<path d="M5.09766 9.69595C5.35987 9.43664 5.63956 9.19461 5.92799 8.97852H8.7992L6.98557 11.2L5.09766 9.69595Z" fill="white"/>
<path d="M14.5415 9.04334L13.3354 10.5258L11.3906 8.97852H14.4541C14.4847 9.00013 14.5109 9.02173 14.5415 9.04334Z" fill="white"/>
</svg>
