<svg width="60" height="82" viewBox="0 0 60 82" fill="none" xmlns="http://www.w3.org/2000/svg">
<g id="Pineapple">
<g id="Group">
<g id="Group_2">
<g id="Group_3">
<g id="Group_4">
<g id="Group_5">
<g id="Group_6">
<path id="Vector" d="M29.9935 23.7887C26.3446 16.034 18.3998 10.6467 9.17404 10.6467C5.91331 10.6467 2.80785 11.3249 0 12.5406C0.543455 12.5022 1.08691 12.4766 1.6433 12.4766C9.73043 12.4766 16.7306 17.0833 20.1078 23.7887H29.9935Z" fill="#2C6852"/>
<path id="Vector_2" d="M58.3566 12.4638C58.913 12.4638 59.4564 12.4894 59.9999 12.5278C57.192 11.3121 54.0866 10.6467 50.8258 10.6467C41.6 10.6467 33.6553 16.0212 30.0063 23.7887H39.892C43.2563 17.0833 50.2694 12.4638 58.3566 12.4638Z" fill="#2C6852"/>
</g>
<path id="Vector_3" d="M46.5172 5.43851C45.8185 5.23377 45.0939 5.08021 44.3563 4.96504C44.0069 4.91385 43.6446 4.87546 43.2823 4.83707C42.8424 4.79869 42.3895 4.78589 41.9366 4.78589C41.3285 4.78589 40.7333 4.82428 40.151 4.88826C36.1527 5.32334 32.5815 7.19163 29.9936 9.98127C27.4057 7.20443 23.8474 5.32334 19.8361 4.88826C19.2539 4.82428 18.6457 4.78589 18.0505 4.78589C17.5976 4.78589 17.1577 4.79869 16.7048 4.83707C16.3425 4.86267 15.9802 4.90106 15.6308 4.96504C14.8933 5.08021 14.1687 5.23377 13.47 5.43851C12.7712 5.64325 12.0984 5.88639 11.4385 6.18071C11.7102 6.2063 11.9819 6.23189 12.2537 6.27028C20.2114 7.26841 26.707 12.1823 29.9936 18.7981C33.2802 12.1695 39.7758 7.25561 47.7335 6.27028C48.0052 6.23189 48.2769 6.2063 48.5487 6.18071C47.9017 5.88639 47.2159 5.64325 46.5172 5.43851Z" fill="#2C6852"/>
</g>
</g>
<g id="Group_7">
<path id="Vector_4" d="M29.9934 6.2063C32.5295 3.44226 36.0361 1.57397 39.9697 1.13889C40.5519 1.07491 41.1342 1.03652 41.7294 1.03652C42.0012 1.03652 42.2729 1.04931 42.5317 1.06211C41.4189 0.601436 40.2543 0.281523 39.051 0.115169C38.4558 0.0383895 37.8476 0 37.2265 0C36.7607 0 36.3078 0.025593 35.8549 0.0639825C35.4797 0.102372 35.1174 0.153558 34.7551 0.217541C33.9917 0.358302 33.2541 0.563046 32.5295 0.818976C30.6533 1.49719 28.9324 2.5593 27.3926 3.92853C28.3501 4.59395 29.217 5.36174 29.9934 6.2063Z" fill="#2C6852"/>
</g>
</g>
<g id="Group_8">
<path id="Vector_5" d="M31.6773 46.8725L25.7329 54.1657L33.1075 60.0445L39.0519 52.7513L31.6773 46.8725Z" fill="#2C6852"/>
<path id="Vector_6" d="M33.6954 65.454L27.751 72.7472L35.1256 78.6259L41.07 71.3328L33.6954 65.454Z" fill="#2C6852"/>
<path id="Vector_7" d="M29.6592 28.2911L23.7148 35.5842L31.0895 41.463L37.0339 34.1698L29.6592 28.2911Z" fill="#2C6852"/>
<path id="Vector_8" d="M42.0763 55.1598L36.1328 62.4529L43.5074 68.3308L49.4509 61.0376L42.0763 55.1598Z" fill="#2C6852"/>
<path id="Vector_9" d="M12.2922 43.45L7.93164 39.9821C9.09619 36.8726 10.6489 34.0574 12.5251 31.6132L18.2314 36.1688L12.2922 43.45Z" fill="#2C6852"/>
<path id="Vector_10" d="M21.2711 38.5757L15.3276 45.8689L22.7023 51.7467L28.6457 44.4535L21.2711 38.5757Z" fill="#2C6852"/>
<path id="Vector_11" d="M12.8887 48.8683L6.94434 56.1615L14.319 62.0403L20.2634 54.7471L12.8887 48.8683Z" fill="#2C6852"/>
<path id="Vector_12" d="M25.3093 75.7355L32.5554 81.5068C31.779 81.558 30.9897 81.5835 30.1745 81.5835C26.9656 81.5835 24.0801 81.1741 21.5181 80.3807L25.3093 75.7355Z" fill="#2C6852"/>
<path id="Vector_13" d="M6.71557 43.949L9.85985 46.4571L5.6416 51.6269C5.73218 48.9652 6.10742 46.3931 6.71557 43.949Z" fill="#2C6852"/>
<path id="Vector_14" d="M23.2892 57.1553L17.3457 64.4485L24.7203 70.3263L30.6638 63.0331L23.2892 57.1553Z" fill="#2C6852"/>
<path id="Vector_15" d="M46.543 70.7449L52.4822 63.4509L53.4267 64.2059C52.5339 67.5586 51.1882 70.5146 49.3638 72.9971L46.543 70.7449Z" fill="#2C6852"/>
<path id="Vector_16" d="M54.3972 48.0056C54.6171 49.6947 54.7336 51.4222 54.7336 53.1881C54.7336 53.6488 54.7336 54.1223 54.7207 54.5702L51.8999 58.038L44.5244 52.1644L50.4636 44.8704L54.3972 48.0056Z" fill="#2C6852"/>
<path id="Vector_17" d="M44.0976 73.7393L46.789 75.8763C44.5635 77.9365 41.8462 79.4849 38.6372 80.4446L44.0976 73.7393Z" fill="#2C6852"/>
<path id="Vector_18" d="M10.688 72.6132L14.8933 67.4562L22.2688 73.3298L17.7658 78.8579C14.8933 77.3351 12.5383 75.2365 10.688 72.6132Z" fill="#2C6852"/>
<path id="Vector_19" d="M49.8686 39.4574L42.4932 33.5838L45.9092 29.3865C48.0959 31.6899 49.9463 34.4667 51.3955 37.5763L49.8686 39.4574Z" fill="#2C6852"/>
<path id="Vector_20" d="M11.8652 65.0376L8.61742 69.0173C7.43994 66.4836 6.61181 63.6172 6.12012 60.4565L11.8652 65.0376Z" fill="#2C6852"/>
<path id="Vector_21" d="M40.0631 36.584L34.1187 43.8771L41.4933 49.7559L47.4377 42.4627L40.0631 36.584Z" fill="#2C6852"/>
<path id="Vector_22" d="M15.0874 28.7084C15.8638 27.9406 16.6919 27.224 17.5459 26.5842H26.0471L20.6772 33.1616L15.0874 28.7084Z" fill="#2C6852"/>
<path id="Vector_23" d="M43.0495 26.7761L39.4783 31.1653L33.7202 26.5842H42.7907C42.8813 26.6482 42.959 26.7121 43.0495 26.7761Z" fill="#2C6852"/>
</g>
</g>
</g>
</g>
</svg>
