<svg width="60" height="60" viewBox="0 0 60 60" fill="none" xmlns="http://www.w3.org/2000/svg">
<path d="M0 10C0 4.47715 4.47715 0 10 0H50C55.5228 0 60 4.47715 60 10V50C60 55.5228 55.5228 60 50 60H10C4.47715 60 0 55.5228 0 50V10Z" fill="#FDFDFD"/>
<g clip-path="url(#clip0_441_1929)">
<path d="M29.5058 22.0334C27.8595 18.5347 24.2751 16.1041 20.1127 16.1041C18.6415 16.1041 17.2404 16.4101 15.9736 16.9586C16.2188 16.9413 16.464 16.9297 16.715 16.9297C20.3637 16.9297 23.522 19.0081 25.0457 22.0334H29.5058Z" fill="#006A51"/>
<path d="M42.3014 16.9239C42.5525 16.9239 42.7977 16.9355 43.0429 16.9528C41.776 16.4043 40.375 16.1041 38.9038 16.1041C34.7415 16.1041 31.157 18.5289 29.5107 22.0334H33.9708C35.4888 19.0081 38.6528 16.9239 42.3014 16.9239Z" fill="#006A51"/>
<path d="M36.9593 13.7529C36.644 13.6606 36.317 13.5913 35.9843 13.5393C35.8266 13.5162 35.6633 13.4989 35.4998 13.4816C35.3013 13.4643 35.097 13.4585 34.8926 13.4585C34.6182 13.4585 34.3497 13.4758 34.087 13.5047C32.2831 13.701 30.6719 14.5439 29.5042 15.8025C28.3367 14.5497 26.7313 13.701 24.9216 13.5047C24.6589 13.4758 24.3845 13.4585 24.116 13.4585C23.9116 13.4585 23.7131 13.4643 23.5088 13.4816C23.3454 13.4931 23.1819 13.5104 23.0243 13.5393C22.6915 13.5913 22.3646 13.6606 22.0494 13.7529C21.7341 13.8453 21.4305 13.955 21.1328 14.0878C21.2554 14.0993 21.378 14.1109 21.5006 14.1282C25.0909 14.5785 28.0215 16.7955 29.5042 19.7803C30.9872 16.7897 33.9177 14.5728 37.5081 14.1282C37.6306 14.1109 37.7532 14.0993 37.8758 14.0878C37.5839 13.955 37.2744 13.8453 36.9593 13.7529Z" fill="#006A51"/>
<path d="M29.506 14.0983C30.6501 12.8513 32.2322 12.0083 34.007 11.812C34.2696 11.7832 34.5323 11.7659 34.8009 11.7659C34.9235 11.7659 35.0461 11.7716 35.1629 11.7774C34.6607 11.5696 34.1353 11.4252 33.5925 11.3502C33.3239 11.3155 33.0496 11.2982 32.7693 11.2982C32.5592 11.2982 32.3548 11.3098 32.1504 11.3271C31.9812 11.3444 31.8177 11.3675 31.6543 11.3964C31.3098 11.4599 30.977 11.5522 30.6501 11.6677C29.8036 11.9737 29.0272 12.4529 28.3325 13.0706C28.7645 13.3709 29.1557 13.7173 29.506 14.0983Z" fill="#006A51"/>
<path d="M30.2659 32.4443L27.584 35.7348L30.9111 38.3871L33.5931 35.0966L30.2659 32.4443Z" fill="#006A51"/>
<path d="M31.175 40.8297L28.4932 44.1201L31.8204 46.7725L34.5023 43.482L31.175 40.8297Z" fill="#006A51"/>
<path d="M29.3552 24.0613L26.6733 27.3518L30.0006 30.0041L32.6825 26.7136L29.3552 24.0613Z" fill="#006A51"/>
<path d="M34.9565 36.1855L32.2749 39.4761L35.6021 42.1279L38.2836 38.8375L34.9565 36.1855Z" fill="#006A51"/>
<path d="M21.5191 30.9023L19.5518 29.3378C20.0772 27.9347 20.7777 26.6646 21.6242 25.5619L24.1987 27.6172L21.5191 30.9023Z" fill="#006A51"/>
<path d="M25.5692 28.7029L22.8877 31.9933L26.2149 34.6452L28.8964 31.3548L25.5692 28.7029Z" fill="#006A51"/>
<path d="M21.7879 33.3469L19.106 36.6375L22.4331 39.2898L25.1151 35.9992L21.7879 33.3469Z" fill="#006A51"/>
<path d="M27.3926 45.4664L30.6618 48.0702C30.3115 48.0934 29.9554 48.1048 29.5876 48.1048C28.1399 48.1048 26.838 47.9201 25.6821 47.5622L27.3926 45.4664Z" fill="#006A51"/>
<path d="M19.0031 31.1272L20.4217 32.2587L18.5186 34.5912C18.5594 33.3902 18.7287 32.2298 19.0031 31.1272Z" fill="#006A51"/>
<path d="M26.4808 37.0831L23.7993 40.3736L27.1265 43.0255L29.8081 39.735L26.4808 37.0831Z" fill="#006A51"/>
<path d="M36.9712 43.2156L39.6508 39.9248L40.0769 40.2654C39.674 41.778 39.0669 43.1117 38.2437 44.2317L36.9712 43.2156Z" fill="#006A51"/>
<path d="M40.5162 32.9564C40.6155 33.7185 40.6681 34.4978 40.6681 35.2945C40.6681 35.5024 40.6681 35.716 40.6622 35.9181L39.3896 37.4826L36.062 34.8327L38.7416 31.5419L40.5162 32.9564Z" fill="#006A51"/>
<path d="M35.8683 44.5663L37.0826 45.5305C36.0786 46.46 34.8526 47.1585 33.4048 47.5916L35.8683 44.5663Z" fill="#006A51"/>
<path d="M20.7954 44.0595L22.6927 41.7329L26.0203 44.3829L23.9887 46.877C22.6927 46.1899 21.6302 45.2431 20.7954 44.0595Z" fill="#006A51"/>
<path d="M38.4711 29.1011L35.1436 26.4512L36.6847 24.5575C37.6714 25.5967 38.5061 26.8496 39.16 28.2525L38.4711 29.1011Z" fill="#006A51"/>
<path d="M21.3274 40.6402L19.8621 42.4357C19.3308 41.2926 18.9572 39.9994 18.7354 38.5734L21.3274 40.6402Z" fill="#006A51"/>
<path d="M34.0492 27.8026L31.3672 31.0932L34.6945 33.7455L37.3763 30.4551L34.0492 27.8026Z" fill="#006A51"/>
<path d="M22.7793 24.2505C23.1296 23.9041 23.5032 23.5808 23.8885 23.2921H27.724L25.3012 26.2597L22.7793 24.2505Z" fill="#006A51"/>
<path d="M35.3961 23.3787L33.7848 25.359L31.187 23.2921H35.2794C35.3202 23.321 35.3552 23.3498 35.3961 23.3787Z" fill="#006A51"/>
</g>
<defs>
<clipPath id="clip0_441_1929">
<rect width="28.0526" height="37.4035" fill="white" transform="translate(15.9736 11.2982)"/>
</clipPath>
</defs>
</svg>
