<svg width="22" height="23" viewBox="0 0 22 23" fill="none" xmlns="http://www.w3.org/2000/svg">
<path d="M17.4114 3.73945C17.1121 3.42385 16.7139 3.25 16.2902 3.25H15.587V3.9917C15.587 4.80965 14.9551 5.4751 14.1783 5.4751H7.83923C7.06246 5.4751 6.43052 4.80965 6.43052 3.9917V3.25H5.72501C4.85213 3.25 4.14122 3.99778 4.14023 4.91697L4.125 19.4543C4.12451 19.9004 4.28916 20.3199 4.58852 20.6356C4.88795 20.9512 5.28614 21.125 5.70978 21.125H16.275C17.1478 21.125 17.8588 20.3772 17.8597 19.458L17.875 4.92068C17.8755 4.47459 17.7108 4.05508 17.4114 3.73945ZM11.1796 8.81276H14.9327C15.2245 8.81276 15.461 9.06182 15.461 9.36904C15.461 9.67625 15.2245 9.92531 14.9327 9.92531H11.1796C10.8878 9.92531 10.6513 9.67625 10.6513 9.36904C10.6513 9.06182 10.8878 8.81276 11.1796 8.81276ZM11.1796 12.5213H14.9327C15.2245 12.5213 15.461 12.7703 15.461 13.0775C15.461 13.3848 15.2245 13.6338 14.9327 13.6338H11.1796C10.8878 13.6338 10.6513 13.3848 10.6513 13.0775C10.6513 12.7703 10.8878 12.5213 11.1796 12.5213ZM11.1796 16.2298H14.9478C15.2396 16.2298 15.4761 16.4788 15.4761 16.786C15.4761 17.0933 15.2396 17.3423 14.9478 17.3423H11.1796C10.8878 17.3423 10.6513 17.0933 10.6513 16.786C10.6513 16.4788 10.8878 16.2298 11.1796 16.2298ZM6.67866 8.83471C6.88498 8.61747 7.21942 8.61747 7.42574 8.83471L7.71298 9.13722L8.93122 7.85437C9.13755 7.63716 9.47199 7.63709 9.67827 7.85437C9.88456 8.07158 9.88456 8.42381 9.67827 8.64106L8.08648 10.3172C7.98741 10.4215 7.85305 10.4802 7.71294 10.4802C7.57283 10.4802 7.43847 10.4216 7.3394 10.3172L6.67862 9.62136C6.47234 9.40416 6.47234 9.05192 6.67866 8.83471ZM6.67866 12.8264C6.88498 12.6092 7.21942 12.6092 7.42574 12.8264L7.71298 13.1289L8.93122 11.8461C9.13751 11.6289 9.47199 11.6289 9.67827 11.8461C9.88456 12.0633 9.88456 12.4155 9.67827 12.6327L8.08648 14.309C7.98745 14.4133 7.85305 14.4719 7.71294 14.4719C7.57283 14.4719 7.43847 14.4133 7.3394 14.309L6.67862 13.6131C6.47234 13.3959 6.47234 13.0437 6.67866 12.8264ZM6.67866 16.5349C6.88498 16.3177 7.21942 16.3177 7.42574 16.5349L7.71298 16.8374L8.93122 15.5546C9.13751 15.3374 9.47199 15.3374 9.67827 15.5546C9.88456 15.7718 9.88456 16.124 9.67827 16.3413L8.08648 18.0175C7.98745 18.1218 7.85305 18.1804 7.71294 18.1804C7.57283 18.1804 7.43847 18.1218 7.3394 18.0175L6.67862 17.3216C6.47234 17.1044 6.47234 16.7522 6.67866 16.5349Z" fill="#00B288"/>
<path d="M6.875 4.16667C6.875 4.4198 7.0289 4.625 7.21875 4.625H13.4062C13.5961 4.625 13.75 4.4198 13.75 4.16667V2.33333C13.75 2.0802 13.5961 1.875 13.4062 1.875H7.21875C7.0289 1.875 6.875 2.0802 6.875 2.33333V4.16667Z" fill="#00B288"/>
</svg>
