<svg width="88" height="121" viewBox="0 0 88 121" fill="none" xmlns="http://www.w3.org/2000/svg">
<path d="M84.1878 10.0386C82.2907 8.03886 79.7676 6.93726 77.0833 6.93726H72.6276V11.6369C72.6276 16.8198 68.6234 21.0363 63.7016 21.0363H23.5347C18.6128 21.0363 14.6086 16.8198 14.6086 11.6369V6.93726H10.1382C4.60736 6.93726 0.10277 11.6755 0.0965145 17.4998L7.01162e-06 109.614C-0.00312055 112.44 1.04015 115.098 2.93701 117.098C4.83433 119.098 7.35738 120.2 10.0417 120.2H76.9866C82.5174 120.2 87.0222 115.462 87.0283 109.637L87.125 17.5233C87.1281 14.6967 86.0849 12.0385 84.1878 10.0386V10.0386ZM44.7005 42.1849H68.4818C70.3304 42.1849 71.829 43.7631 71.829 45.7097C71.829 47.6563 70.3304 49.2345 68.4818 49.2345H44.7005C42.8519 49.2345 41.3533 47.6563 41.3533 45.7097C41.3533 43.7631 42.8519 42.1849 44.7005 42.1849ZM44.7005 65.6834H68.4818C70.3304 65.6834 71.829 67.2615 71.829 69.2081C71.829 71.1547 70.3304 72.7329 68.4818 72.7329H44.7005C42.8519 72.7329 41.3533 71.1547 41.3533 69.2081C41.3533 67.2615 42.8519 65.6834 44.7005 65.6834ZM44.7005 89.1818H68.5774C70.426 89.1818 71.9246 90.76 71.9246 92.7066C71.9246 94.6532 70.426 96.2313 68.5774 96.2313H44.7005C42.8519 96.2313 41.3533 94.6532 41.3533 92.7066C41.3533 90.76 42.8519 89.1818 44.7005 89.1818ZM16.1809 42.324C17.4882 40.9475 19.6074 40.9475 20.9147 42.324L22.7347 44.2408L30.454 36.1122C31.7613 34.7359 33.8805 34.7354 35.1876 36.1122C36.4947 37.4885 36.4947 39.7204 35.1876 41.0969L25.1014 51.7178C24.4736 52.3788 23.6223 52.7503 22.7345 52.7503C21.8467 52.7503 20.9953 52.379 20.3676 51.7178L16.1807 47.3085C14.8736 45.9322 14.8736 43.7003 16.1809 42.324V42.324ZM16.1809 67.6171C17.4882 66.2405 19.6074 66.2405 20.9147 67.6171L22.7347 69.5336L30.454 61.405C31.7611 60.0287 33.8805 60.0287 35.1876 61.405C36.4947 62.7813 36.4947 65.0132 35.1876 66.3897L25.1014 77.0108C24.4739 77.6718 23.6223 78.0433 22.7345 78.0433C21.8467 78.0433 20.9953 77.672 20.3676 77.0108L16.1807 72.6015C14.8736 71.2252 14.8736 68.9936 16.1809 67.6171V67.6171ZM16.1809 91.1155C17.4882 89.739 19.6074 89.739 20.9147 91.1155L22.7347 93.032L30.454 84.9034C31.7611 83.5271 33.8805 83.5271 35.1876 84.9034C36.4947 86.2797 36.4947 88.5116 35.1876 89.8882L25.1014 100.509C24.4739 101.17 23.6223 101.542 22.7345 101.542C21.8467 101.542 20.9953 101.17 20.3676 100.509L16.1807 96.1C14.8736 94.7237 14.8736 92.492 16.1809 91.1155V91.1155Z" fill="white"/>
<path d="M20 13.3333C20 14.8061 21.0521 16 22.35 16H64.65C65.9479 16 67 14.8061 67 13.3333V2.66667C67 1.19387 65.9479 0 64.65 0H22.35C21.0521 0 20 1.19387 20 2.66667V13.3333Z" fill="white"/>
</svg>