<svg width="25" height="25" viewBox="0 0 25 25" fill="none" xmlns="http://www.w3.org/2000/svg">
<path d="M16.8659 13C16.7563 13 16.6477 13.0031 16.5394 13.0082C15.5437 13.8037 14.2714 14.2764 12.9314 14.3487C12.73 14.3617 12.528 14.3638 12.3264 14.3549C10.9345 14.3084 9.60582 13.8297 8.57417 13.0031C8.51123 13.0012 8.44793 13 8.38429 13C5.16085 13 3 16.4461 3 19.2933C3.54819 20.0604 6.2755 24.0153 12.5 24C18.0639 24.0807 21.0662 20.9971 22 19.7067C22 16.8595 20.089 13 16.8659 13Z" fill="white"/>
<path d="M12.4033 12.4839C15.3875 12.4839 17.8067 10.137 17.8067 7.24194C17.8067 4.34689 15.3875 2 12.4033 2C9.41915 2 7 4.34689 7 7.24194C7 10.137 9.41915 12.4839 12.4033 12.4839Z" fill="white"/>
</svg>
