<svg width="36" height="31" viewBox="0 0 36 31" fill="none" xmlns="http://www.w3.org/2000/svg">
<path d="M17.9978 15.161C22.0004 15.161 25.2454 11.7672 25.2454 7.58056C25.2454 3.39388 24.1801 0 17.9978 0C11.8156 0 10.75 3.39388 10.75 7.58056C10.75 11.7672 13.995 15.161 17.9978 15.161Z" fill="#00B288"/>
<path d="M31.6875 26.935C31.6914 26.8651 31.6888 26.4502 31.6875 26.935V26.935Z" fill="#00B288"/>
<path d="M31.6714 26.4299C31.5372 19.1367 24 15.9309 22.5 15.9307C21 15.9304 20.7771 16.792 18 16.792C15.2229 16.792 15 15.9307 13.5 15.9307C12 15.9307 4.48366 19.0916 4.32937 26.1929C4.31672 26.7728 4.31086 26.8033 4.30859 26.736C4.30911 26.8621 4.30859 27.266 4.5 27.5556C4.5 27.5556 6.3249 31.0004 17.998 31.0004C29.6708 31.0004 31.5 27.5556 31.5 27.5556C31.6714 27.2933 31.6864 27.0591 31.6867 26.9354C31.6844 26.9771 31.6799 26.8964 31.6714 26.4299Z" fill="#00B288"/>
</svg>
