<svg fill="#006B52" version="1.1" id="Layer_1" xmlns="http://www.w3.org/2000/svg" xmlns:xlink="http://www.w3.org/1999/xlink" x="0px" y="0px"
	 viewBox="0 0 113.43 141.64" style="enable-background:new 0 0 113.43 141.64;" xml:space="preserve">
<path d="M56.7,68.96c-15.81,0-28.67-15.47-28.67-34.48c0-11.23,1.58-18.67,5.13-24.12C37.7,3.39,45.41,0,56.7,0
	s19,3.39,23.54,10.36c3.55,5.45,5.14,12.89,5.14,24.12C85.38,53.49,72.51,68.96,56.7,68.96z M56.7,3.96
	c-9.83,0-16.43,2.8-20.18,8.55c-3.11,4.75-4.49,11.52-4.49,21.93c0,16.85,11.07,30.52,24.67,30.52s24.68-13.67,24.68-30.48
	c0-10.41-1.39-17.17-4.49-21.93C73.14,6.8,66.53,4,56.7,4V3.96z"/>
<path d="M56.7,141.64c-19,0-33.9-2.54-44.42-7.54c-3.21-1.46-6.18-3.41-8.8-5.78c-0.72-0.69-1.39-1.44-2-2.23
	c-0.24-0.32-0.42-0.58-0.56-0.79c-0.14-0.21-0.14-0.23-0.19-0.31L0,123.64v-1.3h2H0l0.07-5.66c0.3-14.77,1.67-24.78,7.78-32.27
	c6-7.3,13.17-8.47,26.28-10.59l3.91-0.64h0.13c0.96-0.16,1.94-0.07,2.86,0.26c0.91,0.33,1.73,0.89,2.36,1.63l0.25,0.22
	c0.53,0.44,1.1,0.82,1.7,1.14c1.5,0.81,4.32,1.89,11.4,1.89h0.07c7.82,0,9.93-1.14,11.33-1.89c0.61-0.32,1.18-0.7,1.71-1.14
	c0.14-0.12,0.24-0.22,0.29-0.27c0.63-0.72,1.44-1.27,2.34-1.59c0.9-0.32,1.87-0.41,2.82-0.26h0.15l3.65,0.6
	c13.4,2.18,20.78,3.38,26.74,10.89c5.96,7.51,7.33,17.94,7.59,33.34v2c0,1,0,2.11,0,2.32v1.3l-0.68,1.24l-0.06,0.11
	c-0.06,0.1-0.11,0.2-0.19,0.31s-0.31,0.47-0.55,0.79c-0.62,0.8-1.31,1.54-2.05,2.23c-2.61,2.37-5.58,4.32-8.8,5.78
	C90.6,139.1,75.7,141.64,56.7,141.64z M4.1,122.89l0.14,0.24c0.09,0.14,0.22,0.32,0.38,0.53c0.49,0.62,1.02,1.21,1.6,1.76
	c2.32,2.08,4.94,3.78,7.78,5.07c10,4.74,24.34,7.15,42.7,7.15s32.73-2.41,42.7-7.15c2.84-1.28,5.46-2.99,7.78-5.08
	c0.58-0.54,1.12-1.12,1.61-1.75c0.16-0.21,0.28-0.39,0.37-0.53l0.07-0.11l0.08-0.25l0.14-0.14v-0.29c0-0.25,0-4.06-0.06-4.27h2h-2
	c-0.25-14.54-1.43-24.26-6.72-30.92c-5-6.3-11-7.28-24.25-9.43l-3.67-0.6l0.33-2l-0.33,2H74.6c-0.28-0.04-0.56-0.01-0.82,0.08
	s-0.5,0.26-0.68,0.47l-2.4,1.43l-3.77,2.12c-3.34,0.85-6.79,1.2-10.23,1.06c-7.9,0-11.26-1.27-13.3-2.37
	c-0.84-0.46-1.64-0.99-2.38-1.6c-0.18-0.15-0.35-0.3-0.51-0.47c-0.07-0.06-0.14-0.13-0.2-0.21c-0.19-0.21-0.42-0.37-0.69-0.47
	c-0.27-0.1-0.55-0.12-0.83-0.08h-0.13l-3.96,0.67c-12.93,2.09-18.83,3-23.82,9.16c-5.38,6.6-6.6,15.93-6.88,29.82l-0.07,5.9
	L4.1,122.89z M111.21,123.99l1.27,1.27L111.21,123.99z M2.36,123.83l-0.45,0.24L2.36,123.83z M73.09,77.65l-0.68,0.58
	c-1.16,0.99-2.48,1.79-3.91,2.34l-1.61,0.63"/>
</svg>
