<svg width="12" height="14" viewBox="0 0 12 14" fill="none" xmlns="http://www.w3.org/2000/svg">
<path d="M6.0005 6.41666C7.56894 6.41666 8.84052 4.98026 8.84052 3.20835C8.84052 1.4364 8.42304 3.48392e-08 6.0005 1.88017e-08C3.57796 2.76429e-09 3.1604 1.4364 3.1604 3.20835C3.1604 4.98026 4.43199 6.41666 6.0005 6.41666Z" fill="#56595B"/>
<path d="M0.000578423 11.9939C-0.000423435 11.96 7.74935e-05 11.8737 0.000578423 11.9939V11.9939Z" fill="#56595B"/>
<path d="M11.9989 12.0877C11.9994 11.8596 12.0004 12.0548 11.9989 12.0877V12.0877Z" fill="#56595B"/>
<path d="M11.9933 11.8499C11.9344 8.41897 11.4496 7.44134 7.73984 6.82251C7.73984 6.82251 7.21763 7.43755 6.00046 7.43755C4.78329 7.43755 4.26099 6.82251 4.26099 6.82251C0.591674 7.43459 0.0773981 8.39772 0.00977763 11.7384C0.00423275 12.0112 0.00166319 12.0256 0.000671424 11.9939C0.000896826 12.0532 0.00116721 12.163 0.00116721 12.3543C0.00116721 12.3543 0.884381 14 6.00046 14C11.1164 14 11.9997 12.3543 11.9997 12.3543C11.9997 12.2314 11.9998 12.1459 12 12.0877C11.999 12.1073 11.997 12.0693 11.9933 11.8499Z" fill="#56595B"/>
</svg>
