<svg width="36" height="36" viewBox="0 0 36 36" fill="none" xmlns="http://www.w3.org/2000/svg">
<path d="M17.9998 17.6064C22.0024 17.6064 25.2474 13.6651 25.2474 8.80324C25.2474 3.94128 24.182 0 17.9998 0C11.8176 0 10.752 3.94128 10.752 8.80324C10.752 13.6651 13.997 17.6064 17.9998 17.6064Z" fill="#00B288"/>
<path d="M4.31002 31.0477C4.30878 30.7513 4.30755 30.9642 4.31002 31.0477V31.0477Z" fill="#00B288"/>
<path d="M31.6875 31.2793C31.6914 31.1981 31.6888 30.7163 31.6875 31.2793V31.2793Z" fill="#00B288"/>
<path d="M31.6733 30.6923C31.5391 22.2228 30.433 19.8095 21.9686 18.2819C21.9686 18.2819 20.7771 19.8001 17.9999 19.8001C15.2228 19.8001 14.0311 18.2819 14.0311 18.2819C5.659 19.7928 4.48561 22.1704 4.33132 30.4171C4.31867 31.0906 4.31281 31.1259 4.31055 31.0478C4.31106 31.1942 4.31168 31.4652 4.31168 31.9376C4.31168 31.9376 6.32685 36 17.9999 36C29.6728 36 31.6881 31.9376 31.6881 31.9376C31.6881 31.6341 31.6884 31.423 31.6887 31.2794C31.6864 31.3277 31.6819 31.234 31.6733 30.6923Z" fill="#00B288"/>
</svg>
