<svg width="16" height="17" viewBox="0 0 16 17" fill="none" xmlns="http://www.w3.org/2000/svg">
<path d="M11.1978 15.5C11.3836 15.501 11.5679 15.4651 11.7397 15.3942C11.9116 15.3233 12.0676 15.2189 12.1986 15.087L14.0954 13.1902C14.2258 13.0591 14.299 12.8817 14.299 12.6968C14.299 12.5119 14.2258 12.3345 14.0954 12.2033L11.2957 9.40362C11.1646 9.27326 10.9872 9.20009 10.8023 9.20009C10.6174 9.20009 10.44 9.27326 10.3088 9.40362L9.18897 10.5165C8.41363 10.3098 7.69555 9.9292 7.08919 9.40362C6.56503 8.7963 6.18463 8.07856 5.97631 7.30385L7.08919 6.18397C7.21955 6.05283 7.29273 5.87543 7.29273 5.69052C7.29273 5.50561 7.21955 5.32821 7.08919 5.19707L4.28949 2.39737C4.15835 2.26701 3.98095 2.19384 3.79604 2.19384C3.61113 2.19384 3.43373 2.26701 3.3026 2.39737L1.4128 4.30117C1.28095 4.43222 1.17653 4.58823 1.10563 4.76007C1.03473 4.93192 0.998766 5.11617 0.99984 5.30206C1.06334 7.99138 2.13797 10.558 4.00952 12.4903C5.94182 14.3618 8.50844 15.4365 11.1978 15.5ZM3.79954 3.88821L5.61235 5.70102L4.70945 6.60392C4.62393 6.68403 4.55989 6.78432 4.5232 6.8956C4.48652 7.00689 4.47836 7.1256 4.49947 7.24085C4.76108 8.40999 5.31496 9.49367 6.1093 10.3905C7.00545 11.1859 8.08941 11.7399 9.25896 12.0003C9.37247 12.0241 9.4901 12.0192 9.60128 11.9862C9.71245 11.9533 9.81369 11.8932 9.89589 11.8114L10.7988 10.8875L12.6116 12.7003L11.2118 14.1001C8.89061 14.0404 6.67589 13.114 5.00341 11.5034C3.38862 9.83024 2.45961 7.61259 2.39969 5.28806L3.79954 3.88821ZM13.5985 7.8008H14.9983C15.0165 6.96858 14.866 6.14131 14.5558 5.36884C14.2457 4.59637 13.7823 3.89468 13.1937 3.30608C12.6051 2.71748 11.9035 2.25414 11.131 1.944C10.3585 1.63385 9.53123 1.48332 8.69902 1.50147V2.90132C9.34848 2.87885 9.99563 2.99021 10.6002 3.22849C11.2048 3.46676 11.7539 3.82684 12.2135 4.28636C12.673 4.74587 13.0331 5.295 13.2713 5.89959C13.5096 6.50419 13.621 7.15133 13.5985 7.8008Z" fill="black"/>
<path d="M3.79954 3.88821L5.61235 5.70102L4.70945 6.60392C4.62393 6.68403 4.55989 6.78432 4.5232 6.8956C4.48652 7.00689 4.47836 7.1256 4.49947 7.24085C4.76108 8.40999 5.31496 9.49367 6.1093 10.3905C7.00545 11.1859 8.08941 11.7399 9.25896 12.0003C9.37247 12.0241 9.4901 12.0192 9.60128 11.9862C9.71245 11.9533 9.81369 11.8932 9.89589 11.8114L10.7988 10.8875L12.6116 12.7003L11.2118 14.1001C8.89061 14.0404 6.67589 13.114 5.00341 11.5034C3.38862 9.83024 2.45961 7.61259 2.39969 5.28806L3.79954 3.88821Z" fill="black"/>
<path d="M8.66669 5.83333C10.0667 5.83333 10.6667 6.43333 10.6667 7.83333H12C12 5.68667 10.8134 4.5 8.66669 4.5V5.83333Z" fill="#56595B"/>
</svg>
