<svg version="1.1" id="Layer_1" xmlns="http://www.w3.org/2000/svg" xmlns:xlink="http://www.w3.org/1999/xlink" x="0" y="0" viewBox="0 0 35.95 35.95" style="enable-background:new 0 0 35.95 35.95" xml:space="preserve"><defs><path id="SVGID_1_" transform="rotate(-1.621 17.967 18)" d="M.47.47h35v35h-35z"/></defs><clipPath id="SVGID_00000029008772934784317230000000450283144966908040_"><use xlink:href="#SVGID_1_" style="overflow:visible"/></clipPath><g style="clip-path:url(#SVGID_00000029008772934784317230000000450283144966908040_)"><path class="st1" d="M25.47 14.34c-1.18.11-1.79 1.49-1.09 2.44.62.84.03 2.03-1.01 2.06l-4.3.12.09 3.22c2.32-.64 4.65 1.15 4.54 3.62-.09 2.17-2.13 3.84-4.35 3.36l.09 3.25c4.19 2.61 10.07-.3 10.2-5.61 3.18.51 6.04-2.01 5.95-5.21a5.134 5.134 0 0 0-1.12-3.06l-6.42.18c-1.04.03-1.69-1.13-1.13-2 .69-1.06-.15-2.49-1.45-2.37z"/><path class="st1" d="M18.76 7.87c.03 1.04-1.13 1.69-2 1.13-1.06-.69-2.5.14-2.37 1.45.11 1.18 1.49 1.79 2.44 1.09.84-.62 2.03-.03 2.06 1.01l.11 4.37 3.15-.09c-.6-2.19.95-4.32 3.11-4.53 2.45-.24 4.37 1.98 3.86 4.34l5.27-.14c2.67-3.75-.64-8.93-5.21-8-.43-5.33-6.47-7.86-10.56-5.01l.14 4.38zM17.38 32.44l-.12-4.36c-.03-1.04 1.13-1.69 2-1.13.99.65 2.33-.04 2.38-1.23.06-1.32-1.43-2.06-2.45-1.32-.84.62-2.03.03-2.06-1.01l-.12-4.37-3.15.09c.64 2.32-1.16 4.65-3.62 4.54-2.17-.09-3.84-2.13-3.35-4.35l-5.34.15c-2.67 3.75.64 8.93 5.21 8 .42 5.2 6.34 7.93 10.62 4.99z"/><path class="st1" d="M10.32 21.61c1.31.05 2.07-1.42 1.32-2.45-.62-.84-.03-2.03 1.01-2.06l4.3-.12-.09-3.22c-2.25.62-4.48-1.05-4.55-3.37-.06-2.34 2.1-4.09 4.35-3.61l-.09-3.23C12.35.92 6.45 3.77 6.32 9.13 3.14 8.62.28 11.14.37 14.34a5.08 5.08 0 0 0 1.12 3.05l6.48-.18c1.04-.03 1.69 1.13 1.13 2-.65 1.01.04 2.35 1.22 2.4z"/></g></svg>