<svg width="32" height="33" viewBox="0 0 32 33" fill="none" xmlns="http://www.w3.org/2000/svg">
<path d="M21.0215 32.5H10.9785C10.4615 32.5 10.0431 32.0815 10.0431 31.5646V22.4569H0.935385C0.418462 22.4569 0 22.0385 0 21.5215V11.4785C0 10.9615 0.418462 10.5431 0.935385 10.5431H10.0431V1.43538C10.0431 0.918462 10.4615 0.5 10.9785 0.5H21.0215C21.5385 0.5 21.9569 0.918462 21.9569 1.43538V10.5431H31.0646C31.5815 10.5431 32 10.9615 32 11.4785V21.5215C32 22.0385 31.5815 22.4569 31.0646 22.4569H21.9569V31.5646C21.9569 32.0815 21.5385 32.5 21.0215 32.5Z" fill="#9E1818"/>
</svg>
