<svg width="127" height="127" viewBox="0 0 127 127" fill="none" xmlns="http://www.w3.org/2000/svg">
<g clip-path="url(#clip0_370:1339)">
<path d="M63.2798 0C54.3255 0.0204522 45.4774 1.93921 37.319 5.62971C29.1606 9.32021 21.8773 14.6986 15.9498 21.41L16.0798 13.22C16.0905 12.5215 15.8239 11.8472 15.3385 11.3449C14.853 10.8426 14.1882 10.5531 13.4898 10.54C12.7965 10.5399 12.131 10.8126 11.637 11.299C11.1431 11.7855 10.8603 12.4468 10.8498 13.14L10.5798 28.96C10.5551 29.6576 10.8066 30.3368 11.2798 30.85C11.5244 31.1007 11.8169 31.2997 12.1398 31.4354C12.4627 31.5711 12.8095 31.6407 13.1598 31.64H28.9998C29.3595 31.6622 29.7199 31.6105 30.0588 31.4881C30.3978 31.3657 30.7081 31.1752 30.9706 30.9283C31.2332 30.6815 31.4424 30.3835 31.5854 30.0527C31.7284 29.7219 31.8022 29.3654 31.8022 29.005C31.8022 28.6446 31.7284 28.2881 31.5854 27.9573C31.4424 27.6265 31.2332 27.3285 30.9706 27.0817C30.7081 26.8348 30.3978 26.6443 30.0588 26.5219C29.7199 26.3995 29.3595 26.3478 28.9998 26.37H18.6198C26.215 17.1591 36.4697 10.5188 47.9818 7.35695C59.494 4.19506 71.7018 4.66589 82.9362 8.70508C94.1706 12.7443 103.883 20.1547 110.747 29.9232C117.61 39.6917 121.289 51.3415 121.28 63.28C121.299 67.5105 120.825 71.7288 119.87 75.85C119.769 76.1937 119.74 76.5542 119.783 76.9096C119.826 77.2651 119.941 77.6081 120.121 77.9177C120.301 78.2273 120.542 78.4971 120.829 78.7106C121.116 78.9242 121.444 79.077 121.793 79.1599C122.141 79.2427 122.503 79.2538 122.855 79.1926C123.208 79.1313 123.545 78.9988 123.845 78.8033C124.145 78.6078 124.402 78.3534 124.6 78.0554C124.799 77.7574 124.935 77.4221 125 77.07C126.056 72.55 126.58 67.9218 126.56 63.28C126.539 46.5036 119.865 30.4204 108.002 18.5577C96.1394 6.69495 80.0562 0.021169 63.2798 0Z" fill="#006A51"/>
<path d="M113.38 94.92H97.5603C97.2006 94.8978 96.8402 94.9495 96.5012 95.0719C96.1623 95.1943 95.852 95.3848 95.5894 95.6316C95.3269 95.8785 95.1177 96.1765 94.9747 96.5073C94.8316 96.838 94.7579 97.1946 94.7579 97.555C94.7579 97.9153 94.8316 98.2719 94.9747 98.6027C95.1177 98.9334 95.3269 99.2314 95.5894 99.4783C95.852 99.7251 96.1623 99.9156 96.5012 100.038C96.8402 100.16 97.2006 100.212 97.5603 100.19H107.94C99.6408 110.218 88.2093 117.162 75.4848 119.906C62.7604 122.65 49.4828 121.034 37.7882 115.318C26.0935 109.602 16.6617 100.118 11.0102 88.3914C5.35868 76.6654 3.81596 63.379 6.63026 50.67C6.70693 50.3317 6.71594 49.9817 6.65679 49.64C6.59764 49.2983 6.4715 48.9716 6.28561 48.6789C6.09973 48.3861 5.85777 48.133 5.57368 47.9341C5.28959 47.7352 4.96897 47.5945 4.63026 47.52C4.44286 47.4802 4.25183 47.4601 4.06026 47.46C3.46135 47.4594 2.88018 47.6633 2.41286 48.0378C1.94554 48.4124 1.62007 48.9353 1.49026 49.52C0.486525 54.0375 -0.0131944 58.6523 0.000264767 63.28C-0.0152967 76.1418 3.89377 88.7023 11.2054 99.2838C18.517 109.865 28.8831 117.964 40.9191 122.499C52.9552 127.033 66.0882 127.787 78.5643 124.66C91.0403 121.534 102.265 114.675 110.74 105V113.38C110.74 114.08 111.018 114.752 111.514 115.247C112.009 115.742 112.68 116.02 113.38 116.02C114.08 116.02 114.752 115.742 115.247 115.247C115.742 114.752 116.02 114.08 116.02 113.38V97.56C116.02 96.8598 115.742 96.1883 115.247 95.6932C114.752 95.1981 114.08 94.92 113.38 94.92Z" fill="#006A51"/>
<path d="M63.7205 90.09L90.0905 63.72C91.867 62.0204 93.286 59.9831 94.2644 57.7276C95.2428 55.4721 95.7608 53.0439 95.788 50.5855C95.8152 48.1271 95.351 45.688 94.4227 43.4114C93.4944 41.1349 92.1208 39.0667 90.3823 37.3282C88.6438 35.5897 86.5756 34.2161 84.2991 33.2878C82.0225 32.3595 79.5834 31.8953 77.125 31.9225C74.6666 31.9497 72.2384 32.4677 69.9829 33.4461C67.7274 34.4245 65.6901 35.8435 63.9905 37.62L37.6205 63.99C35.844 65.6896 34.4249 67.7269 33.4466 69.9824C32.4682 72.2379 31.9502 74.6661 31.923 77.1245C31.8958 79.5829 32.36 82.022 33.2883 84.2986C34.2165 86.5751 35.5902 88.6434 37.3287 90.3818C39.0671 92.1203 41.1354 93.494 43.4119 94.4222C45.6885 95.3505 48.1276 95.8147 50.586 95.7875C53.0444 95.7603 55.4726 95.2423 57.7281 94.2639C59.9836 93.2856 62.0209 91.8665 63.7205 90.09ZM67.7205 41.35C70.1923 38.8782 73.5448 37.4895 77.0405 37.4895C80.5362 37.4895 83.8887 38.8782 86.3605 41.35C88.8323 43.8218 90.221 47.1743 90.221 50.67C90.221 54.1657 88.8323 57.5182 86.3605 59.99L75.0405 71.28L56.3905 52.67L67.7205 41.35ZM37.4905 77.04C37.4855 75.3084 37.8241 73.5931 38.4866 71.9932C39.1492 70.3934 40.1226 68.941 41.3505 67.72L52.6605 56.4L71.2805 75.05L60.0005 86.36C58.1559 88.202 55.8069 89.456 53.25 89.9638C50.6932 90.4717 48.0432 90.2105 45.6347 89.2133C43.2262 88.2161 41.1672 86.5275 39.7177 84.3609C38.2682 82.1943 37.4932 79.6468 37.4905 77.04Z" fill="#006A51"/>
</g>
<defs>
<clipPath id="clip0_370:1339">
<rect width="126.56" height="126.56" fill="white"/>
</clipPath>
</defs>
</svg>
