<svg width="17" height="17" viewBox="0 0 17 17" fill="none" xmlns="http://www.w3.org/2000/svg">
<path d="M15.2612 7.78034C15.429 9.35829 15.0404 10.9453 14.1627 12.2673C13.2849 13.5892 11.973 14.5632 10.4536 15.0209C8.93422 15.4785 7.30268 15.3913 5.84078 14.774C4.37889 14.1568 3.17843 13.0485 2.44674 11.6404C1.71506 10.2323 1.49808 8.61291 1.83328 7.06188C2.16849 5.51084 3.03483 4.12556 4.28268 3.14529C5.53054 2.16502 7.08155 1.6513 8.66785 1.69286C10.2542 1.73443 11.7761 2.32866 12.9709 3.37294L11.7664 3.37949C11.5407 3.38014 11.3246 3.47041 11.1655 3.63044C11.0064 3.79047 10.9174 4.00715 10.918 4.23281C10.9187 4.45847 11.0089 4.67462 11.169 4.83373C11.329 4.99283 11.5457 5.08184 11.7713 5.08119H11.776L14.8437 5.0646C15.0693 5.06336 15.2852 4.97259 15.4439 4.81223C15.6025 4.65188 15.6911 4.43508 15.6899 4.20949L15.6729 1.14184C15.6764 1.02893 15.6566 0.916509 15.6147 0.811602C15.5728 0.706694 15.5098 0.611554 15.4294 0.532126C15.3491 0.452698 15.2533 0.39069 15.1479 0.349975C15.0425 0.309259 14.9299 0.290713 14.817 0.295495C14.5914 0.296822 14.3756 0.387683 14.217 0.548098C14.0584 0.708514 13.97 0.925353 13.9712 1.15094L13.9756 1.99864C12.4658 0.727048 10.5605 0.0205696 8.58668 0.00044223C6.61284 -0.0196851 4.69353 0.647793 3.15811 1.88834C1.62269 3.12888 0.566904 4.86513 0.17192 6.79916C-0.223064 8.73318 0.067385 10.7444 0.993426 12.4876C1.91947 14.2309 3.42336 15.5975 5.24703 16.3529C7.0707 17.1083 9.10044 17.2055 10.9879 16.6277C12.8754 16.05 14.503 14.8333 15.5913 13.1865C16.6797 11.5397 17.1609 9.56543 16.9525 7.60252C16.9437 7.48917 16.9123 7.37873 16.8601 7.27772C16.8079 7.17672 16.736 7.0872 16.6486 7.01446C16.5613 6.94171 16.4602 6.88721 16.3514 6.85418C16.2426 6.82115 16.1283 6.81025 16.0152 6.82214C15.9022 6.83402 15.7926 6.86845 15.6931 6.92338C15.5936 6.97831 15.506 7.05263 15.4357 7.14195C15.3654 7.23128 15.3137 7.33379 15.2836 7.44344C15.2536 7.55308 15.2458 7.66764 15.2608 7.78034H15.2612Z" fill="#00B288"/>
</svg>
