<svg width="33" height="32" viewBox="0 0 33 32" fill="none" xmlns="http://www.w3.org/2000/svg">
<path fill-rule="evenodd" clip-rule="evenodd" d="M0.0371094 15.1758C0.0371094 16.2343 0.89524 17.0924 1.95378 17.0924C2.98241 17.0616 3.80313 16.224 3.81294 15.1949C3.89134 10.7521 6.52233 6.75195 10.5708 4.92031C14.6193 3.08864 19.3607 3.75329 22.7496 6.62748H22.1362C21.0777 6.62748 20.2196 7.4856 20.2196 8.54415C20.2196 9.60269 21.0777 10.4608 22.1362 10.4608H27.5604C28.619 10.4608 29.4771 9.60269 29.4771 8.54415V3.11998C29.4771 2.06143 28.619 1.20331 27.5604 1.20331C26.5018 1.20331 25.6437 2.06143 25.6437 3.11998V3.96332C21.1687 -0.076272 14.7417 -1.11861 9.21921 1.29953C3.69676 3.71768 0.103771 9.1475 0.0371094 15.1758ZM28.1929 16.5366C28.1929 15.478 29.051 14.6199 30.1096 14.6199C31.1532 14.6303 31.9967 15.4738 32.0071 16.5174C32.0711 20.6421 30.4517 24.6148 27.5221 27.5191C21.7475 33.2647 12.4883 33.4918 6.43878 28.0366V28.8799C6.43878 29.9385 5.58067 30.7966 4.52211 30.7966C3.46357 30.7966 2.60544 29.9385 2.60544 28.8799V23.4558C2.60544 22.3972 3.46357 21.5391 4.52211 21.5391H10.0038C11.0623 21.5391 11.9204 22.3972 11.9204 23.4558C11.9204 24.5143 11.0623 25.3724 10.0038 25.3724H9.33295C12.7612 28.2279 17.5316 28.8428 21.5718 26.95C25.6119 25.0571 28.1927 20.9982 28.1929 16.5366Z" fill="#00B288"/>
</svg>
