<?xml version="1.0" encoding="UTF-8" standalone="no"?>
<svg
   width="44.117359"
   height="47"
   viewBox="0 0 44.117359 47"
   fill="none"
   version="1.1"
   id="svg20"
   xmlns="http://www.w3.org/2000/svg"
   xmlns:svg="http://www.w3.org/2000/svg">
  <g
     clip-path="url(#clip0_648:1330)"
     id="g13"
     transform="translate(-2.3125,-0.332031)">
    <path
       d="m 20.6704,29.0623 h -2.7537 v -2.7537 c 0,-0.5069 -0.4111,-0.918 -0.918,-0.918 -0.5069,0 -0.9178,0.4111 -0.9178,0.918 v 2.7537 h -2.7538 c -0.5069,0 -0.9179,0.4111 -0.9179,0.9179 0,0.5068 0.411,0.918 0.9179,0.918 h 2.7538 v 2.7537 c 0,0.5069 0.411,0.9179 0.9178,0.9179 0.5069,0 0.918,-0.411 0.918,-0.9179 v -2.7537 h 2.7537 c 0.5069,0 0.918,-0.4111 0.918,-0.918 0,-0.5069 -0.411,-0.9179 -0.918,-0.9179 z"
       fill="#00b288"
       id="path9" />
    <path
       d="m 45.4457,29.8892 c -2.0291,-3.5146 -6.5158,-4.7174 -10.031,-2.6878 l -3.7286,2.1527 v -7.9713 c 0,-0.9854 -0.3259,-1.9634 -0.9178,-2.7537 L 26.1787,12.5098 V 9.90406 C 27.247,9.52512 28.0145,8.50489 28.0145,7.30814 V 3.08575 C 28.0143,1.56734 26.779,0.332031 25.2606,0.332031 H 8.73801 c -1.51842,0 -2.75382,1.235309 -2.75382,2.753719 v 4.22248 c 0,1.19657 0.76751,2.21698 1.83585,2.59592 V 12.5099 L 3.2301,18.6295 c -0.59172,0.79 -0.9176,1.7679 -0.9176,2.7533 v 17.7774 c 0,2.5307 2.05891,4.5896 4.58957,4.5896 H 21.654 c 2.0582,3.45 6.4962,4.6046 9.975,2.5959 l 11.1291,-6.4255 c 3.4842,-2.012 4.727,-6.4973 2.6876,-10.031 z M 7.82004,3.08575 c 0,-0.50616 0.4118,-0.91796 0.91787,-0.91796 H 25.2605 c 0.5062,0 0.918,0.4118 0.918,0.91796 v 4.22248 c 0,0.50617 -0.4118,0.91787 -0.918,0.91787 H 8.73801 C 8.23184,8.2261 7.82013,7.8143 7.82013,7.30823 Z M 4.69922,19.7305 9.47229,13.3665 C 9.59144,13.2077 9.65588,13.0144 9.65588,12.8158 V 10.062 H 24.3426 v 1.8359 H 9.52325 c -0.5069,0 -0.91797,0.4111 -0.91797,0.918 0,0.5069 0.41107,0.9179 0.91797,0.9179 H 24.8016 l 4.4974,5.9964 c 0.294,0.3924 0.4766,0.862 0.5317,1.347 H 4.1679 c 0.05508,-0.4851 0.23766,-0.9547 0.53132,-1.3467 z m 2.20294,22.1834 c -1.51841,0 -2.75372,-1.2353 -2.75372,-2.7537 V 38.2331 H 20.8256 c -0.2911,1.1902 -0.2891,2.4614 0.0442,3.6809 z M 21.5456,36.4064 H 4.14835 V 22.9129 H 29.8502 v 7.501 l -5.5646,3.213 c -1.1603,0.6703 -2.0981,1.6243 -2.74,2.7795 z m 9.1656,8.3494 c -2.6343,1.5211 -6.0004,0.6215 -7.5226,-2.0146 -1.5294,-2.6616 -0.6026,-6.0125 2.0151,-7.5245 l 4.9825,-2.8767 5.5075,9.539 z m 11.1289,-6.4255 -4.5565,2.6308 -5.5076,-9.5392 4.5566,-2.6305 c 2.636,-1.5218 6.001,-0.6207 7.5232,2.0155 1.5289,2.6495 0.5992,6.0135 -2.0157,7.5234 z"
       fill="#00b288"
       id="path11" />
  </g>
  <defs
     id="defs18">
    <clipPath
       id="clip0_648:1330">
      <rect
         width="47"
         height="47"
         fill="#ffffff"
         transform="translate(0.871094,0.332031)"
         id="rect15"
         x="0"
         y="0" />
    </clipPath>
  </defs>
</svg>
