<svg width="62" height="62" viewBox="0 0 62 62" fill="none" xmlns="http://www.w3.org/2000/svg">
<path d="M29.1519 19.9844H26.3365V17.169C26.3365 16.5838 25.862 16.1095 25.277 16.1095C24.692 16.1095 24.2175 16.5839 24.2175 17.169V19.9844H21.4021C20.817 19.9844 20.3426 20.4588 20.3426 21.0439C20.3426 21.629 20.817 22.1034 21.4021 22.1034H24.2175V24.9189C24.2175 25.5041 24.692 25.9783 25.277 25.9783C25.862 25.9783 26.3365 25.5039 26.3365 24.9189V22.1034H29.1519C29.737 22.1034 30.2114 21.629 30.2114 21.0439C30.2114 20.4588 29.737 19.9844 29.1519 19.9844Z" fill="#00B288"/>
<path d="M25.2768 11.7203C20.1358 11.7203 15.9531 15.903 15.9531 21.044C15.9531 26.185 20.1358 30.3676 25.2768 30.3676C30.4178 30.3676 34.6005 26.185 34.6005 21.044C34.6005 15.903 30.4178 11.7203 25.2768 11.7203ZM25.2768 28.2485C21.3042 28.2485 18.0722 25.0165 18.0722 21.0439C18.0722 17.0712 21.3042 13.8392 25.2768 13.8392C29.2494 13.8392 32.4814 17.0712 32.4814 21.0439C32.4814 25.0165 29.2494 28.2485 25.2768 28.2485Z" fill="#00B288"/>
<path d="M46.3686 13.6166L36.939 4.187C36.7403 3.98833 36.4708 3.87665 36.1898 3.87665H7.05349C5.30086 3.87665 3.875 5.30262 3.875 7.05525V54.945C3.875 56.6976 5.30086 58.1235 7.05349 58.1235H27.2922C27.8773 58.1235 28.3517 57.649 28.3517 57.064C28.3517 56.479 27.8772 56.0045 27.2922 56.0045H7.05349C6.46925 56.0045 5.99403 55.5292 5.99403 54.9451V7.05525C5.99403 6.471 6.46935 5.99578 7.05349 5.99578H35.1302V12.2468C35.1302 13.9994 36.5561 15.4253 38.3087 15.4253H44.5598V34.2845C44.5598 34.8695 45.0342 35.3439 45.6192 35.3439C46.2042 35.3439 46.6787 34.8694 46.6787 34.2845V14.3657C46.6789 14.0847 46.5672 13.8153 46.3686 13.6166ZM38.3088 13.3063C37.7246 13.3063 37.2494 12.831 37.2494 12.2468V7.49412L43.0616 13.3063H38.3088Z" fill="#00B288"/>
<path d="M38.8385 33.5427H20.4385C19.8534 33.5427 19.379 34.0172 19.379 34.6022C19.379 35.1872 19.8535 35.6617 20.4385 35.6617H38.8385C39.4236 35.6617 39.898 35.1873 39.898 34.6022C39.8981 34.0172 39.4236 33.5427 38.8385 33.5427Z" fill="#00B288"/>
<path d="M15.1675 33.5427H11.7152C11.1301 33.5427 10.6558 34.0172 10.6558 34.6022C10.6558 35.1872 11.1302 35.6617 11.7152 35.6617H15.1675C15.7526 35.6617 16.227 35.1872 16.227 34.6022C16.227 34.0172 15.7526 33.5427 15.1675 33.5427Z" fill="#00B288"/>
<path d="M30.9983 39.4759H20.4385C19.8534 39.4759 19.379 39.9503 19.379 40.5353C19.379 41.1203 19.8535 41.5948 20.4385 41.5948H30.9983C31.5833 41.5948 32.0577 41.1204 32.0577 40.5353C32.0577 39.9503 31.5833 39.4759 30.9983 39.4759Z" fill="#00B288"/>
<path d="M15.1675 39.4759H11.7152C11.1301 39.4759 10.6558 39.9503 10.6558 40.5353C10.6558 41.1203 11.1302 41.5948 11.7152 41.5948H15.1675C15.7526 41.5948 16.227 41.1203 16.227 40.5353C16.227 39.9503 15.7526 39.4759 15.1675 39.4759Z" fill="#00B288"/>
<path d="M21.1871 45.7197C20.9901 45.5226 20.7177 45.4092 20.4381 45.4092C20.1594 45.4092 19.8871 45.5225 19.689 45.7197C19.4919 45.9167 19.3785 46.1901 19.3785 46.4688C19.3785 46.7474 19.4918 47.0208 19.689 47.2178C19.8861 47.4149 20.1594 47.5283 20.4381 47.5283C20.7178 47.5283 20.9901 47.415 21.1871 47.2178C21.3853 47.0208 21.4977 46.7474 21.4977 46.4688C21.4977 46.1901 21.3853 45.9167 21.1871 45.7197Z" fill="#00B288"/>
<path d="M15.1675 45.4092H11.7152C11.1301 45.4092 10.6558 45.8837 10.6558 46.4687C10.6558 47.0538 11.1302 47.5281 11.7152 47.5281H15.1675C15.7526 47.5281 16.227 47.0537 16.227 46.4687C16.2271 45.8837 15.7526 45.4092 15.1675 45.4092Z" fill="#00B288"/>
<path d="M51.5559 44.9852C51.2449 44.9852 50.9393 45.0084 50.6399 45.0504C51.3075 42.8112 50.7591 40.2837 48.9942 38.5186C47.7535 37.278 46.104 36.5947 44.3493 36.5947C42.5946 36.5947 40.945 37.278 39.7044 38.5186L31.3136 46.9094C30.0729 48.1501 29.3896 49.7996 29.3896 51.5543C29.3896 53.309 30.0729 54.9586 31.3136 56.1992C32.5944 57.4799 34.2761 58.1201 35.9585 58.1201C37.6404 58.1201 39.3229 57.4796 40.6034 56.1992L44.9934 51.8092C45.1281 55.3135 48.0193 58.1232 51.556 58.1232C55.1782 58.1232 58.125 55.1764 58.125 51.5542C58.125 47.9319 55.1781 44.9852 51.5559 44.9852ZM39.1049 54.7009C37.3699 56.436 34.5468 56.436 32.8119 54.7009C31.9713 53.8604 31.5085 52.743 31.5085 51.5544C31.5085 50.3658 31.9713 49.2482 32.8119 48.4079L36.2581 44.9617L42.5511 51.2547L39.1049 54.7009ZM44.0493 49.7563L37.7564 43.4632L41.2026 40.0171C42.0432 39.1765 43.1605 38.7137 44.3491 38.7137C45.5377 38.7137 46.6553 39.1765 47.4956 40.0171C49.2306 41.752 49.2306 44.5751 47.4956 46.3101L44.0493 49.7563ZM50.4964 55.8758C48.5527 55.399 47.1059 53.6428 47.1059 51.5543C47.1059 49.4657 48.5526 47.7094 50.4964 47.2328V55.8758ZM52.6153 55.8758V47.2327C54.5591 47.7094 56.0058 49.4657 56.0058 51.5542C56.0058 53.6427 54.5591 55.399 52.6153 55.8758Z" fill="#00B288"/>
</svg>
