<svg width="21" height="21" viewBox="0 0 21 21" fill="none" xmlns="http://www.w3.org/2000/svg">
<path d="M20.7305 10.29C20.5358 10.0212 20.2791 9.80336 19.9822 9.65496C19.6853 9.50655 19.357 9.43196 19.0251 9.43752H18.8051V8.06261C18.8051 7.78827 18.7504 7.51667 18.6442 7.26373C18.5379 7.01078 18.3823 6.78157 18.1863 6.58951C17.9904 6.39745 17.758 6.24641 17.503 6.14523C17.2479 6.04404 16.9752 5.99475 16.7008 6.00024H12.2448C12.0781 5.99925 11.9163 5.94372 11.7841 5.84212L9.03349 3.69726C8.65702 3.40746 8.19521 3.25035 7.72007 3.25041H3.97923C3.70486 3.24493 3.43216 3.29422 3.17709 3.3954C2.92201 3.49659 2.6897 3.64763 2.49374 3.83969C2.29779 4.03174 2.14213 4.26096 2.03589 4.5139C1.92964 4.76685 1.87495 5.03844 1.875 5.31278V17.687C1.87441 18.0675 1.98429 18.4401 2.19132 18.7594C2.3816 19.0618 2.64532 19.3112 2.95793 19.4843C3.27054 19.6573 3.62187 19.7485 3.97923 19.7494H17.0447C17.4937 19.7605 17.934 19.6249 18.2989 19.3631C18.6638 19.1014 18.9333 18.7277 19.0664 18.2988L21.0331 12.1117C21.1277 11.8054 21.1497 11.4813 21.0971 11.1651C21.0446 10.8489 20.9191 10.5492 20.7305 10.29ZM3.25031 5.31278C3.25014 5.21892 3.2692 5.12603 3.30631 5.03981C3.34342 4.9536 3.39779 4.8759 3.46608 4.81149C3.53437 4.74708 3.61513 4.69734 3.70338 4.66532C3.79164 4.63331 3.88551 4.61969 3.97923 4.62532H7.72007C7.88907 4.62531 8.05338 4.68087 8.18767 4.78344L10.9383 6.9283C11.3121 7.21805 11.7718 7.37525 12.2448 7.37515H16.7008C16.7946 7.36952 16.8884 7.38313 16.9767 7.41515C17.0649 7.44716 17.1457 7.49691 17.214 7.56132C17.2823 7.62572 17.3366 7.70343 17.3738 7.78964C17.4109 7.87585 17.4299 7.96875 17.4298 8.06261V9.43752H6.42728C5.98177 9.43084 5.54609 9.56854 5.18538 9.83001C4.82467 10.0915 4.55833 10.4627 4.4262 10.888L3.25031 14.6209V5.31278ZM19.754 11.6992L17.7873 17.8864C17.7432 18.0325 17.6516 18.1598 17.5271 18.2482C17.4026 18.3365 17.2522 18.381 17.0997 18.3744H4.03424C3.87915 18.3741 3.72791 18.3261 3.60102 18.237L5.80151 11.3005C5.84565 11.1544 5.9372 11.0271 6.06171 10.9387C6.18621 10.8503 6.3366 10.8059 6.48916 10.8124H19.0251C19.141 10.8116 19.2554 10.8379 19.3593 10.8893C19.4632 10.9406 19.5536 11.0155 19.6234 11.108C19.6888 11.1901 19.7347 11.286 19.7573 11.3885C19.78 11.491 19.7788 11.5973 19.754 11.6992Z" fill="#A0A0A0"/>
</svg>
