<svg width="28" height="42" viewBox="0 0 28 42" fill="none" xmlns="http://www.w3.org/2000/svg">
<path d="M24.6978 39.8103L14.865 32.4919C14.766 32.4199 14.6535 32.3807 14.5386 32.3781C14.4237 32.3755 14.3101 32.4097 14.2091 32.4773L3.27842 39.86C3.14875 39.9519 3.00174 40.0002 2.85215 40C2.70256 39.9998 2.55565 39.9511 2.42614 39.8589C2.29663 39.7667 2.18908 39.6341 2.11429 39.4745C2.03949 39.315 2.00008 39.1339 2 38.9496V3.11306C2.01233 2.80607 2.12216 2.51736 2.30576 2.30925C2.48937 2.10114 2.73203 1.9903 2.98139 2.00067H25.0186C25.268 1.9903 25.5106 2.10114 25.6942 2.30925C25.8778 2.51736 25.9877 2.80607 26 3.11306V38.9379C25.9976 39.2055 25.9126 39.4619 25.7624 39.6551C25.6245 39.8238 25.4448 39.9307 25.2518 39.9588C25.0589 39.9869 24.8638 39.9346 24.6978 39.8103V39.8103Z" stroke="#00B288" stroke-width="2.2" stroke-miterlimit="10"/>
</svg>
