<svg width="21" height="21" viewBox="0 0 21 21" fill="none" xmlns="http://www.w3.org/2000/svg">
<path d="M20.7268 10.2898C20.5355 10.0198 20.2772 9.79979 19.9807 9.64979C19.6842 9.4998 19.359 9.4298 19.0243 9.4298H18.8043V8.04984C18.8043 7.77985 18.7469 7.49986 18.6417 7.24987C18.5365 6.99988 18.3835 6.76989 18.1826 6.57989C17.9913 6.3899 17.7522 6.2399 17.5035 6.13991C17.2453 6.03991 16.9775 5.98991 16.7001 5.99991H12.243C12.0804 5.99991 11.9178 5.93991 11.7839 5.83992L9.0293 3.69999C8.65629 3.40999 8.19719 3.25 7.71896 3.25H3.97921C3.70183 3.25 3.43403 3.29 3.17578 3.39C2.91754 3.48999 2.68799 3.63999 2.4967 3.82998C2.30541 4.01997 2.14281 4.24997 2.0376 4.49996C1.93239 4.76995 1.875 5.03994 1.875 5.30993V17.6895C1.875 18.0695 1.98021 18.4395 2.19063 18.7595C2.38192 19.0595 2.64017 19.3095 2.9558 19.4795C3.27143 19.6495 3.61575 19.7395 3.97921 19.7495H17.0444C17.494 19.7595 17.9339 19.6295 18.2974 19.3595C18.6608 19.0995 18.9286 18.7195 19.0625 18.2995L21.0328 12.1097C21.1285 11.7997 21.1476 11.4797 21.0998 11.1597C21.052 10.8398 20.9181 10.5398 20.7363 10.2798L20.7268 10.2898ZM3.2523 5.30993C3.2523 5.21994 3.27143 5.11994 3.30969 5.03994C3.34794 4.95994 3.40533 4.87995 3.47228 4.80995C3.53924 4.74995 3.62532 4.69995 3.7114 4.65995C3.79748 4.62996 3.89313 4.60996 3.98877 4.61996H7.72852C7.90068 4.61996 8.06328 4.67995 8.19719 4.77995L10.9518 6.91988C11.3248 7.20987 11.7839 7.36987 12.2621 7.36987H16.7192C16.8149 7.36987 16.9105 7.36987 16.9966 7.40986C17.0827 7.43986 17.1688 7.48986 17.2357 7.55986C17.3027 7.61986 17.3601 7.69986 17.3983 7.78985C17.4366 7.87985 17.4557 7.96985 17.4557 8.05984V9.4398H6.42774C5.9782 9.4398 5.5478 9.56979 5.18434 9.82979C4.82089 10.0898 4.55308 10.4598 4.42874 10.8898L3.2523 14.6196V5.30993Z" fill="#00664E"/>
</svg>
