<svg width="30" height="31" viewBox="0 0 30 31" fill="none" xmlns="http://www.w3.org/2000/svg">
<rect x="1.875" y="1.88281" width="26.25" height="26.25" rx="13.125" fill="#00B288"/>
<path fill-rule="evenodd" clip-rule="evenodd" d="M9.02922 9.03703C9.35594 8.71031 9.88567 8.71031 10.2124 9.03703L14.9614 13.786L19.7108 9.03942C20.0376 8.71279 20.5675 8.71279 20.8943 9.03942C21.2211 9.36605 21.2211 9.89561 20.8943 10.2222L16.1431 14.9706L20.9682 19.7957C21.295 20.1224 21.295 20.6521 20.9682 20.9789C20.6415 21.3056 20.1118 21.3056 19.7851 20.9789L15.0368 16.2306L10.2865 20.9781C9.95969 21.3047 9.42981 21.3047 9.10299 20.9781C8.77617 20.6515 8.77617 20.1219 9.10299 19.7953L13.855 15.046L9.02922 10.2202C8.7025 9.89348 8.7025 9.36376 9.02922 9.03703Z" fill="white"/>
</svg>
