<svg width="178" height="178" viewBox="0 0 178 178" fill="none" xmlns="http://www.w3.org/2000/svg">
<mask id="path-1-inside-1" fill="white">
<path d="M157.402 152.159C157.127 151.8 156.681 151.106 156.498 150.816C156.296 150.501 156.133 150.257 156.032 150.121C143.299 133.467 131.801 117.825 120.879 102.295C118.662 99.1714 116.479 96.023 114.332 92.8499C114.803 92.1425 115.282 91.4319 115.744 90.7223C116.853 89.0449 117.985 87.3646 119.125 85.674C126.43 74.833 133.986 63.6239 136.842 50.5666C139.704 38.1553 137.252 25.1129 130.078 14.5887C124.425 6.55575 115.552 1.38471 105.777 0.425879C105.337 0.351828 104.899 0.312891 104.415 0.275344C101.942 0.0869141 99.2406 0 95.9132 0H82.0879C78.7605 0 76.0589 0.0869141 73.5777 0.275344C73.1024 0.312891 72.6637 0.352176 72.3897 0.402934C62.5556 1.33604 53.6191 6.51751 47.9234 14.5887C40.7499 25.1123 38.2972 38.1532 41.1573 50.5638C44.0154 63.6242 51.571 74.833 58.8763 85.6743C60.0163 87.3646 61.1493 89.0452 62.2472 90.708C62.7162 91.4277 63.1959 92.139 63.6698 92.8503C61.515 96.0167 59.339 99.1724 57.1151 102.305C46.2001 117.825 34.7041 133.467 21.957 150.14C21.8728 150.253 21.7063 150.502 21.4991 150.825C21.3152 151.112 20.8719 151.803 20.598 152.159C19.4653 152.919 18.9963 154.352 19.4611 155.634C19.926 156.916 21.2046 157.716 22.5608 157.574L47.7006 154.927L53.6615 175.846C53.9792 176.961 54.9165 177.788 56.0617 177.966C56.2119 177.989 56.3635 178 56.515 178C57.5114 178 58.441 177.5 58.9907 176.669L80.5843 143.967C83.3892 139.728 86.1945 135.481 89.0007 131.228C91.8063 135.48 94.6116 139.726 97.4164 143.967L119.01 176.669C119.56 177.5 120.489 178 121.486 178C121.638 178 121.789 177.988 121.939 177.965C123.084 177.788 124.022 176.961 124.339 175.846L130.3 154.927L155.44 157.574C157.053 157.725 158.494 156.569 158.697 154.962C158.825 153.859 158.325 152.776 157.402 152.159ZM46.9531 49.2917C44.5115 38.5238 46.6051 27.2257 52.743 18.0475C57.298 11.6319 64.3366 7.42281 72.1439 6.44624C72.4693 6.6385 72.8031 6.81997 73.0996 7.00666C73.5936 7.31677 74.0355 7.58899 74.3077 7.73083C77.6345 9.54525 80.7978 11.6454 83.7612 14.0074C84.1732 14.3467 84.5577 14.694 84.9436 15.0407C79.2896 21.9976 76.4914 30.843 77.1154 39.7861C78.0881 47.2566 80.9434 54.3571 85.4136 60.4209C84.7986 61.3057 84.186 62.1947 83.5689 63.0704C81.9016 65.439 80.1765 67.8868 78.6322 70.3277C75.0823 75.9434 71.2466 81.7291 67.2778 87.5576L67.2089 87.454C66.0905 85.7605 64.9478 84.0629 63.7974 82.3566C56.8019 71.9794 49.5692 61.2483 46.9531 49.2917ZM89.0007 19.4507C93.3433 25.1206 95.4671 32.1805 94.9731 39.3053C94.2524 44.9408 92.2058 50.3253 89.0004 55.0163C85.7964 50.3274 83.7501 44.9457 83.0294 39.3126C82.5333 32.1857 84.6568 25.1227 89.0007 19.4507ZM86.5348 124.196L86.5313 124.202L86.5237 124.213C82.8934 129.724 79.2643 135.217 75.6361 140.694L57.5983 168.009L52.7242 150.903C52.3609 149.629 51.1969 148.75 49.872 148.749C49.7691 148.749 49.6648 148.755 49.5605 148.765L28.8009 150.951C40.7457 135.264 51.6145 120.44 61.96 105.728C64.5848 102.03 67.1794 98.3029 69.6954 94.5726L69.7378 94.51L69.7416 94.5044C74.6436 87.4077 79.322 80.3402 83.6465 73.4987C85.1108 71.184 86.7173 68.9023 88.4194 66.4875C89.435 65.0461 90.4574 63.5947 91.4527 62.1286L91.4899 62.0726L91.4938 62.0671C96.5136 55.5829 99.752 47.8997 100.887 39.7785C101.575 29.8167 98.0433 20.0247 91.1558 12.7944C91.1173 12.7534 91.0721 12.7138 91.0331 12.6728L91.03 12.6682L91.0265 12.6662C89.9196 11.5116 88.7455 10.4234 87.51 9.40758C86.0224 8.20955 84.4419 7.05116 82.7686 5.93241H95.9128C99.088 5.93241 101.646 6.0148 103.957 6.19037C104.252 6.21366 104.526 6.23243 104.965 6.30057C113.119 7.06855 120.531 11.359 125.258 18.0472C131.396 27.226 133.489 38.5255 131.046 49.2942C128.432 61.2476 121.199 71.9788 114.204 82.3563C113.054 84.0626 111.911 85.7605 110.782 87.4682C109.959 88.7313 109.138 89.9641 108.267 91.2563L108.264 91.2608L108.257 91.2719C103.722 98.1677 99.1801 105.054 94.6307 111.93L86.5348 124.196ZM128.441 148.765C127.007 148.614 125.672 149.516 125.277 150.903L120.403 168.009L102.365 140.693C99.0956 135.752 95.8259 130.803 92.5559 125.846L99.582 115.201C103.331 109.526 107.073 103.853 110.807 98.1816C112.541 100.702 114.268 103.23 116.033 105.718C126.396 120.455 137.28 135.296 149.2 150.951L128.441 148.765Z"/>
</mask>
<path d="M157.402 152.159C157.127 151.8 156.681 151.106 156.498 150.816C156.296 150.501 156.133 150.257 156.032 150.121C143.299 133.467 131.801 117.825 120.879 102.295C118.662 99.1714 116.479 96.023 114.332 92.8499C114.803 92.1425 115.282 91.4319 115.744 90.7223C116.853 89.0449 117.985 87.3646 119.125 85.674C126.43 74.833 133.986 63.6239 136.842 50.5666C139.704 38.1553 137.252 25.1129 130.078 14.5887C124.425 6.55575 115.552 1.38471 105.777 0.425879C105.337 0.351828 104.899 0.312891 104.415 0.275344C101.942 0.0869141 99.2406 0 95.9132 0H82.0879C78.7605 0 76.0589 0.0869141 73.5777 0.275344C73.1024 0.312891 72.6637 0.352176 72.3897 0.402934C62.5556 1.33604 53.6191 6.51751 47.9234 14.5887C40.7499 25.1123 38.2972 38.1532 41.1573 50.5638C44.0154 63.6242 51.571 74.833 58.8763 85.6743C60.0163 87.3646 61.1493 89.0452 62.2472 90.708C62.7162 91.4277 63.1959 92.139 63.6698 92.8503C61.515 96.0167 59.339 99.1724 57.1151 102.305C46.2001 117.825 34.7041 133.467 21.957 150.14C21.8728 150.253 21.7063 150.502 21.4991 150.825C21.3152 151.112 20.8719 151.803 20.598 152.159C19.4653 152.919 18.9963 154.352 19.4611 155.634C19.926 156.916 21.2046 157.716 22.5608 157.574L47.7006 154.927L53.6615 175.846C53.9792 176.961 54.9165 177.788 56.0617 177.966C56.2119 177.989 56.3635 178 56.515 178C57.5114 178 58.441 177.5 58.9907 176.669L80.5843 143.967C83.3892 139.728 86.1945 135.481 89.0007 131.228C91.8063 135.48 94.6116 139.726 97.4164 143.967L119.01 176.669C119.56 177.5 120.489 178 121.486 178C121.638 178 121.789 177.988 121.939 177.965C123.084 177.788 124.022 176.961 124.339 175.846L130.3 154.927L155.44 157.574C157.053 157.725 158.494 156.569 158.697 154.962C158.825 153.859 158.325 152.776 157.402 152.159ZM46.9531 49.2917C44.5115 38.5238 46.6051 27.2257 52.743 18.0475C57.298 11.6319 64.3366 7.42281 72.1439 6.44624C72.4693 6.6385 72.8031 6.81997 73.0996 7.00666C73.5936 7.31677 74.0355 7.58899 74.3077 7.73083C77.6345 9.54525 80.7978 11.6454 83.7612 14.0074C84.1732 14.3467 84.5577 14.694 84.9436 15.0407C79.2896 21.9976 76.4914 30.843 77.1154 39.7861C78.0881 47.2566 80.9434 54.3571 85.4136 60.4209C84.7986 61.3057 84.186 62.1947 83.5689 63.0704C81.9016 65.439 80.1765 67.8868 78.6322 70.3277C75.0823 75.9434 71.2466 81.7291 67.2778 87.5576L67.2089 87.454C66.0905 85.7605 64.9478 84.0629 63.7974 82.3566C56.8019 71.9794 49.5692 61.2483 46.9531 49.2917ZM89.0007 19.4507C93.3433 25.1206 95.4671 32.1805 94.9731 39.3053C94.2524 44.9408 92.2058 50.3253 89.0004 55.0163C85.7964 50.3274 83.7501 44.9457 83.0294 39.3126C82.5333 32.1857 84.6568 25.1227 89.0007 19.4507ZM86.5348 124.196L86.5313 124.202L86.5237 124.213C82.8934 129.724 79.2643 135.217 75.6361 140.694L57.5983 168.009L52.7242 150.903C52.3609 149.629 51.1969 148.75 49.872 148.749C49.7691 148.749 49.6648 148.755 49.5605 148.765L28.8009 150.951C40.7457 135.264 51.6145 120.44 61.96 105.728C64.5848 102.03 67.1794 98.3029 69.6954 94.5726L69.7378 94.51L69.7416 94.5044C74.6436 87.4077 79.322 80.3402 83.6465 73.4987C85.1108 71.184 86.7173 68.9023 88.4194 66.4875C89.435 65.0461 90.4574 63.5947 91.4527 62.1286L91.4899 62.0726L91.4938 62.0671C96.5136 55.5829 99.752 47.8997 100.887 39.7785C101.575 29.8167 98.0433 20.0247 91.1558 12.7944C91.1173 12.7534 91.0721 12.7138 91.0331 12.6728L91.03 12.6682L91.0265 12.6662C89.9196 11.5116 88.7455 10.4234 87.51 9.40758C86.0224 8.20955 84.4419 7.05116 82.7686 5.93241H95.9128C99.088 5.93241 101.646 6.0148 103.957 6.19037C104.252 6.21366 104.526 6.23243 104.965 6.30057C113.119 7.06855 120.531 11.359 125.258 18.0472C131.396 27.226 133.489 38.5255 131.046 49.2942C128.432 61.2476 121.199 71.9788 114.204 82.3563C113.054 84.0626 111.911 85.7605 110.782 87.4682C109.959 88.7313 109.138 89.9641 108.267 91.2563L108.264 91.2608L108.257 91.2719C103.722 98.1677 99.1801 105.054 94.6307 111.93L86.5348 124.196ZM128.441 148.765C127.007 148.614 125.672 149.516 125.277 150.903L120.403 168.009L102.365 140.693C99.0956 135.752 95.8259 130.803 92.5559 125.846L99.582 115.201C103.331 109.526 107.073 103.853 110.807 98.1816C112.541 100.702 114.268 103.23 116.033 105.718C126.396 120.455 137.28 135.296 149.2 150.951L128.441 148.765Z" fill="#FB87A3" stroke="white" stroke-width="2" mask="url(#path-1-inside-1)"/>
</svg>
