<svg width="58" height="81" viewBox="0 0 58 81" fill="none" xmlns="http://www.w3.org/2000/svg">
<path d="M56.7519 64.053C50.7764 58.0753 45.5512 52.6907 41.0105 47.8254C48.6104 38.3463 52.1003 32.2016 51.9903 28.4968C51.7509 20.445 48.8155 12.8044 43.5019 6.40019C43.4788 6.37081 43.4543 6.34269 43.4287 6.31565C39.7934 2.30169 34.4526 0 28.7706 0C23.0886 0 17.7478 2.30184 14.1125 6.31597C14.0868 6.343 14.0625 6.37112 14.0393 6.4005C8.72549 12.8049 5.79027 20.4455 5.55102 28.497C5.43123 32.528 9.75045 39.3473 16.2377 47.4594C15.5171 48.2657 14.8462 49.0178 14.2172 49.7231C9.55012 54.9558 6.97938 57.8383 0.786769 64.053C0.365875 64.4753 0.31116 65.1069 0.654061 65.5856L10.5871 79.4426C10.8283 79.779 11.2313 79.9879 11.6692 80.0037C11.6869 80.0043 11.7045 80.0046 11.7222 80.0046C12.1407 80.0046 12.5373 79.827 12.7954 79.5216C14.2452 77.8062 16.7765 75.0761 19.9816 71.6195C22.6504 68.7411 25.6546 65.5009 28.7791 62.0426C31.6292 65.2005 34.5873 68.4132 37.5592 71.6187C40.7645 75.0756 43.2961 77.8062 44.7459 79.5216C45.004 79.827 45.4004 80.0046 45.819 80.0046C45.8366 80.0046 45.8543 80.0043 45.8721 80.0037C46.31 79.9879 46.7129 79.779 46.9542 79.4426L56.8859 65.5873C57.2293 65.1079 57.1741 64.4753 56.7519 64.053ZM44.0547 11.6459C47.3039 16.777 49.0938 22.5482 49.2726 28.5651C49.3338 30.6235 47.6174 35.2952 39.198 45.8714C35.6947 42.071 32.6286 38.6 29.9668 35.4218C35.5267 28.4623 39.5048 22.5811 41.7916 17.9399C42.9678 15.5527 43.7209 13.4626 44.0547 11.6459ZM28.2508 33.3449C25.7414 30.2637 23.6361 27.4712 21.901 24.9302C20.9763 23.5761 20.1603 22.2959 19.4463 21.0822C22.1719 19.3459 25.4476 18.3951 28.7708 18.3951C31.7967 18.3951 34.7231 19.1562 37.2901 20.5989C35.2495 24.0074 32.3338 28.1956 28.2508 33.3449ZM16.3145 7.79261C19.4288 4.42664 23.9569 2.50013 28.7706 2.50013C33.5822 2.50013 38.1084 4.42477 41.2226 7.78808C41.9133 9.49973 41.661 12.6379 38.5557 18.3813C35.598 16.7531 32.2404 15.8951 28.7704 15.8951C25.0191 15.8951 21.3189 16.9333 18.2028 18.8363C15.7541 14.0784 15.155 10.4932 16.3145 7.79261ZM17.9126 69.9971C15.4216 72.6836 13.3349 74.9345 11.8283 76.631L3.50687 65.0223C9.23984 59.2458 11.8051 56.3696 16.3193 51.3084C16.8224 50.7443 17.3519 50.1507 17.9119 49.5236C20.6738 52.8849 23.7577 56.4362 27.0165 60.0804C23.7853 63.663 20.6696 67.0236 17.9126 69.9971ZM45.7131 76.631C44.2064 74.9343 42.1193 72.6831 39.628 69.9963C33.7661 63.6739 25.7378 55.015 19.2995 47.0621C10.067 35.6579 8.20502 30.7087 8.26874 28.5651C8.44036 22.7865 10.0979 17.235 13.1074 12.2589C13.5667 16.0013 15.6929 20.54 19.5986 26.2597C25.862 35.4325 36.8153 47.7652 54.0321 65.0257L45.7131 76.631Z" fill="#00B288"/>
</svg>
