<svg width="16" height="16" viewBox="0 0 16 16" fill="none" xmlns="http://www.w3.org/2000/svg">
<rect width="16" height="16" rx="8" fill="#3178CC"/>
<path d="M8 6C8.55228 6 9 6.44772 9 7V11.6667C9 12.219 8.55228 12.6667 8 12.6667C7.44772 12.6667 7 12.219 7 11.6667V7C7 6.44771 7.44772 6 8 6Z" fill="white"/>
<path d="M7 4.33334C7 4.04369 7.09053 3.80461 7.2716 3.6161C7.45267 3.4276 7.69547 3.33334 8 3.33334C8.30041 3.33334 8.54115 3.4276 8.72222 3.6161C8.90741 3.80461 9 4.04369 9 4.33334C9 4.623 8.90741 4.86208 8.72222 5.05059C8.54115 5.23909 8.30041 5.33334 8 5.33334C7.69547 5.33334 7.45267 5.23909 7.2716 5.05059C7.09053 4.86208 7 4.623 7 4.33334Z" fill="white"/>
</svg>
