<svg width="24" height="24" viewBox="0 0 24 24" fill="none" xmlns="http://www.w3.org/2000/svg">
<path d="M23.4316 20.5277L17.9139 15.0095C18.8514 13.517 19.3955 11.7529 19.3955 9.85966C19.3955 4.50354 15.0535 0.162109 9.69755 0.162109C4.34163 0.162109 0 4.50354 0 9.85966C0 15.216 4.34143 19.557 9.69755 19.557C11.7578 19.557 13.6662 18.9129 15.2365 17.8184L20.6886 23.2709C21.0675 23.6493 21.5641 23.8378 22.0601 23.8378C22.5568 23.8378 23.0528 23.6493 23.4322 23.2709C24.1893 22.513 24.1893 21.2853 23.4316 20.5277ZM9.69755 16.4151C6.07744 16.4151 3.14247 13.4804 3.14247 9.86006C3.14247 6.23975 6.07744 3.30478 9.69755 3.30478C13.3179 3.30478 16.2526 6.23975 16.2526 9.86006C16.2526 13.4804 13.3179 16.4151 9.69755 16.4151Z" fill="black"/>
</svg>
