<svg width="28" height="29" viewBox="0 0 28 29" fill="none" xmlns="http://www.w3.org/2000/svg">
<path d="M27.9999 6.42236L22.5761 0.998535H11.5287V4.29279H8.23443V12.7369C4.45097 13.6536 2.20803 18.0208 3.80964 21.6741L0.72243 24.7613C-0.24081 25.7246 -0.24081 27.2921 0.72243 28.2554C1.68556 29.2186 3.25319 29.2188 4.21653 28.2554L7.29551 25.1764C8.08992 25.5167 8.9641 25.7055 9.88161 25.7055H24.7057V22.4112H28V6.42236H27.9999ZM3.0518 27.0906C2.2469 27.8313 1.14678 26.7299 1.88706 25.9259L4.67004 23.1429C5.00743 23.5786 5.39785 23.9711 5.83198 24.3104L3.0518 27.0906ZM4.94017 19.1169C4.94017 16.3923 7.15688 14.1755 9.88155 14.1755C16.437 14.447 16.435 23.7879 9.8815 24.0583C7.15687 24.0583 4.94017 21.8416 4.94017 19.1169ZM14.2342 24.0583C18.7466 20.0939 15.9576 12.5484 9.8815 12.5284V5.93992H18.1171V10.8813H23.0585V24.0583H14.2342ZM19.7643 7.1046L21.8939 9.23411H19.7643V7.1046ZM26.3528 20.7641H24.7057V9.71661L19.2819 4.29279H13.1758V2.64566H21.8939L26.3528 7.1046V20.7641Z" fill="#A1A1A1"/>
<path d="M9.88117 15.8228C8.06472 15.8228 6.58691 17.3006 6.58691 19.117C6.76788 23.4873 12.9951 23.486 13.1754 19.117C13.1754 17.3006 11.6976 15.8228 9.88117 15.8228ZM9.88117 20.7641C8.97294 20.7641 8.23404 20.0252 8.23404 19.117C8.32452 16.9319 11.4381 16.9325 11.5283 19.117C11.5283 20.0252 10.7894 20.7641 9.88117 20.7641Z" fill="#A1A1A1"/>
<path d="M18.1167 20.7639H21.411V22.411H18.1167V20.7639Z" fill="#A1A1A1"/>
<path d="M18.1167 17.4697H21.411V19.1169H18.1167V17.4697Z" fill="#A1A1A1"/>
<path d="M18.1167 14.1755H21.411V15.8227H18.1167V14.1755Z" fill="#A1A1A1"/>
</svg>
