<svg width="18" height="22" viewBox="0 0 18 22" fill="none" xmlns="http://www.w3.org/2000/svg">
<path d="M16.7917 8.25H15.4167V6.41665C15.4167 2.87848 12.5382 0 9 0C5.46178 0 2.58335 2.87848 2.58335 6.41665V8.25H1.20835C0.955004 8.25 0.75 8.455 0.75 8.70835V20.1667C0.75 21.1778 1.57221 22 2.58335 22H15.4167C16.4278 22 17.25 21.1778 17.25 20.1667V8.70835C17.25 8.455 17.045 8.25 16.7917 8.25ZM10.3723 17.8244C10.3866 17.9538 10.3451 18.0836 10.2582 18.1807C10.1714 18.2778 10.0469 18.3333 9.9167 18.3333H8.08335C7.95311 18.3333 7.82867 18.2778 7.74183 18.1807C7.65499 18.0836 7.61336 17.9538 7.62771 17.8244L7.91684 15.2244C7.44732 14.8829 7.1667 14.3426 7.1667 13.75C7.1667 12.7389 7.9889 11.9167 9.00004 11.9167C10.0112 11.9167 10.8334 12.7389 10.8334 13.75C10.8334 14.3426 10.5528 14.8829 10.0832 15.2244L10.3723 17.8244ZM12.6667 8.25H5.33335V6.41665C5.33335 4.39489 6.97823 2.75 9 2.75C11.0218 2.75 12.6667 4.39489 12.6667 6.41665V8.25Z" fill="#A1A1A1"/>
</svg>
