<svg width="38" height="38" viewBox="0 0 38 38" fill="none" xmlns="http://www.w3.org/2000/svg">
<path d="M29.8796 31.3878H36.8824C37.4997 31.3878 38 31.8884 38 32.5054C38 33.1224 37.4997 33.623 36.8824 33.623H29.8796C29.2622 33.623 28.7619 33.1224 28.7619 32.5054C28.7619 31.8884 29.2622 31.3878 29.8796 31.3878Z" fill="#00B288"/>
<path d="M25.8787 27.3865C28.7016 27.3865 30.998 29.6829 30.998 32.5056C30.998 35.3288 28.7016 37.6252 25.8787 37.6252C23.0558 37.6252 20.7594 35.3288 20.7594 32.5056C20.7594 29.6828 23.0558 27.3865 25.8787 27.3865ZM25.8787 35.3899C27.469 35.3899 28.7628 34.0959 28.7628 32.5056C28.7628 30.9153 27.469 29.6218 25.8787 29.6218C24.2884 29.6218 22.9946 30.9153 22.9946 32.5056C22.9946 34.0959 24.2884 35.3899 25.8787 35.3899Z" fill="#00B288"/>
<path d="M1.1176 31.3878H17.8218C18.4391 31.3878 18.9395 31.8884 18.9395 32.5054C18.9395 33.1224 18.4391 33.623 17.8218 33.623H1.11769C0.500355 33.623 4.97324e-05 33.1224 4.97324e-05 32.5054C4.97324e-05 31.8884 0.500273 31.3878 1.1176 31.3878Z" fill="#00B288"/>
<path d="M10.8728 13.8809C13.6958 13.8809 15.9922 16.1774 15.9922 19C15.9922 21.8227 13.6957 24.1191 10.8728 24.1191C8.04995 24.1191 5.7535 21.8227 5.7535 19C5.7535 16.1774 8.04987 13.8809 10.8728 13.8809ZM10.8728 21.8838C12.4632 21.8838 13.7569 20.5904 13.7569 19C13.7569 17.4097 12.4632 16.1163 10.8728 16.1163C9.28253 16.1163 7.98877 17.4097 7.98877 19C7.98877 20.5904 9.28253 21.8838 10.8728 21.8838Z" fill="#00B288"/>
<path d="M18.9275 17.8824H36.8824C37.4997 17.8824 38 18.383 38 19C38 19.617 37.4997 20.1177 36.8824 20.1177H18.9275C18.3102 20.1177 17.8099 19.617 17.8099 19C17.8099 18.383 18.3102 17.8824 18.9275 17.8824Z" fill="#00B288"/>
<path d="M1.11824 17.8824H6.87064C7.48797 17.8824 7.98828 18.383 7.98828 19C7.98828 19.617 7.48797 20.1177 6.87064 20.1177H1.11824C0.500912 20.1177 0.0006049 19.617 0.0006049 19C0.0006049 18.383 0.500912 17.8824 1.11824 17.8824Z" fill="#00B288"/>
<path d="M27.1287 0.375006C29.9516 0.375006 32.248 2.67146 32.248 5.49468C32.248 8.31732 29.9516 10.6138 27.1287 10.6138C24.3058 10.6138 22.0094 8.31732 22.0094 5.49468C22.0094 2.67146 24.3058 0.375006 27.1287 0.375006ZM27.1287 8.37841C28.719 8.37841 30.0128 7.08499 30.0128 5.49468C30.0128 3.90437 28.719 2.61036 27.1287 2.61036C25.5384 2.61036 24.2446 3.90437 24.2446 5.49468C24.2446 7.08499 25.5384 8.37841 27.1287 8.37841Z" fill="#00B288"/>
<path d="M1.11696 4.37679H19.0718C19.6891 4.37679 20.1895 4.87743 20.1895 5.49442C20.1895 6.11142 19.6891 6.61206 19.0718 6.61206H1.11696C0.499626 6.61206 -0.000681168 6.11142 -0.000681168 5.49442C-0.000681168 4.87743 0.499626 4.37679 1.11696 4.37679Z" fill="#00B288"/>
<path d="M31.13 4.37683H36.8824C37.4997 4.37683 38 4.87747 38 5.49455C38 6.11154 37.4997 6.61218 36.8824 6.61218H31.13C30.5126 6.61218 30.0123 6.11154 30.0123 5.49455C30.0123 4.87747 30.5126 4.37683 31.13 4.37683Z" fill="#00B288"/>
</svg>

