<svg width="42" height="42" viewBox="0 0 42 42" fill="none"
    xmlns="http://www.w3.org/2000/svg">
    <path d="M32.588 5.53875H28.4667V5.32875C28.4667 3.8325 27.1017 2.625 25.448 2.625H16.733C15.053 2.625 13.7142 3.8325 13.7142 5.32875V5.53875H9.43547C7.12547 5.53875 5.26172 7.37625 5.26172 9.63375V35.28C5.26172 37.5375 7.12547 39.375 9.43547 39.375H32.588C34.898 39.375 36.7617 37.5375 36.7617 35.28V9.63375C36.7617 7.37625 34.898 5.53875 32.588 5.53875ZM16.2867 5.32875C16.2867 5.32875 16.4442 5.11875 16.733 5.11875H25.448C25.7367 5.11875 25.8942 5.27625 25.8942 5.32875V9.00375C25.8942 9.00375 25.7367 9.21375 25.448 9.21375H16.733C16.4442 9.21375 16.2867 9.05625 16.2867 9.00375V5.32875ZM34.1892 35.3062C34.1892 36.1987 33.4542 36.9075 32.588 36.9075H9.46172C8.59547 36.9075 7.86047 36.1987 7.86047 35.3062V9.63375C7.86047 8.74125 8.59547 8.0325 9.46172 8.0325H13.7405V9.00375C13.7405 10.5 15.1055 11.7075 16.7592 11.7075H25.4742C27.1542 11.7075 28.493 10.5 28.493 9.00375V8.0325H32.6142C33.4805 8.0325 34.2155 8.74125 34.2155 9.63375V35.28L34.1892 35.3062Z" fill="#00B288"/>
    <path d="M19.5946 18.1914H13.7671C12.9842 18.1914 12.3496 18.8202 12.3496 19.5958C12.3496 20.3714 12.9842 21.0002 13.7671 21.0002H19.5946C20.3775 21.0002 21.0121 20.3714 21.0121 19.5958C21.0121 18.8202 20.3775 18.1914 19.5946 18.1914Z" fill="#00B288"/>
    <path d="M28.2834 23.8867H13.7671C12.9842 23.8867 12.3496 24.5155 12.3496 25.2911C12.3496 26.0667 12.9842 26.6955 13.7671 26.6955H28.2834C29.0662 26.6955 29.7009 26.0667 29.7009 25.2911C29.7009 24.5155 29.0662 23.8867 28.2834 23.8867Z" fill="#00B288"/>
    <path d="M25.3959 29.6094H13.7671C12.9842 29.6094 12.3496 30.2381 12.3496 31.0137C12.3496 31.7894 12.9842 32.4181 13.7671 32.4181H25.3959C26.1787 32.4181 26.8134 31.7894 26.8134 31.0137C26.8134 30.2381 26.1787 29.6094 25.3959 29.6094Z" fill="#00B288"/>
</svg>    