<svg width="30" height="30" viewBox="0 0 30 30" fill="none" xmlns="http://www.w3.org/2000/svg">
<path d="M26.1265 17.885C25.0715 17.3379 23.8616 17.0273 22.5754 17.0273H19.5186C18.1964 17.0273 16.9553 17.3558 15.8806 17.9309C13.6206 19.1387 12.0942 21.4385 12.0942 24.076V26.2504H29.9998V24.076C29.9998 21.4042 28.4341 19.0804 26.1265 17.885Z" fill="#00B288"/>
<path d="M9.94344 15.0957H7.40225C3.32076 15.0957 0 18.2484 0 22.1233V25.0986H9.63521V24.076C9.63521 21.5692 10.664 19.2127 12.5305 17.4406C12.9953 16.9993 13.4978 16.6071 14.0323 16.2685C12.8601 15.5276 11.4542 15.0957 9.94344 15.0957Z" fill="#00B288"/>
<path d="M8.66895 4.52539C8.65591 4.52539 8.64239 4.52547 8.62927 4.52562C5.87839 4.54718 3.65985 6.8045 3.68379 9.55741C3.70756 12.2972 5.9434 14.5111 8.67649 14.5111C8.68961 14.5111 8.70305 14.5111 8.71617 14.5109C10.065 14.5003 11.3238 13.9608 12.2606 12.9917C13.1756 12.045 13.6732 10.7976 13.6617 9.47912C13.6379 6.73928 11.4021 4.52539 8.66895 4.52539Z" fill="#00B288"/>
<path d="M21.0477 3.75C17.8761 3.75 15.2964 6.33769 15.2964 9.51918C15.2964 11.8181 16.644 13.8074 18.5893 14.7335C19.3352 15.0891 20.1689 15.2876 21.0477 15.2876C21.9264 15.2876 22.7601 15.0891 23.5061 14.7335C25.4513 13.8074 26.799 11.8181 26.799 9.51918C26.799 6.33769 24.2192 3.75 21.0477 3.75Z" fill="#00B288"/>
</svg>
