<svg width="32" height="32" viewBox="0 0 32 32" fill="none" xmlns="http://www.w3.org/2000/svg">
<path d="M27.8682 19.0769C26.7428 18.4933 25.4522 18.1621 24.0803 18.1621H20.8197C19.4093 18.1621 18.0855 18.5124 16.9392 19.1259C14.5285 20.4143 12.9004 22.8673 12.9004 25.6806V28H31.9997V25.6806C31.9997 22.8308 30.3296 20.352 27.8682 19.0769Z" fill="#00B288"/>
<path d="M10.6063 16.1016H7.89573C3.54215 16.1016 0 19.4644 0 23.5977V26.7713H10.2776V25.6805C10.2776 23.0066 11.3749 20.493 13.3659 18.6028C13.8617 18.1321 14.3977 17.7137 14.9678 17.3526C13.7174 16.5623 12.2178 16.1016 10.6063 16.1016Z" fill="#00B288"/>
<path d="M9.2474 4.82812C9.2335 4.82812 9.21907 4.82821 9.20508 4.82837C6.27081 4.85137 3.90436 7.25918 3.92989 10.1956C3.95525 13.1181 6.34014 15.4796 9.25544 15.4796C9.26943 15.4796 9.28377 15.4795 9.29776 15.4793C10.7365 15.4681 12.0792 14.8926 13.0784 13.8588C14.0545 12.8491 14.5853 11.5185 14.573 10.1121C14.5476 7.18961 12.1628 4.82812 9.2474 4.82812Z" fill="#00B288"/>
<path d="M22.4511 4C19.0681 4 16.3164 6.7602 16.3164 10.1538C16.3164 12.606 17.7539 14.7278 19.8288 15.7157C20.6245 16.0951 21.5138 16.3068 22.4511 16.3068C23.3885 16.3068 24.2777 16.0951 25.0734 15.7157C27.1483 14.7278 28.5858 12.606 28.5858 10.1538C28.5858 6.7602 25.8341 4 22.4511 4Z" fill="#00B288"/>
</svg>
