<svg width="16" height="20" viewBox="0 0 16 20" fill="none" xmlns="http://www.w3.org/2000/svg">
<path d="M0.329435 4.05386L7.87023 0.17219C7.95147 0.130103 8.04812 0.130103 8.1294 0.17219L15.6702 4.05386C15.7634 4.10275 15.822 4.19924 15.8223 4.30455V7.91014C15.8223 12.8932 13.3829 16.6762 8.14346 19.8199C8.05489 19.8724 7.9447 19.8724 7.85613 19.8199C2.61676 16.6762 0.177323 12.8932 0.177323 7.91014V4.30455C0.17764 4.19924 0.236156 4.10271 0.329435 4.05386ZM3.89841 10.2586C3.89841 10.4141 4.02451 10.5403 4.18011 10.5403H6.77162V13.1318C6.77162 13.2873 6.89772 13.4135 7.05332 13.4135H8.94512C9.10068 13.4135 9.22682 13.2874 9.22682 13.1318V10.5403H11.8183C11.9739 10.5403 12.1 10.4142 12.1 10.2586V8.36648C12.1 8.21093 11.9739 8.08479 11.8183 8.08479H9.22682V5.49327C9.22682 5.33772 9.10072 5.21157 8.94512 5.21157H7.05415C6.89859 5.21157 6.77245 5.33768 6.77245 5.49327V8.08479H4.18094C4.02538 8.08479 3.89924 8.21089 3.89924 8.36648L3.89841 10.2586Z" fill="white"/>
</svg>
