<svg width="36" height="36" viewBox="0 0 36 36" fill="none" xmlns="http://www.w3.org/2000/svg">
<rect width="36" height="36" rx="18" fill="#00B288"/>
<path d="M23.9341 19.5394C23.3714 19.2476 22.7261 19.082 22.0402 19.082H20.4099C19.7047 19.082 19.0428 19.2572 18.4696 19.5639C17.2643 20.2081 16.4502 21.4346 16.4502 22.8413V24.001H25.9998V22.8413C25.9998 21.4164 25.1648 20.177 23.9341 19.5394Z" fill="white"/>
<path d="M15.3032 18.0508H13.9479C11.7711 18.0508 10 19.7322 10 21.7988V23.3856H15.1388V22.8402C15.1388 21.5033 15.6875 20.2465 16.683 19.3014C16.9308 19.066 17.1988 18.8568 17.4839 18.6763C16.8587 18.2811 16.1089 18.0508 15.3032 18.0508Z" fill="white"/>
<path d="M14.6237 12.4141C14.6167 12.4141 14.6095 12.4141 14.6025 12.4142C13.1354 12.4257 11.9522 13.6296 11.9649 15.0978C11.9776 16.5591 13.1701 17.7398 14.6277 17.7398C14.6347 17.7398 14.6419 17.7398 14.6489 17.7397C15.3682 17.734 16.0396 17.4463 16.5392 16.9294C17.0273 16.4245 17.2926 15.7593 17.2865 15.0561C17.2738 13.5948 16.0814 12.4141 14.6237 12.4141Z" fill="white"/>
<path d="M21.2256 12C19.5341 12 18.1582 13.3801 18.1582 15.0769C18.1582 16.303 18.877 17.3639 19.9144 17.8579C20.3123 18.0475 20.7569 18.1534 21.2256 18.1534C21.6942 18.1534 22.1389 18.0475 22.5367 17.8579C23.5742 17.3639 24.2929 16.303 24.2929 15.0769C24.2929 13.3801 22.9171 12 21.2256 12Z" fill="white"/>
</svg>
