<svg width="106" height="106" viewBox="0 0 106 106" fill="none" xmlns="http://www.w3.org/2000/svg">
<path d="M46.5909 0.00414379C46.6155 0.578608 46.6484 0.977998 46.6484 1.38012C46.6511 15.925 46.6347 30.4699 46.6784 45.0148C46.6812 46.3169 46.3503 46.6972 45.0213 46.6917C30.479 46.6452 15.9394 46.6616 1.39705 46.6616C0.995072 46.6616 0.593093 46.6616 0.00243071 46.6616V45.1078C0.00243071 34.1191 -0.00303839 23.1304 0.00243071 12.1418C0.0106344 4.99651 4.97931 0.015086 12.1219 0.00687933C23.1531 -0.0067984 34.1843 0.00414379 45.2155 0.00414379C45.6229 0.00414379 46.0303 0.00414379 46.5909 0.00414379ZM37.8759 8.6895C37.3181 8.6895 36.8723 8.6895 36.4294 8.6895C28.4117 8.6895 20.3912 8.68677 12.3735 8.6895C9.73195 8.6895 8.69282 9.7591 8.69009 12.4591C8.68736 20.4332 8.69009 28.41 8.69009 36.3842C8.69009 36.8656 8.73384 37.3471 8.76392 37.9544C9.39013 37.9544 9.88235 37.9544 10.3773 37.9544C19.0349 37.9544 27.6925 37.9297 36.3473 37.9735C37.5615 37.979 37.9826 37.7027 37.9744 36.4006C37.9169 27.6961 37.947 18.9916 37.9443 10.2871C37.9443 9.7974 37.9033 9.31047 37.8732 8.68403L37.8759 8.6895Z" fill="white"/>
<path d="M58.3219 0.00414058H59.8341C70.775 0.00414058 81.7132 -0.00133051 92.6542 0.00414058C100.024 0.00961167 104.951 4.88709 104.965 12.2211C104.984 23.2563 104.971 34.2887 104.968 45.3239C104.968 45.7233 104.927 46.12 104.899 46.5905C104.432 46.6178 104.033 46.6616 103.633 46.6616C89.091 46.6643 74.5514 46.6425 60.0091 46.6999C58.5871 46.7054 58.2863 46.295 58.2891 44.9409C58.3383 30.4863 58.3192 16.0344 58.3192 1.57981V0.00414058H58.3219ZM96.2856 37.9598V36.4826C96.2856 28.4593 96.2884 20.4387 96.2856 12.4153C96.2856 9.73995 95.241 8.6977 92.5584 8.6977C84.538 8.69223 76.5176 8.69223 68.4972 8.6977C68.0569 8.6977 67.6166 8.74147 67.0998 8.76883C67.0725 9.31047 67.0314 9.75636 67.0287 10.205C67.026 18.956 67.0478 27.7097 66.9986 36.4608C66.9904 37.6726 67.3322 37.9981 68.5382 37.9899C77.2422 37.9407 85.9463 37.9653 94.6504 37.9653C95.1399 37.9653 95.6293 37.9653 96.2884 37.9653L96.2856 37.9598Z" fill="white"/>
<path d="M0.0736372 58.3998C0.571325 58.3752 1.01432 58.3369 1.45732 58.3369C15.9996 58.3341 30.5392 58.3505 45.0816 58.3068C46.3367 58.304 46.6867 58.6405 46.6813 59.9016C46.6375 74.493 46.6539 89.0817 46.6512 103.673C46.6512 104.072 46.6047 104.472 46.5746 104.926C46.1426 104.953 45.7898 104.994 45.4343 104.997C34.2199 104.997 23.0083 105.019 11.7939 104.989C5.7615 104.972 1.09089 100.935 0.11739 94.9822C0.0298845 94.4461 0.00800807 93.8935 0.00800807 93.3491C0.00253898 82.0869 0.00253898 70.8246 0.00800807 59.5624C0.00800807 59.2068 0.0490263 58.8512 0.0736372 58.4025V58.3998ZM8.68746 67.1152C8.68746 67.7034 8.68746 68.111 8.68746 68.5186C8.68746 76.4954 8.68747 84.4723 8.69293 92.4491C8.69293 95.316 9.69104 96.3062 12.5569 96.3062C20.487 96.309 28.4145 96.3062 36.3447 96.3062C36.8287 96.3062 37.3127 96.3062 37.9499 96.3062C37.9499 95.6415 37.9499 95.1491 37.9499 94.6594C37.9499 85.9522 37.9253 77.2477 37.9745 68.5405C37.9827 67.3231 37.6299 67.0058 36.4349 67.0113C27.6844 67.0605 18.9366 67.0359 10.186 67.0386C9.74027 67.0386 9.29727 67.0824 8.68746 67.1125V67.1152Z" fill="white"/>
<path d="M87.3876 58.4464V67.0387C86.7778 67.0387 86.2418 67.0387 85.7086 67.0387C79.9688 67.0387 74.229 67.0633 68.4892 67.0196C67.3844 67.0114 66.9605 67.3013 66.9988 68.4667C67.0781 70.8274 67.0234 73.1937 67.0234 75.6803H58.467C58.426 75.3931 58.3276 75.0238 58.3276 74.6572C58.3166 69.5992 58.3276 64.5412 58.3057 59.4831C58.303 58.7172 58.4561 58.3205 59.3503 58.3233C68.5056 58.3506 77.6636 58.3424 86.8188 58.3479C86.9911 58.3479 87.1634 58.4081 87.3849 58.4491L87.3876 58.4464Z" fill="white"/>
<path d="M75.8831 104.956V96.3036C76.3972 96.3036 76.873 96.3036 77.3516 96.3036C82.4515 96.3036 87.5514 96.3091 92.6514 96.3009C95.2136 96.2954 96.2664 95.2203 96.2801 92.6243C96.2883 90.9912 96.2801 89.3608 96.2801 87.6401H104.905C104.99 92.3836 105.64 97.2118 101.96 101.162C99.9143 103.356 97.4177 104.828 94.4534 104.907C88.3144 105.071 82.1698 104.956 75.8804 104.956H75.8831Z" fill="white"/>
<path d="M104.907 58.4491V75.6748H96.3921V58.4491H104.907Z" fill="white"/>
<path d="M58.3955 87.6266H66.9464V104.923H58.3955V87.6266Z" fill="white"/>
<path d="M87.4288 75.8472V87.3721H75.8262C75.8262 85.6815 75.8262 83.9663 75.8262 82.2511C75.8262 80.473 75.8344 78.6976 75.8234 76.9195C75.8207 76.3287 75.8398 75.8363 76.6547 75.839C80.1987 75.8581 83.7427 75.8472 87.4261 75.8472H87.4288Z" fill="white"/>
<path d="M17.5796 29.1542V17.6102H29.1467C29.1467 20.54 29.1467 23.4424 29.1467 26.3476C29.1467 28.2187 28.2197 29.1542 26.3657 29.1542C23.4616 29.1542 20.5575 29.1542 17.5823 29.1542H17.5796Z" fill="white"/>
<path d="M87.3846 29.1459C83.7066 29.1459 80.1189 29.1596 76.5312 29.1131C76.2933 29.1104 75.8639 28.6289 75.8612 28.3636C75.8175 24.8156 75.8311 21.2676 75.8311 17.6156H87.3873V29.1459H87.3846Z" fill="white"/>
<path d="M29.1442 87.4241H17.5962V75.85C21.2386 75.85 24.8263 75.8336 28.4113 75.8883C28.6602 75.891 29.1086 76.4408 29.1114 76.7418C29.1606 80.246 29.1442 83.7502 29.1442 87.4213V87.4241Z" fill="white"/>
</svg>
