<svg width="40" height="40" viewBox="0 0 40 40" fill="none" xmlns="http://www.w3.org/2000/svg">
<path d="M1.25 20C1.25 23.6875 2.3125 27.125 4.125 30H35.8125C37.625 27.125 38.6875 23.6875 38.6875 20C38.6875 16.3125 37.625 12.875 35.8125 10H4.125C2.3125 12.875 1.25 16.3125 1.25 20Z" fill="#FFCE31"/>
<path d="M35.875 10C32.5625 4.75 26.6875 1.25 20 1.25C13.3125 1.25 7.4375 4.75 4.125 10H35.875ZM4.125 30C7.4375 35.25 13.3125 38.75 20 38.75C26.6875 38.75 32.5625 35.25 35.875 30H4.125Z" fill="#ED4C5C"/>
<path d="M5.75 17.9375H7.75V19.0625H5.75V17.9375ZM5.75 26.1875H7.8125V27.25H5.75V26.1875Z" fill="#C8B100"/>
<path d="M5.5625 24.4375C5.375 24.5625 5.25 24.6875 5.25 24.75C5.25 24.8125 5.3125 24.875 5.4375 24.9375C5.5625 25 5.6875 25.125 5.625 25.25C5.75 25.125 5.8125 25 5.8125 24.875C5.8125 24.6875 5.6875 24.5 5.5625 24.4375Z" fill="#ED4C5C"/>
<path d="M6.0625 19.0625H7.5V26.1875H6.0625V19.0625Z" fill="white"/>
<path d="M8.99974 21.6875C8.68724 21.5625 8.12474 21.4375 7.49974 21.4375C7.31224 21.4375 7.06224 21.4375 6.81224 21.5C5.93724 21.625 5.24974 22 5.31224 22.25L4.99974 21.5625C4.93724 21.25 5.68724 20.875 6.62474 20.6875C6.93724 20.625 7.24974 20.625 7.49974 20.625C8.12474 20.625 8.68724 20.6875 8.99974 20.8125V21.6875Z" fill="#ED4C5C"/>
<path d="M6.0625 22.625C5.6875 22.625 5.375 22.5 5.375 22.3125C5.375 22.1875 5.5 22 5.75 21.875H6.125L6.0625 22.625ZM7.5 22.0625C7.75 22.125 7.9375 22.1875 8.0625 22.25C8.125 22.3125 7.875 22.5625 7.5 22.75V22.0625Z" fill="#ED4C5C"/>
<path d="M5.12509 24C5.06259 23.875 5.50009 23.625 6.06259 23.4375C6.31259 23.375 6.50009 23.25 6.81259 23.125C7.56259 22.8125 8.18759 22.375 8.06259 22.25L8.1876 23C8.2501 23.125 7.75009 23.5 7.0001 23.875C6.7501 24 6.31259 24.1875 6.06259 24.25C5.62509 24.375 5.25009 24.625 5.25009 24.6875L5.12509 24Z" fill="#ED4C5C"/>
<path d="M19.1875 17.9375H21.1875V19.0625H19.1875V17.9375ZM19.125 26.1875H21.1875V27.25H19.125V26.1875Z" fill="#C8B100"/>
<path d="M21.375 24.4375C21.5625 24.5625 21.6875 24.6875 21.6875 24.75C21.6875 24.8125 21.625 24.875 21.5 24.9375C21.375 25.0625 21.25 25.25 21.3125 25.3125C21.1875 25.1875 21.125 25.0625 21.125 24.9375C21.125 24.6875 21.25 24.5 21.375 24.4375Z" fill="#ED4C5C"/>
<path d="M19.4375 19.0625H20.875V26.1875H19.4375V19.0625Z" fill="white"/>
<path d="M17.9375 21.6875C18.25 21.5625 18.8125 21.4375 19.4375 21.4375C19.625 21.4375 19.875 21.4375 20.125 21.5C21 21.625 21.6875 22 21.625 22.25L21.9375 21.5C22 21.1875 21.25 20.8125 20.3125 20.625H19.4375C18.8125 20.625 18.25 20.6875 17.9375 20.8125V21.6875Z" fill="#ED4C5C"/>
<path d="M20.8748 22.625C21.2498 22.625 21.5623 22.5 21.5623 22.3125C21.5623 22.1875 21.4373 22 21.1873 21.875H20.8123L20.8748 22.625ZM19.4373 22.0625C19.1873 22.125 18.9998 22.1875 18.8748 22.25C18.8123 22.3125 19.0623 22.5625 19.4373 22.75V22.0625Z" fill="#ED4C5C"/>
<path d="M21.8125 24C21.875 23.875 21.4375 23.625 20.875 23.4375C20.625 23.375 20.4375 23.25 20.125 23.125C19.375 22.8125 18.75 22.375 18.875 22.25L18.75 23C18.6875 23.125 19.1875 23.5 19.9375 23.875C20.1875 24 20.625 24.1875 20.875 24.25C21.3125 24.375 21.6875 24.6875 21.625 24.75L21.8125 24ZM13.4375 13.9375C14.625 13.9375 17.0625 14.1875 17.9375 15.0625C17 17.3125 15.5 16.375 13.4375 16.375C11.4375 16.375 9.875 17.3125 8.9375 15.0625C9.8125 14.1875 12.1875 13.9375 13.4375 13.9375Z" fill="#ED4C5C"/>
<path d="M16.5 16.4375C15.75 16 14.625 15.9375 13.4375 15.9375C12.25 15.9375 11.125 16.0625 10.375 16.4375L10.625 17.5C11.3125 17.6875 12.3125 17.8125 13.4375 17.8125C14.5625 17.8125 15.5 17.6875 16.25 17.5L16.5 16.4375ZM17.5625 13.75C17.3125 13.5625 16.8125 13.375 16.375 13.375C16.1875 13.375 16 13.375 15.8125 13.4375C15.8125 13.4375 15.4375 12.9375 14.5625 12.9375C14.25 12.9375 14 13 13.75 13.125V13.0625C13.6875 12.9375 13.5625 12.8125 13.4375 12.8125C13.3125 12.8125 13.125 13 13.125 13.125V13.1875C12.875 13.0625 12.625 13 12.3125 13C11.4375 13 11.0625 13.5625 11.0625 13.5C10.875 13.4375 10.6875 13.4375 10.5 13.4375C7.625 13.4375 9.0625 15.375 9.0625 15.375L9.375 15C8.6875 14.125 9.3125 13.625 10.5625 13.625C10.75 13.625 10.875 13.625 11 13.6875C10.5625 14.3125 11.375 14.875 11.375 14.875L11.5625 14.5625C11.125 14.25 11.0625 13.1875 12.3125 13.1875C12.625 13.1875 12.875 13.25 13.125 13.4375C13.125 13.5 13.0625 14.375 13 14.5L13.5 14.9375L14 14.5C13.9375 14.3125 13.875 13.5 13.875 13.4375C14.0625 13.3125 14.375 13.1875 14.6875 13.1875C16 13.1875 16 14.25 15.4375 14.5625L15.625 14.875C15.625 14.875 16.3125 14.3125 16 13.6875C16.125 13.6875 16.3125 13.625 16.4375 13.625C17.9375 13.625 18 14.75 17.625 15L17.875 15.375C17.75 15.375 18.4375 14.5 17.5625 13.75Z" fill="#C8B100"/>
<path d="M13.0625 12.5625C13.0625 12.375 13.25 12.1875 13.4375 12.1875C13.6875 12.1875 13.8125 12.375 13.8125 12.5625C13.8125 12.75 13.625 12.9375 13.4375 12.9375C13.25 12.9375 13.0625 12.75 13.0625 12.5625Z" fill="#005BBF"/>
<path d="M13.3125 11.5V11.6875H13.125V11.875H13.3125V12.5H13.0625V12.6875H13.8125L13.875 12.5625L13.8125 12.5H13.5625V11.875H13.75V11.6875H13.5625V11.5H13.3125Z" fill="#C8B100"/>
<path d="M13.4375 17.6875C12.4375 17.6875 11.5625 17.5625 10.875 17.375C11.5625 17.1875 12.4375 17.0625 13.4375 17.0625C14.4375 17.0625 15.3125 17.1875 16 17.375C15.375 17.5625 14.4375 17.6875 13.4375 17.6875Z" fill="#ED4C5C"/>
<path d="M13.5 28.5C12.3125 28.5 11.1875 28.1875 10.1875 27.75C9.4375 27.375 9 26.6875 9 25.875V22.875H18V25.875C18 26.6875 17.5 27.4375 16.8125 27.75C15.8125 28.25 14.6875 28.5 13.5 28.5ZM13.4375 17.875H17.9375V22.875H13.4375V17.875Z" fill="white"/>
<path d="M13.5 25.875C13.5 27.0625 12.5 28 11.25 28C10 28 9 27.0625 9 25.875V22.875H13.5V25.875Z" fill="#ED4C5C"/>
<path d="M9.9375 27.625C10.0625 27.6875 10.25 27.8125 10.5 27.875V22.75H10L9.9375 27.625ZM8.9375 25.8125C8.9375 26.4375 9.1875 26.9375 9.4375 27.1875V22.75H8.9375V25.8125Z" fill="#C8B100"/>
<path d="M10.9375 28H11.4375V22.75H10.9375V28Z" fill="#C7B500"/>
<path d="M11.9375 27.875C12.125 27.8125 12.375 27.6875 12.5 27.625V22.75H12L11.9375 27.875Z" fill="#C8B100"/>
<path d="M8.9375 17.875H13.4375V22.875H8.9375V17.875Z" fill="#ED4C5C"/>
<path d="M13 27.1875C13.25 27 13.4375 26.5625 13.5 26.0625V22.8125H13V27.1875Z" fill="#C8B100"/>
<path d="M18 22.875V25.875C18 27.0625 17 28 15.75 28C14.5 28 13.5 27.0625 13.5 25.875V22.875H18ZM16.375 18.75C16.5625 19.125 16.5625 20.0625 16 19.875C16.125 19.9375 16.1875 20.375 16.375 20.625C16.6875 21 17.0625 20.6875 17 20.25C16.875 19.5625 16.9375 19.125 17.0625 18.4375C17.0625 18.5 17.375 18.5 17.5 18.375C17.4375 18.5625 17.375 18.8125 17.5 18.8125C17.375 19 17.0625 19.3125 17 19.5C16.9375 19.9375 17.625 20.75 16.875 20.9375C16.375 21.0625 16.6875 21.4375 16.875 21.625C16.875 21.625 16.625 22.4375 16.75 22.375C16.25 22.5625 16.375 22.125 16.375 22.125C16.625 21.375 15.9375 21.3125 16 21.1875C15.375 21.125 16.0625 21.75 15.5 21.75C15.375 21.75 15.125 21.875 15.125 21.875C14.4375 21.8125 14.8125 21.1875 15.0625 21.25C15.25 21.3125 15.4375 21.625 15.4375 21.1875C15.4375 21.1875 15.125 20.6875 15.9375 20.6875C15.625 20.6875 15.4375 20.4375 15.3125 20.125C15.1875 20.1875 15 20.5 14.3125 20.5625C14.3125 20.5625 14.125 19.875 14.3125 20C14.5625 20.125 14.6875 20.125 14.9375 19.875C14.8125 19.6875 14.0625 19.4375 14.1875 19C14.1875 18.875 14.5625 18.6875 14.5625 18.6875C14.5 19 14.6875 19.3125 15.0625 19.3125C15.5625 19.375 15.375 19.1875 15.4375 19.0625C15.5 18.9375 15.875 19.125 15.75 18.8125C15.75 18.75 15.3125 18.6875 15.4375 18.5C15.6875 18.1875 16.0625 18.4375 16.375 18.75ZM13.5 27.875L13.375 27.5625L13.5 27.1875L13.625 27.5625L13.5 27.875Z" fill="#ED4C5C"/>
<path d="M10.3125 18.9375V19.25H10.4375V19.5H10.125V20.125H10.3125V21.5H9.9375V22.1875H12.5V21.5H12.1875V20.125H12.3125V19.5H12V19.25H12.1875V18.9375H11.5625V19.25H11.6875V19.5H11.375V18.75H11.5625V18.4375H10.875V18.75H11.0625V19.5H10.75V19.25H10.875V18.9375H10.3125ZM17.375 26.625V23.5H14.125V26.625L15.625 27.3125H15.8125L17.375 26.625ZM15.625 23.75V24.8125L14.5625 23.75H15.625ZM14.3125 23.8125L15.5625 25.0625L14.3125 26.3125V23.8125ZM14.4375 26.5625L15.625 25.375V27.125L14.4375 26.5625ZM15.8125 27.0625V25.3125L17 26.5L15.8125 27.0625ZM17.125 26.3125L15.875 25.0625L17.125 23.8125V26.3125ZM15.8125 23.75H16.875L15.8125 24.8125V23.75Z" fill="#C8B100"/>
<path d="M12 22.8125C12 21.875 12.625 21.1875 13.4375 21.1875C14.25 21.1875 14.875 21.9375 14.875 22.8125C14.875 23.6875 14.25 24.4375 13.4375 24.4375C12.625 24.4375 12 23.75 12 22.8125Z" fill="#ED4C5C"/>
<path d="M12.4375 22.8125C12.4375 22.125 12.875 21.625 13.4375 21.625C14 21.625 14.4375 22.1875 14.4375 22.8125C14.4375 23.5 14 24 13.4375 24C12.9375 24.0625 12.4375 23.5 12.4375 22.8125Z" fill="#005BBF"/>
<path d="M13 22L12.75 22.6875L12.9375 22.75L12.8125 23H13.1875L13.0625 22.75L13.25 22.6875L13 22ZM13.9375 22L13.6875 22.6875L13.875 22.75L13.75 23H14.125L14.0625 22.75L14.25 22.6875L13.9375 22ZM13.5 22.8125L13.1875 23.5L13.375 23.5625L13.3125 23.8125H13.625L13.5625 23.5625L13.75 23.5L13.5 22.8125Z" fill="#C8B100"/>
</svg>
