<svg width="28" height="27" viewBox="0 0 28 27" fill="none" xmlns="http://www.w3.org/2000/svg">
<path d="M6.26699 27C5.96022 27 5.65558 26.9037 5.3956 26.7145C4.9113 26.3614 4.68507 25.7543 4.81688 25.1686L6.61819 17.1844L0.509278 11.7937C0.0602317 11.3992 -0.111312 10.7745 0.0730494 10.203C0.257411 9.63248 0.75901 9.22857 1.3529 9.17333L9.43574 8.43495L12.6314 0.909917C12.867 0.357045 13.4037 0 13.9999 0C14.5961 0 15.1328 0.357045 15.3684 0.908627L18.5641 8.43495L26.6456 9.17333C27.2408 9.22728 27.7424 9.63248 27.9268 10.203C28.1111 10.7735 27.9406 11.3992 27.4916 11.7937L21.3827 17.1833L23.184 25.1673C23.316 25.7543 23.0896 26.3614 22.6055 26.7135C22.1225 27.0656 21.4784 27.0926 20.9697 26.785L13.9999 22.594L7.03007 26.7874C6.79444 26.9282 6.53189 27 6.26699 27ZM13.9999 20.7886C14.2648 20.7886 14.5271 20.8602 14.763 21.001L21.3408 24.9596L19.6408 17.4238C19.5194 16.8875 19.7004 16.3276 20.1122 15.9647L25.8804 10.8745L18.249 10.1772C17.6995 10.1267 17.227 9.77908 17.0123 9.26963L13.9999 2.16828L10.9839 9.2707C10.7716 9.77671 10.299 10.1243 9.75084 10.1748L2.11833 10.8721L7.88629 15.9623C8.29945 16.3263 8.48018 16.8852 8.35777 17.4228L6.659 24.9583L13.2368 21.001C13.4725 20.8602 13.735 20.7886 13.9999 20.7886ZM9.374 8.58047C9.374 8.58047 9.374 8.58176 9.37272 8.58284L9.374 8.58047ZM18.6235 8.57703L18.6247 8.5794C18.6247 8.57811 18.6247 8.57811 18.6235 8.57703Z" fill="black"/>
</svg>
