<svg width="28" height="26" viewBox="0 0 28 26" fill="none" xmlns="http://www.w3.org/2000/svg">
<path d="M6.75031 25.5943C6.46271 25.5943 6.17712 25.5045 5.93338 25.3283C5.47935 24.9992 5.26726 24.4337 5.39083 23.8879L7.07956 16.449L1.35245 11.4265C0.931467 11.059 0.770645 10.477 0.943484 9.94443C1.11632 9.41289 1.58657 9.03657 2.14334 8.9851L9.72101 8.29715L12.717 1.28606C12.9379 0.770953 13.441 0.438293 13.9999 0.438293C14.5589 0.438293 15.062 0.770953 15.2829 1.28486L18.2788 8.29715L25.8553 8.9851C26.4133 9.03537 26.8835 9.41289 27.0564 9.94443C27.2292 10.476 27.0694 11.059 26.6484 11.4265L20.9213 16.448L22.61 23.8867C22.7338 24.4337 22.5215 24.9992 22.0677 25.3273C21.6149 25.6553 21.011 25.6806 20.5342 25.394L13.9999 21.4892L7.4657 25.3962C7.24479 25.5274 6.99865 25.5943 6.75031 25.5943ZM13.9999 19.8071C14.2483 19.8071 14.4942 19.8737 14.7153 20.0049L20.882 23.6932L19.2882 16.6721C19.1745 16.1724 19.3441 15.6507 19.7302 15.3126L25.1379 10.5701L17.9834 9.9204C17.4683 9.87333 17.0253 9.54948 16.824 9.07483L13.9999 2.45848L11.1724 9.07583C10.9733 9.54728 10.5303 9.87113 10.0164 9.91819L2.86093 10.5679L8.26841 15.3104C8.65574 15.6495 8.82518 16.1702 8.71042 16.6711L7.11782 23.692L13.2845 20.0049C13.5054 19.8737 13.7516 19.8071 13.9999 19.8071ZM9.66313 8.43274C9.66313 8.43274 9.66313 8.43394 9.66193 8.43494L9.66313 8.43274ZM18.3345 8.42954L18.3357 8.43174C18.3357 8.43054 18.3357 8.43054 18.3345 8.42954Z" fill="#00B288"/>
</svg>
