<svg width="16" height="16" viewBox="0 0 16 16" fill="none" xmlns="http://www.w3.org/2000/svg">
<path d="M14 9.39962C14 9.75518 13.7798 10.0612 13.4572 10.2187V11.8402C13.4572 13.5823 11.9362 15 10.0647 15C8.55845 15 7.27916 14.0796 6.83838 12.8113C6.33308 12.7261 5.95009 12.3248 5.95009 11.841V9.72984C5.95009 9.62655 5.9716 9.52979 6.00366 9.43648C3.60492 9.07131 2 7.30922 2 4.89781C2 4.53878 2.25392 4.23659 2.60569 4.1237C2.69427 3.55233 2.8807 3.00477 3.15613 2.5056C3.02032 2.34739 2.93554 2.15003 2.93554 1.93346C2.93554 1.41777 3.39445 1 3.96091 1C4.52738 1 4.98629 1.41777 4.98629 1.93346C4.98629 2.44877 4.52738 2.86654 3.96091 2.86654C3.89891 2.86654 3.83733 2.85963 3.77659 2.85003C3.55768 3.26012 3.40499 3.70669 3.3278 4.17362C3.61378 4.31185 3.81076 4.58256 3.81076 4.89781C3.81076 6.69907 5.04155 7.86253 6.94721 7.86253C8.85202 7.86253 10.0837 6.69907 10.0837 4.89781C10.0837 4.58256 10.2802 4.31223 10.5662 4.17362C10.4882 3.70669 10.3355 3.26012 10.1174 2.85003C10.0571 2.86001 9.99719 2.86654 9.9335 2.86654C9.36661 2.86654 8.90728 2.44877 8.90728 1.93346C8.90728 1.41777 9.36661 1 9.93307 1C10.4995 1 10.9585 1.41777 10.9585 1.93346C10.9585 2.15003 10.8741 2.34739 10.7383 2.5056C11.0133 3.00477 11.1997 3.55233 11.2887 4.1237C11.6405 4.23659 11.8948 4.53878 11.8948 4.89781C11.8948 7.25123 10.3658 8.98684 8.06243 9.40883C8.10039 9.5102 8.12527 9.61657 8.12527 9.72907V11.8402C8.12527 12.2108 7.89877 12.5295 7.56724 12.6984C7.94221 13.6553 8.92077 14.3407 10.0706 14.3407C11.5414 14.3407 12.7393 13.2183 12.7393 11.8398V10.3039C12.2901 10.2041 11.9556 9.83889 11.9556 9.39923C11.9556 8.88354 12.4145 8.46577 12.9822 8.46577C13.5411 8.46577 14 8.88354 14 9.39962Z" fill="#56595B"/>
</svg>
