<svg width="33" height="33" viewBox="0 0 33 33" fill="none" xmlns="http://www.w3.org/2000/svg">
<g clip-path="url(#clip0_346_272)">
<path d="M30.422 9.45317C29.6196 8.65123 28.6457 8.25014 27.4997 8.25014C26.3543 8.25014 25.3804 8.65123 24.5779 9.45317C23.7761 10.2553 23.3751 11.2292 23.3751 12.3752C23.3751 13.2632 23.6292 14.0583 24.1376 14.7598C24.6465 15.4618 25.3086 15.9628 26.1252 16.2637V24.7501C26.1252 26.2685 25.4517 27.5648 24.1057 28.6389C22.7594 29.713 21.1411 30.2502 19.2502 30.2502C17.3598 30.2502 15.7411 29.713 14.3947 28.6389C13.0484 27.5649 12.3752 26.2685 12.3752 24.7501V21.9142C14.7243 21.6279 16.6864 20.7109 18.2621 19.1639C19.8376 17.6173 20.6256 15.8125 20.6256 13.7497V2.75017C20.6256 2.37783 20.4891 2.05539 20.2171 1.78321C19.9452 1.5114 19.6223 1.37505 19.2498 1.37505C19.1643 1.37505 19.0495 1.38957 18.9064 1.41809C18.6627 0.988187 18.3264 0.644895 17.8964 0.386711C17.4674 0.128753 17.0015 0 16.5003 0C15.7414 0 15.0932 0.268869 14.556 0.80563C14.0188 1.34284 13.7503 1.99097 13.7503 2.75017C13.7503 3.50907 14.0188 4.15728 14.556 4.69442C15.0932 5.23155 15.7414 5.50012 16.5003 5.50012C16.9729 5.50012 17.4311 5.37137 17.8752 5.11341V13.75C17.8752 15.2685 17.2021 16.5646 15.8558 17.639C14.5094 18.7129 12.8907 19.2498 11.0003 19.2498C9.10984 19.2498 7.4912 18.7128 6.14482 17.639C4.79859 16.5649 4.12533 15.2687 4.12533 13.75V5.11341C4.56915 5.37129 5.0278 5.50012 5.50038 5.50012C6.25928 5.50012 6.90748 5.23163 7.44462 4.69442C7.98168 4.1572 8.2501 3.50907 8.2501 2.75017C8.2501 1.99105 7.98168 1.34284 7.44462 0.80563C6.90741 0.268869 6.2592 0 5.5003 0C4.99891 0 4.53333 0.128753 4.10365 0.386711C3.67412 0.644594 3.33738 0.988112 3.09402 1.41809C2.95059 1.38965 2.83614 1.37505 2.75013 1.37505C2.37749 1.37505 2.05534 1.5114 1.78316 1.78321C1.51113 2.05539 1.375 2.37783 1.375 2.75017V13.7501C1.375 15.8126 2.16257 17.6169 3.73824 19.164C5.31383 20.711 7.27606 21.628 9.625 21.9146V24.7504C9.625 27.028 10.5668 28.9722 12.4504 30.5832C14.3339 32.1946 16.6004 33 19.2498 33C21.9002 33 24.1664 32.1946 26.0499 30.5832C27.9339 28.9722 28.8749 27.028 28.8749 24.7504V16.2637C29.6916 15.9628 30.354 15.4618 30.8624 14.7598C31.3712 14.0582 31.6257 13.2631 31.6257 12.3752C31.6255 11.2295 31.2246 10.2553 30.422 9.45317ZM28.4675 13.342C28.1951 13.6141 27.8727 13.7501 27.5003 13.7501C27.1279 13.7501 26.8059 13.6141 26.5335 13.342C26.2616 13.0698 26.1256 12.7476 26.1256 12.3752C26.1256 12.0029 26.2616 11.6804 26.5335 11.4082C26.8059 11.1364 27.1279 11.0001 27.5003 11.0001C27.8727 11.0001 28.195 11.1364 28.4675 11.4082C28.7395 11.6804 28.8755 12.0029 28.8755 12.3752C28.8755 12.7479 28.7395 13.0698 28.4675 13.342Z" fill="#00B288"/>
</g>
<defs>
<clipPath id="clip0_346_272">
<rect width="33" height="33" fill="white"/>
</clipPath>
</defs>
</svg>
