<svg width="14" height="15" viewBox="0 0 14 15" fill="none" xmlns="http://www.w3.org/2000/svg">
<path d="M3.66927 6.83594V8.16927H10.3359V6.83594H3.66927ZM7.0026 0.835938C3.3226 0.835938 0.335938 3.8226 0.335938 7.5026C0.335938 11.1826 3.3226 14.1693 7.0026 14.1693C10.6826 14.1693 13.6693 11.1826 13.6693 7.5026C13.6693 3.8226 10.6826 0.835938 7.0026 0.835938ZM7.0026 12.8359C4.0626 12.8359 1.66927 10.4426 1.66927 7.5026C1.66927 4.5626 4.0626 2.16927 7.0026 2.16927C9.9426 2.16927 12.3359 4.5626 12.3359 7.5026C12.3359 10.4426 9.9426 12.8359 7.0026 12.8359Z" fill="#DF660A"/>
</svg>
