<svg width="158" height="152" viewBox="0 0 158 152" fill="none" xmlns="http://www.w3.org/2000/svg">
<g clip-path="url(#clip0_4168:571)">
<path d="M36.45 150.02C35.2215 150.016 34.0094 149.737 32.9029 149.203C31.7964 148.669 30.8237 147.894 30.0563 146.935C29.2888 145.975 28.7461 144.856 28.4681 143.659C28.1902 142.463 28.184 141.219 28.45 140.02L38.09 97.4596C38.1628 97.0976 38.1402 96.723 38.0245 96.3723C37.9088 96.0217 37.704 95.7072 37.43 95.4596L4.76003 66.7296C3.52228 65.6743 2.62543 64.2756 2.18299 62.7104C1.74055 61.1452 1.77242 59.4839 2.27456 57.9368C2.77669 56.3897 3.72652 55.0264 5.00382 54.0193C6.28113 53.0123 7.82848 52.4069 9.45003 52.2796L52.67 48.3496C53.0434 48.3133 53.4001 48.1771 53.7028 47.9554C54.0054 47.7337 54.2428 47.4347 54.39 47.0896L71.45 7.01961C72.0774 5.5414 73.1259 4.28051 74.4649 3.39415C75.8039 2.50779 77.3742 2.03516 78.98 2.03516C80.5858 2.03516 82.1561 2.50779 83.4952 3.39415C84.8342 4.28051 85.8827 5.5414 86.51 7.01961L103.59 47.1296C103.739 47.4754 103.978 47.7749 104.282 47.9965C104.587 48.2182 104.945 48.354 105.32 48.3896L148.53 52.3196C150.128 52.4707 151.647 53.0864 152.899 54.0906C154.151 55.0949 155.082 56.4437 155.576 57.9708C156.071 59.4978 156.107 61.1362 155.682 62.6838C155.256 64.2314 154.386 65.6205 153.18 66.6796L120.51 95.4096C120.234 95.6552 120.028 95.9699 119.914 96.3214C119.799 96.6729 119.781 97.0486 119.86 97.4096L129.49 139.97C129.85 141.534 129.743 143.17 129.181 144.674C128.619 146.178 127.628 147.483 126.33 148.428C125.033 149.373 123.486 149.916 121.882 149.989C120.278 150.063 118.688 149.663 117.31 148.84L80.05 126.51C79.7276 126.314 79.3574 126.21 78.98 126.21C78.6026 126.21 78.2325 126.314 77.91 126.51L40.64 148.85C39.3744 149.61 37.9266 150.014 36.45 150.02V150.02Z" stroke="#006A51" stroke-width="4" stroke-miterlimit="10"/>
<path d="M57.4502 88.3295L73.6402 104.52L98.8902 65.0195" stroke="#006A51" stroke-width="4" stroke-linecap="round" stroke-linejoin="round"/>
</g>
<defs>
<clipPath id="clip0_4168:571">
<rect width="158" height="152" fill="white"/>
</clipPath>
</defs>
</svg>
