<svg version="1.1" id="Layer_1" xmlns="http://www.w3.org/2000/svg" x="0" y="0" viewBox="0 0 34 34" style="enable-background:new 0 0 34 34" xml:space="preserve"><path class="st0" d="M22.05 32.01c-6.81 0-12.02-2.57-12.02-5.98v1.99c0 3.41 5.21 5.98 12.02 5.98S34 31.43 34 28.02v-1.99c0 3.41-5.14 5.98-11.95 5.98z"/><path class="st0" d="M22.05 18.06c-2.04 0-3.99.23-5.64.65l13.52 9.89c2.52-1.08 4.07-2.69 4.07-4.56 0-3.41-5.14-5.98-11.95-5.98zM14.1 19.48c-2.52 1.08-4.07 2.69-4.07 4.56 0 3.41 5.21 5.98 12.02 5.98 2.04 0 3.92-.23 5.57-.65L14.1 19.48zM12.02 0C5.43 0 0 5.49 0 12.09c0 2.92 1.16 5.59 2.93 7.68L19.8 2.9C17.71 1.14 14.96 0 12.02 0z"/><path class="st0" d="M21.21 4.31 4.34 21.18c1.1.93 2.36 1.7 3.75 2.19.54-4.26 6.28-7.29 13.96-7.29.44 0 .86.01 1.29.03.46-1.28.7-2.64.7-4.02 0-2.94-1.07-5.7-2.83-7.78z"/></svg>