<svg width="37" height="37" viewBox="0 0 37 37" fill="none" xmlns="http://www.w3.org/2000/svg">
<g clip-path="url(#clip0)">
<path d="M28.1294 24.4763C26.9206 23.2829 25.4116 23.2829 24.2105 24.4763C23.2942 25.3848 22.378 26.2933 21.4772 27.2172C21.2308 27.4713 21.0229 27.5252 20.7227 27.3558C20.1298 27.0324 19.4985 26.7707 18.9287 26.4165C16.2724 24.7457 14.0473 22.5976 12.0763 20.18C11.0985 18.9789 10.2285 17.6931 9.6202 16.2457C9.49701 15.9531 9.52011 15.7606 9.75879 15.5219C10.675 14.6365 11.5681 13.728 12.469 12.8194C13.724 11.5567 13.724 10.0785 12.4613 8.80808C11.7452 8.08434 11.0292 7.376 10.3131 6.65226C9.57401 5.91312 8.84257 5.16629 8.09573 4.43485C6.88693 3.25685 5.37786 3.25685 4.17676 4.44255C3.25284 5.35107 2.36742 6.28269 1.4281 7.17582C0.558069 7.99965 0.119206 9.00826 0.0268139 10.1863C-0.119474 12.1034 0.350187 13.9127 1.01233 15.6759C2.36742 19.3254 4.43084 22.5668 6.93313 25.5388C10.3131 29.5578 14.3476 32.7377 19.0673 35.0321C21.1923 36.0638 23.3943 36.8568 25.7888 36.9877C27.4365 37.0801 28.8686 36.6643 30.0158 35.3785C30.8011 34.5008 31.6865 33.7001 32.5181 32.8608C33.75 31.6136 33.7577 30.1045 32.5335 28.8726C31.0706 27.402 29.6 25.9391 28.1294 24.4763Z" fill="#00B288"/>
<path d="M26.6596 18.3399L29.5006 17.8548C29.0541 15.2448 27.8222 12.8811 25.9512 11.0024C23.9725 9.02368 21.4702 7.77639 18.7138 7.39142L18.3135 10.2479C20.4462 10.5482 22.3864 11.5106 23.9186 13.0427C25.3661 14.4902 26.3131 16.3227 26.6596 18.3399Z" fill="#00B288"/>
<path d="M31.1018 5.9901C27.8219 2.71017 23.6719 0.639046 19.0908 0L18.6904 2.85646C22.6479 3.41081 26.2358 5.20476 29.0692 8.03042C31.7562 10.7175 33.5194 14.1129 34.1584 17.8471L36.9995 17.362C36.2526 13.035 34.2123 9.10833 31.1018 5.9901Z" fill="#00B288"/>
</g>
<defs>
<clipPath id="clip0">
<rect width="37" height="37" fill="white"/>
</clipPath>
</defs>
</svg>
