<svg width="47" height="47" viewBox="0 0 47 47" fill="none" xmlns="http://www.w3.org/2000/svg">
<path d="M44.7357 24.6479C44.4047 23.9175 44.4047 23.0813 44.7357 22.3508L46.4884 18.4968C47.1405 17.0613 47.1699 15.4026 46.5667 13.9456C45.9636 12.4886 44.7709 11.3352 43.2963 10.7829L39.3307 9.2946C38.5806 9.0126 37.9892 8.42118 37.7072 7.66918L36.2189 3.70551C35.6666 2.22893 34.5132 1.0363 33.0562 0.433136C31.5992 -0.170031 29.9405 -0.142614 28.507 0.511469L24.651 2.26418C23.9186 2.59514 23.0824 2.59318 22.3539 2.26418L18.496 0.513428C17.0605 -0.140656 15.4018 -0.166114 13.9448 0.435094C12.4898 1.04022 11.3363 2.23285 10.7841 3.70747L9.29572 7.6731C9.01372 8.42314 8.42231 9.01456 7.67031 9.29656L3.70664 10.7849C2.23202 11.3371 1.03939 12.4906 0.436223 13.9476C-0.166943 15.4046 -0.139527 17.0633 0.514557 18.4968L2.26531 22.3528C2.59627 23.0832 2.59627 23.9194 2.26531 24.6499L0.512598 28.5039C-0.139527 29.9394 -0.168902 31.5981 0.434265 33.0551C1.03743 34.5121 2.23006 35.6655 3.70468 36.2178L7.67031 37.7061C8.42035 37.9881 9.01177 38.5795 9.29377 39.3315L10.7821 43.2952C11.3343 44.7718 12.4878 45.9644 13.9448 46.5676C14.642 46.8554 15.3861 47.0004 16.1303 47.0004C16.9391 47.0004 17.7479 46.83 18.494 46.4892L22.35 44.7385C23.0804 44.4056 23.9166 44.4075 24.6471 44.7385L28.5011 46.4912C29.9366 47.1453 31.5953 47.1707 33.0523 46.5695C34.5093 45.9664 35.6627 44.7737 36.215 43.2991L37.7033 39.3335C37.9853 38.5834 38.5767 37.992 39.3287 37.71L43.2924 36.2217C44.769 35.6694 45.9616 34.516 46.5648 33.059C47.1679 31.602 47.1405 29.9433 46.4864 28.5098L44.7357 24.6479ZM27.4945 33.0786C27.4945 34.2732 26.5154 35.2523 25.3012 35.2523H21.6978C20.6404 35.2523 19.5045 34.469 19.5045 32.7261V31.6686H27.4945V33.0786ZM29.0808 27.2819C28.2583 27.9477 27.7295 28.8094 27.5533 29.7102H19.4653C19.3283 28.829 18.8387 28.0065 18.0358 27.3798C15.862 25.6761 14.6283 23.1106 14.687 20.3298C14.7849 15.669 18.682 11.8111 23.3624 11.7523C25.732 11.6936 28.0037 12.614 29.7074 14.2981C31.3916 15.9431 32.312 18.1561 32.312 20.5061C32.312 23.1498 31.139 25.6173 29.0808 27.2819Z" fill="#006A51"/>
</svg>
