<svg width="16" height="16" viewBox="0 0 16 16" fill="none" xmlns="http://www.w3.org/2000/svg">
<rect width="16" height="16" rx="8" fill="#3178CC"/>
<path d="M8 6C8.55228 6 9 6.44772 9 7V11.6667C9 12.219 8.55228 12.6667 8 12.6667C7.44772 12.6667 7 12.219 7 11.6667V7C7 6.44771 7.44772 6 8 6Z" fill="white"/>
<path d="M7 4.3335C7 4.04384 7.09053 3.80476 7.2716 3.61625C7.45267 3.42775 7.69547 3.3335 8 3.3335C8.30041 3.3335 8.54115 3.42775 8.72222 3.61625C8.90741 3.80476 9 4.04384 9 4.3335C9 4.62315 8.90741 4.86223 8.72222 5.05074C8.54115 5.23924 8.30041 5.3335 8 5.3335C7.69547 5.3335 7.45267 5.23924 7.2716 5.05074C7.09053 4.86223 7 4.62315 7 4.3335Z" fill="white"/>
</svg>
