<svg width="18" height="21" viewBox="0 0 18 21" fill="none" xmlns="http://www.w3.org/2000/svg">
<path d="M15.4219 2.625H11.8125V1.96875C11.8125 0.881426 10.9311 0 9.84375 0H7.21875C6.13143 0 5.25 0.881426 5.25 1.96875V2.625H1.64062C0.734549 2.625 0 3.35955 0 4.26562V5.57812C0 5.94058 0.293795 6.23438 0.65625 6.23438H16.4062C16.7687 6.23438 17.0625 5.94058 17.0625 5.57812V4.26562C17.0625 3.35955 16.328 2.625 15.4219 2.625ZM6.5625 1.96875C6.5625 1.60699 6.85699 1.3125 7.21875 1.3125H9.84375C10.2055 1.3125 10.5 1.60699 10.5 1.96875V2.625H6.5625V1.96875Z" fill="#00B288"/>
<path d="M1.24511 7.54688C1.12801 7.54688 1.0347 7.64474 1.04028 7.76172L1.58168 19.1248C1.63172 20.1764 2.49551 21 3.54797 21H13.5139C14.5664 21 15.4302 20.1764 15.4802 19.1248L16.0216 7.76172C16.0272 7.64474 15.9339 7.54688 15.8168 7.54688H1.24511ZM11.156 9.1875C11.156 8.82492 11.4496 8.53125 11.8122 8.53125C12.1748 8.53125 12.4685 8.82492 12.4685 9.1875V17.7188C12.4685 18.0813 12.1748 18.375 11.8122 18.375C11.4496 18.375 11.156 18.0813 11.156 17.7188V9.1875ZM7.87471 9.1875C7.87471 8.82492 8.16838 8.53125 8.53096 8.53125C8.89354 8.53125 9.18721 8.82492 9.18721 9.1875V17.7188C9.18721 18.0813 8.89354 18.375 8.53096 18.375C8.16838 18.375 7.87471 18.0813 7.87471 17.7188V9.1875ZM4.59346 9.1875C4.59346 8.82492 4.88713 8.53125 5.24971 8.53125C5.61229 8.53125 5.90596 8.82492 5.90596 9.1875V17.7188C5.90596 18.0813 5.61229 18.375 5.24971 18.375C4.88713 18.375 4.59346 18.0813 4.59346 17.7188V9.1875Z" fill="#00B288"/>
</svg>
