<svg viewBox="0 0 35 35" xmlns="http://www.w3.org/2000/svg" data-uw-styling-context="true"><g fill="none" fill-rule="evenodd" data-uw-styling-context="true"><circle fill="#1DA1F2" fill-rule="nonzero" cx="17.5" cy="17.5" r="17.5" data-uw-styling-context="true"></circle>
<path d="M28 11.117c-.81.359-1.68.6-2.592.71a4.52 4.52 0 0 0 1.984-2.497 9.042 9.042 0 0 1-2.866 1.095A4.506 4.506 0 0 0 21.23 9c-2.914 0-5.055 2.719-4.397 5.541a12.813 12.813 0 0 1-9.302-4.715 4.52 4.52 0 0 0 1.396 6.026 4.494 4.494 0 0 1-2.043-.565c-.05 2.091 1.449 4.047 3.62 4.483a4.524 4.524 0 0 1-2.04.077 4.517 4.517 0 0 0 4.217 3.134A9.075 9.075 0 0 1 6 24.851a12.778 12.778 0 0 0 6.919 2.028c8.38 0 13.115-7.078 12.829-13.426A9.19 9.19 0 0 0 28 11.117z" fill="#FFF" data-uw-styling-context="true"></path>
</g></svg>