<svg width="12" height="17" viewBox="0 0 12 17" fill="none" xmlns="http://www.w3.org/2000/svg">
<path d="M6.26717 0.474854C6.33015 0.496458 6.39314 0.516483 6.4556 0.539668C6.64141 0.60276 6.80863 0.711343 6.94215 0.855604C7.07568 0.999866 7.17128 1.17526 7.22034 1.36593C7.29435 1.62677 7.382 1.69316 7.65441 1.69369C8.00188 1.69369 8.34934 1.69369 8.70416 1.69369V3.73879H3.39453V1.69369H4.36187C4.70252 1.69369 4.74923 1.6568 4.85001 1.33958C4.98962 0.901157 5.29038 0.628723 5.7276 0.508051C5.76224 0.498566 5.79583 0.485919 5.83257 0.474854H6.26717Z" fill="white"/>
<path d="M2.76538 2.92681C2.76538 3.23771 2.76538 3.52911 2.76538 3.82262C2.76213 3.90611 2.76441 3.98973 2.7722 4.07292C2.80107 4.28897 2.89765 4.37012 3.11389 4.37012C5.05488 4.37012 6.99691 4.37012 8.93999 4.37012C9.2082 4.37012 9.3242 4.25841 9.32945 3.98071C9.33522 3.69352 9.32945 3.4058 9.32945 3.11862V2.93998C9.36292 2.93353 9.39675 2.92913 9.43075 2.92681C10.0081 2.92681 10.5855 2.92154 11.1628 2.92681C11.368 2.92707 11.5659 3.00346 11.7184 3.14129C11.8709 3.27911 11.9672 3.46866 11.989 3.67349C11.9966 3.73573 12.0003 3.79839 12 3.86109C12 7.74331 12 11.6252 12 15.5067C12 15.885 11.8809 16.2028 11.5449 16.3909C11.3952 16.4738 11.2277 16.519 11.0568 16.5226C7.71616 16.53 4.37447 16.5316 1.03172 16.5274C0.52784 16.5263 0.145207 16.1712 0.0984934 15.6637C0.0937696 15.611 0.0937696 15.5583 0.0937696 15.5056C0.0937696 11.6238 0.0937696 7.7419 0.0937696 3.86003C0.0927198 3.63661 0.13366 3.42583 0.278525 3.24508C0.430214 3.05644 0.628616 2.93524 0.866909 2.92891C1.49098 2.91943 2.11506 2.92681 2.76538 2.92681ZM8.00047 14.0528C8.77028 14.0528 9.5401 14.0528 10.3099 14.0528C10.5256 14.0528 10.6658 13.9264 10.6637 13.7425C10.6616 13.5586 10.5262 13.4447 10.3183 13.4347C10.2926 13.4347 10.2658 13.4347 10.2401 13.4347C8.74142 13.4347 7.24273 13.4347 5.74404 13.4347C5.68165 13.4329 5.61928 13.4386 5.55823 13.4516C5.51124 13.4628 5.46765 13.4853 5.43118 13.5171C5.3947 13.5489 5.36642 13.589 5.34874 13.6341C5.33106 13.6793 5.3245 13.728 5.32963 13.7762C5.33476 13.8245 5.35142 13.8707 5.3782 13.9111C5.45116 14.0238 5.56033 14.0544 5.6884 14.0539C6.45996 14.0518 7.231 14.0528 8.00047 14.0528V14.0528ZM7.99155 7.46279H10.2396C10.2968 7.46555 10.3541 7.46272 10.4107 7.45436C10.483 7.44102 10.5483 7.40236 10.5949 7.34523C10.6415 7.28811 10.6665 7.21624 10.6653 7.14241C10.6612 7.0687 10.6316 6.99873 10.5816 6.94464C10.5315 6.89055 10.4642 6.85575 10.3913 6.84626C10.3447 6.84186 10.2979 6.84063 10.2511 6.84257H5.73721C5.69561 6.8402 5.6539 6.8402 5.61229 6.84257C5.5364 6.84881 5.46553 6.88313 5.41343 6.93888C5.36132 6.99462 5.33171 7.06782 5.33034 7.14425C5.32897 7.22068 5.35593 7.2949 5.40599 7.3525C5.45606 7.41009 5.52565 7.44696 5.60127 7.45594C5.65356 7.46157 5.7062 7.46315 5.75873 7.46069L7.99155 7.46279ZM7.99155 10.7583H8.56891C9.15152 10.7583 9.73465 10.7583 10.3173 10.7583C10.5204 10.7583 10.66 10.6287 10.6621 10.4522C10.6642 10.2757 10.5251 10.1471 10.323 10.136C10.3026 10.136 10.2816 10.136 10.2606 10.136C8.75174 10.136 7.24255 10.136 5.73301 10.136C5.66552 10.1339 5.5981 10.1421 5.53304 10.1603C5.40654 10.2003 5.31731 10.2999 5.33516 10.4269C5.35778 10.5349 5.41272 10.6335 5.49262 10.7093C5.53724 10.7541 5.63854 10.7541 5.71412 10.7546C6.47466 10.7594 7.23415 10.7583 7.99417 10.7583H7.99155ZM2.57905 13.7245C2.3733 13.5043 2.18382 13.2972 1.98909 13.0948C1.84895 12.9494 1.66472 12.9415 1.53297 13.0674C1.40123 13.1934 1.39703 13.3762 1.53927 13.5254C1.80171 13.8001 2.0666 14.0725 2.33393 14.3427C2.49664 14.5071 2.63521 14.5034 2.80632 14.3427L4.04712 13.1776C4.15682 13.0722 4.27072 12.9747 4.37412 12.8651C4.40112 12.8368 4.4223 12.8035 4.43644 12.767C4.45059 12.7304 4.45741 12.6915 4.45654 12.6523C4.45566 12.6132 4.44709 12.5746 4.43133 12.5387C4.41556 12.5029 4.39291 12.4706 4.36467 12.4435C4.31084 12.3896 4.23875 12.3581 4.16278 12.3551C4.08681 12.3522 4.01253 12.3781 3.95474 12.4277C3.90225 12.4709 3.85554 12.5194 3.8062 12.5663C3.39942 12.9468 2.99737 13.3288 2.57905 13.7245ZM2.57905 10.4274C2.37172 10.2061 2.18172 9.999 1.98699 9.79507C1.84895 9.65174 1.65894 9.64489 1.53035 9.77083C1.40176 9.89677 1.39808 10.0796 1.54137 10.2293C1.80066 10.5001 2.06205 10.7689 2.32553 11.0355C2.49822 11.2099 2.63048 11.2099 2.80842 11.0424C3.26786 10.6124 3.7273 10.1813 4.18674 9.74923C4.24762 9.69232 4.31113 9.63752 4.36729 9.57692C4.42297 9.52143 4.45485 9.44629 4.45613 9.36753C4.4574 9.28877 4.42797 9.21263 4.37412 9.15536C4.32032 9.09823 4.24668 9.06411 4.16848 9.06009C4.09028 9.05607 4.01354 9.08245 3.95422 9.13375C3.88651 9.19014 3.82457 9.25442 3.76054 9.31502C3.36846 9.68125 2.97953 10.0491 2.57905 10.4274ZM2.57905 7.13029C2.3691 6.90844 2.17489 6.69397 1.97177 6.48635C1.94386 6.45509 1.90984 6.42993 1.87182 6.41245C1.8338 6.39497 1.7926 6.38553 1.75079 6.38474C1.70898 6.38395 1.66745 6.39182 1.6288 6.40785C1.59016 6.42388 1.55521 6.44773 1.52615 6.47792C1.49635 6.50566 1.4725 6.53921 1.45606 6.57652C1.43962 6.61383 1.43094 6.65411 1.43055 6.69491C1.43016 6.7357 1.43806 6.77615 1.45378 6.81377C1.46949 6.85139 1.49269 6.8854 1.52195 6.91371C1.79769 7.20529 2.07762 7.4923 2.36175 7.77475C2.49874 7.91017 2.63521 7.90701 2.77535 7.77475C3.29637 7.2889 3.81617 6.80042 4.33475 6.3093C4.3929 6.25193 4.43288 6.17861 4.4497 6.09852C4.46193 6.03602 4.45178 5.97119 4.42106 5.91547C4.39033 5.85975 4.34099 5.81671 4.28174 5.79394C4.22334 5.764 4.15678 5.75407 4.09224 5.76568C4.02769 5.77729 3.96871 5.8098 3.9243 5.85823C3.48235 6.27768 3.03936 6.69608 2.5801 7.13029H2.57905Z" fill="white"/>
</svg>
