<svg width="15" height="15" viewBox="0 0 15 15" fill="none" xmlns="http://www.w3.org/2000/svg">
<g clip-path="url(#clip0)">
<path d="M14.0911 9.03454L13.1488 8.09223L8.12141 13.1196L9.06372 14.0619C9.60422 14.6024 10.3055 14.9234 11.0382 14.9659C11.7903 15.0094 12.4813 14.7564 12.9846 14.2529L14.2822 12.9554C14.7855 12.4521 15.0387 11.7609 14.9952 11.009C14.9527 10.2762 14.6317 9.57504 14.0911 9.03454Z" fill="white"/>
<path d="M0.909215 5.90681L1.85152 6.84912L6.87891 1.82172L5.9366 0.87941C5.3961 0.338904 4.6948 0.0177822 3.96215 -0.0245609C3.90653 -0.0277653 3.85149 -0.0293674 3.79667 -0.0293674C3.10923 -0.0293674 2.48186 0.222175 2.01574 0.688293L0.7181 1.98594C0.214788 2.48925 -0.0383544 3.18048 0.00513315 3.93247C0.0475907 4.66513 0.368597 5.36631 0.909215 5.90681Z" fill="white"/>
<path d="M14.0911 5.90681C14.6317 5.36631 14.9527 4.66513 14.9952 3.93236C15.0387 3.18048 14.7855 2.48925 14.2822 1.98594L12.9846 0.688293C12.5185 0.222175 11.8911 -0.0293674 11.2037 -0.0293674C11.1488 -0.0293674 11.0937 -0.0277653 11.0382 -0.0245609C10.3054 0.0178967 9.60422 0.338904 9.06372 0.87941L8.12141 1.82172L13.1488 6.84912L14.0911 5.90681Z" fill="white"/>
<path d="M0.909215 9.03454C0.368597 9.57504 0.0475907 10.2762 0.00513315 11.009C-0.0383544 11.7609 0.214788 12.4521 0.7181 12.9553L2.01574 14.2529C2.51905 14.7564 3.21016 15.0094 3.96215 14.9659C4.69492 14.9234 5.3961 14.6024 5.9366 14.0619L6.87891 13.1196L1.85152 8.09223L0.909215 9.03454Z" fill="white"/>
<path d="M7.49995 12.498L12.5273 7.47065L7.49995 2.44325L2.47255 7.47065L7.49995 12.498ZM9.09915 7.22403C9.27161 7.05157 9.55268 7.05752 9.72388 7.22746C9.76909 7.27221 9.81887 7.31593 9.85755 7.36674C9.92106 7.45028 9.95265 7.55579 9.94601 7.66062C9.93205 7.87978 9.75089 8.05934 9.53162 8.07124C9.4253 8.07707 9.31853 8.04354 9.2351 7.9774C9.18692 7.93929 9.1447 7.89179 9.10178 7.84819C8.93264 7.67664 8.92669 7.39638 9.09915 7.22403ZM7.97248 9.789C7.81695 9.94441 7.56186 9.95974 7.38928 9.8231C7.34088 9.78476 7.29842 9.73704 7.25527 9.69321C7.18535 9.62237 7.13946 9.53196 7.12767 9.43274C7.10043 9.20306 7.2626 8.98528 7.49137 8.94717C7.6105 8.92737 7.73513 8.95804 7.83103 9.03151C7.88149 9.07019 7.92533 9.11975 7.96984 9.16495C8.13887 9.33638 8.14482 9.61665 7.97248 9.789ZM7.85952 7.83022C7.68786 8.00189 7.40965 8.00189 7.23799 7.83022L7.14037 7.73261C6.96871 7.56094 6.96871 7.28274 7.14037 7.11119C7.22621 7.02536 7.3387 6.98245 7.45108 6.98245C7.56358 6.98245 7.67607 7.02525 7.76179 7.11119L7.85952 7.20881C8.03107 7.38036 8.03107 7.65868 7.85952 7.83022ZM7.02742 5.15242C7.11325 5.06659 7.22575 5.02367 7.33813 5.02367C7.45062 5.02367 7.56312 5.06659 7.64895 5.15242L7.74657 5.25004C7.91823 5.4217 7.91823 5.6999 7.74657 5.87157C7.57491 6.04311 7.2967 6.04311 7.12504 5.87157L7.02742 5.77395C6.85587 5.60229 6.85587 5.32408 7.02742 5.15242ZM5.49242 6.86949C5.60492 6.86949 5.7173 6.91241 5.80313 6.99824L5.90075 7.09586C6.07241 7.26752 6.07241 7.54572 5.90075 7.71739C5.7292 7.88893 5.45088 7.88893 5.27933 7.71739L5.1816 7.61965C5.01005 7.44811 5.01005 7.1699 5.1816 6.99824C5.26743 6.91241 5.37993 6.86949 5.49242 6.86949Z" fill="white"/>
</g>
<defs>
<clipPath id="clip0">
<rect width="15" height="15" fill="white" transform="translate(15 15) rotate(-180)"/>
</clipPath>
</defs>
</svg>
