<svg width="16" height="16" viewBox="0 0 16 16" fill="none" xmlns="http://www.w3.org/2000/svg">
<path d="M14.542 14.542C13.9466 15.1359 13.14 15.4694 12.299 15.4694C11.458 15.4694 10.6514 15.1359 10.056 14.542L1.45799 5.94384C0.863109 5.34895 0.528908 4.5421 0.528908 3.7008C0.528908 2.85949 0.863109 2.05264 1.45799 1.45775C2.05287 0.862859 2.85971 0.528652 3.701 0.528652C4.54229 0.528652 5.34912 0.862859 5.94401 1.45775L14.542 10.0559C15.136 10.6513 15.4696 11.4579 15.4696 12.2989C15.4696 13.14 15.136 13.9466 14.542 14.542Z" fill="white"/>
<path d="M5.94401 14.542C5.34912 15.1369 4.54229 15.4711 3.701 15.4711C2.85971 15.4711 2.05287 15.1369 1.45799 14.542C0.863109 13.9471 0.528908 13.1402 0.528908 12.2989C0.528908 11.4576 0.863109 10.6508 1.45799 10.0559L3.14022 8.37364L7.62623 12.8597L5.94401 14.542Z" fill="white"/>
<path d="M12.8598 7.62609L8.37377 3.14L10.056 1.45775C10.6509 0.862859 11.4577 0.528652 12.299 0.528652C13.1403 0.528652 13.9471 0.862859 14.542 1.45775C15.1369 2.05264 15.4711 2.85949 15.4711 3.7008C15.4711 4.5421 15.1369 5.34895 14.542 5.94384L12.8598 7.62609Z" fill="white"/>
<path d="M13.7732 10.9486C13.763 10.9998 13.7378 11.0469 13.7009 11.0839C13.6513 11.1335 13.5841 11.1613 13.514 11.1613C13.4439 11.1613 13.3767 11.1335 13.3271 11.0839C13.2901 11.0469 13.2649 10.9998 13.2547 10.9486C13.2445 10.8973 13.2497 10.8441 13.2697 10.7958C13.2898 10.7475 13.3236 10.7062 13.3671 10.6772C13.4106 10.6481 13.4617 10.6326 13.514 10.6326C13.5663 10.6326 13.6174 10.6481 13.6608 10.6772C13.7043 10.7062 13.7382 10.7475 13.7582 10.7958C13.7782 10.8441 13.7834 10.8973 13.7732 10.9486Z" fill="white"/>
<path d="M12.0179 12.0178C11.9809 12.0548 11.9557 12.1019 11.9455 12.1532C11.9353 12.2044 11.9405 12.2576 11.9605 12.3059C11.9805 12.3542 12.0144 12.3955 12.0579 12.4246C12.1014 12.4536 12.1525 12.4691 12.2048 12.4691C12.257 12.4691 12.3082 12.4536 12.3516 12.4246C12.3951 12.3955 12.429 12.3542 12.449 12.3059C12.469 12.2576 12.4742 12.2044 12.464 12.1532C12.4538 12.1019 12.4286 12.0548 12.3916 12.0178C12.3421 11.9683 12.2749 11.9404 12.2048 11.9404C12.1347 11.9404 12.0675 11.9683 12.0179 12.0178Z" fill="white"/>
<path d="M10.7103 13.3271C10.6733 13.3641 10.6481 13.4112 10.6379 13.4624C10.6277 13.5137 10.6329 13.5669 10.6529 13.6152C10.6729 13.6635 10.7068 13.7048 10.7503 13.7338C10.7938 13.7629 10.8449 13.7784 10.8971 13.7784C10.9494 13.7784 11.0005 13.7629 11.044 13.7338C11.0875 13.7048 11.1214 13.6635 11.1414 13.6152C11.1614 13.5669 11.1666 13.5137 11.1564 13.4624C11.1462 13.4112 11.121 13.3641 11.084 13.3271C11.0345 13.2775 10.9672 13.2497 10.8971 13.2497C10.8271 13.2497 10.7598 13.2775 10.7103 13.3271Z" fill="white"/>
<path d="M12.0179 9.40087C12.0548 9.3639 12.08 9.3168 12.0902 9.26552C12.1004 9.21424 12.0952 9.16109 12.0752 9.11278C12.0552 9.06448 12.0213 9.02319 11.9778 8.99414C11.9344 8.96509 11.8833 8.94958 11.831 8.94958C11.7787 8.94958 11.7276 8.96509 11.6841 8.99414C11.6406 9.02319 11.6068 9.06448 11.5868 9.11278C11.5668 9.16109 11.5615 9.21424 11.5717 9.26552C11.5819 9.3168 11.6071 9.3639 11.6441 9.40087C11.6937 9.45042 11.7609 9.47826 11.831 9.47826C11.9011 9.47826 11.9683 9.45042 12.0179 9.40087Z" fill="white"/>
<path d="M10.7103 10.7101C10.7472 10.6732 10.7724 10.6261 10.7826 10.5748C10.7928 10.5235 10.7876 10.4704 10.7676 10.422C10.7476 10.3737 10.7137 10.3325 10.6702 10.3034C10.6268 10.2744 10.5757 10.2589 10.5234 10.2589C10.4711 10.2589 10.42 10.2744 10.3765 10.3034C10.333 10.3325 10.2992 10.3737 10.2791 10.422C10.2591 10.4704 10.2539 10.5235 10.2641 10.5748C10.2743 10.6261 10.2995 10.6732 10.3365 10.7101C10.3861 10.7597 10.4533 10.7875 10.5234 10.7875C10.5935 10.7875 10.6607 10.7597 10.7103 10.7101Z" fill="white"/>
<path d="M9.02801 11.6448C8.99104 11.6818 8.96585 11.7289 8.95565 11.7802C8.94544 11.8315 8.95067 11.8846 8.97068 11.9329C8.99068 11.9812 9.02456 12.0225 9.06803 12.0516C9.1115 12.0806 9.16261 12.0961 9.2149 12.0961C9.26718 12.0961 9.31829 12.0806 9.36176 12.0516C9.40523 12.0225 9.43911 11.9812 9.45912 11.9329C9.47912 11.8846 9.48435 11.8315 9.47414 11.7802C9.46394 11.7289 9.43876 11.6818 9.40178 11.6448C9.35221 11.5953 9.28499 11.5674 9.2149 11.5674C9.1448 11.5674 9.07758 11.5953 9.02801 11.6448Z" fill="white"/>
<path d="M11.8328 10.5233C11.7958 10.5602 11.7707 10.6073 11.7605 10.6586C11.7503 10.7099 11.7555 10.763 11.7755 10.8113C11.7955 10.8596 11.8294 10.9009 11.8728 10.93C11.9163 10.959 11.9674 10.9745 12.0197 10.9745C12.072 10.9745 12.1231 10.959 12.1666 10.93C12.21 10.9009 12.2439 10.8596 12.2639 10.8113C12.2839 10.763 12.2892 10.7099 12.279 10.6586C12.2687 10.6073 12.2436 10.5602 12.2066 10.5233C12.157 10.4737 12.0898 10.4459 12.0197 10.4459C11.9496 10.4459 11.8824 10.4737 11.8328 10.5233Z" fill="white"/>
<path d="M10.7103 12.2829C10.8562 12.2829 10.9746 12.1646 10.9746 12.0186C10.9746 11.8726 10.8562 11.7543 10.7103 11.7543C10.5643 11.7543 10.4459 11.8726 10.4459 12.0186C10.4459 12.1646 10.5643 12.2829 10.7103 12.2829Z" fill="white"/>
<path d="M13.551 12.2415C13.514 12.2784 13.4888 12.3255 13.4786 12.3768C13.4684 12.4281 13.4736 12.4812 13.4936 12.5295C13.5136 12.5778 13.5475 12.6191 13.591 12.6482C13.6345 12.6772 13.6856 12.6927 13.7378 12.6927C13.7901 12.6927 13.8412 12.6772 13.8847 12.6482C13.9282 12.6191 13.9621 12.5778 13.9821 12.5295C14.0021 12.4812 14.0073 12.4281 13.9971 12.3768C13.9869 12.3255 13.9617 12.2784 13.9247 12.2415C13.8752 12.1919 13.8079 12.1641 13.7378 12.1641C13.6678 12.1641 13.6005 12.1919 13.551 12.2415Z" fill="white"/>
<path d="M12.4284 14.0012C12.5744 14.0012 12.6927 13.8828 12.6927 13.7368C12.6927 13.5908 12.5744 13.4725 12.4284 13.4725C12.2824 13.4725 12.1641 13.5908 12.1641 13.7368C12.1641 13.8828 12.2824 14.0012 12.4284 14.0012Z" fill="white"/>
<path d="M5.10295 2.48577C5.13993 2.4488 5.16511 2.4017 5.17532 2.35042C5.18552 2.29914 5.18029 2.24599 5.16029 2.19768C5.14028 2.14938 5.1064 2.10809 5.06293 2.07904C5.01946 2.04999 4.96835 2.03448 4.91607 2.03448C4.86378 2.03448 4.81267 2.04999 4.7692 2.07904C4.72573 2.10809 4.69185 2.14938 4.67185 2.19768C4.65184 2.24599 4.64661 2.29914 4.65682 2.35042C4.66702 2.4017 4.69221 2.4488 4.72918 2.48577C4.77875 2.53532 4.84598 2.56316 4.91607 2.56316C4.98616 2.56316 5.05338 2.53532 5.10295 2.48577Z" fill="white"/>
<path d="M3.6076 3.87169C3.75358 3.87169 3.87193 3.75335 3.87193 3.60736C3.87193 3.46137 3.75358 3.34302 3.6076 3.34302C3.46161 3.34302 3.34326 3.46137 3.34326 3.60736C3.34326 3.75335 3.46161 3.87169 3.6076 3.87169Z" fill="white"/>
<path d="M2.11224 4.72894C2.07526 4.76591 2.05008 4.81301 2.03988 4.86429C2.02967 4.91557 2.0349 4.96872 2.0549 5.01703C2.07491 5.06533 2.10879 5.10662 2.15226 5.13567C2.19573 5.16472 2.24684 5.18023 2.29912 5.18023C2.35141 5.18023 2.40252 5.16472 2.44599 5.13567C2.48946 5.10662 2.52334 5.06533 2.54335 5.01703C2.56335 4.96872 2.56858 4.91557 2.55837 4.86429C2.54817 4.81301 2.52298 4.76591 2.48601 4.72894C2.43644 4.67939 2.36922 4.65155 2.29912 4.65155C2.22903 4.65155 2.16181 4.67939 2.11224 4.72894Z" fill="white"/>
<path d="M6.7841 4.16695C6.82108 4.12998 6.84626 4.08288 6.85647 4.03161C6.86668 3.98033 6.86145 3.92717 6.84144 3.87887C6.82144 3.83056 6.78756 3.78927 6.74408 3.76022C6.70061 3.73117 6.6495 3.71567 6.59722 3.71567C6.54494 3.71567 6.49383 3.73117 6.45036 3.76022C6.40688 3.78927 6.373 3.83056 6.353 3.87887C6.33299 3.92717 6.32776 3.98033 6.33797 4.03161C6.34818 4.08288 6.37336 4.12998 6.41034 4.16695C6.45991 4.21651 6.52713 4.24434 6.59722 4.24434C6.66731 4.24434 6.73453 4.21651 6.7841 4.16695Z" fill="white"/>
<path d="M5.28972 5.55395C5.43571 5.55395 5.55406 5.4356 5.55406 5.28961C5.55406 5.14362 5.43571 5.02527 5.28972 5.02527C5.14374 5.02527 5.02539 5.14362 5.02539 5.28961C5.02539 5.4356 5.14374 5.55395 5.28972 5.55395Z" fill="white"/>
<path d="M3.79449 6.4112C3.75752 6.44816 3.73233 6.49526 3.72213 6.54654C3.71192 6.59782 3.71715 6.65097 3.73715 6.69928C3.75716 6.74759 3.79104 6.78887 3.83451 6.81792C3.87798 6.84697 3.92909 6.86248 3.98138 6.86248C4.03366 6.86248 4.08477 6.84697 4.12824 6.81792C4.17171 6.78887 4.20559 6.74759 4.2256 6.69928C4.2456 6.65097 4.25083 6.59782 4.24062 6.54654C4.23042 6.49526 4.20524 6.44816 4.16826 6.4112C4.11869 6.36164 4.05147 6.3338 3.98138 6.3338C3.91128 6.3338 3.84406 6.36164 3.79449 6.4112Z" fill="white"/>
<path d="M5.28984 3.98192C5.32682 3.94496 5.352 3.89786 5.36221 3.84658C5.37241 3.7953 5.36718 3.74214 5.34718 3.69384C5.32717 3.64553 5.29329 3.60424 5.24982 3.57519C5.20635 3.54614 5.15524 3.53064 5.10296 3.53064C5.05067 3.53064 4.99956 3.54614 4.95609 3.57519C4.91262 3.60424 4.87874 3.64553 4.85874 3.69384C4.83873 3.74214 4.8335 3.7953 4.84371 3.84658C4.85391 3.89786 4.8791 3.94496 4.91607 3.98192C4.96564 4.03148 5.03287 4.05932 5.10296 4.05932C5.17305 4.05932 5.24027 4.03148 5.28984 3.98192Z" fill="white"/>
<path d="M3.56108 2.3713C3.59806 2.33433 3.62324 2.28723 3.63345 2.23595C3.64365 2.18467 3.63842 2.13152 3.61842 2.08321C3.59841 2.03491 3.56453 1.99362 3.52106 1.96457C3.47759 1.93552 3.42648 1.92001 3.3742 1.92001C3.32191 1.92001 3.2708 1.93552 3.22733 1.96457C3.18386 1.99362 3.14998 2.03491 3.12998 2.08321C3.10997 2.13152 3.10474 2.18467 3.11495 2.23595C3.12515 2.28723 3.15034 2.33433 3.18731 2.3713C3.23688 2.42085 3.30411 2.44869 3.3742 2.44869C3.44429 2.44869 3.51151 2.42085 3.56108 2.3713Z" fill="white"/>
<path d="M3.9821 5.2896C4.01908 5.25263 4.04426 5.20553 4.05447 5.15426C4.06467 5.10298 4.05944 5.04982 4.03944 5.00152C4.01943 4.95321 3.98555 4.91192 3.94208 4.88287C3.89861 4.85382 3.8475 4.83832 3.79522 4.83832C3.74293 4.83832 3.69182 4.85382 3.64835 4.88287C3.60488 4.91192 3.571 4.95321 3.551 5.00152C3.53099 5.04982 3.52576 5.10298 3.53597 5.15426C3.54617 5.20553 3.57136 5.25263 3.60833 5.2896C3.6579 5.33916 3.72513 5.367 3.79522 5.367C3.86531 5.367 3.93253 5.33916 3.9821 5.2896Z" fill="white"/>
<path d="M2.2393 3.69301C2.27628 3.65605 2.30146 3.60895 2.31167 3.55767C2.32188 3.50639 2.31665 3.45324 2.29664 3.40493C2.27664 3.35662 2.24276 3.31533 2.19928 3.28628C2.15581 3.25723 2.1047 3.24173 2.05242 3.24173C2.00014 3.24173 1.94903 3.25723 1.90556 3.28628C1.86208 3.31533 1.8282 3.35662 1.8082 3.40493C1.7882 3.45324 1.78297 3.50639 1.79317 3.55767C1.80338 3.60895 1.82856 3.65605 1.86554 3.69301C1.91511 3.74257 1.98233 3.77041 2.05242 3.77041C2.12251 3.77041 2.18973 3.74257 2.2393 3.69301Z" fill="white"/>
<path fill-rule="evenodd" clip-rule="evenodd" d="M10.7242 6.98588L8.83926 5.10088C8.59158 4.85391 8.25622 4.715 7.90644 4.71451C7.55667 4.71401 7.22092 4.85197 6.97253 5.09824L5.1288 6.93248C4.88131 7.18093 4.74215 7.5172 4.7417 7.86788C4.74125 8.21857 4.87956 8.55519 5.12642 8.80426L7.05104 10.7289C7.17568 10.8524 7.32356 10.95 7.48613 11.016C7.64871 11.082 7.82275 11.1151 7.9982 11.1134C8.17365 11.1117 8.34703 11.0753 8.50831 11.0062C8.6696 10.9371 8.81559 10.8368 8.93786 10.7109L10.7419 8.83704C10.9804 8.58683 11.112 8.25351 11.1087 7.90787C11.1054 7.56222 10.9675 7.23148 10.7242 6.98588ZM8.55695 10.3443L10.361 8.4704C10.504 8.32011 10.5827 8.12002 10.5805 7.91261C10.5783 7.70521 10.4953 7.50685 10.3491 7.35965L8.46417 5.47465C8.31548 5.32655 8.11424 5.24326 7.90438 5.24297C7.69451 5.24267 7.49304 5.32539 7.34392 5.47307L5.50019 7.30731C5.35193 7.45661 5.26872 7.65849 5.26872 7.8689C5.26872 8.07931 5.35193 8.28119 5.50019 8.43049L7.42481 10.3551C7.49935 10.4297 7.58801 10.4886 7.6856 10.5285C7.78318 10.5684 7.88774 10.5884 7.99316 10.5874C8.09857 10.5864 8.20273 10.5644 8.29954 10.5226C8.39634 10.4809 8.48385 10.4203 8.55695 10.3443Z" fill="#D9D9D9"/>
</svg>
