<svg width="62" height="62" viewBox="0 0 62 62" fill="none" xmlns="http://www.w3.org/2000/svg">
<path d="M33.8975 7.01172L26.3716 7.01172C25.9588 7.01172 25.6201 7.41424 25.6201 7.9121C25.6201 8.40996 25.9588 8.81249 26.3716 8.81249H33.8975C34.3103 8.81249 34.6491 8.40996 34.6491 7.9121C34.6491 7.41424 34.3103 7.01172 33.8975 7.01172Z" fill="#00B288"/>
<path d="M31.252 49.9966H29.008C27.6319 49.9966 26.5205 51.12 26.5205 52.4871V52.9216C26.5205 54.2994 27.6425 55.4122 29.008 55.4122H31.252C32.628 55.4122 33.7394 54.2888 33.7394 52.9216V52.4871C33.7394 51.12 32.628 49.9966 31.252 49.9966ZM31.94 52.9322C31.94 53.3138 31.633 53.6211 31.252 53.6211H29.008C28.6269 53.6211 28.3199 53.3138 28.3199 52.9322V52.4977C28.3199 52.1162 28.6269 51.8088 29.008 51.8088H31.252C31.633 51.8088 31.94 52.1162 31.94 52.4977V52.9322Z" fill="#00B288"/>
<path d="M42.2174 3.875L18.0414 3.875C16.242 3.875 14.7812 5.33749 14.7812 7.13911L14.7812 54.8609C14.7812 56.6625 16.242 58.125 18.0414 58.125H42.2174C44.0168 58.125 45.4776 56.6625 45.4776 54.8609L45.4776 7.14971C45.4881 5.34809 44.0168 3.875 42.2174 3.875ZM43.6781 54.8715C43.6781 55.6769 43.0219 56.334 42.2174 56.334H18.0414C17.237 56.334 16.5807 55.6769 16.5807 54.8715L16.5807 7.14971C16.5807 6.34428 17.237 5.68722 18.0414 5.68722L42.2174 5.68722C43.0219 5.68722 43.6781 6.34428 43.6781 7.14971L43.6781 54.8715Z" fill="#00B288"/>
<path d="M44.5778 10.1704L15.681 10.1704C15.1835 10.1704 14.7812 10.5625 14.7812 11.05L14.7812 48.2058C14.7812 48.6933 15.261 49.0854 15.7585 49.0854H44.6782C45.1757 49.0854 45.4881 48.6933 45.4881 48.2058V11.0606C45.4881 10.5731 45.0859 10.1704 44.5778 10.1704ZM43.6781 47.3262H16.5807L16.5807 11.9402L43.6781 11.9402V47.3262Z" fill="#00B288"/>
<path d="M11.2884 43.9134C11.0767 43.9134 10.8755 43.8498 10.6956 43.712C6.36636 40.289 3.87891 35.1491 3.87891 29.6382C3.87891 24.1168 6.36636 18.9875 10.6956 15.5644C11.1084 15.2359 11.7118 15.3101 12.0293 15.7234C12.3574 16.1367 12.2833 16.7408 11.8705 17.0587C8.00703 20.1215 5.78419 24.6997 5.78419 29.6382C5.78419 34.5768 8.00703 39.155 11.8705 42.2178C12.2833 42.5463 12.3574 43.1398 12.0293 43.5531C11.8494 43.7862 11.5636 43.9134 11.2884 43.9134Z" fill="#00B288"/>
<path d="M11.4576 38.1481C11.1824 38.1481 10.9178 38.0316 10.7273 37.809C9.04428 35.7954 8.08105 32.8175 8.08105 29.6275C8.08105 26.4376 9.04428 23.4596 10.7273 21.4461C11.066 21.0433 11.6693 20.9904 12.0716 21.3295C12.4738 21.6686 12.5267 22.2727 12.188 22.6754C10.7908 24.3498 9.98634 26.8827 9.98634 29.6275C9.98634 32.3724 10.7908 34.9052 12.188 36.5797C12.5267 36.9824 12.4738 37.5865 12.0716 37.9256C11.8916 38.0846 11.6693 38.1481 11.4576 38.1481Z" fill="#00B288"/>
<path d="M49.0029 44.454C48.7065 44.454 48.4101 44.3163 48.2302 44.0513C47.9232 43.6274 48.0185 43.0233 48.4525 42.716C52.1783 40.0453 54.4012 35.3505 54.4012 30.1681C54.4012 24.9752 52.1783 20.2909 48.4525 17.6203C48.0291 17.3129 47.9232 16.7195 48.2302 16.2849C48.5371 15.861 49.1299 15.7551 49.5639 16.0624C53.7873 19.0934 56.3065 24.3605 56.3065 30.1681C56.3065 35.9758 53.7873 41.2429 49.5639 44.2739C49.3945 44.401 49.1934 44.454 49.0029 44.454Z" fill="#00B288"/>
<path d="M48.8335 38.6989C48.6218 38.6989 48.3995 38.6247 48.2196 38.4764C47.8173 38.1372 47.7644 37.5332 48.1031 37.1305C49.5003 35.456 50.3048 32.9231 50.3048 30.1783C50.3048 27.4335 49.5003 24.9006 48.1031 23.2262C47.7644 22.8235 47.8173 22.2194 48.2196 21.8803C48.6218 21.5411 49.2251 21.5941 49.5639 21.9968C51.2469 24.0104 52.2101 26.9884 52.2101 30.1783C52.2101 33.3682 51.2469 36.3462 49.5639 38.3598C49.3733 38.5823 49.1087 38.6989 48.8335 38.6989Z" fill="#00B288"/>
<path d="M33.3365 39.1982H26.6362C26.107 39.1982 25.6836 38.7743 25.6836 38.2444L25.6836 33.7191H21.312C20.7828 33.7191 20.3594 33.2952 20.3594 32.7653V26.0569C20.3594 25.527 20.7828 25.1031 21.312 25.1031H25.6836V20.5778C25.6836 20.0479 26.107 19.624 26.6362 19.624H33.3365C33.8657 19.624 34.2891 20.0479 34.2891 20.5778V25.1031H38.9677C39.4969 25.1031 39.9203 25.527 39.9203 26.0569V32.7653C39.9203 33.2952 39.4969 33.7191 38.9677 33.7191H34.2891V38.2444C34.2891 38.7743 33.8657 39.1982 33.3365 39.1982ZM27.5995 37.2906H32.3944V32.7653C32.3944 32.2354 32.8178 31.8115 33.3471 31.8115H38.0256V27.0107H33.3471C32.8178 27.0107 32.3944 26.5868 32.3944 26.0569V21.5316H27.5995V26.0569C27.5995 26.5868 27.1761 27.0107 26.6468 27.0107H22.2752V31.8115H26.6468C27.1761 31.8115 27.5995 32.2354 27.5995 32.7653L27.5995 37.2906Z" fill="#00B288"/>
</svg>
