<svg width="125" height="125" viewBox="0 0 125 125" fill="none" xmlns="http://www.w3.org/2000/svg">
<path d="M76.4405 18.3823H19.1464C10.6022 18.3823 3.67578 25.3087 3.67578 33.8529V91.147C3.67578 99.6912 10.6022 106.618 19.1464 106.618H76.4405C84.9847 106.618 91.9111 99.6912 91.9111 91.147V33.8529C91.9111 25.3087 84.9847 18.3823 76.4405 18.3823Z" fill="white"/>
<path d="M116.764 24C115.407 23.3732 113.897 23.1554 112.419 23.3735C110.941 23.5916 109.558 24.2361 108.44 25.228L99.2637 33.2574V91.7427L108.455 99.7721C109.859 101.014 111.668 101.703 113.543 101.71C114.66 101.707 115.763 101.465 116.778 101C118.141 100.39 119.297 99.3961 120.104 98.1399C120.911 96.8837 121.334 95.4196 121.323 93.9265V31.0736C121.333 29.5789 120.907 28.1136 120.098 26.8572C119.288 25.6008 118.129 24.6079 116.764 24Z" fill="white"/>
</svg>
