<svg width="20" height="16" viewBox="0 0 20 16" fill="none" xmlns="http://www.w3.org/2000/svg">
<path d="M9.84766 5.24878L12.7106 7.73563L12.7243 7.60536C12.7243 6.29877 11.5018 5.23694 9.99762 5.23694L9.84766 5.24878Z" fill="black"/>
<path d="M9.99782 3.65806C12.5063 3.65806 14.5423 5.4265 14.5423 7.60545C14.5423 8.11466 14.4241 8.60018 14.2196 9.04622L16.8781 11.3554C18.2505 10.3607 19.3321 9.07387 20.0001 7.60545C18.4232 4.13966 14.5468 1.68439 9.99787 1.68439C8.72541 1.68439 7.50754 1.88174 6.37598 2.23701L8.33917 3.93831C8.85263 3.76464 9.41159 3.65806 9.99782 3.65806Z" fill="black"/>
<path d="M0.90887 1.50658L2.98113 3.30658L3.39468 3.6658C1.89502 4.68423 0.70893 6.03819 0 7.60527C1.57238 11.071 5.45331 13.5263 9.99774 13.5263C11.4065 13.5263 12.7517 13.2895 13.9832 12.8592L14.3695 13.1947L17.0189 15.5L18.1777 14.4974L2.0677 0.5L0.90887 1.50658ZM5.93503 5.86844L7.33926 7.08818C7.29836 7.25793 7.27109 7.42764 7.27109 7.60527C7.27109 8.91186 8.49352 9.97369 9.99774 9.97369C10.2022 9.97369 10.3977 9.95001 10.5885 9.91448L11.9928 11.1342C11.3883 11.3947 10.7158 11.5527 9.99774 11.5527C7.48922 11.5527 5.45331 9.78422 5.45331 7.60527C5.45331 6.9816 5.6351 6.39737 5.93503 5.86844Z" fill="black"/>
</svg>
