<svg width="64" height="35" viewBox="0 0 64 35" fill="none" xmlns="http://www.w3.org/2000/svg">
<path d="M30.6875 15.75C34.3119 15.75 37.25 12.8119 37.25 9.1875C37.25 5.56313 34.3119 2.625 30.6875 2.625C27.0631 2.625 24.125 5.56313 24.125 9.1875C24.125 12.8119 27.0631 15.75 30.6875 15.75Z" fill="#CD3C32"/>
<path d="M29.0319 24.7917C29.0319 22.3055 28.8536 20.0492 30.6875 18.375H22.641C19.1172 18.375 16.25 20.8612 16.25 23.9167V28C16.25 28.483 16.7021 28.875 17.2591 28.875H30.6875C29.9906 27.6395 29.0319 26.257 29.0319 24.7917Z" fill="#CD3C32"/>
<path d="M39.875 15.75C35.5328 15.75 32 19.2828 32 23.625C32 27.9672 35.5328 31.5 39.875 31.5C44.2172 31.5 47.75 27.9672 47.75 23.625C47.75 19.2828 44.2172 15.75 39.875 15.75ZM42.5489 26.2989C42.3126 26.5351 42.0025 26.6538 41.6923 26.6538C41.3822 26.6538 41.072 26.5351 40.8357 26.2989L39.0184 24.4816C38.7907 24.255 38.6635 23.9473 38.6635 23.625V20.5962C38.6635 19.9262 39.2062 19.3846 39.875 19.3846C40.5438 19.3846 41.0865 19.9262 41.0865 20.5962V23.1234L42.5489 24.5857C43.0226 25.0595 43.0226 25.8252 42.5489 26.2989Z" fill="#CD3C32"/>
</svg>
