<svg width="130" height="115" viewBox="0 0 140 115" fill="none" xmlns="http://www.w3.org/2000/svg">
<path d="M69.375 55.5C82.1466 55.5 92.5 45.1466 92.5 32.375C92.5 19.6034 82.1466 9.25 69.375 9.25C56.6034 9.25 46.25 19.6034 46.25 32.375C46.25 45.1466 56.6034 55.5 69.375 55.5Z" fill="white"/>
<path d="M63.541 87.3611C63.541 78.6003 62.9128 70.6494 69.375 64.75H41.0205C28.6034 64.75 18.5 73.5108 18.5 84.2778V98.6667C18.5 100.369 20.093 101.75 22.0559 101.75H69.375C66.9191 97.3963 63.541 92.5247 63.541 87.3611Z" fill="white"/>
<path d="M101.75 55.5C86.4491 55.5 74 67.9491 74 83.25C74 98.5509 86.4491 111 101.75 111C117.051 111 129.5 98.5509 129.5 83.25C129.5 67.9491 117.051 55.5 101.75 55.5ZM111.172 92.6722C110.34 93.5047 109.247 93.9231 108.154 93.9231C107.061 93.9231 105.968 93.5047 105.135 92.6722L98.7316 86.2684C97.929 85.47 97.4808 84.3856 97.4808 83.25V72.5769C97.4808 70.216 99.3934 68.3077 101.75 68.3077C104.107 68.3077 106.019 70.216 106.019 72.5769V81.4825L111.172 86.6355C112.841 88.3048 112.841 91.0029 111.172 92.6722Z" fill="white"/>
</svg>
