<svg width="19" height="18" viewBox="0 0 19 18" fill="none" xmlns="http://www.w3.org/2000/svg">
<path d="M12.7322 10.5717C12.5759 10.5717 12.426 10.6338 12.3155 10.7443C12.205 10.8548 12.1429 11.0047 12.1429 11.161C12.1429 11.3173 12.205 11.4672 12.3155 11.5777C12.426 11.6882 12.5759 11.7503 12.7322 11.7503H14.6965C14.8528 11.7503 15.0026 11.6882 15.1132 11.5777C15.2237 11.4672 15.2858 11.3173 15.2858 11.161C15.2858 11.0047 15.2237 10.8548 15.1132 10.7443C15.0026 10.6338 14.8528 10.5717 14.6965 10.5717H12.7322ZM0.357179 2.51814C0.357179 1.94508 0.584825 1.39549 0.990037 0.99028C1.39525 0.585068 1.94484 0.357422 2.51789 0.357422H13.125C13.6981 0.357422 14.2477 0.585068 14.6529 0.99028C15.0581 1.39549 15.2858 1.94508 15.2858 2.51814V3.50656C16.0316 3.5564 16.7306 3.88783 17.2412 4.43374C17.7518 4.97965 18.0358 5.69922 18.0358 6.44671V14.6967C18.0358 15.4781 17.7253 16.2276 17.1728 16.7801C16.6202 17.3327 15.8708 17.6431 15.0893 17.6431H3.30675C2.52531 17.6431 1.77587 17.3327 1.22331 16.7801C0.670748 16.2276 0.360322 15.4781 0.360322 14.6967V6.44671H0.357179V2.71456H0.365822C0.359999 2.64925 0.357115 2.58371 0.357179 2.51814ZM15.0893 4.67885H1.53889V14.6967C1.53889 15.1656 1.72515 15.6152 2.05669 15.9468C2.38822 16.2783 2.83789 16.4646 3.30675 16.4646H15.0893C15.5582 16.4646 16.0078 16.2783 16.3394 15.9468C16.6709 15.6152 16.8572 15.1656 16.8572 14.6967V6.44671C16.8572 5.97784 16.6709 5.52818 16.3394 5.19664C16.0078 4.86511 15.5582 4.67885 15.0893 4.67885ZM14.1072 2.51814C14.1072 1.97599 13.6672 1.53599 13.125 1.53599H2.51789C2.25741 1.53599 2.0076 1.63947 1.82341 1.82366C1.63923 2.00784 1.53575 2.25766 1.53575 2.51814C1.53575 2.77862 1.63923 3.02843 1.82341 3.21262C2.0076 3.3968 2.25741 3.50028 2.51789 3.50028H14.1072V2.51814Z" fill="#56595B"/>
</svg>
