<svg width="24" height="23" viewBox="0 0 24 23" fill="none" xmlns="http://www.w3.org/2000/svg">
<path d="M1.17082 21.7764L11.5528 1.01246C11.737 0.643935 12.263 0.643937 12.4472 1.01246L22.8292 21.7764C22.9954 22.1088 22.7537 22.5 22.382 22.5H1.61803C1.24634 22.5 1.0046 22.1088 1.17082 21.7764Z" fill="#FFF7E9" stroke="#DF660A"/>
<path d="M12 16C11.1716 16 10.5 15.3284 10.5 14.5L10.5 8.5C10.5 7.67157 11.1716 7 12 7V7C12.8284 7 13.5 7.67157 13.5 8.5L13.5 14.5C13.5 15.3284 12.8284 16 12 16V16Z" fill="#DF660A"/>
<path d="M13.5 18.5C13.5 18.9345 13.3642 19.2931 13.0926 19.5759C12.821 19.8586 12.4568 20 12 20C11.5494 20 11.1883 19.8586 10.9167 19.5759C10.6389 19.2931 10.5 18.9345 10.5 18.5C10.5 18.0655 10.6389 17.7069 10.9167 17.4241C11.1883 17.1414 11.5494 17 12 17C12.4568 17 12.821 17.1414 13.0926 17.4241C13.3642 17.7069 13.5 18.0655 13.5 18.5Z" fill="#DF660A"/>
</svg>
