<svg width="114" height="114" viewBox="0 0 114 114" fill="none" xmlns="http://www.w3.org/2000/svg">
<path d="M56.9349 52.3533C70.1392 52.3533 80.8434 42.2286 80.8434 29.7392C80.8434 17.2497 70.1392 7.125 56.9349 7.125C43.7306 7.125 33.0264 17.2497 33.0264 29.7392C33.0264 42.2286 43.7306 52.3533 56.9349 52.3533Z" fill="white"/>
<path d="M78.9251 52.3533C78.3857 52.3533 77.8514 52.3694 77.3187 52.3967C72.42 56.5877 66.1599 59.0783 59.5669 59.4594C58.5765 59.5279 57.5825 59.5386 56.5907 59.4916C49.7424 59.2467 43.205 56.7246 38.1292 52.3694C37.8195 52.3597 37.5081 52.3533 37.195 52.3533C21.3354 52.3533 7.125 66.356 7.125 81.357C8.2004 84.8472 25.9657 106.948 56.5907 106.868C83.9655 107.293 101.388 89.5355 106.875 81.357C106.875 66.356 94.783 52.3533 78.9251 52.3533Z" fill="white"/>
</svg>
