<svg width="96" height="126" viewBox="0 0 96 126" fill="none" xmlns="http://www.w3.org/2000/svg">
<path d="M24.375 31.5H71.625C73.7985 31.5 75.5625 29.736 75.5625 27.5625V15.75C75.5625 13.5765 73.7985 11.8125 71.625 11.8125H63.2519C61.4978 5.02622 55.3257 0 48 0C40.6743 0 34.5023 5.02622 32.7481 11.8125H24.375C22.2015 11.8125 20.4375 13.5765 20.4375 15.75V27.5625C20.4375 29.736 22.2015 31.5 24.375 31.5Z" fill="white"/>
<path d="M91.3125 19.6875H83.4375V27.5625C83.4375 34.0771 78.1396 39.375 71.625 39.375H24.375C17.8604 39.375 12.5625 34.0771 12.5625 27.5625V19.6875H4.6875C2.514 19.6875 0.75 21.4515 0.75 23.625V122.062C0.75 124.236 2.514 126 4.6875 126H91.3125C93.486 126 95.25 124.236 95.25 122.062V23.625C95.25 21.4515 93.486 19.6875 91.3125 19.6875ZM28.3125 106.312H24.375C22.2015 106.312 20.4375 104.548 20.4375 102.375C20.4375 100.202 22.2015 98.4375 24.375 98.4375H28.3125C30.486 98.4375 32.25 100.202 32.25 102.375C32.25 104.548 30.486 106.312 28.3125 106.312ZM28.3125 90.5625H24.375C22.2015 90.5625 20.4375 88.7985 20.4375 86.625C20.4375 84.4515 22.2015 82.6875 24.375 82.6875H28.3125C30.486 82.6875 32.25 84.4515 32.25 86.625C32.25 88.7985 30.486 90.5625 28.3125 90.5625ZM28.3125 74.8125H24.375C22.2015 74.8125 20.4375 73.0485 20.4375 70.875C20.4375 68.7015 22.2015 66.9375 24.375 66.9375H28.3125C30.486 66.9375 32.25 68.7015 32.25 70.875C32.25 73.0485 30.486 74.8125 28.3125 74.8125ZM28.3125 59.0625H24.375C22.2015 59.0625 20.4375 57.2985 20.4375 55.125C20.4375 52.9515 22.2015 51.1875 24.375 51.1875H28.3125C30.486 51.1875 32.25 52.9515 32.25 55.125C32.25 57.2985 30.486 59.0625 28.3125 59.0625ZM71.625 106.312H44.0625C41.889 106.312 40.125 104.548 40.125 102.375C40.125 100.202 41.889 98.4375 44.0625 98.4375H71.625C73.7985 98.4375 75.5625 100.202 75.5625 102.375C75.5625 104.548 73.7985 106.312 71.625 106.312ZM71.625 90.5625H44.0625C41.889 90.5625 40.125 88.7985 40.125 86.625C40.125 84.4515 41.889 82.6875 44.0625 82.6875H71.625C73.7985 82.6875 75.5625 84.4515 75.5625 86.625C75.5625 88.7985 73.7985 90.5625 71.625 90.5625ZM71.625 74.8125H44.0625C41.889 74.8125 40.125 73.0485 40.125 70.875C40.125 68.7015 41.889 66.9375 44.0625 66.9375H71.625C73.7985 66.9375 75.5625 68.7015 75.5625 70.875C75.5625 73.0485 73.7985 74.8125 71.625 74.8125ZM71.625 59.0625H44.0625C41.889 59.0625 40.125 57.2985 40.125 55.125C40.125 52.9515 41.889 51.1875 44.0625 51.1875H71.625C73.7985 51.1875 75.5625 52.9515 75.5625 55.125C75.5625 57.2985 73.7985 59.0625 71.625 59.0625Z" fill="white"/>
</svg>
