<svg width="31" height="23" viewBox="0 0 31 23" fill="none" xmlns="http://www.w3.org/2000/svg">
<path fill-rule="evenodd" clip-rule="evenodd" d="M0.500313 8.75069C-0.130464 8.17299 -0.170183 7.18827 0.411794 6.56213C2.30461 4.52575 4.57597 2.90113 7.1239 1.76905C9.76823 0.59411 12.6033 0 15.4999 0C18.3965 0 21.2316 0.59405 23.8761 1.76905C26.4241 2.90119 28.6955 4.52569 30.5884 6.56219C31.1703 7.18827 31.1303 8.17299 30.4996 8.75069C30.211 9.01496 29.8345 9.16088 29.4419 9.16088C29.0054 9.16088 28.591 8.98106 28.2949 8.66264C25.0095 5.12815 20.3452 3.0973 15.4999 3.0973C10.6546 3.0973 5.9904 5.12827 2.70489 8.66264C2.12303 9.28842 1.13085 9.32815 0.500313 8.75069ZM15.4998 17.7519C16.958 17.7519 18.1434 18.9287 18.1434 20.3761C18.1434 21.8234 16.9578 23 15.4998 23C14.0419 23 12.8564 21.8234 12.8564 20.3761C12.8564 18.9287 14.0417 17.7519 15.4998 17.7519ZM19.7773 16.969C18.7295 15.6751 17.1727 14.9318 15.4999 14.9318C13.8272 14.9318 12.2702 15.6749 11.2226 16.9689C10.6852 17.6328 9.69805 17.7395 9.02931 17.206C8.36039 16.6723 8.25304 15.6925 8.7907 15.0285C10.4324 13.0011 12.8791 11.8346 15.4999 11.8346C18.1208 11.8346 20.5676 13.001 22.2093 15.0285C22.7469 15.6925 22.6395 16.6721 21.9707 17.2059C21.6934 17.4272 21.3496 17.5475 20.9939 17.5475C20.5203 17.5475 20.0739 17.3353 19.7773 16.969ZM24.0558 12.8304C24.6221 13.4626 25.6214 13.5205 26.2582 12.9585C26.8951 12.3964 26.9536 11.4043 26.3873 10.7721C23.625 7.68868 19.6572 5.91723 15.4998 5.91723C11.3426 5.91723 7.37475 7.68875 4.61248 10.7721C4.04618 11.4043 4.10467 12.3964 4.74156 12.9585C5.02771 13.211 5.39504 13.3498 5.77788 13.3498C6.22423 13.3498 6.64752 13.1616 6.94414 12.8304C9.11468 10.4075 12.233 9.01448 15.4999 9.01448C18.7668 9.01454 21.8853 10.4073 24.0558 12.8304Z" fill="#56595B"/>
</svg>
