<svg width="140" height="140" viewBox="0 0 140 140" fill="none" xmlns="http://www.w3.org/2000/svg">
<rect x="5" y="5" width="130" height="130" rx="65" fill="#EBF5F3"/>
<rect x="15" y="15" width="110" height="110" rx="55" fill="#D9F4ED"/>
<path fill-rule="evenodd" clip-rule="evenodd" d="M40.3635 64.7703C39.1172 63.6714 39.0388 61.7983 40.1886 60.6073C43.9285 56.7338 48.4162 53.6435 53.4504 51.49C58.6751 49.2551 64.2767 48.125 69.9998 48.125C75.723 48.125 81.3246 49.255 86.5495 51.49C91.5838 53.6436 96.0718 56.7337 99.8117 60.6074C100.961 61.7983 100.882 63.6714 99.6363 64.7703C99.0662 65.273 98.3222 65.5506 97.5465 65.5506C96.6841 65.5506 95.8652 65.2085 95.2803 64.6028C88.789 57.8796 79.5731 54.0166 69.9998 54.0166C60.4265 54.0166 51.2109 57.8799 44.7193 64.6028C43.5697 65.7932 41.6093 65.8688 40.3635 64.7703ZM69.9997 81.8923C72.8807 81.8923 75.2228 84.1306 75.2228 86.8839C75.2228 89.637 72.8803 91.875 69.9997 91.875C67.119 91.875 64.7767 89.637 64.7767 86.8839C64.7768 84.1308 67.1188 81.8923 69.9997 81.8923ZM78.4511 80.403C76.3808 77.9417 73.305 76.5278 69.9998 76.5278C66.6948 76.5278 63.6185 77.9415 61.5487 80.4029C60.4869 81.6657 58.5365 81.8686 57.2152 80.8538C55.8935 79.8386 55.6814 77.9748 56.7437 76.7118C59.9873 72.8553 64.8215 70.6364 69.9998 70.6364C75.1782 70.6364 80.0125 72.8551 83.2562 76.7118C84.3185 77.9748 84.1062 79.8383 82.7848 80.8536C82.237 81.2746 81.5577 81.5035 80.8548 81.5035C79.9192 81.5034 79.0372 81.0997 78.4511 80.403ZM86.9046 72.5307C88.0234 73.7333 89.9979 73.8434 91.2562 72.7743C92.5146 71.7052 92.63 69.8179 91.5112 68.6154C86.0535 62.7502 78.2138 59.3806 69.9997 59.3806C61.7858 59.3806 53.9461 62.7503 48.4884 68.6154C47.3695 69.8179 47.485 71.7052 48.7434 72.7743C49.3088 73.2546 50.0346 73.5186 50.791 73.5186C51.6729 73.5186 52.5092 73.1606 53.0953 72.5307C57.3838 67.9218 63.545 65.2721 69.9998 65.2721C76.4545 65.2722 82.6161 67.9216 86.9046 72.5307Z" fill="#04A127"/>
<rect x="0.5" y="0.5" width="139" height="139" rx="69.5" stroke="#E6F8EF"/>
</svg>
