<svg width="136" height="136" viewBox="0 0 136 136" fill="none" xmlns="http://www.w3.org/2000/svg">
<circle opacity="0.1" cx="68" cy="68" r="67.5" stroke="#00B288"/>
<circle opacity="0.1" cx="68" cy="68" r="63" fill="#00B288"/>
<circle opacity="0.1" cx="68" cy="68" r="53" fill="#00B288"/>
<path fill-rule="evenodd" clip-rule="evenodd" d="M36.0813 62.6428C34.718 61.412 34.6322 59.3141 35.89 57.9802C39.9809 53.6418 44.89 50.1807 50.3968 47.7688C56.112 45.2657 62.2395 44 68.4998 44C74.7602 44 80.8877 45.2656 86.6031 47.7688C92.1101 50.1808 97.0194 53.6417 101.11 57.9803C102.368 59.3141 102.282 61.412 100.918 62.6428C100.295 63.2058 99.481 63.5167 98.6325 63.5167C97.6891 63.5167 96.7934 63.1336 96.1535 62.4552C89.0528 54.9252 78.9718 50.5986 68.4998 50.5986C58.0278 50.5986 47.947 54.9255 40.846 62.4552C39.5885 63.7884 37.4441 63.873 36.0813 62.6428V62.6428ZM68.4996 81.8194C71.6511 81.8194 74.2131 84.3263 74.2131 87.41C74.2131 90.4934 71.6507 93 68.4996 93C65.3486 93 62.7863 90.4934 62.7863 87.41C62.7865 84.3265 65.3483 81.8194 68.4996 81.8194V81.8194ZM77.7445 80.1513C75.4798 77.3947 72.1153 75.8112 68.4998 75.8112C64.8845 75.8112 61.5195 77.3944 59.2553 80.1512C58.0938 81.5656 55.9603 81.7929 54.515 80.6562C53.0692 79.5192 52.8372 77.4318 53.9992 76.0172C57.5474 71.6979 62.8354 69.2128 68.4998 69.2128C74.1643 69.2128 79.4524 71.6978 83.0007 76.0172C84.1627 77.4318 83.9305 79.5189 82.485 80.6561C81.8858 81.1275 81.1428 81.3839 80.3738 81.3839C79.3504 81.3838 78.3855 80.9316 77.7445 80.1513ZM86.9915 71.3344C88.2154 72.6813 90.3753 72.8046 91.7517 71.6072C93.1282 70.4098 93.2544 68.296 92.0307 66.9493C86.0606 60.3802 77.4848 56.6063 68.4996 56.6063C59.5147 56.6063 50.939 60.3804 44.9689 66.9493C43.745 68.296 43.8714 70.4098 45.2479 71.6072C45.8663 72.1451 46.6603 72.4408 47.4877 72.4408C48.4524 72.4408 49.3672 72.0399 50.0083 71.3344C54.6995 66.1724 61.439 63.2048 68.4998 63.2048C75.5604 63.2049 82.3005 66.1722 86.9915 71.3344V71.3344Z" fill="#00B288"/>
</svg>
