<svg width="135" height="130" viewBox="0 0 135 130" fill="none" xmlns="http://www.w3.org/2000/svg">
<g clip-path="url(#clip0)">
<path d="M112.76 66.53C112.76 59.35 92.4505 53.52 67.4905 53.52C42.5305 53.52 22.2305 59.36 22.2305 66.53" stroke="#006A51" stroke-width="5" stroke-linecap="round"/>
<path d="M99.4603 87.7798C99.4603 82.7098 85.1203 78.5898 67.4903 78.5898C49.8703 78.5898 35.5303 82.7098 35.5303 87.7798" stroke="#006A51" stroke-width="5" stroke-linecap="round"/>
<path d="M124.06 44.24C124.06 35.27 98.6799 27.98 67.4799 27.98C36.2899 27.98 10.9199 35.27 10.9199 44.24" stroke="#006A51" stroke-width="5" stroke-linecap="round"/>
<path d="M132.49 21.18C132.49 10.88 103.33 2.5 67.48 2.5C31.65 2.5 2.5 10.88 2.5 21.18" stroke="#006A51" stroke-width="5" stroke-linecap="round"/>
<path d="M67.4896 126.7C74.4705 126.7 80.1296 121.041 80.1296 114.06C80.1296 107.079 74.4705 101.42 67.4896 101.42C60.5087 101.42 54.8496 107.079 54.8496 114.06C54.8496 121.041 60.5087 126.7 67.4896 126.7Z" stroke="#006A51" stroke-width="5"/>
</g>
<defs>
<clipPath id="clip0">
<rect width="134.99" height="129.19" fill="white"/>
</clipPath>
</defs>
</svg>
