<svg width="73" height="82" viewBox="0 0 73 82" fill="none" xmlns="http://www.w3.org/2000/svg">
<path d="M47.8089 45.1437C47.1649 45.1437 46.6421 44.6593 46.6421 44.0624C46.6421 43.4656 47.1649 42.9812 47.8089 42.9812C54.5218 42.9812 56.5785 40.8923 57.1766 39.897C55.9448 38.599 54.2814 35.0157 54.2814 25.1442C54.2814 24.8444 54.2894 24.4798 54.2981 24.0615C54.3782 20.3791 54.5654 11.7579 49.408 6.88171C46.7984 4.41421 43.0735 3.16246 38.3374 3.16246C33.5932 3.16246 31.4762 5.60863 31.3881 5.71301C30.9915 6.18343 30.261 6.26869 29.7534 5.90706C29.2457 5.54542 29.1458 4.87508 29.5328 4.40098C29.6471 4.2628 32.3812 1 38.3374 1C43.724 1 48.0104 2.46932 51.0745 5.36755C56.918 10.8913 56.7158 20.1505 56.6309 24.1042C56.6214 24.5055 56.6142 24.8561 56.6142 25.1428C56.6142 36.4711 58.8407 38.4211 59.0446 38.574C59.5078 38.7695 59.7862 39.2281 59.7148 39.7059C59.6815 39.9301 58.767 45.1437 47.8089 45.1437Z" fill="#00B288" stroke="#00B288" stroke-width="0.3"/>
<path d="M25.7469 45.1435C18.1623 45.1435 14.1511 40.418 13.9838 40.2166C13.7513 39.9365 13.6815 39.569 13.7966 39.2324C13.8949 38.9384 14.1249 38.7017 14.4224 38.5753C14.6247 38.4231 16.8527 36.4767 16.8527 25.144C16.8527 20.1149 17.6166 3.70312 27.4491 3.70312C29.8366 3.70312 30.7107 3.97656 30.9233 4.06035C31.5142 4.29556 31.7895 4.93136 31.5357 5.48043C31.2866 6.01554 30.6227 6.26839 30.0452 6.06331C29.9802 6.04494 29.2996 5.86486 27.4491 5.86486C19.418 5.86486 19.1855 23.1697 19.1855 25.1433C19.1855 34.3591 17.7364 38.0946 16.541 39.6065C17.8506 40.7774 20.948 42.9803 25.7461 42.9803C26.3902 42.9803 26.9129 43.4647 26.9129 44.0615C26.9137 44.6591 26.391 45.1435 25.7469 45.1435Z" fill="#00B288" stroke="#00B288" stroke-width="0.3"/>
<path d="M36.7871 40.6397C28.299 40.6397 25.4808 33.4746 24.8875 31.5871C23.7738 30.8667 20.8438 28.6609 20.8438 25.415C20.8438 23.3444 21.7202 22.3044 22.4571 21.7972C23.0766 21.3694 23.5922 20.799 23.9444 20.1515C24.6535 18.8438 25.6244 17.9375 26.5635 17.0592C28.2919 15.4421 30.0798 13.7699 30.9729 9.10027C31.0673 8.60927 31.5123 8.24028 32.0501 8.20941C32.6132 8.18442 33.0796 8.49534 33.2367 8.97237C34.0402 11.4016 37.8452 13.2921 41.524 15.1209C44.8142 16.7563 47.9236 18.3006 49.5203 20.4175C49.9034 20.9232 50.3753 21.3451 50.925 21.6715C51.7515 22.164 52.7311 23.2129 52.7311 25.4143C52.7311 28.6602 49.8011 30.866 48.6874 31.5863C48.0933 33.4746 45.2751 40.6397 36.7871 40.6397ZM32.5918 12.1154C31.4401 15.5685 29.6847 17.2106 28.2205 18.5807C27.3361 19.4083 26.5722 20.1235 26.0289 21.1232C25.5141 22.0706 24.7606 22.9041 23.8492 23.5319C23.2947 23.9148 23.1781 24.7674 23.1781 25.415C23.1781 28.0766 26.4636 29.9634 26.4969 29.981C26.7737 30.1346 26.9712 30.389 27.041 30.6822C27.1156 31.0005 28.9653 38.4772 36.7886 38.4772C44.6492 38.4772 46.518 30.7624 46.5363 30.6844C46.6045 30.389 46.8004 30.1339 47.0804 29.9803C47.1105 29.9634 50.3991 28.0971 50.3991 25.4143C50.3991 24.7373 50.2714 23.8531 49.6654 23.4914C48.8587 23.0115 48.1663 22.3948 47.6103 21.6561C46.3316 19.9626 43.327 18.469 40.4223 17.0254C37.4755 15.5627 34.4566 14.0639 32.5918 12.1154Z" fill="#00B288" stroke="#00B288" stroke-width="0.3"/>
<path d="M39.8926 75.2336C39.4294 75.2336 38.99 74.9763 38.8083 74.5522L28.2009 49.8456C27.8971 49.1349 27.8209 48.366 27.978 47.6214C28.3397 45.9095 29.2027 41.5111 29.3954 37.6735C29.4256 37.0781 29.98 36.5923 30.6154 36.6445C31.2579 36.6724 31.756 37.1781 31.7258 37.7749C31.5252 41.7544 30.64 46.2771 30.2687 48.0367C30.1973 48.3748 30.2323 48.724 30.3703 49.0474L40.9769 73.7525C41.2141 74.3067 40.9222 74.9366 40.3241 75.1571C40.1829 75.2093 40.037 75.2336 39.8926 75.2336Z" fill="#00B288" stroke="#00B288" stroke-width="0.3"/>
<path d="M39.8948 80.9983C39.2508 80.9983 38.728 80.5139 38.728 79.9171V74.6638L22.0463 62.0147C21.5815 61.6626 21.4815 61.0422 21.8139 60.5791L24.0769 57.4332L20.8597 56.4395C20.3845 56.2917 20.0625 55.8794 20.0625 55.4134V48.2064C20.0625 47.919 20.1854 47.6433 20.406 47.4405L24.4195 43.7359C24.5837 43.5669 24.8082 43.3787 25.0533 43.2067C26.4049 42.1483 28.1111 41.5081 29.9386 41.3912C30.5724 41.3603 31.1387 41.7991 31.1823 42.3945C31.2268 42.9899 30.7421 43.5066 30.0996 43.547C28.7702 43.6316 27.5281 44.099 26.5088 44.8958C26.3311 45.0222 26.213 45.1207 26.1059 45.2295L22.3961 48.6555V54.6335L26.2653 55.8286C26.6104 55.936 26.8816 56.1851 26.999 56.5041C27.1172 56.8224 27.0688 57.1745 26.8666 57.4545L24.3418 60.9636L40.6333 73.315C40.9054 73.5193 41.0616 73.8273 41.0616 74.1515V79.9171C41.0616 80.5139 40.5389 80.9983 39.8948 80.9983Z" fill="#00B288" stroke="#00B288" stroke-width="0.3"/>
<path d="M2.02095 75.6935C1.93766 75.6935 1.852 75.6854 1.76554 75.6685C1.13653 75.5392 0.739929 74.9607 0.879532 74.3778L3.82252 56.7089C4.3508 54.5002 6.02207 52.6788 8.29141 51.8386L20.7962 47.2035C21.3919 46.9867 22.074 47.2513 22.312 47.8062C22.5523 48.3612 22.2604 48.9904 21.6616 49.2109L9.15679 53.846C7.6045 54.4215 6.46229 55.6659 6.10059 57.1779L3.1576 74.8482C3.03704 75.351 2.55556 75.6935 2.02095 75.6935Z" fill="#00B288" stroke="#00B288" stroke-width="0.3"/>
<path d="M11.8947 81.0045C11.2507 81.0045 10.7279 80.5201 10.7279 79.9233V69.2462C10.7279 66.8787 10.3179 64.5405 9.50959 62.2943L9.23197 61.5188C9.02812 60.9528 9.35968 60.3406 9.97202 60.1517C10.5796 59.9642 11.2435 60.2715 11.4474 60.8374L11.725 61.6114C12.6118 64.0775 13.0615 66.6464 13.0615 69.2462V79.9233C13.0615 80.5208 12.5388 81.0045 11.8947 81.0045Z" fill="#00B288" stroke="#00B288" stroke-width="0.3"/>
<path d="M53.1902 79.5571C52.5462 79.5571 52.0234 79.0727 52.0234 78.4758V69.8273C52.0234 69.2305 52.5462 68.7461 53.1902 68.7461C53.8343 68.7461 54.357 69.2305 54.357 69.8273V78.4758C54.357 79.0727 53.8343 79.5571 53.1902 79.5571Z" fill="#00B288" stroke="#00B288" stroke-width="0.3"/>
<path d="M62.534 79.5571C61.8899 79.5571 61.3672 79.0727 61.3672 78.4758V69.8273C61.3672 69.2305 61.8899 68.7461 62.534 68.7461C63.1781 68.7461 63.7008 69.2305 63.7008 69.8273V78.4758C63.7008 79.0727 63.1781 79.5571 62.534 79.5571Z" fill="#00B288" stroke="#00B288" stroke-width="0.3"/>
<path d="M36.7828 77.0351C36.7828 76.2384 36.0872 75.5938 35.2273 75.5938C34.3675 75.5938 33.6719 76.2384 33.6719 77.0351C33.6719 77.8319 34.3675 78.4765 35.2273 78.4765C36.0872 78.4765 36.7828 77.8319 36.7828 77.0351Z" fill="#00B288" stroke="#00B288" stroke-width="0.3"/>
<path d="M36.7834 67.5783C36.6359 67.5783 36.4876 67.5533 36.3432 67.4982C35.7475 67.2733 35.4604 66.6426 35.7039 66.0892L43.1909 49.0496C43.3321 48.7262 43.3702 48.3741 43.2988 48.0346C42.9355 46.2867 42.0741 41.7846 41.9162 37.7066C41.8932 37.1112 42.3977 36.6099 43.0418 36.5879C43.0553 36.5879 43.0687 36.5879 43.0846 36.5879C43.7089 36.5879 44.2268 37.0466 44.2498 37.6309C44.4005 41.5567 45.2374 45.9257 45.5895 47.6237C45.7474 48.3741 45.6657 49.1496 45.3508 49.8648L37.8638 66.9051C37.6798 67.3248 37.2435 67.5783 36.7834 67.5783Z" fill="#00B288" stroke="#00B288" stroke-width="0.3"/>
<path d="M38.4326 71.629C38.0955 71.629 37.7615 71.4938 37.5299 71.2321C37.1214 70.7705 37.1944 70.0891 37.6941 69.712L49.2264 60.9637L46.7017 57.4547C46.4994 57.1747 46.451 56.8226 46.5692 56.5043C46.6858 56.1846 46.9579 55.9354 47.3029 55.8288L51.1721 54.6337V48.6557L47.502 45.2679C47.3561 45.1216 47.2379 45.0231 47.1086 44.9327C46.0679 44.111 44.8361 43.6464 43.4884 43.5479C42.8459 43.5002 42.3676 42.979 42.4176 42.3837C42.4692 41.7883 43.0371 41.359 43.674 41.3914C45.5134 41.5281 47.2069 42.1698 48.5696 43.248C48.7592 43.3789 48.9845 43.5678 49.1876 43.7743L53.1615 47.4414C53.382 47.6443 53.5049 47.9199 53.5049 48.2073V55.4143C53.5049 55.8803 53.1829 56.2926 52.7078 56.4404L49.4906 57.4341L51.7535 60.58C52.0859 61.0431 51.986 61.6642 51.5211 62.0156L39.1702 71.385C38.9553 71.5489 38.6935 71.629 38.4326 71.629Z" fill="#00B288" stroke="#00B288" stroke-width="0.3"/>
<path d="M71.5476 75.6938C71.013 75.6938 70.5315 75.352 70.4101 74.8477L67.4671 57.1788C67.1054 55.6654 65.9632 54.421 64.4109 53.8454L51.9062 49.2103C51.3073 48.9891 51.0162 48.3599 51.2557 47.8057C51.4945 47.25 52.1774 46.9854 52.7715 47.2029L65.2763 51.8381C67.5457 52.6782 69.2169 54.4996 69.7452 56.7099L72.6882 74.3773C72.8278 74.9602 72.4312 75.5387 71.8022 75.668C71.7181 75.6849 71.6309 75.6938 71.5476 75.6938Z" fill="#00B288" stroke="#00B288" stroke-width="0.3"/>
<path d="M36.9675 57.3777C34.9004 57.3777 32.8341 56.8566 31.0233 55.8224C30.4752 55.5086 30.3046 54.8427 30.6417 54.3348C30.9789 53.8284 31.6959 53.6689 32.2472 53.9812C34.9615 55.5321 38.3929 55.6284 41.2048 54.2348C41.7775 53.9518 42.481 54.1518 42.7848 54.6766C43.0886 55.2028 42.8745 55.8592 42.3081 56.1407C40.6416 56.9668 38.8038 57.3777 36.9675 57.3777Z" fill="#00B288" stroke="#00B288" stroke-width="0.3"/>
<path d="M63.6898 78.4758C63.6898 79.0726 63.1671 79.557 62.523 79.557H53.1902C52.5462 79.557 52.0234 79.0726 52.0234 78.4758C52.0234 77.8789 52.5462 77.3945 53.1902 77.3945H62.523C63.1671 77.3945 63.6898 77.8789 63.6898 78.4758Z" fill="#00B288" stroke="#00B288" stroke-width="0.3"/>
</svg>
