<svg version="1.1" id="Layer_1" xmlns="http://www.w3.org/2000/svg" xmlns:xlink="http://www.w3.org/1999/xlink" x="0px" y="0px"
	 viewBox="0 0 32 28" style="enable-background:new 0 0 32 28;" xml:space="preserve" fill="#00B288">

<path class="st0" d="M13,15h6v2h-6V15z"/>
<path class="st0" d="M25.96,16.89h-5.27v0.93c0,0.51-0.42,0.93-0.94,0.93h-7.5c-0.52,0-0.94-0.41-0.94-0.93v-0.93H6.04
	c-1.21,0-2.28-0.76-2.67-1.9L0,5v20.22C0,26.75,1.26,28,2.81,28h26.38c1.55,0,2.81-1.25,2.81-2.78V5l-3.37,9.99
	C28.25,16.13,27.17,16.89,25.96,16.89z"/>
<path class="st0" d="M19.65,0h-7.3c-1.51,0-2.74,1.26-2.74,2.81v0.94H2l3.44,10.61C5.57,14.74,5.91,15,6.31,15h5.13v-0.94
	c0-0.52,0.41-0.94,0.91-0.94h7.3c0.5,0,0.91,0.42,0.91,0.94V15h5.13c0.39,0,0.74-0.26,0.87-0.64L30,3.75h-7.61V2.81
	C22.39,1.26,21.16,0,19.65,0z M11.44,3.75V2.81c0-0.52,0.41-0.94,0.91-0.94h7.3c0.5,0,0.91,0.42,0.91,0.94v0.94H11.44z"/>
</svg>
