<svg width="27" height="36" viewBox="0 0 27 36" fill="none" xmlns="http://www.w3.org/2000/svg">
<path d="M23.7203 35.5948H2.63528C2.6055 35.5795 2.57752 35.5569 2.54594 35.5497C0.875419 35.1508 0 34.0497 0 32.3404C0 22.9734 0 13.6064 0 4.23945C0 2.28646 1.28335 1.0013 3.23364 1.0004C7.43384 0.999499 11.6341 1.0004 15.8343 1.0004H16.2187V1.40472C16.2187 3.57792 16.2178 5.75023 16.2187 7.92343C16.2205 9.84665 17.5138 11.1336 19.4451 11.1345C21.6183 11.1354 23.7916 11.1345 25.9648 11.1345H26.3546V11.5343C26.3546 14.1913 26.3546 16.8482 26.3546 19.5051C26.3546 23.8173 26.3564 28.1294 26.3537 32.4415C26.3537 33.8395 25.5812 34.9685 24.3294 35.4152C24.13 35.4865 23.9224 35.5352 23.7184 35.5939L23.7203 35.5948ZM13.1755 17.2841C15.1673 17.2841 17.1591 17.2823 19.15 17.2859C19.6076 17.2859 19.9641 17.1217 20.168 16.702C20.5029 16.0134 20.0047 15.2616 19.2042 15.2589C17.336 15.2526 15.4687 15.2571 13.6006 15.2571C11.4626 15.2571 9.32457 15.2589 7.18656 15.2562C6.74163 15.2562 6.39688 15.4223 6.19291 15.8239C5.84004 16.5188 6.34544 17.2805 7.1658 17.2823C9.16844 17.2877 11.1711 17.2841 13.1746 17.2841H13.1755ZM13.1782 21.3381C15.17 21.3381 17.1618 21.3363 19.1527 21.3399C19.6103 21.3399 19.9659 21.1729 20.1689 20.7533C20.502 20.0638 20.002 19.3156 19.2006 19.3129C17.0743 19.3075 14.9471 19.3111 12.8208 19.3111C10.9418 19.3111 9.06285 19.3129 7.18385 19.3102C6.73892 19.3102 6.39417 19.4781 6.19111 19.8806C5.84004 20.5764 6.34724 21.3345 7.16851 21.3363C9.17115 21.3417 11.1738 21.3381 13.1773 21.3381H13.1782ZM13.2125 23.3651C11.2099 23.3651 9.20634 23.3678 7.20371 23.3633C6.729 23.3624 6.368 23.542 6.16945 23.977C5.85448 24.6683 6.37251 25.3894 7.18295 25.3912C9.30923 25.3948 11.4364 25.3921 13.5627 25.3921C15.4308 25.3921 17.2981 25.3903 19.1663 25.393C19.6103 25.393 19.9559 25.2279 20.1599 24.8244C20.511 24.1268 20.0074 23.3687 19.187 23.3669C17.1952 23.3624 15.2034 23.3651 13.2125 23.3651ZM11.1494 27.4191C9.83358 27.4191 8.51684 27.411 7.201 27.4272C6.97628 27.4299 6.729 27.4958 6.53406 27.6068C6.15682 27.8207 6.00339 28.2864 6.11981 28.6907C6.25609 29.1636 6.62882 29.4452 7.15136 29.4452C9.78304 29.4479 12.4156 29.447 15.0473 29.4461C15.7566 29.4461 16.2214 29.0373 16.216 28.4236C16.2106 27.8108 15.7503 27.42 15.0292 27.42C13.736 27.42 12.4418 27.42 11.1485 27.42L11.1494 27.4191Z" fill="#00B288"/>
<path d="M25.6484 8.10851H25.3523C23.3831 8.10851 21.4148 8.10851 19.4455 8.10851C18.6333 8.10851 18.2461 7.72224 18.2461 6.91271C18.2461 4.93263 18.2461 2.95347 18.2461 0.973393V0.71167C20.7126 3.17638 23.1782 5.64019 25.6484 8.10941V8.10851Z" fill="#00B288"/>
</svg>
